M48
; DRILL file {KiCad (6.0.1)} date Thu Sep 22 22:33:41 2022
; FORMAT={-:-/ absolute / metric / decimal}
; #@! TF.CreationDate,2022-09-22T22:33:41+02:00
; #@! TF.GenerationSoftware,Kicad,Pcbnew,(6.0.1)
; #@! TF.FileFunction,Plated,1,4,PTH
FMAT,2
METRIC
; #@! TA.AperFunction,Plated,PTH,ViaDrill
T1C0.300
; #@! TA.AperFunction,Plated,PTH,ComponentDrill
T2C0.400
; #@! TA.AperFunction,Plated,PTH,ComponentDrill
T3C0.650
; #@! TA.AperFunction,Plated,PTH,ComponentDrill
T4C0.700
; #@! TA.AperFunction,Plated,PTH,ComponentDrill
T5C1.000
; #@! TA.AperFunction,Plated,PTH,ComponentDrill
T6C1.100
; #@! TA.AperFunction,Plated,PTH,ComponentDrill
T7C1.500
; #@! TA.AperFunction,Plated,PTH,ViaDrill
T8C3.200
%
G90
G05
T1
X141.732Y-103.683
X141.783Y-94.488
X141.808Y-99.187
X141.808Y-105.715
X141.808Y-112.065
X141.808Y-118.466
X141.834Y-109.88
X141.834Y-115.672
X141.834Y-126.441
X141.884Y-37.795
X141.884Y-88.951
X141.935Y-71.425
X141.986Y-40.589
X141.986Y-45.212
X141.986Y-48.666
X141.986Y-61.976
X141.986Y-73.254
X141.986Y-123.546
X142.037Y-72.288
X142.088Y-114.808
X142.138Y-80.213
X142.189Y-121.006
X142.24Y-108.407
X142.291Y-101.854
X142.392Y-76.962
X142.646Y-83.261
X142.646Y-86.157
X142.951Y-50.952
X142.951Y-59.792
X142.964Y-51.562
X143.053Y-55.321
X143.307Y-99.314
X143.332Y-105.867
X143.358Y-112.217
X143.408Y-37.998
X143.408Y-108.102
X143.408Y-114.656
X143.408Y-118.618
X143.408Y-121.006
X143.459Y-101.702
X143.637Y-96.825
X143.764Y-108.763
X143.764Y-115.265
X143.764Y-121.666
X143.815Y-102.362
X143.967Y-40.945
X144.069Y-52.73
X144.069Y-53.696
X144.17Y-108.102
X144.17Y-114.656
X144.17Y-121.006
X144.221Y-89.459
X144.221Y-101.702
X144.323Y-79.756
X144.39Y-49.5
X144.59Y-72.03
X144.831Y-83.261
X144.831Y-86.208
X144.983Y-126.187
X145.136Y-40.843
X145.136Y-47.904
X145.237Y-88.494
X145.491Y-76.962
X145.542Y-50.597
X145.542Y-61.773
X145.542Y-92.812
X145.644Y-54.864
X145.999Y-52.629
X146.05Y-53.696
X146.152Y-41.554
X146.456Y-103.175
X146.507Y-116.942
X146.558Y-110.541
X146.609Y-109.22
X146.699Y-104.449
X146.71Y-32.969
X146.71Y-131.318
X146.812Y-48.006
X146.812Y-115.722
X146.82Y-54.86
X146.964Y-37.643
X146.964Y-40.691
X146.964Y-89.357
X146.964Y-92.812
X147.015Y-57.912
X147.015Y-59.182
X147.066Y-56.693
X147.066Y-61.417
X147.117Y-60.452
X147.218Y-73.254
X147.32Y-128.27
X147.371Y-66.954
X147.371Y-67.716
X147.374Y-72.418
X147.38Y-71.79
X147.574Y-69.698
X147.828Y-56.083
X147.879Y-91.186
X147.93Y-58.166
X148.082Y-81.178
X148.133Y-33.172
X148.133Y-78.638
X148.234Y-109.423
X148.275Y-37.236
X148.285Y-82.906
X148.31Y-50.62
X148.438Y-70.917
X148.438Y-115.773
X148.539Y-59.893
X148.644Y-60.882
X148.742Y-35.712
X148.793Y-86.97
X148.895Y-96.266
X149.098Y-37.694
X149.127Y-102.831
X149.149Y-41.961
X149.2Y-64.364
X149.23Y-48.53
X149.369Y-69.596
X149.758Y-88.24
X149.758Y-91.186
X149.911Y-127.559
X150.044Y-125.918
X150.13Y-45.05
X150.216Y-62.433
X150.266Y-37.643
X150.27Y-51.33
X150.317Y-69.596
X150.571Y-131.369
X150.774Y-54.966
X150.894Y-53.279
X150.927Y-46.126
X150.978Y-49.886
X150.978Y-67.97
X151.076Y-68.885
X151.181Y-48.971
X151.282Y-96.926
X151.333Y-76.657
X151.333Y-79.756
X151.384Y-123.749
X151.536Y-43.84
X151.536Y-73.965
X151.638Y-36.474
X151.638Y-52.222
X151.689Y-35.408
X151.79Y-82.956
X151.841Y-70.307
X151.943Y-51.41
X151.943Y-99.212
X151.943Y-100.533
X151.943Y-101.752
X151.943Y-103.073
X151.943Y-105.258
X151.943Y-106.578
X151.943Y-107.798
X151.943Y-109.118
X151.943Y-111.354
X151.943Y-112.674
X151.943Y-113.894
X151.943Y-115.214
X151.943Y-117.399
X151.943Y-118.72
X151.943Y-119.939
X151.943Y-121.26
X151.994Y-37.744
X152.349Y-40.742
X152.705Y-33.02
X152.806Y-46.736
X152.857Y-45.771
X152.908Y-43.536
X153.01Y-48.108
X153.073Y-62.582
X153.111Y-51.918
X153.162Y-41.554
X153.264Y-50.581
X153.264Y-99.212
X153.264Y-100.533
X153.264Y-101.752
X153.264Y-103.073
X153.264Y-105.258
X153.264Y-106.578
X153.264Y-107.798
X153.264Y-109.118
X153.264Y-111.354
X153.264Y-112.674
X153.264Y-113.894
X153.264Y-115.214
X153.264Y-117.399
X153.264Y-118.72
X153.264Y-119.939
X153.264Y-121.26
X153.314Y-53.543
X153.568Y-52.68
X153.619Y-124.765
X153.67Y-127.66
X153.78Y-61.874
X153.78Y-63.289
X153.787Y-55.829
X153.822Y-131.267
X154.196Y-53.322
X154.38Y-98.54
X154.487Y-61.167
X154.487Y-62.582
X154.487Y-63.996
X154.584Y-32.766
X154.584Y-34.62
X154.584Y-36.474
X154.584Y-116.637
X154.73Y-104.22
X154.79Y-110.3
X154.9Y-79.43
X154.91Y-76.02
X155.194Y-60.46
X155.194Y-61.874
X155.194Y-63.289
X155.194Y-64.703
X155.28Y-54.356
X155.6Y-49.428
X155.657Y-88.001
X155.657Y-89.251
X155.657Y-90.501
X155.657Y-91.751
X155.702Y-43.434
X155.77Y-73.355
X155.901Y-61.167
X155.901Y-62.582
X155.901Y-63.996
X155.905Y-79.502
X155.92Y-76.048
X155.956Y-131.267
X156.19Y-86.58
X156.362Y-124.003
X156.362Y-127.813
X156.378Y-57.048
X156.608Y-61.874
X156.608Y-63.289
X156.947Y-117.729
X156.947Y-118.618
X156.947Y-119.507
X156.972Y-74.27
X156.972Y-96.114
X157.074Y-37.694
X157.175Y-81.991
X157.175Y-124.612
X157.19Y-107.46
X157.19Y-110.08
X157.2Y-108.73
X157.226Y-127.102
X157.277Y-38.76
X157.277Y-41.427
X157.277Y-42.418
X157.315Y-62.582
X157.353Y-49.81
X157.549Y-56.901
X157.582Y-46.939
X157.683Y-103.734
X157.683Y-104.496
X157.7Y-98.901
X157.7Y-99.79
X157.7Y-100.679
X157.734Y-44.298
X157.734Y-94.742
X157.785Y-97.688
X157.836Y-73.609
X157.886Y-40.437
X157.886Y-53.797
X157.988Y-124.003
X157.988Y-127.813
X158.0Y-77.9
X158.11Y-116.7
X158.293Y-50.546
X158.553Y-56.591
X158.699Y-49.784
X158.699Y-81.839
X158.75Y-45.482
X158.75Y-84.887
X158.801Y-57.947
X158.902Y-70.053
X158.92Y-113.96
X158.93Y-67.532
X159.156Y-52.172
X159.309Y-91.135
X159.333Y-46.1
X159.461Y-83.617
X159.512Y-124.003
X159.512Y-127.813
X159.614Y-44.704
X159.664Y-82.601
X159.696Y-58.248
X159.715Y-84.887
X159.766Y-80.416
X159.817Y-60.452
X159.918Y-41.961
X159.918Y-48.209
X159.918Y-49.682
X159.918Y-50.597
X159.918Y-110.414
X160.05Y-86.75
X160.325Y-40.234
X160.325Y-124.714
X160.325Y-127.051
X160.35Y-113.335
X160.426Y-37.998
X160.477Y-108.915
X160.477Y-109.677
X160.528Y-51.779
X160.55Y-58.54
X160.554Y-43.358
X160.757Y-113.825
X160.782Y-60.471
X160.884Y-96.876
X161.036Y-65.059
X161.112Y-113.335
X161.188Y-124.003
X161.188Y-127.813
X161.245Y-88.001
X161.245Y-89.251
X161.427Y-66.904
X161.493Y-58.522
X161.544Y-61.773
X161.544Y-115.748
X161.544Y-121.031
X161.569Y-107.239
X161.646Y-59.385
X161.696Y-64.008
X161.747Y-98.247
X161.886Y-65.059
X161.9Y-67.666
X161.9Y-94.03
X161.95Y-56.591
X162.001Y-108.839
X162.052Y-48.666
X162.052Y-53.848
X162.052Y-99.517
X162.1Y-86.75
X162.103Y-43.434
X162.103Y-113.284
X162.154Y-100.635
X162.154Y-122.225
X162.255Y-50.241
X162.408Y-115.748
X162.408Y-121.031
X162.458Y-68.529
X162.611Y-130.658
X162.763Y-52.121
X162.763Y-128.727
X162.916Y-79.756
X162.966Y-56.693
X163.017Y-53.696
X163.017Y-83.21
X163.119Y-32.766
X163.119Y-34.646
X163.119Y-36.525
X163.17Y-111.023
X163.195Y-111.989
X163.22Y-43.383
X163.271Y-101.702
X163.271Y-102.616
X163.373Y-125.679
X163.474Y-91.135
X163.525Y-88.036
X163.525Y-89.256
X163.576Y-52.68
X163.627Y-84.887
X163.779Y-50.241
X164.031Y-45.671
X164.135Y-77.876
X164.186Y-101.702
X164.186Y-102.616
X164.31Y-94.62
X164.389Y-43.942
X164.389Y-64.973
X164.389Y-112.979
X164.389Y-113.868
X164.389Y-114.757
X164.389Y-117.754
X164.389Y-118.643
X164.389Y-119.532
X164.44Y-55.524
X164.44Y-104.648
X164.44Y-105.385
X164.465Y-108.28
X164.465Y-109.169
X164.465Y-110.058
X164.49Y-98.882
X164.516Y-106.731
X164.526Y-99.694
X164.694Y-44.907
X164.795Y-84.887
X164.84Y-48.38
X164.92Y-52.79
X165.049Y-41.183
X165.151Y-50.19
X165.278Y-110.211
X165.303Y-100.609
X165.405Y-59.131
X165.405Y-60.198
X165.405Y-62.433
X165.43Y-112.954
X165.456Y-54.356
X165.456Y-122.123
X165.506Y-42.789
X165.564Y-55.199
X165.608Y-104.089
X165.608Y-115.926
X165.62Y-98.52
X165.71Y-127.203
X165.76Y-81.128
X165.76Y-82.245
X166.116Y-35.611
X166.116Y-57.048
X166.345Y-112.852
X166.421Y-42.926
X166.472Y-32.766
X166.472Y-116.738
X166.472Y-117.526
X166.522Y-73.254
X166.573Y-131.369
X166.624Y-59.131
X166.675Y-60.198
X166.675Y-62.433
X166.776Y-56.337
X166.827Y-123.596
X167.214Y-84.251
X167.214Y-85.501
X167.214Y-86.751
X167.214Y-88.001
X167.214Y-89.251
X167.284Y-41.183
X167.386Y-50.14
X167.792Y-62.433
X167.792Y-99.543
X167.843Y-64.872
X167.894Y-71.171
X167.945Y-37.694
X168.148Y-54.813
X168.148Y-79.451
X168.148Y-111.1
X168.183Y-43.383
X168.199Y-56.54
X168.25Y-81.737
X168.25Y-82.956
X168.351Y-109.772
X168.402Y-107.493
X168.453Y-48.412
X168.453Y-112.471
X168.656Y-103.835
X168.91Y-97.028
X168.91Y-99.873
X168.91Y-101.143
X168.91Y-123.596
X168.961Y-98.4
X169.113Y-92.558
X169.113Y-118.618
X169.113Y-119.736
X169.164Y-49.022
X169.215Y-102.26
X169.215Y-103.022
X169.316Y-62.23
X169.367Y-49.886
X169.367Y-71.222
X169.57Y-79.908
X169.602Y-63.03
X169.672Y-61.417
X169.774Y-45.161
X169.774Y-47.498
X169.774Y-52.375
X169.824Y-81.128
X169.926Y-94.844
X170.129Y-117.348
X170.332Y-73.05
X170.383Y-40.335
X170.399Y-56.083
X170.434Y-42.977
X170.434Y-64.516
X170.434Y-68.58
X170.485Y-51.613
X170.586Y-115.367
X170.586Y-116.078
X170.79Y-111.76
X170.942Y-77.419
X170.993Y-65.176
X170.993Y-126.086
X171.196Y-94.844
X171.196Y-122.377
X171.247Y-93.523
X171.247Y-97.028
X171.247Y-98.4
X171.247Y-99.873
X171.247Y-101.143
X171.247Y-106.934
X171.247Y-110.947
X171.298Y-37.795
X171.298Y-43.739
X171.298Y-79.908
X171.298Y-118.669
X171.348Y-54.102
X171.348Y-108.407
X171.348Y-112.573
X171.348Y-115.316
X171.348Y-119.888
X171.399Y-48.616
X171.4Y-57.96
X171.45Y-55.22
X171.45Y-59.54
X171.45Y-64.11
T2
X163.578Y-68.45
X163.578Y-69.3
X163.578Y-70.15
X163.578Y-71.0
X163.578Y-71.85
X163.578Y-72.7
X163.578Y-73.55
X163.578Y-74.4
X164.928Y-68.45
X164.928Y-69.3
X164.928Y-70.15
X164.928Y-71.0
X164.928Y-71.85
X164.928Y-72.7
X164.928Y-73.55
X164.928Y-74.4
T3
X144.399Y-55.372
X144.399Y-56.642
X144.399Y-57.912
X144.399Y-59.182
X144.399Y-60.452
X144.399Y-61.722
T5
X146.928Y-87.376
X155.575Y-70.114
X155.575Y-77.714
T6
X152.6Y-99.861
X152.6Y-102.401
X152.6Y-105.934
X152.6Y-108.474
X152.6Y-112.008
X152.6Y-114.548
X152.6Y-118.081
X152.6Y-120.621
X157.48Y-125.781
X160.02Y-125.781
T7
X170.078Y-97.841
X170.078Y-100.381
T8
X143.6Y-34.6
X143.6Y-129.6
X169.6Y-34.6
X169.6Y-129.6
T4
X164.728Y-67.1G85X163.428Y-67.1
G05
X164.728Y-75.75G85X163.428Y-75.75
G05
X168.678Y-67.1G85X167.778Y-67.1
G05
X168.628Y-75.75G85X167.828Y-75.75
G05
T0
M30
