%TF.GenerationSoftware,KiCad,Pcbnew,(6.0.1)*%
%TF.CreationDate,2022-09-22T22:33:38+02:00*%
%TF.ProjectId,kp-ptr,6b702d70-7472-42e6-9b69-6361645f7063,rev?*%
%TF.SameCoordinates,Original*%
%TF.FileFunction,Soldermask,Top*%
%TF.FilePolarity,Negative*%
%FSLAX46Y46*%
G04 Gerber Fmt 4.6, Leading zero omitted, Abs format (unit mm)*
G04 Created by KiCad (PCBNEW (6.0.1)) date 2022-09-22 22:33:38*
%MOMM*%
%LPD*%
G01*
G04 APERTURE LIST*
G04 Aperture macros list*
%AMRoundRect*
0 Rectangle with rounded corners*
0 $1 Rounding radius*
0 $2 $3 $4 $5 $6 $7 $8 $9 X,Y pos of 4 corners*
0 Add a 4 corners polygon primitive as box body*
4,1,4,$2,$3,$4,$5,$6,$7,$8,$9,$2,$3,0*
0 Add four circle primitives for the rounded corners*
1,1,$1+$1,$2,$3*
1,1,$1+$1,$4,$5*
1,1,$1+$1,$6,$7*
1,1,$1+$1,$8,$9*
0 Add four rect primitives between the rounded corners*
20,1,$1+$1,$2,$3,$4,$5,0*
20,1,$1+$1,$4,$5,$6,$7,0*
20,1,$1+$1,$6,$7,$8,$9,0*
20,1,$1+$1,$8,$9,$2,$3,0*%
%AMRotRect*
0 Rectangle, with rotation*
0 The origin of the aperture is its center*
0 $1 length*
0 $2 width*
0 $3 Rotation angle, in degrees counterclockwise*
0 Add horizontal line*
21,1,$1,$2,0,0,$3*%
G04 Aperture macros list end*
%ADD10C,2.850000*%
%ADD11RoundRect,0.147500X0.147500X0.172500X-0.147500X0.172500X-0.147500X-0.172500X0.147500X-0.172500X0*%
%ADD12RoundRect,0.135000X-0.135000X-0.185000X0.135000X-0.185000X0.135000X0.185000X-0.135000X0.185000X0*%
%ADD13RoundRect,0.135000X0.135000X0.185000X-0.135000X0.185000X-0.135000X-0.185000X0.135000X-0.185000X0*%
%ADD14RoundRect,0.135000X-0.185000X0.135000X-0.185000X-0.135000X0.185000X-0.135000X0.185000X0.135000X0*%
%ADD15RoundRect,0.175000X-0.325000X-0.175000X0.325000X-0.175000X0.325000X0.175000X-0.325000X0.175000X0*%
%ADD16RoundRect,0.140000X0.170000X-0.140000X0.170000X0.140000X-0.170000X0.140000X-0.170000X-0.140000X0*%
%ADD17RoundRect,0.135000X0.185000X-0.135000X0.185000X0.135000X-0.185000X0.135000X-0.185000X-0.135000X0*%
%ADD18RoundRect,0.225000X0.225000X0.250000X-0.225000X0.250000X-0.225000X-0.250000X0.225000X-0.250000X0*%
%ADD19R,0.800000X0.300000*%
%ADD20R,0.300000X0.800000*%
%ADD21R,1.750000X1.750000*%
%ADD22RoundRect,0.250000X0.375000X0.625000X-0.375000X0.625000X-0.375000X-0.625000X0.375000X-0.625000X0*%
%ADD23RoundRect,0.140000X0.140000X0.170000X-0.140000X0.170000X-0.140000X-0.170000X0.140000X-0.170000X0*%
%ADD24RoundRect,0.140000X-0.170000X0.140000X-0.170000X-0.140000X0.170000X-0.140000X0.170000X0.140000X0*%
%ADD25R,0.650000X0.400000*%
%ADD26R,1.150000X1.400000*%
%ADD27RoundRect,0.225000X-0.250000X0.225000X-0.250000X-0.225000X0.250000X-0.225000X0.250000X0.225000X0*%
%ADD28RoundRect,0.147500X-0.172500X0.147500X-0.172500X-0.147500X0.172500X-0.147500X0.172500X0.147500X0*%
%ADD29R,0.609600X0.304800*%
%ADD30R,1.092200X1.701800*%
%ADD31R,0.250000X0.728000*%
%ADD32R,0.728000X0.250000*%
%ADD33R,0.728000X0.252000*%
%ADD34R,0.728000X0.260000*%
%ADD35R,0.252000X0.728000*%
%ADD36RoundRect,0.250000X-0.375000X-0.625000X0.375000X-0.625000X0.375000X0.625000X-0.375000X0.625000X0*%
%ADD37RoundRect,0.140000X-0.140000X-0.170000X0.140000X-0.170000X0.140000X0.170000X-0.140000X0.170000X0*%
%ADD38RoundRect,0.008100X0.386900X0.126900X-0.386900X0.126900X-0.386900X-0.126900X0.386900X-0.126900X0*%
%ADD39R,1.240000X2.130000*%
%ADD40R,0.950000X0.450000*%
%ADD41R,3.450000X4.350000*%
%ADD42RoundRect,0.147500X-0.147500X-0.172500X0.147500X-0.172500X0.147500X0.172500X-0.147500X0.172500X0*%
%ADD43RoundRect,0.175000X-0.175000X0.325000X-0.175000X-0.325000X0.175000X-0.325000X0.175000X0.325000X0*%
%ADD44RoundRect,0.200000X-0.600000X0.200000X-0.600000X-0.200000X0.600000X-0.200000X0.600000X0.200000X0*%
%ADD45R,0.900000X1.200000*%
%ADD46RoundRect,0.140000X0.021213X-0.219203X0.219203X-0.021213X-0.021213X0.219203X-0.219203X0.021213X0*%
%ADD47RoundRect,0.006600X-0.208597X-0.354826X0.354826X0.208597X0.208597X0.354826X-0.354826X-0.208597X0*%
%ADD48RoundRect,0.022000X0.208597X-0.333047X0.333047X-0.208597X-0.208597X0.333047X-0.333047X0.208597X0*%
%ADD49RotRect,4.000000X4.000000X45.000000*%
%ADD50RoundRect,0.200000X-0.200000X-0.275000X0.200000X-0.275000X0.200000X0.275000X-0.200000X0.275000X0*%
%ADD51R,0.300000X0.855000*%
%ADD52R,0.855000X0.300000*%
%ADD53RoundRect,0.225000X0.250000X-0.225000X0.250000X0.225000X-0.250000X0.225000X-0.250000X-0.225000X0*%
%ADD54RoundRect,0.021200X0.633800X0.243800X-0.633800X0.243800X-0.633800X-0.243800X0.633800X-0.243800X0*%
%ADD55R,1.200000X0.900000*%
%ADD56O,0.800000X1.800000*%
%ADD57RoundRect,0.147500X0.017678X-0.226274X0.226274X-0.017678X-0.017678X0.226274X-0.226274X0.017678X0*%
%ADD58RoundRect,0.225000X-0.225000X-0.250000X0.225000X-0.250000X0.225000X0.250000X-0.225000X0.250000X0*%
%ADD59R,2.200000X1.900000*%
%ADD60RoundRect,0.200000X0.200000X0.275000X-0.200000X0.275000X-0.200000X-0.275000X0.200000X-0.275000X0*%
%ADD61RotRect,0.900000X1.200000X135.000000*%
%ADD62R,0.850800X1.761200*%
%ADD63R,3.150799X1.761200*%
%ADD64RoundRect,0.140000X0.219203X0.021213X0.021213X0.219203X-0.219203X-0.021213X-0.021213X-0.219203X0*%
%ADD65RoundRect,0.150000X-0.512500X-0.150000X0.512500X-0.150000X0.512500X0.150000X-0.512500X0.150000X0*%
%ADD66RoundRect,0.031500X-0.430000X-0.143500X0.430000X-0.143500X0.430000X0.143500X-0.430000X0.143500X0*%
%ADD67RoundRect,0.031500X0.143500X-0.428000X0.143500X0.428000X-0.143500X0.428000X-0.143500X-0.428000X0*%
%ADD68RoundRect,0.031500X0.430000X0.143500X-0.430000X0.143500X-0.430000X-0.143500X0.430000X-0.143500X0*%
%ADD69RoundRect,0.031500X-0.143500X0.428000X-0.143500X-0.428000X0.143500X-0.428000X0.143500X0.428000X0*%
%ADD70R,1.000000X1.000000*%
%ADD71O,1.000000X1.000000*%
%ADD72O,2.000000X2.500000*%
%ADD73O,2.000000X3.000000*%
%ADD74R,2.413000X4.572000*%
%ADD75C,0.700000*%
%ADD76O,3.200000X1.300000*%
%ADD77O,2.500000X1.300000*%
%ADD78RoundRect,1.050000X0.450000X0.000000X0.450000X0.000000X-0.450000X0.000000X-0.450000X0.000000X0*%
%ADD79R,1.500000X5.080000*%
%ADD80C,2.000000*%
%ADD81R,2.000000X2.000000*%
%ADD82R,3.302000X2.286000*%
%ADD83R,3.302000X2.447000*%
G04 APERTURE END LIST*
D10*
X145025000Y-34600000D02*
G75*
G03*
X145025000Y-34600000I-1425000J0D01*
G01*
X171025000Y-129600000D02*
G75*
G03*
X171025000Y-129600000I-1425000J0D01*
G01*
X145025000Y-129600000D02*
G75*
G03*
X145025000Y-129600000I-1425000J0D01*
G01*
X171025000Y-34600000D02*
G75*
G03*
X171025000Y-34600000I-1425000J0D01*
G01*
D11*
%TO.C,D2*%
X149075000Y-88265000D03*
X148105000Y-88265000D03*
%TD*%
D12*
%TO.C,R50*%
X162050000Y-89255600D03*
X163070000Y-89255600D03*
%TD*%
D13*
%TO.C,R49*%
X166575200Y-83312000D03*
X165555200Y-83312000D03*
%TD*%
D14*
%TO.C,R26*%
X150215600Y-89202800D03*
X150215600Y-90222800D03*
%TD*%
D15*
%TO.C,Q11*%
X145256400Y-96636800D03*
X145256400Y-98536800D03*
X147656400Y-97586800D03*
%TD*%
D13*
%TO.C,R78*%
X150014400Y-103733600D03*
X148994400Y-103733600D03*
%TD*%
D12*
%TO.C,R73*%
X148994400Y-107289600D03*
X150014400Y-107289600D03*
%TD*%
D15*
%TO.C,Q10*%
X145250760Y-99756878D03*
X145250760Y-101656878D03*
X147650760Y-100706878D03*
%TD*%
D16*
%TO.C,C63*%
X142240000Y-107566400D03*
X142240000Y-106606400D03*
%TD*%
D12*
%TO.C,R43*%
X156563600Y-73355200D03*
X157583600Y-73355200D03*
%TD*%
D14*
%TO.C,R76*%
X155041600Y-101039200D03*
X155041600Y-102059200D03*
%TD*%
D13*
%TO.C,R48*%
X166575200Y-84277200D03*
X165555200Y-84277200D03*
%TD*%
%TO.C,R46*%
X166575200Y-86749466D03*
X165555200Y-86749466D03*
%TD*%
D17*
%TO.C,R19*%
X157734000Y-56440800D03*
X157734000Y-55420800D03*
%TD*%
D18*
%TO.C,C5*%
X149111000Y-68834000D03*
X147561000Y-68834000D03*
%TD*%
D19*
%TO.C,IC1*%
X162228400Y-101408800D03*
X162228400Y-101908800D03*
X162228400Y-102408800D03*
X162228400Y-102908800D03*
D20*
X162978400Y-103658800D03*
X163478400Y-103658800D03*
X163978400Y-103658800D03*
X164478400Y-103658800D03*
D19*
X165228400Y-102908800D03*
X165228400Y-102408800D03*
X165228400Y-101908800D03*
X165228400Y-101408800D03*
D20*
X164478400Y-100658800D03*
X163978400Y-100658800D03*
X163478400Y-100658800D03*
X162978400Y-100658800D03*
D21*
X163728400Y-102158800D03*
%TD*%
D17*
%TO.C,R54*%
X144272000Y-114041059D03*
X144272000Y-113021059D03*
%TD*%
D22*
%TO.C,F1*%
X170310000Y-115112800D03*
X167510000Y-115112800D03*
%TD*%
D18*
%TO.C,C33*%
X144031000Y-72034400D03*
X142481000Y-72034400D03*
%TD*%
D13*
%TO.C,R47*%
X166575200Y-85496400D03*
X165555200Y-85496400D03*
%TD*%
D12*
%TO.C,R14*%
X149045200Y-59029600D03*
X150065200Y-59029600D03*
%TD*%
D23*
%TO.C,C7*%
X149273200Y-66903600D03*
X148313200Y-66903600D03*
%TD*%
%TO.C,C52*%
X166646800Y-41198800D03*
X165686800Y-41198800D03*
%TD*%
D24*
%TO.C,C53*%
X149148800Y-36096000D03*
X149148800Y-37056000D03*
%TD*%
D14*
%TO.C,R7*%
X155803600Y-82649600D03*
X155803600Y-83669600D03*
%TD*%
D25*
%TO.C,U12*%
X147402000Y-49896000D03*
X147402000Y-50546000D03*
X147402000Y-51196000D03*
X149302000Y-51196000D03*
X149302000Y-50546000D03*
X149302000Y-49896000D03*
%TD*%
D12*
%TO.C,R4*%
X158036800Y-42418000D03*
X159056800Y-42418000D03*
%TD*%
%TO.C,R20*%
X147826000Y-73253600D03*
X148846000Y-73253600D03*
%TD*%
%TO.C,R59*%
X149045200Y-120142000D03*
X150065200Y-120142000D03*
%TD*%
D13*
%TO.C,R29*%
X170486800Y-109931200D03*
X169466800Y-109931200D03*
%TD*%
D24*
%TO.C,C37*%
X165277800Y-111069650D03*
X165277800Y-112029650D03*
%TD*%
D17*
%TO.C,R77*%
X155041600Y-106072400D03*
X155041600Y-105052400D03*
%TD*%
D13*
%TO.C,R45*%
X166575200Y-88002532D03*
X165555200Y-88002532D03*
%TD*%
D17*
%TO.C,R65*%
X155041600Y-112219200D03*
X155041600Y-111199200D03*
%TD*%
D26*
%TO.C,Y1*%
X150365000Y-56723000D03*
X150365000Y-54523000D03*
X148765000Y-54523000D03*
X148765000Y-56723000D03*
%TD*%
D13*
%TO.C,R30*%
X170385200Y-106426000D03*
X169365200Y-106426000D03*
%TD*%
D27*
%TO.C,C24*%
X170535600Y-52971400D03*
X170535600Y-54521400D03*
%TD*%
D16*
%TO.C,C64*%
X142138400Y-114018000D03*
X142138400Y-113058000D03*
%TD*%
D28*
%TO.C,L3*%
X143256000Y-90447000D03*
X143256000Y-91417000D03*
%TD*%
D29*
%TO.C,U9*%
X162191700Y-110848864D03*
X162191700Y-111498850D03*
X162191700Y-112148836D03*
X164198300Y-112148836D03*
X164198300Y-111498850D03*
X164198300Y-110848864D03*
D30*
X163195000Y-111498850D03*
%TD*%
D24*
%TO.C,C29*%
X148082000Y-89055000D03*
X148082000Y-90015000D03*
%TD*%
D17*
%TO.C,R67*%
X144272000Y-107596400D03*
X144272000Y-106576400D03*
%TD*%
D13*
%TO.C,R35*%
X163171600Y-106730800D03*
X162151600Y-106730800D03*
%TD*%
D16*
%TO.C,C34*%
X167284400Y-43710800D03*
X167284400Y-42750800D03*
%TD*%
D31*
%TO.C,U3*%
X161274000Y-53637800D03*
X160774000Y-53637800D03*
X160274000Y-53637800D03*
X159774000Y-53637800D03*
X159274000Y-53637800D03*
D32*
X158860000Y-54551800D03*
D33*
X158860000Y-55052800D03*
D34*
X158860000Y-55556800D03*
D31*
X159274000Y-56465800D03*
X159774000Y-56465800D03*
D35*
X160275000Y-56465800D03*
D31*
X160774000Y-56465800D03*
X161274000Y-56465800D03*
D34*
X161688000Y-55556800D03*
D32*
X161688000Y-55051800D03*
X161688000Y-54551800D03*
%TD*%
D18*
%TO.C,C32*%
X144031000Y-73253600D03*
X142481000Y-73253600D03*
%TD*%
D12*
%TO.C,R3*%
X153922000Y-42418000D03*
X154942000Y-42418000D03*
%TD*%
D15*
%TO.C,Q4*%
X145291133Y-112637933D03*
X145291133Y-114537933D03*
X147691133Y-113587933D03*
%TD*%
D18*
%TO.C,C31*%
X167043400Y-49022000D03*
X165493400Y-49022000D03*
%TD*%
D13*
%TO.C,R13*%
X146306000Y-57931269D03*
X145286000Y-57931269D03*
%TD*%
D36*
%TO.C,F2*%
X147901200Y-118364000D03*
X150701200Y-118364000D03*
%TD*%
D17*
%TO.C,R79*%
X155041600Y-100128800D03*
X155041600Y-99108800D03*
%TD*%
D37*
%TO.C,C9*%
X148567200Y-58166000D03*
X149527200Y-58166000D03*
%TD*%
D24*
%TO.C,C14*%
X158902400Y-68303200D03*
X158902400Y-69263200D03*
%TD*%
D16*
%TO.C,C56*%
X143357600Y-114012789D03*
X143357600Y-113052789D03*
%TD*%
D23*
%TO.C,C17*%
X156791600Y-50088800D03*
X155831600Y-50088800D03*
%TD*%
D13*
%TO.C,R64*%
X150065200Y-116586000D03*
X149045200Y-116586000D03*
%TD*%
D38*
%TO.C,U7*%
X146939000Y-92186000D03*
X146939000Y-91686000D03*
X146939000Y-91186000D03*
X146939000Y-90686000D03*
X146939000Y-90186000D03*
X144399000Y-90186000D03*
X144399000Y-90686000D03*
X144399000Y-91186000D03*
X144399000Y-91686000D03*
X144399000Y-92186000D03*
D39*
X145669000Y-91186000D03*
%TD*%
D23*
%TO.C,C47*%
X145463200Y-53848000D03*
X144503200Y-53848000D03*
%TD*%
D13*
%TO.C,R10*%
X146306000Y-59182000D03*
X145286000Y-59182000D03*
%TD*%
D16*
%TO.C,C11*%
X150266400Y-68958400D03*
X150266400Y-67998400D03*
%TD*%
D12*
%TO.C,R69*%
X148994400Y-108458000D03*
X150014400Y-108458000D03*
%TD*%
D40*
%TO.C,U13*%
X162724000Y-58902600D03*
X162724000Y-60172600D03*
X162724000Y-61442600D03*
X162724000Y-62712600D03*
X170524000Y-62712600D03*
X170524000Y-61442600D03*
X170524000Y-60172600D03*
X170524000Y-58902600D03*
D41*
X166624000Y-60807600D03*
%TD*%
D13*
%TO.C,R44*%
X166575200Y-89255600D03*
X165555200Y-89255600D03*
%TD*%
D42*
%TO.C,L1*%
X147472400Y-63601600D03*
X148442400Y-63601600D03*
%TD*%
D43*
%TO.C,Q13*%
X160055600Y-95726400D03*
X158155600Y-95726400D03*
X159105600Y-98126400D03*
%TD*%
D14*
%TO.C,R62*%
X155041600Y-113180400D03*
X155041600Y-114200400D03*
%TD*%
D37*
%TO.C,C48*%
X151031000Y-50546000D03*
X151991000Y-50546000D03*
%TD*%
D36*
%TO.C,F4*%
X147901200Y-105511600D03*
X150701200Y-105511600D03*
%TD*%
D15*
%TO.C,Q2*%
X145304967Y-119060949D03*
X145304967Y-120960949D03*
X147704967Y-120010949D03*
%TD*%
D44*
%TO.C,AE1*%
X142494000Y-65303600D03*
X142494000Y-68503600D03*
%TD*%
D12*
%TO.C,R51*%
X162050000Y-88036400D03*
X163070000Y-88036400D03*
%TD*%
D45*
%TO.C,D3*%
X168324800Y-77927200D03*
X165024800Y-77927200D03*
%TD*%
D18*
%TO.C,C21*%
X163779400Y-49367000D03*
X162229400Y-49367000D03*
%TD*%
D46*
%TO.C,C15*%
X154092589Y-55559011D03*
X154771411Y-54880189D03*
%TD*%
D24*
%TO.C,C3*%
X161188401Y-62664400D03*
X161188401Y-63624400D03*
%TD*%
D17*
%TO.C,R53*%
X144272000Y-120396341D03*
X144272000Y-119376341D03*
%TD*%
D47*
%TO.C,U1*%
X150919540Y-63208505D03*
X151202382Y-63491348D03*
X151485225Y-63774191D03*
X151768068Y-64057033D03*
X152050910Y-64339876D03*
X152333753Y-64622719D03*
X152616596Y-64905562D03*
X152899438Y-65188404D03*
X153182281Y-65471247D03*
X153465124Y-65754090D03*
X153747967Y-66036932D03*
X154030809Y-66319775D03*
X154313652Y-66602618D03*
X154596495Y-66885460D03*
D48*
X155791505Y-66885460D03*
X156074348Y-66602618D03*
X156357191Y-66319775D03*
X156640033Y-66036932D03*
X156922876Y-65754090D03*
X157205719Y-65471247D03*
X157488562Y-65188404D03*
X157771404Y-64905562D03*
X158054247Y-64622719D03*
X158337090Y-64339876D03*
X158619932Y-64057033D03*
X158902775Y-63774191D03*
X159185618Y-63491348D03*
X159468460Y-63208505D03*
D47*
X159468460Y-62013495D03*
X159185618Y-61730652D03*
X158902775Y-61447809D03*
X158619932Y-61164967D03*
X158337090Y-60882124D03*
X158054247Y-60599281D03*
X157771404Y-60316438D03*
X157488562Y-60033596D03*
X157205719Y-59750753D03*
X156922876Y-59467910D03*
X156640033Y-59185068D03*
X156357191Y-58902225D03*
X156074348Y-58619382D03*
X155791505Y-58336540D03*
D48*
X154596495Y-58336540D03*
X154313652Y-58619382D03*
X154030809Y-58902225D03*
X153747967Y-59185068D03*
X153465124Y-59467910D03*
X153182281Y-59750753D03*
X152899438Y-60033596D03*
X152616596Y-60316438D03*
X152333753Y-60599281D03*
X152050910Y-60882124D03*
X151768068Y-61164967D03*
X151485225Y-61447809D03*
X151202382Y-61730652D03*
X150919540Y-62013495D03*
D49*
X155194000Y-62611000D03*
%TD*%
D13*
%TO.C,R12*%
X146306000Y-56642000D03*
X145286000Y-56642000D03*
%TD*%
D14*
%TO.C,R40*%
X145491200Y-38606000D03*
X145491200Y-39626000D03*
%TD*%
D37*
%TO.C,C20*%
X161337200Y-52578000D03*
X162297200Y-52578000D03*
%TD*%
D13*
%TO.C,R24*%
X149862000Y-92202000D03*
X148842000Y-92202000D03*
%TD*%
D50*
%TO.C,FB2*%
X143891000Y-51308000D03*
X145541000Y-51308000D03*
%TD*%
D23*
%TO.C,C30*%
X149070000Y-91186000D03*
X148110000Y-91186000D03*
%TD*%
D13*
%TO.C,R1*%
X159056800Y-41402000D03*
X158036800Y-41402000D03*
%TD*%
D15*
%TO.C,Q8*%
X145254262Y-106210208D03*
X145254262Y-108110208D03*
X147654262Y-107160208D03*
%TD*%
D13*
%TO.C,R2*%
X154942000Y-41402000D03*
X153922000Y-41402000D03*
%TD*%
D14*
%TO.C,R23*%
X150368000Y-71981600D03*
X150368000Y-73001600D03*
%TD*%
D16*
%TO.C,C65*%
X142189200Y-120317200D03*
X142189200Y-119357200D03*
%TD*%
D36*
%TO.C,F5*%
X147901200Y-99110800D03*
X150701200Y-99110800D03*
%TD*%
D23*
%TO.C,C49*%
X169644000Y-56997600D03*
X168684000Y-56997600D03*
%TD*%
D51*
%TO.C,U8*%
X167789625Y-44742411D03*
X167289625Y-44742411D03*
X166789625Y-44742411D03*
X166289625Y-44742411D03*
D52*
X165562125Y-45469911D03*
X165562125Y-45969911D03*
X165562125Y-46469911D03*
X165562125Y-46969911D03*
D51*
X166289625Y-47697411D03*
X166789625Y-47697411D03*
X167289625Y-47697411D03*
X167789625Y-47697411D03*
D52*
X168517125Y-46969911D03*
X168517125Y-46469911D03*
X168517125Y-45969911D03*
X168517125Y-45469911D03*
%TD*%
D13*
%TO.C,R5*%
X166321200Y-65989200D03*
X165301200Y-65989200D03*
%TD*%
%TO.C,R72*%
X159564800Y-94640400D03*
X158544800Y-94640400D03*
%TD*%
D43*
%TO.C,Q6*%
X166202400Y-91713200D03*
X164302400Y-91713200D03*
X165252400Y-94113200D03*
%TD*%
D37*
%TO.C,C25*%
X166347200Y-55016400D03*
X167307200Y-55016400D03*
%TD*%
D53*
%TO.C,C44*%
X166624000Y-101613000D03*
X166624000Y-100063000D03*
%TD*%
D14*
%TO.C,R61*%
X155041600Y-119378000D03*
X155041600Y-120398000D03*
%TD*%
D13*
%TO.C,R66*%
X150014400Y-110337600D03*
X148994400Y-110337600D03*
%TD*%
D12*
%TO.C,R60*%
X148994400Y-113792000D03*
X150014400Y-113792000D03*
%TD*%
D14*
%TO.C,R36*%
X146939000Y-38606000D03*
X146939000Y-39626000D03*
%TD*%
D18*
%TO.C,C43*%
X159372600Y-109524800D03*
X157822600Y-109524800D03*
%TD*%
D15*
%TO.C,Q9*%
X145256400Y-103088400D03*
X145256400Y-104988400D03*
X147656400Y-104038400D03*
%TD*%
D18*
%TO.C,C42*%
X159372600Y-107950000D03*
X157822600Y-107950000D03*
%TD*%
D54*
%TO.C,U2*%
X156622600Y-48560200D03*
X156622600Y-47310200D03*
X156622600Y-46060200D03*
X156622600Y-44810200D03*
X154222600Y-44810200D03*
X154222600Y-46060200D03*
X154222600Y-47310200D03*
X154222600Y-48560200D03*
%TD*%
D55*
%TO.C,D4*%
X161975800Y-116866400D03*
X161975800Y-120166400D03*
%TD*%
D16*
%TO.C,C13*%
X149352000Y-60932000D03*
X149352000Y-59972000D03*
%TD*%
D17*
%TO.C,R31*%
X157230000Y-116530000D03*
X157230000Y-115510000D03*
%TD*%
D14*
%TO.C,R39*%
X148539200Y-38606000D03*
X148539200Y-39626000D03*
%TD*%
D37*
%TO.C,C39*%
X157254000Y-113436400D03*
X158214000Y-113436400D03*
%TD*%
D16*
%TO.C,C58*%
X143357600Y-101114800D03*
X143357600Y-100154800D03*
%TD*%
D17*
%TO.C,R25*%
X151480000Y-73000000D03*
X151480000Y-71980000D03*
%TD*%
D16*
%TO.C,C62*%
X142240000Y-101114800D03*
X142240000Y-100154800D03*
%TD*%
D12*
%TO.C,R33*%
X157224000Y-114452400D03*
X158244000Y-114452400D03*
%TD*%
D56*
%TO.C,U6*%
X151466000Y-75033000D03*
X150366000Y-75033000D03*
X149266000Y-75033000D03*
X148166000Y-75033000D03*
X147066000Y-75033000D03*
X145966000Y-75033000D03*
X144866000Y-75033000D03*
X143766000Y-75033000D03*
X142666000Y-75033000D03*
X142666000Y-84733000D03*
X143766000Y-84733000D03*
X144866000Y-84733000D03*
X145966000Y-84733000D03*
X147066000Y-84733000D03*
X148166000Y-84733000D03*
X149266000Y-84733000D03*
X150366000Y-84733000D03*
X151466000Y-84733000D03*
%TD*%
D13*
%TO.C,R11*%
X146306000Y-60452000D03*
X145286000Y-60452000D03*
%TD*%
D14*
%TO.C,R22*%
X149440000Y-71020000D03*
X149440000Y-72040000D03*
%TD*%
D57*
%TO.C,L2*%
X149059853Y-65874947D03*
X149745747Y-65189053D03*
%TD*%
D37*
%TO.C,C19*%
X162740400Y-55524400D03*
X163700400Y-55524400D03*
%TD*%
D12*
%TO.C,R74*%
X148994400Y-100888800D03*
X150014400Y-100888800D03*
%TD*%
D16*
%TO.C,C1*%
X147472400Y-62608400D03*
X147472400Y-61648400D03*
%TD*%
D15*
%TO.C,Q5*%
X145280240Y-109516414D03*
X145280240Y-111416414D03*
X147680240Y-110466414D03*
%TD*%
D23*
%TO.C,C6*%
X149273200Y-67716400D03*
X148313200Y-67716400D03*
%TD*%
D13*
%TO.C,R17*%
X163232400Y-44033000D03*
X162212400Y-44033000D03*
%TD*%
D58*
%TO.C,C18*%
X163004200Y-54457600D03*
X164554200Y-54457600D03*
%TD*%
D16*
%TO.C,C45*%
X166471600Y-104010400D03*
X166471600Y-103050400D03*
%TD*%
D13*
%TO.C,R80*%
X150014400Y-97332800D03*
X148994400Y-97332800D03*
%TD*%
%TO.C,R28*%
X170639200Y-112674400D03*
X169619200Y-112674400D03*
%TD*%
D12*
%TO.C,R52*%
X167993600Y-84277200D03*
X169013600Y-84277200D03*
%TD*%
D13*
%TO.C,R6*%
X166321200Y-64973200D03*
X165301200Y-64973200D03*
%TD*%
D12*
%TO.C,R21*%
X165098000Y-43942000D03*
X166118000Y-43942000D03*
%TD*%
D37*
%TO.C,C4*%
X162791200Y-64820800D03*
X163751200Y-64820800D03*
%TD*%
D13*
%TO.C,R58*%
X163430000Y-94691200D03*
X162410000Y-94691200D03*
%TD*%
D16*
%TO.C,C35*%
X169773600Y-46860400D03*
X169773600Y-45900400D03*
%TD*%
D14*
%TO.C,R8*%
X157175200Y-84732400D03*
X157175200Y-85752400D03*
%TD*%
D27*
%TO.C,C36*%
X160756600Y-110774650D03*
X160756600Y-112324650D03*
%TD*%
D37*
%TO.C,C51*%
X166804400Y-57048400D03*
X167764400Y-57048400D03*
%TD*%
D59*
%TO.C,L4*%
X159054800Y-102190000D03*
X159054800Y-106090000D03*
%TD*%
D17*
%TO.C,R63*%
X155041600Y-118467600D03*
X155041600Y-117447600D03*
%TD*%
D14*
%TO.C,R15*%
X150266400Y-66038000D03*
X150266400Y-67058000D03*
%TD*%
D17*
%TO.C,R38*%
X150241000Y-37086000D03*
X150241000Y-36066000D03*
%TD*%
D60*
%TO.C,FB1*%
X146755000Y-72040000D03*
X145105000Y-72040000D03*
%TD*%
D23*
%TO.C,C28*%
X145740000Y-87376000D03*
X144780000Y-87376000D03*
%TD*%
D36*
%TO.C,F3*%
X147901200Y-112064800D03*
X150701200Y-112064800D03*
%TD*%
D16*
%TO.C,C40*%
X165608000Y-117523200D03*
X165608000Y-116563200D03*
%TD*%
D61*
%TO.C,D14*%
X159357926Y-81125926D03*
X157024474Y-78792474D03*
%TD*%
D14*
%TO.C,R75*%
X155041600Y-107084400D03*
X155041600Y-108104400D03*
%TD*%
D62*
%TO.C,U10*%
X170214600Y-119250600D03*
X167914600Y-119250600D03*
X165614600Y-119250600D03*
D63*
X167914600Y-125300600D03*
%TD*%
D13*
%TO.C,R18*%
X169420000Y-50850800D03*
X168400000Y-50850800D03*
%TD*%
%TO.C,R57*%
X165711600Y-90627200D03*
X164691600Y-90627200D03*
%TD*%
D37*
%TO.C,C23*%
X160591400Y-48224000D03*
X161551400Y-48224000D03*
%TD*%
D23*
%TO.C,C50*%
X169641511Y-56084600D03*
X168681511Y-56084600D03*
%TD*%
D18*
%TO.C,C46*%
X145758200Y-52705000D03*
X144208200Y-52705000D03*
%TD*%
D43*
%TO.C,Q7*%
X164018000Y-95726400D03*
X162118000Y-95726400D03*
X163068000Y-98126400D03*
%TD*%
D64*
%TO.C,C8*%
X150402611Y-64550611D03*
X149723789Y-63871789D03*
%TD*%
D16*
%TO.C,C57*%
X143357600Y-107568130D03*
X143357600Y-106608130D03*
%TD*%
D23*
%TO.C,C54*%
X166646800Y-50190400D03*
X165686800Y-50190400D03*
%TD*%
D15*
%TO.C,Q3*%
X145307200Y-115940800D03*
X145307200Y-117840800D03*
X147707200Y-116890800D03*
%TD*%
D65*
%TO.C,U11*%
X167112100Y-70271600D03*
X167112100Y-71221600D03*
X167112100Y-72171600D03*
X169387100Y-72171600D03*
X169387100Y-71221600D03*
X169387100Y-70271600D03*
%TD*%
D17*
%TO.C,R68*%
X144272000Y-101143070D03*
X144272000Y-100123070D03*
%TD*%
D43*
%TO.C,Q1*%
X158074400Y-74492000D03*
X156174400Y-74492000D03*
X157124400Y-76892000D03*
%TD*%
D12*
%TO.C,R56*%
X148994400Y-114960400D03*
X150014400Y-114960400D03*
%TD*%
D16*
%TO.C,C27*%
X143891000Y-88364000D03*
X143891000Y-87404000D03*
%TD*%
D12*
%TO.C,R70*%
X148994400Y-101955600D03*
X150014400Y-101955600D03*
%TD*%
D23*
%TO.C,C22*%
X163456400Y-48224000D03*
X162496400Y-48224000D03*
%TD*%
D66*
%TO.C,U5*%
X165760400Y-52031200D03*
X165760400Y-52531200D03*
X165760400Y-53031200D03*
X165760400Y-53531200D03*
D67*
X166530400Y-53797200D03*
X167030400Y-53797200D03*
X167530400Y-53797200D03*
D68*
X168300400Y-53531200D03*
X168300400Y-53031200D03*
X168300400Y-52531200D03*
X168300400Y-52031200D03*
D69*
X167530400Y-51765200D03*
X167030400Y-51765200D03*
X166530400Y-51765200D03*
%TD*%
D17*
%TO.C,R9*%
X157175200Y-83669600D03*
X157175200Y-82649600D03*
%TD*%
D66*
%TO.C,U4*%
X160329100Y-45376400D03*
X160329100Y-45876400D03*
X160329100Y-46376400D03*
X160329100Y-46876400D03*
D67*
X161145600Y-47190900D03*
X161645600Y-47190900D03*
X162145600Y-47190900D03*
D68*
X162962100Y-46876400D03*
X162962100Y-46376400D03*
X162962100Y-45876400D03*
X162962100Y-45376400D03*
D69*
X162145600Y-45061900D03*
X161645600Y-45061900D03*
X161145600Y-45061900D03*
%TD*%
D14*
%TO.C,R37*%
X152019000Y-38606000D03*
X152019000Y-39626000D03*
%TD*%
D37*
%TO.C,C10*%
X149126000Y-53086000D03*
X150086000Y-53086000D03*
%TD*%
D16*
%TO.C,C16*%
X158089600Y-48359000D03*
X158089600Y-47399000D03*
%TD*%
D12*
%TO.C,R34*%
X162151600Y-105664000D03*
X163171600Y-105664000D03*
%TD*%
D43*
%TO.C,Q12*%
X161884400Y-91713200D03*
X159984400Y-91713200D03*
X160934400Y-94113200D03*
%TD*%
D13*
%TO.C,R16*%
X154942000Y-43434000D03*
X153922000Y-43434000D03*
%TD*%
D16*
%TO.C,C2*%
X148449000Y-62621000D03*
X148449000Y-61661000D03*
%TD*%
D13*
%TO.C,R42*%
X169826400Y-64871600D03*
X168806400Y-64871600D03*
%TD*%
D16*
%TO.C,C55*%
X143357600Y-120368071D03*
X143357600Y-119408071D03*
%TD*%
%TO.C,C12*%
X150241000Y-60932000D03*
X150241000Y-59972000D03*
%TD*%
D12*
%TO.C,R55*%
X149045200Y-121259600D03*
X150065200Y-121259600D03*
%TD*%
D58*
%TO.C,C41*%
X167677800Y-117348000D03*
X169227800Y-117348000D03*
%TD*%
D13*
%TO.C,R32*%
X158269400Y-111937800D03*
X157249400Y-111937800D03*
%TD*%
D24*
%TO.C,C26*%
X169367200Y-53672800D03*
X169367200Y-54632800D03*
%TD*%
D13*
%TO.C,R41*%
X165457600Y-57048400D03*
X164437600Y-57048400D03*
%TD*%
%TO.C,R71*%
X161393600Y-90627200D03*
X160373600Y-90627200D03*
%TD*%
D70*
%TO.C,J1*%
X144399000Y-55372000D03*
D71*
X144399000Y-56642000D03*
X144399000Y-57912000D03*
X144399000Y-59182000D03*
X144399000Y-60452000D03*
X144399000Y-61722000D03*
%TD*%
D72*
%TO.C,J2*%
X165100000Y-130280800D03*
D73*
X157480000Y-130030800D03*
D72*
X152400000Y-130280800D03*
X160020000Y-130030800D03*
D74*
X160337500Y-125907800D03*
X157162500Y-125907800D03*
%TD*%
D75*
%TO.C,J4*%
X163578000Y-68449800D03*
X163578000Y-69299800D03*
X163578000Y-70149800D03*
X163578000Y-70999800D03*
X163578000Y-71849800D03*
X163578000Y-72699800D03*
X163578000Y-73549800D03*
X163578000Y-74399800D03*
X164928000Y-74399800D03*
X164928000Y-73549800D03*
X164928000Y-72699800D03*
X164928000Y-71849800D03*
X164928000Y-70999800D03*
X164928000Y-70149800D03*
X164928000Y-69299800D03*
X164928000Y-68449800D03*
D76*
X164078000Y-75749800D03*
D77*
X168378000Y-75749800D03*
X168378000Y-67099800D03*
D76*
X164078000Y-67099800D03*
%TD*%
D78*
%TO.C,J12*%
X152600000Y-108474333D03*
X152600000Y-105934333D03*
%TD*%
D79*
%TO.C,J5*%
X154627000Y-34594800D03*
X163127000Y-34594800D03*
%TD*%
D80*
%TO.C,ANT1*%
X146928000Y-87376000D03*
%TD*%
D78*
%TO.C,J11*%
X152600000Y-114547666D03*
X152600000Y-112007666D03*
%TD*%
D81*
%TO.C,LS1*%
X155575000Y-70114000D03*
D80*
X155575000Y-77714000D03*
%TD*%
D78*
%TO.C,J13*%
X152600000Y-102401000D03*
X152600000Y-99861000D03*
%TD*%
%TO.C,J10*%
X152600000Y-120620999D03*
X152600000Y-118080999D03*
%TD*%
D82*
%TO.C,J7*%
X170078400Y-100507800D03*
D83*
X170078400Y-97667300D03*
%TD*%
M02*
