%TF.GenerationSoftware,KiCad,Pcbnew,(6.0.1)*%
%TF.CreationDate,2022-09-22T22:33:38+02:00*%
%TF.ProjectId,kp-ptr,6b702d70-7472-42e6-9b69-6361645f7063,rev?*%
%TF.SameCoordinates,Original*%
%TF.FileFunction,Soldermask,Bot*%
%TF.FilePolarity,Negative*%
%FSLAX46Y46*%
G04 Gerber Fmt 4.6, Leading zero omitted, Abs format (unit mm)*
G04 Created by KiCad (PCBNEW (6.0.1)) date 2022-09-22 22:33:38*
%MOMM*%
%LPD*%
G01*
G04 APERTURE LIST*
G04 Aperture macros list*
%AMRoundRect*
0 Rectangle with rounded corners*
0 $1 Rounding radius*
0 $2 $3 $4 $5 $6 $7 $8 $9 X,Y pos of 4 corners*
0 Add a 4 corners polygon primitive as box body*
4,1,4,$2,$3,$4,$5,$6,$7,$8,$9,$2,$3,0*
0 Add four circle primitives for the rounded corners*
1,1,$1+$1,$2,$3*
1,1,$1+$1,$4,$5*
1,1,$1+$1,$6,$7*
1,1,$1+$1,$8,$9*
0 Add four rect primitives between the rounded corners*
20,1,$1+$1,$2,$3,$4,$5,0*
20,1,$1+$1,$4,$5,$6,$7,0*
20,1,$1+$1,$6,$7,$8,$9,0*
20,1,$1+$1,$8,$9,$2,$3,0*%
G04 Aperture macros list end*
%ADD10C,2.850000*%
%ADD11R,1.000000X1.000000*%
%ADD12O,1.000000X1.000000*%
%ADD13RoundRect,0.250000X0.787500X1.025000X-0.787500X1.025000X-0.787500X-1.025000X0.787500X-1.025000X0*%
%ADD14O,2.000000X2.500000*%
%ADD15O,2.000000X3.000000*%
%ADD16R,2.413000X4.572000*%
%ADD17R,0.800000X2.000000*%
%ADD18RoundRect,0.150000X0.700000X-0.150000X0.700000X0.150000X-0.700000X0.150000X-0.700000X-0.150000X0*%
%ADD19RoundRect,0.250000X1.150000X-0.250000X1.150000X0.250000X-1.150000X0.250000X-1.150000X-0.250000X0*%
%ADD20C,0.700000*%
%ADD21O,3.200000X1.300000*%
%ADD22O,2.500000X1.300000*%
%ADD23RoundRect,1.050000X0.450000X0.000000X0.450000X0.000000X-0.450000X0.000000X-0.450000X0.000000X0*%
%ADD24R,0.736600X0.609600*%
%ADD25R,1.500000X5.080000*%
%ADD26C,2.000000*%
%ADD27R,0.609600X0.736600*%
%ADD28RoundRect,0.218750X0.218750X0.256250X-0.218750X0.256250X-0.218750X-0.256250X0.218750X-0.256250X0*%
%ADD29RoundRect,0.218750X-0.256250X0.218750X-0.256250X-0.218750X0.256250X-0.218750X0.256250X0.218750X0*%
%ADD30RoundRect,0.218750X-0.218750X-0.256250X0.218750X-0.256250X0.218750X0.256250X-0.218750X0.256250X0*%
%ADD31R,2.000000X2.000000*%
%ADD32RoundRect,0.147500X-0.147500X-0.172500X0.147500X-0.172500X0.147500X0.172500X-0.147500X0.172500X0*%
%ADD33R,3.302000X2.286000*%
%ADD34R,3.302000X2.447000*%
G04 APERTURE END LIST*
D10*
X171025000Y-129600000D02*
G75*
G03*
X171025000Y-129600000I-1425000J0D01*
G01*
X171025000Y-34600000D02*
G75*
G03*
X171025000Y-34600000I-1425000J0D01*
G01*
X145025000Y-129600000D02*
G75*
G03*
X145025000Y-129600000I-1425000J0D01*
G01*
X145025000Y-34600000D02*
G75*
G03*
X145025000Y-34600000I-1425000J0D01*
G01*
D11*
%TO.C,J1*%
X144399000Y-55372000D03*
D12*
X144399000Y-56642000D03*
X144399000Y-57912000D03*
X144399000Y-59182000D03*
X144399000Y-60452000D03*
X144399000Y-61722000D03*
%TD*%
D13*
%TO.C,C38*%
X163792900Y-113893600D03*
X157567900Y-113893600D03*
%TD*%
D14*
%TO.C,J2*%
X165100000Y-130280800D03*
D15*
X157480000Y-130030800D03*
D14*
X152400000Y-130280800D03*
X160020000Y-130030800D03*
D16*
X160337500Y-125907800D03*
X157162500Y-125907800D03*
%TD*%
D13*
%TO.C,C59*%
X163843700Y-109169200D03*
X157618700Y-109169200D03*
%TD*%
D17*
%TO.C,IC2*%
X160434800Y-53278800D03*
X159164800Y-53278800D03*
X157894800Y-53278800D03*
X152324800Y-53278800D03*
X151054800Y-53278800D03*
X149784800Y-53278800D03*
X148514800Y-53278800D03*
X147244800Y-53278800D03*
X145974800Y-53278800D03*
X144704800Y-53278800D03*
X143434800Y-53278800D03*
X143434800Y-39278800D03*
X144704800Y-39278800D03*
X145974800Y-39278800D03*
X147244800Y-39278800D03*
X148514800Y-39278800D03*
X149784800Y-39278800D03*
X151054800Y-39278800D03*
X152324800Y-39278800D03*
X157894800Y-39278800D03*
X159164800Y-39278800D03*
X160434800Y-39278800D03*
%TD*%
D18*
%TO.C,J6*%
X167050000Y-93001000D03*
X167050000Y-91751000D03*
X167050000Y-90501000D03*
X167050000Y-89251000D03*
X167050000Y-88001000D03*
X167050000Y-86751000D03*
X167050000Y-85501000D03*
X167050000Y-84251000D03*
X167050000Y-83001000D03*
X167050000Y-81751000D03*
D19*
X170400000Y-79901000D03*
X170400000Y-94851000D03*
%TD*%
D13*
%TO.C,C66*%
X163792900Y-118618000D03*
X157567900Y-118618000D03*
%TD*%
D20*
%TO.C,J4*%
X163578000Y-68449800D03*
X163578000Y-69299800D03*
X163578000Y-70149800D03*
X163578000Y-70999800D03*
X163578000Y-71849800D03*
X163578000Y-72699800D03*
X163578000Y-73549800D03*
X163578000Y-74399800D03*
X164928000Y-74399800D03*
X164928000Y-73549800D03*
X164928000Y-72699800D03*
X164928000Y-71849800D03*
X164928000Y-70999800D03*
X164928000Y-70149800D03*
X164928000Y-69299800D03*
X164928000Y-68449800D03*
D21*
X164078000Y-75749800D03*
D22*
X168378000Y-75749800D03*
X168378000Y-67099800D03*
D21*
X164078000Y-67099800D03*
%TD*%
D23*
%TO.C,J12*%
X152600000Y-108474333D03*
X152600000Y-105934333D03*
%TD*%
D24*
%TO.C,D12*%
X170484800Y-41156001D03*
X170484800Y-42155999D03*
X168097200Y-42155999D03*
X168097200Y-41156001D03*
%TD*%
D25*
%TO.C,J5*%
X158877000Y-34594800D03*
X163127000Y-34594800D03*
X154627000Y-34594800D03*
%TD*%
D13*
%TO.C,C60*%
X163843700Y-104495600D03*
X157618700Y-104495600D03*
%TD*%
D26*
%TO.C,ANT1*%
X146928000Y-87376000D03*
%TD*%
D27*
%TO.C,D13*%
X149258401Y-32842200D03*
X150258399Y-32842200D03*
X150258399Y-35229800D03*
X149258401Y-35229800D03*
%TD*%
D18*
%TO.C,J9*%
X161150000Y-93001000D03*
X161150000Y-91751000D03*
X161150000Y-90501000D03*
X161150000Y-89251000D03*
X161150000Y-88001000D03*
X161150000Y-86751000D03*
D19*
X164500000Y-84901000D03*
X164500000Y-94851000D03*
%TD*%
D23*
%TO.C,J11*%
X152600000Y-114547666D03*
X152600000Y-112007666D03*
%TD*%
D28*
%TO.C,D7*%
X171221500Y-105714800D03*
X169646500Y-105714800D03*
%TD*%
D29*
%TO.C,D9*%
X151688800Y-33045300D03*
X151688800Y-34620300D03*
%TD*%
D30*
%TO.C,D1*%
X145135500Y-79756000D03*
X146710500Y-79756000D03*
%TD*%
D31*
%TO.C,LS1*%
X155575000Y-70114000D03*
D26*
X155575000Y-77714000D03*
%TD*%
D27*
%TO.C,D17*%
X148327999Y-108415666D03*
X147328001Y-108415666D03*
X147328001Y-106028066D03*
X148327999Y-106028066D03*
%TD*%
%TO.C,D16*%
X148327999Y-102387400D03*
X147328001Y-102387400D03*
X147328001Y-99999800D03*
X148327999Y-99999800D03*
%TD*%
D18*
%TO.C,J8*%
X155450000Y-93001000D03*
X155450000Y-91751000D03*
X155450000Y-90501000D03*
X155450000Y-89251000D03*
X155450000Y-88001000D03*
X155450000Y-86751000D03*
D19*
X158800000Y-84901000D03*
X158800000Y-94851000D03*
%TD*%
D23*
%TO.C,J13*%
X152600000Y-102401000D03*
X152600000Y-99861000D03*
%TD*%
D13*
%TO.C,C61*%
X163843700Y-99822000D03*
X157618700Y-99822000D03*
%TD*%
D32*
%TO.C,D8*%
X157757000Y-37693600D03*
X158727000Y-37693600D03*
%TD*%
D24*
%TO.C,D10*%
X170484800Y-58555001D03*
X170484800Y-59554999D03*
X168097200Y-59554999D03*
X168097200Y-58555001D03*
%TD*%
D23*
%TO.C,J10*%
X152600000Y-120620999D03*
X152600000Y-118080999D03*
%TD*%
D33*
%TO.C,J7*%
X170078400Y-100507800D03*
D34*
X170078400Y-97667300D03*
%TD*%
D27*
%TO.C,D18*%
X148327999Y-114443932D03*
X147328001Y-114443932D03*
X147328001Y-112056332D03*
X148327999Y-112056332D03*
%TD*%
D24*
%TO.C,D11*%
X170484800Y-49855501D03*
X170484800Y-50855499D03*
X168097200Y-50855499D03*
X168097200Y-49855501D03*
%TD*%
D28*
%TO.C,D5*%
X171221500Y-113842800D03*
X169646500Y-113842800D03*
%TD*%
%TO.C,D15*%
X170967500Y-78359000D03*
X169392500Y-78359000D03*
%TD*%
D27*
%TO.C,D19*%
X148327999Y-120472200D03*
X147328001Y-120472200D03*
X147328001Y-118084600D03*
X148327999Y-118084600D03*
%TD*%
D28*
%TO.C,D6*%
X171221500Y-109778800D03*
X169646500Y-109778800D03*
%TD*%
M02*
