%TF.GenerationSoftware,KiCad,Pcbnew,(6.0.1)*%
%TF.CreationDate,2022-06-27T19:55:09+02:00*%
%TF.ProjectId,kp-ptr,6b702d70-7472-42e6-9b69-6361645f7063,rev?*%
%TF.SameCoordinates,Original*%
%TF.FileFunction,Legend,Bot*%
%TF.FilePolarity,Positive*%
%FSLAX46Y46*%
G04 Gerber Fmt 4.6, Leading zero omitted, Abs format (unit mm)*
G04 Created by KiCad (PCBNEW (6.0.1)) date 2022-06-27 19:55:09*
%MOMM*%
%LPD*%
G01*
G04 APERTURE LIST*
G04 Aperture macros list*
%AMRoundRect*
0 Rectangle with rounded corners*
0 $1 Rounding radius*
0 $2 $3 $4 $5 $6 $7 $8 $9 X,Y pos of 4 corners*
0 Add a 4 corners polygon primitive as box body*
4,1,4,$2,$3,$4,$5,$6,$7,$8,$9,$2,$3,0*
0 Add four circle primitives for the rounded corners*
1,1,$1+$1,$2,$3*
1,1,$1+$1,$4,$5*
1,1,$1+$1,$6,$7*
1,1,$1+$1,$8,$9*
0 Add four rect primitives between the rounded corners*
20,1,$1+$1,$2,$3,$4,$5,0*
20,1,$1+$1,$4,$5,$6,$7,0*
20,1,$1+$1,$6,$7,$8,$9,0*
20,1,$1+$1,$8,$9,$2,$3,0*%
G04 Aperture macros list end*
%ADD10C,0.300000*%
%ADD11C,0.150000*%
%ADD12C,0.180000*%
%ADD13C,0.500000*%
%ADD14C,0.120000*%
%ADD15C,0.127000*%
%ADD16C,0.200000*%
%ADD17C,0.010000*%
%ADD18C,0.100000*%
%ADD19C,2.850000*%
%ADD20R,1.000000X1.000000*%
%ADD21O,1.000000X1.000000*%
%ADD22RoundRect,0.250000X1.000000X-1.750000X1.000000X1.750000X-1.000000X1.750000X-1.000000X-1.750000X0*%
%ADD23O,2.000000X2.500000*%
%ADD24R,2.413000X4.572000*%
%ADD25R,0.800000X2.000000*%
%ADD26RoundRect,0.150000X0.700000X-0.150000X0.700000X0.150000X-0.700000X0.150000X-0.700000X-0.150000X0*%
%ADD27RoundRect,0.250000X1.150000X-0.250000X1.150000X0.250000X-1.150000X0.250000X-1.150000X-0.250000X0*%
%ADD28RoundRect,0.135000X-0.135000X-0.185000X0.135000X-0.185000X0.135000X0.185000X-0.135000X0.185000X0*%
%ADD29C,0.700000*%
%ADD30O,3.200000X1.300000*%
%ADD31O,2.500000X1.300000*%
%ADD32RoundRect,1.050000X0.450000X0.000000X0.450000X0.000000X-0.450000X0.000000X-0.450000X0.000000X0*%
%ADD33R,0.736600X0.609600*%
%ADD34R,1.500000X5.080000*%
%ADD35C,2.000000*%
%ADD36RoundRect,0.218750X-0.256250X0.218750X-0.256250X-0.218750X0.256250X-0.218750X0.256250X0.218750X0*%
%ADD37RoundRect,0.218750X0.218750X0.256250X-0.218750X0.256250X-0.218750X-0.256250X0.218750X-0.256250X0*%
%ADD38RoundRect,0.218750X-0.218750X-0.256250X0.218750X-0.256250X0.218750X0.256250X-0.218750X0.256250X0*%
%ADD39R,2.000000X2.000000*%
%ADD40R,3.000000X2.100000*%
%ADD41RoundRect,0.147500X-0.147500X-0.172500X0.147500X-0.172500X0.147500X0.172500X-0.147500X0.172500X0*%
%ADD42R,3.302000X2.286000*%
%ADD43R,3.302000X2.447000*%
G04 APERTURE END LIST*
D10*
X154649857Y-124946242D02*
X154435571Y-125008147D01*
X154364142Y-125070052D01*
X154292714Y-125193861D01*
X154292714Y-125379576D01*
X154364142Y-125503385D01*
X154435571Y-125565290D01*
X154578428Y-125627195D01*
X155149857Y-125627195D01*
X155149857Y-124327195D01*
X154649857Y-124327195D01*
X154507000Y-124389100D01*
X154435571Y-124451004D01*
X154364142Y-124574814D01*
X154364142Y-124698623D01*
X154435571Y-124822433D01*
X154507000Y-124884338D01*
X154649857Y-124946242D01*
X155149857Y-124946242D01*
X153721285Y-125255766D02*
X153007000Y-125255766D01*
X153864142Y-125627195D02*
X153364142Y-124327195D01*
X152864142Y-125627195D01*
X152578428Y-124327195D02*
X151721285Y-124327195D01*
X152149857Y-125627195D02*
X152149857Y-124327195D01*
X155149857Y-127720195D02*
X155149857Y-126853528D01*
X155149857Y-126977338D02*
X155078428Y-126915433D01*
X154935571Y-126853528D01*
X154721285Y-126853528D01*
X154578428Y-126915433D01*
X154507000Y-127039242D01*
X154507000Y-127720195D01*
X154507000Y-127039242D02*
X154435571Y-126915433D01*
X154292714Y-126853528D01*
X154078428Y-126853528D01*
X153935571Y-126915433D01*
X153864142Y-127039242D01*
X153864142Y-127720195D01*
X152507000Y-127720195D02*
X152507000Y-127039242D01*
X152578428Y-126915433D01*
X152721285Y-126853528D01*
X153007000Y-126853528D01*
X153149857Y-126915433D01*
X152507000Y-127658290D02*
X152649857Y-127720195D01*
X153007000Y-127720195D01*
X153149857Y-127658290D01*
X153221285Y-127534480D01*
X153221285Y-127410671D01*
X153149857Y-127286861D01*
X153007000Y-127224957D01*
X152649857Y-127224957D01*
X152507000Y-127163052D01*
X151935571Y-127720195D02*
X151149857Y-126853528D01*
X151935571Y-126853528D02*
X151149857Y-127720195D01*
X148649857Y-127720195D02*
X149507000Y-127720195D01*
X149078428Y-127720195D02*
X149078428Y-126420195D01*
X149221285Y-126605909D01*
X149364142Y-126729719D01*
X149507000Y-126791623D01*
X148149857Y-126420195D02*
X147221285Y-126420195D01*
X147721285Y-126915433D01*
X147507000Y-126915433D01*
X147364142Y-126977338D01*
X147292714Y-127039242D01*
X147221285Y-127163052D01*
X147221285Y-127472576D01*
X147292714Y-127596385D01*
X147364142Y-127658290D01*
X147507000Y-127720195D01*
X147935571Y-127720195D01*
X148078428Y-127658290D01*
X148149857Y-127596385D01*
X146792714Y-126420195D02*
X146292714Y-127720195D01*
X145792714Y-126420195D01*
X167652628Y-97679657D02*
X166509771Y-97679657D01*
D11*
X147315999Y-61372000D02*
X147382666Y-61338666D01*
X147482666Y-61338666D01*
X147582666Y-61372000D01*
X147649332Y-61438666D01*
X147682666Y-61505333D01*
X147715999Y-61638666D01*
X147715999Y-61738666D01*
X147682666Y-61872000D01*
X147649332Y-61938666D01*
X147582666Y-62005333D01*
X147482666Y-62038666D01*
X147415999Y-62038666D01*
X147315999Y-62005333D01*
X147282666Y-61972000D01*
X147282666Y-61738666D01*
X147415999Y-61738666D01*
X146982666Y-62038666D02*
X146982666Y-61338666D01*
X146582666Y-62038666D01*
X146582666Y-61338666D01*
X146249332Y-62038666D02*
X146249332Y-61338666D01*
X146082666Y-61338666D01*
X145982666Y-61372000D01*
X145915999Y-61438666D01*
X145882666Y-61505333D01*
X145849332Y-61638666D01*
X145849332Y-61738666D01*
X145882666Y-61872000D01*
X145915999Y-61938666D01*
X145982666Y-62005333D01*
X146082666Y-62038666D01*
X146249332Y-62038666D01*
X146915999Y-60402000D02*
X146682666Y-60402000D01*
X146582666Y-60768666D02*
X146915999Y-60768666D01*
X146915999Y-60068666D01*
X146582666Y-60068666D01*
X146282666Y-60768666D02*
X146282666Y-60068666D01*
X145882666Y-60768666D01*
X145882666Y-60068666D01*
D10*
X147741200Y-119866495D02*
X147741200Y-118566495D01*
X146241200Y-118628400D02*
X146384057Y-118566495D01*
X146598342Y-118566495D01*
X146812628Y-118628400D01*
X146955485Y-118752209D01*
X147026914Y-118876019D01*
X147098342Y-119123638D01*
X147098342Y-119309352D01*
X147026914Y-119556971D01*
X146955485Y-119680780D01*
X146812628Y-119804590D01*
X146598342Y-119866495D01*
X146455485Y-119866495D01*
X146241200Y-119804590D01*
X146169771Y-119742685D01*
X146169771Y-119309352D01*
X146455485Y-119309352D01*
X145526914Y-119866495D02*
X145526914Y-118566495D01*
X144669771Y-119866495D01*
X144669771Y-118566495D01*
X143169771Y-119866495D02*
X144026914Y-119866495D01*
X143598342Y-119866495D02*
X143598342Y-118566495D01*
X143741200Y-118752209D01*
X143884057Y-118876019D01*
X144026914Y-118937923D01*
X147741200Y-113787427D02*
X147741200Y-112487427D01*
X146241200Y-112549332D02*
X146384057Y-112487427D01*
X146598342Y-112487427D01*
X146812628Y-112549332D01*
X146955485Y-112673141D01*
X147026914Y-112796951D01*
X147098342Y-113044570D01*
X147098342Y-113230284D01*
X147026914Y-113477903D01*
X146955485Y-113601712D01*
X146812628Y-113725522D01*
X146598342Y-113787427D01*
X146455485Y-113787427D01*
X146241200Y-113725522D01*
X146169771Y-113663617D01*
X146169771Y-113230284D01*
X146455485Y-113230284D01*
X145526914Y-113787427D02*
X145526914Y-112487427D01*
X144669771Y-113787427D01*
X144669771Y-112487427D01*
X144026914Y-112611236D02*
X143955485Y-112549332D01*
X143812628Y-112487427D01*
X143455485Y-112487427D01*
X143312628Y-112549332D01*
X143241200Y-112611236D01*
X143169771Y-112735046D01*
X143169771Y-112858855D01*
X143241200Y-113044570D01*
X144098342Y-113787427D01*
X143169771Y-113787427D01*
X166131714Y-119956990D02*
X165917428Y-120018895D01*
X165560285Y-120018895D01*
X165417428Y-119956990D01*
X165346000Y-119895085D01*
X165274571Y-119771276D01*
X165274571Y-119647466D01*
X165346000Y-119523657D01*
X165417428Y-119461752D01*
X165560285Y-119399847D01*
X165846000Y-119337942D01*
X165988857Y-119276038D01*
X166060285Y-119214133D01*
X166131714Y-119090323D01*
X166131714Y-118966514D01*
X166060285Y-118842704D01*
X165988857Y-118780800D01*
X165846000Y-118718895D01*
X165488857Y-118718895D01*
X165274571Y-118780800D01*
X164774571Y-118718895D02*
X164417428Y-120018895D01*
X164131714Y-119090323D01*
X163846000Y-120018895D01*
X163488857Y-118718895D01*
X147602342Y-78413695D02*
X147602342Y-77113695D01*
X147030914Y-77113695D01*
X146888057Y-77175600D01*
X146816628Y-77237504D01*
X146745200Y-77361314D01*
X146745200Y-77547028D01*
X146816628Y-77670838D01*
X146888057Y-77732742D01*
X147030914Y-77794647D01*
X147602342Y-77794647D01*
X146102342Y-78413695D02*
X146102342Y-77113695D01*
X145530914Y-77113695D01*
X145388057Y-77175600D01*
X145316628Y-77237504D01*
X145245200Y-77361314D01*
X145245200Y-77547028D01*
X145316628Y-77670838D01*
X145388057Y-77732742D01*
X145530914Y-77794647D01*
X146102342Y-77794647D01*
X144673771Y-78351790D02*
X144459485Y-78413695D01*
X144102342Y-78413695D01*
X143959485Y-78351790D01*
X143888057Y-78289885D01*
X143816628Y-78166076D01*
X143816628Y-78042266D01*
X143888057Y-77918457D01*
X143959485Y-77856552D01*
X144102342Y-77794647D01*
X144388057Y-77732742D01*
X144530914Y-77670838D01*
X144602342Y-77608933D01*
X144673771Y-77485123D01*
X144673771Y-77361314D01*
X144602342Y-77237504D01*
X144530914Y-77175600D01*
X144388057Y-77113695D01*
X144030914Y-77113695D01*
X143816628Y-77175600D01*
D12*
X149458419Y-36353713D02*
X149934609Y-36687047D01*
X149458419Y-36925142D02*
X150458419Y-36925142D01*
X150458419Y-36544189D01*
X150410800Y-36448951D01*
X150363180Y-36401332D01*
X150267942Y-36353713D01*
X150125085Y-36353713D01*
X150029847Y-36401332D01*
X149982228Y-36448951D01*
X149934609Y-36544189D01*
X149934609Y-36925142D01*
X150458419Y-36020380D02*
X149458419Y-35353713D01*
X150458419Y-35353713D02*
X149458419Y-36020380D01*
D10*
X171479885Y-40048590D02*
X171265600Y-40110495D01*
X170908457Y-40110495D01*
X170765600Y-40048590D01*
X170694171Y-39986685D01*
X170622742Y-39862876D01*
X170622742Y-39739066D01*
X170694171Y-39615257D01*
X170765600Y-39553352D01*
X170908457Y-39491447D01*
X171194171Y-39429542D01*
X171337028Y-39367638D01*
X171408457Y-39305733D01*
X171479885Y-39181923D01*
X171479885Y-39058114D01*
X171408457Y-38934304D01*
X171337028Y-38872400D01*
X171194171Y-38810495D01*
X170837028Y-38810495D01*
X170622742Y-38872400D01*
X170194171Y-38810495D02*
X169337028Y-38810495D01*
X169765600Y-40110495D02*
X169765600Y-38810495D01*
X168908457Y-39739066D02*
X168194171Y-39739066D01*
X169051314Y-40110495D02*
X168551314Y-38810495D01*
X168051314Y-40110495D01*
X167765600Y-38810495D02*
X166908457Y-38810495D01*
X167337028Y-40110495D02*
X167337028Y-38810495D01*
X167754228Y-100473657D02*
X166611371Y-100473657D01*
X167182800Y-100968895D02*
X167182800Y-99978419D01*
D12*
X152236419Y-36829904D02*
X152236419Y-36258476D01*
X151236419Y-36544190D02*
X152236419Y-36544190D01*
X152236419Y-36020380D02*
X151236419Y-35353714D01*
X152236419Y-35353714D02*
X151236419Y-36020380D01*
D10*
X170906000Y-57433295D02*
X171406000Y-56814247D01*
X171763142Y-57433295D02*
X171763142Y-56133295D01*
X171191714Y-56133295D01*
X171048857Y-56195200D01*
X170977428Y-56257104D01*
X170906000Y-56380914D01*
X170906000Y-56566628D01*
X170977428Y-56690438D01*
X171048857Y-56752342D01*
X171191714Y-56814247D01*
X171763142Y-56814247D01*
X170263142Y-56752342D02*
X169763142Y-56752342D01*
X169548857Y-57433295D02*
X170263142Y-57433295D01*
X170263142Y-56133295D01*
X169548857Y-56133295D01*
X168977428Y-57061866D02*
X168263142Y-57061866D01*
X169120285Y-57433295D02*
X168620285Y-56133295D01*
X168120285Y-57433295D01*
X167620285Y-57433295D02*
X167620285Y-56133295D01*
X167263142Y-56133295D01*
X167048857Y-56195200D01*
X166906000Y-56319009D01*
X166834571Y-56442819D01*
X166763142Y-56690438D01*
X166763142Y-56876152D01*
X166834571Y-57123771D01*
X166906000Y-57247580D01*
X167048857Y-57371390D01*
X167263142Y-57433295D01*
X167620285Y-57433295D01*
X165834571Y-56814247D02*
X165834571Y-57433295D01*
X166334571Y-56133295D02*
X165834571Y-56814247D01*
X165334571Y-56133295D01*
D11*
X146515999Y-56958666D02*
X146749333Y-56625333D01*
X146915999Y-56958666D02*
X146915999Y-56258666D01*
X146649333Y-56258666D01*
X146582666Y-56292000D01*
X146549333Y-56325333D01*
X146515999Y-56392000D01*
X146515999Y-56492000D01*
X146549333Y-56558666D01*
X146582666Y-56592000D01*
X146649333Y-56625333D01*
X146915999Y-56625333D01*
X146282666Y-56258666D02*
X145815999Y-56958666D01*
X145815999Y-56258666D02*
X146282666Y-56958666D01*
D10*
X150713485Y-68477195D02*
X150713485Y-67177195D01*
X149856342Y-68477195D02*
X150499200Y-67734338D01*
X149856342Y-67177195D02*
X150713485Y-67920052D01*
X149213485Y-68477195D02*
X149213485Y-67177195D01*
X148642057Y-67177195D01*
X148499200Y-67239100D01*
X148427771Y-67301004D01*
X148356342Y-67424814D01*
X148356342Y-67610528D01*
X148427771Y-67734338D01*
X148499200Y-67796242D01*
X148642057Y-67858147D01*
X149213485Y-67858147D01*
X147713485Y-67981957D02*
X146570628Y-67981957D01*
X145856342Y-68477195D02*
X145856342Y-67177195D01*
X145284914Y-67177195D01*
X145142057Y-67239100D01*
X145070628Y-67301004D01*
X144999200Y-67424814D01*
X144999200Y-67610528D01*
X145070628Y-67734338D01*
X145142057Y-67796242D01*
X145284914Y-67858147D01*
X145856342Y-67858147D01*
X144570628Y-67177195D02*
X143713485Y-67177195D01*
X144142057Y-68477195D02*
X144142057Y-67177195D01*
X142356342Y-68477195D02*
X142856342Y-67858147D01*
X143213485Y-68477195D02*
X143213485Y-67177195D01*
X142642057Y-67177195D01*
X142499200Y-67239100D01*
X142427771Y-67301004D01*
X142356342Y-67424814D01*
X142356342Y-67610528D01*
X142427771Y-67734338D01*
X142499200Y-67796242D01*
X142642057Y-67858147D01*
X143213485Y-67858147D01*
X147070628Y-69703528D02*
X146713485Y-70570195D01*
X146356342Y-69703528D01*
X145499200Y-69270195D02*
X145356342Y-69270195D01*
X145213485Y-69332100D01*
X145142057Y-69394004D01*
X145070628Y-69517814D01*
X144999200Y-69765433D01*
X144999200Y-70074957D01*
X145070628Y-70322576D01*
X145142057Y-70446385D01*
X145213485Y-70508290D01*
X145356342Y-70570195D01*
X145499200Y-70570195D01*
X145642057Y-70508290D01*
X145713485Y-70446385D01*
X145784914Y-70322576D01*
X145856342Y-70074957D01*
X145856342Y-69765433D01*
X145784914Y-69517814D01*
X145713485Y-69394004D01*
X145642057Y-69332100D01*
X145499200Y-69270195D01*
D11*
X146982666Y-55688666D02*
X146982666Y-54988666D01*
X146582666Y-55688666D01*
X146582666Y-54988666D01*
X145849332Y-55622000D02*
X145882666Y-55655333D01*
X145982666Y-55688666D01*
X146049332Y-55688666D01*
X146149332Y-55655333D01*
X146215999Y-55588666D01*
X146249332Y-55522000D01*
X146282666Y-55388666D01*
X146282666Y-55288666D01*
X146249332Y-55155333D01*
X146215999Y-55088666D01*
X146149332Y-55022000D01*
X146049332Y-54988666D01*
X145982666Y-54988666D01*
X145882666Y-55022000D01*
X145849332Y-55055333D01*
X146849333Y-57528666D02*
X146449333Y-57528666D01*
X146649333Y-58228666D02*
X146649333Y-57528666D01*
X146282666Y-57528666D02*
X145816000Y-58228666D01*
X145816000Y-57528666D02*
X146282666Y-58228666D01*
D10*
X167588495Y-113012742D02*
X168888495Y-113512742D01*
X167588495Y-114012742D01*
X168888495Y-114512742D02*
X167588495Y-114512742D01*
X168888495Y-115227028D02*
X167588495Y-115227028D01*
X168888495Y-116084171D01*
X167588495Y-116084171D01*
X147741200Y-101629295D02*
X147741200Y-100329295D01*
X146241200Y-100391200D02*
X146384057Y-100329295D01*
X146598342Y-100329295D01*
X146812628Y-100391200D01*
X146955485Y-100515009D01*
X147026914Y-100638819D01*
X147098342Y-100886438D01*
X147098342Y-101072152D01*
X147026914Y-101319771D01*
X146955485Y-101443580D01*
X146812628Y-101567390D01*
X146598342Y-101629295D01*
X146455485Y-101629295D01*
X146241200Y-101567390D01*
X146169771Y-101505485D01*
X146169771Y-101072152D01*
X146455485Y-101072152D01*
X145526914Y-101629295D02*
X145526914Y-100329295D01*
X144669771Y-101629295D01*
X144669771Y-100329295D01*
X143312628Y-100762628D02*
X143312628Y-101629295D01*
X143669771Y-100267390D02*
X144026914Y-101195961D01*
X143098342Y-101195961D01*
D13*
X163210857Y-125272895D02*
X163210857Y-126796704D01*
X163972761Y-126034800D02*
X162448952Y-126034800D01*
D10*
X167588495Y-105175085D02*
X167588495Y-104460800D01*
X168207542Y-104389371D01*
X168145638Y-104460800D01*
X168083733Y-104603657D01*
X168083733Y-104960800D01*
X168145638Y-105103657D01*
X168207542Y-105175085D01*
X168331352Y-105246514D01*
X168640876Y-105246514D01*
X168764685Y-105175085D01*
X168826590Y-105103657D01*
X168888495Y-104960800D01*
X168888495Y-104603657D01*
X168826590Y-104460800D01*
X168764685Y-104389371D01*
X167588495Y-105675085D02*
X168888495Y-106175085D01*
X167588495Y-106675085D01*
X171179085Y-48425866D02*
X170464800Y-48425866D01*
X171321942Y-48797295D02*
X170821942Y-47497295D01*
X170321942Y-48797295D01*
X168964800Y-48797295D02*
X169464800Y-48178247D01*
X169821942Y-48797295D02*
X169821942Y-47497295D01*
X169250514Y-47497295D01*
X169107657Y-47559200D01*
X169036228Y-47621104D01*
X168964800Y-47744914D01*
X168964800Y-47930628D01*
X169036228Y-48054438D01*
X169107657Y-48116342D01*
X169250514Y-48178247D01*
X169821942Y-48178247D01*
X168321942Y-48797295D02*
X168321942Y-47497295D01*
X167821942Y-48425866D01*
X167321942Y-47497295D01*
X167321942Y-48797295D01*
X165963314Y-98289371D02*
X165463314Y-99789371D01*
X164963314Y-98289371D01*
X164249028Y-99789371D02*
X164391885Y-99717942D01*
X164463314Y-99646514D01*
X164534742Y-99503657D01*
X164534742Y-99075085D01*
X164463314Y-98932228D01*
X164391885Y-98860800D01*
X164249028Y-98789371D01*
X164034742Y-98789371D01*
X163891885Y-98860800D01*
X163820457Y-98932228D01*
X163749028Y-99075085D01*
X163749028Y-99503657D01*
X163820457Y-99646514D01*
X163891885Y-99717942D01*
X164034742Y-99789371D01*
X164249028Y-99789371D01*
X162463314Y-98789371D02*
X162463314Y-99789371D01*
X163106171Y-98789371D02*
X163106171Y-99575085D01*
X163034742Y-99717942D01*
X162891885Y-99789371D01*
X162677600Y-99789371D01*
X162534742Y-99717942D01*
X162463314Y-99646514D01*
X161963314Y-98789371D02*
X161391885Y-98789371D01*
X161749028Y-98289371D02*
X161749028Y-99575085D01*
X161677600Y-99717942D01*
X161534742Y-99789371D01*
X161391885Y-99789371D01*
X147741200Y-107708361D02*
X147741200Y-106408361D01*
X146241200Y-106470266D02*
X146384057Y-106408361D01*
X146598342Y-106408361D01*
X146812628Y-106470266D01*
X146955485Y-106594075D01*
X147026914Y-106717885D01*
X147098342Y-106965504D01*
X147098342Y-107151218D01*
X147026914Y-107398837D01*
X146955485Y-107522646D01*
X146812628Y-107646456D01*
X146598342Y-107708361D01*
X146455485Y-107708361D01*
X146241200Y-107646456D01*
X146169771Y-107584551D01*
X146169771Y-107151218D01*
X146455485Y-107151218D01*
X145526914Y-107708361D02*
X145526914Y-106408361D01*
X144669771Y-107708361D01*
X144669771Y-106408361D01*
X144098342Y-106408361D02*
X143169771Y-106408361D01*
X143669771Y-106903599D01*
X143455485Y-106903599D01*
X143312628Y-106965504D01*
X143241200Y-107027408D01*
X143169771Y-107151218D01*
X143169771Y-107460742D01*
X143241200Y-107584551D01*
X143312628Y-107646456D01*
X143455485Y-107708361D01*
X143884057Y-107708361D01*
X144026914Y-107646456D01*
X144098342Y-107584551D01*
D11*
X148016000Y-59132000D02*
X147916000Y-59165333D01*
X147882666Y-59198666D01*
X147849333Y-59265333D01*
X147849333Y-59365333D01*
X147882666Y-59432000D01*
X147916000Y-59465333D01*
X147982666Y-59498666D01*
X148249333Y-59498666D01*
X148249333Y-58798666D01*
X148016000Y-58798666D01*
X147949333Y-58832000D01*
X147916000Y-58865333D01*
X147882666Y-58932000D01*
X147882666Y-58998666D01*
X147916000Y-59065333D01*
X147949333Y-59098666D01*
X148016000Y-59132000D01*
X148249333Y-59132000D01*
X147416000Y-58798666D02*
X147282666Y-58798666D01*
X147216000Y-58832000D01*
X147149333Y-58898666D01*
X147116000Y-59032000D01*
X147116000Y-59265333D01*
X147149333Y-59398666D01*
X147216000Y-59465333D01*
X147282666Y-59498666D01*
X147416000Y-59498666D01*
X147482666Y-59465333D01*
X147549333Y-59398666D01*
X147582666Y-59265333D01*
X147582666Y-59032000D01*
X147549333Y-58898666D01*
X147482666Y-58832000D01*
X147416000Y-58798666D01*
X146682666Y-58798666D02*
X146549333Y-58798666D01*
X146482666Y-58832000D01*
X146416000Y-58898666D01*
X146382666Y-59032000D01*
X146382666Y-59265333D01*
X146416000Y-59398666D01*
X146482666Y-59465333D01*
X146549333Y-59498666D01*
X146682666Y-59498666D01*
X146749333Y-59465333D01*
X146816000Y-59398666D01*
X146849333Y-59265333D01*
X146849333Y-59032000D01*
X146816000Y-58898666D01*
X146749333Y-58832000D01*
X146682666Y-58798666D01*
X146182666Y-58798666D02*
X145782666Y-58798666D01*
X145982666Y-59498666D02*
X145982666Y-58798666D01*
D10*
X167588495Y-107972457D02*
X167588495Y-108901028D01*
X168083733Y-108401028D01*
X168083733Y-108615314D01*
X168145638Y-108758171D01*
X168207542Y-108829600D01*
X168331352Y-108901028D01*
X168640876Y-108901028D01*
X168764685Y-108829600D01*
X168826590Y-108758171D01*
X168888495Y-108615314D01*
X168888495Y-108186742D01*
X168826590Y-108043885D01*
X168764685Y-107972457D01*
X167588495Y-109329600D02*
X168888495Y-109829600D01*
X167588495Y-110329600D01*
X167588495Y-110686742D02*
X167588495Y-111615314D01*
X168083733Y-111115314D01*
X168083733Y-111329600D01*
X168145638Y-111472457D01*
X168207542Y-111543885D01*
X168331352Y-111615314D01*
X168640876Y-111615314D01*
X168764685Y-111543885D01*
X168826590Y-111472457D01*
X168888495Y-111329600D01*
X168888495Y-110901028D01*
X168826590Y-110758171D01*
X168764685Y-110686742D01*
D11*
%TO.C,J1*%
X145267333Y-62761066D02*
X145267333Y-63261066D01*
X145300666Y-63361066D01*
X145367333Y-63427733D01*
X145467333Y-63461066D01*
X145534000Y-63461066D01*
X144567333Y-63461066D02*
X144967333Y-63461066D01*
X144767333Y-63461066D02*
X144767333Y-62761066D01*
X144834000Y-62861066D01*
X144900666Y-62927733D01*
X144967333Y-62961066D01*
%TO.C,C34*%
X165956400Y-104237600D02*
X165989733Y-104270933D01*
X166089733Y-104304266D01*
X166156400Y-104304266D01*
X166256400Y-104270933D01*
X166323066Y-104204266D01*
X166356400Y-104137600D01*
X166389733Y-104004266D01*
X166389733Y-103904266D01*
X166356400Y-103770933D01*
X166323066Y-103704266D01*
X166256400Y-103637600D01*
X166156400Y-103604266D01*
X166089733Y-103604266D01*
X165989733Y-103637600D01*
X165956400Y-103670933D01*
X165723066Y-103604266D02*
X165289733Y-103604266D01*
X165523066Y-103870933D01*
X165423066Y-103870933D01*
X165356400Y-103904266D01*
X165323066Y-103937600D01*
X165289733Y-104004266D01*
X165289733Y-104170933D01*
X165323066Y-104237600D01*
X165356400Y-104270933D01*
X165423066Y-104304266D01*
X165623066Y-104304266D01*
X165689733Y-104270933D01*
X165723066Y-104237600D01*
X164689733Y-103837600D02*
X164689733Y-104304266D01*
X164856400Y-103570933D02*
X165023066Y-104070933D01*
X164589733Y-104070933D01*
%TO.C,J2*%
X162892533Y-128585466D02*
X162892533Y-129085466D01*
X162925866Y-129185466D01*
X162992533Y-129252133D01*
X163092533Y-129285466D01*
X163159200Y-129285466D01*
X162592533Y-128652133D02*
X162559200Y-128618800D01*
X162492533Y-128585466D01*
X162325866Y-128585466D01*
X162259200Y-128618800D01*
X162225866Y-128652133D01*
X162192533Y-128718800D01*
X162192533Y-128785466D01*
X162225866Y-128885466D01*
X162625866Y-129285466D01*
X162192533Y-129285466D01*
%TO.C,IC1*%
X161735333Y-40840733D02*
X162435333Y-40840733D01*
X161802000Y-40107400D02*
X161768666Y-40140733D01*
X161735333Y-40240733D01*
X161735333Y-40307400D01*
X161768666Y-40407400D01*
X161835333Y-40474066D01*
X161902000Y-40507400D01*
X162035333Y-40540733D01*
X162135333Y-40540733D01*
X162268666Y-40507400D01*
X162335333Y-40474066D01*
X162402000Y-40407400D01*
X162435333Y-40307400D01*
X162435333Y-40240733D01*
X162402000Y-40140733D01*
X162368666Y-40107400D01*
X161735333Y-39440733D02*
X161735333Y-39840733D01*
X161735333Y-39640733D02*
X162435333Y-39640733D01*
X162335333Y-39707400D01*
X162268666Y-39774066D01*
X162235333Y-39840733D01*
X154871085Y-42016371D02*
X154537752Y-42016371D01*
X154394895Y-42540180D02*
X154871085Y-42540180D01*
X154871085Y-41540180D01*
X154394895Y-41540180D01*
X154013942Y-41635419D02*
X153966323Y-41587800D01*
X153871085Y-41540180D01*
X153632990Y-41540180D01*
X153537752Y-41587800D01*
X153490133Y-41635419D01*
X153442514Y-41730657D01*
X153442514Y-41825895D01*
X153490133Y-41968752D01*
X154061561Y-42540180D01*
X153442514Y-42540180D01*
X153061561Y-41635419D02*
X153013942Y-41587800D01*
X152918704Y-41540180D01*
X152680609Y-41540180D01*
X152585371Y-41587800D01*
X152537752Y-41635419D01*
X152490133Y-41730657D01*
X152490133Y-41825895D01*
X152537752Y-41968752D01*
X153109180Y-42540180D01*
X152490133Y-42540180D01*
X152061561Y-42159228D02*
X151299657Y-42159228D01*
X150775847Y-42540180D02*
X150585371Y-42540180D01*
X150490133Y-42492561D01*
X150442514Y-42444942D01*
X150347276Y-42302085D01*
X150299657Y-42111609D01*
X150299657Y-41730657D01*
X150347276Y-41635419D01*
X150394895Y-41587800D01*
X150490133Y-41540180D01*
X150680609Y-41540180D01*
X150775847Y-41587800D01*
X150823466Y-41635419D01*
X150871085Y-41730657D01*
X150871085Y-41968752D01*
X150823466Y-42063990D01*
X150775847Y-42111609D01*
X150680609Y-42159228D01*
X150490133Y-42159228D01*
X150394895Y-42111609D01*
X150347276Y-42063990D01*
X150299657Y-41968752D01*
X149680609Y-41540180D02*
X149585371Y-41540180D01*
X149490133Y-41587800D01*
X149442514Y-41635419D01*
X149394895Y-41730657D01*
X149347276Y-41921133D01*
X149347276Y-42159228D01*
X149394895Y-42349704D01*
X149442514Y-42444942D01*
X149490133Y-42492561D01*
X149585371Y-42540180D01*
X149680609Y-42540180D01*
X149775847Y-42492561D01*
X149823466Y-42444942D01*
X149871085Y-42349704D01*
X149918704Y-42159228D01*
X149918704Y-41921133D01*
X149871085Y-41730657D01*
X149823466Y-41635419D01*
X149775847Y-41587800D01*
X149680609Y-41540180D01*
X148728228Y-41540180D02*
X148632990Y-41540180D01*
X148537752Y-41587800D01*
X148490133Y-41635419D01*
X148442514Y-41730657D01*
X148394895Y-41921133D01*
X148394895Y-42159228D01*
X148442514Y-42349704D01*
X148490133Y-42444942D01*
X148537752Y-42492561D01*
X148632990Y-42540180D01*
X148728228Y-42540180D01*
X148823466Y-42492561D01*
X148871085Y-42444942D01*
X148918704Y-42349704D01*
X148966323Y-42159228D01*
X148966323Y-41921133D01*
X148918704Y-41730657D01*
X148871085Y-41635419D01*
X148823466Y-41587800D01*
X148728228Y-41540180D01*
X147966323Y-42540180D02*
X147966323Y-41540180D01*
X147632990Y-42254466D01*
X147299657Y-41540180D01*
X147299657Y-42540180D01*
X146871085Y-41635419D02*
X146823466Y-41587800D01*
X146728228Y-41540180D01*
X146490133Y-41540180D01*
X146394895Y-41587800D01*
X146347276Y-41635419D01*
X146299657Y-41730657D01*
X146299657Y-41825895D01*
X146347276Y-41968752D01*
X146918704Y-42540180D01*
X146299657Y-42540180D01*
X145918704Y-41635419D02*
X145871085Y-41587800D01*
X145775847Y-41540180D01*
X145537752Y-41540180D01*
X145442514Y-41587800D01*
X145394895Y-41635419D01*
X145347276Y-41730657D01*
X145347276Y-41825895D01*
X145394895Y-41968752D01*
X145966323Y-42540180D01*
X145347276Y-42540180D01*
X144966323Y-42492561D02*
X144823466Y-42540180D01*
X144585371Y-42540180D01*
X144490133Y-42492561D01*
X144442514Y-42444942D01*
X144394895Y-42349704D01*
X144394895Y-42254466D01*
X144442514Y-42159228D01*
X144490133Y-42111609D01*
X144585371Y-42063990D01*
X144775847Y-42016371D01*
X144871085Y-41968752D01*
X144918704Y-41921133D01*
X144966323Y-41825895D01*
X144966323Y-41730657D01*
X144918704Y-41635419D01*
X144871085Y-41587800D01*
X144775847Y-41540180D01*
X144537752Y-41540180D01*
X144394895Y-41587800D01*
X151315561Y-44397561D02*
X151410800Y-44445180D01*
X151601276Y-44445180D01*
X151696514Y-44397561D01*
X151744133Y-44302323D01*
X151744133Y-43921371D01*
X151696514Y-43826133D01*
X151601276Y-43778514D01*
X151410800Y-43778514D01*
X151315561Y-43826133D01*
X151267942Y-43921371D01*
X151267942Y-44016609D01*
X151744133Y-44111847D01*
X150506038Y-43921371D02*
X150363180Y-43968990D01*
X150315561Y-44016609D01*
X150267942Y-44111847D01*
X150267942Y-44254704D01*
X150315561Y-44349942D01*
X150363180Y-44397561D01*
X150458419Y-44445180D01*
X150839371Y-44445180D01*
X150839371Y-43445180D01*
X150506038Y-43445180D01*
X150410800Y-43492800D01*
X150363180Y-43540419D01*
X150315561Y-43635657D01*
X150315561Y-43730895D01*
X150363180Y-43826133D01*
X150410800Y-43873752D01*
X150506038Y-43921371D01*
X150839371Y-43921371D01*
X149934609Y-43778514D02*
X149696514Y-44445180D01*
X149458419Y-43778514D02*
X149696514Y-44445180D01*
X149791752Y-44683276D01*
X149839371Y-44730895D01*
X149934609Y-44778514D01*
X149220323Y-43778514D02*
X148839371Y-43778514D01*
X149077466Y-43445180D02*
X149077466Y-44302323D01*
X149029847Y-44397561D01*
X148934609Y-44445180D01*
X148839371Y-44445180D01*
X148125085Y-44397561D02*
X148220323Y-44445180D01*
X148410800Y-44445180D01*
X148506038Y-44397561D01*
X148553657Y-44302323D01*
X148553657Y-43921371D01*
X148506038Y-43826133D01*
X148410800Y-43778514D01*
X148220323Y-43778514D01*
X148125085Y-43826133D01*
X148077466Y-43921371D01*
X148077466Y-44016609D01*
X148553657Y-44111847D01*
%TO.C,J7*%
X167963333Y-78483666D02*
X167963333Y-78983666D01*
X167996666Y-79083666D01*
X168063333Y-79150333D01*
X168163333Y-79183666D01*
X168230000Y-79183666D01*
X167696666Y-78483666D02*
X167230000Y-78483666D01*
X167530000Y-79183666D01*
%TO.C,R14*%
X151072000Y-80072666D02*
X151305333Y-79739333D01*
X151472000Y-80072666D02*
X151472000Y-79372666D01*
X151205333Y-79372666D01*
X151138666Y-79406000D01*
X151105333Y-79439333D01*
X151072000Y-79506000D01*
X151072000Y-79606000D01*
X151105333Y-79672666D01*
X151138666Y-79706000D01*
X151205333Y-79739333D01*
X151472000Y-79739333D01*
X150405333Y-80072666D02*
X150805333Y-80072666D01*
X150605333Y-80072666D02*
X150605333Y-79372666D01*
X150672000Y-79472666D01*
X150738666Y-79539333D01*
X150805333Y-79572666D01*
X149805333Y-79606000D02*
X149805333Y-80072666D01*
X149972000Y-79339333D02*
X150138666Y-79839333D01*
X149705333Y-79839333D01*
%TO.C,J4*%
X170438733Y-65428066D02*
X170438733Y-65928066D01*
X170472066Y-66028066D01*
X170538733Y-66094733D01*
X170638733Y-66128066D01*
X170705400Y-66128066D01*
X169805400Y-65661400D02*
X169805400Y-66128066D01*
X169972066Y-65394733D02*
X170138733Y-65894733D01*
X169705400Y-65894733D01*
%TO.C,J10*%
X148394666Y-109497066D02*
X148394666Y-109997066D01*
X148428000Y-110097066D01*
X148494666Y-110163733D01*
X148594666Y-110197066D01*
X148661333Y-110197066D01*
X147694666Y-110197066D02*
X148094666Y-110197066D01*
X147894666Y-110197066D02*
X147894666Y-109497066D01*
X147961333Y-109597066D01*
X148028000Y-109663733D01*
X148094666Y-109697066D01*
X147261333Y-109497066D02*
X147194666Y-109497066D01*
X147128000Y-109530400D01*
X147094666Y-109563733D01*
X147061333Y-109630400D01*
X147028000Y-109763733D01*
X147028000Y-109930400D01*
X147061333Y-110063733D01*
X147094666Y-110130400D01*
X147128000Y-110163733D01*
X147194666Y-110197066D01*
X147261333Y-110197066D01*
X147328000Y-110163733D01*
X147361333Y-110130400D01*
X147394666Y-110063733D01*
X147428000Y-109930400D01*
X147428000Y-109763733D01*
X147394666Y-109630400D01*
X147361333Y-109563733D01*
X147328000Y-109530400D01*
X147261333Y-109497066D01*
%TO.C,D15*%
X170166400Y-43801466D02*
X170166400Y-43101466D01*
X169999733Y-43101466D01*
X169899733Y-43134800D01*
X169833066Y-43201466D01*
X169799733Y-43268133D01*
X169766400Y-43401466D01*
X169766400Y-43501466D01*
X169799733Y-43634800D01*
X169833066Y-43701466D01*
X169899733Y-43768133D01*
X169999733Y-43801466D01*
X170166400Y-43801466D01*
X169099733Y-43801466D02*
X169499733Y-43801466D01*
X169299733Y-43801466D02*
X169299733Y-43101466D01*
X169366400Y-43201466D01*
X169433066Y-43268133D01*
X169499733Y-43301466D01*
X168466400Y-43101466D02*
X168799733Y-43101466D01*
X168833066Y-43434800D01*
X168799733Y-43401466D01*
X168733066Y-43368133D01*
X168566400Y-43368133D01*
X168499733Y-43401466D01*
X168466400Y-43434800D01*
X168433066Y-43501466D01*
X168433066Y-43668133D01*
X168466400Y-43734800D01*
X168499733Y-43768133D01*
X168566400Y-43801466D01*
X168733066Y-43801466D01*
X168799733Y-43768133D01*
X168833066Y-43734800D01*
X171323000Y-40854380D02*
X171323000Y-41092476D01*
X171561095Y-40997238D02*
X171323000Y-41092476D01*
X171084904Y-40997238D01*
X171465857Y-41282952D02*
X171323000Y-41092476D01*
X171180142Y-41282952D01*
X171323000Y-40854380D02*
X171323000Y-41092476D01*
X171561095Y-40997238D02*
X171323000Y-41092476D01*
X171084904Y-40997238D01*
X171465857Y-41282952D02*
X171323000Y-41092476D01*
X171180142Y-41282952D01*
%TO.C,J5*%
X165026133Y-33253333D02*
X164526133Y-33253333D01*
X164426133Y-33286666D01*
X164359466Y-33353333D01*
X164326133Y-33453333D01*
X164326133Y-33520000D01*
X165026133Y-32586666D02*
X165026133Y-32920000D01*
X164692800Y-32953333D01*
X164726133Y-32920000D01*
X164759466Y-32853333D01*
X164759466Y-32686666D01*
X164726133Y-32620000D01*
X164692800Y-32586666D01*
X164626133Y-32553333D01*
X164459466Y-32553333D01*
X164392800Y-32586666D01*
X164359466Y-32620000D01*
X164326133Y-32686666D01*
X164326133Y-32853333D01*
X164359466Y-32920000D01*
X164392800Y-32953333D01*
%TO.C,ANT2*%
X144262333Y-94731666D02*
X143929000Y-94731666D01*
X144329000Y-94931666D02*
X144095666Y-94231666D01*
X143862333Y-94931666D01*
X143629000Y-94931666D02*
X143629000Y-94231666D01*
X143229000Y-94931666D01*
X143229000Y-94231666D01*
X142995666Y-94231666D02*
X142595666Y-94231666D01*
X142795666Y-94931666D02*
X142795666Y-94231666D01*
X142395666Y-94298333D02*
X142362333Y-94265000D01*
X142295666Y-94231666D01*
X142129000Y-94231666D01*
X142062333Y-94265000D01*
X142029000Y-94298333D01*
X141995666Y-94365000D01*
X141995666Y-94431666D01*
X142029000Y-94531666D01*
X142429000Y-94931666D01*
X141995666Y-94931666D01*
%TO.C,D12*%
X148171733Y-34632000D02*
X148871733Y-34632000D01*
X148871733Y-34465333D01*
X148838400Y-34365333D01*
X148771733Y-34298666D01*
X148705066Y-34265333D01*
X148571733Y-34232000D01*
X148471733Y-34232000D01*
X148338400Y-34265333D01*
X148271733Y-34298666D01*
X148205066Y-34365333D01*
X148171733Y-34465333D01*
X148171733Y-34632000D01*
X148171733Y-33565333D02*
X148171733Y-33965333D01*
X148171733Y-33765333D02*
X148871733Y-33765333D01*
X148771733Y-33832000D01*
X148705066Y-33898666D01*
X148671733Y-33965333D01*
X148805066Y-33298666D02*
X148838400Y-33265333D01*
X148871733Y-33198666D01*
X148871733Y-33032000D01*
X148838400Y-32965333D01*
X148805066Y-32932000D01*
X148738400Y-32898666D01*
X148671733Y-32898666D01*
X148571733Y-32932000D01*
X148171733Y-33332000D01*
X148171733Y-32898666D01*
%TO.C,J8*%
X162063333Y-83269666D02*
X162063333Y-83769666D01*
X162096666Y-83869666D01*
X162163333Y-83936333D01*
X162263333Y-83969666D01*
X162330000Y-83969666D01*
X161630000Y-83569666D02*
X161696666Y-83536333D01*
X161730000Y-83503000D01*
X161763333Y-83436333D01*
X161763333Y-83403000D01*
X161730000Y-83336333D01*
X161696666Y-83303000D01*
X161630000Y-83269666D01*
X161496666Y-83269666D01*
X161430000Y-83303000D01*
X161396666Y-83336333D01*
X161363333Y-83403000D01*
X161363333Y-83436333D01*
X161396666Y-83503000D01*
X161430000Y-83536333D01*
X161496666Y-83569666D01*
X161630000Y-83569666D01*
X161696666Y-83603000D01*
X161730000Y-83636333D01*
X161763333Y-83703000D01*
X161763333Y-83836333D01*
X161730000Y-83903000D01*
X161696666Y-83936333D01*
X161630000Y-83969666D01*
X161496666Y-83969666D01*
X161430000Y-83936333D01*
X161396666Y-83903000D01*
X161363333Y-83836333D01*
X161363333Y-83703000D01*
X161396666Y-83636333D01*
X161430000Y-83603000D01*
X161496666Y-83569666D01*
%TO.C,J12*%
X148496266Y-115389866D02*
X148496266Y-115889866D01*
X148529600Y-115989866D01*
X148596266Y-116056533D01*
X148696266Y-116089866D01*
X148762933Y-116089866D01*
X147796266Y-116089866D02*
X148196266Y-116089866D01*
X147996266Y-116089866D02*
X147996266Y-115389866D01*
X148062933Y-115489866D01*
X148129600Y-115556533D01*
X148196266Y-115589866D01*
X147529600Y-115456533D02*
X147496266Y-115423200D01*
X147429600Y-115389866D01*
X147262933Y-115389866D01*
X147196266Y-115423200D01*
X147162933Y-115456533D01*
X147129600Y-115523200D01*
X147129600Y-115589866D01*
X147162933Y-115689866D01*
X147562933Y-116089866D01*
X147129600Y-116089866D01*
%TO.C,D7*%
X171865066Y-107403066D02*
X171865066Y-106703066D01*
X171698400Y-106703066D01*
X171598400Y-106736400D01*
X171531733Y-106803066D01*
X171498400Y-106869733D01*
X171465066Y-107003066D01*
X171465066Y-107103066D01*
X171498400Y-107236400D01*
X171531733Y-107303066D01*
X171598400Y-107369733D01*
X171698400Y-107403066D01*
X171865066Y-107403066D01*
X171231733Y-106703066D02*
X170765066Y-106703066D01*
X171065066Y-107403066D01*
%TO.C,D8*%
X152692933Y-34349466D02*
X153392933Y-34349466D01*
X153392933Y-34182800D01*
X153359600Y-34082800D01*
X153292933Y-34016133D01*
X153226266Y-33982800D01*
X153092933Y-33949466D01*
X152992933Y-33949466D01*
X152859600Y-33982800D01*
X152792933Y-34016133D01*
X152726266Y-34082800D01*
X152692933Y-34182800D01*
X152692933Y-34349466D01*
X153092933Y-33549466D02*
X153126266Y-33616133D01*
X153159600Y-33649466D01*
X153226266Y-33682800D01*
X153259600Y-33682800D01*
X153326266Y-33649466D01*
X153359600Y-33616133D01*
X153392933Y-33549466D01*
X153392933Y-33416133D01*
X153359600Y-33349466D01*
X153326266Y-33316133D01*
X153259600Y-33282800D01*
X153226266Y-33282800D01*
X153159600Y-33316133D01*
X153126266Y-33349466D01*
X153092933Y-33416133D01*
X153092933Y-33549466D01*
X153059600Y-33616133D01*
X153026266Y-33649466D01*
X152959600Y-33682800D01*
X152826266Y-33682800D01*
X152759600Y-33649466D01*
X152726266Y-33616133D01*
X152692933Y-33549466D01*
X152692933Y-33416133D01*
X152726266Y-33349466D01*
X152759600Y-33316133D01*
X152826266Y-33282800D01*
X152959600Y-33282800D01*
X153026266Y-33316133D01*
X153059600Y-33349466D01*
X153092933Y-33416133D01*
%TO.C,D1*%
X144026666Y-80199666D02*
X144026666Y-79499666D01*
X143860000Y-79499666D01*
X143760000Y-79533000D01*
X143693333Y-79599666D01*
X143660000Y-79666333D01*
X143626666Y-79799666D01*
X143626666Y-79899666D01*
X143660000Y-80033000D01*
X143693333Y-80099666D01*
X143760000Y-80166333D01*
X143860000Y-80199666D01*
X144026666Y-80199666D01*
X142960000Y-80199666D02*
X143360000Y-80199666D01*
X143160000Y-80199666D02*
X143160000Y-79499666D01*
X143226666Y-79599666D01*
X143293333Y-79666333D01*
X143360000Y-79699666D01*
%TO.C,LS1*%
X158539600Y-80733066D02*
X158872933Y-80733066D01*
X158872933Y-80033066D01*
X158339600Y-80699733D02*
X158239600Y-80733066D01*
X158072933Y-80733066D01*
X158006266Y-80699733D01*
X157972933Y-80666400D01*
X157939600Y-80599733D01*
X157939600Y-80533066D01*
X157972933Y-80466400D01*
X158006266Y-80433066D01*
X158072933Y-80399733D01*
X158206266Y-80366400D01*
X158272933Y-80333066D01*
X158306266Y-80299733D01*
X158339600Y-80233066D01*
X158339600Y-80166400D01*
X158306266Y-80099733D01*
X158272933Y-80066400D01*
X158206266Y-80033066D01*
X158039600Y-80033066D01*
X157939600Y-80066400D01*
X157272933Y-80733066D02*
X157672933Y-80733066D01*
X157472933Y-80733066D02*
X157472933Y-80033066D01*
X157539600Y-80133066D01*
X157606266Y-80199733D01*
X157672933Y-80233066D01*
X153106428Y-69723047D02*
X153106428Y-70484952D01*
X153487380Y-70104000D02*
X152725476Y-70104000D01*
%TO.C,J6*%
X156744333Y-83269666D02*
X156744333Y-83769666D01*
X156777666Y-83869666D01*
X156844333Y-83936333D01*
X156944333Y-83969666D01*
X157011000Y-83969666D01*
X156111000Y-83269666D02*
X156244333Y-83269666D01*
X156311000Y-83303000D01*
X156344333Y-83336333D01*
X156411000Y-83436333D01*
X156444333Y-83569666D01*
X156444333Y-83836333D01*
X156411000Y-83903000D01*
X156377666Y-83936333D01*
X156311000Y-83969666D01*
X156177666Y-83969666D01*
X156111000Y-83936333D01*
X156077666Y-83903000D01*
X156044333Y-83836333D01*
X156044333Y-83669666D01*
X156077666Y-83603000D01*
X156111000Y-83569666D01*
X156177666Y-83536333D01*
X156311000Y-83536333D01*
X156377666Y-83569666D01*
X156411000Y-83603000D01*
X156444333Y-83669666D01*
%TO.C,J13*%
X148394666Y-103451866D02*
X148394666Y-103951866D01*
X148428000Y-104051866D01*
X148494666Y-104118533D01*
X148594666Y-104151866D01*
X148661333Y-104151866D01*
X147694666Y-104151866D02*
X148094666Y-104151866D01*
X147894666Y-104151866D02*
X147894666Y-103451866D01*
X147961333Y-103551866D01*
X148028000Y-103618533D01*
X148094666Y-103651866D01*
X147461333Y-103451866D02*
X147028000Y-103451866D01*
X147261333Y-103718533D01*
X147161333Y-103718533D01*
X147094666Y-103751866D01*
X147061333Y-103785200D01*
X147028000Y-103851866D01*
X147028000Y-104018533D01*
X147061333Y-104085200D01*
X147094666Y-104118533D01*
X147161333Y-104151866D01*
X147361333Y-104151866D01*
X147428000Y-104118533D01*
X147461333Y-104085200D01*
%TO.C,J3*%
X163910933Y-121536666D02*
X163910933Y-122036666D01*
X163944266Y-122136666D01*
X164010933Y-122203333D01*
X164110933Y-122236666D01*
X164177600Y-122236666D01*
X163644266Y-121536666D02*
X163210933Y-121536666D01*
X163444266Y-121803333D01*
X163344266Y-121803333D01*
X163277600Y-121836666D01*
X163244266Y-121870000D01*
X163210933Y-121936666D01*
X163210933Y-122103333D01*
X163244266Y-122170000D01*
X163277600Y-122203333D01*
X163344266Y-122236666D01*
X163544266Y-122236666D01*
X163610933Y-122203333D01*
X163644266Y-122170000D01*
%TO.C,D9*%
X160536666Y-38061066D02*
X160536666Y-37361066D01*
X160370000Y-37361066D01*
X160270000Y-37394400D01*
X160203333Y-37461066D01*
X160170000Y-37527733D01*
X160136666Y-37661066D01*
X160136666Y-37761066D01*
X160170000Y-37894400D01*
X160203333Y-37961066D01*
X160270000Y-38027733D01*
X160370000Y-38061066D01*
X160536666Y-38061066D01*
X159803333Y-38061066D02*
X159670000Y-38061066D01*
X159603333Y-38027733D01*
X159570000Y-37994400D01*
X159503333Y-37894400D01*
X159470000Y-37761066D01*
X159470000Y-37494400D01*
X159503333Y-37427733D01*
X159536666Y-37394400D01*
X159603333Y-37361066D01*
X159736666Y-37361066D01*
X159803333Y-37394400D01*
X159836666Y-37427733D01*
X159870000Y-37494400D01*
X159870000Y-37661066D01*
X159836666Y-37727733D01*
X159803333Y-37761066D01*
X159736666Y-37794400D01*
X159603333Y-37794400D01*
X159536666Y-37761066D01*
X159503333Y-37727733D01*
X159470000Y-37661066D01*
%TO.C,D13*%
X170064800Y-61175066D02*
X170064800Y-60475066D01*
X169898133Y-60475066D01*
X169798133Y-60508400D01*
X169731466Y-60575066D01*
X169698133Y-60641733D01*
X169664800Y-60775066D01*
X169664800Y-60875066D01*
X169698133Y-61008400D01*
X169731466Y-61075066D01*
X169798133Y-61141733D01*
X169898133Y-61175066D01*
X170064800Y-61175066D01*
X168998133Y-61175066D02*
X169398133Y-61175066D01*
X169198133Y-61175066D02*
X169198133Y-60475066D01*
X169264800Y-60575066D01*
X169331466Y-60641733D01*
X169398133Y-60675066D01*
X168764800Y-60475066D02*
X168331466Y-60475066D01*
X168564800Y-60741733D01*
X168464800Y-60741733D01*
X168398133Y-60775066D01*
X168364800Y-60808400D01*
X168331466Y-60875066D01*
X168331466Y-61041733D01*
X168364800Y-61108400D01*
X168398133Y-61141733D01*
X168464800Y-61175066D01*
X168664800Y-61175066D01*
X168731466Y-61141733D01*
X168764800Y-61108400D01*
X171323000Y-58126380D02*
X171323000Y-58364476D01*
X171561095Y-58269238D02*
X171323000Y-58364476D01*
X171084904Y-58269238D01*
X171465857Y-58554952D02*
X171323000Y-58364476D01*
X171180142Y-58554952D01*
X171323000Y-58126380D02*
X171323000Y-58364476D01*
X171561095Y-58269238D02*
X171323000Y-58364476D01*
X171084904Y-58269238D01*
X171465857Y-58554952D02*
X171323000Y-58364476D01*
X171180142Y-58554952D01*
%TO.C,J11*%
X148445466Y-121638266D02*
X148445466Y-122138266D01*
X148478800Y-122238266D01*
X148545466Y-122304933D01*
X148645466Y-122338266D01*
X148712133Y-122338266D01*
X147745466Y-122338266D02*
X148145466Y-122338266D01*
X147945466Y-122338266D02*
X147945466Y-121638266D01*
X148012133Y-121738266D01*
X148078800Y-121804933D01*
X148145466Y-121838266D01*
X147078800Y-122338266D02*
X147478800Y-122338266D01*
X147278800Y-122338266D02*
X147278800Y-121638266D01*
X147345466Y-121738266D01*
X147412133Y-121804933D01*
X147478800Y-121838266D01*
%TO.C,D14*%
X170166400Y-52437466D02*
X170166400Y-51737466D01*
X169999733Y-51737466D01*
X169899733Y-51770800D01*
X169833066Y-51837466D01*
X169799733Y-51904133D01*
X169766400Y-52037466D01*
X169766400Y-52137466D01*
X169799733Y-52270800D01*
X169833066Y-52337466D01*
X169899733Y-52404133D01*
X169999733Y-52437466D01*
X170166400Y-52437466D01*
X169099733Y-52437466D02*
X169499733Y-52437466D01*
X169299733Y-52437466D02*
X169299733Y-51737466D01*
X169366400Y-51837466D01*
X169433066Y-51904133D01*
X169499733Y-51937466D01*
X168499733Y-51970800D02*
X168499733Y-52437466D01*
X168666400Y-51704133D02*
X168833066Y-52204133D01*
X168399733Y-52204133D01*
X171323000Y-49553880D02*
X171323000Y-49791976D01*
X171561095Y-49696738D02*
X171323000Y-49791976D01*
X171084904Y-49696738D01*
X171465857Y-49982452D02*
X171323000Y-49791976D01*
X171180142Y-49982452D01*
X171323000Y-49553880D02*
X171323000Y-49791976D01*
X171561095Y-49696738D02*
X171323000Y-49791976D01*
X171084904Y-49696738D01*
X171465857Y-49982452D02*
X171323000Y-49791976D01*
X171180142Y-49982452D01*
%TO.C,D5*%
X171865066Y-115581866D02*
X171865066Y-114881866D01*
X171698400Y-114881866D01*
X171598400Y-114915200D01*
X171531733Y-114981866D01*
X171498400Y-115048533D01*
X171465066Y-115181866D01*
X171465066Y-115281866D01*
X171498400Y-115415200D01*
X171531733Y-115481866D01*
X171598400Y-115548533D01*
X171698400Y-115581866D01*
X171865066Y-115581866D01*
X170831733Y-114881866D02*
X171165066Y-114881866D01*
X171198400Y-115215200D01*
X171165066Y-115181866D01*
X171098400Y-115148533D01*
X170931733Y-115148533D01*
X170865066Y-115181866D01*
X170831733Y-115215200D01*
X170798400Y-115281866D01*
X170798400Y-115448533D01*
X170831733Y-115515200D01*
X170865066Y-115548533D01*
X170931733Y-115581866D01*
X171098400Y-115581866D01*
X171165066Y-115548533D01*
X171198400Y-115515200D01*
%TO.C,D10*%
X171030000Y-77245666D02*
X171030000Y-76545666D01*
X170863333Y-76545666D01*
X170763333Y-76579000D01*
X170696666Y-76645666D01*
X170663333Y-76712333D01*
X170630000Y-76845666D01*
X170630000Y-76945666D01*
X170663333Y-77079000D01*
X170696666Y-77145666D01*
X170763333Y-77212333D01*
X170863333Y-77245666D01*
X171030000Y-77245666D01*
X169963333Y-77245666D02*
X170363333Y-77245666D01*
X170163333Y-77245666D02*
X170163333Y-76545666D01*
X170230000Y-76645666D01*
X170296666Y-76712333D01*
X170363333Y-76745666D01*
X169530000Y-76545666D02*
X169463333Y-76545666D01*
X169396666Y-76579000D01*
X169363333Y-76612333D01*
X169330000Y-76679000D01*
X169296666Y-76812333D01*
X169296666Y-76979000D01*
X169330000Y-77112333D01*
X169363333Y-77179000D01*
X169396666Y-77212333D01*
X169463333Y-77245666D01*
X169530000Y-77245666D01*
X169596666Y-77212333D01*
X169630000Y-77179000D01*
X169663333Y-77112333D01*
X169696666Y-76979000D01*
X169696666Y-76812333D01*
X169663333Y-76679000D01*
X169630000Y-76612333D01*
X169596666Y-76579000D01*
X169530000Y-76545666D01*
%TO.C,D6*%
X171865066Y-111517866D02*
X171865066Y-110817866D01*
X171698400Y-110817866D01*
X171598400Y-110851200D01*
X171531733Y-110917866D01*
X171498400Y-110984533D01*
X171465066Y-111117866D01*
X171465066Y-111217866D01*
X171498400Y-111351200D01*
X171531733Y-111417866D01*
X171598400Y-111484533D01*
X171698400Y-111517866D01*
X171865066Y-111517866D01*
X170865066Y-110817866D02*
X170998400Y-110817866D01*
X171065066Y-110851200D01*
X171098400Y-110884533D01*
X171165066Y-110984533D01*
X171198400Y-111117866D01*
X171198400Y-111384533D01*
X171165066Y-111451200D01*
X171131733Y-111484533D01*
X171065066Y-111517866D01*
X170931733Y-111517866D01*
X170865066Y-111484533D01*
X170831733Y-111451200D01*
X170798400Y-111384533D01*
X170798400Y-111217866D01*
X170831733Y-111151200D01*
X170865066Y-111117866D01*
X170931733Y-111084533D01*
X171065066Y-111084533D01*
X171131733Y-111117866D01*
X171165066Y-111151200D01*
X171198400Y-111217866D01*
D14*
%TO.C,J1*%
X145509000Y-62417000D02*
X144706530Y-62417000D01*
X143289000Y-56132000D02*
X143289000Y-62417000D01*
X145509000Y-56132000D02*
X145509000Y-62417000D01*
X145509000Y-56132000D02*
X144962471Y-56132000D01*
X145509000Y-54612000D02*
X144399000Y-54612000D01*
X145509000Y-55372000D02*
X145509000Y-54612000D01*
X144091470Y-62417000D02*
X143289000Y-62417000D01*
X143835529Y-56132000D02*
X143289000Y-56132000D01*
%TO.C,C34*%
X165081400Y-116093500D02*
X163831400Y-116093500D01*
X156436400Y-104708500D02*
X160186400Y-104708500D01*
X164456400Y-116718500D02*
X164456400Y-115468500D01*
X166956400Y-114164063D02*
X166956400Y-104708500D01*
X165891963Y-115228500D02*
X166956400Y-114164063D01*
X166956400Y-104708500D02*
X163206400Y-104708500D01*
X157500837Y-115228500D02*
X156436400Y-114164063D01*
X157500837Y-115228500D02*
X160186400Y-115228500D01*
X165891963Y-115228500D02*
X163206400Y-115228500D01*
X156436400Y-114164063D02*
X156436400Y-104708500D01*
%TO.C,J2*%
X155860000Y-122410800D02*
X155860000Y-129150800D01*
X161640000Y-123530800D02*
X155860000Y-123530800D01*
X161640000Y-128630800D02*
X155860000Y-128630800D01*
X161640000Y-122410800D02*
X161640000Y-129150800D01*
X161640000Y-129150800D02*
X155860000Y-129150800D01*
X161880000Y-129390800D02*
X161480000Y-129390800D01*
X161640000Y-122410800D02*
X155860000Y-122410800D01*
X161880000Y-128750800D02*
X161880000Y-129390800D01*
D15*
%TO.C,IC1*%
X160324800Y-51358800D02*
X160324800Y-43738800D01*
X156514800Y-43738800D02*
X156514800Y-41198800D01*
X160324800Y-43738800D02*
X156514800Y-43738800D01*
X161434800Y-39278800D02*
X141434800Y-39278800D01*
X141434800Y-53278800D02*
X161434800Y-53278800D01*
X156514800Y-41198800D02*
X142544800Y-41198800D01*
X142544800Y-51358800D02*
X160324800Y-51358800D01*
X141434800Y-39278800D02*
X141434800Y-53278800D01*
X161434800Y-53278800D02*
X161434800Y-39278800D01*
X142544800Y-41198800D02*
X142544800Y-51358800D01*
X160324800Y-42214800D02*
G75*
G03*
X160324800Y-42214800I-1016000J0D01*
G01*
X160705800Y-40817800D02*
G75*
G03*
X160705800Y-40817800I-381000J0D01*
G01*
X160578800Y-40817800D02*
G75*
G03*
X160578800Y-40817800I-254000J0D01*
G01*
D14*
%TO.C,J7*%
X167140000Y-93561000D02*
X166200000Y-93561000D01*
X168740000Y-95361000D02*
X167140000Y-95361000D01*
X167140000Y-95361000D02*
X167140000Y-93561000D01*
X171610000Y-94091000D02*
X171610000Y-80661000D01*
X167140000Y-79391000D02*
X167140000Y-81191000D01*
X168740000Y-79391000D02*
X167140000Y-79391000D01*
%TO.C,R14*%
X148436359Y-80136000D02*
X148743641Y-80136000D01*
X148436359Y-79376000D02*
X148743641Y-79376000D01*
%TO.C,J4*%
X165761000Y-76019800D02*
X166661000Y-76019800D01*
X169361000Y-66829800D02*
X172091000Y-66829800D01*
X172091000Y-66829800D02*
X172091000Y-76019800D01*
X165761000Y-66829800D02*
X166661000Y-66829800D01*
X169361000Y-76019800D02*
X172091000Y-76019800D01*
X162681000Y-66949800D02*
X162681000Y-75899800D01*
%TO.C,J10*%
X155970000Y-104314333D02*
X149230000Y-104314333D01*
X155970000Y-110094333D02*
X149230000Y-110094333D01*
X149230000Y-110094333D02*
X149230000Y-104314333D01*
X149750000Y-110094333D02*
X149750000Y-104314333D01*
X149630000Y-110334333D02*
X148990000Y-110334333D01*
X155970000Y-110094333D02*
X155970000Y-104314333D01*
X154850000Y-110094333D02*
X154850000Y-104314333D01*
X148990000Y-110334333D02*
X148990000Y-109934333D01*
%TO.C,D15*%
X170047471Y-40525700D02*
X168534529Y-40525700D01*
X170047471Y-42786300D02*
X168534529Y-42786300D01*
%TO.C,ANT2*%
X141328000Y-80876000D02*
X154328000Y-80876000D01*
X154328000Y-80876000D02*
X154328000Y-93876000D01*
X154328000Y-93876000D02*
X141328000Y-93876000D01*
X141328000Y-93876000D02*
X141328000Y-80876000D01*
%TO.C,D12*%
X149175800Y-34632800D02*
X149175800Y-32943800D01*
X150645800Y-33070800D02*
X150645800Y-34632800D01*
D16*
X149175800Y-32347800D02*
X150645800Y-32347800D01*
D14*
%TO.C,J8*%
X165710000Y-94091000D02*
X165710000Y-85661000D01*
X162840000Y-84391000D02*
X161240000Y-84391000D01*
X162840000Y-95361000D02*
X161240000Y-95361000D01*
X161240000Y-84391000D02*
X161240000Y-86191000D01*
X161240000Y-95361000D02*
X161240000Y-93561000D01*
X161240000Y-93561000D02*
X160300000Y-93561000D01*
D17*
%TO.C,REF\u002A\u002A*%
X164214683Y-65311358D02*
X164214867Y-65419837D01*
X164214867Y-65419837D02*
X164215581Y-65503287D01*
X164215581Y-65503287D02*
X164217125Y-65565704D01*
X164217125Y-65565704D02*
X164219799Y-65611085D01*
X164219799Y-65611085D02*
X164223906Y-65643429D01*
X164223906Y-65643429D02*
X164229745Y-65666733D01*
X164229745Y-65666733D02*
X164237618Y-65684995D01*
X164237618Y-65684995D02*
X164243579Y-65695418D01*
X164243579Y-65695418D02*
X164292945Y-65751945D01*
X164292945Y-65751945D02*
X164355536Y-65787377D01*
X164355536Y-65787377D02*
X164424787Y-65800090D01*
X164424787Y-65800090D02*
X164494132Y-65788463D01*
X164494132Y-65788463D02*
X164535425Y-65767568D01*
X164535425Y-65767568D02*
X164578775Y-65731422D01*
X164578775Y-65731422D02*
X164608319Y-65687276D01*
X164608319Y-65687276D02*
X164626145Y-65629462D01*
X164626145Y-65629462D02*
X164634337Y-65552313D01*
X164634337Y-65552313D02*
X164635498Y-65495714D01*
X164635498Y-65495714D02*
X164635342Y-65491647D01*
X164635342Y-65491647D02*
X164533943Y-65491647D01*
X164533943Y-65491647D02*
X164533324Y-65556550D01*
X164533324Y-65556550D02*
X164530486Y-65599514D01*
X164530486Y-65599514D02*
X164523960Y-65627622D01*
X164523960Y-65627622D02*
X164512277Y-65647953D01*
X164512277Y-65647953D02*
X164498317Y-65663288D01*
X164498317Y-65663288D02*
X164451435Y-65692890D01*
X164451435Y-65692890D02*
X164401099Y-65695419D01*
X164401099Y-65695419D02*
X164353524Y-65670705D01*
X164353524Y-65670705D02*
X164349821Y-65667356D01*
X164349821Y-65667356D02*
X164334017Y-65649935D01*
X164334017Y-65649935D02*
X164324107Y-65629209D01*
X164324107Y-65629209D02*
X164318742Y-65598362D01*
X164318742Y-65598362D02*
X164316572Y-65550577D01*
X164316572Y-65550577D02*
X164316229Y-65497748D01*
X164316229Y-65497748D02*
X164316973Y-65431381D01*
X164316973Y-65431381D02*
X164320052Y-65387106D01*
X164320052Y-65387106D02*
X164326739Y-65358009D01*
X164326739Y-65358009D02*
X164338304Y-65337173D01*
X164338304Y-65337173D02*
X164347787Y-65326107D01*
X164347787Y-65326107D02*
X164391840Y-65298198D01*
X164391840Y-65298198D02*
X164442576Y-65294843D01*
X164442576Y-65294843D02*
X164491004Y-65316159D01*
X164491004Y-65316159D02*
X164500350Y-65324073D01*
X164500350Y-65324073D02*
X164516260Y-65341647D01*
X164516260Y-65341647D02*
X164526190Y-65362587D01*
X164526190Y-65362587D02*
X164531522Y-65393782D01*
X164531522Y-65393782D02*
X164533637Y-65442122D01*
X164533637Y-65442122D02*
X164533943Y-65491647D01*
X164533943Y-65491647D02*
X164635342Y-65491647D01*
X164635342Y-65491647D02*
X164631990Y-65404568D01*
X164631990Y-65404568D02*
X164620074Y-65336086D01*
X164620074Y-65336086D02*
X164597665Y-65284600D01*
X164597665Y-65284600D02*
X164562676Y-65244443D01*
X164562676Y-65244443D02*
X164535425Y-65223861D01*
X164535425Y-65223861D02*
X164485893Y-65201625D01*
X164485893Y-65201625D02*
X164428484Y-65191304D01*
X164428484Y-65191304D02*
X164375118Y-65194067D01*
X164375118Y-65194067D02*
X164345257Y-65205212D01*
X164345257Y-65205212D02*
X164333539Y-65208383D01*
X164333539Y-65208383D02*
X164325763Y-65196557D01*
X164325763Y-65196557D02*
X164320335Y-65164866D01*
X164320335Y-65164866D02*
X164316229Y-65116593D01*
X164316229Y-65116593D02*
X164311733Y-65062829D01*
X164311733Y-65062829D02*
X164305487Y-65030482D01*
X164305487Y-65030482D02*
X164294124Y-65011985D01*
X164294124Y-65011985D02*
X164274272Y-64999770D01*
X164274272Y-64999770D02*
X164261800Y-64994362D01*
X164261800Y-64994362D02*
X164214629Y-64974601D01*
X164214629Y-64974601D02*
X164214683Y-65311358D01*
X164214683Y-65311358D02*
X164214683Y-65311358D01*
G36*
X164634337Y-65552313D02*
G01*
X164626145Y-65629462D01*
X164608319Y-65687276D01*
X164578775Y-65731422D01*
X164535425Y-65767568D01*
X164494132Y-65788463D01*
X164424787Y-65800090D01*
X164355536Y-65787377D01*
X164292945Y-65751945D01*
X164243579Y-65695418D01*
X164237618Y-65684995D01*
X164229745Y-65666733D01*
X164223906Y-65643429D01*
X164219799Y-65611085D01*
X164217125Y-65565704D01*
X164215581Y-65503287D01*
X164215534Y-65497748D01*
X164316229Y-65497748D01*
X164316572Y-65550577D01*
X164318742Y-65598362D01*
X164324107Y-65629209D01*
X164334017Y-65649935D01*
X164349821Y-65667356D01*
X164353524Y-65670705D01*
X164401099Y-65695419D01*
X164451435Y-65692890D01*
X164498317Y-65663288D01*
X164512277Y-65647953D01*
X164523960Y-65627622D01*
X164530486Y-65599514D01*
X164533324Y-65556550D01*
X164533943Y-65491647D01*
X164533637Y-65442122D01*
X164531522Y-65393782D01*
X164526190Y-65362587D01*
X164516260Y-65341647D01*
X164500350Y-65324073D01*
X164491004Y-65316159D01*
X164442576Y-65294843D01*
X164391840Y-65298198D01*
X164347787Y-65326107D01*
X164338304Y-65337173D01*
X164326739Y-65358009D01*
X164320052Y-65387106D01*
X164316973Y-65431381D01*
X164316229Y-65497748D01*
X164215534Y-65497748D01*
X164214867Y-65419837D01*
X164214683Y-65311358D01*
X164214629Y-64974601D01*
X164261800Y-64994362D01*
X164274272Y-64999770D01*
X164294124Y-65011985D01*
X164305487Y-65030482D01*
X164311733Y-65062829D01*
X164316229Y-65116593D01*
X164320335Y-65164866D01*
X164325763Y-65196557D01*
X164333539Y-65208383D01*
X164345257Y-65205212D01*
X164375118Y-65194067D01*
X164428484Y-65191304D01*
X164485893Y-65201625D01*
X164535425Y-65223861D01*
X164562676Y-65244443D01*
X164597665Y-65284600D01*
X164620074Y-65336086D01*
X164631990Y-65404568D01*
X164635342Y-65491647D01*
X164635498Y-65495714D01*
X164634337Y-65552313D01*
G37*
X164634337Y-65552313D02*
X164626145Y-65629462D01*
X164608319Y-65687276D01*
X164578775Y-65731422D01*
X164535425Y-65767568D01*
X164494132Y-65788463D01*
X164424787Y-65800090D01*
X164355536Y-65787377D01*
X164292945Y-65751945D01*
X164243579Y-65695418D01*
X164237618Y-65684995D01*
X164229745Y-65666733D01*
X164223906Y-65643429D01*
X164219799Y-65611085D01*
X164217125Y-65565704D01*
X164215581Y-65503287D01*
X164215534Y-65497748D01*
X164316229Y-65497748D01*
X164316572Y-65550577D01*
X164318742Y-65598362D01*
X164324107Y-65629209D01*
X164334017Y-65649935D01*
X164349821Y-65667356D01*
X164353524Y-65670705D01*
X164401099Y-65695419D01*
X164451435Y-65692890D01*
X164498317Y-65663288D01*
X164512277Y-65647953D01*
X164523960Y-65627622D01*
X164530486Y-65599514D01*
X164533324Y-65556550D01*
X164533943Y-65491647D01*
X164533637Y-65442122D01*
X164531522Y-65393782D01*
X164526190Y-65362587D01*
X164516260Y-65341647D01*
X164500350Y-65324073D01*
X164491004Y-65316159D01*
X164442576Y-65294843D01*
X164391840Y-65298198D01*
X164347787Y-65326107D01*
X164338304Y-65337173D01*
X164326739Y-65358009D01*
X164320052Y-65387106D01*
X164316973Y-65431381D01*
X164316229Y-65497748D01*
X164215534Y-65497748D01*
X164214867Y-65419837D01*
X164214683Y-65311358D01*
X164214629Y-64974601D01*
X164261800Y-64994362D01*
X164274272Y-64999770D01*
X164294124Y-65011985D01*
X164305487Y-65030482D01*
X164311733Y-65062829D01*
X164316229Y-65116593D01*
X164320335Y-65164866D01*
X164325763Y-65196557D01*
X164333539Y-65208383D01*
X164345257Y-65205212D01*
X164375118Y-65194067D01*
X164428484Y-65191304D01*
X164485893Y-65201625D01*
X164535425Y-65223861D01*
X164562676Y-65244443D01*
X164597665Y-65284600D01*
X164620074Y-65336086D01*
X164631990Y-65404568D01*
X164635342Y-65491647D01*
X164635498Y-65495714D01*
X164634337Y-65552313D01*
X163624967Y-65204663D02*
X163622752Y-65242850D01*
X163622752Y-65242850D02*
X163621016Y-65300886D01*
X163621016Y-65300886D02*
X163619901Y-65374180D01*
X163619901Y-65374180D02*
X163619543Y-65451055D01*
X163619543Y-65451055D02*
X163619543Y-65711196D01*
X163619543Y-65711196D02*
X163665474Y-65757127D01*
X163665474Y-65757127D02*
X163697125Y-65785429D01*
X163697125Y-65785429D02*
X163724910Y-65796893D01*
X163724910Y-65796893D02*
X163762885Y-65796168D01*
X163762885Y-65796168D02*
X163777960Y-65794321D01*
X163777960Y-65794321D02*
X163825074Y-65788948D01*
X163825074Y-65788948D02*
X163864044Y-65785869D01*
X163864044Y-65785869D02*
X163873543Y-65785585D01*
X163873543Y-65785585D02*
X163905567Y-65787445D01*
X163905567Y-65787445D02*
X163951368Y-65792114D01*
X163951368Y-65792114D02*
X163969126Y-65794321D01*
X163969126Y-65794321D02*
X164012743Y-65797735D01*
X164012743Y-65797735D02*
X164042055Y-65790320D01*
X164042055Y-65790320D02*
X164071120Y-65767427D01*
X164071120Y-65767427D02*
X164081612Y-65757127D01*
X164081612Y-65757127D02*
X164127543Y-65711196D01*
X164127543Y-65711196D02*
X164127543Y-65224602D01*
X164127543Y-65224602D02*
X164090574Y-65207758D01*
X164090574Y-65207758D02*
X164058741Y-65195282D01*
X164058741Y-65195282D02*
X164040117Y-65190914D01*
X164040117Y-65190914D02*
X164035342Y-65204718D01*
X164035342Y-65204718D02*
X164030879Y-65243286D01*
X164030879Y-65243286D02*
X164027025Y-65302356D01*
X164027025Y-65302356D02*
X164024078Y-65377663D01*
X164024078Y-65377663D02*
X164022657Y-65441286D01*
X164022657Y-65441286D02*
X164018686Y-65691657D01*
X164018686Y-65691657D02*
X163984041Y-65696556D01*
X163984041Y-65696556D02*
X163952532Y-65693131D01*
X163952532Y-65693131D02*
X163937092Y-65682041D01*
X163937092Y-65682041D02*
X163932777Y-65661308D01*
X163932777Y-65661308D02*
X163929092Y-65617145D01*
X163929092Y-65617145D02*
X163926331Y-65555146D01*
X163926331Y-65555146D02*
X163924788Y-65480909D01*
X163924788Y-65480909D02*
X163924565Y-65442706D01*
X163924565Y-65442706D02*
X163924343Y-65222783D01*
X163924343Y-65222783D02*
X163878634Y-65206849D01*
X163878634Y-65206849D02*
X163846282Y-65196015D01*
X163846282Y-65196015D02*
X163828685Y-65190962D01*
X163828685Y-65190962D02*
X163828177Y-65190914D01*
X163828177Y-65190914D02*
X163826412Y-65204648D01*
X163826412Y-65204648D02*
X163824471Y-65242730D01*
X163824471Y-65242730D02*
X163822518Y-65300482D01*
X163822518Y-65300482D02*
X163820716Y-65373227D01*
X163820716Y-65373227D02*
X163819457Y-65441286D01*
X163819457Y-65441286D02*
X163815486Y-65691657D01*
X163815486Y-65691657D02*
X163728400Y-65691657D01*
X163728400Y-65691657D02*
X163724404Y-65463240D01*
X163724404Y-65463240D02*
X163720408Y-65234822D01*
X163720408Y-65234822D02*
X163677953Y-65212868D01*
X163677953Y-65212868D02*
X163646608Y-65197793D01*
X163646608Y-65197793D02*
X163628056Y-65190951D01*
X163628056Y-65190951D02*
X163627521Y-65190914D01*
X163627521Y-65190914D02*
X163624967Y-65204663D01*
X163624967Y-65204663D02*
X163624967Y-65204663D01*
G36*
X164058741Y-65195282D02*
G01*
X164090574Y-65207758D01*
X164127543Y-65224602D01*
X164127543Y-65711196D01*
X164081612Y-65757127D01*
X164071120Y-65767427D01*
X164042055Y-65790320D01*
X164012743Y-65797735D01*
X163969126Y-65794321D01*
X163951368Y-65792114D01*
X163905567Y-65787445D01*
X163873543Y-65785585D01*
X163864044Y-65785869D01*
X163825074Y-65788948D01*
X163777960Y-65794321D01*
X163762885Y-65796168D01*
X163724910Y-65796893D01*
X163697125Y-65785429D01*
X163665474Y-65757127D01*
X163619543Y-65711196D01*
X163619543Y-65451055D01*
X163619901Y-65374180D01*
X163621016Y-65300886D01*
X163622752Y-65242850D01*
X163624967Y-65204663D01*
X163627521Y-65190914D01*
X163628056Y-65190951D01*
X163646608Y-65197793D01*
X163677953Y-65212868D01*
X163720408Y-65234822D01*
X163724404Y-65463240D01*
X163728400Y-65691657D01*
X163815486Y-65691657D01*
X163819457Y-65441286D01*
X163820716Y-65373227D01*
X163822518Y-65300482D01*
X163824471Y-65242730D01*
X163826412Y-65204648D01*
X163828177Y-65190914D01*
X163828685Y-65190962D01*
X163846282Y-65196015D01*
X163878634Y-65206849D01*
X163924343Y-65222783D01*
X163924565Y-65442706D01*
X163924788Y-65480909D01*
X163926331Y-65555146D01*
X163929092Y-65617145D01*
X163932777Y-65661308D01*
X163937092Y-65682041D01*
X163952532Y-65693131D01*
X163984041Y-65696556D01*
X164018686Y-65691657D01*
X164022657Y-65441286D01*
X164024078Y-65377663D01*
X164027025Y-65302356D01*
X164030879Y-65243286D01*
X164035342Y-65204718D01*
X164040117Y-65190914D01*
X164058741Y-65195282D01*
G37*
X164058741Y-65195282D02*
X164090574Y-65207758D01*
X164127543Y-65224602D01*
X164127543Y-65711196D01*
X164081612Y-65757127D01*
X164071120Y-65767427D01*
X164042055Y-65790320D01*
X164012743Y-65797735D01*
X163969126Y-65794321D01*
X163951368Y-65792114D01*
X163905567Y-65787445D01*
X163873543Y-65785585D01*
X163864044Y-65785869D01*
X163825074Y-65788948D01*
X163777960Y-65794321D01*
X163762885Y-65796168D01*
X163724910Y-65796893D01*
X163697125Y-65785429D01*
X163665474Y-65757127D01*
X163619543Y-65711196D01*
X163619543Y-65451055D01*
X163619901Y-65374180D01*
X163621016Y-65300886D01*
X163622752Y-65242850D01*
X163624967Y-65204663D01*
X163627521Y-65190914D01*
X163628056Y-65190951D01*
X163646608Y-65197793D01*
X163677953Y-65212868D01*
X163720408Y-65234822D01*
X163724404Y-65463240D01*
X163728400Y-65691657D01*
X163815486Y-65691657D01*
X163819457Y-65441286D01*
X163820716Y-65373227D01*
X163822518Y-65300482D01*
X163824471Y-65242730D01*
X163826412Y-65204648D01*
X163828177Y-65190914D01*
X163828685Y-65190962D01*
X163846282Y-65196015D01*
X163878634Y-65206849D01*
X163924343Y-65222783D01*
X163924565Y-65442706D01*
X163924788Y-65480909D01*
X163926331Y-65555146D01*
X163929092Y-65617145D01*
X163932777Y-65661308D01*
X163937092Y-65682041D01*
X163952532Y-65693131D01*
X163984041Y-65696556D01*
X164018686Y-65691657D01*
X164022657Y-65441286D01*
X164024078Y-65377663D01*
X164027025Y-65302356D01*
X164030879Y-65243286D01*
X164035342Y-65204718D01*
X164040117Y-65190914D01*
X164058741Y-65195282D01*
X163259924Y-65202335D02*
X163218133Y-65221344D01*
X163218133Y-65221344D02*
X163185331Y-65244378D01*
X163185331Y-65244378D02*
X163161297Y-65270133D01*
X163161297Y-65270133D02*
X163144703Y-65303358D01*
X163144703Y-65303358D02*
X163134223Y-65348800D01*
X163134223Y-65348800D02*
X163128529Y-65411207D01*
X163128529Y-65411207D02*
X163126293Y-65495327D01*
X163126293Y-65495327D02*
X163126057Y-65550721D01*
X163126057Y-65550721D02*
X163126057Y-65766826D01*
X163126057Y-65766826D02*
X163163026Y-65783670D01*
X163163026Y-65783670D02*
X163192144Y-65795981D01*
X163192144Y-65795981D02*
X163206569Y-65800514D01*
X163206569Y-65800514D02*
X163209328Y-65787025D01*
X163209328Y-65787025D02*
X163211518Y-65750653D01*
X163211518Y-65750653D02*
X163212858Y-65697542D01*
X163212858Y-65697542D02*
X163213143Y-65655372D01*
X163213143Y-65655372D02*
X163214366Y-65594447D01*
X163214366Y-65594447D02*
X163217664Y-65546115D01*
X163217664Y-65546115D02*
X163222479Y-65516518D01*
X163222479Y-65516518D02*
X163226304Y-65510229D01*
X163226304Y-65510229D02*
X163252017Y-65516652D01*
X163252017Y-65516652D02*
X163292382Y-65533125D01*
X163292382Y-65533125D02*
X163339121Y-65555458D01*
X163339121Y-65555458D02*
X163383955Y-65579457D01*
X163383955Y-65579457D02*
X163418607Y-65600930D01*
X163418607Y-65600930D02*
X163434798Y-65615685D01*
X163434798Y-65615685D02*
X163434862Y-65615845D01*
X163434862Y-65615845D02*
X163433470Y-65643152D01*
X163433470Y-65643152D02*
X163420982Y-65669219D01*
X163420982Y-65669219D02*
X163399057Y-65690392D01*
X163399057Y-65690392D02*
X163367057Y-65697474D01*
X163367057Y-65697474D02*
X163339708Y-65696649D01*
X163339708Y-65696649D02*
X163300974Y-65696042D01*
X163300974Y-65696042D02*
X163280642Y-65705116D01*
X163280642Y-65705116D02*
X163268431Y-65729092D01*
X163268431Y-65729092D02*
X163266891Y-65733613D01*
X163266891Y-65733613D02*
X163261597Y-65767806D01*
X163261597Y-65767806D02*
X163275753Y-65788568D01*
X163275753Y-65788568D02*
X163312652Y-65798462D01*
X163312652Y-65798462D02*
X163352511Y-65800292D01*
X163352511Y-65800292D02*
X163424238Y-65786727D01*
X163424238Y-65786727D02*
X163461368Y-65767355D01*
X163461368Y-65767355D02*
X163507224Y-65721845D01*
X163507224Y-65721845D02*
X163531544Y-65665983D01*
X163531544Y-65665983D02*
X163533727Y-65606957D01*
X163533727Y-65606957D02*
X163513171Y-65551953D01*
X163513171Y-65551953D02*
X163482251Y-65517486D01*
X163482251Y-65517486D02*
X163451380Y-65498189D01*
X163451380Y-65498189D02*
X163402858Y-65473759D01*
X163402858Y-65473759D02*
X163346315Y-65448985D01*
X163346315Y-65448985D02*
X163336890Y-65445199D01*
X163336890Y-65445199D02*
X163274781Y-65417791D01*
X163274781Y-65417791D02*
X163238978Y-65393634D01*
X163238978Y-65393634D02*
X163227463Y-65369619D01*
X163227463Y-65369619D02*
X163238220Y-65342635D01*
X163238220Y-65342635D02*
X163256686Y-65321543D01*
X163256686Y-65321543D02*
X163300331Y-65295572D01*
X163300331Y-65295572D02*
X163348354Y-65293624D01*
X163348354Y-65293624D02*
X163392394Y-65313637D01*
X163392394Y-65313637D02*
X163424091Y-65353551D01*
X163424091Y-65353551D02*
X163428251Y-65363848D01*
X163428251Y-65363848D02*
X163452473Y-65401724D01*
X163452473Y-65401724D02*
X163487835Y-65429842D01*
X163487835Y-65429842D02*
X163532457Y-65452917D01*
X163532457Y-65452917D02*
X163532457Y-65387485D01*
X163532457Y-65387485D02*
X163529831Y-65347506D01*
X163529831Y-65347506D02*
X163518570Y-65315997D01*
X163518570Y-65315997D02*
X163493601Y-65282378D01*
X163493601Y-65282378D02*
X163469631Y-65256484D01*
X163469631Y-65256484D02*
X163432359Y-65219817D01*
X163432359Y-65219817D02*
X163403399Y-65200121D01*
X163403399Y-65200121D02*
X163372295Y-65192220D01*
X163372295Y-65192220D02*
X163337087Y-65190914D01*
X163337087Y-65190914D02*
X163259924Y-65202335D01*
X163259924Y-65202335D02*
X163259924Y-65202335D01*
G36*
X163372295Y-65192220D02*
G01*
X163403399Y-65200121D01*
X163432359Y-65219817D01*
X163469631Y-65256484D01*
X163493601Y-65282378D01*
X163518570Y-65315997D01*
X163529831Y-65347506D01*
X163532457Y-65387485D01*
X163532457Y-65452917D01*
X163487835Y-65429842D01*
X163452473Y-65401724D01*
X163428251Y-65363848D01*
X163424091Y-65353551D01*
X163392394Y-65313637D01*
X163348354Y-65293624D01*
X163300331Y-65295572D01*
X163256686Y-65321543D01*
X163238220Y-65342635D01*
X163227463Y-65369619D01*
X163238978Y-65393634D01*
X163274781Y-65417791D01*
X163336890Y-65445199D01*
X163346315Y-65448985D01*
X163402858Y-65473759D01*
X163451380Y-65498189D01*
X163482251Y-65517486D01*
X163513171Y-65551953D01*
X163533727Y-65606957D01*
X163531544Y-65665983D01*
X163507224Y-65721845D01*
X163461368Y-65767355D01*
X163424238Y-65786727D01*
X163352511Y-65800292D01*
X163312652Y-65798462D01*
X163275753Y-65788568D01*
X163261597Y-65767806D01*
X163266891Y-65733613D01*
X163268431Y-65729092D01*
X163280642Y-65705116D01*
X163300974Y-65696042D01*
X163339708Y-65696649D01*
X163367057Y-65697474D01*
X163399057Y-65690392D01*
X163420982Y-65669219D01*
X163433470Y-65643152D01*
X163434862Y-65615845D01*
X163434798Y-65615685D01*
X163418607Y-65600930D01*
X163383955Y-65579457D01*
X163339121Y-65555458D01*
X163292382Y-65533125D01*
X163252017Y-65516652D01*
X163226304Y-65510229D01*
X163222479Y-65516518D01*
X163217664Y-65546115D01*
X163214366Y-65594447D01*
X163213143Y-65655372D01*
X163212858Y-65697542D01*
X163211518Y-65750653D01*
X163209328Y-65787025D01*
X163206569Y-65800514D01*
X163192144Y-65795981D01*
X163163026Y-65783670D01*
X163126057Y-65766826D01*
X163126057Y-65550721D01*
X163126293Y-65495327D01*
X163128529Y-65411207D01*
X163134223Y-65348800D01*
X163144703Y-65303358D01*
X163161297Y-65270133D01*
X163185331Y-65244378D01*
X163218133Y-65221344D01*
X163259924Y-65202335D01*
X163337087Y-65190914D01*
X163372295Y-65192220D01*
G37*
X163372295Y-65192220D02*
X163403399Y-65200121D01*
X163432359Y-65219817D01*
X163469631Y-65256484D01*
X163493601Y-65282378D01*
X163518570Y-65315997D01*
X163529831Y-65347506D01*
X163532457Y-65387485D01*
X163532457Y-65452917D01*
X163487835Y-65429842D01*
X163452473Y-65401724D01*
X163428251Y-65363848D01*
X163424091Y-65353551D01*
X163392394Y-65313637D01*
X163348354Y-65293624D01*
X163300331Y-65295572D01*
X163256686Y-65321543D01*
X163238220Y-65342635D01*
X163227463Y-65369619D01*
X163238978Y-65393634D01*
X163274781Y-65417791D01*
X163336890Y-65445199D01*
X163346315Y-65448985D01*
X163402858Y-65473759D01*
X163451380Y-65498189D01*
X163482251Y-65517486D01*
X163513171Y-65551953D01*
X163533727Y-65606957D01*
X163531544Y-65665983D01*
X163507224Y-65721845D01*
X163461368Y-65767355D01*
X163424238Y-65786727D01*
X163352511Y-65800292D01*
X163312652Y-65798462D01*
X163275753Y-65788568D01*
X163261597Y-65767806D01*
X163266891Y-65733613D01*
X163268431Y-65729092D01*
X163280642Y-65705116D01*
X163300974Y-65696042D01*
X163339708Y-65696649D01*
X163367057Y-65697474D01*
X163399057Y-65690392D01*
X163420982Y-65669219D01*
X163433470Y-65643152D01*
X163434862Y-65615845D01*
X163434798Y-65615685D01*
X163418607Y-65600930D01*
X163383955Y-65579457D01*
X163339121Y-65555458D01*
X163292382Y-65533125D01*
X163252017Y-65516652D01*
X163226304Y-65510229D01*
X163222479Y-65516518D01*
X163217664Y-65546115D01*
X163214366Y-65594447D01*
X163213143Y-65655372D01*
X163212858Y-65697542D01*
X163211518Y-65750653D01*
X163209328Y-65787025D01*
X163206569Y-65800514D01*
X163192144Y-65795981D01*
X163163026Y-65783670D01*
X163126057Y-65766826D01*
X163126057Y-65550721D01*
X163126293Y-65495327D01*
X163128529Y-65411207D01*
X163134223Y-65348800D01*
X163144703Y-65303358D01*
X163161297Y-65270133D01*
X163185331Y-65244378D01*
X163218133Y-65221344D01*
X163259924Y-65202335D01*
X163337087Y-65190914D01*
X163372295Y-65192220D01*
X167805056Y-65165918D02*
X167749599Y-65193568D01*
X167749599Y-65193568D02*
X167700652Y-65244480D01*
X167700652Y-65244480D02*
X167687171Y-65263338D01*
X167687171Y-65263338D02*
X167672486Y-65288015D01*
X167672486Y-65288015D02*
X167662958Y-65314816D01*
X167662958Y-65314816D02*
X167657507Y-65350587D01*
X167657507Y-65350587D02*
X167655053Y-65402169D01*
X167655053Y-65402169D02*
X167654514Y-65470267D01*
X167654514Y-65470267D02*
X167656948Y-65563588D01*
X167656948Y-65563588D02*
X167665406Y-65633657D01*
X167665406Y-65633657D02*
X167681626Y-65685931D01*
X167681626Y-65685931D02*
X167707346Y-65725869D01*
X167707346Y-65725869D02*
X167744303Y-65758929D01*
X167744303Y-65758929D02*
X167747018Y-65760886D01*
X167747018Y-65760886D02*
X167783440Y-65780908D01*
X167783440Y-65780908D02*
X167827298Y-65790815D01*
X167827298Y-65790815D02*
X167883076Y-65793257D01*
X167883076Y-65793257D02*
X167973752Y-65793257D01*
X167973752Y-65793257D02*
X167973790Y-65881283D01*
X167973790Y-65881283D02*
X167974634Y-65930308D01*
X167974634Y-65930308D02*
X167979776Y-65959065D01*
X167979776Y-65959065D02*
X167993213Y-65976311D01*
X167993213Y-65976311D02*
X168018942Y-65990808D01*
X168018942Y-65990808D02*
X168025121Y-65993769D01*
X168025121Y-65993769D02*
X168054036Y-66007648D01*
X168054036Y-66007648D02*
X168076424Y-66016414D01*
X168076424Y-66016414D02*
X168093071Y-66017171D01*
X168093071Y-66017171D02*
X168104764Y-66007023D01*
X168104764Y-66007023D02*
X168112290Y-65983073D01*
X168112290Y-65983073D02*
X168116434Y-65942426D01*
X168116434Y-65942426D02*
X168117985Y-65882186D01*
X168117985Y-65882186D02*
X168117729Y-65799455D01*
X168117729Y-65799455D02*
X168116451Y-65691339D01*
X168116451Y-65691339D02*
X168116052Y-65659000D01*
X168116052Y-65659000D02*
X168114615Y-65547524D01*
X168114615Y-65547524D02*
X168113328Y-65474603D01*
X168113328Y-65474603D02*
X167973829Y-65474603D01*
X167973829Y-65474603D02*
X167973045Y-65536499D01*
X167973045Y-65536499D02*
X167969560Y-65576997D01*
X167969560Y-65576997D02*
X167961676Y-65603708D01*
X167961676Y-65603708D02*
X167947695Y-65624244D01*
X167947695Y-65624244D02*
X167938203Y-65634260D01*
X167938203Y-65634260D02*
X167899396Y-65663567D01*
X167899396Y-65663567D02*
X167865037Y-65665952D01*
X167865037Y-65665952D02*
X167829584Y-65641750D01*
X167829584Y-65641750D02*
X167828686Y-65640857D01*
X167828686Y-65640857D02*
X167814261Y-65622153D01*
X167814261Y-65622153D02*
X167805487Y-65596732D01*
X167805487Y-65596732D02*
X167801061Y-65557584D01*
X167801061Y-65557584D02*
X167799682Y-65497697D01*
X167799682Y-65497697D02*
X167799657Y-65484430D01*
X167799657Y-65484430D02*
X167802988Y-65401901D01*
X167802988Y-65401901D02*
X167813831Y-65344691D01*
X167813831Y-65344691D02*
X167833460Y-65309766D01*
X167833460Y-65309766D02*
X167863150Y-65294094D01*
X167863150Y-65294094D02*
X167880309Y-65292514D01*
X167880309Y-65292514D02*
X167921034Y-65299926D01*
X167921034Y-65299926D02*
X167948968Y-65324330D01*
X167948968Y-65324330D02*
X167965783Y-65368980D01*
X167965783Y-65368980D02*
X167973150Y-65437130D01*
X167973150Y-65437130D02*
X167973829Y-65474603D01*
X167973829Y-65474603D02*
X168113328Y-65474603D01*
X168113328Y-65474603D02*
X168113092Y-65461245D01*
X168113092Y-65461245D02*
X168111123Y-65396333D01*
X168111123Y-65396333D02*
X168108350Y-65348958D01*
X168108350Y-65348958D02*
X168104412Y-65315290D01*
X168104412Y-65315290D02*
X168098951Y-65291498D01*
X168098951Y-65291498D02*
X168091608Y-65273753D01*
X168091608Y-65273753D02*
X168082023Y-65258224D01*
X168082023Y-65258224D02*
X168077913Y-65252381D01*
X168077913Y-65252381D02*
X168023395Y-65197185D01*
X168023395Y-65197185D02*
X167954464Y-65165890D01*
X167954464Y-65165890D02*
X167874728Y-65157165D01*
X167874728Y-65157165D02*
X167805056Y-65165918D01*
X167805056Y-65165918D02*
X167805056Y-65165918D01*
G36*
X168116052Y-65659000D02*
G01*
X168116451Y-65691339D01*
X168117729Y-65799455D01*
X168117985Y-65882186D01*
X168116434Y-65942426D01*
X168112290Y-65983073D01*
X168104764Y-66007023D01*
X168093071Y-66017171D01*
X168076424Y-66016414D01*
X168054036Y-66007648D01*
X168025121Y-65993769D01*
X168018942Y-65990808D01*
X167993213Y-65976311D01*
X167979776Y-65959065D01*
X167974634Y-65930308D01*
X167973790Y-65881283D01*
X167973752Y-65793257D01*
X167883076Y-65793257D01*
X167827298Y-65790815D01*
X167783440Y-65780908D01*
X167747018Y-65760886D01*
X167744303Y-65758929D01*
X167707346Y-65725869D01*
X167681626Y-65685931D01*
X167665406Y-65633657D01*
X167656948Y-65563588D01*
X167654883Y-65484430D01*
X167799657Y-65484430D01*
X167799682Y-65497697D01*
X167801061Y-65557584D01*
X167805487Y-65596732D01*
X167814261Y-65622153D01*
X167828686Y-65640857D01*
X167829584Y-65641750D01*
X167865037Y-65665952D01*
X167899396Y-65663567D01*
X167938203Y-65634260D01*
X167947695Y-65624244D01*
X167961676Y-65603708D01*
X167969560Y-65576997D01*
X167973045Y-65536499D01*
X167973829Y-65474603D01*
X167973150Y-65437130D01*
X167965783Y-65368980D01*
X167948968Y-65324330D01*
X167921034Y-65299926D01*
X167880309Y-65292514D01*
X167863150Y-65294094D01*
X167833460Y-65309766D01*
X167813831Y-65344691D01*
X167802988Y-65401901D01*
X167799657Y-65484430D01*
X167654883Y-65484430D01*
X167654514Y-65470267D01*
X167655053Y-65402169D01*
X167657507Y-65350587D01*
X167662958Y-65314816D01*
X167672486Y-65288015D01*
X167687171Y-65263338D01*
X167700652Y-65244480D01*
X167749599Y-65193568D01*
X167805056Y-65165918D01*
X167874728Y-65157165D01*
X167954464Y-65165890D01*
X168023395Y-65197185D01*
X168077913Y-65252381D01*
X168082023Y-65258224D01*
X168091608Y-65273753D01*
X168098951Y-65291498D01*
X168104412Y-65315290D01*
X168108350Y-65348958D01*
X168111123Y-65396333D01*
X168113092Y-65461245D01*
X168113328Y-65474603D01*
X168114615Y-65547524D01*
X168116052Y-65659000D01*
G37*
X168116052Y-65659000D02*
X168116451Y-65691339D01*
X168117729Y-65799455D01*
X168117985Y-65882186D01*
X168116434Y-65942426D01*
X168112290Y-65983073D01*
X168104764Y-66007023D01*
X168093071Y-66017171D01*
X168076424Y-66016414D01*
X168054036Y-66007648D01*
X168025121Y-65993769D01*
X168018942Y-65990808D01*
X167993213Y-65976311D01*
X167979776Y-65959065D01*
X167974634Y-65930308D01*
X167973790Y-65881283D01*
X167973752Y-65793257D01*
X167883076Y-65793257D01*
X167827298Y-65790815D01*
X167783440Y-65780908D01*
X167747018Y-65760886D01*
X167744303Y-65758929D01*
X167707346Y-65725869D01*
X167681626Y-65685931D01*
X167665406Y-65633657D01*
X167656948Y-65563588D01*
X167654883Y-65484430D01*
X167799657Y-65484430D01*
X167799682Y-65497697D01*
X167801061Y-65557584D01*
X167805487Y-65596732D01*
X167814261Y-65622153D01*
X167828686Y-65640857D01*
X167829584Y-65641750D01*
X167865037Y-65665952D01*
X167899396Y-65663567D01*
X167938203Y-65634260D01*
X167947695Y-65624244D01*
X167961676Y-65603708D01*
X167969560Y-65576997D01*
X167973045Y-65536499D01*
X167973829Y-65474603D01*
X167973150Y-65437130D01*
X167965783Y-65368980D01*
X167948968Y-65324330D01*
X167921034Y-65299926D01*
X167880309Y-65292514D01*
X167863150Y-65294094D01*
X167833460Y-65309766D01*
X167813831Y-65344691D01*
X167802988Y-65401901D01*
X167799657Y-65484430D01*
X167654883Y-65484430D01*
X167654514Y-65470267D01*
X167655053Y-65402169D01*
X167657507Y-65350587D01*
X167662958Y-65314816D01*
X167672486Y-65288015D01*
X167687171Y-65263338D01*
X167700652Y-65244480D01*
X167749599Y-65193568D01*
X167805056Y-65165918D01*
X167874728Y-65157165D01*
X167954464Y-65165890D01*
X168023395Y-65197185D01*
X168077913Y-65252381D01*
X168082023Y-65258224D01*
X168091608Y-65273753D01*
X168098951Y-65291498D01*
X168104412Y-65315290D01*
X168108350Y-65348958D01*
X168111123Y-65396333D01*
X168113092Y-65461245D01*
X168113328Y-65474603D01*
X168114615Y-65547524D01*
X168116052Y-65659000D01*
X162752200Y-65204752D02*
X162734852Y-65212334D01*
X162734852Y-65212334D02*
X162693444Y-65245128D01*
X162693444Y-65245128D02*
X162658035Y-65292547D01*
X162658035Y-65292547D02*
X162636136Y-65343151D01*
X162636136Y-65343151D02*
X162632571Y-65368098D01*
X162632571Y-65368098D02*
X162644521Y-65402927D01*
X162644521Y-65402927D02*
X162670733Y-65421357D01*
X162670733Y-65421357D02*
X162698836Y-65432516D01*
X162698836Y-65432516D02*
X162711705Y-65434572D01*
X162711705Y-65434572D02*
X162717971Y-65419649D01*
X162717971Y-65419649D02*
X162730344Y-65387175D01*
X162730344Y-65387175D02*
X162735772Y-65372502D01*
X162735772Y-65372502D02*
X162766210Y-65321744D01*
X162766210Y-65321744D02*
X162810280Y-65296427D01*
X162810280Y-65296427D02*
X162866790Y-65297206D01*
X162866790Y-65297206D02*
X162870975Y-65298203D01*
X162870975Y-65298203D02*
X162901145Y-65312507D01*
X162901145Y-65312507D02*
X162923324Y-65340393D01*
X162923324Y-65340393D02*
X162938473Y-65385287D01*
X162938473Y-65385287D02*
X162947550Y-65450615D01*
X162947550Y-65450615D02*
X162951514Y-65539804D01*
X162951514Y-65539804D02*
X162951886Y-65587261D01*
X162951886Y-65587261D02*
X162952070Y-65662071D01*
X162952070Y-65662071D02*
X162953278Y-65713069D01*
X162953278Y-65713069D02*
X162956491Y-65745471D01*
X162956491Y-65745471D02*
X162962691Y-65764495D01*
X162962691Y-65764495D02*
X162972860Y-65775356D01*
X162972860Y-65775356D02*
X162987981Y-65783272D01*
X162987981Y-65783272D02*
X162988854Y-65783670D01*
X162988854Y-65783670D02*
X163017972Y-65795981D01*
X163017972Y-65795981D02*
X163032397Y-65800514D01*
X163032397Y-65800514D02*
X163034614Y-65786809D01*
X163034614Y-65786809D02*
X163036511Y-65748925D01*
X163036511Y-65748925D02*
X163037953Y-65691715D01*
X163037953Y-65691715D02*
X163038802Y-65620027D01*
X163038802Y-65620027D02*
X163038971Y-65567565D01*
X163038971Y-65567565D02*
X163038108Y-65466047D01*
X163038108Y-65466047D02*
X163034730Y-65389032D01*
X163034730Y-65389032D02*
X163027658Y-65332023D01*
X163027658Y-65332023D02*
X163015712Y-65290526D01*
X163015712Y-65290526D02*
X162997710Y-65260043D01*
X162997710Y-65260043D02*
X162972473Y-65236080D01*
X162972473Y-65236080D02*
X162947553Y-65219355D01*
X162947553Y-65219355D02*
X162887629Y-65197097D01*
X162887629Y-65197097D02*
X162817889Y-65192076D01*
X162817889Y-65192076D02*
X162752200Y-65204752D01*
X162752200Y-65204752D02*
X162752200Y-65204752D01*
G36*
X162887629Y-65197097D02*
G01*
X162947553Y-65219355D01*
X162972473Y-65236080D01*
X162997710Y-65260043D01*
X163015712Y-65290526D01*
X163027658Y-65332023D01*
X163034730Y-65389032D01*
X163038108Y-65466047D01*
X163038971Y-65567565D01*
X163038802Y-65620027D01*
X163037953Y-65691715D01*
X163036511Y-65748925D01*
X163034614Y-65786809D01*
X163032397Y-65800514D01*
X163017972Y-65795981D01*
X162988854Y-65783670D01*
X162987981Y-65783272D01*
X162972860Y-65775356D01*
X162962691Y-65764495D01*
X162956491Y-65745471D01*
X162953278Y-65713069D01*
X162952070Y-65662071D01*
X162951886Y-65587261D01*
X162951514Y-65539804D01*
X162947550Y-65450615D01*
X162938473Y-65385287D01*
X162923324Y-65340393D01*
X162901145Y-65312507D01*
X162870975Y-65298203D01*
X162866790Y-65297206D01*
X162810280Y-65296427D01*
X162766210Y-65321744D01*
X162735772Y-65372502D01*
X162730344Y-65387175D01*
X162717971Y-65419649D01*
X162711705Y-65434572D01*
X162698836Y-65432516D01*
X162670733Y-65421357D01*
X162644521Y-65402927D01*
X162632571Y-65368098D01*
X162636136Y-65343151D01*
X162658035Y-65292547D01*
X162693444Y-65245128D01*
X162734852Y-65212334D01*
X162752200Y-65204752D01*
X162817889Y-65192076D01*
X162887629Y-65197097D01*
G37*
X162887629Y-65197097D02*
X162947553Y-65219355D01*
X162972473Y-65236080D01*
X162997710Y-65260043D01*
X163015712Y-65290526D01*
X163027658Y-65332023D01*
X163034730Y-65389032D01*
X163038108Y-65466047D01*
X163038971Y-65567565D01*
X163038802Y-65620027D01*
X163037953Y-65691715D01*
X163036511Y-65748925D01*
X163034614Y-65786809D01*
X163032397Y-65800514D01*
X163017972Y-65795981D01*
X162988854Y-65783670D01*
X162987981Y-65783272D01*
X162972860Y-65775356D01*
X162962691Y-65764495D01*
X162956491Y-65745471D01*
X162953278Y-65713069D01*
X162952070Y-65662071D01*
X162951886Y-65587261D01*
X162951514Y-65539804D01*
X162947550Y-65450615D01*
X162938473Y-65385287D01*
X162923324Y-65340393D01*
X162901145Y-65312507D01*
X162870975Y-65298203D01*
X162866790Y-65297206D01*
X162810280Y-65296427D01*
X162766210Y-65321744D01*
X162735772Y-65372502D01*
X162730344Y-65387175D01*
X162717971Y-65419649D01*
X162711705Y-65434572D01*
X162698836Y-65432516D01*
X162670733Y-65421357D01*
X162644521Y-65402927D01*
X162632571Y-65368098D01*
X162636136Y-65343151D01*
X162658035Y-65292547D01*
X162693444Y-65245128D01*
X162734852Y-65212334D01*
X162752200Y-65204752D01*
X162817889Y-65192076D01*
X162887629Y-65197097D01*
X162251205Y-65212966D02*
X162193779Y-65250497D01*
X162193779Y-65250497D02*
X162166081Y-65284096D01*
X162166081Y-65284096D02*
X162144138Y-65345064D01*
X162144138Y-65345064D02*
X162142395Y-65393308D01*
X162142395Y-65393308D02*
X162146343Y-65457816D01*
X162146343Y-65457816D02*
X162295114Y-65522934D01*
X162295114Y-65522934D02*
X162367451Y-65556202D01*
X162367451Y-65556202D02*
X162414716Y-65582964D01*
X162414716Y-65582964D02*
X162439293Y-65606144D01*
X162439293Y-65606144D02*
X162443563Y-65628667D01*
X162443563Y-65628667D02*
X162429911Y-65653455D01*
X162429911Y-65653455D02*
X162414857Y-65669886D01*
X162414857Y-65669886D02*
X162371054Y-65696235D01*
X162371054Y-65696235D02*
X162323411Y-65698081D01*
X162323411Y-65698081D02*
X162279655Y-65677546D01*
X162279655Y-65677546D02*
X162247511Y-65636752D01*
X162247511Y-65636752D02*
X162241762Y-65622347D01*
X162241762Y-65622347D02*
X162214224Y-65577356D01*
X162214224Y-65577356D02*
X162182542Y-65558182D01*
X162182542Y-65558182D02*
X162139086Y-65541779D01*
X162139086Y-65541779D02*
X162139086Y-65603966D01*
X162139086Y-65603966D02*
X162142928Y-65646283D01*
X162142928Y-65646283D02*
X162157977Y-65681969D01*
X162157977Y-65681969D02*
X162189520Y-65722943D01*
X162189520Y-65722943D02*
X162194208Y-65728267D01*
X162194208Y-65728267D02*
X162229294Y-65764720D01*
X162229294Y-65764720D02*
X162259453Y-65784283D01*
X162259453Y-65784283D02*
X162297185Y-65793283D01*
X162297185Y-65793283D02*
X162328465Y-65796230D01*
X162328465Y-65796230D02*
X162384415Y-65796965D01*
X162384415Y-65796965D02*
X162424245Y-65787660D01*
X162424245Y-65787660D02*
X162449092Y-65773846D01*
X162449092Y-65773846D02*
X162488144Y-65743467D01*
X162488144Y-65743467D02*
X162515175Y-65710613D01*
X162515175Y-65710613D02*
X162532283Y-65669294D01*
X162532283Y-65669294D02*
X162541562Y-65613521D01*
X162541562Y-65613521D02*
X162545107Y-65537305D01*
X162545107Y-65537305D02*
X162545390Y-65498622D01*
X162545390Y-65498622D02*
X162544428Y-65452247D01*
X162544428Y-65452247D02*
X162456793Y-65452247D01*
X162456793Y-65452247D02*
X162455777Y-65477126D01*
X162455777Y-65477126D02*
X162453244Y-65481200D01*
X162453244Y-65481200D02*
X162436526Y-65475665D01*
X162436526Y-65475665D02*
X162400551Y-65461017D01*
X162400551Y-65461017D02*
X162352469Y-65440190D01*
X162352469Y-65440190D02*
X162342414Y-65435714D01*
X162342414Y-65435714D02*
X162281648Y-65404814D01*
X162281648Y-65404814D02*
X162248168Y-65377657D01*
X162248168Y-65377657D02*
X162240810Y-65352220D01*
X162240810Y-65352220D02*
X162258409Y-65326481D01*
X162258409Y-65326481D02*
X162272944Y-65315109D01*
X162272944Y-65315109D02*
X162325390Y-65292364D01*
X162325390Y-65292364D02*
X162374478Y-65296122D01*
X162374478Y-65296122D02*
X162415573Y-65323884D01*
X162415573Y-65323884D02*
X162444042Y-65373152D01*
X162444042Y-65373152D02*
X162453169Y-65412257D01*
X162453169Y-65412257D02*
X162456793Y-65452247D01*
X162456793Y-65452247D02*
X162544428Y-65452247D01*
X162544428Y-65452247D02*
X162543515Y-65408249D01*
X162543515Y-65408249D02*
X162536604Y-65341384D01*
X162536604Y-65341384D02*
X162522916Y-65292695D01*
X162522916Y-65292695D02*
X162500704Y-65256849D01*
X162500704Y-65256849D02*
X162468226Y-65228513D01*
X162468226Y-65228513D02*
X162454067Y-65219355D01*
X162454067Y-65219355D02*
X162389747Y-65195507D01*
X162389747Y-65195507D02*
X162319327Y-65194006D01*
X162319327Y-65194006D02*
X162251205Y-65212966D01*
X162251205Y-65212966D02*
X162251205Y-65212966D01*
G36*
X162545107Y-65537305D02*
G01*
X162541562Y-65613521D01*
X162532283Y-65669294D01*
X162515175Y-65710613D01*
X162488144Y-65743467D01*
X162449092Y-65773846D01*
X162424245Y-65787660D01*
X162384415Y-65796965D01*
X162328465Y-65796230D01*
X162297185Y-65793283D01*
X162259453Y-65784283D01*
X162229294Y-65764720D01*
X162194208Y-65728267D01*
X162189520Y-65722943D01*
X162157977Y-65681969D01*
X162142928Y-65646283D01*
X162139086Y-65603966D01*
X162139086Y-65541779D01*
X162182542Y-65558182D01*
X162214224Y-65577356D01*
X162241762Y-65622347D01*
X162247511Y-65636752D01*
X162279655Y-65677546D01*
X162323411Y-65698081D01*
X162371054Y-65696235D01*
X162414857Y-65669886D01*
X162429911Y-65653455D01*
X162443563Y-65628667D01*
X162439293Y-65606144D01*
X162414716Y-65582964D01*
X162367451Y-65556202D01*
X162295114Y-65522934D01*
X162146343Y-65457816D01*
X162142395Y-65393308D01*
X162143879Y-65352220D01*
X162240810Y-65352220D01*
X162248168Y-65377657D01*
X162281648Y-65404814D01*
X162342414Y-65435714D01*
X162352469Y-65440190D01*
X162400551Y-65461017D01*
X162436526Y-65475665D01*
X162453244Y-65481200D01*
X162455777Y-65477126D01*
X162456793Y-65452247D01*
X162453169Y-65412257D01*
X162444042Y-65373152D01*
X162415573Y-65323884D01*
X162374478Y-65296122D01*
X162325390Y-65292364D01*
X162272944Y-65315109D01*
X162258409Y-65326481D01*
X162240810Y-65352220D01*
X162143879Y-65352220D01*
X162144138Y-65345064D01*
X162166081Y-65284096D01*
X162193779Y-65250497D01*
X162251205Y-65212966D01*
X162319327Y-65194006D01*
X162389747Y-65195507D01*
X162454067Y-65219355D01*
X162468226Y-65228513D01*
X162500704Y-65256849D01*
X162522916Y-65292695D01*
X162536604Y-65341384D01*
X162543515Y-65408249D01*
X162544428Y-65452247D01*
X162545390Y-65498622D01*
X162545107Y-65537305D01*
G37*
X162545107Y-65537305D02*
X162541562Y-65613521D01*
X162532283Y-65669294D01*
X162515175Y-65710613D01*
X162488144Y-65743467D01*
X162449092Y-65773846D01*
X162424245Y-65787660D01*
X162384415Y-65796965D01*
X162328465Y-65796230D01*
X162297185Y-65793283D01*
X162259453Y-65784283D01*
X162229294Y-65764720D01*
X162194208Y-65728267D01*
X162189520Y-65722943D01*
X162157977Y-65681969D01*
X162142928Y-65646283D01*
X162139086Y-65603966D01*
X162139086Y-65541779D01*
X162182542Y-65558182D01*
X162214224Y-65577356D01*
X162241762Y-65622347D01*
X162247511Y-65636752D01*
X162279655Y-65677546D01*
X162323411Y-65698081D01*
X162371054Y-65696235D01*
X162414857Y-65669886D01*
X162429911Y-65653455D01*
X162443563Y-65628667D01*
X162439293Y-65606144D01*
X162414716Y-65582964D01*
X162367451Y-65556202D01*
X162295114Y-65522934D01*
X162146343Y-65457816D01*
X162142395Y-65393308D01*
X162143879Y-65352220D01*
X162240810Y-65352220D01*
X162248168Y-65377657D01*
X162281648Y-65404814D01*
X162342414Y-65435714D01*
X162352469Y-65440190D01*
X162400551Y-65461017D01*
X162436526Y-65475665D01*
X162453244Y-65481200D01*
X162455777Y-65477126D01*
X162456793Y-65452247D01*
X162453169Y-65412257D01*
X162444042Y-65373152D01*
X162415573Y-65323884D01*
X162374478Y-65296122D01*
X162325390Y-65292364D01*
X162272944Y-65315109D01*
X162258409Y-65326481D01*
X162240810Y-65352220D01*
X162143879Y-65352220D01*
X162144138Y-65345064D01*
X162166081Y-65284096D01*
X162193779Y-65250497D01*
X162251205Y-65212966D01*
X162319327Y-65194006D01*
X162389747Y-65195507D01*
X162454067Y-65219355D01*
X162468226Y-65228513D01*
X162500704Y-65256849D01*
X162522916Y-65292695D01*
X162536604Y-65341384D01*
X162543515Y-65408249D01*
X162544428Y-65452247D01*
X162545390Y-65498622D01*
X162545107Y-65537305D01*
X166688707Y-65173780D02*
X166642128Y-65200723D01*
X166642128Y-65200723D02*
X166609743Y-65227466D01*
X166609743Y-65227466D02*
X166586058Y-65255484D01*
X166586058Y-65255484D02*
X166569741Y-65289748D01*
X166569741Y-65289748D02*
X166559461Y-65335227D01*
X166559461Y-65335227D02*
X166553886Y-65396892D01*
X166553886Y-65396892D02*
X166551684Y-65479711D01*
X166551684Y-65479711D02*
X166551429Y-65539246D01*
X166551429Y-65539246D02*
X166551429Y-65758391D01*
X166551429Y-65758391D02*
X166613114Y-65786044D01*
X166613114Y-65786044D02*
X166674800Y-65813697D01*
X166674800Y-65813697D02*
X166682057Y-65573670D01*
X166682057Y-65573670D02*
X166685056Y-65484028D01*
X166685056Y-65484028D02*
X166688202Y-65418962D01*
X166688202Y-65418962D02*
X166692099Y-65374026D01*
X166692099Y-65374026D02*
X166697353Y-65344770D01*
X166697353Y-65344770D02*
X166704569Y-65326748D01*
X166704569Y-65326748D02*
X166714350Y-65315511D01*
X166714350Y-65315511D02*
X166717488Y-65313079D01*
X166717488Y-65313079D02*
X166765039Y-65294083D01*
X166765039Y-65294083D02*
X166813103Y-65301600D01*
X166813103Y-65301600D02*
X166841714Y-65321543D01*
X166841714Y-65321543D02*
X166853353Y-65335675D01*
X166853353Y-65335675D02*
X166861409Y-65354220D01*
X166861409Y-65354220D02*
X166866529Y-65382334D01*
X166866529Y-65382334D02*
X166869359Y-65425173D01*
X166869359Y-65425173D02*
X166870544Y-65487895D01*
X166870544Y-65487895D02*
X166870743Y-65553261D01*
X166870743Y-65553261D02*
X166870782Y-65635268D01*
X166870782Y-65635268D02*
X166872186Y-65693316D01*
X166872186Y-65693316D02*
X166876886Y-65732465D01*
X166876886Y-65732465D02*
X166886813Y-65757780D01*
X166886813Y-65757780D02*
X166903897Y-65774323D01*
X166903897Y-65774323D02*
X166930068Y-65787156D01*
X166930068Y-65787156D02*
X166965025Y-65800491D01*
X166965025Y-65800491D02*
X167003204Y-65815007D01*
X167003204Y-65815007D02*
X166998659Y-65557389D01*
X166998659Y-65557389D02*
X166996829Y-65464519D01*
X166996829Y-65464519D02*
X166994688Y-65395889D01*
X166994688Y-65395889D02*
X166991619Y-65346711D01*
X166991619Y-65346711D02*
X166987006Y-65312198D01*
X166987006Y-65312198D02*
X166980232Y-65287562D01*
X166980232Y-65287562D02*
X166970681Y-65268016D01*
X166970681Y-65268016D02*
X166959166Y-65250770D01*
X166959166Y-65250770D02*
X166903610Y-65195680D01*
X166903610Y-65195680D02*
X166835820Y-65163822D01*
X166835820Y-65163822D02*
X166762087Y-65156191D01*
X166762087Y-65156191D02*
X166688707Y-65173780D01*
X166688707Y-65173780D02*
X166688707Y-65173780D01*
G36*
X166835820Y-65163822D02*
G01*
X166903610Y-65195680D01*
X166959166Y-65250770D01*
X166970681Y-65268016D01*
X166980232Y-65287562D01*
X166987006Y-65312198D01*
X166991619Y-65346711D01*
X166994688Y-65395889D01*
X166996829Y-65464519D01*
X166998659Y-65557389D01*
X167003204Y-65815007D01*
X166965025Y-65800491D01*
X166930068Y-65787156D01*
X166903897Y-65774323D01*
X166886813Y-65757780D01*
X166876886Y-65732465D01*
X166872186Y-65693316D01*
X166870782Y-65635268D01*
X166870743Y-65553261D01*
X166870544Y-65487895D01*
X166869359Y-65425173D01*
X166866529Y-65382334D01*
X166861409Y-65354220D01*
X166853353Y-65335675D01*
X166841714Y-65321543D01*
X166813103Y-65301600D01*
X166765039Y-65294083D01*
X166717488Y-65313079D01*
X166714350Y-65315511D01*
X166704569Y-65326748D01*
X166697353Y-65344770D01*
X166692099Y-65374026D01*
X166688202Y-65418962D01*
X166685056Y-65484028D01*
X166682057Y-65573670D01*
X166674800Y-65813697D01*
X166613114Y-65786044D01*
X166551429Y-65758391D01*
X166551429Y-65539246D01*
X166551684Y-65479711D01*
X166553886Y-65396892D01*
X166559461Y-65335227D01*
X166569741Y-65289748D01*
X166586058Y-65255484D01*
X166609743Y-65227466D01*
X166642128Y-65200723D01*
X166688707Y-65173780D01*
X166762087Y-65156191D01*
X166835820Y-65163822D01*
G37*
X166835820Y-65163822D02*
X166903610Y-65195680D01*
X166959166Y-65250770D01*
X166970681Y-65268016D01*
X166980232Y-65287562D01*
X166987006Y-65312198D01*
X166991619Y-65346711D01*
X166994688Y-65395889D01*
X166996829Y-65464519D01*
X166998659Y-65557389D01*
X167003204Y-65815007D01*
X166965025Y-65800491D01*
X166930068Y-65787156D01*
X166903897Y-65774323D01*
X166886813Y-65757780D01*
X166876886Y-65732465D01*
X166872186Y-65693316D01*
X166870782Y-65635268D01*
X166870743Y-65553261D01*
X166870544Y-65487895D01*
X166869359Y-65425173D01*
X166866529Y-65382334D01*
X166861409Y-65354220D01*
X166853353Y-65335675D01*
X166841714Y-65321543D01*
X166813103Y-65301600D01*
X166765039Y-65294083D01*
X166717488Y-65313079D01*
X166714350Y-65315511D01*
X166704569Y-65326748D01*
X166697353Y-65344770D01*
X166692099Y-65374026D01*
X166688202Y-65418962D01*
X166685056Y-65484028D01*
X166682057Y-65573670D01*
X166674800Y-65813697D01*
X166613114Y-65786044D01*
X166551429Y-65758391D01*
X166551429Y-65539246D01*
X166551684Y-65479711D01*
X166553886Y-65396892D01*
X166559461Y-65335227D01*
X166569741Y-65289748D01*
X166586058Y-65255484D01*
X166609743Y-65227466D01*
X166642128Y-65200723D01*
X166688707Y-65173780D01*
X166762087Y-65156191D01*
X166835820Y-65163822D01*
X167236497Y-65177239D02*
X167179273Y-65215735D01*
X167179273Y-65215735D02*
X167135051Y-65271335D01*
X167135051Y-65271335D02*
X167108633Y-65342086D01*
X167108633Y-65342086D02*
X167103290Y-65394162D01*
X167103290Y-65394162D02*
X167103897Y-65415893D01*
X167103897Y-65415893D02*
X167108978Y-65432531D01*
X167108978Y-65432531D02*
X167122945Y-65447437D01*
X167122945Y-65447437D02*
X167150211Y-65463973D01*
X167150211Y-65463973D02*
X167195188Y-65485498D01*
X167195188Y-65485498D02*
X167262289Y-65515374D01*
X167262289Y-65515374D02*
X167262629Y-65515524D01*
X167262629Y-65515524D02*
X167324393Y-65543813D01*
X167324393Y-65543813D02*
X167375041Y-65568933D01*
X167375041Y-65568933D02*
X167409396Y-65588179D01*
X167409396Y-65588179D02*
X167422282Y-65598848D01*
X167422282Y-65598848D02*
X167422286Y-65598934D01*
X167422286Y-65598934D02*
X167410928Y-65622166D01*
X167410928Y-65622166D02*
X167384369Y-65647774D01*
X167384369Y-65647774D02*
X167353877Y-65666221D01*
X167353877Y-65666221D02*
X167338430Y-65669886D01*
X167338430Y-65669886D02*
X167296285Y-65657212D01*
X167296285Y-65657212D02*
X167259992Y-65625471D01*
X167259992Y-65625471D02*
X167242283Y-65590572D01*
X167242283Y-65590572D02*
X167225248Y-65564845D01*
X167225248Y-65564845D02*
X167191878Y-65535546D01*
X167191878Y-65535546D02*
X167152651Y-65510235D01*
X167152651Y-65510235D02*
X167118044Y-65496471D01*
X167118044Y-65496471D02*
X167110807Y-65495714D01*
X167110807Y-65495714D02*
X167102661Y-65508160D01*
X167102661Y-65508160D02*
X167102170Y-65539972D01*
X167102170Y-65539972D02*
X167108157Y-65582866D01*
X167108157Y-65582866D02*
X167119443Y-65628558D01*
X167119443Y-65628558D02*
X167134850Y-65668761D01*
X167134850Y-65668761D02*
X167135629Y-65670322D01*
X167135629Y-65670322D02*
X167181996Y-65735062D01*
X167181996Y-65735062D02*
X167242089Y-65779097D01*
X167242089Y-65779097D02*
X167310335Y-65800711D01*
X167310335Y-65800711D02*
X167381162Y-65798185D01*
X167381162Y-65798185D02*
X167448996Y-65769804D01*
X167448996Y-65769804D02*
X167452012Y-65767808D01*
X167452012Y-65767808D02*
X167505373Y-65719448D01*
X167505373Y-65719448D02*
X167540460Y-65656352D01*
X167540460Y-65656352D02*
X167559878Y-65573387D01*
X167559878Y-65573387D02*
X167562484Y-65550078D01*
X167562484Y-65550078D02*
X167567099Y-65440055D01*
X167567099Y-65440055D02*
X167561567Y-65388748D01*
X167561567Y-65388748D02*
X167422286Y-65388748D01*
X167422286Y-65388748D02*
X167420476Y-65420753D01*
X167420476Y-65420753D02*
X167410578Y-65430093D01*
X167410578Y-65430093D02*
X167385902Y-65423105D01*
X167385902Y-65423105D02*
X167347005Y-65406587D01*
X167347005Y-65406587D02*
X167303525Y-65385881D01*
X167303525Y-65385881D02*
X167302444Y-65385333D01*
X167302444Y-65385333D02*
X167265591Y-65365949D01*
X167265591Y-65365949D02*
X167250800Y-65353013D01*
X167250800Y-65353013D02*
X167254447Y-65339451D01*
X167254447Y-65339451D02*
X167269805Y-65321632D01*
X167269805Y-65321632D02*
X167308877Y-65295845D01*
X167308877Y-65295845D02*
X167350954Y-65293950D01*
X167350954Y-65293950D02*
X167388697Y-65312717D01*
X167388697Y-65312717D02*
X167414766Y-65348915D01*
X167414766Y-65348915D02*
X167422286Y-65388748D01*
X167422286Y-65388748D02*
X167561567Y-65388748D01*
X167561567Y-65388748D02*
X167557606Y-65352027D01*
X167557606Y-65352027D02*
X167533250Y-65282212D01*
X167533250Y-65282212D02*
X167499344Y-65233302D01*
X167499344Y-65233302D02*
X167438147Y-65183878D01*
X167438147Y-65183878D02*
X167370737Y-65159359D01*
X167370737Y-65159359D02*
X167301920Y-65157797D01*
X167301920Y-65157797D02*
X167236497Y-65177239D01*
X167236497Y-65177239D02*
X167236497Y-65177239D01*
G36*
X167562484Y-65550078D02*
G01*
X167559878Y-65573387D01*
X167540460Y-65656352D01*
X167505373Y-65719448D01*
X167452012Y-65767808D01*
X167448996Y-65769804D01*
X167381162Y-65798185D01*
X167310335Y-65800711D01*
X167242089Y-65779097D01*
X167181996Y-65735062D01*
X167135629Y-65670322D01*
X167134850Y-65668761D01*
X167119443Y-65628558D01*
X167108157Y-65582866D01*
X167102170Y-65539972D01*
X167102661Y-65508160D01*
X167110807Y-65495714D01*
X167118044Y-65496471D01*
X167152651Y-65510235D01*
X167191878Y-65535546D01*
X167225248Y-65564845D01*
X167242283Y-65590572D01*
X167259992Y-65625471D01*
X167296285Y-65657212D01*
X167338430Y-65669886D01*
X167353877Y-65666221D01*
X167384369Y-65647774D01*
X167410928Y-65622166D01*
X167422286Y-65598934D01*
X167422282Y-65598848D01*
X167409396Y-65588179D01*
X167375041Y-65568933D01*
X167324393Y-65543813D01*
X167262629Y-65515524D01*
X167262289Y-65515374D01*
X167195188Y-65485498D01*
X167150211Y-65463973D01*
X167122945Y-65447437D01*
X167108978Y-65432531D01*
X167103897Y-65415893D01*
X167103290Y-65394162D01*
X167107512Y-65353013D01*
X167250800Y-65353013D01*
X167265591Y-65365949D01*
X167302444Y-65385333D01*
X167303525Y-65385881D01*
X167347005Y-65406587D01*
X167385902Y-65423105D01*
X167410578Y-65430093D01*
X167420476Y-65420753D01*
X167422286Y-65388748D01*
X167414766Y-65348915D01*
X167388697Y-65312717D01*
X167350954Y-65293950D01*
X167308877Y-65295845D01*
X167269805Y-65321632D01*
X167254447Y-65339451D01*
X167250800Y-65353013D01*
X167107512Y-65353013D01*
X167108633Y-65342086D01*
X167135051Y-65271335D01*
X167179273Y-65215735D01*
X167236497Y-65177239D01*
X167301920Y-65157797D01*
X167370737Y-65159359D01*
X167438147Y-65183878D01*
X167499344Y-65233302D01*
X167533250Y-65282212D01*
X167557606Y-65352027D01*
X167561567Y-65388748D01*
X167567099Y-65440055D01*
X167562484Y-65550078D01*
G37*
X167562484Y-65550078D02*
X167559878Y-65573387D01*
X167540460Y-65656352D01*
X167505373Y-65719448D01*
X167452012Y-65767808D01*
X167448996Y-65769804D01*
X167381162Y-65798185D01*
X167310335Y-65800711D01*
X167242089Y-65779097D01*
X167181996Y-65735062D01*
X167135629Y-65670322D01*
X167134850Y-65668761D01*
X167119443Y-65628558D01*
X167108157Y-65582866D01*
X167102170Y-65539972D01*
X167102661Y-65508160D01*
X167110807Y-65495714D01*
X167118044Y-65496471D01*
X167152651Y-65510235D01*
X167191878Y-65535546D01*
X167225248Y-65564845D01*
X167242283Y-65590572D01*
X167259992Y-65625471D01*
X167296285Y-65657212D01*
X167338430Y-65669886D01*
X167353877Y-65666221D01*
X167384369Y-65647774D01*
X167410928Y-65622166D01*
X167422286Y-65598934D01*
X167422282Y-65598848D01*
X167409396Y-65588179D01*
X167375041Y-65568933D01*
X167324393Y-65543813D01*
X167262629Y-65515524D01*
X167262289Y-65515374D01*
X167195188Y-65485498D01*
X167150211Y-65463973D01*
X167122945Y-65447437D01*
X167108978Y-65432531D01*
X167103897Y-65415893D01*
X167103290Y-65394162D01*
X167107512Y-65353013D01*
X167250800Y-65353013D01*
X167265591Y-65365949D01*
X167302444Y-65385333D01*
X167303525Y-65385881D01*
X167347005Y-65406587D01*
X167385902Y-65423105D01*
X167410578Y-65430093D01*
X167420476Y-65420753D01*
X167422286Y-65388748D01*
X167414766Y-65348915D01*
X167388697Y-65312717D01*
X167350954Y-65293950D01*
X167308877Y-65295845D01*
X167269805Y-65321632D01*
X167254447Y-65339451D01*
X167250800Y-65353013D01*
X167107512Y-65353013D01*
X167108633Y-65342086D01*
X167135051Y-65271335D01*
X167179273Y-65215735D01*
X167236497Y-65177239D01*
X167301920Y-65157797D01*
X167370737Y-65159359D01*
X167438147Y-65183878D01*
X167499344Y-65233302D01*
X167533250Y-65282212D01*
X167557606Y-65352027D01*
X167561567Y-65388748D01*
X167567099Y-65440055D01*
X167562484Y-65550078D01*
X165300890Y-60488348D02*
X165222346Y-60488778D01*
X165222346Y-60488778D02*
X165165502Y-60489942D01*
X165165502Y-60489942D02*
X165126695Y-60492207D01*
X165126695Y-60492207D02*
X165102262Y-60495940D01*
X165102262Y-60495940D02*
X165088538Y-60501506D01*
X165088538Y-60501506D02*
X165081860Y-60509273D01*
X165081860Y-60509273D02*
X165078564Y-60519605D01*
X165078564Y-60519605D02*
X165078244Y-60520943D01*
X165078244Y-60520943D02*
X165073238Y-60545079D01*
X165073238Y-60545079D02*
X165063971Y-60592701D01*
X165063971Y-60592701D02*
X165051408Y-60658741D01*
X165051408Y-60658741D02*
X165036513Y-60738128D01*
X165036513Y-60738128D02*
X165020249Y-60825796D01*
X165020249Y-60825796D02*
X165019681Y-60828875D01*
X165019681Y-60828875D02*
X165003390Y-60914789D01*
X165003390Y-60914789D02*
X164988148Y-60990696D01*
X164988148Y-60990696D02*
X164974939Y-61052045D01*
X164974939Y-61052045D02*
X164964746Y-61094282D01*
X164964746Y-61094282D02*
X164958552Y-61112855D01*
X164958552Y-61112855D02*
X164958257Y-61113184D01*
X164958257Y-61113184D02*
X164940012Y-61122253D01*
X164940012Y-61122253D02*
X164902395Y-61137367D01*
X164902395Y-61137367D02*
X164853529Y-61155262D01*
X164853529Y-61155262D02*
X164853257Y-61155358D01*
X164853257Y-61155358D02*
X164791707Y-61178493D01*
X164791707Y-61178493D02*
X164719143Y-61207965D01*
X164719143Y-61207965D02*
X164650743Y-61237597D01*
X164650743Y-61237597D02*
X164647506Y-61239062D01*
X164647506Y-61239062D02*
X164536098Y-61289626D01*
X164536098Y-61289626D02*
X164289401Y-61121160D01*
X164289401Y-61121160D02*
X164213723Y-61069803D01*
X164213723Y-61069803D02*
X164145169Y-61023889D01*
X164145169Y-61023889D02*
X164087712Y-60986030D01*
X164087712Y-60986030D02*
X164045324Y-60958837D01*
X164045324Y-60958837D02*
X164021975Y-60944921D01*
X164021975Y-60944921D02*
X164019758Y-60943889D01*
X164019758Y-60943889D02*
X164002790Y-60948484D01*
X164002790Y-60948484D02*
X163971099Y-60970655D01*
X163971099Y-60970655D02*
X163923448Y-61011447D01*
X163923448Y-61011447D02*
X163858602Y-61071905D01*
X163858602Y-61071905D02*
X163792403Y-61136227D01*
X163792403Y-61136227D02*
X163728586Y-61199612D01*
X163728586Y-61199612D02*
X163671471Y-61257451D01*
X163671471Y-61257451D02*
X163624495Y-61306175D01*
X163624495Y-61306175D02*
X163591097Y-61342210D01*
X163591097Y-61342210D02*
X163574715Y-61361984D01*
X163574715Y-61361984D02*
X163574106Y-61363002D01*
X163574106Y-61363002D02*
X163572295Y-61376572D01*
X163572295Y-61376572D02*
X163579117Y-61398733D01*
X163579117Y-61398733D02*
X163596260Y-61432478D01*
X163596260Y-61432478D02*
X163625407Y-61480800D01*
X163625407Y-61480800D02*
X163668245Y-61546692D01*
X163668245Y-61546692D02*
X163725352Y-61631517D01*
X163725352Y-61631517D02*
X163776034Y-61706177D01*
X163776034Y-61706177D02*
X163821339Y-61773140D01*
X163821339Y-61773140D02*
X163858650Y-61828516D01*
X163858650Y-61828516D02*
X163885348Y-61868420D01*
X163885348Y-61868420D02*
X163898815Y-61888962D01*
X163898815Y-61888962D02*
X163899663Y-61890356D01*
X163899663Y-61890356D02*
X163898019Y-61910038D01*
X163898019Y-61910038D02*
X163885555Y-61948293D01*
X163885555Y-61948293D02*
X163864752Y-61997889D01*
X163864752Y-61997889D02*
X163857338Y-62013728D01*
X163857338Y-62013728D02*
X163824986Y-62084290D01*
X163824986Y-62084290D02*
X163790472Y-62164353D01*
X163790472Y-62164353D02*
X163762435Y-62233629D01*
X163762435Y-62233629D02*
X163742232Y-62285045D01*
X163742232Y-62285045D02*
X163726185Y-62324119D01*
X163726185Y-62324119D02*
X163716912Y-62344541D01*
X163716912Y-62344541D02*
X163715759Y-62346114D01*
X163715759Y-62346114D02*
X163698704Y-62348721D01*
X163698704Y-62348721D02*
X163658502Y-62355863D01*
X163658502Y-62355863D02*
X163600498Y-62366523D01*
X163600498Y-62366523D02*
X163530037Y-62379685D01*
X163530037Y-62379685D02*
X163452465Y-62394333D01*
X163452465Y-62394333D02*
X163373128Y-62409449D01*
X163373128Y-62409449D02*
X163297369Y-62424018D01*
X163297369Y-62424018D02*
X163230536Y-62437022D01*
X163230536Y-62437022D02*
X163177972Y-62447445D01*
X163177972Y-62447445D02*
X163145024Y-62454270D01*
X163145024Y-62454270D02*
X163136943Y-62456199D01*
X163136943Y-62456199D02*
X163128595Y-62460962D01*
X163128595Y-62460962D02*
X163122294Y-62471718D01*
X163122294Y-62471718D02*
X163117755Y-62492098D01*
X163117755Y-62492098D02*
X163114696Y-62525734D01*
X163114696Y-62525734D02*
X163112833Y-62576255D01*
X163112833Y-62576255D02*
X163111882Y-62647292D01*
X163111882Y-62647292D02*
X163111560Y-62742476D01*
X163111560Y-62742476D02*
X163111543Y-62781492D01*
X163111543Y-62781492D02*
X163111543Y-63098799D01*
X163111543Y-63098799D02*
X163187743Y-63113839D01*
X163187743Y-63113839D02*
X163230137Y-63121995D01*
X163230137Y-63121995D02*
X163293400Y-63133899D01*
X163293400Y-63133899D02*
X163369838Y-63148116D01*
X163369838Y-63148116D02*
X163451757Y-63163210D01*
X163451757Y-63163210D02*
X163474400Y-63167355D01*
X163474400Y-63167355D02*
X163549994Y-63182053D01*
X163549994Y-63182053D02*
X163615847Y-63196505D01*
X163615847Y-63196505D02*
X163666434Y-63209375D01*
X163666434Y-63209375D02*
X163696226Y-63219322D01*
X163696226Y-63219322D02*
X163701188Y-63222287D01*
X163701188Y-63222287D02*
X163713374Y-63243283D01*
X163713374Y-63243283D02*
X163730847Y-63283967D01*
X163730847Y-63283967D02*
X163750223Y-63336322D01*
X163750223Y-63336322D02*
X163754066Y-63347600D01*
X163754066Y-63347600D02*
X163779461Y-63417523D01*
X163779461Y-63417523D02*
X163810983Y-63496418D01*
X163810983Y-63496418D02*
X163841831Y-63567266D01*
X163841831Y-63567266D02*
X163841983Y-63567595D01*
X163841983Y-63567595D02*
X163893353Y-63678733D01*
X163893353Y-63678733D02*
X163724401Y-63927253D01*
X163724401Y-63927253D02*
X163555448Y-64175772D01*
X163555448Y-64175772D02*
X163772371Y-64393058D01*
X163772371Y-64393058D02*
X163837981Y-64457726D01*
X163837981Y-64457726D02*
X163897821Y-64514733D01*
X163897821Y-64514733D02*
X163948533Y-64561033D01*
X163948533Y-64561033D02*
X163986754Y-64593584D01*
X163986754Y-64593584D02*
X164009125Y-64609343D01*
X164009125Y-64609343D02*
X164012334Y-64610343D01*
X164012334Y-64610343D02*
X164031174Y-64602469D01*
X164031174Y-64602469D02*
X164069620Y-64580578D01*
X164069620Y-64580578D02*
X164123470Y-64547267D01*
X164123470Y-64547267D02*
X164188524Y-64505131D01*
X164188524Y-64505131D02*
X164258860Y-64457943D01*
X164258860Y-64457943D02*
X164330245Y-64409810D01*
X164330245Y-64409810D02*
X164393892Y-64367928D01*
X164393892Y-64367928D02*
X164445759Y-64334871D01*
X164445759Y-64334871D02*
X164481805Y-64313218D01*
X164481805Y-64313218D02*
X164497933Y-64305543D01*
X164497933Y-64305543D02*
X164517611Y-64312037D01*
X164517611Y-64312037D02*
X164554925Y-64329150D01*
X164554925Y-64329150D02*
X164602179Y-64353326D01*
X164602179Y-64353326D02*
X164607188Y-64356013D01*
X164607188Y-64356013D02*
X164670823Y-64387927D01*
X164670823Y-64387927D02*
X164714459Y-64403579D01*
X164714459Y-64403579D02*
X164741598Y-64403745D01*
X164741598Y-64403745D02*
X164755743Y-64389204D01*
X164755743Y-64389204D02*
X164755825Y-64389000D01*
X164755825Y-64389000D02*
X164762895Y-64371779D01*
X164762895Y-64371779D02*
X164779758Y-64330899D01*
X164779758Y-64330899D02*
X164805105Y-64269525D01*
X164805105Y-64269525D02*
X164837629Y-64190819D01*
X164837629Y-64190819D02*
X164876022Y-64097947D01*
X164876022Y-64097947D02*
X164918978Y-63994072D01*
X164918978Y-63994072D02*
X164960578Y-63893502D01*
X164960578Y-63893502D02*
X165006296Y-63782516D01*
X165006296Y-63782516D02*
X165048274Y-63679703D01*
X165048274Y-63679703D02*
X165085252Y-63588215D01*
X165085252Y-63588215D02*
X165115973Y-63511201D01*
X165115973Y-63511201D02*
X165139178Y-63451815D01*
X165139178Y-63451815D02*
X165153610Y-63413209D01*
X165153610Y-63413209D02*
X165158057Y-63398800D01*
X165158057Y-63398800D02*
X165146904Y-63382272D01*
X165146904Y-63382272D02*
X165117731Y-63355930D01*
X165117731Y-63355930D02*
X165078829Y-63326887D01*
X165078829Y-63326887D02*
X164968043Y-63235039D01*
X164968043Y-63235039D02*
X164881449Y-63129759D01*
X164881449Y-63129759D02*
X164820084Y-63013266D01*
X164820084Y-63013266D02*
X164784985Y-62887776D01*
X164784985Y-62887776D02*
X164777192Y-62755507D01*
X164777192Y-62755507D02*
X164782857Y-62694457D01*
X164782857Y-62694457D02*
X164813722Y-62567795D01*
X164813722Y-62567795D02*
X164866880Y-62455941D01*
X164866880Y-62455941D02*
X164939033Y-62360001D01*
X164939033Y-62360001D02*
X165026883Y-62281076D01*
X165026883Y-62281076D02*
X165127135Y-62220270D01*
X165127135Y-62220270D02*
X165236490Y-62178687D01*
X165236490Y-62178687D02*
X165351653Y-62157428D01*
X165351653Y-62157428D02*
X165469325Y-62157599D01*
X165469325Y-62157599D02*
X165586210Y-62180301D01*
X165586210Y-62180301D02*
X165699011Y-62226638D01*
X165699011Y-62226638D02*
X165804431Y-62297713D01*
X165804431Y-62297713D02*
X165848432Y-62337911D01*
X165848432Y-62337911D02*
X165932821Y-62441129D01*
X165932821Y-62441129D02*
X165991578Y-62553925D01*
X165991578Y-62553925D02*
X166025096Y-62673010D01*
X166025096Y-62673010D02*
X166033765Y-62795095D01*
X166033765Y-62795095D02*
X166017977Y-62916893D01*
X166017977Y-62916893D02*
X165978122Y-63035116D01*
X165978122Y-63035116D02*
X165914593Y-63146475D01*
X165914593Y-63146475D02*
X165827779Y-63247684D01*
X165827779Y-63247684D02*
X165730771Y-63326887D01*
X165730771Y-63326887D02*
X165690363Y-63357162D01*
X165690363Y-63357162D02*
X165661818Y-63383219D01*
X165661818Y-63383219D02*
X165651543Y-63398825D01*
X165651543Y-63398825D02*
X165656923Y-63415843D01*
X165656923Y-63415843D02*
X165672225Y-63456500D01*
X165672225Y-63456500D02*
X165696188Y-63517642D01*
X165696188Y-63517642D02*
X165727556Y-63596119D01*
X165727556Y-63596119D02*
X165765068Y-63688780D01*
X165765068Y-63688780D02*
X165807467Y-63792472D01*
X165807467Y-63792472D02*
X165849137Y-63893526D01*
X165849137Y-63893526D02*
X165895110Y-64004607D01*
X165895110Y-64004607D02*
X165937693Y-64107541D01*
X165937693Y-64107541D02*
X165975579Y-64199165D01*
X165975579Y-64199165D02*
X166007460Y-64276316D01*
X166007460Y-64276316D02*
X166032029Y-64335831D01*
X166032029Y-64335831D02*
X166047980Y-64374544D01*
X166047980Y-64374544D02*
X166053890Y-64389000D01*
X166053890Y-64389000D02*
X166067852Y-64403685D01*
X166067852Y-64403685D02*
X166094860Y-64403642D01*
X166094860Y-64403642D02*
X166138387Y-64388099D01*
X166138387Y-64388099D02*
X166201910Y-64356284D01*
X166201910Y-64356284D02*
X166202412Y-64356013D01*
X166202412Y-64356013D02*
X166250240Y-64331323D01*
X166250240Y-64331323D02*
X166288903Y-64313338D01*
X166288903Y-64313338D02*
X166310705Y-64305614D01*
X166310705Y-64305614D02*
X166311667Y-64305543D01*
X166311667Y-64305543D02*
X166328079Y-64313378D01*
X166328079Y-64313378D02*
X166364313Y-64335165D01*
X166364313Y-64335165D02*
X166416326Y-64368328D01*
X166416326Y-64368328D02*
X166480075Y-64410291D01*
X166480075Y-64410291D02*
X166550740Y-64457943D01*
X166550740Y-64457943D02*
X166622684Y-64506191D01*
X166622684Y-64506191D02*
X166687526Y-64548151D01*
X166687526Y-64548151D02*
X166741065Y-64581227D01*
X166741065Y-64581227D02*
X166779103Y-64602821D01*
X166779103Y-64602821D02*
X166797267Y-64610343D01*
X166797267Y-64610343D02*
X166813992Y-64600457D01*
X166813992Y-64600457D02*
X166847620Y-64572826D01*
X166847620Y-64572826D02*
X166894790Y-64530495D01*
X166894790Y-64530495D02*
X166952142Y-64476505D01*
X166952142Y-64476505D02*
X167016316Y-64413899D01*
X167016316Y-64413899D02*
X167037303Y-64392983D01*
X167037303Y-64392983D02*
X167254301Y-64175623D01*
X167254301Y-64175623D02*
X167089132Y-63933220D01*
X167089132Y-63933220D02*
X167038936Y-63858781D01*
X167038936Y-63858781D02*
X166994881Y-63791972D01*
X166994881Y-63791972D02*
X166959438Y-63736665D01*
X166959438Y-63736665D02*
X166935081Y-63696729D01*
X166935081Y-63696729D02*
X166924278Y-63676036D01*
X166924278Y-63676036D02*
X166923962Y-63674563D01*
X166923962Y-63674563D02*
X166929657Y-63655058D01*
X166929657Y-63655058D02*
X166944974Y-63615822D01*
X166944974Y-63615822D02*
X166967263Y-63563430D01*
X166967263Y-63563430D02*
X166982907Y-63528355D01*
X166982907Y-63528355D02*
X167012159Y-63461201D01*
X167012159Y-63461201D02*
X167039706Y-63393358D01*
X167039706Y-63393358D02*
X167061063Y-63336034D01*
X167061063Y-63336034D02*
X167066865Y-63318572D01*
X167066865Y-63318572D02*
X167083348Y-63271938D01*
X167083348Y-63271938D02*
X167099460Y-63235905D01*
X167099460Y-63235905D02*
X167108310Y-63222287D01*
X167108310Y-63222287D02*
X167127840Y-63213952D01*
X167127840Y-63213952D02*
X167170466Y-63202137D01*
X167170466Y-63202137D02*
X167230655Y-63188181D01*
X167230655Y-63188181D02*
X167302878Y-63173422D01*
X167302878Y-63173422D02*
X167335200Y-63167355D01*
X167335200Y-63167355D02*
X167417278Y-63152273D01*
X167417278Y-63152273D02*
X167496005Y-63137669D01*
X167496005Y-63137669D02*
X167563691Y-63124980D01*
X167563691Y-63124980D02*
X167612640Y-63115642D01*
X167612640Y-63115642D02*
X167621857Y-63113839D01*
X167621857Y-63113839D02*
X167698057Y-63098799D01*
X167698057Y-63098799D02*
X167698057Y-62781492D01*
X167698057Y-62781492D02*
X167697886Y-62677154D01*
X167697886Y-62677154D02*
X167697184Y-62598213D01*
X167697184Y-62598213D02*
X167695666Y-62541038D01*
X167695666Y-62541038D02*
X167693051Y-62501999D01*
X167693051Y-62501999D02*
X167689054Y-62477465D01*
X167689054Y-62477465D02*
X167683391Y-62463805D01*
X167683391Y-62463805D02*
X167675780Y-62457389D01*
X167675780Y-62457389D02*
X167672657Y-62456199D01*
X167672657Y-62456199D02*
X167653822Y-62451980D01*
X167653822Y-62451980D02*
X167612212Y-62443562D01*
X167612212Y-62443562D02*
X167553170Y-62431961D01*
X167553170Y-62431961D02*
X167482043Y-62418195D01*
X167482043Y-62418195D02*
X167404175Y-62403280D01*
X167404175Y-62403280D02*
X167324913Y-62388232D01*
X167324913Y-62388232D02*
X167249602Y-62374069D01*
X167249602Y-62374069D02*
X167183587Y-62361806D01*
X167183587Y-62361806D02*
X167132213Y-62352461D01*
X167132213Y-62352461D02*
X167100825Y-62347050D01*
X167100825Y-62347050D02*
X167093841Y-62346114D01*
X167093841Y-62346114D02*
X167087515Y-62333596D01*
X167087515Y-62333596D02*
X167073510Y-62300246D01*
X167073510Y-62300246D02*
X167054445Y-62252377D01*
X167054445Y-62252377D02*
X167047166Y-62233629D01*
X167047166Y-62233629D02*
X167017804Y-62161195D01*
X167017804Y-62161195D02*
X166983229Y-62081170D01*
X166983229Y-62081170D02*
X166952263Y-62013728D01*
X166952263Y-62013728D02*
X166929477Y-61962159D01*
X166929477Y-61962159D02*
X166914318Y-61919785D01*
X166914318Y-61919785D02*
X166909258Y-61893834D01*
X166909258Y-61893834D02*
X166910064Y-61890356D01*
X166910064Y-61890356D02*
X166920759Y-61873936D01*
X166920759Y-61873936D02*
X166945180Y-61837417D01*
X166945180Y-61837417D02*
X166980705Y-61784687D01*
X166980705Y-61784687D02*
X167024713Y-61719635D01*
X167024713Y-61719635D02*
X167074583Y-61646151D01*
X167074583Y-61646151D02*
X167084444Y-61631645D01*
X167084444Y-61631645D02*
X167142308Y-61545704D01*
X167142308Y-61545704D02*
X167184844Y-61480261D01*
X167184844Y-61480261D02*
X167213746Y-61432304D01*
X167213746Y-61432304D02*
X167230710Y-61398820D01*
X167230710Y-61398820D02*
X167237433Y-61376795D01*
X167237433Y-61376795D02*
X167235610Y-61363217D01*
X167235610Y-61363217D02*
X167235564Y-61363131D01*
X167235564Y-61363131D02*
X167221214Y-61345297D01*
X167221214Y-61345297D02*
X167189477Y-61310817D01*
X167189477Y-61310817D02*
X167143790Y-61263268D01*
X167143790Y-61263268D02*
X167087596Y-61206222D01*
X167087596Y-61206222D02*
X167024332Y-61143255D01*
X167024332Y-61143255D02*
X167017198Y-61136227D01*
X167017198Y-61136227D02*
X166937470Y-61059020D01*
X166937470Y-61059020D02*
X166875943Y-61002330D01*
X166875943Y-61002330D02*
X166831379Y-60965110D01*
X166831379Y-60965110D02*
X166802543Y-60946315D01*
X166802543Y-60946315D02*
X166789842Y-60943889D01*
X166789842Y-60943889D02*
X166771306Y-60954471D01*
X166771306Y-60954471D02*
X166732839Y-60978916D01*
X166732839Y-60978916D02*
X166678414Y-61014612D01*
X166678414Y-61014612D02*
X166612002Y-61058947D01*
X166612002Y-61058947D02*
X166537575Y-61109311D01*
X166537575Y-61109311D02*
X166520199Y-61121160D01*
X166520199Y-61121160D02*
X166273503Y-61289626D01*
X166273503Y-61289626D02*
X166162094Y-61239062D01*
X166162094Y-61239062D02*
X166094343Y-61209595D01*
X166094343Y-61209595D02*
X166021617Y-61179959D01*
X166021617Y-61179959D02*
X165959097Y-61156330D01*
X165959097Y-61156330D02*
X165956343Y-61155358D01*
X165956343Y-61155358D02*
X165907440Y-61137457D01*
X165907440Y-61137457D02*
X165869743Y-61122320D01*
X165869743Y-61122320D02*
X165851375Y-61113210D01*
X165851375Y-61113210D02*
X165851344Y-61113184D01*
X165851344Y-61113184D02*
X165845515Y-61096717D01*
X165845515Y-61096717D02*
X165835608Y-61056219D01*
X165835608Y-61056219D02*
X165822605Y-60996242D01*
X165822605Y-60996242D02*
X165807491Y-60921340D01*
X165807491Y-60921340D02*
X165791248Y-60836064D01*
X165791248Y-60836064D02*
X165789919Y-60828875D01*
X165789919Y-60828875D02*
X165773625Y-60741014D01*
X165773625Y-60741014D02*
X165758667Y-60661260D01*
X165758667Y-60661260D02*
X165746009Y-60594681D01*
X165746009Y-60594681D02*
X165736614Y-60546347D01*
X165736614Y-60546347D02*
X165731446Y-60521325D01*
X165731446Y-60521325D02*
X165731356Y-60520943D01*
X165731356Y-60520943D02*
X165728211Y-60510299D01*
X165728211Y-60510299D02*
X165722096Y-60502262D01*
X165722096Y-60502262D02*
X165709347Y-60496467D01*
X165709347Y-60496467D02*
X165686300Y-60492547D01*
X165686300Y-60492547D02*
X165649291Y-60490135D01*
X165649291Y-60490135D02*
X165594656Y-60488865D01*
X165594656Y-60488865D02*
X165518733Y-60488371D01*
X165518733Y-60488371D02*
X165417856Y-60488286D01*
X165417856Y-60488286D02*
X165404800Y-60488286D01*
X165404800Y-60488286D02*
X165300890Y-60488348D01*
X165300890Y-60488348D02*
X165300890Y-60488348D01*
G36*
X165518733Y-60488371D02*
G01*
X165594656Y-60488865D01*
X165649291Y-60490135D01*
X165686300Y-60492547D01*
X165709347Y-60496467D01*
X165722096Y-60502262D01*
X165728211Y-60510299D01*
X165731356Y-60520943D01*
X165731446Y-60521325D01*
X165736614Y-60546347D01*
X165746009Y-60594681D01*
X165758667Y-60661260D01*
X165773625Y-60741014D01*
X165789919Y-60828875D01*
X165791248Y-60836064D01*
X165807491Y-60921340D01*
X165822605Y-60996242D01*
X165835608Y-61056219D01*
X165845515Y-61096717D01*
X165851344Y-61113184D01*
X165851375Y-61113210D01*
X165869743Y-61122320D01*
X165907440Y-61137457D01*
X165956343Y-61155358D01*
X165959097Y-61156330D01*
X166021617Y-61179959D01*
X166094343Y-61209595D01*
X166162094Y-61239062D01*
X166273503Y-61289626D01*
X166520199Y-61121160D01*
X166537575Y-61109311D01*
X166612002Y-61058947D01*
X166678414Y-61014612D01*
X166732839Y-60978916D01*
X166771306Y-60954471D01*
X166789842Y-60943889D01*
X166802543Y-60946315D01*
X166831379Y-60965110D01*
X166875943Y-61002330D01*
X166937470Y-61059020D01*
X167017198Y-61136227D01*
X167024332Y-61143255D01*
X167087596Y-61206222D01*
X167143790Y-61263268D01*
X167189477Y-61310817D01*
X167221214Y-61345297D01*
X167235564Y-61363131D01*
X167235610Y-61363217D01*
X167237433Y-61376795D01*
X167230710Y-61398820D01*
X167213746Y-61432304D01*
X167184844Y-61480261D01*
X167142308Y-61545704D01*
X167084444Y-61631645D01*
X167074583Y-61646151D01*
X167024713Y-61719635D01*
X166980705Y-61784687D01*
X166945180Y-61837417D01*
X166920759Y-61873936D01*
X166910064Y-61890356D01*
X166909258Y-61893834D01*
X166914318Y-61919785D01*
X166929477Y-61962159D01*
X166952263Y-62013728D01*
X166983229Y-62081170D01*
X167017804Y-62161195D01*
X167047166Y-62233629D01*
X167054445Y-62252377D01*
X167073510Y-62300246D01*
X167087515Y-62333596D01*
X167093841Y-62346114D01*
X167100825Y-62347050D01*
X167132213Y-62352461D01*
X167183587Y-62361806D01*
X167249602Y-62374069D01*
X167324913Y-62388232D01*
X167404175Y-62403280D01*
X167482043Y-62418195D01*
X167553170Y-62431961D01*
X167612212Y-62443562D01*
X167653822Y-62451980D01*
X167672657Y-62456199D01*
X167675780Y-62457389D01*
X167683391Y-62463805D01*
X167689054Y-62477465D01*
X167693051Y-62501999D01*
X167695666Y-62541038D01*
X167697184Y-62598213D01*
X167697886Y-62677154D01*
X167698057Y-62781492D01*
X167698057Y-63098799D01*
X167621857Y-63113839D01*
X167612640Y-63115642D01*
X167563691Y-63124980D01*
X167496005Y-63137669D01*
X167417278Y-63152273D01*
X167335200Y-63167355D01*
X167302878Y-63173422D01*
X167230655Y-63188181D01*
X167170466Y-63202137D01*
X167127840Y-63213952D01*
X167108310Y-63222287D01*
X167099460Y-63235905D01*
X167083348Y-63271938D01*
X167066865Y-63318572D01*
X167061063Y-63336034D01*
X167039706Y-63393358D01*
X167012159Y-63461201D01*
X166982907Y-63528355D01*
X166967263Y-63563430D01*
X166944974Y-63615822D01*
X166929657Y-63655058D01*
X166923962Y-63674563D01*
X166924278Y-63676036D01*
X166935081Y-63696729D01*
X166959438Y-63736665D01*
X166994881Y-63791972D01*
X167038936Y-63858781D01*
X167089132Y-63933220D01*
X167254301Y-64175623D01*
X167037303Y-64392983D01*
X167016316Y-64413899D01*
X166952142Y-64476505D01*
X166894790Y-64530495D01*
X166847620Y-64572826D01*
X166813992Y-64600457D01*
X166797267Y-64610343D01*
X166779103Y-64602821D01*
X166741065Y-64581227D01*
X166687526Y-64548151D01*
X166622684Y-64506191D01*
X166550740Y-64457943D01*
X166480075Y-64410291D01*
X166416326Y-64368328D01*
X166364313Y-64335165D01*
X166328079Y-64313378D01*
X166311667Y-64305543D01*
X166310705Y-64305614D01*
X166288903Y-64313338D01*
X166250240Y-64331323D01*
X166202412Y-64356013D01*
X166201910Y-64356284D01*
X166138387Y-64388099D01*
X166094860Y-64403642D01*
X166067852Y-64403685D01*
X166053890Y-64389000D01*
X166047980Y-64374544D01*
X166032029Y-64335831D01*
X166007460Y-64276316D01*
X165975579Y-64199165D01*
X165937693Y-64107541D01*
X165895110Y-64004607D01*
X165849137Y-63893526D01*
X165807467Y-63792472D01*
X165765068Y-63688780D01*
X165727556Y-63596119D01*
X165696188Y-63517642D01*
X165672225Y-63456500D01*
X165656923Y-63415843D01*
X165651543Y-63398825D01*
X165661818Y-63383219D01*
X165690363Y-63357162D01*
X165730771Y-63326887D01*
X165827779Y-63247684D01*
X165914593Y-63146475D01*
X165978122Y-63035116D01*
X166017977Y-62916893D01*
X166033765Y-62795095D01*
X166025096Y-62673010D01*
X165991578Y-62553925D01*
X165932821Y-62441129D01*
X165848432Y-62337911D01*
X165804431Y-62297713D01*
X165699011Y-62226638D01*
X165586210Y-62180301D01*
X165469325Y-62157599D01*
X165351653Y-62157428D01*
X165236490Y-62178687D01*
X165127135Y-62220270D01*
X165026883Y-62281076D01*
X164939033Y-62360001D01*
X164866880Y-62455941D01*
X164813722Y-62567795D01*
X164782857Y-62694457D01*
X164777192Y-62755507D01*
X164784985Y-62887776D01*
X164820084Y-63013266D01*
X164881449Y-63129759D01*
X164968043Y-63235039D01*
X165078829Y-63326887D01*
X165117731Y-63355930D01*
X165146904Y-63382272D01*
X165158057Y-63398800D01*
X165153610Y-63413209D01*
X165139178Y-63451815D01*
X165115973Y-63511201D01*
X165085252Y-63588215D01*
X165048274Y-63679703D01*
X165006296Y-63782516D01*
X164960578Y-63893502D01*
X164918978Y-63994072D01*
X164876022Y-64097947D01*
X164837629Y-64190819D01*
X164805105Y-64269525D01*
X164779758Y-64330899D01*
X164762895Y-64371779D01*
X164755825Y-64389000D01*
X164755743Y-64389204D01*
X164741598Y-64403745D01*
X164714459Y-64403579D01*
X164670823Y-64387927D01*
X164607188Y-64356013D01*
X164602179Y-64353326D01*
X164554925Y-64329150D01*
X164517611Y-64312037D01*
X164497933Y-64305543D01*
X164481805Y-64313218D01*
X164445759Y-64334871D01*
X164393892Y-64367928D01*
X164330245Y-64409810D01*
X164258860Y-64457943D01*
X164188524Y-64505131D01*
X164123470Y-64547267D01*
X164069620Y-64580578D01*
X164031174Y-64602469D01*
X164012334Y-64610343D01*
X164009125Y-64609343D01*
X163986754Y-64593584D01*
X163948533Y-64561033D01*
X163897821Y-64514733D01*
X163837981Y-64457726D01*
X163772371Y-64393058D01*
X163555448Y-64175772D01*
X163724401Y-63927253D01*
X163893353Y-63678733D01*
X163841983Y-63567595D01*
X163841831Y-63567266D01*
X163810983Y-63496418D01*
X163779461Y-63417523D01*
X163754066Y-63347600D01*
X163750223Y-63336322D01*
X163730847Y-63283967D01*
X163713374Y-63243283D01*
X163701188Y-63222287D01*
X163696226Y-63219322D01*
X163666434Y-63209375D01*
X163615847Y-63196505D01*
X163549994Y-63182053D01*
X163474400Y-63167355D01*
X163451757Y-63163210D01*
X163369838Y-63148116D01*
X163293400Y-63133899D01*
X163230137Y-63121995D01*
X163187743Y-63113839D01*
X163111543Y-63098799D01*
X163111543Y-62781492D01*
X163111560Y-62742476D01*
X163111882Y-62647292D01*
X163112833Y-62576255D01*
X163114696Y-62525734D01*
X163117755Y-62492098D01*
X163122294Y-62471718D01*
X163128595Y-62460962D01*
X163136943Y-62456199D01*
X163145024Y-62454270D01*
X163177972Y-62447445D01*
X163230536Y-62437022D01*
X163297369Y-62424018D01*
X163373128Y-62409449D01*
X163452465Y-62394333D01*
X163530037Y-62379685D01*
X163600498Y-62366523D01*
X163658502Y-62355863D01*
X163698704Y-62348721D01*
X163715759Y-62346114D01*
X163716912Y-62344541D01*
X163726185Y-62324119D01*
X163742232Y-62285045D01*
X163762435Y-62233629D01*
X163790472Y-62164353D01*
X163824986Y-62084290D01*
X163857338Y-62013728D01*
X163864752Y-61997889D01*
X163885555Y-61948293D01*
X163898019Y-61910038D01*
X163899663Y-61890356D01*
X163898815Y-61888962D01*
X163885348Y-61868420D01*
X163858650Y-61828516D01*
X163821339Y-61773140D01*
X163776034Y-61706177D01*
X163725352Y-61631517D01*
X163668245Y-61546692D01*
X163625407Y-61480800D01*
X163596260Y-61432478D01*
X163579117Y-61398733D01*
X163572295Y-61376572D01*
X163574106Y-61363002D01*
X163574715Y-61361984D01*
X163591097Y-61342210D01*
X163624495Y-61306175D01*
X163671471Y-61257451D01*
X163728586Y-61199612D01*
X163792403Y-61136227D01*
X163858602Y-61071905D01*
X163923448Y-61011447D01*
X163971099Y-60970655D01*
X164002790Y-60948484D01*
X164019758Y-60943889D01*
X164021975Y-60944921D01*
X164045324Y-60958837D01*
X164087712Y-60986030D01*
X164145169Y-61023889D01*
X164213723Y-61069803D01*
X164289401Y-61121160D01*
X164536098Y-61289626D01*
X164647506Y-61239062D01*
X164650743Y-61237597D01*
X164719143Y-61207965D01*
X164791707Y-61178493D01*
X164853257Y-61155358D01*
X164853529Y-61155262D01*
X164902395Y-61137367D01*
X164940012Y-61122253D01*
X164958257Y-61113184D01*
X164958552Y-61112855D01*
X164964746Y-61094282D01*
X164974939Y-61052045D01*
X164988148Y-60990696D01*
X165003390Y-60914789D01*
X165019681Y-60828875D01*
X165020249Y-60825796D01*
X165036513Y-60738128D01*
X165051408Y-60658741D01*
X165063971Y-60592701D01*
X165073238Y-60545079D01*
X165078244Y-60520943D01*
X165078564Y-60519605D01*
X165081860Y-60509273D01*
X165088538Y-60501506D01*
X165102262Y-60495940D01*
X165126695Y-60492207D01*
X165165502Y-60489942D01*
X165222346Y-60488778D01*
X165300890Y-60488348D01*
X165404800Y-60488286D01*
X165417856Y-60488286D01*
X165518733Y-60488371D01*
G37*
X165518733Y-60488371D02*
X165594656Y-60488865D01*
X165649291Y-60490135D01*
X165686300Y-60492547D01*
X165709347Y-60496467D01*
X165722096Y-60502262D01*
X165728211Y-60510299D01*
X165731356Y-60520943D01*
X165731446Y-60521325D01*
X165736614Y-60546347D01*
X165746009Y-60594681D01*
X165758667Y-60661260D01*
X165773625Y-60741014D01*
X165789919Y-60828875D01*
X165791248Y-60836064D01*
X165807491Y-60921340D01*
X165822605Y-60996242D01*
X165835608Y-61056219D01*
X165845515Y-61096717D01*
X165851344Y-61113184D01*
X165851375Y-61113210D01*
X165869743Y-61122320D01*
X165907440Y-61137457D01*
X165956343Y-61155358D01*
X165959097Y-61156330D01*
X166021617Y-61179959D01*
X166094343Y-61209595D01*
X166162094Y-61239062D01*
X166273503Y-61289626D01*
X166520199Y-61121160D01*
X166537575Y-61109311D01*
X166612002Y-61058947D01*
X166678414Y-61014612D01*
X166732839Y-60978916D01*
X166771306Y-60954471D01*
X166789842Y-60943889D01*
X166802543Y-60946315D01*
X166831379Y-60965110D01*
X166875943Y-61002330D01*
X166937470Y-61059020D01*
X167017198Y-61136227D01*
X167024332Y-61143255D01*
X167087596Y-61206222D01*
X167143790Y-61263268D01*
X167189477Y-61310817D01*
X167221214Y-61345297D01*
X167235564Y-61363131D01*
X167235610Y-61363217D01*
X167237433Y-61376795D01*
X167230710Y-61398820D01*
X167213746Y-61432304D01*
X167184844Y-61480261D01*
X167142308Y-61545704D01*
X167084444Y-61631645D01*
X167074583Y-61646151D01*
X167024713Y-61719635D01*
X166980705Y-61784687D01*
X166945180Y-61837417D01*
X166920759Y-61873936D01*
X166910064Y-61890356D01*
X166909258Y-61893834D01*
X166914318Y-61919785D01*
X166929477Y-61962159D01*
X166952263Y-62013728D01*
X166983229Y-62081170D01*
X167017804Y-62161195D01*
X167047166Y-62233629D01*
X167054445Y-62252377D01*
X167073510Y-62300246D01*
X167087515Y-62333596D01*
X167093841Y-62346114D01*
X167100825Y-62347050D01*
X167132213Y-62352461D01*
X167183587Y-62361806D01*
X167249602Y-62374069D01*
X167324913Y-62388232D01*
X167404175Y-62403280D01*
X167482043Y-62418195D01*
X167553170Y-62431961D01*
X167612212Y-62443562D01*
X167653822Y-62451980D01*
X167672657Y-62456199D01*
X167675780Y-62457389D01*
X167683391Y-62463805D01*
X167689054Y-62477465D01*
X167693051Y-62501999D01*
X167695666Y-62541038D01*
X167697184Y-62598213D01*
X167697886Y-62677154D01*
X167698057Y-62781492D01*
X167698057Y-63098799D01*
X167621857Y-63113839D01*
X167612640Y-63115642D01*
X167563691Y-63124980D01*
X167496005Y-63137669D01*
X167417278Y-63152273D01*
X167335200Y-63167355D01*
X167302878Y-63173422D01*
X167230655Y-63188181D01*
X167170466Y-63202137D01*
X167127840Y-63213952D01*
X167108310Y-63222287D01*
X167099460Y-63235905D01*
X167083348Y-63271938D01*
X167066865Y-63318572D01*
X167061063Y-63336034D01*
X167039706Y-63393358D01*
X167012159Y-63461201D01*
X166982907Y-63528355D01*
X166967263Y-63563430D01*
X166944974Y-63615822D01*
X166929657Y-63655058D01*
X166923962Y-63674563D01*
X166924278Y-63676036D01*
X166935081Y-63696729D01*
X166959438Y-63736665D01*
X166994881Y-63791972D01*
X167038936Y-63858781D01*
X167089132Y-63933220D01*
X167254301Y-64175623D01*
X167037303Y-64392983D01*
X167016316Y-64413899D01*
X166952142Y-64476505D01*
X166894790Y-64530495D01*
X166847620Y-64572826D01*
X166813992Y-64600457D01*
X166797267Y-64610343D01*
X166779103Y-64602821D01*
X166741065Y-64581227D01*
X166687526Y-64548151D01*
X166622684Y-64506191D01*
X166550740Y-64457943D01*
X166480075Y-64410291D01*
X166416326Y-64368328D01*
X166364313Y-64335165D01*
X166328079Y-64313378D01*
X166311667Y-64305543D01*
X166310705Y-64305614D01*
X166288903Y-64313338D01*
X166250240Y-64331323D01*
X166202412Y-64356013D01*
X166201910Y-64356284D01*
X166138387Y-64388099D01*
X166094860Y-64403642D01*
X166067852Y-64403685D01*
X166053890Y-64389000D01*
X166047980Y-64374544D01*
X166032029Y-64335831D01*
X166007460Y-64276316D01*
X165975579Y-64199165D01*
X165937693Y-64107541D01*
X165895110Y-64004607D01*
X165849137Y-63893526D01*
X165807467Y-63792472D01*
X165765068Y-63688780D01*
X165727556Y-63596119D01*
X165696188Y-63517642D01*
X165672225Y-63456500D01*
X165656923Y-63415843D01*
X165651543Y-63398825D01*
X165661818Y-63383219D01*
X165690363Y-63357162D01*
X165730771Y-63326887D01*
X165827779Y-63247684D01*
X165914593Y-63146475D01*
X165978122Y-63035116D01*
X166017977Y-62916893D01*
X166033765Y-62795095D01*
X166025096Y-62673010D01*
X165991578Y-62553925D01*
X165932821Y-62441129D01*
X165848432Y-62337911D01*
X165804431Y-62297713D01*
X165699011Y-62226638D01*
X165586210Y-62180301D01*
X165469325Y-62157599D01*
X165351653Y-62157428D01*
X165236490Y-62178687D01*
X165127135Y-62220270D01*
X165026883Y-62281076D01*
X164939033Y-62360001D01*
X164866880Y-62455941D01*
X164813722Y-62567795D01*
X164782857Y-62694457D01*
X164777192Y-62755507D01*
X164784985Y-62887776D01*
X164820084Y-63013266D01*
X164881449Y-63129759D01*
X164968043Y-63235039D01*
X165078829Y-63326887D01*
X165117731Y-63355930D01*
X165146904Y-63382272D01*
X165158057Y-63398800D01*
X165153610Y-63413209D01*
X165139178Y-63451815D01*
X165115973Y-63511201D01*
X165085252Y-63588215D01*
X165048274Y-63679703D01*
X165006296Y-63782516D01*
X164960578Y-63893502D01*
X164918978Y-63994072D01*
X164876022Y-64097947D01*
X164837629Y-64190819D01*
X164805105Y-64269525D01*
X164779758Y-64330899D01*
X164762895Y-64371779D01*
X164755825Y-64389000D01*
X164755743Y-64389204D01*
X164741598Y-64403745D01*
X164714459Y-64403579D01*
X164670823Y-64387927D01*
X164607188Y-64356013D01*
X164602179Y-64353326D01*
X164554925Y-64329150D01*
X164517611Y-64312037D01*
X164497933Y-64305543D01*
X164481805Y-64313218D01*
X164445759Y-64334871D01*
X164393892Y-64367928D01*
X164330245Y-64409810D01*
X164258860Y-64457943D01*
X164188524Y-64505131D01*
X164123470Y-64547267D01*
X164069620Y-64580578D01*
X164031174Y-64602469D01*
X164012334Y-64610343D01*
X164009125Y-64609343D01*
X163986754Y-64593584D01*
X163948533Y-64561033D01*
X163897821Y-64514733D01*
X163837981Y-64457726D01*
X163772371Y-64393058D01*
X163555448Y-64175772D01*
X163724401Y-63927253D01*
X163893353Y-63678733D01*
X163841983Y-63567595D01*
X163841831Y-63567266D01*
X163810983Y-63496418D01*
X163779461Y-63417523D01*
X163754066Y-63347600D01*
X163750223Y-63336322D01*
X163730847Y-63283967D01*
X163713374Y-63243283D01*
X163701188Y-63222287D01*
X163696226Y-63219322D01*
X163666434Y-63209375D01*
X163615847Y-63196505D01*
X163549994Y-63182053D01*
X163474400Y-63167355D01*
X163451757Y-63163210D01*
X163369838Y-63148116D01*
X163293400Y-63133899D01*
X163230137Y-63121995D01*
X163187743Y-63113839D01*
X163111543Y-63098799D01*
X163111543Y-62781492D01*
X163111560Y-62742476D01*
X163111882Y-62647292D01*
X163112833Y-62576255D01*
X163114696Y-62525734D01*
X163117755Y-62492098D01*
X163122294Y-62471718D01*
X163128595Y-62460962D01*
X163136943Y-62456199D01*
X163145024Y-62454270D01*
X163177972Y-62447445D01*
X163230536Y-62437022D01*
X163297369Y-62424018D01*
X163373128Y-62409449D01*
X163452465Y-62394333D01*
X163530037Y-62379685D01*
X163600498Y-62366523D01*
X163658502Y-62355863D01*
X163698704Y-62348721D01*
X163715759Y-62346114D01*
X163716912Y-62344541D01*
X163726185Y-62324119D01*
X163742232Y-62285045D01*
X163762435Y-62233629D01*
X163790472Y-62164353D01*
X163824986Y-62084290D01*
X163857338Y-62013728D01*
X163864752Y-61997889D01*
X163885555Y-61948293D01*
X163898019Y-61910038D01*
X163899663Y-61890356D01*
X163898815Y-61888962D01*
X163885348Y-61868420D01*
X163858650Y-61828516D01*
X163821339Y-61773140D01*
X163776034Y-61706177D01*
X163725352Y-61631517D01*
X163668245Y-61546692D01*
X163625407Y-61480800D01*
X163596260Y-61432478D01*
X163579117Y-61398733D01*
X163572295Y-61376572D01*
X163574106Y-61363002D01*
X163574715Y-61361984D01*
X163591097Y-61342210D01*
X163624495Y-61306175D01*
X163671471Y-61257451D01*
X163728586Y-61199612D01*
X163792403Y-61136227D01*
X163858602Y-61071905D01*
X163923448Y-61011447D01*
X163971099Y-60970655D01*
X164002790Y-60948484D01*
X164019758Y-60943889D01*
X164021975Y-60944921D01*
X164045324Y-60958837D01*
X164087712Y-60986030D01*
X164145169Y-61023889D01*
X164213723Y-61069803D01*
X164289401Y-61121160D01*
X164536098Y-61289626D01*
X164647506Y-61239062D01*
X164650743Y-61237597D01*
X164719143Y-61207965D01*
X164791707Y-61178493D01*
X164853257Y-61155358D01*
X164853529Y-61155262D01*
X164902395Y-61137367D01*
X164940012Y-61122253D01*
X164958257Y-61113184D01*
X164958552Y-61112855D01*
X164964746Y-61094282D01*
X164974939Y-61052045D01*
X164988148Y-60990696D01*
X165003390Y-60914789D01*
X165019681Y-60828875D01*
X165020249Y-60825796D01*
X165036513Y-60738128D01*
X165051408Y-60658741D01*
X165063971Y-60592701D01*
X165073238Y-60545079D01*
X165078244Y-60520943D01*
X165078564Y-60519605D01*
X165081860Y-60509273D01*
X165088538Y-60501506D01*
X165102262Y-60495940D01*
X165126695Y-60492207D01*
X165165502Y-60489942D01*
X165222346Y-60488778D01*
X165300890Y-60488348D01*
X165404800Y-60488286D01*
X165417856Y-60488286D01*
X165518733Y-60488371D01*
X164874874Y-65195755D02*
X164808942Y-65220084D01*
X164808942Y-65220084D02*
X164755527Y-65263117D01*
X164755527Y-65263117D02*
X164734636Y-65293409D01*
X164734636Y-65293409D02*
X164711861Y-65348994D01*
X164711861Y-65348994D02*
X164712334Y-65389186D01*
X164712334Y-65389186D02*
X164736238Y-65416217D01*
X164736238Y-65416217D02*
X164745083Y-65420813D01*
X164745083Y-65420813D02*
X164783270Y-65435144D01*
X164783270Y-65435144D02*
X164802772Y-65431472D01*
X164802772Y-65431472D02*
X164809378Y-65407407D01*
X164809378Y-65407407D02*
X164809714Y-65394114D01*
X164809714Y-65394114D02*
X164821808Y-65345210D01*
X164821808Y-65345210D02*
X164853329Y-65310999D01*
X164853329Y-65310999D02*
X164897141Y-65294476D01*
X164897141Y-65294476D02*
X164946105Y-65298634D01*
X164946105Y-65298634D02*
X164985906Y-65320227D01*
X164985906Y-65320227D02*
X164999350Y-65332544D01*
X164999350Y-65332544D02*
X165008879Y-65347487D01*
X165008879Y-65347487D02*
X165015315Y-65370075D01*
X165015315Y-65370075D02*
X165019483Y-65405328D01*
X165019483Y-65405328D02*
X165022203Y-65458266D01*
X165022203Y-65458266D02*
X165024298Y-65533907D01*
X165024298Y-65533907D02*
X165024840Y-65557857D01*
X165024840Y-65557857D02*
X165026819Y-65639790D01*
X165026819Y-65639790D02*
X165029069Y-65697455D01*
X165029069Y-65697455D02*
X165032443Y-65735608D01*
X165032443Y-65735608D02*
X165037794Y-65759004D01*
X165037794Y-65759004D02*
X165045976Y-65772398D01*
X165045976Y-65772398D02*
X165057841Y-65780545D01*
X165057841Y-65780545D02*
X165065438Y-65784144D01*
X165065438Y-65784144D02*
X165097698Y-65796452D01*
X165097698Y-65796452D02*
X165116689Y-65800514D01*
X165116689Y-65800514D02*
X165122964Y-65786948D01*
X165122964Y-65786948D02*
X165126794Y-65745934D01*
X165126794Y-65745934D02*
X165128200Y-65676999D01*
X165128200Y-65676999D02*
X165127202Y-65579669D01*
X165127202Y-65579669D02*
X165126892Y-65564657D01*
X165126892Y-65564657D02*
X165124699Y-65475859D01*
X165124699Y-65475859D02*
X165122107Y-65411019D01*
X165122107Y-65411019D02*
X165118418Y-65365067D01*
X165118418Y-65365067D02*
X165112936Y-65332935D01*
X165112936Y-65332935D02*
X165104965Y-65309553D01*
X165104965Y-65309553D02*
X165093807Y-65289852D01*
X165093807Y-65289852D02*
X165087970Y-65281410D01*
X165087970Y-65281410D02*
X165054504Y-65244057D01*
X165054504Y-65244057D02*
X165017073Y-65215003D01*
X165017073Y-65215003D02*
X165012491Y-65212467D01*
X165012491Y-65212467D02*
X164945374Y-65192443D01*
X164945374Y-65192443D02*
X164874874Y-65195755D01*
X164874874Y-65195755D02*
X164874874Y-65195755D01*
G36*
X165012491Y-65212467D02*
G01*
X165017073Y-65215003D01*
X165054504Y-65244057D01*
X165087970Y-65281410D01*
X165093807Y-65289852D01*
X165104965Y-65309553D01*
X165112936Y-65332935D01*
X165118418Y-65365067D01*
X165122107Y-65411019D01*
X165124699Y-65475859D01*
X165126892Y-65564657D01*
X165127202Y-65579669D01*
X165128200Y-65676999D01*
X165126794Y-65745934D01*
X165122964Y-65786948D01*
X165116689Y-65800514D01*
X165097698Y-65796452D01*
X165065438Y-65784144D01*
X165057841Y-65780545D01*
X165045976Y-65772398D01*
X165037794Y-65759004D01*
X165032443Y-65735608D01*
X165029069Y-65697455D01*
X165026819Y-65639790D01*
X165024840Y-65557857D01*
X165024298Y-65533907D01*
X165022203Y-65458266D01*
X165019483Y-65405328D01*
X165015315Y-65370075D01*
X165008879Y-65347487D01*
X164999350Y-65332544D01*
X164985906Y-65320227D01*
X164946105Y-65298634D01*
X164897141Y-65294476D01*
X164853329Y-65310999D01*
X164821808Y-65345210D01*
X164809714Y-65394114D01*
X164809378Y-65407407D01*
X164802772Y-65431472D01*
X164783270Y-65435144D01*
X164745083Y-65420813D01*
X164736238Y-65416217D01*
X164712334Y-65389186D01*
X164711861Y-65348994D01*
X164734636Y-65293409D01*
X164755527Y-65263117D01*
X164808942Y-65220084D01*
X164874874Y-65195755D01*
X164945374Y-65192443D01*
X165012491Y-65212467D01*
G37*
X165012491Y-65212467D02*
X165017073Y-65215003D01*
X165054504Y-65244057D01*
X165087970Y-65281410D01*
X165093807Y-65289852D01*
X165104965Y-65309553D01*
X165112936Y-65332935D01*
X165118418Y-65365067D01*
X165122107Y-65411019D01*
X165124699Y-65475859D01*
X165126892Y-65564657D01*
X165127202Y-65579669D01*
X165128200Y-65676999D01*
X165126794Y-65745934D01*
X165122964Y-65786948D01*
X165116689Y-65800514D01*
X165097698Y-65796452D01*
X165065438Y-65784144D01*
X165057841Y-65780545D01*
X165045976Y-65772398D01*
X165037794Y-65759004D01*
X165032443Y-65735608D01*
X165029069Y-65697455D01*
X165026819Y-65639790D01*
X165024840Y-65557857D01*
X165024298Y-65533907D01*
X165022203Y-65458266D01*
X165019483Y-65405328D01*
X165015315Y-65370075D01*
X165008879Y-65347487D01*
X164999350Y-65332544D01*
X164985906Y-65320227D01*
X164946105Y-65298634D01*
X164897141Y-65294476D01*
X164853329Y-65310999D01*
X164821808Y-65345210D01*
X164809714Y-65394114D01*
X164809378Y-65407407D01*
X164802772Y-65431472D01*
X164783270Y-65435144D01*
X164745083Y-65420813D01*
X164736238Y-65416217D01*
X164712334Y-65389186D01*
X164711861Y-65348994D01*
X164734636Y-65293409D01*
X164755527Y-65263117D01*
X164808942Y-65220084D01*
X164874874Y-65195755D01*
X164945374Y-65192443D01*
X165012491Y-65212467D01*
X168363685Y-65167962D02*
X168295655Y-65203733D01*
X168295655Y-65203733D02*
X168245449Y-65261301D01*
X168245449Y-65261301D02*
X168227615Y-65298312D01*
X168227615Y-65298312D02*
X168213737Y-65353882D01*
X168213737Y-65353882D02*
X168206633Y-65424096D01*
X168206633Y-65424096D02*
X168205960Y-65500727D01*
X168205960Y-65500727D02*
X168211373Y-65575552D01*
X168211373Y-65575552D02*
X168222530Y-65640342D01*
X168222530Y-65640342D02*
X168239086Y-65686873D01*
X168239086Y-65686873D02*
X168244174Y-65694887D01*
X168244174Y-65694887D02*
X168304445Y-65754707D01*
X168304445Y-65754707D02*
X168376031Y-65790535D01*
X168376031Y-65790535D02*
X168453708Y-65801020D01*
X168453708Y-65801020D02*
X168532252Y-65784810D01*
X168532252Y-65784810D02*
X168554111Y-65775092D01*
X168554111Y-65775092D02*
X168596678Y-65745143D01*
X168596678Y-65745143D02*
X168634037Y-65705433D01*
X168634037Y-65705433D02*
X168637568Y-65700397D01*
X168637568Y-65700397D02*
X168651919Y-65676124D01*
X168651919Y-65676124D02*
X168661406Y-65650178D01*
X168661406Y-65650178D02*
X168667010Y-65616022D01*
X168667010Y-65616022D02*
X168669714Y-65567119D01*
X168669714Y-65567119D02*
X168670501Y-65496935D01*
X168670501Y-65496935D02*
X168670514Y-65481200D01*
X168670514Y-65481200D02*
X168670478Y-65476192D01*
X168670478Y-65476192D02*
X168525371Y-65476192D01*
X168525371Y-65476192D02*
X168524527Y-65542430D01*
X168524527Y-65542430D02*
X168521204Y-65586386D01*
X168521204Y-65586386D02*
X168514217Y-65614779D01*
X168514217Y-65614779D02*
X168502384Y-65634325D01*
X168502384Y-65634325D02*
X168496343Y-65640857D01*
X168496343Y-65640857D02*
X168461614Y-65665680D01*
X168461614Y-65665680D02*
X168427897Y-65664548D01*
X168427897Y-65664548D02*
X168393805Y-65643016D01*
X168393805Y-65643016D02*
X168373471Y-65620029D01*
X168373471Y-65620029D02*
X168361429Y-65586478D01*
X168361429Y-65586478D02*
X168354666Y-65533569D01*
X168354666Y-65533569D02*
X168354202Y-65527399D01*
X168354202Y-65527399D02*
X168353048Y-65431513D01*
X168353048Y-65431513D02*
X168365112Y-65360299D01*
X168365112Y-65360299D02*
X168390230Y-65314194D01*
X168390230Y-65314194D02*
X168428240Y-65293635D01*
X168428240Y-65293635D02*
X168441808Y-65292514D01*
X168441808Y-65292514D02*
X168477436Y-65298152D01*
X168477436Y-65298152D02*
X168501806Y-65317686D01*
X168501806Y-65317686D02*
X168516707Y-65355042D01*
X168516707Y-65355042D02*
X168523925Y-65414150D01*
X168523925Y-65414150D02*
X168525371Y-65476192D01*
X168525371Y-65476192D02*
X168670478Y-65476192D01*
X168670478Y-65476192D02*
X168669974Y-65406413D01*
X168669974Y-65406413D02*
X168667704Y-65354159D01*
X168667704Y-65354159D02*
X168662732Y-65317949D01*
X168662732Y-65317949D02*
X168654087Y-65291299D01*
X168654087Y-65291299D02*
X168640795Y-65267722D01*
X168640795Y-65267722D02*
X168637857Y-65263338D01*
X168637857Y-65263338D02*
X168588487Y-65204249D01*
X168588487Y-65204249D02*
X168534691Y-65169947D01*
X168534691Y-65169947D02*
X168469198Y-65156331D01*
X168469198Y-65156331D02*
X168446958Y-65155665D01*
X168446958Y-65155665D02*
X168363685Y-65167962D01*
X168363685Y-65167962D02*
X168363685Y-65167962D01*
G36*
X168670501Y-65496935D02*
G01*
X168669714Y-65567119D01*
X168667010Y-65616022D01*
X168661406Y-65650178D01*
X168651919Y-65676124D01*
X168637568Y-65700397D01*
X168634037Y-65705433D01*
X168596678Y-65745143D01*
X168554111Y-65775092D01*
X168532252Y-65784810D01*
X168453708Y-65801020D01*
X168376031Y-65790535D01*
X168304445Y-65754707D01*
X168244174Y-65694887D01*
X168239086Y-65686873D01*
X168222530Y-65640342D01*
X168211373Y-65575552D01*
X168205960Y-65500727D01*
X168206568Y-65431513D01*
X168353048Y-65431513D01*
X168354202Y-65527399D01*
X168354666Y-65533569D01*
X168361429Y-65586478D01*
X168373471Y-65620029D01*
X168393805Y-65643016D01*
X168427897Y-65664548D01*
X168461614Y-65665680D01*
X168496343Y-65640857D01*
X168502384Y-65634325D01*
X168514217Y-65614779D01*
X168521204Y-65586386D01*
X168524527Y-65542430D01*
X168525371Y-65476192D01*
X168523925Y-65414150D01*
X168516707Y-65355042D01*
X168501806Y-65317686D01*
X168477436Y-65298152D01*
X168441808Y-65292514D01*
X168428240Y-65293635D01*
X168390230Y-65314194D01*
X168365112Y-65360299D01*
X168353048Y-65431513D01*
X168206568Y-65431513D01*
X168206633Y-65424096D01*
X168213737Y-65353882D01*
X168227615Y-65298312D01*
X168245449Y-65261301D01*
X168295655Y-65203733D01*
X168363685Y-65167962D01*
X168446958Y-65155665D01*
X168469198Y-65156331D01*
X168534691Y-65169947D01*
X168588487Y-65204249D01*
X168637857Y-65263338D01*
X168640795Y-65267722D01*
X168654087Y-65291299D01*
X168662732Y-65317949D01*
X168667704Y-65354159D01*
X168669974Y-65406413D01*
X168670478Y-65476192D01*
X168670514Y-65481200D01*
X168670501Y-65496935D01*
G37*
X168670501Y-65496935D02*
X168669714Y-65567119D01*
X168667010Y-65616022D01*
X168661406Y-65650178D01*
X168651919Y-65676124D01*
X168637568Y-65700397D01*
X168634037Y-65705433D01*
X168596678Y-65745143D01*
X168554111Y-65775092D01*
X168532252Y-65784810D01*
X168453708Y-65801020D01*
X168376031Y-65790535D01*
X168304445Y-65754707D01*
X168244174Y-65694887D01*
X168239086Y-65686873D01*
X168222530Y-65640342D01*
X168211373Y-65575552D01*
X168205960Y-65500727D01*
X168206568Y-65431513D01*
X168353048Y-65431513D01*
X168354202Y-65527399D01*
X168354666Y-65533569D01*
X168361429Y-65586478D01*
X168373471Y-65620029D01*
X168393805Y-65643016D01*
X168427897Y-65664548D01*
X168461614Y-65665680D01*
X168496343Y-65640857D01*
X168502384Y-65634325D01*
X168514217Y-65614779D01*
X168521204Y-65586386D01*
X168524527Y-65542430D01*
X168525371Y-65476192D01*
X168523925Y-65414150D01*
X168516707Y-65355042D01*
X168501806Y-65317686D01*
X168477436Y-65298152D01*
X168441808Y-65292514D01*
X168428240Y-65293635D01*
X168390230Y-65314194D01*
X168365112Y-65360299D01*
X168353048Y-65431513D01*
X168206568Y-65431513D01*
X168206633Y-65424096D01*
X168213737Y-65353882D01*
X168227615Y-65298312D01*
X168245449Y-65261301D01*
X168295655Y-65203733D01*
X168363685Y-65167962D01*
X168446958Y-65155665D01*
X168469198Y-65156331D01*
X168534691Y-65169947D01*
X168588487Y-65204249D01*
X168637857Y-65263338D01*
X168640795Y-65267722D01*
X168654087Y-65291299D01*
X168662732Y-65317949D01*
X168667704Y-65354159D01*
X168669974Y-65406413D01*
X168670478Y-65476192D01*
X168670514Y-65481200D01*
X168670501Y-65496935D01*
X166028914Y-65097289D02*
X166024661Y-65156613D01*
X166024661Y-65156613D02*
X166019775Y-65191572D01*
X166019775Y-65191572D02*
X166013005Y-65206820D01*
X166013005Y-65206820D02*
X166003098Y-65207015D01*
X166003098Y-65207015D02*
X165999886Y-65205195D01*
X165999886Y-65205195D02*
X165957156Y-65192015D01*
X165957156Y-65192015D02*
X165901573Y-65192785D01*
X165901573Y-65192785D02*
X165845063Y-65206333D01*
X165845063Y-65206333D02*
X165809718Y-65223861D01*
X165809718Y-65223861D02*
X165773479Y-65251861D01*
X165773479Y-65251861D02*
X165746987Y-65283549D01*
X165746987Y-65283549D02*
X165728801Y-65323813D01*
X165728801Y-65323813D02*
X165717478Y-65377543D01*
X165717478Y-65377543D02*
X165711578Y-65449626D01*
X165711578Y-65449626D02*
X165709657Y-65544951D01*
X165709657Y-65544951D02*
X165709623Y-65563237D01*
X165709623Y-65563237D02*
X165709600Y-65768646D01*
X165709600Y-65768646D02*
X165755309Y-65784580D01*
X165755309Y-65784580D02*
X165787773Y-65795420D01*
X165787773Y-65795420D02*
X165805585Y-65800468D01*
X165805585Y-65800468D02*
X165806109Y-65800514D01*
X165806109Y-65800514D02*
X165807863Y-65786828D01*
X165807863Y-65786828D02*
X165809356Y-65749076D01*
X165809356Y-65749076D02*
X165810474Y-65692224D01*
X165810474Y-65692224D02*
X165811103Y-65621234D01*
X165811103Y-65621234D02*
X165811200Y-65578073D01*
X165811200Y-65578073D02*
X165811402Y-65492973D01*
X165811402Y-65492973D02*
X165812442Y-65431981D01*
X165812442Y-65431981D02*
X165814969Y-65390177D01*
X165814969Y-65390177D02*
X165819636Y-65362642D01*
X165819636Y-65362642D02*
X165827093Y-65344456D01*
X165827093Y-65344456D02*
X165837989Y-65330698D01*
X165837989Y-65330698D02*
X165844793Y-65324073D01*
X165844793Y-65324073D02*
X165891528Y-65297375D01*
X165891528Y-65297375D02*
X165942528Y-65295375D01*
X165942528Y-65295375D02*
X165988799Y-65317955D01*
X165988799Y-65317955D02*
X165997356Y-65326107D01*
X165997356Y-65326107D02*
X166009907Y-65341436D01*
X166009907Y-65341436D02*
X166018612Y-65359618D01*
X166018612Y-65359618D02*
X166024169Y-65385909D01*
X166024169Y-65385909D02*
X166027274Y-65425562D01*
X166027274Y-65425562D02*
X166028624Y-65483832D01*
X166028624Y-65483832D02*
X166028914Y-65564173D01*
X166028914Y-65564173D02*
X166028914Y-65768646D01*
X166028914Y-65768646D02*
X166074623Y-65784580D01*
X166074623Y-65784580D02*
X166107087Y-65795420D01*
X166107087Y-65795420D02*
X166124899Y-65800468D01*
X166124899Y-65800468D02*
X166125423Y-65800514D01*
X166125423Y-65800514D02*
X166126763Y-65786623D01*
X166126763Y-65786623D02*
X166127972Y-65747439D01*
X166127972Y-65747439D02*
X166128999Y-65686700D01*
X166128999Y-65686700D02*
X166129798Y-65608141D01*
X166129798Y-65608141D02*
X166130319Y-65515498D01*
X166130319Y-65515498D02*
X166130514Y-65412509D01*
X166130514Y-65412509D02*
X166130514Y-65015342D01*
X166130514Y-65015342D02*
X166083343Y-64995444D01*
X166083343Y-64995444D02*
X166036171Y-64975547D01*
X166036171Y-64975547D02*
X166028914Y-65097289D01*
X166028914Y-65097289D02*
X166028914Y-65097289D01*
G36*
X166083343Y-64995444D02*
G01*
X166130514Y-65015342D01*
X166130514Y-65412509D01*
X166130319Y-65515498D01*
X166129798Y-65608141D01*
X166128999Y-65686700D01*
X166127972Y-65747439D01*
X166126763Y-65786623D01*
X166125423Y-65800514D01*
X166124899Y-65800468D01*
X166107087Y-65795420D01*
X166074623Y-65784580D01*
X166028914Y-65768646D01*
X166028914Y-65564173D01*
X166028624Y-65483832D01*
X166027274Y-65425562D01*
X166024169Y-65385909D01*
X166018612Y-65359618D01*
X166009907Y-65341436D01*
X165997356Y-65326107D01*
X165988799Y-65317955D01*
X165942528Y-65295375D01*
X165891528Y-65297375D01*
X165844793Y-65324073D01*
X165837989Y-65330698D01*
X165827093Y-65344456D01*
X165819636Y-65362642D01*
X165814969Y-65390177D01*
X165812442Y-65431981D01*
X165811402Y-65492973D01*
X165811200Y-65578073D01*
X165811103Y-65621234D01*
X165810474Y-65692224D01*
X165809356Y-65749076D01*
X165807863Y-65786828D01*
X165806109Y-65800514D01*
X165805585Y-65800468D01*
X165787773Y-65795420D01*
X165755309Y-65784580D01*
X165709600Y-65768646D01*
X165709623Y-65563237D01*
X165709657Y-65544951D01*
X165711578Y-65449626D01*
X165717478Y-65377543D01*
X165728801Y-65323813D01*
X165746987Y-65283549D01*
X165773479Y-65251861D01*
X165809718Y-65223861D01*
X165845063Y-65206333D01*
X165901573Y-65192785D01*
X165957156Y-65192015D01*
X165999886Y-65205195D01*
X166003098Y-65207015D01*
X166013005Y-65206820D01*
X166019775Y-65191572D01*
X166024661Y-65156613D01*
X166028914Y-65097289D01*
X166036171Y-64975547D01*
X166083343Y-64995444D01*
G37*
X166083343Y-64995444D02*
X166130514Y-65015342D01*
X166130514Y-65412509D01*
X166130319Y-65515498D01*
X166129798Y-65608141D01*
X166128999Y-65686700D01*
X166127972Y-65747439D01*
X166126763Y-65786623D01*
X166125423Y-65800514D01*
X166124899Y-65800468D01*
X166107087Y-65795420D01*
X166074623Y-65784580D01*
X166028914Y-65768646D01*
X166028914Y-65564173D01*
X166028624Y-65483832D01*
X166027274Y-65425562D01*
X166024169Y-65385909D01*
X166018612Y-65359618D01*
X166009907Y-65341436D01*
X165997356Y-65326107D01*
X165988799Y-65317955D01*
X165942528Y-65295375D01*
X165891528Y-65297375D01*
X165844793Y-65324073D01*
X165837989Y-65330698D01*
X165827093Y-65344456D01*
X165819636Y-65362642D01*
X165814969Y-65390177D01*
X165812442Y-65431981D01*
X165811402Y-65492973D01*
X165811200Y-65578073D01*
X165811103Y-65621234D01*
X165810474Y-65692224D01*
X165809356Y-65749076D01*
X165807863Y-65786828D01*
X165806109Y-65800514D01*
X165805585Y-65800468D01*
X165787773Y-65795420D01*
X165755309Y-65784580D01*
X165709600Y-65768646D01*
X165709623Y-65563237D01*
X165709657Y-65544951D01*
X165711578Y-65449626D01*
X165717478Y-65377543D01*
X165728801Y-65323813D01*
X165746987Y-65283549D01*
X165773479Y-65251861D01*
X165809718Y-65223861D01*
X165845063Y-65206333D01*
X165901573Y-65192785D01*
X165957156Y-65192015D01*
X165999886Y-65205195D01*
X166003098Y-65207015D01*
X166013005Y-65206820D01*
X166019775Y-65191572D01*
X166024661Y-65156613D01*
X166028914Y-65097289D01*
X166036171Y-64975547D01*
X166083343Y-64995444D01*
X165365056Y-65196968D02*
X165308184Y-65218087D01*
X165308184Y-65218087D02*
X165307533Y-65218493D01*
X165307533Y-65218493D02*
X165272360Y-65244380D01*
X165272360Y-65244380D02*
X165246393Y-65274633D01*
X165246393Y-65274633D02*
X165228130Y-65314058D01*
X165228130Y-65314058D02*
X165216068Y-65367462D01*
X165216068Y-65367462D02*
X165208704Y-65439651D01*
X165208704Y-65439651D02*
X165204536Y-65535432D01*
X165204536Y-65535432D02*
X165204171Y-65549078D01*
X165204171Y-65549078D02*
X165198924Y-65754842D01*
X165198924Y-65754842D02*
X165243084Y-65777678D01*
X165243084Y-65777678D02*
X165275037Y-65793110D01*
X165275037Y-65793110D02*
X165294330Y-65800423D01*
X165294330Y-65800423D02*
X165295222Y-65800514D01*
X165295222Y-65800514D02*
X165298561Y-65787022D01*
X165298561Y-65787022D02*
X165301213Y-65750626D01*
X165301213Y-65750626D02*
X165302844Y-65697452D01*
X165302844Y-65697452D02*
X165303200Y-65654393D01*
X165303200Y-65654393D02*
X165303208Y-65584641D01*
X165303208Y-65584641D02*
X165306397Y-65540837D01*
X165306397Y-65540837D02*
X165317512Y-65519944D01*
X165317512Y-65519944D02*
X165341299Y-65518925D01*
X165341299Y-65518925D02*
X165382504Y-65534741D01*
X165382504Y-65534741D02*
X165444714Y-65563815D01*
X165444714Y-65563815D02*
X165490459Y-65587963D01*
X165490459Y-65587963D02*
X165513987Y-65608913D01*
X165513987Y-65608913D02*
X165520904Y-65631747D01*
X165520904Y-65631747D02*
X165520914Y-65632877D01*
X165520914Y-65632877D02*
X165509501Y-65672212D01*
X165509501Y-65672212D02*
X165475708Y-65693462D01*
X165475708Y-65693462D02*
X165423991Y-65696539D01*
X165423991Y-65696539D02*
X165386739Y-65696006D01*
X165386739Y-65696006D02*
X165367097Y-65706735D01*
X165367097Y-65706735D02*
X165354848Y-65732505D01*
X165354848Y-65732505D02*
X165347798Y-65765337D01*
X165347798Y-65765337D02*
X165357958Y-65783966D01*
X165357958Y-65783966D02*
X165361783Y-65786632D01*
X165361783Y-65786632D02*
X165397799Y-65797340D01*
X165397799Y-65797340D02*
X165448234Y-65798856D01*
X165448234Y-65798856D02*
X165500174Y-65791759D01*
X165500174Y-65791759D02*
X165536978Y-65778788D01*
X165536978Y-65778788D02*
X165587862Y-65735585D01*
X165587862Y-65735585D02*
X165616786Y-65675446D01*
X165616786Y-65675446D02*
X165622514Y-65628462D01*
X165622514Y-65628462D02*
X165618143Y-65586082D01*
X165618143Y-65586082D02*
X165602325Y-65551488D01*
X165602325Y-65551488D02*
X165571003Y-65520763D01*
X165571003Y-65520763D02*
X165520122Y-65489990D01*
X165520122Y-65489990D02*
X165445624Y-65455252D01*
X165445624Y-65455252D02*
X165441086Y-65453288D01*
X165441086Y-65453288D02*
X165373979Y-65422287D01*
X165373979Y-65422287D02*
X165332568Y-65396862D01*
X165332568Y-65396862D02*
X165314819Y-65374014D01*
X165314819Y-65374014D02*
X165318693Y-65350745D01*
X165318693Y-65350745D02*
X165342157Y-65324056D01*
X165342157Y-65324056D02*
X165349173Y-65317914D01*
X165349173Y-65317914D02*
X165396170Y-65294100D01*
X165396170Y-65294100D02*
X165444867Y-65295103D01*
X165444867Y-65295103D02*
X165487278Y-65318451D01*
X165487278Y-65318451D02*
X165515416Y-65361675D01*
X165515416Y-65361675D02*
X165518031Y-65370160D01*
X165518031Y-65370160D02*
X165543492Y-65411308D01*
X165543492Y-65411308D02*
X165575799Y-65431128D01*
X165575799Y-65431128D02*
X165622514Y-65450770D01*
X165622514Y-65450770D02*
X165622514Y-65399950D01*
X165622514Y-65399950D02*
X165608304Y-65326082D01*
X165608304Y-65326082D02*
X165566125Y-65258327D01*
X165566125Y-65258327D02*
X165544176Y-65235661D01*
X165544176Y-65235661D02*
X165494283Y-65206569D01*
X165494283Y-65206569D02*
X165430833Y-65193400D01*
X165430833Y-65193400D02*
X165365056Y-65196968D01*
X165365056Y-65196968D02*
X165365056Y-65196968D01*
G36*
X165494283Y-65206569D02*
G01*
X165544176Y-65235661D01*
X165566125Y-65258327D01*
X165608304Y-65326082D01*
X165622514Y-65399950D01*
X165622514Y-65450770D01*
X165575799Y-65431128D01*
X165543492Y-65411308D01*
X165518031Y-65370160D01*
X165515416Y-65361675D01*
X165487278Y-65318451D01*
X165444867Y-65295103D01*
X165396170Y-65294100D01*
X165349173Y-65317914D01*
X165342157Y-65324056D01*
X165318693Y-65350745D01*
X165314819Y-65374014D01*
X165332568Y-65396862D01*
X165373979Y-65422287D01*
X165441086Y-65453288D01*
X165445624Y-65455252D01*
X165520122Y-65489990D01*
X165571003Y-65520763D01*
X165602325Y-65551488D01*
X165618143Y-65586082D01*
X165622514Y-65628462D01*
X165616786Y-65675446D01*
X165587862Y-65735585D01*
X165536978Y-65778788D01*
X165500174Y-65791759D01*
X165448234Y-65798856D01*
X165397799Y-65797340D01*
X165361783Y-65786632D01*
X165357958Y-65783966D01*
X165347798Y-65765337D01*
X165354848Y-65732505D01*
X165367097Y-65706735D01*
X165386739Y-65696006D01*
X165423991Y-65696539D01*
X165475708Y-65693462D01*
X165509501Y-65672212D01*
X165520914Y-65632877D01*
X165520904Y-65631747D01*
X165513987Y-65608913D01*
X165490459Y-65587963D01*
X165444714Y-65563815D01*
X165382504Y-65534741D01*
X165341299Y-65518925D01*
X165317512Y-65519944D01*
X165306397Y-65540837D01*
X165303208Y-65584641D01*
X165303200Y-65654393D01*
X165302844Y-65697452D01*
X165301213Y-65750626D01*
X165298561Y-65787022D01*
X165295222Y-65800514D01*
X165294330Y-65800423D01*
X165275037Y-65793110D01*
X165243084Y-65777678D01*
X165198924Y-65754842D01*
X165204171Y-65549078D01*
X165204536Y-65535432D01*
X165208704Y-65439651D01*
X165216068Y-65367462D01*
X165228130Y-65314058D01*
X165246393Y-65274633D01*
X165272360Y-65244380D01*
X165307533Y-65218493D01*
X165308184Y-65218087D01*
X165365056Y-65196968D01*
X165430833Y-65193400D01*
X165494283Y-65206569D01*
G37*
X165494283Y-65206569D02*
X165544176Y-65235661D01*
X165566125Y-65258327D01*
X165608304Y-65326082D01*
X165622514Y-65399950D01*
X165622514Y-65450770D01*
X165575799Y-65431128D01*
X165543492Y-65411308D01*
X165518031Y-65370160D01*
X165515416Y-65361675D01*
X165487278Y-65318451D01*
X165444867Y-65295103D01*
X165396170Y-65294100D01*
X165349173Y-65317914D01*
X165342157Y-65324056D01*
X165318693Y-65350745D01*
X165314819Y-65374014D01*
X165332568Y-65396862D01*
X165373979Y-65422287D01*
X165441086Y-65453288D01*
X165445624Y-65455252D01*
X165520122Y-65489990D01*
X165571003Y-65520763D01*
X165602325Y-65551488D01*
X165618143Y-65586082D01*
X165622514Y-65628462D01*
X165616786Y-65675446D01*
X165587862Y-65735585D01*
X165536978Y-65778788D01*
X165500174Y-65791759D01*
X165448234Y-65798856D01*
X165397799Y-65797340D01*
X165361783Y-65786632D01*
X165357958Y-65783966D01*
X165347798Y-65765337D01*
X165354848Y-65732505D01*
X165367097Y-65706735D01*
X165386739Y-65696006D01*
X165423991Y-65696539D01*
X165475708Y-65693462D01*
X165509501Y-65672212D01*
X165520914Y-65632877D01*
X165520904Y-65631747D01*
X165513987Y-65608913D01*
X165490459Y-65587963D01*
X165444714Y-65563815D01*
X165382504Y-65534741D01*
X165341299Y-65518925D01*
X165317512Y-65519944D01*
X165306397Y-65540837D01*
X165303208Y-65584641D01*
X165303200Y-65654393D01*
X165302844Y-65697452D01*
X165301213Y-65750626D01*
X165298561Y-65787022D01*
X165295222Y-65800514D01*
X165294330Y-65800423D01*
X165275037Y-65793110D01*
X165243084Y-65777678D01*
X165198924Y-65754842D01*
X165204171Y-65549078D01*
X165204536Y-65535432D01*
X165208704Y-65439651D01*
X165216068Y-65367462D01*
X165228130Y-65314058D01*
X165246393Y-65274633D01*
X165272360Y-65244380D01*
X165307533Y-65218493D01*
X165308184Y-65218087D01*
X165365056Y-65196968D01*
X165430833Y-65193400D01*
X165494283Y-65206569D01*
D14*
%TO.C,J12*%
X154850000Y-116167666D02*
X154850000Y-110387666D01*
X148990000Y-116407666D02*
X148990000Y-116007666D01*
X149630000Y-116407666D02*
X148990000Y-116407666D01*
X155970000Y-110387666D02*
X149230000Y-110387666D01*
X155970000Y-116167666D02*
X155970000Y-110387666D01*
X149750000Y-116167666D02*
X149750000Y-110387666D01*
X155970000Y-116167666D02*
X149230000Y-116167666D01*
X149230000Y-116167666D02*
X149230000Y-110387666D01*
%TO.C,D7*%
X169634000Y-104979800D02*
X171919000Y-104979800D01*
X171919000Y-104979800D02*
X171919000Y-106449800D01*
X171919000Y-106449800D02*
X169634000Y-106449800D01*
%TO.C,D8*%
X152423800Y-32943800D02*
X152423800Y-34632800D01*
D16*
X150953800Y-32347800D02*
X152423800Y-32347800D01*
D14*
X150953800Y-34632800D02*
X150953800Y-32943800D01*
%TO.C,D1*%
X144438000Y-79021000D02*
X146723000Y-79021000D01*
X144438000Y-80491000D02*
X144438000Y-79021000D01*
X146723000Y-80491000D02*
X144438000Y-80491000D01*
%TO.C,LS1*%
X161675000Y-73914000D02*
G75*
G03*
X161675000Y-73914000I-6100000J0D01*
G01*
%TO.C,J6*%
X160010000Y-94091000D02*
X160010000Y-85661000D01*
X157140000Y-95361000D02*
X155540000Y-95361000D01*
X157140000Y-84391000D02*
X155540000Y-84391000D01*
X155540000Y-95361000D02*
X155540000Y-93561000D01*
X155540000Y-93561000D02*
X154600000Y-93561000D01*
X155540000Y-84391000D02*
X155540000Y-86191000D01*
%TO.C,J13*%
X155970000Y-104021000D02*
X155970000Y-98241000D01*
X154850000Y-104021000D02*
X154850000Y-98241000D01*
X149630000Y-104261000D02*
X148990000Y-104261000D01*
X149230000Y-104021000D02*
X149230000Y-98241000D01*
X148990000Y-104261000D02*
X148990000Y-103861000D01*
X155970000Y-104021000D02*
X149230000Y-104021000D01*
X155970000Y-98241000D02*
X149230000Y-98241000D01*
X149750000Y-104021000D02*
X149750000Y-98241000D01*
%TO.C,J3*%
X156192800Y-116439200D02*
X162932800Y-116439200D01*
X162532800Y-116199200D02*
X163172800Y-116199200D01*
X162412800Y-116439200D02*
X162412800Y-122219200D01*
X156192800Y-122219200D02*
X162932800Y-122219200D01*
X157312800Y-116439200D02*
X157312800Y-122219200D01*
X162932800Y-116439200D02*
X162932800Y-122219200D01*
X156192800Y-116439200D02*
X156192800Y-122219200D01*
X163172800Y-116199200D02*
X163172800Y-116599200D01*
D18*
%TO.C,D9*%
X157202000Y-37693600D02*
G75*
G03*
X157202000Y-37693600I-50000J0D01*
G01*
D14*
%TO.C,D13*%
X170047471Y-60185300D02*
X168534529Y-60185300D01*
X170047471Y-57924700D02*
X168534529Y-57924700D01*
%TO.C,G\u002A\u002A\u002A*%
G36*
X155851294Y-56441073D02*
G01*
X155857985Y-56486263D01*
X155869800Y-56566124D01*
X155885724Y-56673811D01*
X155905418Y-56807027D01*
X155928544Y-56963475D01*
X155954760Y-57140855D01*
X155983728Y-57336872D01*
X156015108Y-57549225D01*
X156048560Y-57775619D01*
X156083745Y-58013754D01*
X156120323Y-58261333D01*
X156157955Y-58516059D01*
X156196301Y-58775632D01*
X156198168Y-58788273D01*
X156235683Y-59042125D01*
X156271982Y-59287554D01*
X156306769Y-59522585D01*
X156339753Y-59745241D01*
X156370639Y-59953548D01*
X156399134Y-60145529D01*
X156424944Y-60319208D01*
X156447775Y-60472609D01*
X156467335Y-60603757D01*
X156483328Y-60710675D01*
X156495462Y-60791388D01*
X156503443Y-60843920D01*
X156506977Y-60866294D01*
X156507541Y-60868894D01*
X156512834Y-60881846D01*
X156523999Y-60898229D01*
X156542821Y-60919562D01*
X156571083Y-60947362D01*
X156610569Y-60983148D01*
X156663061Y-61028437D01*
X156730343Y-61084748D01*
X156814199Y-61153598D01*
X156916413Y-61236507D01*
X157038766Y-61334991D01*
X157183044Y-61450570D01*
X157351029Y-61584760D01*
X158185488Y-62250735D01*
X158153177Y-62332711D01*
X158140426Y-62365672D01*
X158126341Y-62404137D01*
X158120865Y-62422205D01*
X158107865Y-62423596D01*
X158065422Y-62425031D01*
X157996595Y-62426332D01*
X157904578Y-62427468D01*
X157792565Y-62428407D01*
X157663751Y-62429118D01*
X157521330Y-62429567D01*
X157368496Y-62429724D01*
X156616127Y-62429724D01*
X156511814Y-62673043D01*
X156407502Y-62916362D01*
X155749765Y-62916301D01*
X155092029Y-62916240D01*
X154884093Y-62429724D01*
X154131379Y-62429724D01*
X153991869Y-62429594D01*
X153848345Y-62429169D01*
X153718139Y-62428481D01*
X153604445Y-62427562D01*
X153510457Y-62426442D01*
X153439369Y-62425155D01*
X153394373Y-62423732D01*
X153378665Y-62422205D01*
X153376113Y-62412798D01*
X153364482Y-62379987D01*
X153346624Y-62333397D01*
X153314583Y-62252109D01*
X154149954Y-61584856D01*
X154187773Y-61554643D01*
X154350680Y-61424339D01*
X154490261Y-61312338D01*
X154608292Y-61217123D01*
X154706554Y-61137182D01*
X154786825Y-61070999D01*
X154850883Y-61017059D01*
X154900507Y-60973847D01*
X154937474Y-60939850D01*
X154963565Y-60913551D01*
X154980557Y-60893437D01*
X154990230Y-60877993D01*
X154994360Y-60865704D01*
X154997405Y-60845989D01*
X155004900Y-60796113D01*
X155016487Y-60718485D01*
X155031834Y-60615337D01*
X155050613Y-60488900D01*
X155072493Y-60341407D01*
X155097144Y-60175090D01*
X155124237Y-59992180D01*
X155153442Y-59794910D01*
X155184429Y-59585511D01*
X155216868Y-59366215D01*
X155250429Y-59139255D01*
X155284783Y-58906863D01*
X155319601Y-58671269D01*
X155354551Y-58434707D01*
X155389304Y-58199408D01*
X155423531Y-57967605D01*
X155456902Y-57741528D01*
X155489086Y-57523411D01*
X155519755Y-57315484D01*
X155548577Y-57119981D01*
X155575225Y-56939133D01*
X155599367Y-56775172D01*
X155620673Y-56630330D01*
X155638815Y-56506838D01*
X155653462Y-56406930D01*
X155664285Y-56332836D01*
X155670953Y-56286789D01*
X155691310Y-56144686D01*
X155807371Y-56144686D01*
X155851294Y-56441073D01*
G37*
G36*
X160570067Y-65358881D02*
G01*
X160579606Y-65384884D01*
X160584000Y-65400338D01*
X160607030Y-65543688D01*
X160600064Y-65686274D01*
X160565191Y-65824437D01*
X160504500Y-65954515D01*
X160420081Y-66072848D01*
X160314024Y-66175776D01*
X160188418Y-66259638D01*
X160045353Y-66320773D01*
X160035262Y-66322716D01*
X160013548Y-66324798D01*
X159980030Y-66326720D01*
X159933674Y-66328487D01*
X159873446Y-66330103D01*
X159798313Y-66331572D01*
X159707240Y-66332899D01*
X159599193Y-66334087D01*
X159473140Y-66335141D01*
X159328046Y-66336066D01*
X159162876Y-66336865D01*
X158976599Y-66337543D01*
X158768178Y-66338104D01*
X158536582Y-66338552D01*
X158280775Y-66338892D01*
X157999725Y-66339128D01*
X157692396Y-66339264D01*
X157357757Y-66339304D01*
X156994771Y-66339253D01*
X156602407Y-66339115D01*
X156179629Y-66338894D01*
X155725404Y-66338595D01*
X151470417Y-66335543D01*
X151346948Y-66276578D01*
X151334880Y-66270699D01*
X151200129Y-66186942D01*
X151087490Y-66082201D01*
X150998988Y-65959888D01*
X150936650Y-65823413D01*
X150902502Y-65676190D01*
X150900589Y-65600956D01*
X151746738Y-65600956D01*
X151760505Y-65603645D01*
X151803929Y-65606629D01*
X151871595Y-65608795D01*
X151958777Y-65610050D01*
X152060751Y-65610300D01*
X152172792Y-65609449D01*
X152574765Y-65604466D01*
X152948113Y-65450311D01*
X152957548Y-65446413D01*
X153079564Y-65395347D01*
X153173953Y-65354345D01*
X153243319Y-65322139D01*
X153290263Y-65297462D01*
X153317389Y-65279045D01*
X153327300Y-65265622D01*
X153328492Y-65249407D01*
X153320253Y-65231516D01*
X153296432Y-65219375D01*
X153252815Y-65211947D01*
X153185186Y-65208195D01*
X153089330Y-65207083D01*
X153082890Y-65207070D01*
X152981284Y-65205043D01*
X152908330Y-65199095D01*
X152860538Y-65188474D01*
X152834422Y-65172422D01*
X152826491Y-65150185D01*
X152826899Y-65146151D01*
X152844364Y-65126582D01*
X152888588Y-65111719D01*
X152960945Y-65101349D01*
X153062808Y-65095261D01*
X153195548Y-65093242D01*
X153442802Y-65093151D01*
X153447275Y-65348938D01*
X153451747Y-65604724D01*
X153833397Y-65607652D01*
X153899630Y-65608032D01*
X154002880Y-65608085D01*
X154092886Y-65607468D01*
X154164837Y-65606244D01*
X154213927Y-65604480D01*
X154235347Y-65602238D01*
X154236981Y-65601261D01*
X154244272Y-65585889D01*
X154249570Y-65550957D01*
X154253089Y-65493238D01*
X154255044Y-65409507D01*
X154255647Y-65296541D01*
X154255625Y-65263301D01*
X154255075Y-65164860D01*
X154253519Y-65093325D01*
X154253467Y-65092450D01*
X154775341Y-65092450D01*
X155087968Y-65096861D01*
X155400596Y-65101272D01*
X155406896Y-65296541D01*
X155408717Y-65352998D01*
X155416837Y-65604724D01*
X155798486Y-65607652D01*
X155864719Y-65608032D01*
X155967970Y-65608085D01*
X156057975Y-65607468D01*
X156129927Y-65606244D01*
X156179017Y-65604480D01*
X156200436Y-65602238D01*
X156206247Y-65595751D01*
X156212978Y-65569726D01*
X156217462Y-65521231D01*
X156219962Y-65446939D01*
X156220737Y-65343524D01*
X156220737Y-65141089D01*
X157329993Y-65141089D01*
X157332063Y-65178610D01*
X157359383Y-65213242D01*
X157415081Y-65250381D01*
X157431836Y-65259311D01*
X157472190Y-65276360D01*
X157520168Y-65290062D01*
X157579318Y-65300747D01*
X157653189Y-65308747D01*
X157745330Y-65314393D01*
X157859289Y-65318016D01*
X157998615Y-65319947D01*
X158166856Y-65320517D01*
X158656798Y-65320517D01*
X158656798Y-65273533D01*
X158650948Y-65239897D01*
X158631109Y-65216692D01*
X158610674Y-65213270D01*
X158563085Y-65209936D01*
X158497306Y-65207670D01*
X158421041Y-65206834D01*
X158347663Y-65205912D01*
X158259070Y-65200629D01*
X158198744Y-65190229D01*
X158164298Y-65174226D01*
X158153346Y-65152132D01*
X158154799Y-65141718D01*
X158165025Y-65127977D01*
X158188366Y-65117585D01*
X158228693Y-65109904D01*
X158289882Y-65104299D01*
X158375805Y-65100133D01*
X158490334Y-65096770D01*
X158770481Y-65089937D01*
X158770481Y-65341533D01*
X158770679Y-65412836D01*
X158771873Y-65490335D01*
X158774555Y-65543381D01*
X158779190Y-65576693D01*
X158786240Y-65594988D01*
X158796170Y-65602987D01*
X158804101Y-65604601D01*
X158841231Y-65607483D01*
X158901609Y-65609721D01*
X158979660Y-65611321D01*
X159069813Y-65612291D01*
X159166496Y-65612638D01*
X159264137Y-65612368D01*
X159357163Y-65611489D01*
X159440002Y-65610008D01*
X159507081Y-65607930D01*
X159552830Y-65605265D01*
X159571675Y-65602017D01*
X159574931Y-65585000D01*
X159577960Y-65540369D01*
X159580358Y-65473627D01*
X159581934Y-65390119D01*
X159582502Y-65295187D01*
X159582481Y-65263887D01*
X159581942Y-65165234D01*
X159580394Y-65093546D01*
X159577474Y-65044466D01*
X159572814Y-65013639D01*
X159566049Y-64996711D01*
X159556813Y-64989326D01*
X159551377Y-64988252D01*
X159516540Y-64985860D01*
X159454238Y-64983882D01*
X159368057Y-64982309D01*
X159261579Y-64981127D01*
X159138390Y-64980324D01*
X159002071Y-64979888D01*
X158856209Y-64979806D01*
X158704385Y-64980067D01*
X158550185Y-64980658D01*
X158397192Y-64981567D01*
X158248990Y-64982782D01*
X158109164Y-64984290D01*
X157981296Y-64986079D01*
X157868970Y-64988137D01*
X157775771Y-64990452D01*
X157705283Y-64993012D01*
X157661089Y-64995803D01*
X157542482Y-65012492D01*
X157443899Y-65038989D01*
X157375632Y-65074168D01*
X157359367Y-65093151D01*
X157338229Y-65117822D01*
X157329993Y-65141089D01*
X156220737Y-65141089D01*
X156220737Y-65093151D01*
X156821632Y-65093151D01*
X156821632Y-65046168D01*
X156815782Y-65012531D01*
X156795943Y-64989326D01*
X156776820Y-64987620D01*
X156727855Y-64985944D01*
X156652118Y-64984399D01*
X156552520Y-64983012D01*
X156431971Y-64981813D01*
X156293383Y-64980830D01*
X156139665Y-64980093D01*
X155973730Y-64979629D01*
X155798486Y-64979468D01*
X155629871Y-64979617D01*
X155463521Y-64980070D01*
X155309276Y-64980797D01*
X155170048Y-64981771D01*
X155048747Y-64982962D01*
X154948284Y-64984342D01*
X154871570Y-64985882D01*
X154821515Y-64987553D01*
X154801029Y-64989326D01*
X154783898Y-65006545D01*
X154775341Y-65045817D01*
X154775341Y-65092450D01*
X154253467Y-65092450D01*
X154250592Y-65044349D01*
X154245933Y-65013588D01*
X154239176Y-64996695D01*
X154229959Y-64989326D01*
X154224505Y-64988246D01*
X154189625Y-64985842D01*
X154127280Y-64983858D01*
X154041052Y-64982281D01*
X153934524Y-64981099D01*
X153811280Y-64980299D01*
X153674902Y-64979869D01*
X153528973Y-64979796D01*
X153377075Y-64980068D01*
X153222792Y-64980672D01*
X153069705Y-64981595D01*
X152921399Y-64982826D01*
X152781455Y-64984352D01*
X152653456Y-64986159D01*
X152540986Y-64988237D01*
X152447627Y-64990571D01*
X152376961Y-64993150D01*
X152332572Y-64995960D01*
X152326274Y-64996588D01*
X152204942Y-65015633D01*
X152111805Y-65043661D01*
X152047242Y-65078428D01*
X152011628Y-65117688D01*
X152005343Y-65159194D01*
X152028762Y-65200701D01*
X152082263Y-65239963D01*
X152166224Y-65274735D01*
X152281022Y-65302770D01*
X152324688Y-65311264D01*
X152364909Y-65320273D01*
X152382550Y-65325894D01*
X152380301Y-65327778D01*
X152355240Y-65339536D01*
X152305968Y-65360314D01*
X152236732Y-65388379D01*
X152151778Y-65421999D01*
X152055355Y-65459438D01*
X152042568Y-65464367D01*
X151925723Y-65510324D01*
X151838665Y-65546527D01*
X151780448Y-65573410D01*
X151750122Y-65591408D01*
X151746738Y-65600956D01*
X150900589Y-65600956D01*
X150898571Y-65521630D01*
X150900719Y-65495357D01*
X150903693Y-65469161D01*
X150908305Y-65441959D01*
X150915466Y-65411339D01*
X150926090Y-65374891D01*
X150941090Y-65330203D01*
X150961377Y-65274863D01*
X150987865Y-65206460D01*
X151021466Y-65122584D01*
X151063093Y-65020822D01*
X151113659Y-64898763D01*
X151174075Y-64753996D01*
X151245255Y-64584110D01*
X151310709Y-64428158D01*
X151543417Y-64428158D01*
X153245496Y-64423666D01*
X154947574Y-64419174D01*
X155071731Y-64357806D01*
X155079577Y-64353881D01*
X155202118Y-64277022D01*
X155296401Y-64184397D01*
X155363038Y-64075018D01*
X155402644Y-63947895D01*
X155415830Y-63802039D01*
X155415759Y-63767147D01*
X155414290Y-63717534D01*
X155409454Y-63675014D01*
X155399314Y-63632220D01*
X155381937Y-63581783D01*
X155355386Y-63516336D01*
X155317727Y-63428509D01*
X155219455Y-63201144D01*
X155484610Y-63196691D01*
X155500232Y-63196443D01*
X155622818Y-63195222D01*
X155759957Y-63194856D01*
X155895997Y-63195346D01*
X156015289Y-63196691D01*
X156280812Y-63201144D01*
X156185154Y-63424960D01*
X156143400Y-63526802D01*
X156106722Y-63631125D01*
X156084802Y-63719396D01*
X156076555Y-63798097D01*
X156080894Y-63873709D01*
X156096735Y-63952716D01*
X156112902Y-64004735D01*
X156159423Y-64106809D01*
X156219894Y-64199840D01*
X156287322Y-64272109D01*
X156326181Y-64300269D01*
X156385332Y-64336162D01*
X156448103Y-64368986D01*
X156553665Y-64419174D01*
X158254848Y-64423666D01*
X158462213Y-64424179D01*
X158686064Y-64424654D01*
X158898679Y-64425021D01*
X159097932Y-64425282D01*
X159281700Y-64425436D01*
X159447858Y-64425485D01*
X159594281Y-64425426D01*
X159718846Y-64425262D01*
X159819428Y-64424992D01*
X159893902Y-64424616D01*
X159940145Y-64424135D01*
X159956031Y-64423548D01*
X159951574Y-64411843D01*
X159936086Y-64373778D01*
X159911111Y-64313268D01*
X159878321Y-64234346D01*
X159839389Y-64141048D01*
X159795987Y-64037407D01*
X159635942Y-63655875D01*
X157936460Y-63651740D01*
X157718282Y-63651126D01*
X157448394Y-63650103D01*
X157203281Y-63648855D01*
X156983797Y-63647393D01*
X156790799Y-63645727D01*
X156625144Y-63643865D01*
X156487687Y-63641820D01*
X156379286Y-63639600D01*
X156300797Y-63637215D01*
X156253075Y-63634675D01*
X156236977Y-63631991D01*
X156237396Y-63628393D01*
X156246688Y-63599722D01*
X156264346Y-63558984D01*
X156291714Y-63501591D01*
X157930341Y-63501591D01*
X158168412Y-63501474D01*
X158416501Y-63501072D01*
X158643980Y-63500395D01*
X158849529Y-63499457D01*
X159031829Y-63498268D01*
X159189562Y-63496841D01*
X159321408Y-63495189D01*
X159426050Y-63493322D01*
X159502167Y-63491255D01*
X159548442Y-63488997D01*
X159563555Y-63486563D01*
X159563385Y-63486113D01*
X159555004Y-63465609D01*
X159535625Y-63418851D01*
X159506663Y-63349232D01*
X159469531Y-63260146D01*
X159425645Y-63154988D01*
X159376419Y-63037151D01*
X159323267Y-62910028D01*
X159088393Y-62348522D01*
X158284824Y-62348522D01*
X158311796Y-62275748D01*
X158338768Y-62202973D01*
X158681250Y-62198606D01*
X159023732Y-62194238D01*
X158919141Y-61946572D01*
X158814551Y-61698906D01*
X157697484Y-61698906D01*
X157504658Y-61544622D01*
X158121329Y-61540369D01*
X158143934Y-61540206D01*
X158280373Y-61538940D01*
X158405502Y-61537302D01*
X158515792Y-61535372D01*
X158607716Y-61533231D01*
X158677744Y-61530959D01*
X158722348Y-61528635D01*
X158738000Y-61526341D01*
X158737323Y-61523852D01*
X158729576Y-61503374D01*
X158712890Y-61461828D01*
X158686893Y-61398326D01*
X158651219Y-61311983D01*
X158605497Y-61201914D01*
X158549359Y-61067234D01*
X158482436Y-60907056D01*
X158404359Y-60720496D01*
X158314759Y-60506667D01*
X158213268Y-60264685D01*
X158099515Y-59993663D01*
X157980194Y-59709456D01*
X157222538Y-59705235D01*
X156464881Y-59701015D01*
X156456996Y-59664634D01*
X156451562Y-59635908D01*
X156444546Y-59587653D01*
X156439982Y-59547052D01*
X157173019Y-59538931D01*
X157906055Y-59530811D01*
X157686189Y-59007058D01*
X157466322Y-58483305D01*
X156875501Y-58483305D01*
X156751801Y-58483172D01*
X156612648Y-58482535D01*
X156501556Y-58481293D01*
X156415994Y-58479361D01*
X156353434Y-58476652D01*
X156311347Y-58473080D01*
X156287203Y-58468559D01*
X156278474Y-58463004D01*
X156278415Y-58462809D01*
X156271377Y-58432994D01*
X156263190Y-58390127D01*
X156254112Y-58337550D01*
X156827452Y-58333286D01*
X157400793Y-58329021D01*
X157207195Y-57866169D01*
X157178829Y-57798375D01*
X157124424Y-57668438D01*
X157061342Y-57517861D01*
X156991989Y-57352383D01*
X156918770Y-57177743D01*
X156844092Y-56999683D01*
X156770362Y-56823941D01*
X156699985Y-56656259D01*
X156636523Y-56505067D01*
X156573094Y-56353925D01*
X156512572Y-56209678D01*
X156456568Y-56076168D01*
X156406693Y-55957238D01*
X156364560Y-55856730D01*
X156331779Y-55778485D01*
X156309961Y-55726346D01*
X156273483Y-55644447D01*
X156214111Y-55535741D01*
X156150734Y-55451779D01*
X156079526Y-55387831D01*
X155996658Y-55339168D01*
X155887341Y-55301299D01*
X155760074Y-55286843D01*
X155632774Y-55300400D01*
X155511254Y-55340645D01*
X155401326Y-55406254D01*
X155308803Y-55495901D01*
X155302992Y-55505155D01*
X155282974Y-55544673D01*
X155251677Y-55611696D01*
X155209816Y-55704579D01*
X155158106Y-55821674D01*
X155097263Y-55961334D01*
X155028002Y-56121912D01*
X154951040Y-56301761D01*
X154867092Y-56499235D01*
X154776874Y-56712685D01*
X154681101Y-56940466D01*
X154098706Y-58329021D01*
X154672062Y-58333286D01*
X155245419Y-58337550D01*
X155236340Y-58390127D01*
X155236254Y-58390627D01*
X155228058Y-58433450D01*
X155221056Y-58463004D01*
X155215880Y-58467260D01*
X155195859Y-58472033D01*
X155158534Y-58475835D01*
X155101375Y-58478753D01*
X155021853Y-58480874D01*
X154917440Y-58482282D01*
X154785606Y-58483063D01*
X154623824Y-58483305D01*
X154032798Y-58483305D01*
X153813844Y-59007058D01*
X153594891Y-59530811D01*
X154330232Y-59535034D01*
X155065573Y-59539258D01*
X155057116Y-59599996D01*
X155055982Y-59607938D01*
X155048709Y-59652221D01*
X155042494Y-59680874D01*
X155037566Y-59684594D01*
X155017779Y-59689023D01*
X154980908Y-59692784D01*
X154924755Y-59695946D01*
X154847118Y-59698580D01*
X154745800Y-59700756D01*
X154618600Y-59702544D01*
X154463318Y-59704013D01*
X154277756Y-59705235D01*
X153519181Y-59709456D01*
X153362794Y-60082985D01*
X153347789Y-60118821D01*
X153297722Y-60238360D01*
X153239286Y-60377841D01*
X153175587Y-60529852D01*
X153109730Y-60686981D01*
X153044822Y-60841819D01*
X152983968Y-60986954D01*
X152937265Y-61098534D01*
X152889485Y-61213156D01*
X152847208Y-61315072D01*
X152811854Y-61400836D01*
X152784843Y-61467002D01*
X152767595Y-61510123D01*
X152761530Y-61526755D01*
X152762023Y-61527132D01*
X152782991Y-61529341D01*
X152832304Y-61531573D01*
X152906439Y-61533751D01*
X153001877Y-61535796D01*
X153115096Y-61537633D01*
X153242575Y-61539183D01*
X153380793Y-61540369D01*
X154000056Y-61544622D01*
X153901858Y-61621764D01*
X153803659Y-61698906D01*
X152684680Y-61698906D01*
X152584841Y-61938452D01*
X152563292Y-61990454D01*
X152532255Y-62066544D01*
X152507485Y-62128763D01*
X152491102Y-62171758D01*
X152485222Y-62190178D01*
X152486670Y-62191299D01*
X152510958Y-62194822D01*
X152561529Y-62197861D01*
X152633613Y-62200245D01*
X152722436Y-62201801D01*
X152823229Y-62202358D01*
X153161015Y-62202358D01*
X153184497Y-62263260D01*
X153189180Y-62275366D01*
X153204548Y-62314512D01*
X153213474Y-62336342D01*
X153204608Y-62339044D01*
X153167640Y-62342107D01*
X153105914Y-62344717D01*
X153023709Y-62346744D01*
X152925306Y-62348056D01*
X152814987Y-62348522D01*
X152411005Y-62348522D01*
X152176197Y-62910459D01*
X152171024Y-62922839D01*
X152118219Y-63049263D01*
X152069468Y-63166060D01*
X152026184Y-63269840D01*
X151989781Y-63357214D01*
X151961670Y-63424790D01*
X151943264Y-63469180D01*
X151935976Y-63486993D01*
X151936406Y-63487431D01*
X151957548Y-63489642D01*
X152009188Y-63491712D01*
X152089664Y-63493627D01*
X152197313Y-63495372D01*
X152330471Y-63496933D01*
X152487475Y-63498295D01*
X152666663Y-63499442D01*
X152866370Y-63500360D01*
X153084934Y-63501034D01*
X153320691Y-63501449D01*
X153571979Y-63501591D01*
X155213396Y-63501591D01*
X155237974Y-63560416D01*
X155242365Y-63571153D01*
X155256750Y-63610408D01*
X155262553Y-63633423D01*
X155254073Y-63634906D01*
X155215769Y-63636930D01*
X155148423Y-63638919D01*
X155054025Y-63640853D01*
X154934565Y-63642710D01*
X154792033Y-63644468D01*
X154628418Y-63646105D01*
X154445711Y-63647601D01*
X154245901Y-63648934D01*
X154030980Y-63650083D01*
X153802935Y-63651025D01*
X153563759Y-63651740D01*
X151864965Y-63655875D01*
X151731918Y-63972563D01*
X151722967Y-63993877D01*
X151681689Y-64092361D01*
X151643483Y-64183811D01*
X151610735Y-64262501D01*
X151585828Y-64322707D01*
X151571144Y-64358704D01*
X151543417Y-64428158D01*
X151310709Y-64428158D01*
X151328112Y-64386694D01*
X151354022Y-64324965D01*
X151395931Y-64225100D01*
X151449240Y-64098050D01*
X151513319Y-63945317D01*
X151587536Y-63768409D01*
X151671261Y-63568828D01*
X151763861Y-63348080D01*
X151864707Y-63107670D01*
X151973166Y-62849101D01*
X152088608Y-62573880D01*
X152210402Y-62283510D01*
X152337916Y-61979497D01*
X152470520Y-61663344D01*
X152607581Y-61336557D01*
X152748469Y-61000641D01*
X152892554Y-60657099D01*
X153039202Y-60307438D01*
X153187785Y-59953161D01*
X153337669Y-59595773D01*
X153363517Y-59534145D01*
X153509347Y-59186546D01*
X153652018Y-58846661D01*
X153791009Y-58515725D01*
X153925796Y-58194974D01*
X154055860Y-57885644D01*
X154180678Y-57588972D01*
X154299728Y-57306192D01*
X154412491Y-57038541D01*
X154518442Y-56787255D01*
X154617063Y-56553569D01*
X154707830Y-56338720D01*
X154790222Y-56143943D01*
X154863717Y-55970475D01*
X154927795Y-55819551D01*
X154981934Y-55692406D01*
X155025612Y-55590278D01*
X155058307Y-55514402D01*
X155079498Y-55466013D01*
X155088664Y-55446348D01*
X155094978Y-55436305D01*
X155150749Y-55362685D01*
X155221427Y-55287282D01*
X155296819Y-55220175D01*
X155366733Y-55171439D01*
X155465885Y-55124913D01*
X155606492Y-55085991D01*
X155752064Y-55072696D01*
X155896230Y-55084917D01*
X156032616Y-55122540D01*
X156154850Y-55185452D01*
X156200781Y-55218510D01*
X156283680Y-55289637D01*
X156355764Y-55365685D01*
X156407706Y-55437362D01*
X156414576Y-55450197D01*
X156428269Y-55478578D01*
X156447664Y-55521058D01*
X156473322Y-55578961D01*
X156505808Y-55653613D01*
X156545684Y-55746338D01*
X156593513Y-55858461D01*
X156649858Y-55991306D01*
X156715282Y-56146200D01*
X156790348Y-56324466D01*
X156875620Y-56527430D01*
X156971659Y-56756416D01*
X157079030Y-57012749D01*
X157198295Y-57297755D01*
X157231078Y-57376084D01*
X157280613Y-57494343D01*
X157337972Y-57631203D01*
X157400536Y-57780417D01*
X157465685Y-57935736D01*
X157530800Y-58090913D01*
X157593259Y-58239699D01*
X157650587Y-58376239D01*
X157727097Y-58558499D01*
X157809399Y-58754584D01*
X157896268Y-58961578D01*
X157986480Y-59176562D01*
X158078811Y-59396616D01*
X158172037Y-59618823D01*
X158264934Y-59840265D01*
X158356277Y-60058023D01*
X158444842Y-60269179D01*
X158529406Y-60470813D01*
X158608744Y-60660009D01*
X158681631Y-60833847D01*
X158746844Y-60989409D01*
X158803159Y-61123777D01*
X158849351Y-61234032D01*
X158884196Y-61317256D01*
X158896078Y-61345638D01*
X158927337Y-61420258D01*
X158969679Y-61521288D01*
X159022138Y-61646429D01*
X159083749Y-61793377D01*
X159153546Y-61959829D01*
X159230564Y-62143485D01*
X159313837Y-62342041D01*
X159402400Y-62553195D01*
X159495287Y-62774645D01*
X159591533Y-63004089D01*
X159690172Y-63239224D01*
X159790239Y-63477748D01*
X159862783Y-63650779D01*
X159958022Y-63878294D01*
X160049476Y-64097172D01*
X160136346Y-64305476D01*
X160185484Y-64423548D01*
X160217829Y-64501269D01*
X160293124Y-64682616D01*
X160361430Y-64847580D01*
X160421945Y-64994224D01*
X160473868Y-65120613D01*
X160516396Y-65224810D01*
X160544816Y-65295187D01*
X160548730Y-65304878D01*
X160570067Y-65358881D01*
G37*
%TO.C,J11*%
X149630000Y-122480999D02*
X148990000Y-122480999D01*
X155970000Y-116460999D02*
X149230000Y-116460999D01*
X155970000Y-122240999D02*
X155970000Y-116460999D01*
X155970000Y-122240999D02*
X149230000Y-122240999D01*
X149750000Y-122240999D02*
X149750000Y-116460999D01*
X149230000Y-122240999D02*
X149230000Y-116460999D01*
X154850000Y-122240999D02*
X154850000Y-116460999D01*
X148990000Y-122480999D02*
X148990000Y-122080999D01*
%TO.C,J9*%
X171856400Y-102000800D02*
X171856400Y-96220800D01*
X168300400Y-102000800D02*
X168300400Y-96220800D01*
X171856400Y-96220800D02*
X168300400Y-96220800D01*
X171856400Y-102000800D02*
X168300400Y-102000800D01*
%TO.C,D14*%
X170047471Y-49225200D02*
X168534529Y-49225200D01*
X170047471Y-51485800D02*
X168534529Y-51485800D01*
%TO.C,D5*%
X171919000Y-114577800D02*
X169634000Y-114577800D01*
X169634000Y-113107800D02*
X171919000Y-113107800D01*
X171919000Y-113107800D02*
X171919000Y-114577800D01*
%TO.C,D10*%
X171665000Y-79094000D02*
X169380000Y-79094000D01*
X171665000Y-77624000D02*
X171665000Y-79094000D01*
X169380000Y-77624000D02*
X171665000Y-77624000D01*
%TO.C,D6*%
X171919000Y-110513800D02*
X169634000Y-110513800D01*
X171919000Y-109043800D02*
X171919000Y-110513800D01*
X169634000Y-109043800D02*
X171919000Y-109043800D01*
%TD*%
%LPC*%
D19*
X171025000Y-129600000D02*
G75*
G03*
X171025000Y-129600000I-1425000J0D01*
G01*
X171025000Y-34600000D02*
G75*
G03*
X171025000Y-34600000I-1425000J0D01*
G01*
X145025000Y-129600000D02*
G75*
G03*
X145025000Y-129600000I-1425000J0D01*
G01*
X145025000Y-34600000D02*
G75*
G03*
X145025000Y-34600000I-1425000J0D01*
G01*
D20*
%TO.C,J1*%
X144399000Y-55372000D03*
D21*
X144399000Y-56642000D03*
X144399000Y-57912000D03*
X144399000Y-59182000D03*
X144399000Y-60452000D03*
X144399000Y-61722000D03*
%TD*%
D22*
%TO.C,C34*%
X161696400Y-113968500D03*
X161696400Y-105968500D03*
%TD*%
D23*
%TO.C,J2*%
X165100000Y-130280800D03*
X157480000Y-130280800D03*
X152400000Y-130280800D03*
X160020000Y-130280800D03*
D24*
X160337500Y-125907800D03*
X157162500Y-125907800D03*
%TD*%
D25*
%TO.C,IC1*%
X160434800Y-53278800D03*
X159164800Y-53278800D03*
X157894800Y-53278800D03*
X152324800Y-53278800D03*
X151054800Y-53278800D03*
X149784800Y-53278800D03*
X148514800Y-53278800D03*
X147244800Y-53278800D03*
X145974800Y-53278800D03*
X144704800Y-53278800D03*
X143434800Y-53278800D03*
X143434800Y-39278800D03*
X144704800Y-39278800D03*
X145974800Y-39278800D03*
X147244800Y-39278800D03*
X148514800Y-39278800D03*
X149784800Y-39278800D03*
X151054800Y-39278800D03*
X152324800Y-39278800D03*
X157894800Y-39278800D03*
X159164800Y-39278800D03*
X160434800Y-39278800D03*
%TD*%
D26*
%TO.C,J7*%
X167050000Y-93001000D03*
X167050000Y-91751000D03*
X167050000Y-90501000D03*
X167050000Y-89251000D03*
X167050000Y-88001000D03*
X167050000Y-86751000D03*
X167050000Y-85501000D03*
X167050000Y-84251000D03*
X167050000Y-83001000D03*
X167050000Y-81751000D03*
D27*
X170400000Y-79901000D03*
X170400000Y-94851000D03*
%TD*%
D28*
%TO.C,R14*%
X148080000Y-79756000D03*
X149100000Y-79756000D03*
%TD*%
D29*
%TO.C,J4*%
X163578000Y-68449800D03*
X163578000Y-69299800D03*
X163578000Y-70149800D03*
X163578000Y-70999800D03*
X163578000Y-71849800D03*
X163578000Y-72699800D03*
X163578000Y-73549800D03*
X163578000Y-74399800D03*
X164928000Y-74399800D03*
X164928000Y-73549800D03*
X164928000Y-72699800D03*
X164928000Y-71849800D03*
X164928000Y-70999800D03*
X164928000Y-70149800D03*
X164928000Y-69299800D03*
X164928000Y-68449800D03*
D30*
X164078000Y-75749800D03*
D31*
X168378000Y-75749800D03*
X168378000Y-67099800D03*
D30*
X164078000Y-67099800D03*
%TD*%
D32*
%TO.C,J10*%
X152600000Y-108474333D03*
X152600000Y-105934333D03*
%TD*%
D33*
%TO.C,D15*%
X170484800Y-41156001D03*
X170484800Y-42155999D03*
X168097200Y-42155999D03*
X168097200Y-41156001D03*
%TD*%
D34*
%TO.C,J5*%
X158877000Y-34594800D03*
X163127000Y-34594800D03*
X154627000Y-34594800D03*
%TD*%
D35*
%TO.C,ANT2*%
X146928000Y-87376000D03*
%TD*%
D36*
%TO.C,D12*%
X149910800Y-33045300D03*
X149910800Y-34620300D03*
%TD*%
D26*
%TO.C,J8*%
X161150000Y-93001000D03*
X161150000Y-91751000D03*
X161150000Y-90501000D03*
X161150000Y-89251000D03*
X161150000Y-88001000D03*
X161150000Y-86751000D03*
D27*
X164500000Y-84901000D03*
X164500000Y-94851000D03*
%TD*%
D32*
%TO.C,J12*%
X152600000Y-114547666D03*
X152600000Y-112007666D03*
%TD*%
D37*
%TO.C,D7*%
X171221500Y-105714800D03*
X169646500Y-105714800D03*
%TD*%
D36*
%TO.C,D8*%
X151688800Y-33045300D03*
X151688800Y-34620300D03*
%TD*%
D38*
%TO.C,D1*%
X145135500Y-79756000D03*
X146710500Y-79756000D03*
%TD*%
D39*
%TO.C,LS1*%
X155575000Y-70114000D03*
D35*
X155575000Y-77714000D03*
%TD*%
D26*
%TO.C,J6*%
X155450000Y-93001000D03*
X155450000Y-91751000D03*
X155450000Y-90501000D03*
X155450000Y-89251000D03*
X155450000Y-88001000D03*
X155450000Y-86751000D03*
D27*
X158800000Y-84901000D03*
X158800000Y-94851000D03*
%TD*%
D32*
%TO.C,J13*%
X152600000Y-102401000D03*
X152600000Y-99861000D03*
%TD*%
D40*
%TO.C,J3*%
X159562800Y-118059200D03*
X159562800Y-120599200D03*
%TD*%
D41*
%TO.C,D9*%
X157757000Y-37693600D03*
X158727000Y-37693600D03*
%TD*%
D33*
%TO.C,D13*%
X170484800Y-58555001D03*
X170484800Y-59554999D03*
X168097200Y-59554999D03*
X168097200Y-58555001D03*
%TD*%
D32*
%TO.C,J11*%
X152600000Y-120620999D03*
X152600000Y-118080999D03*
%TD*%
D42*
%TO.C,J9*%
X170078400Y-100507800D03*
D43*
X170078400Y-97667300D03*
%TD*%
D33*
%TO.C,D14*%
X170484800Y-49855501D03*
X170484800Y-50855499D03*
X168097200Y-50855499D03*
X168097200Y-49855501D03*
%TD*%
D37*
%TO.C,D5*%
X171221500Y-113842800D03*
X169646500Y-113842800D03*
%TD*%
%TO.C,D10*%
X170967500Y-78359000D03*
X169392500Y-78359000D03*
%TD*%
%TO.C,D6*%
X171221500Y-109778800D03*
X169646500Y-109778800D03*
%TD*%
M02*
