%FSLAX45Y45*%
G04 Gerber Fmt 4.5, Leading zero omitted, Abs format (unit mm)*
G04 Created by KiCad (PCBNEW (6.0.1)) date 2022-06-27 19:55:40*
%MOMM*%
%LPD*%
G01*
G04 APERTURE LIST*
%TA.AperFunction,Profile*%
%ADD10C,0.100000*%
%TD*%
%ADD11C,0.200000*%
G04 APERTURE END LIST*
D10*
X16960000Y-13210000D02*
X14360000Y-13210000D01*
X14110000Y-12960000D02*
X14110000Y-3460000D01*
X17210000Y-3460000D02*
G75*
G03*
X16960000Y-3210000I-250000J0D01*
G01*
X14360000Y-3210000D02*
G75*
G03*
X14110000Y-3460000I0J-250000D01*
G01*
X17210000Y-7670800D02*
X17210000Y-12960000D01*
X14110000Y-12960000D02*
G75*
G03*
X14360000Y-13210000I250000J0D01*
G01*
X17119600Y-6638290D02*
X17119600Y-7616190D01*
X17210000Y-6604000D02*
X17119600Y-6638290D01*
X16960000Y-13210000D02*
G75*
G03*
X17210000Y-12960000I0J250000D01*
G01*
X17119600Y-7616190D02*
X17210000Y-7670800D01*
X17210000Y-3460000D02*
X17210000Y-6604000D01*
X14360000Y-3210000D02*
X16960000Y-3210000D01*
D11*
X15140000Y-12928080D02*
X15340000Y-13128080D01*
X15340000Y-12928080D02*
X15140000Y-13128080D01*
X15330000Y-13053080D02*
X15330000Y-13003080D01*
X15150000Y-13053080D02*
X15150000Y-13003080D01*
X15330000Y-13003080D02*
G75*
G03*
X15150000Y-13003080I-90000J0D01*
G01*
X15150000Y-13053080D02*
G75*
G03*
X15330000Y-13053080I90000J0D01*
G01*
X15648000Y-12928080D02*
X15848000Y-13128080D01*
X15848000Y-12928080D02*
X15648000Y-13128080D01*
X15838000Y-13053080D02*
X15838000Y-13003080D01*
X15658000Y-13053080D02*
X15658000Y-13003080D01*
X15838000Y-13003080D02*
G75*
G03*
X15658000Y-13003080I-90000J0D01*
G01*
X15658000Y-13053080D02*
G75*
G03*
X15838000Y-13053080I90000J0D01*
G01*
X15902000Y-12928080D02*
X16102000Y-13128080D01*
X16102000Y-12928080D02*
X15902000Y-13128080D01*
X16092000Y-13053080D02*
X16092000Y-13003080D01*
X15912000Y-13053080D02*
X15912000Y-13003080D01*
X16092000Y-13003080D02*
G75*
G03*
X15912000Y-13003080I-90000J0D01*
G01*
X15912000Y-13053080D02*
G75*
G03*
X16092000Y-13053080I90000J0D01*
G01*
X16410000Y-12928080D02*
X16610000Y-13128080D01*
X16610000Y-12928080D02*
X16410000Y-13128080D01*
X16600000Y-13053080D02*
X16600000Y-13003080D01*
X16420000Y-13053080D02*
X16420000Y-13003080D01*
X16600000Y-13003080D02*
G75*
G03*
X16420000Y-13003080I-90000J0D01*
G01*
X16420000Y-13053080D02*
G75*
G03*
X16600000Y-13053080I90000J0D01*
G01*
X14362619Y-13525476D02*
X14362619Y-13325476D01*
X14410238Y-13325476D01*
X14438809Y-13335000D01*
X14457857Y-13354048D01*
X14467381Y-13373095D01*
X14476905Y-13411190D01*
X14476905Y-13439762D01*
X14467381Y-13477857D01*
X14457857Y-13496905D01*
X14438809Y-13515952D01*
X14410238Y-13525476D01*
X14362619Y-13525476D01*
X14562619Y-13525476D02*
X14562619Y-13392143D01*
X14562619Y-13430238D02*
X14572143Y-13411190D01*
X14581667Y-13401667D01*
X14600714Y-13392143D01*
X14619762Y-13392143D01*
X14686428Y-13525476D02*
X14686428Y-13392143D01*
X14686428Y-13325476D02*
X14676905Y-13335000D01*
X14686428Y-13344524D01*
X14695952Y-13335000D01*
X14686428Y-13325476D01*
X14686428Y-13344524D01*
X14810238Y-13525476D02*
X14791190Y-13515952D01*
X14781667Y-13496905D01*
X14781667Y-13325476D01*
X14915000Y-13525476D02*
X14895952Y-13515952D01*
X14886428Y-13496905D01*
X14886428Y-13325476D01*
X15143571Y-13525476D02*
X15143571Y-13325476D01*
X15210238Y-13468333D01*
X15276905Y-13325476D01*
X15276905Y-13525476D01*
X15457857Y-13525476D02*
X15457857Y-13420714D01*
X15448333Y-13401667D01*
X15429286Y-13392143D01*
X15391190Y-13392143D01*
X15372143Y-13401667D01*
X15457857Y-13515952D02*
X15438809Y-13525476D01*
X15391190Y-13525476D01*
X15372143Y-13515952D01*
X15362619Y-13496905D01*
X15362619Y-13477857D01*
X15372143Y-13458809D01*
X15391190Y-13449286D01*
X15438809Y-13449286D01*
X15457857Y-13439762D01*
X15553095Y-13392143D02*
X15553095Y-13592143D01*
X15553095Y-13401667D02*
X15572143Y-13392143D01*
X15610238Y-13392143D01*
X15629286Y-13401667D01*
X15638809Y-13411190D01*
X15648333Y-13430238D01*
X15648333Y-13487381D01*
X15638809Y-13506428D01*
X15629286Y-13515952D01*
X15610238Y-13525476D01*
X15572143Y-13525476D01*
X15553095Y-13515952D01*
X15734048Y-13506428D02*
X15743571Y-13515952D01*
X15734048Y-13525476D01*
X15724524Y-13515952D01*
X15734048Y-13506428D01*
X15734048Y-13525476D01*
X15734048Y-13401667D02*
X15743571Y-13411190D01*
X15734048Y-13420714D01*
X15724524Y-13411190D01*
X15734048Y-13401667D01*
X15734048Y-13420714D01*
X13905000Y-13755000D02*
X14105000Y-13955000D01*
X14105000Y-13755000D02*
X13905000Y-13955000D01*
X14353095Y-13764524D02*
X14362619Y-13755000D01*
X14381667Y-13745476D01*
X14429286Y-13745476D01*
X14448333Y-13755000D01*
X14457857Y-13764524D01*
X14467381Y-13783571D01*
X14467381Y-13802619D01*
X14457857Y-13831190D01*
X14343571Y-13945476D01*
X14467381Y-13945476D01*
X14553095Y-13926428D02*
X14562619Y-13935952D01*
X14553095Y-13945476D01*
X14543571Y-13935952D01*
X14553095Y-13926428D01*
X14553095Y-13945476D01*
X14686428Y-13745476D02*
X14705476Y-13745476D01*
X14724524Y-13755000D01*
X14734048Y-13764524D01*
X14743571Y-13783571D01*
X14753095Y-13821667D01*
X14753095Y-13869286D01*
X14743571Y-13907381D01*
X14734048Y-13926428D01*
X14724524Y-13935952D01*
X14705476Y-13945476D01*
X14686428Y-13945476D01*
X14667381Y-13935952D01*
X14657857Y-13926428D01*
X14648333Y-13907381D01*
X14638809Y-13869286D01*
X14638809Y-13821667D01*
X14648333Y-13783571D01*
X14657857Y-13764524D01*
X14667381Y-13755000D01*
X14686428Y-13745476D01*
X14876905Y-13745476D02*
X14895952Y-13745476D01*
X14915000Y-13755000D01*
X14924524Y-13764524D01*
X14934048Y-13783571D01*
X14943571Y-13821667D01*
X14943571Y-13869286D01*
X14934048Y-13907381D01*
X14924524Y-13926428D01*
X14915000Y-13935952D01*
X14895952Y-13945476D01*
X14876905Y-13945476D01*
X14857857Y-13935952D01*
X14848333Y-13926428D01*
X14838809Y-13907381D01*
X14829286Y-13869286D01*
X14829286Y-13821667D01*
X14838809Y-13783571D01*
X14848333Y-13764524D01*
X14857857Y-13755000D01*
X14876905Y-13745476D01*
X15067381Y-13745476D02*
X15086428Y-13745476D01*
X15105476Y-13755000D01*
X15115000Y-13764524D01*
X15124524Y-13783571D01*
X15134048Y-13821667D01*
X15134048Y-13869286D01*
X15124524Y-13907381D01*
X15115000Y-13926428D01*
X15105476Y-13935952D01*
X15086428Y-13945476D01*
X15067381Y-13945476D01*
X15048333Y-13935952D01*
X15038809Y-13926428D01*
X15029286Y-13907381D01*
X15019762Y-13869286D01*
X15019762Y-13821667D01*
X15029286Y-13783571D01*
X15038809Y-13764524D01*
X15048333Y-13755000D01*
X15067381Y-13745476D01*
X15219762Y-13945476D02*
X15219762Y-13812143D01*
X15219762Y-13831190D02*
X15229286Y-13821667D01*
X15248333Y-13812143D01*
X15276905Y-13812143D01*
X15295952Y-13821667D01*
X15305476Y-13840714D01*
X15305476Y-13945476D01*
X15305476Y-13840714D02*
X15315000Y-13821667D01*
X15334048Y-13812143D01*
X15362619Y-13812143D01*
X15381667Y-13821667D01*
X15391190Y-13840714D01*
X15391190Y-13945476D01*
X15486428Y-13945476D02*
X15486428Y-13812143D01*
X15486428Y-13831190D02*
X15495952Y-13821667D01*
X15515000Y-13812143D01*
X15543571Y-13812143D01*
X15562619Y-13821667D01*
X15572143Y-13840714D01*
X15572143Y-13945476D01*
X15572143Y-13840714D02*
X15581667Y-13821667D01*
X15600714Y-13812143D01*
X15629286Y-13812143D01*
X15648333Y-13821667D01*
X15657857Y-13840714D01*
X15657857Y-13945476D01*
X16048333Y-13735952D02*
X15876905Y-13993095D01*
X16305476Y-13745476D02*
X16324524Y-13745476D01*
X16343571Y-13755000D01*
X16353095Y-13764524D01*
X16362619Y-13783571D01*
X16372143Y-13821667D01*
X16372143Y-13869286D01*
X16362619Y-13907381D01*
X16353095Y-13926428D01*
X16343571Y-13935952D01*
X16324524Y-13945476D01*
X16305476Y-13945476D01*
X16286428Y-13935952D01*
X16276905Y-13926428D01*
X16267381Y-13907381D01*
X16257857Y-13869286D01*
X16257857Y-13821667D01*
X16267381Y-13783571D01*
X16276905Y-13764524D01*
X16286428Y-13755000D01*
X16305476Y-13745476D01*
X16457857Y-13926428D02*
X16467381Y-13935952D01*
X16457857Y-13945476D01*
X16448333Y-13935952D01*
X16457857Y-13926428D01*
X16457857Y-13945476D01*
X16591190Y-13745476D02*
X16610238Y-13745476D01*
X16629286Y-13755000D01*
X16638809Y-13764524D01*
X16648333Y-13783571D01*
X16657857Y-13821667D01*
X16657857Y-13869286D01*
X16648333Y-13907381D01*
X16638809Y-13926428D01*
X16629286Y-13935952D01*
X16610238Y-13945476D01*
X16591190Y-13945476D01*
X16572143Y-13935952D01*
X16562619Y-13926428D01*
X16553095Y-13907381D01*
X16543571Y-13869286D01*
X16543571Y-13821667D01*
X16553095Y-13783571D01*
X16562619Y-13764524D01*
X16572143Y-13755000D01*
X16591190Y-13745476D01*
X16724524Y-13745476D02*
X16857857Y-13745476D01*
X16772143Y-13945476D01*
X16962619Y-13831190D02*
X16943571Y-13821667D01*
X16934048Y-13812143D01*
X16924524Y-13793095D01*
X16924524Y-13783571D01*
X16934048Y-13764524D01*
X16943571Y-13755000D01*
X16962619Y-13745476D01*
X17000714Y-13745476D01*
X17019762Y-13755000D01*
X17029286Y-13764524D01*
X17038810Y-13783571D01*
X17038810Y-13793095D01*
X17029286Y-13812143D01*
X17019762Y-13821667D01*
X17000714Y-13831190D01*
X16962619Y-13831190D01*
X16943571Y-13840714D01*
X16934048Y-13850238D01*
X16924524Y-13869286D01*
X16924524Y-13907381D01*
X16934048Y-13926428D01*
X16943571Y-13935952D01*
X16962619Y-13945476D01*
X17000714Y-13945476D01*
X17019762Y-13935952D01*
X17029286Y-13926428D01*
X17038810Y-13907381D01*
X17038810Y-13869286D01*
X17029286Y-13850238D01*
X17019762Y-13840714D01*
X17000714Y-13831190D01*
X17105476Y-13745476D02*
X17238810Y-13745476D01*
X17153095Y-13945476D01*
X17305476Y-13745476D02*
X17305476Y-13783571D01*
X17381667Y-13745476D02*
X17381667Y-13783571D01*
X17676905Y-14021667D02*
X17667381Y-14012143D01*
X17648333Y-13983571D01*
X17638810Y-13964524D01*
X17629286Y-13935952D01*
X17619762Y-13888333D01*
X17619762Y-13850238D01*
X17629286Y-13802619D01*
X17638810Y-13774048D01*
X17648333Y-13755000D01*
X17667381Y-13726428D01*
X17676905Y-13716905D01*
X17791190Y-13745476D02*
X17810238Y-13745476D01*
X17829286Y-13755000D01*
X17838810Y-13764524D01*
X17848333Y-13783571D01*
X17857857Y-13821667D01*
X17857857Y-13869286D01*
X17848333Y-13907381D01*
X17838810Y-13926428D01*
X17829286Y-13935952D01*
X17810238Y-13945476D01*
X17791190Y-13945476D01*
X17772143Y-13935952D01*
X17762619Y-13926428D01*
X17753095Y-13907381D01*
X17743571Y-13869286D01*
X17743571Y-13821667D01*
X17753095Y-13783571D01*
X17762619Y-13764524D01*
X17772143Y-13755000D01*
X17791190Y-13745476D01*
X18095952Y-13945476D02*
X18095952Y-13745476D01*
X18181667Y-13945476D02*
X18181667Y-13840714D01*
X18172143Y-13821667D01*
X18153095Y-13812143D01*
X18124524Y-13812143D01*
X18105476Y-13821667D01*
X18095952Y-13831190D01*
X18305476Y-13945476D02*
X18286429Y-13935952D01*
X18276905Y-13926428D01*
X18267381Y-13907381D01*
X18267381Y-13850238D01*
X18276905Y-13831190D01*
X18286429Y-13821667D01*
X18305476Y-13812143D01*
X18334048Y-13812143D01*
X18353095Y-13821667D01*
X18362619Y-13831190D01*
X18372143Y-13850238D01*
X18372143Y-13907381D01*
X18362619Y-13926428D01*
X18353095Y-13935952D01*
X18334048Y-13945476D01*
X18305476Y-13945476D01*
X18486429Y-13945476D02*
X18467381Y-13935952D01*
X18457857Y-13916905D01*
X18457857Y-13745476D01*
X18638810Y-13935952D02*
X18619762Y-13945476D01*
X18581667Y-13945476D01*
X18562619Y-13935952D01*
X18553095Y-13916905D01*
X18553095Y-13840714D01*
X18562619Y-13821667D01*
X18581667Y-13812143D01*
X18619762Y-13812143D01*
X18638810Y-13821667D01*
X18648333Y-13840714D01*
X18648333Y-13859762D01*
X18553095Y-13878809D01*
X18724524Y-13935952D02*
X18743571Y-13945476D01*
X18781667Y-13945476D01*
X18800714Y-13935952D01*
X18810238Y-13916905D01*
X18810238Y-13907381D01*
X18800714Y-13888333D01*
X18781667Y-13878809D01*
X18753095Y-13878809D01*
X18734048Y-13869286D01*
X18724524Y-13850238D01*
X18724524Y-13840714D01*
X18734048Y-13821667D01*
X18753095Y-13812143D01*
X18781667Y-13812143D01*
X18800714Y-13821667D01*
X19048333Y-13869286D02*
X19200714Y-13869286D01*
X19124524Y-13945476D02*
X19124524Y-13793095D01*
X19534048Y-13812143D02*
X19534048Y-13945476D01*
X19486429Y-13735952D02*
X19438810Y-13878809D01*
X19562619Y-13878809D01*
X19781667Y-13935952D02*
X19800714Y-13945476D01*
X19838810Y-13945476D01*
X19857857Y-13935952D01*
X19867381Y-13916905D01*
X19867381Y-13907381D01*
X19857857Y-13888333D01*
X19838810Y-13878809D01*
X19810238Y-13878809D01*
X19791190Y-13869286D01*
X19781667Y-13850238D01*
X19781667Y-13840714D01*
X19791190Y-13821667D01*
X19810238Y-13812143D01*
X19838810Y-13812143D01*
X19857857Y-13821667D01*
X19981667Y-13945476D02*
X19962619Y-13935952D01*
X19953095Y-13916905D01*
X19953095Y-13745476D01*
X20086429Y-13945476D02*
X20067381Y-13935952D01*
X20057857Y-13926428D01*
X20048333Y-13907381D01*
X20048333Y-13850238D01*
X20057857Y-13831190D01*
X20067381Y-13821667D01*
X20086429Y-13812143D01*
X20115000Y-13812143D01*
X20134048Y-13821667D01*
X20143571Y-13831190D01*
X20153095Y-13850238D01*
X20153095Y-13907381D01*
X20143571Y-13926428D01*
X20134048Y-13935952D01*
X20115000Y-13945476D01*
X20086429Y-13945476D01*
X20210238Y-13812143D02*
X20286429Y-13812143D01*
X20238810Y-13745476D02*
X20238810Y-13916905D01*
X20248333Y-13935952D01*
X20267381Y-13945476D01*
X20286429Y-13945476D01*
X20343571Y-13935952D02*
X20362619Y-13945476D01*
X20400714Y-13945476D01*
X20419762Y-13935952D01*
X20429286Y-13916905D01*
X20429286Y-13907381D01*
X20419762Y-13888333D01*
X20400714Y-13878809D01*
X20372143Y-13878809D01*
X20353095Y-13869286D01*
X20343571Y-13850238D01*
X20343571Y-13840714D01*
X20353095Y-13821667D01*
X20372143Y-13812143D01*
X20400714Y-13812143D01*
X20419762Y-13821667D01*
X20495952Y-14021667D02*
X20505476Y-14012143D01*
X20524524Y-13983571D01*
X20534048Y-13964524D01*
X20543571Y-13935952D01*
X20553095Y-13888333D01*
X20553095Y-13850238D01*
X20543571Y-13802619D01*
X20534048Y-13774048D01*
X20524524Y-13755000D01*
X20505476Y-13726428D01*
X20495952Y-13716905D01*
X20857857Y-14021667D02*
X20848333Y-14012143D01*
X20829286Y-13983571D01*
X20819762Y-13964524D01*
X20810238Y-13935952D01*
X20800714Y-13888333D01*
X20800714Y-13850238D01*
X20810238Y-13802619D01*
X20819762Y-13774048D01*
X20829286Y-13755000D01*
X20848333Y-13726428D01*
X20857857Y-13716905D01*
X20934048Y-13812143D02*
X20934048Y-13945476D01*
X20934048Y-13831190D02*
X20943571Y-13821667D01*
X20962619Y-13812143D01*
X20991190Y-13812143D01*
X21010238Y-13821667D01*
X21019762Y-13840714D01*
X21019762Y-13945476D01*
X21143571Y-13945476D02*
X21124524Y-13935952D01*
X21115000Y-13926428D01*
X21105476Y-13907381D01*
X21105476Y-13850238D01*
X21115000Y-13831190D01*
X21124524Y-13821667D01*
X21143571Y-13812143D01*
X21172143Y-13812143D01*
X21191190Y-13821667D01*
X21200714Y-13831190D01*
X21210238Y-13850238D01*
X21210238Y-13907381D01*
X21200714Y-13926428D01*
X21191190Y-13935952D01*
X21172143Y-13945476D01*
X21143571Y-13945476D01*
X21267381Y-13812143D02*
X21343571Y-13812143D01*
X21295952Y-13745476D02*
X21295952Y-13916905D01*
X21305476Y-13935952D01*
X21324524Y-13945476D01*
X21343571Y-13945476D01*
X21562619Y-13812143D02*
X21562619Y-14012143D01*
X21562619Y-13821667D02*
X21581667Y-13812143D01*
X21619762Y-13812143D01*
X21638810Y-13821667D01*
X21648333Y-13831190D01*
X21657857Y-13850238D01*
X21657857Y-13907381D01*
X21648333Y-13926428D01*
X21638810Y-13935952D01*
X21619762Y-13945476D01*
X21581667Y-13945476D01*
X21562619Y-13935952D01*
X21772143Y-13945476D02*
X21753095Y-13935952D01*
X21743571Y-13916905D01*
X21743571Y-13745476D01*
X21934048Y-13945476D02*
X21934048Y-13840714D01*
X21924524Y-13821667D01*
X21905476Y-13812143D01*
X21867381Y-13812143D01*
X21848333Y-13821667D01*
X21934048Y-13935952D02*
X21915000Y-13945476D01*
X21867381Y-13945476D01*
X21848333Y-13935952D01*
X21838810Y-13916905D01*
X21838810Y-13897857D01*
X21848333Y-13878809D01*
X21867381Y-13869286D01*
X21915000Y-13869286D01*
X21934048Y-13859762D01*
X22000714Y-13812143D02*
X22076905Y-13812143D01*
X22029286Y-13745476D02*
X22029286Y-13916905D01*
X22038810Y-13935952D01*
X22057857Y-13945476D01*
X22076905Y-13945476D01*
X22219762Y-13935952D02*
X22200714Y-13945476D01*
X22162619Y-13945476D01*
X22143571Y-13935952D01*
X22134048Y-13916905D01*
X22134048Y-13840714D01*
X22143571Y-13821667D01*
X22162619Y-13812143D01*
X22200714Y-13812143D01*
X22219762Y-13821667D01*
X22229286Y-13840714D01*
X22229286Y-13859762D01*
X22134048Y-13878809D01*
X22400714Y-13945476D02*
X22400714Y-13745476D01*
X22400714Y-13935952D02*
X22381667Y-13945476D01*
X22343571Y-13945476D01*
X22324524Y-13935952D01*
X22315000Y-13926428D01*
X22305476Y-13907381D01*
X22305476Y-13850238D01*
X22315000Y-13831190D01*
X22324524Y-13821667D01*
X22343571Y-13812143D01*
X22381667Y-13812143D01*
X22400714Y-13821667D01*
X22476905Y-14021667D02*
X22486428Y-14012143D01*
X22505476Y-13983571D01*
X22515000Y-13964524D01*
X22524524Y-13935952D01*
X22534048Y-13888333D01*
X22534048Y-13850238D01*
X22524524Y-13802619D01*
X22515000Y-13774048D01*
X22505476Y-13755000D01*
X22486428Y-13726428D01*
X22476905Y-13716905D01*
M02*
