%FSLAX45Y45*%
G04 Gerber Fmt 4.5, Leading zero omitted, Abs format (unit mm)*
G04 Created by KiCad (PCBNEW (6.0.1)) date 2022-06-27 19:55:40*
%MOMM*%
%LPD*%
G01*
G04 APERTURE LIST*
%TA.AperFunction,Profile*%
%ADD10C,0.100000*%
%TD*%
%ADD11C,0.200000*%
%ADD12C,0.030000*%
%ADD13C,0.040000*%
%ADD14C,0.065000*%
%ADD15C,0.070000*%
%ADD16C,0.100000*%
%ADD17C,0.110000*%
%ADD18C,0.150000*%
%ADD19C,0.320000*%
G04 APERTURE END LIST*
D10*
X16960000Y-13210000D02*
X14360000Y-13210000D01*
X14110000Y-12960000D02*
X14110000Y-3460000D01*
X17210000Y-3460000D02*
G75*
G03*
X16960000Y-3210000I-250000J0D01*
G01*
X14360000Y-3210000D02*
G75*
G03*
X14110000Y-3460000I0J-250000D01*
G01*
X17210000Y-7670800D02*
X17210000Y-12960000D01*
X14110000Y-12960000D02*
G75*
G03*
X14360000Y-13210000I250000J0D01*
G01*
X17119600Y-6638290D02*
X17119600Y-7616190D01*
X17210000Y-6604000D02*
X17119600Y-6638290D01*
X16960000Y-13210000D02*
G75*
G03*
X17210000Y-12960000I0J250000D01*
G01*
X17119600Y-7616190D02*
X17210000Y-7670800D01*
X17210000Y-3460000D02*
X17210000Y-6604000D01*
X14360000Y-3210000D02*
X16960000Y-3210000D01*
D11*
D12*
X14163280Y-9433800D02*
X14193280Y-9463800D01*
X14193280Y-9433800D02*
X14163280Y-9463800D01*
X14163280Y-9789400D02*
X14193280Y-9819400D01*
X14193280Y-9789400D02*
X14163280Y-9819400D01*
X14163280Y-10470120D02*
X14193280Y-10500120D01*
X14193280Y-10470120D02*
X14163280Y-10500120D01*
X14163280Y-11912840D02*
X14193280Y-11942840D01*
X14193280Y-11912840D02*
X14163280Y-11942840D01*
X14168360Y-11044160D02*
X14198360Y-11074160D01*
X14198360Y-11044160D02*
X14168360Y-11074160D01*
X14168360Y-11501360D02*
X14198360Y-11531360D01*
X14198360Y-11501360D02*
X14168360Y-11531360D01*
X14168360Y-12629120D02*
X14198360Y-12659120D01*
X14198360Y-12629120D02*
X14168360Y-12659120D01*
X14173440Y-3764520D02*
X14203440Y-3794520D01*
X14203440Y-3764520D02*
X14173440Y-3794520D01*
X14173440Y-8880080D02*
X14203440Y-8910080D01*
X14203440Y-8880080D02*
X14173440Y-8910080D01*
X14178520Y-7127480D02*
X14208520Y-7157480D01*
X14208520Y-7127480D02*
X14178520Y-7157480D01*
X14183600Y-4043920D02*
X14213600Y-4073920D01*
X14213600Y-4043920D02*
X14183600Y-4073920D01*
X14183600Y-4506200D02*
X14213600Y-4536200D01*
X14213600Y-4506200D02*
X14183600Y-4536200D01*
X14183600Y-4851640D02*
X14213600Y-4881640D01*
X14213600Y-4851640D02*
X14183600Y-4881640D01*
X14183600Y-6182600D02*
X14213600Y-6212600D01*
X14213600Y-6182600D02*
X14183600Y-6212600D01*
X14183600Y-7310360D02*
X14213600Y-7340360D01*
X14213600Y-7310360D02*
X14183600Y-7340360D01*
X14183600Y-12339560D02*
X14213600Y-12369560D01*
X14213600Y-12339560D02*
X14183600Y-12369560D01*
X14188680Y-7213840D02*
X14218680Y-7243840D01*
X14218680Y-7213840D02*
X14188680Y-7243840D01*
X14198840Y-8006320D02*
X14228840Y-8036320D01*
X14228840Y-8006320D02*
X14198840Y-8036320D01*
X14224240Y-7681200D02*
X14254240Y-7711200D01*
X14254240Y-7681200D02*
X14224240Y-7711200D01*
X14249640Y-8311120D02*
X14279640Y-8341120D01*
X14279640Y-8311120D02*
X14249640Y-8341120D01*
X14249640Y-8600680D02*
X14279640Y-8630680D01*
X14279640Y-8600680D02*
X14249640Y-8630680D01*
X14280120Y-5080240D02*
X14310120Y-5110240D01*
X14310120Y-5080240D02*
X14280120Y-5110240D01*
X14280120Y-5964160D02*
X14310120Y-5994160D01*
X14310120Y-5964160D02*
X14280120Y-5994160D01*
X14281370Y-5141200D02*
X14311370Y-5171200D01*
X14311370Y-5141200D02*
X14281370Y-5171200D01*
X14290280Y-5517120D02*
X14320280Y-5547120D01*
X14320280Y-5517120D02*
X14290280Y-5547120D01*
X14325840Y-3784840D02*
X14355840Y-3814840D01*
X14355840Y-3784840D02*
X14325840Y-3814840D01*
X14356320Y-4948160D02*
X14386320Y-4978160D01*
X14386320Y-4948160D02*
X14356320Y-4978160D01*
X14391880Y-5258040D02*
X14421880Y-5288040D01*
X14421880Y-5258040D02*
X14391880Y-5288040D01*
X14391880Y-5354560D02*
X14421880Y-5384560D01*
X14421880Y-5354560D02*
X14391880Y-5384560D01*
X14407120Y-8930880D02*
X14437120Y-8960880D01*
X14437120Y-8930880D02*
X14407120Y-8960880D01*
X14417280Y-7960600D02*
X14447280Y-7990600D01*
X14447280Y-7960600D02*
X14417280Y-7990600D01*
X14422360Y-7208760D02*
X14452360Y-7238760D01*
X14452360Y-7208760D02*
X14422360Y-7238760D01*
X14468080Y-8311120D02*
X14498080Y-8341120D01*
X14498080Y-8311120D02*
X14468080Y-8341120D01*
X14468080Y-8605760D02*
X14498080Y-8635760D01*
X14498080Y-8605760D02*
X14468080Y-8635760D01*
X14473160Y-7147800D02*
X14503160Y-7177800D01*
X14503160Y-7147800D02*
X14473160Y-7177800D01*
X14473160Y-7274800D02*
X14503160Y-7304800D01*
X14503160Y-7274800D02*
X14473160Y-7304800D01*
X14483320Y-12603720D02*
X14513320Y-12633720D01*
X14513320Y-12603720D02*
X14483320Y-12633720D01*
X14488400Y-11293080D02*
X14518400Y-11323080D01*
X14518400Y-11293080D02*
X14488400Y-11323080D01*
X14493480Y-10165320D02*
X14523480Y-10195320D01*
X14523480Y-10165320D02*
X14493480Y-10195320D01*
X14493480Y-10724120D02*
X14523480Y-10754120D01*
X14523480Y-10724120D02*
X14493480Y-10754120D01*
X14493480Y-11882360D02*
X14523480Y-11912360D01*
X14523480Y-11882360D02*
X14493480Y-11912360D01*
X14508720Y-4897360D02*
X14538720Y-4927360D01*
X14538720Y-4897360D02*
X14508720Y-4927360D01*
X14508720Y-8834360D02*
X14538720Y-8864360D01*
X14538720Y-8834360D02*
X14508720Y-8864360D01*
X14513800Y-9845280D02*
X14543800Y-9875280D01*
X14543800Y-9845280D02*
X14513800Y-9875280D01*
X14513800Y-10983200D02*
X14543800Y-11013200D01*
X14543800Y-10983200D02*
X14513800Y-11013200D01*
X14518880Y-11552160D02*
X14548880Y-11582160D01*
X14548880Y-11552160D02*
X14518880Y-11582160D01*
X14523960Y-10409160D02*
X14553960Y-10439160D01*
X14553960Y-10409160D02*
X14523960Y-10439160D01*
X14534120Y-7681200D02*
X14564120Y-7711200D01*
X14564120Y-7681200D02*
X14534120Y-7711200D01*
X14539200Y-5044680D02*
X14569200Y-5074680D01*
X14569200Y-5044680D02*
X14539200Y-5074680D01*
X14539200Y-9266160D02*
X14569200Y-9296160D01*
X14569200Y-9266160D02*
X14539200Y-9296160D01*
X14544280Y-11933160D02*
X14574280Y-11963160D01*
X14574280Y-11933160D02*
X14544280Y-11963160D01*
X14549360Y-3739120D02*
X14579360Y-3769120D01*
X14579360Y-3739120D02*
X14549360Y-3769120D01*
X14549360Y-5471400D02*
X14579360Y-5501400D01*
X14579360Y-5471400D02*
X14549360Y-5501400D01*
X14549360Y-10774920D02*
X14579360Y-10804920D01*
X14579360Y-10774920D02*
X14549360Y-10804920D01*
X14549360Y-11348960D02*
X14579360Y-11378960D01*
X14579360Y-11348960D02*
X14549360Y-11378960D01*
X14554440Y-10216120D02*
X14584440Y-10246120D01*
X14584440Y-10216120D02*
X14554440Y-10246120D01*
X14564600Y-12187160D02*
X14594600Y-12217160D01*
X14594600Y-12187160D02*
X14564600Y-12217160D01*
X14574760Y-9540480D02*
X14604760Y-9570480D01*
X14604760Y-9540480D02*
X14574760Y-9570480D01*
X14579840Y-6167360D02*
X14609840Y-6197360D01*
X14609840Y-6167360D02*
X14579840Y-6197360D01*
X14584920Y-5247880D02*
X14614920Y-5277880D01*
X14614920Y-5247880D02*
X14584920Y-5277880D01*
X14584920Y-10983200D02*
X14614920Y-11013200D01*
X14614920Y-10983200D02*
X14584920Y-11013200D01*
X14590000Y-5354560D02*
X14620000Y-5384560D01*
X14620000Y-5354560D02*
X14590000Y-5384560D01*
X14590000Y-9845280D02*
X14620000Y-9875280D01*
X14620000Y-9845280D02*
X14590000Y-9875280D01*
X14590000Y-11552160D02*
X14620000Y-11582160D01*
X14620000Y-11552160D02*
X14590000Y-11582160D01*
X14595080Y-10409160D02*
X14625080Y-10439160D01*
X14625080Y-10409160D02*
X14595080Y-10439160D01*
X14595080Y-10719040D02*
X14625080Y-10749040D01*
X14625080Y-10719040D02*
X14595080Y-10749040D01*
X14595080Y-11293080D02*
X14625080Y-11323080D01*
X14625080Y-11293080D02*
X14595080Y-11323080D01*
X14595080Y-11882360D02*
X14625080Y-11912360D01*
X14625080Y-11882360D02*
X14595080Y-11912360D01*
X14600160Y-4140440D02*
X14630160Y-4170440D01*
X14630160Y-4140440D02*
X14600160Y-4170440D01*
X14605240Y-10160240D02*
X14635240Y-10190240D01*
X14635240Y-10160240D02*
X14605240Y-10190240D01*
X14615600Y-7147800D02*
X14645600Y-7177800D01*
X14645600Y-7147800D02*
X14615600Y-7177800D01*
X14615600Y-7269720D02*
X14645600Y-7299720D01*
X14645600Y-7269720D02*
X14615600Y-7299720D01*
X14630640Y-5039600D02*
X14660640Y-5069600D01*
X14660640Y-5039600D02*
X14630640Y-5069600D01*
X14630640Y-11039080D02*
X14660640Y-11069080D01*
X14660640Y-11039080D02*
X14630640Y-11069080D01*
X14635720Y-11613120D02*
X14665720Y-11643120D01*
X14665720Y-11613120D02*
X14635720Y-11643120D01*
X14640800Y-10470120D02*
X14670800Y-10500120D01*
X14670800Y-10470120D02*
X14640800Y-10500120D01*
X14645880Y-9896080D02*
X14675880Y-9926080D01*
X14675880Y-9896080D02*
X14645880Y-9926080D01*
X14656040Y-3281920D02*
X14686040Y-3311920D01*
X14686040Y-3281920D02*
X14656040Y-3311920D01*
X14656040Y-13116800D02*
X14686040Y-13146800D01*
X14686040Y-13116800D02*
X14656040Y-13146800D01*
X14676360Y-3556240D02*
X14706360Y-3586240D01*
X14706360Y-3556240D02*
X14676360Y-3586240D01*
X14681440Y-3749280D02*
X14711440Y-3779280D01*
X14711440Y-3749280D02*
X14681440Y-3779280D01*
X14681440Y-4054080D02*
X14711440Y-4084080D01*
X14711440Y-4054080D02*
X14681440Y-4084080D01*
X14681440Y-8920720D02*
X14711440Y-8950720D01*
X14711440Y-8920720D02*
X14681440Y-8950720D01*
X14681440Y-9266160D02*
X14711440Y-9296160D01*
X14711440Y-9266160D02*
X14681440Y-9296160D01*
X14686520Y-5776200D02*
X14716520Y-5806200D01*
X14716520Y-5776200D02*
X14686520Y-5806200D01*
X14686520Y-5903200D02*
X14716520Y-5933200D01*
X14716520Y-5903200D02*
X14686520Y-5933200D01*
X14691600Y-4663680D02*
X14721600Y-4693680D01*
X14721600Y-4663680D02*
X14691600Y-4693680D01*
X14691600Y-5654280D02*
X14721600Y-5684280D01*
X14721600Y-5654280D02*
X14691600Y-5684280D01*
X14691600Y-6126720D02*
X14721600Y-6156720D01*
X14721600Y-6126720D02*
X14691600Y-6156720D01*
X14696680Y-6030200D02*
X14726680Y-6060200D01*
X14726680Y-6030200D02*
X14696680Y-6060200D01*
X14717000Y-4836400D02*
X14747000Y-4866400D01*
X14747000Y-4836400D02*
X14717000Y-4866400D01*
X14717000Y-5466320D02*
X14747000Y-5496320D01*
X14747000Y-5466320D02*
X14717000Y-5496320D01*
X14717000Y-12812000D02*
X14747000Y-12842000D01*
X14747000Y-12812000D02*
X14717000Y-12842000D01*
X14722080Y-10744440D02*
X14752080Y-10774440D01*
X14752080Y-10744440D02*
X14722080Y-10774440D01*
X14722080Y-11354040D02*
X14752080Y-11384040D01*
X14752080Y-11354040D02*
X14722080Y-11384040D01*
X14732240Y-11978880D02*
X14762240Y-12008880D01*
X14762240Y-11978880D02*
X14732240Y-12008880D01*
X14737320Y-7091920D02*
X14767320Y-7121920D01*
X14767320Y-7091920D02*
X14737320Y-7121920D01*
X14747480Y-6680440D02*
X14777480Y-6710440D01*
X14777480Y-6680440D02*
X14747480Y-6710440D01*
X14747480Y-6756640D02*
X14777480Y-6786640D01*
X14777480Y-6756640D02*
X14747480Y-6786640D01*
X14747480Y-6837920D02*
X14777480Y-6867920D01*
X14777480Y-6837920D02*
X14747480Y-6867920D01*
X14747480Y-10231360D02*
X14777480Y-10261360D01*
X14777480Y-10231360D02*
X14747480Y-10261360D01*
X14757640Y-10063720D02*
X14787640Y-10093720D01*
X14787640Y-10063720D02*
X14757640Y-10093720D01*
X14757640Y-10653000D02*
X14787640Y-10683000D01*
X14787640Y-10653000D02*
X14757640Y-10683000D01*
X14762720Y-5578080D02*
X14792720Y-5608080D01*
X14792720Y-5578080D02*
X14762720Y-5608080D01*
X14767800Y-11252440D02*
X14797800Y-11282440D01*
X14797800Y-11252440D02*
X14767800Y-11282440D01*
X14772880Y-9103600D02*
X14802880Y-9133600D01*
X14802880Y-9103600D02*
X14772880Y-9133600D01*
X14772880Y-11877280D02*
X14802880Y-11907280D01*
X14802880Y-11877280D02*
X14772880Y-11907280D01*
X14777960Y-5801600D02*
X14807960Y-5831600D01*
X14807960Y-5801600D02*
X14777960Y-5831600D01*
X14793200Y-8102840D02*
X14823200Y-8132840D01*
X14823200Y-8102840D02*
X14793200Y-8132840D01*
X14798280Y-7848840D02*
X14828280Y-7878840D01*
X14828280Y-7848840D02*
X14798280Y-7878840D01*
X14803360Y-7396720D02*
X14833360Y-7426720D01*
X14833360Y-7396720D02*
X14803360Y-7426720D01*
X14808440Y-9316960D02*
X14838440Y-9346960D01*
X14838440Y-9316960D02*
X14808440Y-9346960D01*
X14813520Y-8275560D02*
X14843520Y-8305560D01*
X14843520Y-8275560D02*
X14813520Y-8305560D01*
X14838920Y-5974320D02*
X14868920Y-6004320D01*
X14868920Y-5974320D02*
X14838920Y-6004320D01*
X14849383Y-6073198D02*
X14879383Y-6103198D01*
X14879383Y-6073198D02*
X14849383Y-6103198D01*
X14864320Y-8681960D02*
X14894320Y-8711960D01*
X14894320Y-8681960D02*
X14864320Y-8711960D01*
X14874480Y-3276840D02*
X14904480Y-3306840D01*
X14904480Y-3276840D02*
X14874480Y-3306840D01*
X14894800Y-12060160D02*
X14924800Y-12090160D01*
X14924800Y-12060160D02*
X14894800Y-12090160D01*
X14899880Y-3520680D02*
X14929880Y-3550680D01*
X14929880Y-3520680D02*
X14899880Y-3550680D01*
X14904960Y-6421360D02*
X14934960Y-6451360D01*
X14934960Y-6421360D02*
X14904960Y-6451360D01*
X14915120Y-6909040D02*
X14945120Y-6939040D01*
X14945120Y-6909040D02*
X14915120Y-6939040D01*
X14945600Y-4409680D02*
X14975600Y-4439680D01*
X14975600Y-4409680D02*
X14945600Y-4439680D01*
X14960840Y-8808960D02*
X14990840Y-8838960D01*
X14990840Y-8808960D02*
X14960840Y-8838960D01*
X14960840Y-9103600D02*
X14990840Y-9133600D01*
X14990840Y-9103600D02*
X14960840Y-9133600D01*
X14960840Y-11354040D02*
X14990840Y-11384040D01*
X14990840Y-11354040D02*
X14960840Y-11384040D01*
X14976080Y-12740880D02*
X15006080Y-12770880D01*
X15006080Y-12740880D02*
X14976080Y-12770880D01*
X14990310Y-10739360D02*
X15020310Y-10769360D01*
X15020310Y-10739360D02*
X14990310Y-10769360D01*
X14991320Y-12415760D02*
X15021320Y-12445760D01*
X15021320Y-12415760D02*
X14991320Y-12445760D01*
X15006560Y-6228320D02*
X15036560Y-6258320D01*
X15036560Y-6228320D02*
X15006560Y-6258320D01*
X15011640Y-3749280D02*
X15041640Y-3779280D01*
X15041640Y-3749280D02*
X15011640Y-3779280D01*
X15016720Y-6944600D02*
X15046720Y-6974600D01*
X15046720Y-6944600D02*
X15016720Y-6974600D01*
X15025870Y-10150080D02*
X15055870Y-10180080D01*
X15055870Y-10150080D02*
X15025870Y-10180080D01*
X15031960Y-10251680D02*
X15061960Y-10281680D01*
X15061960Y-10251680D02*
X15031960Y-10281680D01*
X15031960Y-10322800D02*
X15061960Y-10352800D01*
X15061960Y-10322800D02*
X15031960Y-10352800D01*
X15031960Y-10393920D02*
X15061960Y-10423920D01*
X15061960Y-10393920D02*
X15031960Y-10423920D01*
X15037040Y-10861280D02*
X15067040Y-10891280D01*
X15067040Y-10861280D02*
X15037040Y-10891280D01*
X15037040Y-10932400D02*
X15067040Y-10962400D01*
X15067040Y-10932400D02*
X15037040Y-10962400D01*
X15037040Y-11003520D02*
X15067040Y-11033520D01*
X15067040Y-11003520D02*
X15037040Y-11033520D01*
X15042120Y-13121880D02*
X15072120Y-13151880D01*
X15072120Y-13121880D02*
X15042120Y-13151880D01*
X15052158Y-11486158D02*
X15082158Y-11516158D01*
X15082158Y-11486158D02*
X15052158Y-11516158D01*
X15052280Y-11557240D02*
X15082280Y-11587240D01*
X15082280Y-11557240D02*
X15052280Y-11587240D01*
X15052280Y-11628360D02*
X15082280Y-11658360D01*
X15082280Y-11628360D02*
X15052280Y-11658360D01*
X15060822Y-9677640D02*
X15090822Y-9707640D01*
X15090822Y-9677640D02*
X15060822Y-9707640D01*
X15060822Y-9748760D02*
X15090822Y-9778760D01*
X15090822Y-9748760D02*
X15060822Y-9778760D01*
X15062440Y-5481560D02*
X15092440Y-5511560D01*
X15092440Y-5481560D02*
X15062440Y-5511560D01*
X15062440Y-9819880D02*
X15092440Y-9849880D01*
X15092440Y-9819880D02*
X15062440Y-9849880D01*
X15072600Y-5131040D02*
X15102600Y-5161040D01*
X15102600Y-5131040D02*
X15072600Y-5161040D01*
X15074434Y-5312880D02*
X15104434Y-5342880D01*
X15104434Y-5312880D02*
X15074434Y-5342880D01*
X15082760Y-4973560D02*
X15112760Y-5003560D01*
X15112760Y-4973560D02*
X15082760Y-5003560D01*
X15082760Y-6782040D02*
X15112760Y-6812040D01*
X15112760Y-6782040D02*
X15082760Y-6812040D01*
X15092590Y-6873480D02*
X15122590Y-6903480D01*
X15122590Y-6873480D02*
X15092590Y-6903480D01*
X15118320Y-7650720D02*
X15148320Y-7680720D01*
X15148320Y-7650720D02*
X15118320Y-7680720D01*
X15118320Y-7960600D02*
X15148320Y-7990600D01*
X15148320Y-7960600D02*
X15118320Y-7990600D01*
X15123400Y-7340840D02*
X15153400Y-7370840D01*
X15153400Y-7340840D02*
X15123400Y-7370840D01*
X15138640Y-4658600D02*
X15168640Y-4688600D01*
X15168640Y-4658600D02*
X15138640Y-4688600D01*
X15138640Y-9555720D02*
X15168640Y-9585720D01*
X15168640Y-9555720D02*
X15138640Y-9585720D01*
X15153880Y-3525760D02*
X15183880Y-3555760D01*
X15183880Y-3525760D02*
X15153880Y-3555760D01*
X15153880Y-5207240D02*
X15183880Y-5237240D01*
X15183880Y-5207240D02*
X15153880Y-5237240D01*
X15158960Y-7127480D02*
X15188960Y-7157480D01*
X15188960Y-7127480D02*
X15158960Y-7157480D01*
X15164040Y-8280640D02*
X15194040Y-8310640D01*
X15194040Y-8280640D02*
X15164040Y-8310640D01*
X15169120Y-7015720D02*
X15199120Y-7045720D01*
X15199120Y-7015720D02*
X15169120Y-7045720D01*
X15179280Y-5125960D02*
X15209280Y-5155960D01*
X15209280Y-5125960D02*
X15179280Y-5155960D01*
X15179280Y-9906240D02*
X15209280Y-9936240D01*
X15209280Y-9906240D02*
X15179280Y-9936240D01*
X15179280Y-10038320D02*
X15209280Y-10068320D01*
X15209280Y-10038320D02*
X15179280Y-10068320D01*
X15179280Y-10160240D02*
X15209280Y-10190240D01*
X15209280Y-10160240D02*
X15179280Y-10190240D01*
X15179280Y-10292320D02*
X15209280Y-10322320D01*
X15209280Y-10292320D02*
X15179280Y-10322320D01*
X15179280Y-10510760D02*
X15209280Y-10540760D01*
X15209280Y-10510760D02*
X15179280Y-10540760D01*
X15179280Y-10642840D02*
X15209280Y-10672840D01*
X15209280Y-10642840D02*
X15179280Y-10672840D01*
X15179280Y-10764760D02*
X15209280Y-10794760D01*
X15209280Y-10764760D02*
X15179280Y-10794760D01*
X15179280Y-10896840D02*
X15209280Y-10926840D01*
X15209280Y-10896840D02*
X15179280Y-10926840D01*
X15179280Y-11120360D02*
X15209280Y-11150360D01*
X15209280Y-11120360D02*
X15179280Y-11150360D01*
X15179280Y-11252440D02*
X15209280Y-11282440D01*
X15209280Y-11252440D02*
X15179280Y-11282440D01*
X15179280Y-11374360D02*
X15209280Y-11404360D01*
X15209280Y-11374360D02*
X15179280Y-11404360D01*
X15179280Y-11506440D02*
X15209280Y-11536440D01*
X15209280Y-11506440D02*
X15179280Y-11536440D01*
X15179280Y-11724880D02*
X15209280Y-11754880D01*
X15209280Y-11724880D02*
X15179280Y-11754880D01*
X15179280Y-11856960D02*
X15209280Y-11886960D01*
X15209280Y-11856960D02*
X15179280Y-11886960D01*
X15179280Y-11978880D02*
X15209280Y-12008880D01*
X15209280Y-11978880D02*
X15179280Y-12008880D01*
X15179280Y-12110960D02*
X15209280Y-12140960D01*
X15209280Y-12110960D02*
X15179280Y-12140960D01*
X15184360Y-3759440D02*
X15214360Y-3789440D01*
X15214360Y-3759440D02*
X15184360Y-3789440D01*
X15219920Y-4059160D02*
X15249920Y-4089160D01*
X15249920Y-4059160D02*
X15219920Y-4089160D01*
X15255480Y-3287000D02*
X15285480Y-3317000D01*
X15285480Y-3287000D02*
X15255480Y-3317000D01*
X15260560Y-9794480D02*
X15290560Y-9824480D01*
X15290560Y-9794480D02*
X15260560Y-9824480D01*
X15265640Y-4658600D02*
X15295640Y-4688600D01*
X15295640Y-4658600D02*
X15265640Y-4688600D01*
X15270720Y-4562080D02*
X15300720Y-4592080D01*
X15300720Y-4562080D02*
X15270720Y-4592080D01*
X15285960Y-4795760D02*
X15315960Y-4825760D01*
X15315960Y-4795760D02*
X15285960Y-4825760D01*
X15292268Y-6243151D02*
X15322268Y-6273151D01*
X15322268Y-6243151D02*
X15292268Y-6273151D01*
X15297162Y-9195040D02*
X15327162Y-9225040D01*
X15327162Y-9195040D02*
X15297162Y-9225040D01*
X15297162Y-9286480D02*
X15327162Y-9316480D01*
X15327162Y-9286480D02*
X15297162Y-9316480D01*
X15311360Y-9906240D02*
X15341360Y-9936240D01*
X15341360Y-9906240D02*
X15311360Y-9936240D01*
X15311360Y-10038320D02*
X15341360Y-10068320D01*
X15341360Y-10038320D02*
X15311360Y-10068320D01*
X15311360Y-10160240D02*
X15341360Y-10190240D01*
X15341360Y-10160240D02*
X15311360Y-10190240D01*
X15311360Y-10292320D02*
X15341360Y-10322320D01*
X15341360Y-10292320D02*
X15311360Y-10322320D01*
X15311360Y-10510760D02*
X15341360Y-10540760D01*
X15341360Y-10510760D02*
X15311360Y-10540760D01*
X15311360Y-10642840D02*
X15341360Y-10672840D01*
X15341360Y-10642840D02*
X15311360Y-10672840D01*
X15311360Y-10764760D02*
X15341360Y-10794760D01*
X15341360Y-10764760D02*
X15311360Y-10794760D01*
X15311360Y-10896840D02*
X15341360Y-10926840D01*
X15341360Y-10896840D02*
X15311360Y-10926840D01*
X15311360Y-11120360D02*
X15341360Y-11150360D01*
X15341360Y-11120360D02*
X15311360Y-11150360D01*
X15311360Y-11252440D02*
X15341360Y-11282440D01*
X15341360Y-11252440D02*
X15311360Y-11282440D01*
X15311360Y-11374360D02*
X15341360Y-11404360D01*
X15341360Y-11374360D02*
X15311360Y-11404360D01*
X15311360Y-11506440D02*
X15341360Y-11536440D01*
X15341360Y-11506440D02*
X15311360Y-11536440D01*
X15311360Y-11724880D02*
X15341360Y-11754880D01*
X15341360Y-11724880D02*
X15311360Y-11754880D01*
X15311360Y-11856960D02*
X15341360Y-11886960D01*
X15341360Y-11856960D02*
X15311360Y-11886960D01*
X15311360Y-11978880D02*
X15341360Y-12008880D01*
X15341360Y-11978880D02*
X15311360Y-12008880D01*
X15311360Y-12110960D02*
X15341360Y-12140960D01*
X15341360Y-12110960D02*
X15311360Y-12140960D01*
X15319683Y-5313625D02*
X15349683Y-5343625D01*
X15349683Y-5313625D02*
X15319683Y-5343625D01*
X15326114Y-9366344D02*
X15356114Y-9396344D01*
X15356114Y-9366344D02*
X15326114Y-9396344D01*
X15346920Y-12461480D02*
X15376920Y-12491480D01*
X15376920Y-12461480D02*
X15346920Y-12491480D01*
X15352000Y-12751040D02*
X15382000Y-12781040D01*
X15382000Y-12751040D02*
X15352000Y-12781040D01*
X15362979Y-6172440D02*
X15392979Y-6202440D01*
X15392979Y-6172440D02*
X15362979Y-6202440D01*
X15362979Y-6313861D02*
X15392979Y-6343861D01*
X15392979Y-6313861D02*
X15362979Y-6343861D01*
X15363730Y-5567920D02*
X15393730Y-5597920D01*
X15393730Y-5567920D02*
X15363730Y-5597920D01*
X15367240Y-13111720D02*
X15397240Y-13141720D01*
X15397240Y-13111720D02*
X15367240Y-13141720D01*
X15398185Y-9438415D02*
X15428185Y-9468415D01*
X15428185Y-9438415D02*
X15398185Y-9468415D01*
X15402800Y-5227560D02*
X15432800Y-5257560D01*
X15432800Y-5227560D02*
X15402800Y-5257560D01*
X15404556Y-5317246D02*
X15434556Y-5347246D01*
X15434556Y-5317246D02*
X15404556Y-5347246D01*
X15433689Y-6101729D02*
X15463689Y-6131729D01*
X15463689Y-6101729D02*
X15433689Y-6131729D01*
X15433689Y-6243151D02*
X15463689Y-6273151D01*
X15463689Y-6243151D02*
X15433689Y-6273151D01*
X15433689Y-6384572D02*
X15463689Y-6414572D01*
X15463689Y-6384572D02*
X15433689Y-6414572D01*
X15443440Y-3261600D02*
X15473440Y-3291600D01*
X15473440Y-3261600D02*
X15443440Y-3291600D01*
X15443440Y-3447020D02*
X15473440Y-3477020D01*
X15473440Y-3447020D02*
X15443440Y-3477020D01*
X15443440Y-3632440D02*
X15473440Y-3662440D01*
X15473440Y-3632440D02*
X15443440Y-3662440D01*
X15470410Y-7538960D02*
X15500410Y-7568960D01*
X15500410Y-7538960D02*
X15470410Y-7568960D01*
X15499320Y-7986000D02*
X15529320Y-8016000D01*
X15529320Y-7986000D02*
X15499320Y-8016000D01*
X15504400Y-5506960D02*
X15534400Y-5536960D01*
X15534400Y-5506960D02*
X15504400Y-5536960D01*
X15504400Y-5750800D02*
X15534400Y-5780800D01*
X15534400Y-5750800D02*
X15504400Y-5780800D01*
X15504400Y-6031019D02*
X15534400Y-6061019D01*
X15534400Y-6031019D02*
X15504400Y-6061019D01*
X15504400Y-6172440D02*
X15534400Y-6202440D01*
X15534400Y-6172440D02*
X15504400Y-6202440D01*
X15504400Y-6313861D02*
X15534400Y-6343861D01*
X15534400Y-6313861D02*
X15504400Y-6343861D01*
X15504400Y-6455283D02*
X15534400Y-6485283D01*
X15534400Y-6455283D02*
X15504400Y-6485283D01*
X15529800Y-9403320D02*
X15559800Y-9433320D01*
X15559800Y-9403320D02*
X15529800Y-9433320D01*
X15550120Y-7589760D02*
X15580120Y-7619760D01*
X15580120Y-7589760D02*
X15550120Y-7619760D01*
X15550700Y-8785100D02*
X15580700Y-8815100D01*
X15580700Y-8785100D02*
X15550700Y-8815100D01*
X15550700Y-8910100D02*
X15580700Y-8940100D01*
X15580700Y-8910100D02*
X15550700Y-8940100D01*
X15550700Y-9035100D02*
X15580700Y-9065100D01*
X15580700Y-9035100D02*
X15550700Y-9065100D01*
X15550700Y-9160100D02*
X15580700Y-9190100D01*
X15580700Y-9160100D02*
X15550700Y-9190100D01*
X15551162Y-7320520D02*
X15581162Y-7350520D01*
X15581162Y-7320520D02*
X15551162Y-7350520D01*
X15575111Y-6101729D02*
X15605111Y-6131729D01*
X15605111Y-6101729D02*
X15575111Y-6131729D01*
X15575111Y-6243151D02*
X15605111Y-6273151D01*
X15605111Y-6243151D02*
X15575111Y-6273151D01*
X15575111Y-6384572D02*
X15605111Y-6414572D01*
X15605111Y-6384572D02*
X15575111Y-6414572D01*
X15575520Y-7935200D02*
X15605520Y-7965200D01*
X15605520Y-7935200D02*
X15575520Y-7965200D01*
X15580600Y-13111720D02*
X15610600Y-13141720D01*
X15610600Y-13111720D02*
X15580600Y-13141720D01*
X15616160Y-11623280D02*
X15646160Y-11653280D01*
X15646160Y-11623280D02*
X15616160Y-11653280D01*
X15621240Y-12385280D02*
X15651240Y-12415280D01*
X15651240Y-12385280D02*
X15621240Y-12415280D01*
X15621240Y-12766280D02*
X15651240Y-12796280D01*
X15651240Y-12766280D02*
X15621240Y-12796280D01*
X15645821Y-6172440D02*
X15675821Y-6202440D01*
X15675821Y-6172440D02*
X15645821Y-6202440D01*
X15645821Y-6313861D02*
X15675821Y-6343861D01*
X15675821Y-6313861D02*
X15645821Y-6343861D01*
X15651720Y-4323320D02*
X15681720Y-4353320D01*
X15681720Y-4323320D02*
X15651720Y-4353320D01*
X15682200Y-7411960D02*
X15712200Y-7441960D01*
X15712200Y-7411960D02*
X15682200Y-7441960D01*
X15682200Y-9662400D02*
X15712200Y-9692400D01*
X15712200Y-9662400D02*
X15682200Y-9692400D01*
X15692360Y-3754360D02*
X15722360Y-3784360D01*
X15722360Y-3754360D02*
X15692360Y-3784360D01*
X15702520Y-12446240D02*
X15732520Y-12476240D01*
X15732520Y-12446240D02*
X15702520Y-12476240D01*
X15707600Y-12695160D02*
X15737600Y-12725160D01*
X15737600Y-12695160D02*
X15707600Y-12725160D01*
X15712680Y-3861040D02*
X15742680Y-3891040D01*
X15742680Y-3861040D02*
X15712680Y-3891040D01*
X15716532Y-6243151D02*
X15746532Y-6273151D01*
X15746532Y-6243151D02*
X15716532Y-6273151D01*
X15717760Y-11186400D02*
X15747760Y-11216400D01*
X15747760Y-11186400D02*
X15717760Y-11216400D01*
X15722840Y-11084800D02*
X15752840Y-11114800D01*
X15752840Y-11084800D02*
X15722840Y-11114800D01*
X15727920Y-10861280D02*
X15757920Y-10891280D01*
X15757920Y-10861280D02*
X15727920Y-10891280D01*
X15743160Y-4678920D02*
X15773160Y-4708920D01*
X15773160Y-4678920D02*
X15743160Y-4708920D01*
X15763480Y-8473680D02*
X15793480Y-8503680D01*
X15793480Y-8473680D02*
X15763480Y-8503680D01*
X15768560Y-7345920D02*
X15798560Y-7375920D01*
X15798560Y-7345920D02*
X15768560Y-7375920D01*
X15768560Y-9469360D02*
X15798560Y-9499360D01*
X15798560Y-9469360D02*
X15768560Y-9499360D01*
X15773640Y-4043920D02*
X15803640Y-4073920D01*
X15803640Y-4043920D02*
X15773640Y-4073920D01*
X15773640Y-5374880D02*
X15803640Y-5404880D01*
X15803640Y-5374880D02*
X15773640Y-5404880D01*
X15773640Y-8346680D02*
X15803640Y-8376680D01*
X15803640Y-8346680D02*
X15773640Y-8376680D01*
X15783800Y-4882120D02*
X15813800Y-4912120D01*
X15813800Y-4882120D02*
X15783800Y-4912120D01*
X15783800Y-5491720D02*
X15813800Y-5521720D01*
X15813800Y-5491720D02*
X15783800Y-5521720D01*
X15783800Y-10180560D02*
X15813800Y-10210560D01*
X15813800Y-10180560D02*
X15783800Y-10210560D01*
X15783800Y-12385280D02*
X15813800Y-12415280D01*
X15813800Y-12385280D02*
X15783800Y-12415280D01*
X15783800Y-12766280D02*
X15813800Y-12796280D01*
X15813800Y-12766280D02*
X15783800Y-12796280D01*
X15792064Y-6622359D02*
X15822064Y-6652359D01*
X15822064Y-6622359D02*
X15792064Y-6652359D01*
X15809200Y-4484310D02*
X15839200Y-4514310D01*
X15839200Y-4484310D02*
X15809200Y-4514310D01*
X15814280Y-5039600D02*
X15844280Y-5069600D01*
X15844280Y-5039600D02*
X15814280Y-5069600D01*
X15814280Y-9931640D02*
X15844280Y-9961640D01*
X15844280Y-9931640D02*
X15814280Y-9961640D01*
X15824440Y-8646400D02*
X15854440Y-8676400D01*
X15854440Y-8646400D02*
X15824440Y-8676400D01*
X15829520Y-10586960D02*
X15859520Y-10616960D01*
X15859520Y-10586960D02*
X15829520Y-10616960D01*
X15849840Y-11724880D02*
X15879840Y-11754880D01*
X15879840Y-11724880D02*
X15849840Y-11754880D01*
X15849840Y-11856960D02*
X15879840Y-11886960D01*
X15879840Y-11856960D02*
X15849840Y-11886960D01*
X15849840Y-11978880D02*
X15879840Y-12008880D01*
X15879840Y-11978880D02*
X15849840Y-12008880D01*
X15849840Y-12110960D02*
X15879840Y-12140960D01*
X15879840Y-12110960D02*
X15849840Y-12140960D01*
X15854920Y-4963400D02*
X15884920Y-4993400D01*
X15884920Y-4963400D02*
X15854920Y-4993400D01*
X15854920Y-8168880D02*
X15884920Y-8198880D01*
X15884920Y-8168880D02*
X15854920Y-8198880D01*
X15854920Y-11613120D02*
X15884920Y-11643120D01*
X15884920Y-11613120D02*
X15854920Y-11643120D01*
X15860000Y-8473680D02*
X15890000Y-8503680D01*
X15890000Y-8473680D02*
X15860000Y-8503680D01*
X15865080Y-9469360D02*
X15895080Y-9499360D01*
X15895080Y-9469360D02*
X15865080Y-9499360D01*
X15866650Y-6771880D02*
X15896650Y-6801880D01*
X15896650Y-6771880D02*
X15866650Y-6801880D01*
X15885400Y-4633200D02*
X15915400Y-4663200D01*
X15915400Y-4633200D02*
X15885400Y-4663200D01*
X15885400Y-5491720D02*
X15915400Y-5521720D01*
X15915400Y-5491720D02*
X15885400Y-5521720D01*
X15895560Y-5588240D02*
X15925560Y-5618240D01*
X15925560Y-5588240D02*
X15895560Y-5618240D01*
X15899070Y-5379960D02*
X15929070Y-5409960D01*
X15929070Y-5379960D02*
X15899070Y-5409960D01*
X15936200Y-12385280D02*
X15966200Y-12415280D01*
X15966200Y-12385280D02*
X15936200Y-12415280D01*
X15936200Y-12766280D02*
X15966200Y-12796280D01*
X15966200Y-12766280D02*
X15936200Y-12796280D01*
X15946360Y-6045440D02*
X15976360Y-6075440D01*
X15976360Y-6045440D02*
X15946360Y-6075440D01*
X15951440Y-8245080D02*
X15981440Y-8275080D01*
X15981440Y-8245080D02*
X15951440Y-8275080D01*
X15956520Y-4805920D02*
X15986520Y-4835920D01*
X15986520Y-4805920D02*
X15956520Y-4835920D01*
X15956520Y-8473680D02*
X15986520Y-8503680D01*
X15986520Y-8473680D02*
X15956520Y-8503680D01*
X15961600Y-9469360D02*
X15991600Y-9499360D01*
X15991600Y-9469360D02*
X15961600Y-9499360D01*
X15961600Y-11247360D02*
X15991600Y-11277360D01*
X15991600Y-11247360D02*
X15961600Y-11277360D01*
X15971760Y-5781280D02*
X16001760Y-5811280D01*
X16001760Y-5781280D02*
X15971760Y-5811280D01*
X15981920Y-8036800D02*
X16011920Y-8066800D01*
X16011920Y-8036800D02*
X15981920Y-8066800D01*
X15987000Y-4623040D02*
X16017000Y-4653040D01*
X16017000Y-4623040D02*
X15987000Y-4653040D01*
X15997160Y-4490960D02*
X16027160Y-4520960D01*
X16027160Y-4490960D02*
X15997160Y-4520960D01*
X16012400Y-4988800D02*
X16042400Y-5018800D01*
X16042400Y-4988800D02*
X16012400Y-5018800D01*
X16017480Y-12456400D02*
X16047480Y-12486400D01*
X16047480Y-12456400D02*
X16017480Y-12486400D01*
X16017480Y-12690080D02*
X16047480Y-12720080D01*
X16047480Y-12690080D02*
X16017480Y-12720080D01*
X16027640Y-3784840D02*
X16057640Y-3814840D01*
X16057640Y-3784840D02*
X16027640Y-3814840D01*
X16027640Y-4038840D02*
X16057640Y-4068840D01*
X16057640Y-4038840D02*
X16027640Y-4068840D01*
X16027640Y-5491720D02*
X16057640Y-5521720D01*
X16057640Y-5491720D02*
X16027640Y-5521720D01*
X16027640Y-6258800D02*
X16057640Y-6288800D01*
X16057640Y-6258800D02*
X16027640Y-6288800D01*
X16032720Y-11724880D02*
X16062720Y-11754880D01*
X16062720Y-11724880D02*
X16032720Y-11754880D01*
X16032720Y-11856960D02*
X16062720Y-11886960D01*
X16062720Y-11856960D02*
X16032720Y-11886960D01*
X16032720Y-11978880D02*
X16062720Y-12008880D01*
X16062720Y-11978880D02*
X16032720Y-12008880D01*
X16032720Y-12110960D02*
X16062720Y-12140960D01*
X16062720Y-12110960D02*
X16032720Y-12140960D01*
X16058120Y-5852400D02*
X16088120Y-5882400D01*
X16088120Y-5852400D02*
X16058120Y-5882400D01*
X16068280Y-11486120D02*
X16098280Y-11516120D01*
X16098280Y-11486120D02*
X16068280Y-11516120D01*
X16078440Y-10571720D02*
X16108440Y-10601720D01*
X16108440Y-10571720D02*
X16078440Y-10601720D01*
X16078440Y-11237200D02*
X16108440Y-11267200D01*
X16108440Y-11237200D02*
X16078440Y-11267200D01*
X16078440Y-11364200D02*
X16108440Y-11394200D01*
X16108440Y-11364200D02*
X16078440Y-11394200D01*
X16083520Y-10429480D02*
X16113520Y-10459480D01*
X16113520Y-10429480D02*
X16083520Y-10459480D01*
X16083520Y-10729200D02*
X16113520Y-10759200D01*
X16113520Y-10729200D02*
X16083520Y-10759200D01*
X16103448Y-6686987D02*
X16133448Y-6716987D01*
X16133448Y-6686987D02*
X16103448Y-6716987D01*
X16103840Y-12385280D02*
X16133840Y-12415280D01*
X16133840Y-12385280D02*
X16103840Y-12415280D01*
X16103840Y-12766280D02*
X16133840Y-12796280D01*
X16133840Y-12766280D02*
X16103840Y-12796280D01*
X16109500Y-8785100D02*
X16139500Y-8815100D01*
X16139500Y-8785100D02*
X16109500Y-8815100D01*
X16109500Y-8910100D02*
X16139500Y-8940100D01*
X16139500Y-8910100D02*
X16109500Y-8940100D01*
X16114000Y-5705080D02*
X16144000Y-5735080D01*
X16144000Y-5705080D02*
X16114000Y-5735080D01*
X16114000Y-6009880D02*
X16144000Y-6039880D01*
X16144000Y-6009880D02*
X16114000Y-6039880D01*
X16134320Y-7046200D02*
X16164320Y-7076200D01*
X16164320Y-7046200D02*
X16134320Y-7076200D01*
X16139400Y-6238480D02*
X16169400Y-6268480D01*
X16169400Y-6238480D02*
X16139400Y-6268480D01*
X16144480Y-9830040D02*
X16174480Y-9860040D01*
X16174480Y-9830040D02*
X16144480Y-9860040D01*
X16149560Y-9479520D02*
X16179560Y-9509520D01*
X16179560Y-9479520D02*
X16149560Y-9509520D01*
X16154640Y-5354560D02*
X16184640Y-5384560D01*
X16184640Y-5354560D02*
X16154640Y-5384560D01*
X16159720Y-10170400D02*
X16189720Y-10200400D01*
X16189720Y-10170400D02*
X16159720Y-10200400D01*
X16159991Y-5776504D02*
X16189991Y-5806504D01*
X16189991Y-5776504D02*
X16159991Y-5806504D01*
X16164800Y-5263120D02*
X16194800Y-5293120D01*
X16194800Y-5263120D02*
X16164800Y-5293120D01*
X16164800Y-6873480D02*
X16194800Y-6903480D01*
X16194800Y-6873480D02*
X16164800Y-6903480D01*
X16174960Y-6751560D02*
X16204960Y-6781560D01*
X16204960Y-6751560D02*
X16174960Y-6781560D01*
X16180040Y-11912840D02*
X16210040Y-11942840D01*
X16210040Y-11912840D02*
X16180040Y-11942840D01*
X16195280Y-4526520D02*
X16225280Y-4556520D01*
X16225280Y-4526520D02*
X16195280Y-4556520D01*
X16195280Y-5105640D02*
X16225280Y-5135640D01*
X16225280Y-5105640D02*
X16195280Y-5135640D01*
X16200360Y-12207480D02*
X16230360Y-12237480D01*
X16230360Y-12207480D02*
X16200360Y-12237480D01*
X16210520Y-6451840D02*
X16240520Y-6481840D01*
X16240520Y-6451840D02*
X16210520Y-6481840D01*
X16220680Y-4988800D02*
X16250680Y-5018800D01*
X16250680Y-4988800D02*
X16220680Y-5018800D01*
X16225760Y-10429480D02*
X16255760Y-10459480D01*
X16255760Y-10429480D02*
X16225760Y-10459480D01*
X16225760Y-10571720D02*
X16255760Y-10601720D01*
X16255760Y-10571720D02*
X16225760Y-10601720D01*
X16225760Y-10729200D02*
X16255760Y-10759200D01*
X16255760Y-10729200D02*
X16225760Y-10759200D01*
X16230840Y-11237200D02*
X16260840Y-11267200D01*
X16260840Y-11237200D02*
X16230840Y-11267200D01*
X16230840Y-11364200D02*
X16260840Y-11394200D01*
X16260840Y-11364200D02*
X16230840Y-11394200D01*
X16235920Y-11486120D02*
X16265920Y-11516120D01*
X16265920Y-11486120D02*
X16235920Y-11516120D01*
X16246080Y-13050760D02*
X16276080Y-13080760D01*
X16276080Y-13050760D02*
X16246080Y-13080760D01*
X16256240Y-6111480D02*
X16286240Y-6141480D01*
X16286240Y-6111480D02*
X16256240Y-6141480D01*
X16256512Y-5714349D02*
X16286512Y-5744349D01*
X16286512Y-5714349D02*
X16256512Y-5744349D01*
X16261320Y-12857720D02*
X16291320Y-12887720D01*
X16291320Y-12857720D02*
X16261320Y-12887720D01*
X16266400Y-5842240D02*
X16296400Y-5872240D01*
X16296400Y-5842240D02*
X16266400Y-5872240D01*
X16275440Y-5272160D02*
X16305440Y-5302160D01*
X16305440Y-5272160D02*
X16275440Y-5302160D01*
X16276560Y-4460480D02*
X16306560Y-4490480D01*
X16306560Y-4460480D02*
X16276560Y-4490480D01*
X16276560Y-7960600D02*
X16306560Y-7990600D01*
X16306560Y-7960600D02*
X16276560Y-7990600D01*
X16281640Y-11110200D02*
X16311640Y-11140200D01*
X16311640Y-11110200D02*
X16281640Y-11140200D01*
X16286720Y-8306040D02*
X16316720Y-8336040D01*
X16316720Y-8306040D02*
X16286720Y-8336040D01*
X16286720Y-10901920D02*
X16316720Y-10931920D01*
X16316720Y-10901920D02*
X16286720Y-10931920D01*
X16294814Y-6462377D02*
X16324814Y-6492377D01*
X16324814Y-6462377D02*
X16294814Y-6492377D01*
X16296880Y-3261600D02*
X16326880Y-3291600D01*
X16326880Y-3261600D02*
X16296880Y-3291600D01*
X16296880Y-3449560D02*
X16326880Y-3479560D01*
X16326880Y-3449560D02*
X16296880Y-3479560D01*
X16296880Y-3637520D02*
X16326880Y-3667520D01*
X16326880Y-3637520D02*
X16296880Y-3667520D01*
X16322280Y-12552920D02*
X16352280Y-12582920D01*
X16352280Y-12552920D02*
X16322280Y-12582920D01*
X16337520Y-8788640D02*
X16367520Y-8818640D01*
X16367520Y-8788640D02*
X16337520Y-8818640D01*
X16337520Y-8910560D02*
X16367520Y-8940560D01*
X16367520Y-8910560D02*
X16337520Y-8940560D01*
X16337520Y-11389600D02*
X16367520Y-11419600D01*
X16367520Y-11389600D02*
X16337520Y-11419600D01*
X16342600Y-9469360D02*
X16372600Y-9499360D01*
X16372600Y-9469360D02*
X16342600Y-9499360D01*
X16347680Y-8473680D02*
X16377680Y-8503680D01*
X16377680Y-8473680D02*
X16347680Y-8503680D01*
X16357840Y-5217400D02*
X16387840Y-5247400D01*
X16387840Y-5217400D02*
X16357840Y-5247400D01*
X16373080Y-6309600D02*
X16403080Y-6339600D01*
X16403080Y-6309600D02*
X16373080Y-6339600D01*
X16379763Y-6461968D02*
X16409763Y-6491968D01*
X16409763Y-6461968D02*
X16379763Y-6491968D01*
X16393400Y-4567160D02*
X16423400Y-4597160D01*
X16423400Y-4567160D02*
X16393400Y-4597160D01*
X16398480Y-7772640D02*
X16428480Y-7802640D01*
X16428480Y-7772640D02*
X16398480Y-7802640D01*
X16413720Y-5725400D02*
X16443720Y-5755400D01*
X16443720Y-5725400D02*
X16413720Y-5755400D01*
X16423880Y-4379200D02*
X16453880Y-4409200D01*
X16453880Y-4379200D02*
X16423880Y-4409200D01*
X16428960Y-4678920D02*
X16458960Y-4708920D01*
X16458960Y-4678920D02*
X16428960Y-4708920D01*
X16434040Y-5105640D02*
X16464040Y-5135640D01*
X16464040Y-5105640D02*
X16434040Y-5135640D01*
X16434040Y-11907760D02*
X16464040Y-11937760D01*
X16464040Y-11907760D02*
X16434040Y-11937760D01*
X16439120Y-9469360D02*
X16469120Y-9499360D01*
X16469120Y-9469360D02*
X16439120Y-9499360D01*
X16454360Y-10835880D02*
X16484360Y-10865880D01*
X16484360Y-10835880D02*
X16454360Y-10865880D01*
X16464520Y-8473680D02*
X16494520Y-8503680D01*
X16494520Y-8473680D02*
X16464520Y-8503680D01*
X16469600Y-10581880D02*
X16499600Y-10611880D01*
X16499600Y-10581880D02*
X16469600Y-10611880D01*
X16474680Y-6462000D02*
X16504680Y-6492000D01*
X16504680Y-6462000D02*
X16474680Y-6492000D01*
X16489920Y-4103310D02*
X16519920Y-4133310D01*
X16519920Y-4103310D02*
X16489920Y-4133310D01*
X16495000Y-4871960D02*
X16525000Y-4901960D01*
X16525000Y-4871960D02*
X16495000Y-4901960D01*
X16495000Y-5329160D02*
X16525000Y-5359160D01*
X16525000Y-5329160D02*
X16495000Y-5359160D01*
X16498399Y-5619030D02*
X16528399Y-5649030D01*
X16528399Y-5619030D02*
X16498399Y-5649030D01*
X16505160Y-9941800D02*
X16535160Y-9971800D01*
X16535160Y-9941800D02*
X16505160Y-9971800D01*
X16510240Y-9652240D02*
X16540240Y-9682240D01*
X16540240Y-9652240D02*
X16510240Y-9682240D01*
X16520400Y-4292840D02*
X16550400Y-4322840D01*
X16550400Y-4292840D02*
X16520400Y-4322840D01*
X16520400Y-6075920D02*
X16550400Y-6105920D01*
X16550400Y-6075920D02*
X16520400Y-6105920D01*
X16520400Y-6213080D02*
X16550400Y-6243080D01*
X16550400Y-6213080D02*
X16520400Y-6243080D01*
X16520400Y-10195800D02*
X16550400Y-10225800D01*
X16550400Y-10195800D02*
X16520400Y-10225800D01*
X16525480Y-10901920D02*
X16555480Y-10931920D01*
X16555480Y-10901920D02*
X16525480Y-10931920D01*
X16525480Y-11110200D02*
X16555480Y-11140200D01*
X16555480Y-11110200D02*
X16525480Y-11140200D01*
X16530560Y-12197320D02*
X16560560Y-12227320D01*
X16560560Y-12197320D02*
X16530560Y-12227320D01*
X16535640Y-9469360D02*
X16565640Y-9499360D01*
X16565640Y-9469360D02*
X16535640Y-9499360D01*
X16535640Y-10820640D02*
X16565640Y-10850640D01*
X16565640Y-10820640D02*
X16535640Y-10850640D01*
X16545800Y-11577560D02*
X16575800Y-11607560D01*
X16575800Y-11577560D02*
X16545800Y-11607560D01*
X16555960Y-12705320D02*
X16585960Y-12735320D01*
X16585960Y-12705320D02*
X16555960Y-12735320D01*
X16561040Y-8097760D02*
X16591040Y-8127760D01*
X16591040Y-8097760D02*
X16561040Y-8127760D01*
X16561040Y-8209520D02*
X16591040Y-8239520D01*
X16591040Y-8209520D02*
X16561040Y-8239520D01*
X16566120Y-5395200D02*
X16596120Y-5425200D01*
X16596120Y-5395200D02*
X16566120Y-5425200D01*
X16571200Y-5872720D02*
X16601200Y-5902720D01*
X16601200Y-5872720D02*
X16571200Y-5902720D01*
X16596600Y-3546080D02*
X16626600Y-3576080D01*
X16626600Y-3546080D02*
X16596600Y-3576080D01*
X16601680Y-5247880D02*
X16631680Y-5277880D01*
X16631680Y-5247880D02*
X16601680Y-5277880D01*
X16622000Y-11359120D02*
X16652000Y-11389120D01*
X16652000Y-11359120D02*
X16622000Y-11389120D01*
X16627080Y-4277600D02*
X16657080Y-4307600D01*
X16657080Y-4277600D02*
X16627080Y-4307600D01*
X16632160Y-3261600D02*
X16662160Y-3291600D01*
X16662160Y-3261600D02*
X16632160Y-3291600D01*
X16637240Y-7310360D02*
X16667240Y-7340360D01*
X16667240Y-7310360D02*
X16637240Y-7340360D01*
X16642320Y-6213080D02*
X16672320Y-6243080D01*
X16672320Y-6213080D02*
X16642320Y-6243080D01*
X16642320Y-13121880D02*
X16672320Y-13151880D01*
X16672320Y-13121880D02*
X16642320Y-13151880D01*
X16647400Y-5136120D02*
X16677400Y-5166120D01*
X16677400Y-5136120D02*
X16647400Y-5166120D01*
X16667720Y-5872720D02*
X16697720Y-5902720D01*
X16697720Y-5872720D02*
X16667720Y-5902720D01*
X16667720Y-12344640D02*
X16697720Y-12374640D01*
X16697720Y-12344640D02*
X16667720Y-12374640D01*
X16672800Y-5969240D02*
X16702800Y-5999240D01*
X16702800Y-5969240D02*
X16672800Y-5999240D01*
X16677880Y-5705080D02*
X16707880Y-5735080D01*
X16707880Y-5705080D02*
X16677880Y-5735080D01*
X16698200Y-6370560D02*
X16728200Y-6400560D01*
X16728200Y-6370560D02*
X16698200Y-6400560D01*
X16706400Y-8410100D02*
X16736400Y-8440100D01*
X16736400Y-8410100D02*
X16706400Y-8440100D01*
X16706400Y-8535100D02*
X16736400Y-8565100D01*
X16736400Y-8535100D02*
X16706400Y-8565100D01*
X16706400Y-8660100D02*
X16736400Y-8690100D01*
X16736400Y-8660100D02*
X16706400Y-8690100D01*
X16706400Y-8785100D02*
X16736400Y-8815100D01*
X16736400Y-8785100D02*
X16706400Y-8815100D01*
X16706400Y-8910100D02*
X16736400Y-8940100D01*
X16736400Y-8910100D02*
X16706400Y-8940100D01*
X16713440Y-4103310D02*
X16743440Y-4133310D01*
X16743440Y-4103310D02*
X16713440Y-4133310D01*
X16713440Y-4973560D02*
X16743440Y-5003560D01*
X16743440Y-4973560D02*
X16713440Y-5003560D01*
X16715360Y-5437380D02*
X16745360Y-5467380D01*
X16745360Y-5437380D02*
X16715360Y-5467380D01*
X16715360Y-5538980D02*
X16745360Y-5568980D01*
X16745360Y-5538980D02*
X16715360Y-5568980D01*
X16754080Y-4871960D02*
X16784080Y-4901960D01*
X16784080Y-4871960D02*
X16754080Y-4901960D01*
X16754080Y-6213080D02*
X16784080Y-6243080D01*
X16784080Y-6213080D02*
X16754080Y-6243080D01*
X16764240Y-5750800D02*
X16794240Y-5780800D01*
X16794240Y-5750800D02*
X16764240Y-5780800D01*
X16774400Y-7102080D02*
X16804400Y-7132080D01*
X16804400Y-7102080D02*
X16774400Y-7132080D01*
X16779480Y-3754360D02*
X16809480Y-3784360D01*
X16809480Y-3754360D02*
X16779480Y-3784360D01*
X16799800Y-7930120D02*
X16829800Y-7960120D01*
X16829800Y-7930120D02*
X16799800Y-7960120D01*
X16799800Y-10983200D02*
X16829800Y-11013200D01*
X16829800Y-10983200D02*
X16799800Y-11013200D01*
X16799800Y-11094960D02*
X16829800Y-11124960D01*
X16829800Y-11094960D02*
X16799800Y-11124960D01*
X16803310Y-4323320D02*
X16833310Y-4353320D01*
X16833310Y-4323320D02*
X16803310Y-4353320D01*
X16804880Y-5527280D02*
X16834880Y-5557280D01*
X16834880Y-5527280D02*
X16804880Y-5557280D01*
X16809960Y-8280640D02*
X16839960Y-8310640D01*
X16839960Y-8280640D02*
X16809960Y-8310640D01*
X16809960Y-10226280D02*
X16839960Y-10256280D01*
X16839960Y-10226280D02*
X16809960Y-10256280D01*
X16815040Y-8158720D02*
X16845040Y-8188720D01*
X16845040Y-8158720D02*
X16815040Y-8188720D01*
X16825200Y-10734280D02*
X16855200Y-10764280D01*
X16855200Y-10734280D02*
X16825200Y-10764280D01*
X16830280Y-11232120D02*
X16860280Y-11262120D01*
X16860280Y-11232120D02*
X16830280Y-11262120D01*
X16876000Y-9687800D02*
X16906000Y-9717800D01*
X16906000Y-9687800D02*
X16876000Y-9717800D01*
X16876000Y-9972280D02*
X16906000Y-10002280D01*
X16906000Y-9972280D02*
X16876000Y-10002280D01*
X16876000Y-10099280D02*
X16906000Y-10129280D01*
X16906000Y-10099280D02*
X16876000Y-10129280D01*
X16876000Y-12344640D02*
X16906000Y-12374640D01*
X16906000Y-12344640D02*
X16876000Y-12374640D01*
X16881080Y-5598400D02*
X16911080Y-5628400D01*
X16911080Y-5598400D02*
X16881080Y-5628400D01*
X16881080Y-9824960D02*
X16911080Y-9854960D01*
X16911080Y-9824960D02*
X16881080Y-9854960D01*
X16896320Y-9240760D02*
X16926320Y-9270760D01*
X16926320Y-9240760D02*
X16896320Y-9270760D01*
X16896320Y-11846800D02*
X16926320Y-11876800D01*
X16926320Y-11846800D02*
X16896320Y-11876800D01*
X16896320Y-11958560D02*
X16926320Y-11988560D01*
X16926320Y-11958560D02*
X16896320Y-11988560D01*
X16921720Y-7107160D02*
X16951720Y-7137160D01*
X16951720Y-7107160D02*
X16921720Y-7137160D01*
X16942040Y-7975840D02*
X16972040Y-8005840D01*
X16972040Y-7975840D02*
X16942040Y-8005840D01*
X16962360Y-4501120D02*
X16992360Y-4531120D01*
X16992360Y-4501120D02*
X16962360Y-4531120D01*
X16962360Y-4734800D02*
X16992360Y-4764800D01*
X16992360Y-4734800D02*
X16962360Y-4764800D01*
X16967440Y-8097760D02*
X16997440Y-8127760D01*
X16997440Y-8097760D02*
X16967440Y-8127760D01*
X16977600Y-5603480D02*
X17007600Y-5633480D01*
X17007600Y-5603480D02*
X16977600Y-5633480D01*
X16977600Y-9469360D02*
X17007600Y-9499360D01*
X17007600Y-9469360D02*
X16977600Y-9499360D01*
X17008080Y-6097810D02*
X17038080Y-6127810D01*
X17038080Y-6097810D02*
X17008080Y-6127810D01*
X17008080Y-6233400D02*
X17038080Y-6263400D01*
X17038080Y-6233400D02*
X17008080Y-6263400D01*
X17018240Y-7290040D02*
X17048240Y-7320040D01*
X17048240Y-7290040D02*
X17018240Y-7320040D01*
X17028400Y-4282680D02*
X17058400Y-4312680D01*
X17058400Y-4282680D02*
X17028400Y-4312680D01*
X17028400Y-6843000D02*
X17058400Y-6873000D01*
X17058400Y-6843000D02*
X17028400Y-6873000D01*
X17028400Y-11511520D02*
X17058400Y-11541520D01*
X17058400Y-11511520D02*
X17028400Y-11541520D01*
X17028400Y-11592800D02*
X17058400Y-11622800D01*
X17058400Y-11592800D02*
X17028400Y-11622800D01*
X17033480Y-5146280D02*
X17063480Y-5176280D01*
X17063480Y-5146280D02*
X17033480Y-5176280D01*
X17063960Y-11161000D02*
X17093960Y-11191000D01*
X17093960Y-11161000D02*
X17063960Y-11191000D01*
X17084280Y-6009880D02*
X17114280Y-6039880D01*
X17114280Y-6009880D02*
X17084280Y-6039880D01*
X17084280Y-6502640D02*
X17114280Y-6532640D01*
X17114280Y-6502640D02*
X17084280Y-6532640D01*
X17084280Y-12593560D02*
X17114280Y-12623560D01*
X17114280Y-12593560D02*
X17084280Y-12623560D01*
X17094440Y-11552160D02*
X17124440Y-11582160D01*
X17124440Y-11552160D02*
X17094440Y-11582160D01*
X17104600Y-7691360D02*
X17134600Y-7721360D01*
X17134600Y-7691360D02*
X17104600Y-7721360D01*
X17104600Y-9469360D02*
X17134600Y-9499360D01*
X17134600Y-9469360D02*
X17104600Y-9499360D01*
X17104600Y-12222720D02*
X17134600Y-12252720D01*
X17134600Y-12222720D02*
X17104600Y-12252720D01*
X17109680Y-9337280D02*
X17139680Y-9367280D01*
X17139680Y-9337280D02*
X17109680Y-9367280D01*
X17109680Y-9687800D02*
X17139680Y-9717800D01*
X17139680Y-9687800D02*
X17109680Y-9717800D01*
X17109680Y-9824960D02*
X17139680Y-9854960D01*
X17139680Y-9824960D02*
X17109680Y-9854960D01*
X17109680Y-9972280D02*
X17139680Y-10002280D01*
X17139680Y-9972280D02*
X17109680Y-10002280D01*
X17109680Y-10099280D02*
X17139680Y-10129280D01*
X17139680Y-10099280D02*
X17109680Y-10129280D01*
X17109680Y-10678400D02*
X17139680Y-10708400D01*
X17139680Y-10678400D02*
X17109680Y-10708400D01*
X17109680Y-11079720D02*
X17139680Y-11109720D01*
X17139680Y-11079720D02*
X17109680Y-11109720D01*
X17114760Y-3764520D02*
X17144760Y-3794520D01*
X17144760Y-3764520D02*
X17114760Y-3794520D01*
X17114760Y-4358880D02*
X17144760Y-4388880D01*
X17144760Y-4358880D02*
X17114760Y-4388880D01*
X17114760Y-7975840D02*
X17144760Y-8005840D01*
X17144760Y-7975840D02*
X17114760Y-8005840D01*
X17114760Y-10226280D02*
X17144760Y-10256280D01*
X17144760Y-10226280D02*
X17114760Y-10256280D01*
X17114760Y-11851880D02*
X17144760Y-11881880D01*
X17144760Y-11851880D02*
X17114760Y-11881880D01*
X17119840Y-5359640D02*
X17149840Y-5389640D01*
X17149840Y-5359640D02*
X17119840Y-5389640D01*
X17119840Y-10825720D02*
X17149840Y-10855720D01*
X17149840Y-10825720D02*
X17119840Y-10855720D01*
X17119840Y-11242280D02*
X17149840Y-11272280D01*
X17149840Y-11242280D02*
X17119840Y-11272280D01*
X17119840Y-11973800D02*
X17149840Y-12003800D01*
X17149840Y-11973800D02*
X17119840Y-12003800D01*
X17124920Y-4846560D02*
X17154920Y-4876560D01*
X17154920Y-4846560D02*
X17124920Y-4876560D01*
X17124920Y-5933680D02*
X17154920Y-5963680D01*
X17154920Y-5933680D02*
X17124920Y-5963680D01*
X17130000Y-6395960D02*
X17160000Y-6425960D01*
X17160000Y-6395960D02*
X17130000Y-6425960D01*
D13*
X16377800Y-6844980D02*
G75*
G03*
X16377800Y-6844980I-20000J0D01*
G01*
X16377800Y-6929980D02*
G75*
G03*
X16377800Y-6929980I-20000J0D01*
G01*
X16377800Y-7014980D02*
G75*
G03*
X16377800Y-7014980I-20000J0D01*
G01*
X16377800Y-7099980D02*
G75*
G03*
X16377800Y-7099980I-20000J0D01*
G01*
X16377800Y-7184980D02*
G75*
G03*
X16377800Y-7184980I-20000J0D01*
G01*
X16377800Y-7269980D02*
G75*
G03*
X16377800Y-7269980I-20000J0D01*
G01*
X16377800Y-7354980D02*
G75*
G03*
X16377800Y-7354980I-20000J0D01*
G01*
X16377800Y-7439980D02*
G75*
G03*
X16377800Y-7439980I-20000J0D01*
G01*
X16512800Y-6844980D02*
G75*
G03*
X16512800Y-6844980I-20000J0D01*
G01*
X16512800Y-6929980D02*
G75*
G03*
X16512800Y-6929980I-20000J0D01*
G01*
X16512800Y-7014980D02*
G75*
G03*
X16512800Y-7014980I-20000J0D01*
G01*
X16512800Y-7099980D02*
G75*
G03*
X16512800Y-7099980I-20000J0D01*
G01*
X16512800Y-7184980D02*
G75*
G03*
X16512800Y-7184980I-20000J0D01*
G01*
X16512800Y-7269980D02*
G75*
G03*
X16512800Y-7269980I-20000J0D01*
G01*
X16512800Y-7354980D02*
G75*
G03*
X16512800Y-7354980I-20000J0D01*
G01*
X16512800Y-7439980D02*
G75*
G03*
X16512800Y-7439980I-20000J0D01*
G01*
D14*
X14439900Y-5504700D02*
X14439900Y-5569700D01*
X14407400Y-5537200D02*
X14472400Y-5537200D01*
X14439900Y-5631700D02*
X14439900Y-5696700D01*
X14407400Y-5664200D02*
X14472400Y-5664200D01*
X14439900Y-5758700D02*
X14439900Y-5823700D01*
X14407400Y-5791200D02*
X14472400Y-5791200D01*
X14439900Y-5885700D02*
X14439900Y-5950700D01*
X14407400Y-5918200D02*
X14472400Y-5918200D01*
X14439900Y-6012700D02*
X14439900Y-6077700D01*
X14407400Y-6045200D02*
X14472400Y-6045200D01*
X14439900Y-6139700D02*
X14439900Y-6204700D01*
X14407400Y-6172200D02*
X14472400Y-6172200D01*
D15*
X16432549Y-6734729D02*
X16432549Y-6685231D01*
X16383051Y-6685231D01*
X16383051Y-6734729D01*
X16432549Y-6734729D01*
D11*
X16472800Y-6684980D02*
X16342800Y-6684980D01*
X16472800Y-6734980D02*
X16342800Y-6734980D01*
X16342800Y-6684980D02*
G75*
G03*
X16342800Y-6734980I0J-25000D01*
G01*
X16472800Y-6734980D02*
G75*
G03*
X16472800Y-6684980I0J25000D01*
G01*
D15*
X16432549Y-7599729D02*
X16432549Y-7550231D01*
X16383051Y-7550231D01*
X16383051Y-7599729D01*
X16432549Y-7599729D01*
D11*
X16472800Y-7549980D02*
X16342800Y-7549980D01*
X16472800Y-7599980D02*
X16342800Y-7599980D01*
X16342800Y-7549980D02*
G75*
G03*
X16342800Y-7599980I0J-25000D01*
G01*
X16472800Y-7599980D02*
G75*
G03*
X16472800Y-7549980I0J25000D01*
G01*
D15*
X16847549Y-6734729D02*
X16847549Y-6685231D01*
X16798051Y-6685231D01*
X16798051Y-6734729D01*
X16847549Y-6734729D01*
D11*
X16867800Y-6684980D02*
X16777800Y-6684980D01*
X16867800Y-6734980D02*
X16777800Y-6734980D01*
X16777800Y-6684980D02*
G75*
G03*
X16777800Y-6734980I0J-25000D01*
G01*
X16867800Y-6734980D02*
G75*
G03*
X16867800Y-6684980I0J25000D01*
G01*
D15*
X16847549Y-7599729D02*
X16847549Y-7550231D01*
X16798051Y-7550231D01*
X16798051Y-7599729D01*
X16847549Y-7599729D01*
D11*
X16862800Y-7549980D02*
X16782800Y-7549980D01*
X16862800Y-7599980D02*
X16782800Y-7599980D01*
X16782800Y-7549980D02*
G75*
G03*
X16782800Y-7599980I0J-25000D01*
G01*
X16862800Y-7599980D02*
G75*
G03*
X16862800Y-7549980I0J25000D01*
G01*
D16*
X14692800Y-8787600D02*
X14742800Y-8737600D01*
X14692800Y-8687600D01*
X14642800Y-8737600D01*
X14692800Y-8787600D01*
X15557500Y-7061400D02*
X15607500Y-7011400D01*
X15557500Y-6961400D01*
X15507500Y-7011400D01*
X15557500Y-7061400D01*
X15557500Y-7821400D02*
X15607500Y-7771400D01*
X15557500Y-7721400D01*
X15507500Y-7771400D01*
X15557500Y-7821400D01*
D17*
X15205000Y-9931100D02*
X15315000Y-10041100D01*
X15315000Y-9931100D02*
X15205000Y-10041100D01*
X15315000Y-9986100D02*
G75*
G03*
X15315000Y-9986100I-55000J0D01*
G01*
X15205000Y-10185100D02*
X15315000Y-10295100D01*
X15315000Y-10185100D02*
X15205000Y-10295100D01*
X15315000Y-10240100D02*
G75*
G03*
X15315000Y-10240100I-55000J0D01*
G01*
X15205000Y-10538433D02*
X15315000Y-10648433D01*
X15315000Y-10538433D02*
X15205000Y-10648433D01*
X15315000Y-10593433D02*
G75*
G03*
X15315000Y-10593433I-55000J0D01*
G01*
X15205000Y-10792433D02*
X15315000Y-10902433D01*
X15315000Y-10792433D02*
X15205000Y-10902433D01*
X15315000Y-10847433D02*
G75*
G03*
X15315000Y-10847433I-55000J0D01*
G01*
X15205000Y-11145767D02*
X15315000Y-11255767D01*
X15315000Y-11145767D02*
X15205000Y-11255767D01*
X15315000Y-11200767D02*
G75*
G03*
X15315000Y-11200767I-55000J0D01*
G01*
X15205000Y-11399767D02*
X15315000Y-11509767D01*
X15315000Y-11399767D02*
X15205000Y-11509767D01*
X15315000Y-11454767D02*
G75*
G03*
X15315000Y-11454767I-55000J0D01*
G01*
X15205000Y-11753100D02*
X15315000Y-11863100D01*
X15315000Y-11753100D02*
X15205000Y-11863100D01*
X15315000Y-11808100D02*
G75*
G03*
X15315000Y-11808100I-55000J0D01*
G01*
X15205000Y-12007100D02*
X15315000Y-12117100D01*
X15315000Y-12007100D02*
X15205000Y-12117100D01*
X15315000Y-12062100D02*
G75*
G03*
X15315000Y-12062100I-55000J0D01*
G01*
X15693000Y-12523080D02*
X15803000Y-12633080D01*
X15803000Y-12523080D02*
X15693000Y-12633080D01*
X15803000Y-12578080D02*
G75*
G03*
X15803000Y-12578080I-55000J0D01*
G01*
X15901280Y-11750920D02*
X16011280Y-11860920D01*
X16011280Y-11750920D02*
X15901280Y-11860920D01*
X16011280Y-11805920D02*
G75*
G03*
X16011280Y-11805920I-55000J0D01*
G01*
X15901280Y-12004920D02*
X16011280Y-12114920D01*
X16011280Y-12004920D02*
X15901280Y-12114920D01*
X16011280Y-12059920D02*
G75*
G03*
X16011280Y-12059920I-55000J0D01*
G01*
X15947000Y-12523080D02*
X16057000Y-12633080D01*
X16057000Y-12523080D02*
X15947000Y-12633080D01*
X16057000Y-12578080D02*
G75*
G03*
X16057000Y-12578080I-55000J0D01*
G01*
D18*
X16932840Y-9709080D02*
X17082840Y-9859080D01*
X17082840Y-9709080D02*
X16932840Y-9859080D01*
X17007840Y-9709080D02*
X17007840Y-9859080D01*
X16932840Y-9784080D02*
X17082840Y-9784080D01*
X16932840Y-9963080D02*
X17082840Y-10113080D01*
X17082840Y-9963080D02*
X16932840Y-10113080D01*
X17007840Y-9963080D02*
X17007840Y-10113080D01*
X16932840Y-10038080D02*
X17082840Y-10038080D01*
D19*
X14200000Y-3300000D02*
X14520000Y-3620000D01*
X14520000Y-3300000D02*
X14200000Y-3620000D01*
X14473138Y-3573138D02*
X14473138Y-3346862D01*
X14246862Y-3346862D01*
X14246862Y-3573138D01*
X14473138Y-3573138D01*
X14200000Y-12800000D02*
X14520000Y-13120000D01*
X14520000Y-12800000D02*
X14200000Y-13120000D01*
X14473138Y-13073138D02*
X14473138Y-12846862D01*
X14246862Y-12846862D01*
X14246862Y-13073138D01*
X14473138Y-13073138D01*
X16800000Y-3300000D02*
X17120000Y-3620000D01*
X17120000Y-3300000D02*
X16800000Y-3620000D01*
X17073138Y-3573138D02*
X17073138Y-3346862D01*
X16846862Y-3346862D01*
X16846862Y-3573138D01*
X17073138Y-3573138D01*
X16800000Y-12800000D02*
X17120000Y-13120000D01*
X17120000Y-12800000D02*
X16800000Y-13120000D01*
X17073138Y-13073138D02*
X17073138Y-12846862D01*
X16846862Y-12846862D01*
X16846862Y-13073138D01*
X17073138Y-13073138D01*
D11*
X14362619Y-13525476D02*
X14362619Y-13325476D01*
X14410238Y-13325476D01*
X14438809Y-13335000D01*
X14457857Y-13354048D01*
X14467381Y-13373095D01*
X14476905Y-13411190D01*
X14476905Y-13439762D01*
X14467381Y-13477857D01*
X14457857Y-13496905D01*
X14438809Y-13515952D01*
X14410238Y-13525476D01*
X14362619Y-13525476D01*
X14562619Y-13525476D02*
X14562619Y-13392143D01*
X14562619Y-13430238D02*
X14572143Y-13411190D01*
X14581667Y-13401667D01*
X14600714Y-13392143D01*
X14619762Y-13392143D01*
X14686428Y-13525476D02*
X14686428Y-13392143D01*
X14686428Y-13325476D02*
X14676905Y-13335000D01*
X14686428Y-13344524D01*
X14695952Y-13335000D01*
X14686428Y-13325476D01*
X14686428Y-13344524D01*
X14810238Y-13525476D02*
X14791190Y-13515952D01*
X14781667Y-13496905D01*
X14781667Y-13325476D01*
X14915000Y-13525476D02*
X14895952Y-13515952D01*
X14886428Y-13496905D01*
X14886428Y-13325476D01*
X15143571Y-13525476D02*
X15143571Y-13325476D01*
X15210238Y-13468333D01*
X15276905Y-13325476D01*
X15276905Y-13525476D01*
X15457857Y-13525476D02*
X15457857Y-13420714D01*
X15448333Y-13401667D01*
X15429286Y-13392143D01*
X15391190Y-13392143D01*
X15372143Y-13401667D01*
X15457857Y-13515952D02*
X15438809Y-13525476D01*
X15391190Y-13525476D01*
X15372143Y-13515952D01*
X15362619Y-13496905D01*
X15362619Y-13477857D01*
X15372143Y-13458809D01*
X15391190Y-13449286D01*
X15438809Y-13449286D01*
X15457857Y-13439762D01*
X15553095Y-13392143D02*
X15553095Y-13592143D01*
X15553095Y-13401667D02*
X15572143Y-13392143D01*
X15610238Y-13392143D01*
X15629286Y-13401667D01*
X15638809Y-13411190D01*
X15648333Y-13430238D01*
X15648333Y-13487381D01*
X15638809Y-13506428D01*
X15629286Y-13515952D01*
X15610238Y-13525476D01*
X15572143Y-13525476D01*
X15553095Y-13515952D01*
X15734048Y-13506428D02*
X15743571Y-13515952D01*
X15734048Y-13525476D01*
X15724524Y-13515952D01*
X15734048Y-13506428D01*
X15734048Y-13525476D01*
X15734048Y-13401667D02*
X15743571Y-13411190D01*
X15734048Y-13420714D01*
X15724524Y-13411190D01*
X15734048Y-13401667D01*
X15734048Y-13420714D01*
D12*
X14075000Y-13840000D02*
X14105000Y-13870000D01*
X14105000Y-13840000D02*
X14075000Y-13870000D01*
D11*
X14400714Y-13745476D02*
X14419762Y-13745476D01*
X14438809Y-13755000D01*
X14448333Y-13764524D01*
X14457857Y-13783571D01*
X14467381Y-13821667D01*
X14467381Y-13869286D01*
X14457857Y-13907381D01*
X14448333Y-13926428D01*
X14438809Y-13935952D01*
X14419762Y-13945476D01*
X14400714Y-13945476D01*
X14381667Y-13935952D01*
X14372143Y-13926428D01*
X14362619Y-13907381D01*
X14353095Y-13869286D01*
X14353095Y-13821667D01*
X14362619Y-13783571D01*
X14372143Y-13764524D01*
X14381667Y-13755000D01*
X14400714Y-13745476D01*
X14553095Y-13926428D02*
X14562619Y-13935952D01*
X14553095Y-13945476D01*
X14543571Y-13935952D01*
X14553095Y-13926428D01*
X14553095Y-13945476D01*
X14629286Y-13745476D02*
X14753095Y-13745476D01*
X14686428Y-13821667D01*
X14715000Y-13821667D01*
X14734048Y-13831190D01*
X14743571Y-13840714D01*
X14753095Y-13859762D01*
X14753095Y-13907381D01*
X14743571Y-13926428D01*
X14734048Y-13935952D01*
X14715000Y-13945476D01*
X14657857Y-13945476D01*
X14638809Y-13935952D01*
X14629286Y-13926428D01*
X14876905Y-13745476D02*
X14895952Y-13745476D01*
X14915000Y-13755000D01*
X14924524Y-13764524D01*
X14934048Y-13783571D01*
X14943571Y-13821667D01*
X14943571Y-13869286D01*
X14934048Y-13907381D01*
X14924524Y-13926428D01*
X14915000Y-13935952D01*
X14895952Y-13945476D01*
X14876905Y-13945476D01*
X14857857Y-13935952D01*
X14848333Y-13926428D01*
X14838809Y-13907381D01*
X14829286Y-13869286D01*
X14829286Y-13821667D01*
X14838809Y-13783571D01*
X14848333Y-13764524D01*
X14857857Y-13755000D01*
X14876905Y-13745476D01*
X15067381Y-13745476D02*
X15086428Y-13745476D01*
X15105476Y-13755000D01*
X15115000Y-13764524D01*
X15124524Y-13783571D01*
X15134048Y-13821667D01*
X15134048Y-13869286D01*
X15124524Y-13907381D01*
X15115000Y-13926428D01*
X15105476Y-13935952D01*
X15086428Y-13945476D01*
X15067381Y-13945476D01*
X15048333Y-13935952D01*
X15038809Y-13926428D01*
X15029286Y-13907381D01*
X15019762Y-13869286D01*
X15019762Y-13821667D01*
X15029286Y-13783571D01*
X15038809Y-13764524D01*
X15048333Y-13755000D01*
X15067381Y-13745476D01*
X15219762Y-13945476D02*
X15219762Y-13812143D01*
X15219762Y-13831190D02*
X15229286Y-13821667D01*
X15248333Y-13812143D01*
X15276905Y-13812143D01*
X15295952Y-13821667D01*
X15305476Y-13840714D01*
X15305476Y-13945476D01*
X15305476Y-13840714D02*
X15315000Y-13821667D01*
X15334048Y-13812143D01*
X15362619Y-13812143D01*
X15381667Y-13821667D01*
X15391190Y-13840714D01*
X15391190Y-13945476D01*
X15486428Y-13945476D02*
X15486428Y-13812143D01*
X15486428Y-13831190D02*
X15495952Y-13821667D01*
X15515000Y-13812143D01*
X15543571Y-13812143D01*
X15562619Y-13821667D01*
X15572143Y-13840714D01*
X15572143Y-13945476D01*
X15572143Y-13840714D02*
X15581667Y-13821667D01*
X15600714Y-13812143D01*
X15629286Y-13812143D01*
X15648333Y-13821667D01*
X15657857Y-13840714D01*
X15657857Y-13945476D01*
X16048333Y-13735952D02*
X15876905Y-13993095D01*
X16305476Y-13745476D02*
X16324524Y-13745476D01*
X16343571Y-13755000D01*
X16353095Y-13764524D01*
X16362619Y-13783571D01*
X16372143Y-13821667D01*
X16372143Y-13869286D01*
X16362619Y-13907381D01*
X16353095Y-13926428D01*
X16343571Y-13935952D01*
X16324524Y-13945476D01*
X16305476Y-13945476D01*
X16286428Y-13935952D01*
X16276905Y-13926428D01*
X16267381Y-13907381D01*
X16257857Y-13869286D01*
X16257857Y-13821667D01*
X16267381Y-13783571D01*
X16276905Y-13764524D01*
X16286428Y-13755000D01*
X16305476Y-13745476D01*
X16457857Y-13926428D02*
X16467381Y-13935952D01*
X16457857Y-13945476D01*
X16448333Y-13935952D01*
X16457857Y-13926428D01*
X16457857Y-13945476D01*
X16591190Y-13745476D02*
X16610238Y-13745476D01*
X16629286Y-13755000D01*
X16638809Y-13764524D01*
X16648333Y-13783571D01*
X16657857Y-13821667D01*
X16657857Y-13869286D01*
X16648333Y-13907381D01*
X16638809Y-13926428D01*
X16629286Y-13935952D01*
X16610238Y-13945476D01*
X16591190Y-13945476D01*
X16572143Y-13935952D01*
X16562619Y-13926428D01*
X16553095Y-13907381D01*
X16543571Y-13869286D01*
X16543571Y-13821667D01*
X16553095Y-13783571D01*
X16562619Y-13764524D01*
X16572143Y-13755000D01*
X16591190Y-13745476D01*
X16848333Y-13945476D02*
X16734048Y-13945476D01*
X16791190Y-13945476D02*
X16791190Y-13745476D01*
X16772143Y-13774048D01*
X16753095Y-13793095D01*
X16734048Y-13802619D01*
X17038810Y-13945476D02*
X16924524Y-13945476D01*
X16981667Y-13945476D02*
X16981667Y-13745476D01*
X16962619Y-13774048D01*
X16943571Y-13793095D01*
X16924524Y-13802619D01*
X17153095Y-13831190D02*
X17134048Y-13821667D01*
X17124524Y-13812143D01*
X17115000Y-13793095D01*
X17115000Y-13783571D01*
X17124524Y-13764524D01*
X17134048Y-13755000D01*
X17153095Y-13745476D01*
X17191190Y-13745476D01*
X17210238Y-13755000D01*
X17219762Y-13764524D01*
X17229286Y-13783571D01*
X17229286Y-13793095D01*
X17219762Y-13812143D01*
X17210238Y-13821667D01*
X17191190Y-13831190D01*
X17153095Y-13831190D01*
X17134048Y-13840714D01*
X17124524Y-13850238D01*
X17115000Y-13869286D01*
X17115000Y-13907381D01*
X17124524Y-13926428D01*
X17134048Y-13935952D01*
X17153095Y-13945476D01*
X17191190Y-13945476D01*
X17210238Y-13935952D01*
X17219762Y-13926428D01*
X17229286Y-13907381D01*
X17229286Y-13869286D01*
X17219762Y-13850238D01*
X17210238Y-13840714D01*
X17191190Y-13831190D01*
X17305476Y-13745476D02*
X17305476Y-13783571D01*
X17381667Y-13745476D02*
X17381667Y-13783571D01*
X17676905Y-14021667D02*
X17667381Y-14012143D01*
X17648333Y-13983571D01*
X17638810Y-13964524D01*
X17629286Y-13935952D01*
X17619762Y-13888333D01*
X17619762Y-13850238D01*
X17629286Y-13802619D01*
X17638810Y-13774048D01*
X17648333Y-13755000D01*
X17667381Y-13726428D01*
X17676905Y-13716905D01*
X17838810Y-13812143D02*
X17838810Y-13945476D01*
X17791190Y-13735952D02*
X17743571Y-13878809D01*
X17867381Y-13878809D01*
X17953095Y-13945476D02*
X17991190Y-13945476D01*
X18010238Y-13935952D01*
X18019762Y-13926428D01*
X18038810Y-13897857D01*
X18048333Y-13859762D01*
X18048333Y-13783571D01*
X18038810Y-13764524D01*
X18029286Y-13755000D01*
X18010238Y-13745476D01*
X17972143Y-13745476D01*
X17953095Y-13755000D01*
X17943571Y-13764524D01*
X17934048Y-13783571D01*
X17934048Y-13831190D01*
X17943571Y-13850238D01*
X17953095Y-13859762D01*
X17972143Y-13869286D01*
X18010238Y-13869286D01*
X18029286Y-13859762D01*
X18038810Y-13850238D01*
X18048333Y-13831190D01*
X18219762Y-13812143D02*
X18219762Y-13945476D01*
X18172143Y-13735952D02*
X18124524Y-13878809D01*
X18248333Y-13878809D01*
X18476905Y-13945476D02*
X18476905Y-13745476D01*
X18562619Y-13945476D02*
X18562619Y-13840714D01*
X18553095Y-13821667D01*
X18534048Y-13812143D01*
X18505476Y-13812143D01*
X18486429Y-13821667D01*
X18476905Y-13831190D01*
X18686429Y-13945476D02*
X18667381Y-13935952D01*
X18657857Y-13926428D01*
X18648333Y-13907381D01*
X18648333Y-13850238D01*
X18657857Y-13831190D01*
X18667381Y-13821667D01*
X18686429Y-13812143D01*
X18715000Y-13812143D01*
X18734048Y-13821667D01*
X18743571Y-13831190D01*
X18753095Y-13850238D01*
X18753095Y-13907381D01*
X18743571Y-13926428D01*
X18734048Y-13935952D01*
X18715000Y-13945476D01*
X18686429Y-13945476D01*
X18867381Y-13945476D02*
X18848333Y-13935952D01*
X18838810Y-13916905D01*
X18838810Y-13745476D01*
X19019762Y-13935952D02*
X19000714Y-13945476D01*
X18962619Y-13945476D01*
X18943571Y-13935952D01*
X18934048Y-13916905D01*
X18934048Y-13840714D01*
X18943571Y-13821667D01*
X18962619Y-13812143D01*
X19000714Y-13812143D01*
X19019762Y-13821667D01*
X19029286Y-13840714D01*
X19029286Y-13859762D01*
X18934048Y-13878809D01*
X19105476Y-13935952D02*
X19124524Y-13945476D01*
X19162619Y-13945476D01*
X19181667Y-13935952D01*
X19191190Y-13916905D01*
X19191190Y-13907381D01*
X19181667Y-13888333D01*
X19162619Y-13878809D01*
X19134048Y-13878809D01*
X19115000Y-13869286D01*
X19105476Y-13850238D01*
X19105476Y-13840714D01*
X19115000Y-13821667D01*
X19134048Y-13812143D01*
X19162619Y-13812143D01*
X19181667Y-13821667D01*
X19257857Y-14021667D02*
X19267381Y-14012143D01*
X19286429Y-13983571D01*
X19295952Y-13964524D01*
X19305476Y-13935952D01*
X19315000Y-13888333D01*
X19315000Y-13850238D01*
X19305476Y-13802619D01*
X19295952Y-13774048D01*
X19286429Y-13755000D01*
X19267381Y-13726428D01*
X19257857Y-13716905D01*
D13*
X14105000Y-14119000D02*
G75*
G03*
X14105000Y-14119000I-20000J0D01*
G01*
D11*
X14400714Y-14009476D02*
X14419762Y-14009476D01*
X14438809Y-14019000D01*
X14448333Y-14028524D01*
X14457857Y-14047571D01*
X14467381Y-14085667D01*
X14467381Y-14133286D01*
X14457857Y-14171381D01*
X14448333Y-14190428D01*
X14438809Y-14199952D01*
X14419762Y-14209476D01*
X14400714Y-14209476D01*
X14381667Y-14199952D01*
X14372143Y-14190428D01*
X14362619Y-14171381D01*
X14353095Y-14133286D01*
X14353095Y-14085667D01*
X14362619Y-14047571D01*
X14372143Y-14028524D01*
X14381667Y-14019000D01*
X14400714Y-14009476D01*
X14553095Y-14190428D02*
X14562619Y-14199952D01*
X14553095Y-14209476D01*
X14543571Y-14199952D01*
X14553095Y-14190428D01*
X14553095Y-14209476D01*
X14734048Y-14076143D02*
X14734048Y-14209476D01*
X14686428Y-13999952D02*
X14638809Y-14142809D01*
X14762619Y-14142809D01*
X14876905Y-14009476D02*
X14895952Y-14009476D01*
X14915000Y-14019000D01*
X14924524Y-14028524D01*
X14934048Y-14047571D01*
X14943571Y-14085667D01*
X14943571Y-14133286D01*
X14934048Y-14171381D01*
X14924524Y-14190428D01*
X14915000Y-14199952D01*
X14895952Y-14209476D01*
X14876905Y-14209476D01*
X14857857Y-14199952D01*
X14848333Y-14190428D01*
X14838809Y-14171381D01*
X14829286Y-14133286D01*
X14829286Y-14085667D01*
X14838809Y-14047571D01*
X14848333Y-14028524D01*
X14857857Y-14019000D01*
X14876905Y-14009476D01*
X15067381Y-14009476D02*
X15086428Y-14009476D01*
X15105476Y-14019000D01*
X15115000Y-14028524D01*
X15124524Y-14047571D01*
X15134048Y-14085667D01*
X15134048Y-14133286D01*
X15124524Y-14171381D01*
X15115000Y-14190428D01*
X15105476Y-14199952D01*
X15086428Y-14209476D01*
X15067381Y-14209476D01*
X15048333Y-14199952D01*
X15038809Y-14190428D01*
X15029286Y-14171381D01*
X15019762Y-14133286D01*
X15019762Y-14085667D01*
X15029286Y-14047571D01*
X15038809Y-14028524D01*
X15048333Y-14019000D01*
X15067381Y-14009476D01*
X15219762Y-14209476D02*
X15219762Y-14076143D01*
X15219762Y-14095190D02*
X15229286Y-14085667D01*
X15248333Y-14076143D01*
X15276905Y-14076143D01*
X15295952Y-14085667D01*
X15305476Y-14104714D01*
X15305476Y-14209476D01*
X15305476Y-14104714D02*
X15315000Y-14085667D01*
X15334048Y-14076143D01*
X15362619Y-14076143D01*
X15381667Y-14085667D01*
X15391190Y-14104714D01*
X15391190Y-14209476D01*
X15486428Y-14209476D02*
X15486428Y-14076143D01*
X15486428Y-14095190D02*
X15495952Y-14085667D01*
X15515000Y-14076143D01*
X15543571Y-14076143D01*
X15562619Y-14085667D01*
X15572143Y-14104714D01*
X15572143Y-14209476D01*
X15572143Y-14104714D02*
X15581667Y-14085667D01*
X15600714Y-14076143D01*
X15629286Y-14076143D01*
X15648333Y-14085667D01*
X15657857Y-14104714D01*
X15657857Y-14209476D01*
X16048333Y-13999952D02*
X15876905Y-14257095D01*
X16305476Y-14009476D02*
X16324524Y-14009476D01*
X16343571Y-14019000D01*
X16353095Y-14028524D01*
X16362619Y-14047571D01*
X16372143Y-14085667D01*
X16372143Y-14133286D01*
X16362619Y-14171381D01*
X16353095Y-14190428D01*
X16343571Y-14199952D01*
X16324524Y-14209476D01*
X16305476Y-14209476D01*
X16286428Y-14199952D01*
X16276905Y-14190428D01*
X16267381Y-14171381D01*
X16257857Y-14133286D01*
X16257857Y-14085667D01*
X16267381Y-14047571D01*
X16276905Y-14028524D01*
X16286428Y-14019000D01*
X16305476Y-14009476D01*
X16457857Y-14190428D02*
X16467381Y-14199952D01*
X16457857Y-14209476D01*
X16448333Y-14199952D01*
X16457857Y-14190428D01*
X16457857Y-14209476D01*
X16591190Y-14009476D02*
X16610238Y-14009476D01*
X16629286Y-14019000D01*
X16638809Y-14028524D01*
X16648333Y-14047571D01*
X16657857Y-14085667D01*
X16657857Y-14133286D01*
X16648333Y-14171381D01*
X16638809Y-14190428D01*
X16629286Y-14199952D01*
X16610238Y-14209476D01*
X16591190Y-14209476D01*
X16572143Y-14199952D01*
X16562619Y-14190428D01*
X16553095Y-14171381D01*
X16543571Y-14133286D01*
X16543571Y-14085667D01*
X16553095Y-14047571D01*
X16562619Y-14028524D01*
X16572143Y-14019000D01*
X16591190Y-14009476D01*
X16848333Y-14209476D02*
X16734048Y-14209476D01*
X16791190Y-14209476D02*
X16791190Y-14009476D01*
X16772143Y-14038048D01*
X16753095Y-14057095D01*
X16734048Y-14066619D01*
X17029286Y-14009476D02*
X16934048Y-14009476D01*
X16924524Y-14104714D01*
X16934048Y-14095190D01*
X16953095Y-14085667D01*
X17000714Y-14085667D01*
X17019762Y-14095190D01*
X17029286Y-14104714D01*
X17038810Y-14123762D01*
X17038810Y-14171381D01*
X17029286Y-14190428D01*
X17019762Y-14199952D01*
X17000714Y-14209476D01*
X16953095Y-14209476D01*
X16934048Y-14199952D01*
X16924524Y-14190428D01*
X17105476Y-14009476D02*
X17238810Y-14009476D01*
X17153095Y-14209476D01*
X17305476Y-14009476D02*
X17305476Y-14047571D01*
X17381667Y-14009476D02*
X17381667Y-14047571D01*
X17676905Y-14285667D02*
X17667381Y-14276143D01*
X17648333Y-14247571D01*
X17638810Y-14228524D01*
X17629286Y-14199952D01*
X17619762Y-14152333D01*
X17619762Y-14114238D01*
X17629286Y-14066619D01*
X17638810Y-14038048D01*
X17648333Y-14019000D01*
X17667381Y-13990428D01*
X17676905Y-13980905D01*
X17857857Y-14209476D02*
X17743571Y-14209476D01*
X17800714Y-14209476D02*
X17800714Y-14009476D01*
X17781667Y-14038048D01*
X17762619Y-14057095D01*
X17743571Y-14066619D01*
X18029286Y-14009476D02*
X17991190Y-14009476D01*
X17972143Y-14019000D01*
X17962619Y-14028524D01*
X17943571Y-14057095D01*
X17934048Y-14095190D01*
X17934048Y-14171381D01*
X17943571Y-14190428D01*
X17953095Y-14199952D01*
X17972143Y-14209476D01*
X18010238Y-14209476D01*
X18029286Y-14199952D01*
X18038810Y-14190428D01*
X18048333Y-14171381D01*
X18048333Y-14123762D01*
X18038810Y-14104714D01*
X18029286Y-14095190D01*
X18010238Y-14085667D01*
X17972143Y-14085667D01*
X17953095Y-14095190D01*
X17943571Y-14104714D01*
X17934048Y-14123762D01*
X18286429Y-14209476D02*
X18286429Y-14009476D01*
X18372143Y-14209476D02*
X18372143Y-14104714D01*
X18362619Y-14085667D01*
X18343571Y-14076143D01*
X18315000Y-14076143D01*
X18295952Y-14085667D01*
X18286429Y-14095190D01*
X18495952Y-14209476D02*
X18476905Y-14199952D01*
X18467381Y-14190428D01*
X18457857Y-14171381D01*
X18457857Y-14114238D01*
X18467381Y-14095190D01*
X18476905Y-14085667D01*
X18495952Y-14076143D01*
X18524524Y-14076143D01*
X18543571Y-14085667D01*
X18553095Y-14095190D01*
X18562619Y-14114238D01*
X18562619Y-14171381D01*
X18553095Y-14190428D01*
X18543571Y-14199952D01*
X18524524Y-14209476D01*
X18495952Y-14209476D01*
X18676905Y-14209476D02*
X18657857Y-14199952D01*
X18648333Y-14180905D01*
X18648333Y-14009476D01*
X18829286Y-14199952D02*
X18810238Y-14209476D01*
X18772143Y-14209476D01*
X18753095Y-14199952D01*
X18743571Y-14180905D01*
X18743571Y-14104714D01*
X18753095Y-14085667D01*
X18772143Y-14076143D01*
X18810238Y-14076143D01*
X18829286Y-14085667D01*
X18838810Y-14104714D01*
X18838810Y-14123762D01*
X18743571Y-14142809D01*
X18915000Y-14199952D02*
X18934048Y-14209476D01*
X18972143Y-14209476D01*
X18991190Y-14199952D01*
X19000714Y-14180905D01*
X19000714Y-14171381D01*
X18991190Y-14152333D01*
X18972143Y-14142809D01*
X18943571Y-14142809D01*
X18924524Y-14133286D01*
X18915000Y-14114238D01*
X18915000Y-14104714D01*
X18924524Y-14085667D01*
X18943571Y-14076143D01*
X18972143Y-14076143D01*
X18991190Y-14085667D01*
X19067381Y-14285667D02*
X19076905Y-14276143D01*
X19095952Y-14247571D01*
X19105476Y-14228524D01*
X19115000Y-14199952D01*
X19124524Y-14152333D01*
X19124524Y-14114238D01*
X19115000Y-14066619D01*
X19105476Y-14038048D01*
X19095952Y-14019000D01*
X19076905Y-13990428D01*
X19067381Y-13980905D01*
D14*
X14072500Y-14350500D02*
X14072500Y-14415500D01*
X14040000Y-14383000D02*
X14105000Y-14383000D01*
D11*
X14400714Y-14273476D02*
X14419762Y-14273476D01*
X14438809Y-14283000D01*
X14448333Y-14292524D01*
X14457857Y-14311571D01*
X14467381Y-14349667D01*
X14467381Y-14397286D01*
X14457857Y-14435381D01*
X14448333Y-14454428D01*
X14438809Y-14463952D01*
X14419762Y-14473476D01*
X14400714Y-14473476D01*
X14381667Y-14463952D01*
X14372143Y-14454428D01*
X14362619Y-14435381D01*
X14353095Y-14397286D01*
X14353095Y-14349667D01*
X14362619Y-14311571D01*
X14372143Y-14292524D01*
X14381667Y-14283000D01*
X14400714Y-14273476D01*
X14553095Y-14454428D02*
X14562619Y-14463952D01*
X14553095Y-14473476D01*
X14543571Y-14463952D01*
X14553095Y-14454428D01*
X14553095Y-14473476D01*
X14734048Y-14273476D02*
X14695952Y-14273476D01*
X14676905Y-14283000D01*
X14667381Y-14292524D01*
X14648333Y-14321095D01*
X14638809Y-14359190D01*
X14638809Y-14435381D01*
X14648333Y-14454428D01*
X14657857Y-14463952D01*
X14676905Y-14473476D01*
X14715000Y-14473476D01*
X14734048Y-14463952D01*
X14743571Y-14454428D01*
X14753095Y-14435381D01*
X14753095Y-14387762D01*
X14743571Y-14368714D01*
X14734048Y-14359190D01*
X14715000Y-14349667D01*
X14676905Y-14349667D01*
X14657857Y-14359190D01*
X14648333Y-14368714D01*
X14638809Y-14387762D01*
X14934048Y-14273476D02*
X14838809Y-14273476D01*
X14829286Y-14368714D01*
X14838809Y-14359190D01*
X14857857Y-14349667D01*
X14905476Y-14349667D01*
X14924524Y-14359190D01*
X14934048Y-14368714D01*
X14943571Y-14387762D01*
X14943571Y-14435381D01*
X14934048Y-14454428D01*
X14924524Y-14463952D01*
X14905476Y-14473476D01*
X14857857Y-14473476D01*
X14838809Y-14463952D01*
X14829286Y-14454428D01*
X15067381Y-14273476D02*
X15086428Y-14273476D01*
X15105476Y-14283000D01*
X15115000Y-14292524D01*
X15124524Y-14311571D01*
X15134048Y-14349667D01*
X15134048Y-14397286D01*
X15124524Y-14435381D01*
X15115000Y-14454428D01*
X15105476Y-14463952D01*
X15086428Y-14473476D01*
X15067381Y-14473476D01*
X15048333Y-14463952D01*
X15038809Y-14454428D01*
X15029286Y-14435381D01*
X15019762Y-14397286D01*
X15019762Y-14349667D01*
X15029286Y-14311571D01*
X15038809Y-14292524D01*
X15048333Y-14283000D01*
X15067381Y-14273476D01*
X15219762Y-14473476D02*
X15219762Y-14340143D01*
X15219762Y-14359190D02*
X15229286Y-14349667D01*
X15248333Y-14340143D01*
X15276905Y-14340143D01*
X15295952Y-14349667D01*
X15305476Y-14368714D01*
X15305476Y-14473476D01*
X15305476Y-14368714D02*
X15315000Y-14349667D01*
X15334048Y-14340143D01*
X15362619Y-14340143D01*
X15381667Y-14349667D01*
X15391190Y-14368714D01*
X15391190Y-14473476D01*
X15486428Y-14473476D02*
X15486428Y-14340143D01*
X15486428Y-14359190D02*
X15495952Y-14349667D01*
X15515000Y-14340143D01*
X15543571Y-14340143D01*
X15562619Y-14349667D01*
X15572143Y-14368714D01*
X15572143Y-14473476D01*
X15572143Y-14368714D02*
X15581667Y-14349667D01*
X15600714Y-14340143D01*
X15629286Y-14340143D01*
X15648333Y-14349667D01*
X15657857Y-14368714D01*
X15657857Y-14473476D01*
X16048333Y-14263952D02*
X15876905Y-14521095D01*
X16305476Y-14273476D02*
X16324524Y-14273476D01*
X16343571Y-14283000D01*
X16353095Y-14292524D01*
X16362619Y-14311571D01*
X16372143Y-14349667D01*
X16372143Y-14397286D01*
X16362619Y-14435381D01*
X16353095Y-14454428D01*
X16343571Y-14463952D01*
X16324524Y-14473476D01*
X16305476Y-14473476D01*
X16286428Y-14463952D01*
X16276905Y-14454428D01*
X16267381Y-14435381D01*
X16257857Y-14397286D01*
X16257857Y-14349667D01*
X16267381Y-14311571D01*
X16276905Y-14292524D01*
X16286428Y-14283000D01*
X16305476Y-14273476D01*
X16457857Y-14454428D02*
X16467381Y-14463952D01*
X16457857Y-14473476D01*
X16448333Y-14463952D01*
X16457857Y-14454428D01*
X16457857Y-14473476D01*
X16591190Y-14273476D02*
X16610238Y-14273476D01*
X16629286Y-14283000D01*
X16638809Y-14292524D01*
X16648333Y-14311571D01*
X16657857Y-14349667D01*
X16657857Y-14397286D01*
X16648333Y-14435381D01*
X16638809Y-14454428D01*
X16629286Y-14463952D01*
X16610238Y-14473476D01*
X16591190Y-14473476D01*
X16572143Y-14463952D01*
X16562619Y-14454428D01*
X16553095Y-14435381D01*
X16543571Y-14397286D01*
X16543571Y-14349667D01*
X16553095Y-14311571D01*
X16562619Y-14292524D01*
X16572143Y-14283000D01*
X16591190Y-14273476D01*
X16734048Y-14292524D02*
X16743571Y-14283000D01*
X16762619Y-14273476D01*
X16810238Y-14273476D01*
X16829286Y-14283000D01*
X16838810Y-14292524D01*
X16848333Y-14311571D01*
X16848333Y-14330619D01*
X16838810Y-14359190D01*
X16724524Y-14473476D01*
X16848333Y-14473476D01*
X17029286Y-14273476D02*
X16934048Y-14273476D01*
X16924524Y-14368714D01*
X16934048Y-14359190D01*
X16953095Y-14349667D01*
X17000714Y-14349667D01*
X17019762Y-14359190D01*
X17029286Y-14368714D01*
X17038810Y-14387762D01*
X17038810Y-14435381D01*
X17029286Y-14454428D01*
X17019762Y-14463952D01*
X17000714Y-14473476D01*
X16953095Y-14473476D01*
X16934048Y-14463952D01*
X16924524Y-14454428D01*
X17210238Y-14273476D02*
X17172143Y-14273476D01*
X17153095Y-14283000D01*
X17143571Y-14292524D01*
X17124524Y-14321095D01*
X17115000Y-14359190D01*
X17115000Y-14435381D01*
X17124524Y-14454428D01*
X17134048Y-14463952D01*
X17153095Y-14473476D01*
X17191190Y-14473476D01*
X17210238Y-14463952D01*
X17219762Y-14454428D01*
X17229286Y-14435381D01*
X17229286Y-14387762D01*
X17219762Y-14368714D01*
X17210238Y-14359190D01*
X17191190Y-14349667D01*
X17153095Y-14349667D01*
X17134048Y-14359190D01*
X17124524Y-14368714D01*
X17115000Y-14387762D01*
X17305476Y-14273476D02*
X17305476Y-14311571D01*
X17381667Y-14273476D02*
X17381667Y-14311571D01*
X17676905Y-14549667D02*
X17667381Y-14540143D01*
X17648333Y-14511571D01*
X17638810Y-14492524D01*
X17629286Y-14463952D01*
X17619762Y-14416333D01*
X17619762Y-14378238D01*
X17629286Y-14330619D01*
X17638810Y-14302048D01*
X17648333Y-14283000D01*
X17667381Y-14254428D01*
X17676905Y-14244905D01*
X17838810Y-14273476D02*
X17800714Y-14273476D01*
X17781667Y-14283000D01*
X17772143Y-14292524D01*
X17753095Y-14321095D01*
X17743571Y-14359190D01*
X17743571Y-14435381D01*
X17753095Y-14454428D01*
X17762619Y-14463952D01*
X17781667Y-14473476D01*
X17819762Y-14473476D01*
X17838810Y-14463952D01*
X17848333Y-14454428D01*
X17857857Y-14435381D01*
X17857857Y-14387762D01*
X17848333Y-14368714D01*
X17838810Y-14359190D01*
X17819762Y-14349667D01*
X17781667Y-14349667D01*
X17762619Y-14359190D01*
X17753095Y-14368714D01*
X17743571Y-14387762D01*
X18095952Y-14473476D02*
X18095952Y-14273476D01*
X18181667Y-14473476D02*
X18181667Y-14368714D01*
X18172143Y-14349667D01*
X18153095Y-14340143D01*
X18124524Y-14340143D01*
X18105476Y-14349667D01*
X18095952Y-14359190D01*
X18305476Y-14473476D02*
X18286429Y-14463952D01*
X18276905Y-14454428D01*
X18267381Y-14435381D01*
X18267381Y-14378238D01*
X18276905Y-14359190D01*
X18286429Y-14349667D01*
X18305476Y-14340143D01*
X18334048Y-14340143D01*
X18353095Y-14349667D01*
X18362619Y-14359190D01*
X18372143Y-14378238D01*
X18372143Y-14435381D01*
X18362619Y-14454428D01*
X18353095Y-14463952D01*
X18334048Y-14473476D01*
X18305476Y-14473476D01*
X18486429Y-14473476D02*
X18467381Y-14463952D01*
X18457857Y-14444905D01*
X18457857Y-14273476D01*
X18638810Y-14463952D02*
X18619762Y-14473476D01*
X18581667Y-14473476D01*
X18562619Y-14463952D01*
X18553095Y-14444905D01*
X18553095Y-14368714D01*
X18562619Y-14349667D01*
X18581667Y-14340143D01*
X18619762Y-14340143D01*
X18638810Y-14349667D01*
X18648333Y-14368714D01*
X18648333Y-14387762D01*
X18553095Y-14406809D01*
X18724524Y-14463952D02*
X18743571Y-14473476D01*
X18781667Y-14473476D01*
X18800714Y-14463952D01*
X18810238Y-14444905D01*
X18810238Y-14435381D01*
X18800714Y-14416333D01*
X18781667Y-14406809D01*
X18753095Y-14406809D01*
X18734048Y-14397286D01*
X18724524Y-14378238D01*
X18724524Y-14368714D01*
X18734048Y-14349667D01*
X18753095Y-14340143D01*
X18781667Y-14340143D01*
X18800714Y-14349667D01*
X18876905Y-14549667D02*
X18886429Y-14540143D01*
X18905476Y-14511571D01*
X18915000Y-14492524D01*
X18924524Y-14463952D01*
X18934048Y-14416333D01*
X18934048Y-14378238D01*
X18924524Y-14330619D01*
X18915000Y-14302048D01*
X18905476Y-14283000D01*
X18886429Y-14254428D01*
X18876905Y-14244905D01*
D15*
X14094749Y-14671749D02*
X14094749Y-14622251D01*
X14045251Y-14622251D01*
X14045251Y-14671749D01*
X14094749Y-14671749D01*
D11*
X14400714Y-14537476D02*
X14419762Y-14537476D01*
X14438809Y-14547000D01*
X14448333Y-14556524D01*
X14457857Y-14575571D01*
X14467381Y-14613667D01*
X14467381Y-14661286D01*
X14457857Y-14699381D01*
X14448333Y-14718428D01*
X14438809Y-14727952D01*
X14419762Y-14737476D01*
X14400714Y-14737476D01*
X14381667Y-14727952D01*
X14372143Y-14718428D01*
X14362619Y-14699381D01*
X14353095Y-14661286D01*
X14353095Y-14613667D01*
X14362619Y-14575571D01*
X14372143Y-14556524D01*
X14381667Y-14547000D01*
X14400714Y-14537476D01*
X14553095Y-14718428D02*
X14562619Y-14727952D01*
X14553095Y-14737476D01*
X14543571Y-14727952D01*
X14553095Y-14718428D01*
X14553095Y-14737476D01*
X14629286Y-14537476D02*
X14762619Y-14537476D01*
X14676905Y-14737476D01*
X14876905Y-14537476D02*
X14895952Y-14537476D01*
X14915000Y-14547000D01*
X14924524Y-14556524D01*
X14934048Y-14575571D01*
X14943571Y-14613667D01*
X14943571Y-14661286D01*
X14934048Y-14699381D01*
X14924524Y-14718428D01*
X14915000Y-14727952D01*
X14895952Y-14737476D01*
X14876905Y-14737476D01*
X14857857Y-14727952D01*
X14848333Y-14718428D01*
X14838809Y-14699381D01*
X14829286Y-14661286D01*
X14829286Y-14613667D01*
X14838809Y-14575571D01*
X14848333Y-14556524D01*
X14857857Y-14547000D01*
X14876905Y-14537476D01*
X15067381Y-14537476D02*
X15086428Y-14537476D01*
X15105476Y-14547000D01*
X15115000Y-14556524D01*
X15124524Y-14575571D01*
X15134048Y-14613667D01*
X15134048Y-14661286D01*
X15124524Y-14699381D01*
X15115000Y-14718428D01*
X15105476Y-14727952D01*
X15086428Y-14737476D01*
X15067381Y-14737476D01*
X15048333Y-14727952D01*
X15038809Y-14718428D01*
X15029286Y-14699381D01*
X15019762Y-14661286D01*
X15019762Y-14613667D01*
X15029286Y-14575571D01*
X15038809Y-14556524D01*
X15048333Y-14547000D01*
X15067381Y-14537476D01*
X15219762Y-14737476D02*
X15219762Y-14604143D01*
X15219762Y-14623190D02*
X15229286Y-14613667D01*
X15248333Y-14604143D01*
X15276905Y-14604143D01*
X15295952Y-14613667D01*
X15305476Y-14632714D01*
X15305476Y-14737476D01*
X15305476Y-14632714D02*
X15315000Y-14613667D01*
X15334048Y-14604143D01*
X15362619Y-14604143D01*
X15381667Y-14613667D01*
X15391190Y-14632714D01*
X15391190Y-14737476D01*
X15486428Y-14737476D02*
X15486428Y-14604143D01*
X15486428Y-14623190D02*
X15495952Y-14613667D01*
X15515000Y-14604143D01*
X15543571Y-14604143D01*
X15562619Y-14613667D01*
X15572143Y-14632714D01*
X15572143Y-14737476D01*
X15572143Y-14632714D02*
X15581667Y-14613667D01*
X15600714Y-14604143D01*
X15629286Y-14604143D01*
X15648333Y-14613667D01*
X15657857Y-14632714D01*
X15657857Y-14737476D01*
X16048333Y-14527952D02*
X15876905Y-14785095D01*
X16305476Y-14537476D02*
X16324524Y-14537476D01*
X16343571Y-14547000D01*
X16353095Y-14556524D01*
X16362619Y-14575571D01*
X16372143Y-14613667D01*
X16372143Y-14661286D01*
X16362619Y-14699381D01*
X16353095Y-14718428D01*
X16343571Y-14727952D01*
X16324524Y-14737476D01*
X16305476Y-14737476D01*
X16286428Y-14727952D01*
X16276905Y-14718428D01*
X16267381Y-14699381D01*
X16257857Y-14661286D01*
X16257857Y-14613667D01*
X16267381Y-14575571D01*
X16276905Y-14556524D01*
X16286428Y-14547000D01*
X16305476Y-14537476D01*
X16457857Y-14718428D02*
X16467381Y-14727952D01*
X16457857Y-14737476D01*
X16448333Y-14727952D01*
X16457857Y-14718428D01*
X16457857Y-14737476D01*
X16591190Y-14537476D02*
X16610238Y-14537476D01*
X16629286Y-14547000D01*
X16638809Y-14556524D01*
X16648333Y-14575571D01*
X16657857Y-14613667D01*
X16657857Y-14661286D01*
X16648333Y-14699381D01*
X16638809Y-14718428D01*
X16629286Y-14727952D01*
X16610238Y-14737476D01*
X16591190Y-14737476D01*
X16572143Y-14727952D01*
X16562619Y-14718428D01*
X16553095Y-14699381D01*
X16543571Y-14661286D01*
X16543571Y-14613667D01*
X16553095Y-14575571D01*
X16562619Y-14556524D01*
X16572143Y-14547000D01*
X16591190Y-14537476D01*
X16734048Y-14556524D02*
X16743571Y-14547000D01*
X16762619Y-14537476D01*
X16810238Y-14537476D01*
X16829286Y-14547000D01*
X16838810Y-14556524D01*
X16848333Y-14575571D01*
X16848333Y-14594619D01*
X16838810Y-14623190D01*
X16724524Y-14737476D01*
X16848333Y-14737476D01*
X16915000Y-14537476D02*
X17048333Y-14537476D01*
X16962619Y-14737476D01*
X17210238Y-14537476D02*
X17172143Y-14537476D01*
X17153095Y-14547000D01*
X17143571Y-14556524D01*
X17124524Y-14585095D01*
X17115000Y-14623190D01*
X17115000Y-14699381D01*
X17124524Y-14718428D01*
X17134048Y-14727952D01*
X17153095Y-14737476D01*
X17191190Y-14737476D01*
X17210238Y-14727952D01*
X17219762Y-14718428D01*
X17229286Y-14699381D01*
X17229286Y-14651762D01*
X17219762Y-14632714D01*
X17210238Y-14623190D01*
X17191190Y-14613667D01*
X17153095Y-14613667D01*
X17134048Y-14623190D01*
X17124524Y-14632714D01*
X17115000Y-14651762D01*
X17305476Y-14537476D02*
X17305476Y-14575571D01*
X17381667Y-14537476D02*
X17381667Y-14575571D01*
X17676905Y-14813667D02*
X17667381Y-14804143D01*
X17648333Y-14775571D01*
X17638810Y-14756524D01*
X17629286Y-14727952D01*
X17619762Y-14680333D01*
X17619762Y-14642238D01*
X17629286Y-14594619D01*
X17638810Y-14566048D01*
X17648333Y-14547000D01*
X17667381Y-14518428D01*
X17676905Y-14508905D01*
X17791190Y-14537476D02*
X17810238Y-14537476D01*
X17829286Y-14547000D01*
X17838810Y-14556524D01*
X17848333Y-14575571D01*
X17857857Y-14613667D01*
X17857857Y-14661286D01*
X17848333Y-14699381D01*
X17838810Y-14718428D01*
X17829286Y-14727952D01*
X17810238Y-14737476D01*
X17791190Y-14737476D01*
X17772143Y-14727952D01*
X17762619Y-14718428D01*
X17753095Y-14699381D01*
X17743571Y-14661286D01*
X17743571Y-14613667D01*
X17753095Y-14575571D01*
X17762619Y-14556524D01*
X17772143Y-14547000D01*
X17791190Y-14537476D01*
X18095952Y-14737476D02*
X18095952Y-14537476D01*
X18181667Y-14737476D02*
X18181667Y-14632714D01*
X18172143Y-14613667D01*
X18153095Y-14604143D01*
X18124524Y-14604143D01*
X18105476Y-14613667D01*
X18095952Y-14623190D01*
X18305476Y-14737476D02*
X18286429Y-14727952D01*
X18276905Y-14718428D01*
X18267381Y-14699381D01*
X18267381Y-14642238D01*
X18276905Y-14623190D01*
X18286429Y-14613667D01*
X18305476Y-14604143D01*
X18334048Y-14604143D01*
X18353095Y-14613667D01*
X18362619Y-14623190D01*
X18372143Y-14642238D01*
X18372143Y-14699381D01*
X18362619Y-14718428D01*
X18353095Y-14727952D01*
X18334048Y-14737476D01*
X18305476Y-14737476D01*
X18486429Y-14737476D02*
X18467381Y-14727952D01*
X18457857Y-14708905D01*
X18457857Y-14537476D01*
X18638810Y-14727952D02*
X18619762Y-14737476D01*
X18581667Y-14737476D01*
X18562619Y-14727952D01*
X18553095Y-14708905D01*
X18553095Y-14632714D01*
X18562619Y-14613667D01*
X18581667Y-14604143D01*
X18619762Y-14604143D01*
X18638810Y-14613667D01*
X18648333Y-14632714D01*
X18648333Y-14651762D01*
X18553095Y-14670809D01*
X18724524Y-14727952D02*
X18743571Y-14737476D01*
X18781667Y-14737476D01*
X18800714Y-14727952D01*
X18810238Y-14708905D01*
X18810238Y-14699381D01*
X18800714Y-14680333D01*
X18781667Y-14670809D01*
X18753095Y-14670809D01*
X18734048Y-14661286D01*
X18724524Y-14642238D01*
X18724524Y-14632714D01*
X18734048Y-14613667D01*
X18753095Y-14604143D01*
X18781667Y-14604143D01*
X18800714Y-14613667D01*
X19048333Y-14661286D02*
X19200714Y-14661286D01*
X19124524Y-14737476D02*
X19124524Y-14585095D01*
X19534048Y-14604143D02*
X19534048Y-14737476D01*
X19486429Y-14527952D02*
X19438810Y-14670809D01*
X19562619Y-14670809D01*
X19781667Y-14727952D02*
X19800714Y-14737476D01*
X19838810Y-14737476D01*
X19857857Y-14727952D01*
X19867381Y-14708905D01*
X19867381Y-14699381D01*
X19857857Y-14680333D01*
X19838810Y-14670809D01*
X19810238Y-14670809D01*
X19791190Y-14661286D01*
X19781667Y-14642238D01*
X19781667Y-14632714D01*
X19791190Y-14613667D01*
X19810238Y-14604143D01*
X19838810Y-14604143D01*
X19857857Y-14613667D01*
X19981667Y-14737476D02*
X19962619Y-14727952D01*
X19953095Y-14708905D01*
X19953095Y-14537476D01*
X20086429Y-14737476D02*
X20067381Y-14727952D01*
X20057857Y-14718428D01*
X20048333Y-14699381D01*
X20048333Y-14642238D01*
X20057857Y-14623190D01*
X20067381Y-14613667D01*
X20086429Y-14604143D01*
X20115000Y-14604143D01*
X20134048Y-14613667D01*
X20143571Y-14623190D01*
X20153095Y-14642238D01*
X20153095Y-14699381D01*
X20143571Y-14718428D01*
X20134048Y-14727952D01*
X20115000Y-14737476D01*
X20086429Y-14737476D01*
X20210238Y-14604143D02*
X20286429Y-14604143D01*
X20238810Y-14537476D02*
X20238810Y-14708905D01*
X20248333Y-14727952D01*
X20267381Y-14737476D01*
X20286429Y-14737476D01*
X20343571Y-14727952D02*
X20362619Y-14737476D01*
X20400714Y-14737476D01*
X20419762Y-14727952D01*
X20429286Y-14708905D01*
X20429286Y-14699381D01*
X20419762Y-14680333D01*
X20400714Y-14670809D01*
X20372143Y-14670809D01*
X20353095Y-14661286D01*
X20343571Y-14642238D01*
X20343571Y-14632714D01*
X20353095Y-14613667D01*
X20372143Y-14604143D01*
X20400714Y-14604143D01*
X20419762Y-14613667D01*
X20495952Y-14813667D02*
X20505476Y-14804143D01*
X20524524Y-14775571D01*
X20534048Y-14756524D01*
X20543571Y-14727952D01*
X20553095Y-14680333D01*
X20553095Y-14642238D01*
X20543571Y-14594619D01*
X20534048Y-14566048D01*
X20524524Y-14547000D01*
X20505476Y-14518428D01*
X20495952Y-14508905D01*
D16*
X14055000Y-14961000D02*
X14105000Y-14911000D01*
X14055000Y-14861000D01*
X14005000Y-14911000D01*
X14055000Y-14961000D01*
D11*
X14467381Y-15001476D02*
X14353095Y-15001476D01*
X14410238Y-15001476D02*
X14410238Y-14801476D01*
X14391190Y-14830048D01*
X14372143Y-14849095D01*
X14353095Y-14858619D01*
X14553095Y-14982428D02*
X14562619Y-14991952D01*
X14553095Y-15001476D01*
X14543571Y-14991952D01*
X14553095Y-14982428D01*
X14553095Y-15001476D01*
X14686428Y-14801476D02*
X14705476Y-14801476D01*
X14724524Y-14811000D01*
X14734048Y-14820524D01*
X14743571Y-14839571D01*
X14753095Y-14877667D01*
X14753095Y-14925286D01*
X14743571Y-14963381D01*
X14734048Y-14982428D01*
X14724524Y-14991952D01*
X14705476Y-15001476D01*
X14686428Y-15001476D01*
X14667381Y-14991952D01*
X14657857Y-14982428D01*
X14648333Y-14963381D01*
X14638809Y-14925286D01*
X14638809Y-14877667D01*
X14648333Y-14839571D01*
X14657857Y-14820524D01*
X14667381Y-14811000D01*
X14686428Y-14801476D01*
X14876905Y-14801476D02*
X14895952Y-14801476D01*
X14915000Y-14811000D01*
X14924524Y-14820524D01*
X14934048Y-14839571D01*
X14943571Y-14877667D01*
X14943571Y-14925286D01*
X14934048Y-14963381D01*
X14924524Y-14982428D01*
X14915000Y-14991952D01*
X14895952Y-15001476D01*
X14876905Y-15001476D01*
X14857857Y-14991952D01*
X14848333Y-14982428D01*
X14838809Y-14963381D01*
X14829286Y-14925286D01*
X14829286Y-14877667D01*
X14838809Y-14839571D01*
X14848333Y-14820524D01*
X14857857Y-14811000D01*
X14876905Y-14801476D01*
X15067381Y-14801476D02*
X15086428Y-14801476D01*
X15105476Y-14811000D01*
X15115000Y-14820524D01*
X15124524Y-14839571D01*
X15134048Y-14877667D01*
X15134048Y-14925286D01*
X15124524Y-14963381D01*
X15115000Y-14982428D01*
X15105476Y-14991952D01*
X15086428Y-15001476D01*
X15067381Y-15001476D01*
X15048333Y-14991952D01*
X15038809Y-14982428D01*
X15029286Y-14963381D01*
X15019762Y-14925286D01*
X15019762Y-14877667D01*
X15029286Y-14839571D01*
X15038809Y-14820524D01*
X15048333Y-14811000D01*
X15067381Y-14801476D01*
X15219762Y-15001476D02*
X15219762Y-14868143D01*
X15219762Y-14887190D02*
X15229286Y-14877667D01*
X15248333Y-14868143D01*
X15276905Y-14868143D01*
X15295952Y-14877667D01*
X15305476Y-14896714D01*
X15305476Y-15001476D01*
X15305476Y-14896714D02*
X15315000Y-14877667D01*
X15334048Y-14868143D01*
X15362619Y-14868143D01*
X15381667Y-14877667D01*
X15391190Y-14896714D01*
X15391190Y-15001476D01*
X15486428Y-15001476D02*
X15486428Y-14868143D01*
X15486428Y-14887190D02*
X15495952Y-14877667D01*
X15515000Y-14868143D01*
X15543571Y-14868143D01*
X15562619Y-14877667D01*
X15572143Y-14896714D01*
X15572143Y-15001476D01*
X15572143Y-14896714D02*
X15581667Y-14877667D01*
X15600714Y-14868143D01*
X15629286Y-14868143D01*
X15648333Y-14877667D01*
X15657857Y-14896714D01*
X15657857Y-15001476D01*
X16048333Y-14791952D02*
X15876905Y-15049095D01*
X16305476Y-14801476D02*
X16324524Y-14801476D01*
X16343571Y-14811000D01*
X16353095Y-14820524D01*
X16362619Y-14839571D01*
X16372143Y-14877667D01*
X16372143Y-14925286D01*
X16362619Y-14963381D01*
X16353095Y-14982428D01*
X16343571Y-14991952D01*
X16324524Y-15001476D01*
X16305476Y-15001476D01*
X16286428Y-14991952D01*
X16276905Y-14982428D01*
X16267381Y-14963381D01*
X16257857Y-14925286D01*
X16257857Y-14877667D01*
X16267381Y-14839571D01*
X16276905Y-14820524D01*
X16286428Y-14811000D01*
X16305476Y-14801476D01*
X16457857Y-14982428D02*
X16467381Y-14991952D01*
X16457857Y-15001476D01*
X16448333Y-14991952D01*
X16457857Y-14982428D01*
X16457857Y-15001476D01*
X16591190Y-14801476D02*
X16610238Y-14801476D01*
X16629286Y-14811000D01*
X16638809Y-14820524D01*
X16648333Y-14839571D01*
X16657857Y-14877667D01*
X16657857Y-14925286D01*
X16648333Y-14963381D01*
X16638809Y-14982428D01*
X16629286Y-14991952D01*
X16610238Y-15001476D01*
X16591190Y-15001476D01*
X16572143Y-14991952D01*
X16562619Y-14982428D01*
X16553095Y-14963381D01*
X16543571Y-14925286D01*
X16543571Y-14877667D01*
X16553095Y-14839571D01*
X16562619Y-14820524D01*
X16572143Y-14811000D01*
X16591190Y-14801476D01*
X16724524Y-14801476D02*
X16848333Y-14801476D01*
X16781667Y-14877667D01*
X16810238Y-14877667D01*
X16829286Y-14887190D01*
X16838810Y-14896714D01*
X16848333Y-14915762D01*
X16848333Y-14963381D01*
X16838810Y-14982428D01*
X16829286Y-14991952D01*
X16810238Y-15001476D01*
X16753095Y-15001476D01*
X16734048Y-14991952D01*
X16724524Y-14982428D01*
X16943571Y-15001476D02*
X16981667Y-15001476D01*
X17000714Y-14991952D01*
X17010238Y-14982428D01*
X17029286Y-14953857D01*
X17038810Y-14915762D01*
X17038810Y-14839571D01*
X17029286Y-14820524D01*
X17019762Y-14811000D01*
X17000714Y-14801476D01*
X16962619Y-14801476D01*
X16943571Y-14811000D01*
X16934048Y-14820524D01*
X16924524Y-14839571D01*
X16924524Y-14887190D01*
X16934048Y-14906238D01*
X16943571Y-14915762D01*
X16962619Y-14925286D01*
X17000714Y-14925286D01*
X17019762Y-14915762D01*
X17029286Y-14906238D01*
X17038810Y-14887190D01*
X17210238Y-14868143D02*
X17210238Y-15001476D01*
X17162619Y-14791952D02*
X17115000Y-14934809D01*
X17238810Y-14934809D01*
X17305476Y-14801476D02*
X17305476Y-14839571D01*
X17381667Y-14801476D02*
X17381667Y-14839571D01*
X17676905Y-15077667D02*
X17667381Y-15068143D01*
X17648333Y-15039571D01*
X17638810Y-15020524D01*
X17629286Y-14991952D01*
X17619762Y-14944333D01*
X17619762Y-14906238D01*
X17629286Y-14858619D01*
X17638810Y-14830048D01*
X17648333Y-14811000D01*
X17667381Y-14782428D01*
X17676905Y-14772905D01*
X17734048Y-14801476D02*
X17857857Y-14801476D01*
X17791190Y-14877667D01*
X17819762Y-14877667D01*
X17838810Y-14887190D01*
X17848333Y-14896714D01*
X17857857Y-14915762D01*
X17857857Y-14963381D01*
X17848333Y-14982428D01*
X17838810Y-14991952D01*
X17819762Y-15001476D01*
X17762619Y-15001476D01*
X17743571Y-14991952D01*
X17734048Y-14982428D01*
X18095952Y-15001476D02*
X18095952Y-14801476D01*
X18181667Y-15001476D02*
X18181667Y-14896714D01*
X18172143Y-14877667D01*
X18153095Y-14868143D01*
X18124524Y-14868143D01*
X18105476Y-14877667D01*
X18095952Y-14887190D01*
X18305476Y-15001476D02*
X18286429Y-14991952D01*
X18276905Y-14982428D01*
X18267381Y-14963381D01*
X18267381Y-14906238D01*
X18276905Y-14887190D01*
X18286429Y-14877667D01*
X18305476Y-14868143D01*
X18334048Y-14868143D01*
X18353095Y-14877667D01*
X18362619Y-14887190D01*
X18372143Y-14906238D01*
X18372143Y-14963381D01*
X18362619Y-14982428D01*
X18353095Y-14991952D01*
X18334048Y-15001476D01*
X18305476Y-15001476D01*
X18486429Y-15001476D02*
X18467381Y-14991952D01*
X18457857Y-14972905D01*
X18457857Y-14801476D01*
X18638810Y-14991952D02*
X18619762Y-15001476D01*
X18581667Y-15001476D01*
X18562619Y-14991952D01*
X18553095Y-14972905D01*
X18553095Y-14896714D01*
X18562619Y-14877667D01*
X18581667Y-14868143D01*
X18619762Y-14868143D01*
X18638810Y-14877667D01*
X18648333Y-14896714D01*
X18648333Y-14915762D01*
X18553095Y-14934809D01*
X18724524Y-14991952D02*
X18743571Y-15001476D01*
X18781667Y-15001476D01*
X18800714Y-14991952D01*
X18810238Y-14972905D01*
X18810238Y-14963381D01*
X18800714Y-14944333D01*
X18781667Y-14934809D01*
X18753095Y-14934809D01*
X18734048Y-14925286D01*
X18724524Y-14906238D01*
X18724524Y-14896714D01*
X18734048Y-14877667D01*
X18753095Y-14868143D01*
X18781667Y-14868143D01*
X18800714Y-14877667D01*
X18876905Y-15077667D02*
X18886429Y-15068143D01*
X18905476Y-15039571D01*
X18915000Y-15020524D01*
X18924524Y-14991952D01*
X18934048Y-14944333D01*
X18934048Y-14906238D01*
X18924524Y-14858619D01*
X18915000Y-14830048D01*
X18905476Y-14811000D01*
X18886429Y-14782428D01*
X18876905Y-14772905D01*
D17*
X13995000Y-15120000D02*
X14105000Y-15230000D01*
X14105000Y-15120000D02*
X13995000Y-15230000D01*
X14105000Y-15175000D02*
G75*
G03*
X14105000Y-15175000I-55000J0D01*
G01*
D11*
X14467381Y-15265476D02*
X14353095Y-15265476D01*
X14410238Y-15265476D02*
X14410238Y-15065476D01*
X14391190Y-15094048D01*
X14372143Y-15113095D01*
X14353095Y-15122619D01*
X14553095Y-15246428D02*
X14562619Y-15255952D01*
X14553095Y-15265476D01*
X14543571Y-15255952D01*
X14553095Y-15246428D01*
X14553095Y-15265476D01*
X14753095Y-15265476D02*
X14638809Y-15265476D01*
X14695952Y-15265476D02*
X14695952Y-15065476D01*
X14676905Y-15094048D01*
X14657857Y-15113095D01*
X14638809Y-15122619D01*
X14876905Y-15065476D02*
X14895952Y-15065476D01*
X14915000Y-15075000D01*
X14924524Y-15084524D01*
X14934048Y-15103571D01*
X14943571Y-15141667D01*
X14943571Y-15189286D01*
X14934048Y-15227381D01*
X14924524Y-15246428D01*
X14915000Y-15255952D01*
X14895952Y-15265476D01*
X14876905Y-15265476D01*
X14857857Y-15255952D01*
X14848333Y-15246428D01*
X14838809Y-15227381D01*
X14829286Y-15189286D01*
X14829286Y-15141667D01*
X14838809Y-15103571D01*
X14848333Y-15084524D01*
X14857857Y-15075000D01*
X14876905Y-15065476D01*
X15067381Y-15065476D02*
X15086428Y-15065476D01*
X15105476Y-15075000D01*
X15115000Y-15084524D01*
X15124524Y-15103571D01*
X15134048Y-15141667D01*
X15134048Y-15189286D01*
X15124524Y-15227381D01*
X15115000Y-15246428D01*
X15105476Y-15255952D01*
X15086428Y-15265476D01*
X15067381Y-15265476D01*
X15048333Y-15255952D01*
X15038809Y-15246428D01*
X15029286Y-15227381D01*
X15019762Y-15189286D01*
X15019762Y-15141667D01*
X15029286Y-15103571D01*
X15038809Y-15084524D01*
X15048333Y-15075000D01*
X15067381Y-15065476D01*
X15219762Y-15265476D02*
X15219762Y-15132143D01*
X15219762Y-15151190D02*
X15229286Y-15141667D01*
X15248333Y-15132143D01*
X15276905Y-15132143D01*
X15295952Y-15141667D01*
X15305476Y-15160714D01*
X15305476Y-15265476D01*
X15305476Y-15160714D02*
X15315000Y-15141667D01*
X15334048Y-15132143D01*
X15362619Y-15132143D01*
X15381667Y-15141667D01*
X15391190Y-15160714D01*
X15391190Y-15265476D01*
X15486428Y-15265476D02*
X15486428Y-15132143D01*
X15486428Y-15151190D02*
X15495952Y-15141667D01*
X15515000Y-15132143D01*
X15543571Y-15132143D01*
X15562619Y-15141667D01*
X15572143Y-15160714D01*
X15572143Y-15265476D01*
X15572143Y-15160714D02*
X15581667Y-15141667D01*
X15600714Y-15132143D01*
X15629286Y-15132143D01*
X15648333Y-15141667D01*
X15657857Y-15160714D01*
X15657857Y-15265476D01*
X16048333Y-15055952D02*
X15876905Y-15313095D01*
X16305476Y-15065476D02*
X16324524Y-15065476D01*
X16343571Y-15075000D01*
X16353095Y-15084524D01*
X16362619Y-15103571D01*
X16372143Y-15141667D01*
X16372143Y-15189286D01*
X16362619Y-15227381D01*
X16353095Y-15246428D01*
X16343571Y-15255952D01*
X16324524Y-15265476D01*
X16305476Y-15265476D01*
X16286428Y-15255952D01*
X16276905Y-15246428D01*
X16267381Y-15227381D01*
X16257857Y-15189286D01*
X16257857Y-15141667D01*
X16267381Y-15103571D01*
X16276905Y-15084524D01*
X16286428Y-15075000D01*
X16305476Y-15065476D01*
X16457857Y-15246428D02*
X16467381Y-15255952D01*
X16457857Y-15265476D01*
X16448333Y-15255952D01*
X16457857Y-15246428D01*
X16457857Y-15265476D01*
X16591190Y-15065476D02*
X16610238Y-15065476D01*
X16629286Y-15075000D01*
X16638809Y-15084524D01*
X16648333Y-15103571D01*
X16657857Y-15141667D01*
X16657857Y-15189286D01*
X16648333Y-15227381D01*
X16638809Y-15246428D01*
X16629286Y-15255952D01*
X16610238Y-15265476D01*
X16591190Y-15265476D01*
X16572143Y-15255952D01*
X16562619Y-15246428D01*
X16553095Y-15227381D01*
X16543571Y-15189286D01*
X16543571Y-15141667D01*
X16553095Y-15103571D01*
X16562619Y-15084524D01*
X16572143Y-15075000D01*
X16591190Y-15065476D01*
X16829286Y-15132143D02*
X16829286Y-15265476D01*
X16781667Y-15055952D02*
X16734048Y-15198809D01*
X16857857Y-15198809D01*
X16915000Y-15065476D02*
X17038810Y-15065476D01*
X16972143Y-15141667D01*
X17000714Y-15141667D01*
X17019762Y-15151190D01*
X17029286Y-15160714D01*
X17038810Y-15179762D01*
X17038810Y-15227381D01*
X17029286Y-15246428D01*
X17019762Y-15255952D01*
X17000714Y-15265476D01*
X16943571Y-15265476D01*
X16924524Y-15255952D01*
X16915000Y-15246428D01*
X17105476Y-15065476D02*
X17229286Y-15065476D01*
X17162619Y-15141667D01*
X17191190Y-15141667D01*
X17210238Y-15151190D01*
X17219762Y-15160714D01*
X17229286Y-15179762D01*
X17229286Y-15227381D01*
X17219762Y-15246428D01*
X17210238Y-15255952D01*
X17191190Y-15265476D01*
X17134048Y-15265476D01*
X17115000Y-15255952D01*
X17105476Y-15246428D01*
X17305476Y-15065476D02*
X17305476Y-15103571D01*
X17381667Y-15065476D02*
X17381667Y-15103571D01*
X17676905Y-15341667D02*
X17667381Y-15332143D01*
X17648333Y-15303571D01*
X17638810Y-15284524D01*
X17629286Y-15255952D01*
X17619762Y-15208333D01*
X17619762Y-15170238D01*
X17629286Y-15122619D01*
X17638810Y-15094048D01*
X17648333Y-15075000D01*
X17667381Y-15046428D01*
X17676905Y-15036905D01*
X17857857Y-15265476D02*
X17743571Y-15265476D01*
X17800714Y-15265476D02*
X17800714Y-15065476D01*
X17781667Y-15094048D01*
X17762619Y-15113095D01*
X17743571Y-15122619D01*
X17934048Y-15084524D02*
X17943571Y-15075000D01*
X17962619Y-15065476D01*
X18010238Y-15065476D01*
X18029286Y-15075000D01*
X18038810Y-15084524D01*
X18048333Y-15103571D01*
X18048333Y-15122619D01*
X18038810Y-15151190D01*
X17924524Y-15265476D01*
X18048333Y-15265476D01*
X18286429Y-15265476D02*
X18286429Y-15065476D01*
X18372143Y-15265476D02*
X18372143Y-15160714D01*
X18362619Y-15141667D01*
X18343571Y-15132143D01*
X18315000Y-15132143D01*
X18295952Y-15141667D01*
X18286429Y-15151190D01*
X18495952Y-15265476D02*
X18476905Y-15255952D01*
X18467381Y-15246428D01*
X18457857Y-15227381D01*
X18457857Y-15170238D01*
X18467381Y-15151190D01*
X18476905Y-15141667D01*
X18495952Y-15132143D01*
X18524524Y-15132143D01*
X18543571Y-15141667D01*
X18553095Y-15151190D01*
X18562619Y-15170238D01*
X18562619Y-15227381D01*
X18553095Y-15246428D01*
X18543571Y-15255952D01*
X18524524Y-15265476D01*
X18495952Y-15265476D01*
X18676905Y-15265476D02*
X18657857Y-15255952D01*
X18648333Y-15236905D01*
X18648333Y-15065476D01*
X18829286Y-15255952D02*
X18810238Y-15265476D01*
X18772143Y-15265476D01*
X18753095Y-15255952D01*
X18743571Y-15236905D01*
X18743571Y-15160714D01*
X18753095Y-15141667D01*
X18772143Y-15132143D01*
X18810238Y-15132143D01*
X18829286Y-15141667D01*
X18838810Y-15160714D01*
X18838810Y-15179762D01*
X18743571Y-15198809D01*
X18915000Y-15255952D02*
X18934048Y-15265476D01*
X18972143Y-15265476D01*
X18991190Y-15255952D01*
X19000714Y-15236905D01*
X19000714Y-15227381D01*
X18991190Y-15208333D01*
X18972143Y-15198809D01*
X18943571Y-15198809D01*
X18924524Y-15189286D01*
X18915000Y-15170238D01*
X18915000Y-15160714D01*
X18924524Y-15141667D01*
X18943571Y-15132143D01*
X18972143Y-15132143D01*
X18991190Y-15141667D01*
X19067381Y-15341667D02*
X19076905Y-15332143D01*
X19095952Y-15303571D01*
X19105476Y-15284524D01*
X19115000Y-15255952D01*
X19124524Y-15208333D01*
X19124524Y-15170238D01*
X19115000Y-15122619D01*
X19105476Y-15094048D01*
X19095952Y-15075000D01*
X19076905Y-15046428D01*
X19067381Y-15036905D01*
D18*
X13955000Y-15364000D02*
X14105000Y-15514000D01*
X14105000Y-15364000D02*
X13955000Y-15514000D01*
X14030000Y-15364000D02*
X14030000Y-15514000D01*
X13955000Y-15439000D02*
X14105000Y-15439000D01*
D11*
X14467381Y-15529476D02*
X14353095Y-15529476D01*
X14410238Y-15529476D02*
X14410238Y-15329476D01*
X14391190Y-15358048D01*
X14372143Y-15377095D01*
X14353095Y-15386619D01*
X14553095Y-15510428D02*
X14562619Y-15519952D01*
X14553095Y-15529476D01*
X14543571Y-15519952D01*
X14553095Y-15510428D01*
X14553095Y-15529476D01*
X14743571Y-15329476D02*
X14648333Y-15329476D01*
X14638809Y-15424714D01*
X14648333Y-15415190D01*
X14667381Y-15405667D01*
X14715000Y-15405667D01*
X14734048Y-15415190D01*
X14743571Y-15424714D01*
X14753095Y-15443762D01*
X14753095Y-15491381D01*
X14743571Y-15510428D01*
X14734048Y-15519952D01*
X14715000Y-15529476D01*
X14667381Y-15529476D01*
X14648333Y-15519952D01*
X14638809Y-15510428D01*
X14876905Y-15329476D02*
X14895952Y-15329476D01*
X14915000Y-15339000D01*
X14924524Y-15348524D01*
X14934048Y-15367571D01*
X14943571Y-15405667D01*
X14943571Y-15453286D01*
X14934048Y-15491381D01*
X14924524Y-15510428D01*
X14915000Y-15519952D01*
X14895952Y-15529476D01*
X14876905Y-15529476D01*
X14857857Y-15519952D01*
X14848333Y-15510428D01*
X14838809Y-15491381D01*
X14829286Y-15453286D01*
X14829286Y-15405667D01*
X14838809Y-15367571D01*
X14848333Y-15348524D01*
X14857857Y-15339000D01*
X14876905Y-15329476D01*
X15067381Y-15329476D02*
X15086428Y-15329476D01*
X15105476Y-15339000D01*
X15115000Y-15348524D01*
X15124524Y-15367571D01*
X15134048Y-15405667D01*
X15134048Y-15453286D01*
X15124524Y-15491381D01*
X15115000Y-15510428D01*
X15105476Y-15519952D01*
X15086428Y-15529476D01*
X15067381Y-15529476D01*
X15048333Y-15519952D01*
X15038809Y-15510428D01*
X15029286Y-15491381D01*
X15019762Y-15453286D01*
X15019762Y-15405667D01*
X15029286Y-15367571D01*
X15038809Y-15348524D01*
X15048333Y-15339000D01*
X15067381Y-15329476D01*
X15219762Y-15529476D02*
X15219762Y-15396143D01*
X15219762Y-15415190D02*
X15229286Y-15405667D01*
X15248333Y-15396143D01*
X15276905Y-15396143D01*
X15295952Y-15405667D01*
X15305476Y-15424714D01*
X15305476Y-15529476D01*
X15305476Y-15424714D02*
X15315000Y-15405667D01*
X15334048Y-15396143D01*
X15362619Y-15396143D01*
X15381667Y-15405667D01*
X15391190Y-15424714D01*
X15391190Y-15529476D01*
X15486428Y-15529476D02*
X15486428Y-15396143D01*
X15486428Y-15415190D02*
X15495952Y-15405667D01*
X15515000Y-15396143D01*
X15543571Y-15396143D01*
X15562619Y-15405667D01*
X15572143Y-15424714D01*
X15572143Y-15529476D01*
X15572143Y-15424714D02*
X15581667Y-15405667D01*
X15600714Y-15396143D01*
X15629286Y-15396143D01*
X15648333Y-15405667D01*
X15657857Y-15424714D01*
X15657857Y-15529476D01*
X16048333Y-15319952D02*
X15876905Y-15577095D01*
X16305476Y-15329476D02*
X16324524Y-15329476D01*
X16343571Y-15339000D01*
X16353095Y-15348524D01*
X16362619Y-15367571D01*
X16372143Y-15405667D01*
X16372143Y-15453286D01*
X16362619Y-15491381D01*
X16353095Y-15510428D01*
X16343571Y-15519952D01*
X16324524Y-15529476D01*
X16305476Y-15529476D01*
X16286428Y-15519952D01*
X16276905Y-15510428D01*
X16267381Y-15491381D01*
X16257857Y-15453286D01*
X16257857Y-15405667D01*
X16267381Y-15367571D01*
X16276905Y-15348524D01*
X16286428Y-15339000D01*
X16305476Y-15329476D01*
X16457857Y-15510428D02*
X16467381Y-15519952D01*
X16457857Y-15529476D01*
X16448333Y-15519952D01*
X16457857Y-15510428D01*
X16457857Y-15529476D01*
X16591190Y-15329476D02*
X16610238Y-15329476D01*
X16629286Y-15339000D01*
X16638809Y-15348524D01*
X16648333Y-15367571D01*
X16657857Y-15405667D01*
X16657857Y-15453286D01*
X16648333Y-15491381D01*
X16638809Y-15510428D01*
X16629286Y-15519952D01*
X16610238Y-15529476D01*
X16591190Y-15529476D01*
X16572143Y-15519952D01*
X16562619Y-15510428D01*
X16553095Y-15491381D01*
X16543571Y-15453286D01*
X16543571Y-15405667D01*
X16553095Y-15367571D01*
X16562619Y-15348524D01*
X16572143Y-15339000D01*
X16591190Y-15329476D01*
X16838810Y-15329476D02*
X16743571Y-15329476D01*
X16734048Y-15424714D01*
X16743571Y-15415190D01*
X16762619Y-15405667D01*
X16810238Y-15405667D01*
X16829286Y-15415190D01*
X16838810Y-15424714D01*
X16848333Y-15443762D01*
X16848333Y-15491381D01*
X16838810Y-15510428D01*
X16829286Y-15519952D01*
X16810238Y-15529476D01*
X16762619Y-15529476D01*
X16743571Y-15519952D01*
X16734048Y-15510428D01*
X16943571Y-15529476D02*
X16981667Y-15529476D01*
X17000714Y-15519952D01*
X17010238Y-15510428D01*
X17029286Y-15481857D01*
X17038810Y-15443762D01*
X17038810Y-15367571D01*
X17029286Y-15348524D01*
X17019762Y-15339000D01*
X17000714Y-15329476D01*
X16962619Y-15329476D01*
X16943571Y-15339000D01*
X16934048Y-15348524D01*
X16924524Y-15367571D01*
X16924524Y-15415190D01*
X16934048Y-15434238D01*
X16943571Y-15443762D01*
X16962619Y-15453286D01*
X17000714Y-15453286D01*
X17019762Y-15443762D01*
X17029286Y-15434238D01*
X17038810Y-15415190D01*
X17229286Y-15529476D02*
X17115000Y-15529476D01*
X17172143Y-15529476D02*
X17172143Y-15329476D01*
X17153095Y-15358048D01*
X17134048Y-15377095D01*
X17115000Y-15386619D01*
X17305476Y-15329476D02*
X17305476Y-15367571D01*
X17381667Y-15329476D02*
X17381667Y-15367571D01*
X17676905Y-15605667D02*
X17667381Y-15596143D01*
X17648333Y-15567571D01*
X17638810Y-15548524D01*
X17629286Y-15519952D01*
X17619762Y-15472333D01*
X17619762Y-15434238D01*
X17629286Y-15386619D01*
X17638810Y-15358048D01*
X17648333Y-15339000D01*
X17667381Y-15310428D01*
X17676905Y-15300905D01*
X17743571Y-15348524D02*
X17753095Y-15339000D01*
X17772143Y-15329476D01*
X17819762Y-15329476D01*
X17838810Y-15339000D01*
X17848333Y-15348524D01*
X17857857Y-15367571D01*
X17857857Y-15386619D01*
X17848333Y-15415190D01*
X17734048Y-15529476D01*
X17857857Y-15529476D01*
X18095952Y-15529476D02*
X18095952Y-15329476D01*
X18181667Y-15529476D02*
X18181667Y-15424714D01*
X18172143Y-15405667D01*
X18153095Y-15396143D01*
X18124524Y-15396143D01*
X18105476Y-15405667D01*
X18095952Y-15415190D01*
X18305476Y-15529476D02*
X18286429Y-15519952D01*
X18276905Y-15510428D01*
X18267381Y-15491381D01*
X18267381Y-15434238D01*
X18276905Y-15415190D01*
X18286429Y-15405667D01*
X18305476Y-15396143D01*
X18334048Y-15396143D01*
X18353095Y-15405667D01*
X18362619Y-15415190D01*
X18372143Y-15434238D01*
X18372143Y-15491381D01*
X18362619Y-15510428D01*
X18353095Y-15519952D01*
X18334048Y-15529476D01*
X18305476Y-15529476D01*
X18486429Y-15529476D02*
X18467381Y-15519952D01*
X18457857Y-15500905D01*
X18457857Y-15329476D01*
X18638810Y-15519952D02*
X18619762Y-15529476D01*
X18581667Y-15529476D01*
X18562619Y-15519952D01*
X18553095Y-15500905D01*
X18553095Y-15424714D01*
X18562619Y-15405667D01*
X18581667Y-15396143D01*
X18619762Y-15396143D01*
X18638810Y-15405667D01*
X18648333Y-15424714D01*
X18648333Y-15443762D01*
X18553095Y-15462809D01*
X18724524Y-15519952D02*
X18743571Y-15529476D01*
X18781667Y-15529476D01*
X18800714Y-15519952D01*
X18810238Y-15500905D01*
X18810238Y-15491381D01*
X18800714Y-15472333D01*
X18781667Y-15462809D01*
X18753095Y-15462809D01*
X18734048Y-15453286D01*
X18724524Y-15434238D01*
X18724524Y-15424714D01*
X18734048Y-15405667D01*
X18753095Y-15396143D01*
X18781667Y-15396143D01*
X18800714Y-15405667D01*
X18876905Y-15605667D02*
X18886429Y-15596143D01*
X18905476Y-15567571D01*
X18915000Y-15548524D01*
X18924524Y-15519952D01*
X18934048Y-15472333D01*
X18934048Y-15434238D01*
X18924524Y-15386619D01*
X18915000Y-15358048D01*
X18905476Y-15339000D01*
X18886429Y-15310428D01*
X18876905Y-15300905D01*
X13905000Y-15609000D02*
X14105000Y-15809000D01*
X14105000Y-15609000D02*
X13905000Y-15809000D01*
X14075711Y-15779711D02*
X14075711Y-15638289D01*
X13934289Y-15638289D01*
X13934289Y-15779711D01*
X14075711Y-15779711D01*
X14343571Y-15599476D02*
X14467381Y-15599476D01*
X14400714Y-15675667D01*
X14429286Y-15675667D01*
X14448333Y-15685190D01*
X14457857Y-15694714D01*
X14467381Y-15713762D01*
X14467381Y-15761381D01*
X14457857Y-15780428D01*
X14448333Y-15789952D01*
X14429286Y-15799476D01*
X14372143Y-15799476D01*
X14353095Y-15789952D01*
X14343571Y-15780428D01*
X14553095Y-15780428D02*
X14562619Y-15789952D01*
X14553095Y-15799476D01*
X14543571Y-15789952D01*
X14553095Y-15780428D01*
X14553095Y-15799476D01*
X14638809Y-15618524D02*
X14648333Y-15609000D01*
X14667381Y-15599476D01*
X14715000Y-15599476D01*
X14734048Y-15609000D01*
X14743571Y-15618524D01*
X14753095Y-15637571D01*
X14753095Y-15656619D01*
X14743571Y-15685190D01*
X14629286Y-15799476D01*
X14753095Y-15799476D01*
X14876905Y-15599476D02*
X14895952Y-15599476D01*
X14915000Y-15609000D01*
X14924524Y-15618524D01*
X14934048Y-15637571D01*
X14943571Y-15675667D01*
X14943571Y-15723286D01*
X14934048Y-15761381D01*
X14924524Y-15780428D01*
X14915000Y-15789952D01*
X14895952Y-15799476D01*
X14876905Y-15799476D01*
X14857857Y-15789952D01*
X14848333Y-15780428D01*
X14838809Y-15761381D01*
X14829286Y-15723286D01*
X14829286Y-15675667D01*
X14838809Y-15637571D01*
X14848333Y-15618524D01*
X14857857Y-15609000D01*
X14876905Y-15599476D01*
X15067381Y-15599476D02*
X15086428Y-15599476D01*
X15105476Y-15609000D01*
X15115000Y-15618524D01*
X15124524Y-15637571D01*
X15134048Y-15675667D01*
X15134048Y-15723286D01*
X15124524Y-15761381D01*
X15115000Y-15780428D01*
X15105476Y-15789952D01*
X15086428Y-15799476D01*
X15067381Y-15799476D01*
X15048333Y-15789952D01*
X15038809Y-15780428D01*
X15029286Y-15761381D01*
X15019762Y-15723286D01*
X15019762Y-15675667D01*
X15029286Y-15637571D01*
X15038809Y-15618524D01*
X15048333Y-15609000D01*
X15067381Y-15599476D01*
X15219762Y-15799476D02*
X15219762Y-15666143D01*
X15219762Y-15685190D02*
X15229286Y-15675667D01*
X15248333Y-15666143D01*
X15276905Y-15666143D01*
X15295952Y-15675667D01*
X15305476Y-15694714D01*
X15305476Y-15799476D01*
X15305476Y-15694714D02*
X15315000Y-15675667D01*
X15334048Y-15666143D01*
X15362619Y-15666143D01*
X15381667Y-15675667D01*
X15391190Y-15694714D01*
X15391190Y-15799476D01*
X15486428Y-15799476D02*
X15486428Y-15666143D01*
X15486428Y-15685190D02*
X15495952Y-15675667D01*
X15515000Y-15666143D01*
X15543571Y-15666143D01*
X15562619Y-15675667D01*
X15572143Y-15694714D01*
X15572143Y-15799476D01*
X15572143Y-15694714D02*
X15581667Y-15675667D01*
X15600714Y-15666143D01*
X15629286Y-15666143D01*
X15648333Y-15675667D01*
X15657857Y-15694714D01*
X15657857Y-15799476D01*
X16048333Y-15589952D02*
X15876905Y-15847095D01*
X16305476Y-15599476D02*
X16324524Y-15599476D01*
X16343571Y-15609000D01*
X16353095Y-15618524D01*
X16362619Y-15637571D01*
X16372143Y-15675667D01*
X16372143Y-15723286D01*
X16362619Y-15761381D01*
X16353095Y-15780428D01*
X16343571Y-15789952D01*
X16324524Y-15799476D01*
X16305476Y-15799476D01*
X16286428Y-15789952D01*
X16276905Y-15780428D01*
X16267381Y-15761381D01*
X16257857Y-15723286D01*
X16257857Y-15675667D01*
X16267381Y-15637571D01*
X16276905Y-15618524D01*
X16286428Y-15609000D01*
X16305476Y-15599476D01*
X16457857Y-15780428D02*
X16467381Y-15789952D01*
X16457857Y-15799476D01*
X16448333Y-15789952D01*
X16457857Y-15780428D01*
X16457857Y-15799476D01*
X16657857Y-15799476D02*
X16543571Y-15799476D01*
X16600714Y-15799476D02*
X16600714Y-15599476D01*
X16581667Y-15628048D01*
X16562619Y-15647095D01*
X16543571Y-15656619D01*
X16734048Y-15618524D02*
X16743571Y-15609000D01*
X16762619Y-15599476D01*
X16810238Y-15599476D01*
X16829286Y-15609000D01*
X16838810Y-15618524D01*
X16848333Y-15637571D01*
X16848333Y-15656619D01*
X16838810Y-15685190D01*
X16724524Y-15799476D01*
X16848333Y-15799476D01*
X17019762Y-15599476D02*
X16981667Y-15599476D01*
X16962619Y-15609000D01*
X16953095Y-15618524D01*
X16934048Y-15647095D01*
X16924524Y-15685190D01*
X16924524Y-15761381D01*
X16934048Y-15780428D01*
X16943571Y-15789952D01*
X16962619Y-15799476D01*
X17000714Y-15799476D01*
X17019762Y-15789952D01*
X17029286Y-15780428D01*
X17038810Y-15761381D01*
X17038810Y-15713762D01*
X17029286Y-15694714D01*
X17019762Y-15685190D01*
X17000714Y-15675667D01*
X16962619Y-15675667D01*
X16943571Y-15685190D01*
X16934048Y-15694714D01*
X16924524Y-15713762D01*
X17162619Y-15599476D02*
X17181667Y-15599476D01*
X17200714Y-15609000D01*
X17210238Y-15618524D01*
X17219762Y-15637571D01*
X17229286Y-15675667D01*
X17229286Y-15723286D01*
X17219762Y-15761381D01*
X17210238Y-15780428D01*
X17200714Y-15789952D01*
X17181667Y-15799476D01*
X17162619Y-15799476D01*
X17143571Y-15789952D01*
X17134048Y-15780428D01*
X17124524Y-15761381D01*
X17115000Y-15723286D01*
X17115000Y-15675667D01*
X17124524Y-15637571D01*
X17134048Y-15618524D01*
X17143571Y-15609000D01*
X17162619Y-15599476D01*
X17305476Y-15599476D02*
X17305476Y-15637571D01*
X17381667Y-15599476D02*
X17381667Y-15637571D01*
X17676905Y-15875667D02*
X17667381Y-15866143D01*
X17648333Y-15837571D01*
X17638810Y-15818524D01*
X17629286Y-15789952D01*
X17619762Y-15742333D01*
X17619762Y-15704238D01*
X17629286Y-15656619D01*
X17638810Y-15628048D01*
X17648333Y-15609000D01*
X17667381Y-15580428D01*
X17676905Y-15570905D01*
X17838810Y-15666143D02*
X17838810Y-15799476D01*
X17791190Y-15589952D02*
X17743571Y-15732809D01*
X17867381Y-15732809D01*
X18095952Y-15799476D02*
X18095952Y-15599476D01*
X18181667Y-15799476D02*
X18181667Y-15694714D01*
X18172143Y-15675667D01*
X18153095Y-15666143D01*
X18124524Y-15666143D01*
X18105476Y-15675667D01*
X18095952Y-15685190D01*
X18305476Y-15799476D02*
X18286429Y-15789952D01*
X18276905Y-15780428D01*
X18267381Y-15761381D01*
X18267381Y-15704238D01*
X18276905Y-15685190D01*
X18286429Y-15675667D01*
X18305476Y-15666143D01*
X18334048Y-15666143D01*
X18353095Y-15675667D01*
X18362619Y-15685190D01*
X18372143Y-15704238D01*
X18372143Y-15761381D01*
X18362619Y-15780428D01*
X18353095Y-15789952D01*
X18334048Y-15799476D01*
X18305476Y-15799476D01*
X18486429Y-15799476D02*
X18467381Y-15789952D01*
X18457857Y-15770905D01*
X18457857Y-15599476D01*
X18638810Y-15789952D02*
X18619762Y-15799476D01*
X18581667Y-15799476D01*
X18562619Y-15789952D01*
X18553095Y-15770905D01*
X18553095Y-15694714D01*
X18562619Y-15675667D01*
X18581667Y-15666143D01*
X18619762Y-15666143D01*
X18638810Y-15675667D01*
X18648333Y-15694714D01*
X18648333Y-15713762D01*
X18553095Y-15732809D01*
X18724524Y-15789952D02*
X18743571Y-15799476D01*
X18781667Y-15799476D01*
X18800714Y-15789952D01*
X18810238Y-15770905D01*
X18810238Y-15761381D01*
X18800714Y-15742333D01*
X18781667Y-15732809D01*
X18753095Y-15732809D01*
X18734048Y-15723286D01*
X18724524Y-15704238D01*
X18724524Y-15694714D01*
X18734048Y-15675667D01*
X18753095Y-15666143D01*
X18781667Y-15666143D01*
X18800714Y-15675667D01*
X18876905Y-15875667D02*
X18886429Y-15866143D01*
X18905476Y-15837571D01*
X18915000Y-15818524D01*
X18924524Y-15789952D01*
X18934048Y-15742333D01*
X18934048Y-15704238D01*
X18924524Y-15656619D01*
X18915000Y-15628048D01*
X18905476Y-15609000D01*
X18886429Y-15580428D01*
X18876905Y-15570905D01*
M02*
