M48
; DRILL file {KiCad (6.0.1)} date Mon Jun 27 19:55:39 2022
; FORMAT={-:-/ absolute / metric / decimal}
; #@! TF.CreationDate,2022-06-27T19:55:39+02:00
; #@! TF.GenerationSoftware,Kicad,Pcbnew,(6.0.1)
; #@! TF.FileFunction,Plated,1,4,PTH
FMAT,2
METRIC
; #@! TA.AperFunction,Plated,PTH,ViaDrill
T1C0.300
; #@! TA.AperFunction,Plated,PTH,ComponentDrill
T2C0.400
; #@! TA.AperFunction,Plated,PTH,ComponentDrill
T3C0.650
; #@! TA.AperFunction,Plated,PTH,ComponentDrill
T4C0.700
; #@! TA.AperFunction,Plated,PTH,ComponentDrill
T5C1.000
; #@! TA.AperFunction,Plated,PTH,ComponentDrill
T6C1.100
; #@! TA.AperFunction,Plated,PTH,ComponentDrill
T7C1.500
; #@! TA.AperFunction,Plated,PTH,ViaDrill
T8C3.200
%
G90
G05
T1
X141.783Y-94.488
X141.783Y-98.044
X141.783Y-104.851
X141.783Y-119.278
X141.834Y-110.592
X141.834Y-115.164
X141.834Y-126.441
X141.884Y-37.795
X141.884Y-88.951
X141.935Y-71.425
X141.986Y-40.589
X141.986Y-45.212
X141.986Y-48.666
X141.986Y-61.976
X141.986Y-73.254
X141.986Y-123.546
X142.037Y-72.288
X142.138Y-80.213
X142.392Y-76.962
X142.646Y-83.261
X142.646Y-86.157
X142.951Y-50.952
X142.951Y-59.792
X142.964Y-51.562
X143.053Y-55.321
X143.408Y-37.998
X143.713Y-49.632
X144.069Y-52.73
X144.069Y-53.696
X144.221Y-89.459
X144.323Y-79.756
X144.374Y-72.238
X144.831Y-83.261
X144.831Y-86.208
X144.882Y-71.628
X144.882Y-72.898
X144.983Y-126.187
X145.034Y-113.081
X145.085Y-101.803
X145.085Y-107.391
X145.085Y-118.974
X145.237Y-49.124
X145.237Y-88.494
X145.288Y-98.603
X145.288Y-109.982
X145.339Y-115.672
X145.39Y-104.242
X145.491Y-76.962
X145.542Y-50.597
X145.542Y-92.812
X145.593Y-119.482
X145.644Y-37.541
X145.644Y-54.864
X145.644Y-107.899
X145.644Y-113.64
X145.694Y-102.311
X145.796Y-122.022
X145.898Y-95.555
X145.948Y-61.824
X145.999Y-52.629
X145.999Y-109.982
X146.05Y-53.696
X146.05Y-98.603
X146.05Y-115.672
X146.101Y-104.242
X146.101Y-107.34
X146.101Y-113.081
X146.101Y-118.974
X146.152Y-41.554
X146.202Y-101.752
X146.306Y-71.628
X146.306Y-72.847
X146.456Y-50.546
X146.456Y-110.541
X146.507Y-116.281
X146.558Y-104.851
X146.609Y-99.111
X146.71Y-32.969
X146.71Y-131.318
X146.914Y-35.712
X146.964Y-37.643
X146.964Y-40.691
X146.964Y-89.357
X146.964Y-92.812
X147.015Y-57.912
X147.015Y-59.182
X147.066Y-46.787
X147.066Y-56.693
X147.066Y-61.417
X147.117Y-60.452
X147.32Y-48.514
X147.32Y-54.813
X147.32Y-128.27
X147.371Y-107.594
X147.371Y-113.69
X147.472Y-119.939
X147.523Y-71.069
X147.625Y-66.954
X147.625Y-67.716
X147.625Y-68.529
X147.625Y-102.464
X147.726Y-100.787
X147.726Y-106.68
X147.777Y-55.931
X147.828Y-112.674
X147.879Y-91.186
X147.879Y-118.923
X147.93Y-58.166
X148.082Y-81.178
X148.133Y-78.638
X148.184Y-74.117
X148.234Y-93.32
X148.285Y-82.906
X148.539Y-59.893
X148.644Y-60.882
X148.793Y-86.97
X148.895Y-32.918
X149.098Y-120.752
X149.149Y-35.357
X149.2Y-64.364
X149.301Y-69.24
X149.606Y-44.247
X149.758Y-88.24
X149.758Y-91.186
X149.758Y-113.69
X149.911Y-127.559
X150.053Y-107.544
X150.063Y-124.308
X150.216Y-62.433
X150.266Y-37.643
X150.317Y-69.596
X150.409Y-101.651
X150.47Y-102.667
X150.47Y-103.378
X150.47Y-104.089
X150.52Y-108.763
X150.52Y-109.474
X150.52Y-110.185
X150.571Y-131.369
X150.672Y-115.012
X150.673Y-115.722
X150.673Y-116.434
X150.758Y-96.926
X150.758Y-97.638
X150.774Y-54.966
X150.774Y-98.349
X150.876Y-51.46
X150.894Y-53.279
X150.978Y-49.886
X150.978Y-67.97
X151.076Y-68.885
X151.333Y-76.657
X151.333Y-79.756
X151.384Y-73.558
X151.536Y-46.736
X151.536Y-95.707
X151.689Y-35.408
X151.689Y-52.222
X151.74Y-71.425
X151.79Y-82.956
X151.841Y-70.307
X151.943Y-51.41
X151.943Y-99.212
X151.943Y-100.533
X151.943Y-101.752
X151.943Y-103.073
X151.943Y-105.258
X151.943Y-106.578
X151.943Y-107.798
X151.943Y-109.118
X151.943Y-111.354
X151.943Y-112.674
X151.943Y-113.894
X151.943Y-115.214
X151.943Y-117.399
X151.943Y-118.72
X151.943Y-119.939
X151.943Y-121.26
X151.994Y-37.744
X152.349Y-40.742
X152.705Y-33.02
X152.756Y-98.095
X152.806Y-46.736
X152.857Y-45.771
X153.01Y-48.108
X153.073Y-62.582
X153.122Y-92.1
X153.122Y-93.015
X153.264Y-99.212
X153.264Y-100.533
X153.264Y-101.752
X153.264Y-103.073
X153.264Y-105.258
X153.264Y-106.578
X153.264Y-107.798
X153.264Y-109.118
X153.264Y-111.354
X153.264Y-112.674
X153.264Y-113.894
X153.264Y-115.214
X153.264Y-117.399
X153.264Y-118.72
X153.264Y-119.939
X153.264Y-121.26
X153.347Y-53.286
X153.411Y-93.813
X153.619Y-124.765
X153.67Y-127.66
X153.78Y-61.874
X153.78Y-63.289
X153.787Y-55.829
X153.822Y-131.267
X154.132Y-94.534
X154.178Y-52.426
X154.196Y-53.322
X154.487Y-61.167
X154.487Y-62.582
X154.487Y-63.996
X154.584Y-32.766
X154.584Y-34.62
X154.584Y-36.474
X154.854Y-75.54
X155.143Y-80.01
X155.194Y-55.22
X155.194Y-57.658
X155.194Y-60.46
X155.194Y-61.874
X155.194Y-63.289
X155.194Y-64.703
X155.448Y-94.183
X155.651Y-76.048
X155.657Y-88.001
X155.657Y-89.251
X155.657Y-90.501
X155.657Y-91.751
X155.662Y-73.355
X155.901Y-61.167
X155.901Y-62.582
X155.901Y-63.996
X155.905Y-79.502
X155.956Y-131.267
X156.312Y-116.383
X156.362Y-124.003
X156.362Y-127.813
X156.608Y-61.874
X156.608Y-63.289
X156.667Y-43.383
X156.972Y-74.27
X156.972Y-96.774
X157.074Y-37.694
X157.175Y-124.612
X157.226Y-127.102
X157.277Y-38.76
X157.315Y-62.582
X157.328Y-112.014
X157.378Y-110.998
X157.429Y-108.763
X157.582Y-46.939
X157.785Y-84.887
X157.836Y-73.609
X157.836Y-94.844
X157.886Y-40.589
X157.886Y-53.899
X157.886Y-83.617
X157.988Y-48.971
X157.988Y-55.067
X157.988Y-101.956
X157.988Y-124.003
X157.988Y-127.813
X158.071Y-66.374
X158.242Y-44.993
X158.293Y-50.546
X158.293Y-99.466
X158.394Y-86.614
X158.445Y-106.02
X158.648Y-117.399
X158.648Y-118.72
X158.648Y-119.939
X158.648Y-121.26
X158.699Y-49.784
X158.699Y-81.839
X158.699Y-116.281
X158.75Y-84.887
X158.801Y-94.844
X158.816Y-67.869
X159.004Y-46.482
X159.004Y-55.067
X159.106Y-56.032
X159.141Y-53.95
X159.512Y-124.003
X159.512Y-127.813
X159.614Y-60.604
X159.664Y-82.601
X159.715Y-48.209
X159.715Y-84.887
X159.766Y-94.844
X159.766Y-112.624
X159.868Y-57.963
X159.969Y-80.518
X160.02Y-46.38
X160.122Y-45.06
X160.274Y-50.038
X160.325Y-124.714
X160.325Y-127.051
X160.426Y-37.998
X160.426Y-40.538
X160.426Y-55.067
X160.426Y-62.738
X160.477Y-117.399
X160.477Y-118.72
X160.477Y-119.939
X160.477Y-121.26
X160.731Y-58.674
X160.833Y-115.011
X160.934Y-105.867
X160.934Y-112.522
X160.934Y-113.792
X160.985Y-104.445
X160.985Y-107.442
X161.184Y-67.02
X161.188Y-124.003
X161.188Y-127.813
X161.245Y-88.001
X161.245Y-89.251
X161.29Y-57.201
X161.29Y-60.249
X161.493Y-70.612
X161.544Y-62.535
X161.595Y-98.45
X161.646Y-94.945
X161.696Y-53.696
X161.747Y-101.854
X161.75Y-57.915
X161.798Y-52.781
X161.798Y-68.885
X161.9Y-67.666
X161.95Y-119.278
X162.103Y-45.415
X162.103Y-51.206
X162.154Y-122.225
X162.255Y-64.668
X162.357Y-50.038
X162.408Y-104.445
X162.408Y-105.867
X162.408Y-107.442
X162.458Y-112.522
X162.458Y-113.792
X162.509Y-115.011
X162.611Y-130.658
X162.712Y-61.265
X162.715Y-57.293
X162.763Y-128.727
X162.814Y-58.572
X162.904Y-52.872
X162.916Y-44.755
X162.916Y-79.756
X162.966Y-111.252
X163.017Y-83.21
X163.017Y-109.169
X163.098Y-64.774
X163.119Y-32.766
X163.119Y-34.646
X163.119Y-36.525
X163.373Y-125.679
X163.525Y-88.036
X163.525Y-89.256
X163.525Y-114.046
X163.576Y-94.844
X163.627Y-84.887
X163.728Y-52.324
X163.881Y-63.246
X163.948Y-64.77
X164.084Y-45.822
X164.135Y-77.876
X164.287Y-57.404
X164.389Y-43.942
X164.44Y-46.939
X164.49Y-51.206
X164.49Y-119.228
X164.541Y-94.844
X164.694Y-108.509
X164.795Y-84.887
X164.846Y-105.969
X164.897Y-64.77
X165.049Y-41.183
X165.1Y-48.87
X165.1Y-53.442
X165.134Y-56.34
X165.202Y-99.568
X165.252Y-96.672
X165.354Y-43.078
X165.354Y-60.909
X165.354Y-62.281
X165.354Y-102.108
X165.405Y-109.169
X165.405Y-111.252
X165.456Y-122.123
X165.506Y-94.844
X165.506Y-108.356
X165.608Y-115.926
X165.71Y-127.203
X165.76Y-81.128
X165.76Y-82.245
X165.811Y-54.102
X165.862Y-58.877
X166.116Y-35.611
X166.167Y-52.629
X166.37Y-113.741
X166.421Y-42.926
X166.472Y-32.766
X166.522Y-73.254
X166.573Y-62.281
X166.573Y-131.369
X166.624Y-51.511
X166.827Y-58.877
X166.827Y-123.596
X166.878Y-59.842
X166.929Y-57.201
X167.132Y-63.856
X167.214Y-84.251
X167.214Y-85.501
X167.214Y-86.751
X167.214Y-88.001
X167.214Y-89.251
X167.284Y-41.183
X167.284Y-49.886
X167.304Y-54.524
X167.304Y-55.54
X167.691Y-48.87
X167.691Y-62.281
X167.792Y-57.658
X167.894Y-71.171
X167.945Y-37.694
X168.148Y-79.451
X168.148Y-109.982
X168.148Y-111.1
X168.183Y-43.383
X168.199Y-55.423
X168.25Y-82.956
X168.25Y-102.413
X168.3Y-81.737
X168.402Y-107.493
X168.453Y-112.471
X168.91Y-97.028
X168.91Y-99.873
X168.91Y-101.143
X168.91Y-123.596
X168.961Y-56.134
X168.961Y-98.4
X169.113Y-92.558
X169.113Y-118.618
X169.113Y-119.736
X169.367Y-71.222
X169.57Y-79.908
X169.774Y-45.161
X169.774Y-47.498
X169.824Y-81.128
X169.926Y-56.185
X169.926Y-94.844
X170.231Y-61.128
X170.231Y-62.484
X170.332Y-73.05
X170.434Y-42.977
X170.434Y-68.58
X170.434Y-115.265
X170.434Y-116.078
X170.485Y-51.613
X170.79Y-111.76
X170.993Y-60.249
X170.993Y-65.176
X170.993Y-126.086
X171.094Y-115.672
X171.196Y-77.064
X171.196Y-94.844
X171.196Y-122.377
X171.247Y-93.523
X171.247Y-97.028
X171.247Y-98.4
X171.247Y-99.873
X171.247Y-101.143
X171.247Y-106.934
X171.247Y-110.947
X171.298Y-37.795
X171.298Y-43.739
X171.298Y-79.908
X171.298Y-102.413
X171.298Y-118.669
X171.348Y-53.746
X171.348Y-108.407
X171.348Y-112.573
X171.348Y-119.888
X171.399Y-48.616
X171.399Y-59.487
X171.45Y-64.11
T2
X163.578Y-68.45
X163.578Y-69.3
X163.578Y-70.15
X163.578Y-71.0
X163.578Y-71.85
X163.578Y-72.7
X163.578Y-73.55
X163.578Y-74.4
X164.928Y-68.45
X164.928Y-69.3
X164.928Y-70.15
X164.928Y-71.0
X164.928Y-71.85
X164.928Y-72.7
X164.928Y-73.55
X164.928Y-74.4
T3
X144.399Y-55.372
X144.399Y-56.642
X144.399Y-57.912
X144.399Y-59.182
X144.399Y-60.452
X144.399Y-61.722
T5
X146.928Y-87.376
X155.575Y-70.114
X155.575Y-77.714
T6
X152.6Y-99.861
X152.6Y-102.401
X152.6Y-105.934
X152.6Y-108.474
X152.6Y-112.008
X152.6Y-114.548
X152.6Y-118.081
X152.6Y-120.621
X157.48Y-125.781
X159.563Y-118.059
X159.563Y-120.599
X160.02Y-125.781
T7
X170.078Y-97.841
X170.078Y-100.381
T8
X143.6Y-34.6
X143.6Y-129.6
X169.6Y-34.6
X169.6Y-129.6
T4
X164.728Y-67.1G85X163.428Y-67.1
G05
X164.728Y-75.75G85X163.428Y-75.75
G05
X168.678Y-67.1G85X167.778Y-67.1
G05
X168.628Y-75.75G85X167.828Y-75.75
G05
T0
M30
