M48
; DRILL file {KiCad (6.0.1)} date Thu Sep 22 22:29:04 2022
; FORMAT={-:-/ absolute / inch / decimal}
; #@! TF.CreationDate,2022-09-22T22:29:04+02:00
; #@! TF.GenerationSoftware,Kicad,Pcbnew,(6.0.1)
; #@! TF.FileFunction,Plated,1,4,PTH
FMAT,2
INCH
; #@! TA.AperFunction,Plated,PTH,ViaDrill
T1C0.0118
; #@! TA.AperFunction,Plated,PTH,ComponentDrill
T2C0.0157
; #@! TA.AperFunction,Plated,PTH,ComponentDrill
T3C0.0256
; #@! TA.AperFunction,Plated,PTH,ComponentDrill
T4C0.0276
; #@! TA.AperFunction,Plated,PTH,ComponentDrill
T5C0.0394
; #@! TA.AperFunction,Plated,PTH,ComponentDrill
T6C0.0433
; #@! TA.AperFunction,Plated,PTH,ComponentDrill
T7C0.0591
; #@! TA.AperFunction,Plated,PTH,ViaDrill
T8C0.1260
%
G90
G05
T1
X5.58Y-4.082
X5.582Y-3.72
X5.583Y-3.905
X5.583Y-4.162
X5.583Y-4.412
X5.583Y-4.664
X5.584Y-4.326
X5.584Y-4.554
X5.584Y-4.978
X5.586Y-1.488
X5.586Y-3.502
X5.588Y-2.812
X5.59Y-1.598
X5.59Y-1.78
X5.59Y-1.916
X5.59Y-2.44
X5.59Y-2.884
X5.59Y-4.864
X5.592Y-2.846
X5.594Y-4.52
X5.596Y-3.158
X5.598Y-4.764
X5.6Y-4.268
X5.602Y-4.01
X5.606Y-3.03
X5.616Y-3.278
X5.616Y-3.392
X5.628Y-2.006
X5.628Y-2.354
X5.6285Y-2.03
X5.632Y-2.178
X5.642Y-3.91
X5.643Y-4.168
X5.644Y-4.418
X5.646Y-1.496
X5.646Y-4.256
X5.646Y-4.514
X5.646Y-4.67
X5.646Y-4.764
X5.648Y-4.004
X5.655Y-3.812
X5.66Y-4.282
X5.66Y-4.538
X5.66Y-4.79
X5.662Y-4.03
X5.668Y-1.612
X5.672Y-2.076
X5.672Y-2.114
X5.676Y-4.256
X5.676Y-4.514
X5.676Y-4.764
X5.678Y-3.522
X5.678Y-4.004
X5.682Y-3.14
X5.6846Y-1.9488
X5.6925Y-2.8358
X5.702Y-3.278
X5.702Y-3.394
X5.708Y-4.968
X5.714Y-1.608
X5.714Y-1.886
X5.718Y-3.484
X5.728Y-3.03
X5.73Y-1.992
X5.73Y-2.432
X5.73Y-3.654
X5.734Y-2.16
X5.748Y-2.072
X5.75Y-2.114
X5.754Y-1.636
X5.766Y-4.062
X5.768Y-4.604
X5.77Y-4.352
X5.772Y-4.3
X5.7756Y-4.1122
X5.776Y-1.298
X5.776Y-5.17
X5.78Y-1.89
X5.78Y-4.556
X5.7803Y-2.1598
X5.786Y-1.482
X5.786Y-1.602
X5.786Y-3.518
X5.786Y-3.654
X5.788Y-2.28
X5.788Y-2.33
X5.79Y-2.232
X5.79Y-2.418
X5.792Y-2.38
X5.796Y-2.884
X5.8Y-5.05
X5.802Y-2.636
X5.802Y-2.666
X5.8021Y-2.8511
X5.8024Y-2.8264
X5.81Y-2.744
X5.82Y-2.208
X5.822Y-3.59
X5.824Y-2.29
X5.83Y-3.196
X5.832Y-1.306
X5.832Y-3.096
X5.836Y-4.308
X5.8376Y-1.466
X5.838Y-3.264
X5.839Y-1.9929
X5.844Y-2.792
X5.844Y-4.558
X5.848Y-2.358
X5.8521Y-2.3969
X5.856Y-1.406
X5.858Y-3.424
X5.862Y-3.79
X5.87Y-1.484
X5.8711Y-4.0485
X5.872Y-1.652
X5.874Y-2.534
X5.8752Y-1.9106
X5.8807Y-2.74
X5.896Y-3.474
X5.896Y-3.59
X5.902Y-5.022
X5.9072Y-4.9574
X5.9106Y-1.7736
X5.914Y-2.458
X5.916Y-1.482
X5.9161Y-2.0209
X5.918Y-2.74
X5.928Y-5.172
X5.936Y-2.164
X5.9407Y-2.0976
X5.942Y-1.816
X5.944Y-1.964
X5.944Y-2.676
X5.9479Y-2.712
X5.952Y-1.928
X5.956Y-3.816
X5.958Y-3.018
X5.958Y-3.14
X5.96Y-4.872
X5.966Y-1.726
X5.966Y-2.912
X5.97Y-1.436
X5.97Y-2.056
X5.972Y-1.394
X5.976Y-3.266
X5.978Y-2.768
X5.982Y-2.024
X5.982Y-3.906
X5.982Y-3.958
X5.982Y-4.006
X5.982Y-4.058
X5.982Y-4.144
X5.982Y-4.196
X5.982Y-4.244
X5.982Y-4.296
X5.982Y-4.384
X5.982Y-4.436
X5.982Y-4.484
X5.982Y-4.536
X5.982Y-4.622
X5.982Y-4.674
X5.982Y-4.722
X5.982Y-4.774
X5.984Y-1.486
X5.998Y-1.604
X6.012Y-1.3
X6.016Y-1.84
X6.018Y-1.802
X6.02Y-1.714
X6.024Y-1.894
X6.0265Y-2.4638
X6.028Y-2.044
X6.03Y-1.636
X6.034Y-1.9914
X6.034Y-3.906
X6.034Y-3.958
X6.034Y-4.006
X6.034Y-4.058
X6.034Y-4.144
X6.034Y-4.196
X6.034Y-4.244
X6.034Y-4.296
X6.034Y-4.384
X6.034Y-4.436
X6.034Y-4.484
X6.034Y-4.536
X6.034Y-4.622
X6.034Y-4.674
X6.034Y-4.722
X6.034Y-4.774
X6.036Y-2.108
X6.046Y-2.074
X6.048Y-4.912
X6.05Y-5.026
X6.0543Y-2.436
X6.0543Y-2.4917
X6.0546Y-2.198
X6.056Y-5.168
X6.0707Y-2.0993
X6.078Y-3.8795
X6.0822Y-2.4082
X6.0822Y-2.4638
X6.0822Y-2.5195
X6.086Y-1.29
X6.086Y-1.363
X6.086Y-1.436
X6.086Y-4.592
X6.0917Y-4.1031
X6.0941Y-4.3425
X6.0984Y-3.1272
X6.0988Y-2.9929
X6.11Y-2.3803
X6.11Y-2.436
X6.11Y-2.4917
X6.11Y-2.5474
X6.1134Y-2.14
X6.126Y-1.946
X6.1282Y-3.4646
X6.1282Y-3.5138
X6.1282Y-3.563
X6.1282Y-3.6122
X6.13Y-1.71
X6.1327Y-2.888
X6.1378Y-2.4082
X6.1378Y-2.4638
X6.1378Y-2.5195
X6.138Y-3.13
X6.1386Y-2.994
X6.14Y-5.168
X6.1492Y-3.4087
X6.156Y-4.882
X6.156Y-5.032
X6.1566Y-2.246
X6.1657Y-2.436
X6.1657Y-2.4917
X6.179Y-4.635
X6.179Y-4.67
X6.179Y-4.705
X6.18Y-2.924
X6.18Y-3.784
X6.184Y-1.484
X6.188Y-3.228
X6.188Y-4.906
X6.1886Y-4.2307
X6.1886Y-4.3339
X6.189Y-4.2807
X6.19Y-5.004
X6.192Y-1.526
X6.192Y-1.631
X6.192Y-1.67
X6.1935Y-2.4638
X6.195Y-1.961
X6.2027Y-2.2402
X6.204Y-1.848
X6.208Y-4.084
X6.208Y-4.114
X6.2087Y-3.8937
X6.2087Y-3.9287
X6.2087Y-3.9637
X6.21Y-1.744
X6.21Y-3.73
X6.212Y-3.846
X6.214Y-2.898
X6.216Y-1.592
X6.216Y-2.118
X6.22Y-4.882
X6.22Y-5.032
X6.2205Y-3.0669
X6.2248Y-4.5945
X6.232Y-1.99
X6.2423Y-2.228
X6.248Y-1.96
X6.248Y-3.222
X6.25Y-1.7906
X6.25Y-3.342
X6.252Y-2.2814
X6.256Y-2.758
X6.2567Y-4.4866
X6.2571Y-2.6587
X6.266Y-2.054
X6.272Y-3.588
X6.2729Y-1.815
X6.278Y-3.292
X6.28Y-4.882
X6.28Y-5.032
X6.284Y-1.76
X6.286Y-3.252
X6.2873Y-2.2932
X6.288Y-3.342
X6.29Y-3.166
X6.292Y-2.38
X6.296Y-1.652
X6.296Y-1.898
X6.296Y-1.956
X6.296Y-1.992
X6.296Y-4.347
X6.3012Y-3.4154
X6.312Y-1.584
X6.312Y-4.91
X6.312Y-5.002
X6.313Y-4.462
X6.316Y-1.496
X6.318Y-4.288
X6.318Y-4.318
X6.32Y-2.0386
X6.3209Y-2.3047
X6.321Y-1.707
X6.329Y-4.4813
X6.33Y-2.3808
X6.334Y-3.814
X6.34Y-2.5614
X6.343Y-4.462
X6.346Y-4.882
X6.346Y-5.032
X6.3482Y-3.4646
X6.3482Y-3.5138
X6.3554Y-2.634
X6.358Y-2.304
X6.36Y-2.432
X6.36Y-4.557
X6.36Y-4.765
X6.361Y-4.222
X6.364Y-2.338
X6.366Y-2.52
X6.368Y-3.868
X6.3734Y-2.5614
X6.374Y-2.664
X6.374Y-3.702
X6.376Y-2.228
X6.378Y-4.285
X6.38Y-1.916
X6.38Y-2.12
X6.38Y-3.918
X6.3819Y-3.4154
X6.382Y-1.71
X6.382Y-4.46
X6.384Y-3.962
X6.384Y-4.812
X6.388Y-1.978
X6.394Y-4.557
X6.394Y-4.765
X6.396Y-2.698
X6.402Y-5.144
X6.408Y-2.052
X6.408Y-5.068
X6.414Y-3.14
X6.416Y-2.232
X6.418Y-2.114
X6.418Y-3.276
X6.422Y-1.29
X6.422Y-1.364
X6.422Y-1.438
X6.424Y-4.371
X6.425Y-4.409
X6.426Y-1.708
X6.428Y-4.004
X6.428Y-4.04
X6.432Y-4.948
X6.436Y-3.588
X6.438Y-3.466
X6.438Y-3.514
X6.44Y-2.074
X6.442Y-3.342
X6.448Y-1.978
X6.4579Y-1.7981
X6.462Y-3.066
X6.464Y-4.004
X6.464Y-4.04
X6.4689Y-3.7252
X6.472Y-1.73
X6.472Y-2.558
X6.472Y-4.448
X6.472Y-4.483
X6.472Y-4.518
X6.472Y-4.636
X6.472Y-4.671
X6.472Y-4.706
X6.474Y-2.186
X6.474Y-4.12
X6.474Y-4.149
X6.475Y-4.263
X6.475Y-4.298
X6.475Y-4.333
X6.476Y-3.893
X6.477Y-4.202
X6.4774Y-3.925
X6.484Y-1.768
X6.488Y-3.342
X6.4898Y-1.9047
X6.4929Y-2.0783
X6.498Y-1.6214
X6.502Y-1.976
X6.507Y-4.339
X6.508Y-3.961
X6.512Y-2.328
X6.512Y-2.37
X6.512Y-2.458
X6.513Y-4.447
X6.514Y-2.14
X6.514Y-4.808
X6.516Y-1.6846
X6.5183Y-2.1732
X6.52Y-4.098
X6.52Y-4.564
X6.5205Y-3.8787
X6.524Y-5.008
X6.526Y-3.194
X6.526Y-3.238
X6.54Y-1.402
X6.54Y-2.246
X6.549Y-4.443
X6.552Y-1.69
X6.554Y-1.29
X6.554Y-4.596
X6.554Y-4.627
X6.556Y-2.884
X6.558Y-5.172
X6.56Y-2.328
X6.562Y-2.37
X6.562Y-2.458
X6.566Y-2.218
X6.568Y-4.866
X6.5832Y-3.317
X6.5832Y-3.3662
X6.5832Y-3.4154
X6.5832Y-3.4646
X6.5832Y-3.5138
X6.586Y-1.6214
X6.59Y-1.974
X6.606Y-2.458
X6.606Y-3.919
X6.608Y-2.554
X6.61Y-2.802
X6.612Y-1.484
X6.62Y-2.158
X6.62Y-3.128
X6.62Y-4.374
X6.6214Y-1.708
X6.622Y-2.226
X6.624Y-3.218
X6.624Y-3.266
X6.628Y-4.3217
X6.63Y-4.232
X6.632Y-1.906
X6.632Y-4.428
X6.64Y-4.088
X6.65Y-3.82
X6.65Y-3.932
X6.65Y-3.982
X6.65Y-4.866
X6.652Y-3.874
X6.658Y-3.644
X6.658Y-4.67
X6.658Y-4.714
X6.66Y-1.93
X6.662Y-4.026
X6.662Y-4.056
X6.666Y-2.45
X6.668Y-1.964
X6.668Y-2.804
X6.676Y-3.146
X6.6772Y-2.4815
X6.68Y-2.418
X6.684Y-1.778
X6.684Y-1.87
X6.684Y-2.062
X6.686Y-3.194
X6.69Y-3.734
X6.698Y-4.62
X6.706Y-2.876
X6.708Y-1.588
X6.7086Y-2.208
X6.71Y-1.692
X6.71Y-2.54
X6.71Y-2.7
X6.712Y-2.032
X6.716Y-4.542
X6.716Y-4.57
X6.724Y-4.4
X6.73Y-3.048
X6.732Y-2.566
X6.732Y-4.964
X6.74Y-3.734
X6.74Y-4.818
X6.742Y-3.682
X6.742Y-3.82
X6.742Y-3.874
X6.742Y-3.932
X6.742Y-3.982
X6.742Y-4.21
X6.742Y-4.368
X6.744Y-1.488
X6.744Y-1.722
X6.744Y-3.146
X6.744Y-4.672
X6.746Y-2.13
X6.746Y-4.268
X6.746Y-4.432
X6.746Y-4.54
X6.746Y-4.72
X6.748Y-1.914
X6.748Y-2.2819
X6.75Y-2.174
X6.75Y-2.3441
X6.75Y-2.524
T2
X6.4401Y-2.6949
X6.4401Y-2.7283
X6.4401Y-2.7618
X6.4401Y-2.7953
X6.4401Y-2.8287
X6.4401Y-2.8622
X6.4401Y-2.8957
X6.4401Y-2.9291
X6.4932Y-2.6949
X6.4932Y-2.7283
X6.4932Y-2.7618
X6.4932Y-2.7953
X6.4932Y-2.8287
X6.4932Y-2.8622
X6.4932Y-2.8957
X6.4932Y-2.9291
T3
X5.685Y-2.18
X5.685Y-2.23
X5.685Y-2.28
X5.685Y-2.33
X5.685Y-2.38
X5.685Y-2.43
T5
X5.7846Y-3.44
X6.125Y-2.7604
X6.125Y-3.0596
T6
X6.0079Y-3.9315
X6.0079Y-4.0315
X6.0079Y-4.1706
X6.0079Y-4.2706
X6.0079Y-4.4098
X6.0079Y-4.5098
X6.0079Y-4.6489
X6.0079Y-4.7489
X6.2Y-4.952
X6.3Y-4.952
T7
X6.696Y-3.852
X6.696Y-3.952
T8
X5.6535Y-1.3622
X5.6535Y-5.1024
X6.6772Y-1.3622
X6.6772Y-5.1024
T4
G00X6.4854Y-2.6417
M15
G01X6.4342Y-2.6417
M16
G05
G00X6.4854Y-2.9823
M15
G01X6.4342Y-2.9823
M16
G05
G00X6.6409Y-2.6417
M15
G01X6.6054Y-2.6417
M16
G05
G00X6.6389Y-2.9823
M15
G01X6.6074Y-2.9823
M16
G05
T0
M30
