%TF.GenerationSoftware,KiCad,Pcbnew,(6.0.1)*%
%TF.CreationDate,2022-06-27T00:16:49+02:00*%
%TF.ProjectId,kp-ptr,6b702d70-7472-42e6-9b69-6361645f7063,rev?*%
%TF.SameCoordinates,Original*%
%TF.FileFunction,Paste,Bot*%
%TF.FilePolarity,Positive*%
%FSLAX46Y46*%
G04 Gerber Fmt 4.6, Leading zero omitted, Abs format (unit mm)*
G04 Created by KiCad (PCBNEW (6.0.1)) date 2022-06-27 00:16:49*
%MOMM*%
%LPD*%
G01*
G04 APERTURE LIST*
G04 Aperture macros list*
%AMRoundRect*
0 Rectangle with rounded corners*
0 $1 Rounding radius*
0 $2 $3 $4 $5 $6 $7 $8 $9 X,Y pos of 4 corners*
0 Add a 4 corners polygon primitive as box body*
4,1,4,$2,$3,$4,$5,$6,$7,$8,$9,$2,$3,0*
0 Add four circle primitives for the rounded corners*
1,1,$1+$1,$2,$3*
1,1,$1+$1,$4,$5*
1,1,$1+$1,$6,$7*
1,1,$1+$1,$8,$9*
0 Add four rect primitives between the rounded corners*
20,1,$1+$1,$2,$3,$4,$5,0*
20,1,$1+$1,$4,$5,$6,$7,0*
20,1,$1+$1,$6,$7,$8,$9,0*
20,1,$1+$1,$8,$9,$2,$3,0*%
G04 Aperture macros list end*
%ADD10RoundRect,0.250000X1.000000X-1.750000X1.000000X1.750000X-1.000000X1.750000X-1.000000X-1.750000X0*%
%ADD11R,0.800000X2.000000*%
%ADD12RoundRect,0.150000X0.700000X-0.150000X0.700000X0.150000X-0.700000X0.150000X-0.700000X-0.150000X0*%
%ADD13RoundRect,0.250000X1.150000X-0.250000X1.150000X0.250000X-1.150000X0.250000X-1.150000X-0.250000X0*%
%ADD14RoundRect,0.135000X-0.135000X-0.185000X0.135000X-0.185000X0.135000X0.185000X-0.135000X0.185000X0*%
%ADD15R,0.736600X0.609600*%
%ADD16R,1.500000X5.080000*%
%ADD17RoundRect,0.218750X-0.256250X0.218750X-0.256250X-0.218750X0.256250X-0.218750X0.256250X0.218750X0*%
%ADD18RoundRect,0.218750X0.218750X0.256250X-0.218750X0.256250X-0.218750X-0.256250X0.218750X-0.256250X0*%
%ADD19RoundRect,0.218750X-0.218750X-0.256250X0.218750X-0.256250X0.218750X0.256250X-0.218750X0.256250X0*%
%ADD20RoundRect,0.147500X-0.147500X-0.172500X0.147500X-0.172500X0.147500X0.172500X-0.147500X0.172500X0*%
G04 APERTURE END LIST*
D10*
%TO.C,C34*%
X161696400Y-113968500D03*
X161696400Y-105968500D03*
%TD*%
D11*
%TO.C,IC1*%
X160434800Y-53278800D03*
X159164800Y-53278800D03*
X157894800Y-53278800D03*
X152324800Y-53278800D03*
X151054800Y-53278800D03*
X149784800Y-53278800D03*
X148514800Y-53278800D03*
X147244800Y-53278800D03*
X145974800Y-53278800D03*
X144704800Y-53278800D03*
X143434800Y-53278800D03*
X143434800Y-39278800D03*
X144704800Y-39278800D03*
X145974800Y-39278800D03*
X147244800Y-39278800D03*
X148514800Y-39278800D03*
X149784800Y-39278800D03*
X151054800Y-39278800D03*
X152324800Y-39278800D03*
X157894800Y-39278800D03*
X159164800Y-39278800D03*
X160434800Y-39278800D03*
%TD*%
D12*
%TO.C,J7*%
X167050000Y-93001000D03*
X167050000Y-91751000D03*
X167050000Y-90501000D03*
X167050000Y-89251000D03*
X167050000Y-88001000D03*
X167050000Y-86751000D03*
X167050000Y-85501000D03*
X167050000Y-84251000D03*
X167050000Y-83001000D03*
X167050000Y-81751000D03*
D13*
X170400000Y-79901000D03*
X170400000Y-94851000D03*
%TD*%
D14*
%TO.C,R14*%
X148080000Y-79756000D03*
X149100000Y-79756000D03*
%TD*%
D15*
%TO.C,D15*%
X170484800Y-41156001D03*
X170484800Y-42155999D03*
X168097200Y-42155999D03*
X168097200Y-41156001D03*
%TD*%
D16*
%TO.C,J5*%
X158877000Y-34594800D03*
X163127000Y-34594800D03*
X154627000Y-34594800D03*
%TD*%
D17*
%TO.C,D12*%
X149910800Y-33045300D03*
X149910800Y-34620300D03*
%TD*%
D12*
%TO.C,J8*%
X161150000Y-93001000D03*
X161150000Y-91751000D03*
X161150000Y-90501000D03*
X161150000Y-89251000D03*
X161150000Y-88001000D03*
X161150000Y-86751000D03*
D13*
X164500000Y-84901000D03*
X164500000Y-94851000D03*
%TD*%
D18*
%TO.C,D7*%
X171221500Y-105714800D03*
X169646500Y-105714800D03*
%TD*%
D17*
%TO.C,D8*%
X151688800Y-33045300D03*
X151688800Y-34620300D03*
%TD*%
D19*
%TO.C,D1*%
X145135500Y-79756000D03*
X146710500Y-79756000D03*
%TD*%
D12*
%TO.C,J6*%
X155450000Y-93001000D03*
X155450000Y-91751000D03*
X155450000Y-90501000D03*
X155450000Y-89251000D03*
X155450000Y-88001000D03*
X155450000Y-86751000D03*
D13*
X158800000Y-84901000D03*
X158800000Y-94851000D03*
%TD*%
D20*
%TO.C,D9*%
X157757000Y-37693600D03*
X158727000Y-37693600D03*
%TD*%
D15*
%TO.C,D13*%
X170484800Y-58555001D03*
X170484800Y-59554999D03*
X168097200Y-59554999D03*
X168097200Y-58555001D03*
%TD*%
%TO.C,D14*%
X170484800Y-49855501D03*
X170484800Y-50855499D03*
X168097200Y-50855499D03*
X168097200Y-49855501D03*
%TD*%
D18*
%TO.C,D5*%
X171221500Y-113842800D03*
X169646500Y-113842800D03*
%TD*%
%TO.C,D10*%
X170967500Y-78359000D03*
X169392500Y-78359000D03*
%TD*%
%TO.C,D6*%
X171221500Y-109778800D03*
X169646500Y-109778800D03*
%TD*%
M02*
