%TF.GenerationSoftware,KiCad,Pcbnew,(6.0.1)*%
%TF.CreationDate,2022-06-27T00:16:49+02:00*%
%TF.ProjectId,kp-ptr,6b702d70-7472-42e6-9b69-6361645f7063,rev?*%
%TF.SameCoordinates,Original*%
%TF.FileFunction,Soldermask,Bot*%
%TF.FilePolarity,Negative*%
%FSLAX46Y46*%
G04 Gerber Fmt 4.6, Leading zero omitted, Abs format (unit mm)*
G04 Created by KiCad (PCBNEW (6.0.1)) date 2022-06-27 00:16:49*
%MOMM*%
%LPD*%
G01*
G04 APERTURE LIST*
G04 Aperture macros list*
%AMRoundRect*
0 Rectangle with rounded corners*
0 $1 Rounding radius*
0 $2 $3 $4 $5 $6 $7 $8 $9 X,Y pos of 4 corners*
0 Add a 4 corners polygon primitive as box body*
4,1,4,$2,$3,$4,$5,$6,$7,$8,$9,$2,$3,0*
0 Add four circle primitives for the rounded corners*
1,1,$1+$1,$2,$3*
1,1,$1+$1,$4,$5*
1,1,$1+$1,$6,$7*
1,1,$1+$1,$8,$9*
0 Add four rect primitives between the rounded corners*
20,1,$1+$1,$2,$3,$4,$5,0*
20,1,$1+$1,$4,$5,$6,$7,0*
20,1,$1+$1,$6,$7,$8,$9,0*
20,1,$1+$1,$8,$9,$2,$3,0*%
G04 Aperture macros list end*
%ADD10C,2.850000*%
%ADD11R,1.000000X1.000000*%
%ADD12O,1.000000X1.000000*%
%ADD13RoundRect,0.250000X1.000000X-1.750000X1.000000X1.750000X-1.000000X1.750000X-1.000000X-1.750000X0*%
%ADD14O,2.000000X2.500000*%
%ADD15R,2.413000X4.572000*%
%ADD16R,0.800000X2.000000*%
%ADD17RoundRect,0.150000X0.700000X-0.150000X0.700000X0.150000X-0.700000X0.150000X-0.700000X-0.150000X0*%
%ADD18RoundRect,0.250000X1.150000X-0.250000X1.150000X0.250000X-1.150000X0.250000X-1.150000X-0.250000X0*%
%ADD19RoundRect,0.135000X-0.135000X-0.185000X0.135000X-0.185000X0.135000X0.185000X-0.135000X0.185000X0*%
%ADD20C,0.700000*%
%ADD21O,3.200000X1.300000*%
%ADD22O,2.500000X1.300000*%
%ADD23RoundRect,1.050000X0.450000X0.000000X0.450000X0.000000X-0.450000X0.000000X-0.450000X0.000000X0*%
%ADD24R,0.736600X0.609600*%
%ADD25R,1.500000X5.080000*%
%ADD26C,2.000000*%
%ADD27RoundRect,0.218750X-0.256250X0.218750X-0.256250X-0.218750X0.256250X-0.218750X0.256250X0.218750X0*%
%ADD28RoundRect,0.218750X0.218750X0.256250X-0.218750X0.256250X-0.218750X-0.256250X0.218750X-0.256250X0*%
%ADD29RoundRect,0.218750X-0.218750X-0.256250X0.218750X-0.256250X0.218750X0.256250X-0.218750X0.256250X0*%
%ADD30R,2.000000X2.000000*%
%ADD31R,3.000000X2.100000*%
%ADD32RoundRect,0.147500X-0.147500X-0.172500X0.147500X-0.172500X0.147500X0.172500X-0.147500X0.172500X0*%
%ADD33R,3.302000X2.286000*%
%ADD34R,3.302000X2.447000*%
G04 APERTURE END LIST*
D10*
X171025000Y-129600000D02*
G75*
G03*
X171025000Y-129600000I-1425000J0D01*
G01*
X171025000Y-34600000D02*
G75*
G03*
X171025000Y-34600000I-1425000J0D01*
G01*
X145025000Y-129600000D02*
G75*
G03*
X145025000Y-129600000I-1425000J0D01*
G01*
X145025000Y-34600000D02*
G75*
G03*
X145025000Y-34600000I-1425000J0D01*
G01*
D11*
%TO.C,J1*%
X144399000Y-55372000D03*
D12*
X144399000Y-56642000D03*
X144399000Y-57912000D03*
X144399000Y-59182000D03*
X144399000Y-60452000D03*
X144399000Y-61722000D03*
%TD*%
D13*
%TO.C,C34*%
X161696400Y-113968500D03*
X161696400Y-105968500D03*
%TD*%
D14*
%TO.C,J2*%
X165100000Y-130280800D03*
X157480000Y-130280800D03*
X152400000Y-130280800D03*
X160020000Y-130280800D03*
D15*
X160337500Y-125907800D03*
X157162500Y-125907800D03*
%TD*%
D16*
%TO.C,IC1*%
X160434800Y-53278800D03*
X159164800Y-53278800D03*
X157894800Y-53278800D03*
X152324800Y-53278800D03*
X151054800Y-53278800D03*
X149784800Y-53278800D03*
X148514800Y-53278800D03*
X147244800Y-53278800D03*
X145974800Y-53278800D03*
X144704800Y-53278800D03*
X143434800Y-53278800D03*
X143434800Y-39278800D03*
X144704800Y-39278800D03*
X145974800Y-39278800D03*
X147244800Y-39278800D03*
X148514800Y-39278800D03*
X149784800Y-39278800D03*
X151054800Y-39278800D03*
X152324800Y-39278800D03*
X157894800Y-39278800D03*
X159164800Y-39278800D03*
X160434800Y-39278800D03*
%TD*%
D17*
%TO.C,J7*%
X167050000Y-93001000D03*
X167050000Y-91751000D03*
X167050000Y-90501000D03*
X167050000Y-89251000D03*
X167050000Y-88001000D03*
X167050000Y-86751000D03*
X167050000Y-85501000D03*
X167050000Y-84251000D03*
X167050000Y-83001000D03*
X167050000Y-81751000D03*
D18*
X170400000Y-79901000D03*
X170400000Y-94851000D03*
%TD*%
D19*
%TO.C,R14*%
X148080000Y-79756000D03*
X149100000Y-79756000D03*
%TD*%
D20*
%TO.C,J4*%
X163578000Y-68449800D03*
X163578000Y-69299800D03*
X163578000Y-70149800D03*
X163578000Y-70999800D03*
X163578000Y-71849800D03*
X163578000Y-72699800D03*
X163578000Y-73549800D03*
X163578000Y-74399800D03*
X164928000Y-74399800D03*
X164928000Y-73549800D03*
X164928000Y-72699800D03*
X164928000Y-71849800D03*
X164928000Y-70999800D03*
X164928000Y-70149800D03*
X164928000Y-69299800D03*
X164928000Y-68449800D03*
D21*
X164078000Y-75749800D03*
D22*
X168378000Y-75749800D03*
X168378000Y-67099800D03*
D21*
X164078000Y-67099800D03*
%TD*%
D23*
%TO.C,J10*%
X152600000Y-108474333D03*
X152600000Y-105934333D03*
%TD*%
D24*
%TO.C,D15*%
X170484800Y-41156001D03*
X170484800Y-42155999D03*
X168097200Y-42155999D03*
X168097200Y-41156001D03*
%TD*%
D25*
%TO.C,J5*%
X158877000Y-34594800D03*
X163127000Y-34594800D03*
X154627000Y-34594800D03*
%TD*%
D26*
%TO.C,ANT2*%
X146928000Y-87376000D03*
%TD*%
D27*
%TO.C,D12*%
X149910800Y-33045300D03*
X149910800Y-34620300D03*
%TD*%
D17*
%TO.C,J8*%
X161150000Y-93001000D03*
X161150000Y-91751000D03*
X161150000Y-90501000D03*
X161150000Y-89251000D03*
X161150000Y-88001000D03*
X161150000Y-86751000D03*
D18*
X164500000Y-84901000D03*
X164500000Y-94851000D03*
%TD*%
D23*
%TO.C,J12*%
X152600000Y-114547666D03*
X152600000Y-112007666D03*
%TD*%
D28*
%TO.C,D7*%
X171221500Y-105714800D03*
X169646500Y-105714800D03*
%TD*%
D27*
%TO.C,D8*%
X151688800Y-33045300D03*
X151688800Y-34620300D03*
%TD*%
D29*
%TO.C,D1*%
X145135500Y-79756000D03*
X146710500Y-79756000D03*
%TD*%
D30*
%TO.C,LS1*%
X155575000Y-70114000D03*
D26*
X155575000Y-77714000D03*
%TD*%
D17*
%TO.C,J6*%
X155450000Y-93001000D03*
X155450000Y-91751000D03*
X155450000Y-90501000D03*
X155450000Y-89251000D03*
X155450000Y-88001000D03*
X155450000Y-86751000D03*
D18*
X158800000Y-84901000D03*
X158800000Y-94851000D03*
%TD*%
D23*
%TO.C,J13*%
X152600000Y-102401000D03*
X152600000Y-99861000D03*
%TD*%
D31*
%TO.C,J3*%
X159562800Y-118059200D03*
X159562800Y-120599200D03*
%TD*%
D32*
%TO.C,D9*%
X157757000Y-37693600D03*
X158727000Y-37693600D03*
%TD*%
D24*
%TO.C,D13*%
X170484800Y-58555001D03*
X170484800Y-59554999D03*
X168097200Y-59554999D03*
X168097200Y-58555001D03*
%TD*%
D23*
%TO.C,J11*%
X152600000Y-120620999D03*
X152600000Y-118080999D03*
%TD*%
D33*
%TO.C,J9*%
X170078400Y-100507800D03*
D34*
X170078400Y-97667300D03*
%TD*%
D24*
%TO.C,D14*%
X170484800Y-49855501D03*
X170484800Y-50855499D03*
X168097200Y-50855499D03*
X168097200Y-49855501D03*
%TD*%
D28*
%TO.C,D5*%
X171221500Y-113842800D03*
X169646500Y-113842800D03*
%TD*%
%TO.C,D10*%
X170967500Y-78359000D03*
X169392500Y-78359000D03*
%TD*%
%TO.C,D6*%
X171221500Y-109778800D03*
X169646500Y-109778800D03*
%TD*%
M02*
