%TF.GenerationSoftware,KiCad,Pcbnew,(6.0.1)*%
%TF.CreationDate,2022-06-27T00:16:49+02:00*%
%TF.ProjectId,kp-ptr,6b702d70-7472-42e6-9b69-6361645f7063,rev?*%
%TF.SameCoordinates,Original*%
%TF.FileFunction,Paste,Top*%
%TF.FilePolarity,Positive*%
%FSLAX46Y46*%
G04 Gerber Fmt 4.6, Leading zero omitted, Abs format (unit mm)*
G04 Created by KiCad (PCBNEW (6.0.1)) date 2022-06-27 00:16:49*
%MOMM*%
%LPD*%
G01*
G04 APERTURE LIST*
G04 Aperture macros list*
%AMRoundRect*
0 Rectangle with rounded corners*
0 $1 Rounding radius*
0 $2 $3 $4 $5 $6 $7 $8 $9 X,Y pos of 4 corners*
0 Add a 4 corners polygon primitive as box body*
4,1,4,$2,$3,$4,$5,$6,$7,$8,$9,$2,$3,0*
0 Add four circle primitives for the rounded corners*
1,1,$1+$1,$2,$3*
1,1,$1+$1,$4,$5*
1,1,$1+$1,$6,$7*
1,1,$1+$1,$8,$9*
0 Add four rect primitives between the rounded corners*
20,1,$1+$1,$2,$3,$4,$5,0*
20,1,$1+$1,$4,$5,$6,$7,0*
20,1,$1+$1,$6,$7,$8,$9,0*
20,1,$1+$1,$8,$9,$2,$3,0*%
%AMRotRect*
0 Rectangle, with rotation*
0 The origin of the aperture is its center*
0 $1 length*
0 $2 width*
0 $3 Rotation angle, in degrees counterclockwise*
0 Add horizontal line*
21,1,$1,$2,0,0,$3*%
G04 Aperture macros list end*
%ADD10C,0.010000*%
%ADD11C,0.000100*%
%ADD12R,0.304800X0.609600*%
%ADD13R,1.701800X1.092200*%
%ADD14R,0.350000X0.500000*%
%ADD15R,0.600000X1.000000*%
%ADD16RoundRect,0.031500X-0.143500X0.428000X-0.143500X-0.428000X0.143500X-0.428000X0.143500X0.428000X0*%
%ADD17RoundRect,0.031500X0.430000X0.143500X-0.430000X0.143500X-0.430000X-0.143500X0.430000X-0.143500X0*%
%ADD18RoundRect,0.031500X0.143500X-0.428000X0.143500X0.428000X-0.143500X0.428000X-0.143500X-0.428000X0*%
%ADD19RoundRect,0.031500X-0.430000X-0.143500X0.430000X-0.143500X0.430000X0.143500X-0.430000X0.143500X0*%
%ADD20RoundRect,0.150000X-0.512500X-0.150000X0.512500X-0.150000X0.512500X0.150000X-0.512500X0.150000X0*%
%ADD21RoundRect,0.006600X-0.208597X-0.354826X0.354826X0.208597X0.208597X0.354826X-0.354826X-0.208597X0*%
%ADD22RoundRect,0.022000X0.208597X-0.333047X0.333047X-0.208597X-0.208597X0.333047X-0.333047X0.208597X0*%
%ADD23RoundRect,0.147500X0.147500X0.172500X-0.147500X0.172500X-0.147500X-0.172500X0.147500X-0.172500X0*%
%ADD24RoundRect,0.135000X-0.135000X-0.185000X0.135000X-0.185000X0.135000X0.185000X-0.135000X0.185000X0*%
%ADD25RoundRect,0.135000X0.135000X0.185000X-0.135000X0.185000X-0.135000X-0.185000X0.135000X-0.185000X0*%
%ADD26RoundRect,0.135000X-0.185000X0.135000X-0.185000X-0.135000X0.185000X-0.135000X0.185000X0.135000X0*%
%ADD27RoundRect,0.135000X0.185000X-0.135000X0.185000X0.135000X-0.185000X0.135000X-0.185000X-0.135000X0*%
%ADD28RoundRect,0.140000X0.140000X0.170000X-0.140000X0.170000X-0.140000X-0.170000X0.140000X-0.170000X0*%
%ADD29RoundRect,0.243750X0.243750X0.456250X-0.243750X0.456250X-0.243750X-0.456250X0.243750X-0.456250X0*%
%ADD30RoundRect,0.040600X-0.569400X-0.249400X0.569400X-0.249400X0.569400X0.249400X-0.569400X0.249400X0*%
%ADD31R,1.150000X1.400000*%
%ADD32RoundRect,0.147500X-0.172500X0.147500X-0.172500X-0.147500X0.172500X-0.147500X0.172500X0.147500X0*%
%ADD33RoundRect,0.140000X-0.170000X0.140000X-0.170000X-0.140000X0.170000X-0.140000X0.170000X0.140000X0*%
%ADD34RoundRect,0.140000X0.170000X-0.140000X0.170000X0.140000X-0.170000X0.140000X-0.170000X-0.140000X0*%
%ADD35R,0.250000X0.728000*%
%ADD36R,0.728000X0.250000*%
%ADD37R,0.728000X0.252000*%
%ADD38R,0.728000X0.260000*%
%ADD39R,0.252000X0.728000*%
%ADD40RoundRect,0.243750X0.456250X-0.243750X0.456250X0.243750X-0.456250X0.243750X-0.456250X-0.243750X0*%
%ADD41RoundRect,0.140000X-0.140000X-0.170000X0.140000X-0.170000X0.140000X0.170000X-0.140000X0.170000X0*%
%ADD42RoundRect,0.140000X-0.219203X-0.021213X-0.021213X-0.219203X0.219203X0.021213X0.021213X0.219203X0*%
%ADD43RoundRect,0.008100X0.386900X0.126900X-0.386900X0.126900X-0.386900X-0.126900X0.386900X-0.126900X0*%
%ADD44RoundRect,0.026400X-0.493600X-0.193600X0.493600X-0.193600X0.493600X0.193600X-0.493600X0.193600X0*%
%ADD45RoundRect,0.147500X-0.147500X-0.172500X0.147500X-0.172500X0.147500X0.172500X-0.147500X0.172500X0*%
%ADD46RoundRect,0.200000X-0.600000X0.200000X-0.600000X-0.200000X0.600000X-0.200000X0.600000X0.200000X0*%
%ADD47R,0.900000X1.200000*%
%ADD48RoundRect,0.140000X0.021213X-0.219203X0.219203X-0.021213X-0.021213X0.219203X-0.219203X0.021213X0*%
%ADD49RoundRect,0.200000X-0.200000X-0.275000X0.200000X-0.275000X0.200000X0.275000X-0.200000X0.275000X0*%
%ADD50RoundRect,0.250000X0.625000X-0.312500X0.625000X0.312500X-0.625000X0.312500X-0.625000X-0.312500X0*%
%ADD51R,0.300000X0.855000*%
%ADD52R,0.855000X0.300000*%
%ADD53RoundRect,0.135000X0.226274X0.035355X0.035355X0.226274X-0.226274X-0.035355X-0.035355X-0.226274X0*%
%ADD54RoundRect,0.021200X0.633800X0.243800X-0.633800X0.243800X-0.633800X-0.243800X0.633800X-0.243800X0*%
%ADD55RoundRect,0.147500X0.017678X-0.226274X0.226274X-0.017678X-0.017678X0.226274X-0.226274X0.017678X0*%
%ADD56RotRect,0.900000X1.200000X135.000000*%
%ADD57R,0.850800X1.761200*%
%ADD58R,3.150799X1.761200*%
%ADD59RoundRect,0.140000X0.219203X0.021213X0.021213X0.219203X-0.219203X-0.021213X-0.021213X-0.219203X0*%
%ADD60RoundRect,0.150000X-0.150000X0.587500X-0.150000X-0.587500X0.150000X-0.587500X0.150000X0.587500X0*%
%ADD61R,1.500000X5.080000*%
G04 APERTURE END LIST*
D10*
%TO.C,U1*%
X154295974Y-63855508D02*
X155194000Y-62957482D01*
X155194000Y-62957482D02*
X156092026Y-63855508D01*
X156092026Y-63855508D02*
X155194000Y-64753534D01*
X155194000Y-64753534D02*
X154295974Y-63855508D01*
G36*
X156092026Y-63855508D02*
G01*
X155194000Y-64753534D01*
X154295974Y-63855508D01*
X155194000Y-62957482D01*
X156092026Y-63855508D01*
G37*
X156092026Y-63855508D02*
X155194000Y-64753534D01*
X154295974Y-63855508D01*
X155194000Y-62957482D01*
X156092026Y-63855508D01*
X153051466Y-62611000D02*
X153949492Y-61712974D01*
X153949492Y-61712974D02*
X154847518Y-62611000D01*
X154847518Y-62611000D02*
X153949492Y-63509026D01*
X153949492Y-63509026D02*
X153051466Y-62611000D01*
G36*
X154847518Y-62611000D02*
G01*
X153949492Y-63509026D01*
X153051466Y-62611000D01*
X153949492Y-61712974D01*
X154847518Y-62611000D01*
G37*
X154847518Y-62611000D02*
X153949492Y-63509026D01*
X153051466Y-62611000D01*
X153949492Y-61712974D01*
X154847518Y-62611000D01*
X154295974Y-61366492D02*
X155194000Y-60468466D01*
X155194000Y-60468466D02*
X156092026Y-61366492D01*
X156092026Y-61366492D02*
X155194000Y-62264518D01*
X155194000Y-62264518D02*
X154295974Y-61366492D01*
G36*
X156092026Y-61366492D02*
G01*
X155194000Y-62264518D01*
X154295974Y-61366492D01*
X155194000Y-60468466D01*
X156092026Y-61366492D01*
G37*
X156092026Y-61366492D02*
X155194000Y-62264518D01*
X154295974Y-61366492D01*
X155194000Y-60468466D01*
X156092026Y-61366492D01*
X155540482Y-62611000D02*
X156438508Y-61712974D01*
X156438508Y-61712974D02*
X157336534Y-62611000D01*
X157336534Y-62611000D02*
X156438508Y-63509026D01*
X156438508Y-63509026D02*
X155540482Y-62611000D01*
G36*
X157336534Y-62611000D02*
G01*
X156438508Y-63509026D01*
X155540482Y-62611000D01*
X156438508Y-61712974D01*
X157336534Y-62611000D01*
G37*
X157336534Y-62611000D02*
X156438508Y-63509026D01*
X155540482Y-62611000D01*
X156438508Y-61712974D01*
X157336534Y-62611000D01*
%TO.C,U6*%
X146059000Y-91856000D02*
X145279000Y-91856000D01*
X145279000Y-91856000D02*
X145279000Y-90516000D01*
X145279000Y-90516000D02*
X146059000Y-90516000D01*
X146059000Y-90516000D02*
X146059000Y-91856000D01*
G36*
X146059000Y-91856000D02*
G01*
X145279000Y-91856000D01*
X145279000Y-90516000D01*
X146059000Y-90516000D01*
X146059000Y-91856000D01*
G37*
X146059000Y-91856000D02*
X145279000Y-91856000D01*
X145279000Y-90516000D01*
X146059000Y-90516000D01*
X146059000Y-91856000D01*
%TO.C,U11*%
X165442400Y-59231000D02*
X167602400Y-59231000D01*
X167602400Y-59231000D02*
X167602400Y-61951000D01*
X167602400Y-61951000D02*
X165442400Y-61951000D01*
X165442400Y-61951000D02*
X165442400Y-59231000D01*
G36*
X167602400Y-61951000D02*
G01*
X165442400Y-61951000D01*
X165442400Y-59231000D01*
X167602400Y-59231000D01*
X167602400Y-61951000D01*
G37*
X167602400Y-61951000D02*
X165442400Y-61951000D01*
X165442400Y-59231000D01*
X167602400Y-59231000D01*
X167602400Y-61951000D01*
D11*
%TO.C,U5*%
X150766000Y-84983000D02*
X150766000Y-85633000D01*
X150766000Y-85633000D02*
X150764000Y-85675000D01*
X150764000Y-85675000D02*
X150757000Y-85716000D01*
X150757000Y-85716000D02*
X150746000Y-85757000D01*
X150746000Y-85757000D02*
X150731000Y-85796000D01*
X150731000Y-85796000D02*
X150712000Y-85833000D01*
X150712000Y-85833000D02*
X150690000Y-85868000D01*
X150690000Y-85868000D02*
X150663000Y-85901000D01*
X150663000Y-85901000D02*
X150634000Y-85930000D01*
X150634000Y-85930000D02*
X150601000Y-85957000D01*
X150601000Y-85957000D02*
X150566000Y-85979000D01*
X150566000Y-85979000D02*
X150529000Y-85998000D01*
X150529000Y-85998000D02*
X150490000Y-86013000D01*
X150490000Y-86013000D02*
X150449000Y-86024000D01*
X150449000Y-86024000D02*
X150408000Y-86031000D01*
X150408000Y-86031000D02*
X150366000Y-86033000D01*
X150366000Y-86033000D02*
X150324000Y-86031000D01*
X150324000Y-86031000D02*
X150283000Y-86024000D01*
X150283000Y-86024000D02*
X150242000Y-86013000D01*
X150242000Y-86013000D02*
X150203000Y-85998000D01*
X150203000Y-85998000D02*
X150166000Y-85979000D01*
X150166000Y-85979000D02*
X150131000Y-85957000D01*
X150131000Y-85957000D02*
X150098000Y-85930000D01*
X150098000Y-85930000D02*
X150069000Y-85901000D01*
X150069000Y-85901000D02*
X150042000Y-85868000D01*
X150042000Y-85868000D02*
X150020000Y-85833000D01*
X150020000Y-85833000D02*
X150001000Y-85796000D01*
X150001000Y-85796000D02*
X149986000Y-85757000D01*
X149986000Y-85757000D02*
X149975000Y-85716000D01*
X149975000Y-85716000D02*
X149968000Y-85675000D01*
X149968000Y-85675000D02*
X149966000Y-85633000D01*
X149966000Y-85633000D02*
X149966000Y-84333000D01*
X149966000Y-84333000D02*
X149968000Y-84291000D01*
X149968000Y-84291000D02*
X149975000Y-84250000D01*
X149975000Y-84250000D02*
X149986000Y-84209000D01*
X149986000Y-84209000D02*
X150001000Y-84170000D01*
X150001000Y-84170000D02*
X150020000Y-84133000D01*
X150020000Y-84133000D02*
X150042000Y-84098000D01*
X150042000Y-84098000D02*
X150069000Y-84065000D01*
X150069000Y-84065000D02*
X150098000Y-84036000D01*
X150098000Y-84036000D02*
X150131000Y-84009000D01*
X150131000Y-84009000D02*
X150166000Y-83987000D01*
X150166000Y-83987000D02*
X150203000Y-83968000D01*
X150203000Y-83968000D02*
X150242000Y-83953000D01*
X150242000Y-83953000D02*
X150283000Y-83942000D01*
X150283000Y-83942000D02*
X150324000Y-83935000D01*
X150324000Y-83935000D02*
X150366000Y-83933000D01*
X150366000Y-83933000D02*
X150408000Y-83935000D01*
X150408000Y-83935000D02*
X150449000Y-83942000D01*
X150449000Y-83942000D02*
X150490000Y-83953000D01*
X150490000Y-83953000D02*
X150529000Y-83968000D01*
X150529000Y-83968000D02*
X150566000Y-83987000D01*
X150566000Y-83987000D02*
X150601000Y-84009000D01*
X150601000Y-84009000D02*
X150634000Y-84036000D01*
X150634000Y-84036000D02*
X150663000Y-84065000D01*
X150663000Y-84065000D02*
X150690000Y-84098000D01*
X150690000Y-84098000D02*
X150712000Y-84133000D01*
X150712000Y-84133000D02*
X150731000Y-84170000D01*
X150731000Y-84170000D02*
X150746000Y-84209000D01*
X150746000Y-84209000D02*
X150757000Y-84250000D01*
X150757000Y-84250000D02*
X150764000Y-84291000D01*
X150764000Y-84291000D02*
X150766000Y-84333000D01*
X150766000Y-84333000D02*
X150766000Y-84983000D01*
X150766000Y-84983000D02*
X150766000Y-84983000D01*
G36*
X150408000Y-83935000D02*
G01*
X150449000Y-83942000D01*
X150490000Y-83953000D01*
X150529000Y-83968000D01*
X150566000Y-83987000D01*
X150601000Y-84009000D01*
X150634000Y-84036000D01*
X150663000Y-84065000D01*
X150690000Y-84098000D01*
X150712000Y-84133000D01*
X150731000Y-84170000D01*
X150746000Y-84209000D01*
X150757000Y-84250000D01*
X150764000Y-84291000D01*
X150766000Y-84333000D01*
X150766000Y-85633000D01*
X150764000Y-85675000D01*
X150757000Y-85716000D01*
X150746000Y-85757000D01*
X150731000Y-85796000D01*
X150712000Y-85833000D01*
X150690000Y-85868000D01*
X150663000Y-85901000D01*
X150634000Y-85930000D01*
X150601000Y-85957000D01*
X150566000Y-85979000D01*
X150529000Y-85998000D01*
X150490000Y-86013000D01*
X150449000Y-86024000D01*
X150408000Y-86031000D01*
X150366000Y-86033000D01*
X150324000Y-86031000D01*
X150283000Y-86024000D01*
X150242000Y-86013000D01*
X150203000Y-85998000D01*
X150166000Y-85979000D01*
X150131000Y-85957000D01*
X150098000Y-85930000D01*
X150069000Y-85901000D01*
X150042000Y-85868000D01*
X150020000Y-85833000D01*
X150001000Y-85796000D01*
X149986000Y-85757000D01*
X149975000Y-85716000D01*
X149968000Y-85675000D01*
X149966000Y-85633000D01*
X149966000Y-84333000D01*
X149968000Y-84291000D01*
X149975000Y-84250000D01*
X149986000Y-84209000D01*
X150001000Y-84170000D01*
X150020000Y-84133000D01*
X150042000Y-84098000D01*
X150069000Y-84065000D01*
X150098000Y-84036000D01*
X150131000Y-84009000D01*
X150166000Y-83987000D01*
X150203000Y-83968000D01*
X150242000Y-83953000D01*
X150283000Y-83942000D01*
X150324000Y-83935000D01*
X150366000Y-83933000D01*
X150408000Y-83935000D01*
G37*
X150408000Y-83935000D02*
X150449000Y-83942000D01*
X150490000Y-83953000D01*
X150529000Y-83968000D01*
X150566000Y-83987000D01*
X150601000Y-84009000D01*
X150634000Y-84036000D01*
X150663000Y-84065000D01*
X150690000Y-84098000D01*
X150712000Y-84133000D01*
X150731000Y-84170000D01*
X150746000Y-84209000D01*
X150757000Y-84250000D01*
X150764000Y-84291000D01*
X150766000Y-84333000D01*
X150766000Y-85633000D01*
X150764000Y-85675000D01*
X150757000Y-85716000D01*
X150746000Y-85757000D01*
X150731000Y-85796000D01*
X150712000Y-85833000D01*
X150690000Y-85868000D01*
X150663000Y-85901000D01*
X150634000Y-85930000D01*
X150601000Y-85957000D01*
X150566000Y-85979000D01*
X150529000Y-85998000D01*
X150490000Y-86013000D01*
X150449000Y-86024000D01*
X150408000Y-86031000D01*
X150366000Y-86033000D01*
X150324000Y-86031000D01*
X150283000Y-86024000D01*
X150242000Y-86013000D01*
X150203000Y-85998000D01*
X150166000Y-85979000D01*
X150131000Y-85957000D01*
X150098000Y-85930000D01*
X150069000Y-85901000D01*
X150042000Y-85868000D01*
X150020000Y-85833000D01*
X150001000Y-85796000D01*
X149986000Y-85757000D01*
X149975000Y-85716000D01*
X149968000Y-85675000D01*
X149966000Y-85633000D01*
X149966000Y-84333000D01*
X149968000Y-84291000D01*
X149975000Y-84250000D01*
X149986000Y-84209000D01*
X150001000Y-84170000D01*
X150020000Y-84133000D01*
X150042000Y-84098000D01*
X150069000Y-84065000D01*
X150098000Y-84036000D01*
X150131000Y-84009000D01*
X150166000Y-83987000D01*
X150203000Y-83968000D01*
X150242000Y-83953000D01*
X150283000Y-83942000D01*
X150324000Y-83935000D01*
X150366000Y-83933000D01*
X150408000Y-83935000D01*
X150766000Y-74783000D02*
X150766000Y-75433000D01*
X150766000Y-75433000D02*
X150764000Y-75475000D01*
X150764000Y-75475000D02*
X150757000Y-75516000D01*
X150757000Y-75516000D02*
X150746000Y-75557000D01*
X150746000Y-75557000D02*
X150731000Y-75596000D01*
X150731000Y-75596000D02*
X150712000Y-75633000D01*
X150712000Y-75633000D02*
X150690000Y-75668000D01*
X150690000Y-75668000D02*
X150663000Y-75701000D01*
X150663000Y-75701000D02*
X150634000Y-75730000D01*
X150634000Y-75730000D02*
X150601000Y-75757000D01*
X150601000Y-75757000D02*
X150566000Y-75779000D01*
X150566000Y-75779000D02*
X150529000Y-75798000D01*
X150529000Y-75798000D02*
X150490000Y-75813000D01*
X150490000Y-75813000D02*
X150449000Y-75824000D01*
X150449000Y-75824000D02*
X150408000Y-75831000D01*
X150408000Y-75831000D02*
X150366000Y-75833000D01*
X150366000Y-75833000D02*
X150324000Y-75831000D01*
X150324000Y-75831000D02*
X150283000Y-75824000D01*
X150283000Y-75824000D02*
X150242000Y-75813000D01*
X150242000Y-75813000D02*
X150203000Y-75798000D01*
X150203000Y-75798000D02*
X150166000Y-75779000D01*
X150166000Y-75779000D02*
X150131000Y-75757000D01*
X150131000Y-75757000D02*
X150098000Y-75730000D01*
X150098000Y-75730000D02*
X150069000Y-75701000D01*
X150069000Y-75701000D02*
X150042000Y-75668000D01*
X150042000Y-75668000D02*
X150020000Y-75633000D01*
X150020000Y-75633000D02*
X150001000Y-75596000D01*
X150001000Y-75596000D02*
X149986000Y-75557000D01*
X149986000Y-75557000D02*
X149975000Y-75516000D01*
X149975000Y-75516000D02*
X149968000Y-75475000D01*
X149968000Y-75475000D02*
X149966000Y-75433000D01*
X149966000Y-75433000D02*
X149966000Y-74133000D01*
X149966000Y-74133000D02*
X149968000Y-74091000D01*
X149968000Y-74091000D02*
X149975000Y-74050000D01*
X149975000Y-74050000D02*
X149986000Y-74009000D01*
X149986000Y-74009000D02*
X150001000Y-73970000D01*
X150001000Y-73970000D02*
X150020000Y-73933000D01*
X150020000Y-73933000D02*
X150042000Y-73898000D01*
X150042000Y-73898000D02*
X150069000Y-73865000D01*
X150069000Y-73865000D02*
X150098000Y-73836000D01*
X150098000Y-73836000D02*
X150131000Y-73809000D01*
X150131000Y-73809000D02*
X150166000Y-73787000D01*
X150166000Y-73787000D02*
X150203000Y-73768000D01*
X150203000Y-73768000D02*
X150242000Y-73753000D01*
X150242000Y-73753000D02*
X150283000Y-73742000D01*
X150283000Y-73742000D02*
X150324000Y-73735000D01*
X150324000Y-73735000D02*
X150366000Y-73733000D01*
X150366000Y-73733000D02*
X150408000Y-73735000D01*
X150408000Y-73735000D02*
X150449000Y-73742000D01*
X150449000Y-73742000D02*
X150490000Y-73753000D01*
X150490000Y-73753000D02*
X150529000Y-73768000D01*
X150529000Y-73768000D02*
X150566000Y-73787000D01*
X150566000Y-73787000D02*
X150601000Y-73809000D01*
X150601000Y-73809000D02*
X150634000Y-73836000D01*
X150634000Y-73836000D02*
X150663000Y-73865000D01*
X150663000Y-73865000D02*
X150690000Y-73898000D01*
X150690000Y-73898000D02*
X150712000Y-73933000D01*
X150712000Y-73933000D02*
X150731000Y-73970000D01*
X150731000Y-73970000D02*
X150746000Y-74009000D01*
X150746000Y-74009000D02*
X150757000Y-74050000D01*
X150757000Y-74050000D02*
X150764000Y-74091000D01*
X150764000Y-74091000D02*
X150766000Y-74133000D01*
X150766000Y-74133000D02*
X150766000Y-74783000D01*
X150766000Y-74783000D02*
X150766000Y-74783000D01*
G36*
X150408000Y-73735000D02*
G01*
X150449000Y-73742000D01*
X150490000Y-73753000D01*
X150529000Y-73768000D01*
X150566000Y-73787000D01*
X150601000Y-73809000D01*
X150634000Y-73836000D01*
X150663000Y-73865000D01*
X150690000Y-73898000D01*
X150712000Y-73933000D01*
X150731000Y-73970000D01*
X150746000Y-74009000D01*
X150757000Y-74050000D01*
X150764000Y-74091000D01*
X150766000Y-74133000D01*
X150766000Y-75433000D01*
X150764000Y-75475000D01*
X150757000Y-75516000D01*
X150746000Y-75557000D01*
X150731000Y-75596000D01*
X150712000Y-75633000D01*
X150690000Y-75668000D01*
X150663000Y-75701000D01*
X150634000Y-75730000D01*
X150601000Y-75757000D01*
X150566000Y-75779000D01*
X150529000Y-75798000D01*
X150490000Y-75813000D01*
X150449000Y-75824000D01*
X150408000Y-75831000D01*
X150366000Y-75833000D01*
X150324000Y-75831000D01*
X150283000Y-75824000D01*
X150242000Y-75813000D01*
X150203000Y-75798000D01*
X150166000Y-75779000D01*
X150131000Y-75757000D01*
X150098000Y-75730000D01*
X150069000Y-75701000D01*
X150042000Y-75668000D01*
X150020000Y-75633000D01*
X150001000Y-75596000D01*
X149986000Y-75557000D01*
X149975000Y-75516000D01*
X149968000Y-75475000D01*
X149966000Y-75433000D01*
X149966000Y-74133000D01*
X149968000Y-74091000D01*
X149975000Y-74050000D01*
X149986000Y-74009000D01*
X150001000Y-73970000D01*
X150020000Y-73933000D01*
X150042000Y-73898000D01*
X150069000Y-73865000D01*
X150098000Y-73836000D01*
X150131000Y-73809000D01*
X150166000Y-73787000D01*
X150203000Y-73768000D01*
X150242000Y-73753000D01*
X150283000Y-73742000D01*
X150324000Y-73735000D01*
X150366000Y-73733000D01*
X150408000Y-73735000D01*
G37*
X150408000Y-73735000D02*
X150449000Y-73742000D01*
X150490000Y-73753000D01*
X150529000Y-73768000D01*
X150566000Y-73787000D01*
X150601000Y-73809000D01*
X150634000Y-73836000D01*
X150663000Y-73865000D01*
X150690000Y-73898000D01*
X150712000Y-73933000D01*
X150731000Y-73970000D01*
X150746000Y-74009000D01*
X150757000Y-74050000D01*
X150764000Y-74091000D01*
X150766000Y-74133000D01*
X150766000Y-75433000D01*
X150764000Y-75475000D01*
X150757000Y-75516000D01*
X150746000Y-75557000D01*
X150731000Y-75596000D01*
X150712000Y-75633000D01*
X150690000Y-75668000D01*
X150663000Y-75701000D01*
X150634000Y-75730000D01*
X150601000Y-75757000D01*
X150566000Y-75779000D01*
X150529000Y-75798000D01*
X150490000Y-75813000D01*
X150449000Y-75824000D01*
X150408000Y-75831000D01*
X150366000Y-75833000D01*
X150324000Y-75831000D01*
X150283000Y-75824000D01*
X150242000Y-75813000D01*
X150203000Y-75798000D01*
X150166000Y-75779000D01*
X150131000Y-75757000D01*
X150098000Y-75730000D01*
X150069000Y-75701000D01*
X150042000Y-75668000D01*
X150020000Y-75633000D01*
X150001000Y-75596000D01*
X149986000Y-75557000D01*
X149975000Y-75516000D01*
X149968000Y-75475000D01*
X149966000Y-75433000D01*
X149966000Y-74133000D01*
X149968000Y-74091000D01*
X149975000Y-74050000D01*
X149986000Y-74009000D01*
X150001000Y-73970000D01*
X150020000Y-73933000D01*
X150042000Y-73898000D01*
X150069000Y-73865000D01*
X150098000Y-73836000D01*
X150131000Y-73809000D01*
X150166000Y-73787000D01*
X150203000Y-73768000D01*
X150242000Y-73753000D01*
X150283000Y-73742000D01*
X150324000Y-73735000D01*
X150366000Y-73733000D01*
X150408000Y-73735000D01*
X149666000Y-84983000D02*
X149666000Y-85633000D01*
X149666000Y-85633000D02*
X149664000Y-85675000D01*
X149664000Y-85675000D02*
X149657000Y-85716000D01*
X149657000Y-85716000D02*
X149646000Y-85757000D01*
X149646000Y-85757000D02*
X149631000Y-85796000D01*
X149631000Y-85796000D02*
X149612000Y-85833000D01*
X149612000Y-85833000D02*
X149590000Y-85868000D01*
X149590000Y-85868000D02*
X149563000Y-85901000D01*
X149563000Y-85901000D02*
X149534000Y-85930000D01*
X149534000Y-85930000D02*
X149501000Y-85957000D01*
X149501000Y-85957000D02*
X149466000Y-85979000D01*
X149466000Y-85979000D02*
X149429000Y-85998000D01*
X149429000Y-85998000D02*
X149390000Y-86013000D01*
X149390000Y-86013000D02*
X149349000Y-86024000D01*
X149349000Y-86024000D02*
X149308000Y-86031000D01*
X149308000Y-86031000D02*
X149266000Y-86033000D01*
X149266000Y-86033000D02*
X149224000Y-86031000D01*
X149224000Y-86031000D02*
X149183000Y-86024000D01*
X149183000Y-86024000D02*
X149142000Y-86013000D01*
X149142000Y-86013000D02*
X149103000Y-85998000D01*
X149103000Y-85998000D02*
X149066000Y-85979000D01*
X149066000Y-85979000D02*
X149031000Y-85957000D01*
X149031000Y-85957000D02*
X148998000Y-85930000D01*
X148998000Y-85930000D02*
X148969000Y-85901000D01*
X148969000Y-85901000D02*
X148942000Y-85868000D01*
X148942000Y-85868000D02*
X148920000Y-85833000D01*
X148920000Y-85833000D02*
X148901000Y-85796000D01*
X148901000Y-85796000D02*
X148886000Y-85757000D01*
X148886000Y-85757000D02*
X148875000Y-85716000D01*
X148875000Y-85716000D02*
X148868000Y-85675000D01*
X148868000Y-85675000D02*
X148866000Y-85633000D01*
X148866000Y-85633000D02*
X148866000Y-84333000D01*
X148866000Y-84333000D02*
X148868000Y-84291000D01*
X148868000Y-84291000D02*
X148875000Y-84250000D01*
X148875000Y-84250000D02*
X148886000Y-84209000D01*
X148886000Y-84209000D02*
X148901000Y-84170000D01*
X148901000Y-84170000D02*
X148920000Y-84133000D01*
X148920000Y-84133000D02*
X148942000Y-84098000D01*
X148942000Y-84098000D02*
X148969000Y-84065000D01*
X148969000Y-84065000D02*
X148998000Y-84036000D01*
X148998000Y-84036000D02*
X149031000Y-84009000D01*
X149031000Y-84009000D02*
X149066000Y-83987000D01*
X149066000Y-83987000D02*
X149103000Y-83968000D01*
X149103000Y-83968000D02*
X149142000Y-83953000D01*
X149142000Y-83953000D02*
X149183000Y-83942000D01*
X149183000Y-83942000D02*
X149224000Y-83935000D01*
X149224000Y-83935000D02*
X149266000Y-83933000D01*
X149266000Y-83933000D02*
X149308000Y-83935000D01*
X149308000Y-83935000D02*
X149349000Y-83942000D01*
X149349000Y-83942000D02*
X149390000Y-83953000D01*
X149390000Y-83953000D02*
X149429000Y-83968000D01*
X149429000Y-83968000D02*
X149466000Y-83987000D01*
X149466000Y-83987000D02*
X149501000Y-84009000D01*
X149501000Y-84009000D02*
X149534000Y-84036000D01*
X149534000Y-84036000D02*
X149563000Y-84065000D01*
X149563000Y-84065000D02*
X149590000Y-84098000D01*
X149590000Y-84098000D02*
X149612000Y-84133000D01*
X149612000Y-84133000D02*
X149631000Y-84170000D01*
X149631000Y-84170000D02*
X149646000Y-84209000D01*
X149646000Y-84209000D02*
X149657000Y-84250000D01*
X149657000Y-84250000D02*
X149664000Y-84291000D01*
X149664000Y-84291000D02*
X149666000Y-84333000D01*
X149666000Y-84333000D02*
X149666000Y-84983000D01*
X149666000Y-84983000D02*
X149666000Y-84983000D01*
G36*
X149308000Y-83935000D02*
G01*
X149349000Y-83942000D01*
X149390000Y-83953000D01*
X149429000Y-83968000D01*
X149466000Y-83987000D01*
X149501000Y-84009000D01*
X149534000Y-84036000D01*
X149563000Y-84065000D01*
X149590000Y-84098000D01*
X149612000Y-84133000D01*
X149631000Y-84170000D01*
X149646000Y-84209000D01*
X149657000Y-84250000D01*
X149664000Y-84291000D01*
X149666000Y-84333000D01*
X149666000Y-85633000D01*
X149664000Y-85675000D01*
X149657000Y-85716000D01*
X149646000Y-85757000D01*
X149631000Y-85796000D01*
X149612000Y-85833000D01*
X149590000Y-85868000D01*
X149563000Y-85901000D01*
X149534000Y-85930000D01*
X149501000Y-85957000D01*
X149466000Y-85979000D01*
X149429000Y-85998000D01*
X149390000Y-86013000D01*
X149349000Y-86024000D01*
X149308000Y-86031000D01*
X149266000Y-86033000D01*
X149224000Y-86031000D01*
X149183000Y-86024000D01*
X149142000Y-86013000D01*
X149103000Y-85998000D01*
X149066000Y-85979000D01*
X149031000Y-85957000D01*
X148998000Y-85930000D01*
X148969000Y-85901000D01*
X148942000Y-85868000D01*
X148920000Y-85833000D01*
X148901000Y-85796000D01*
X148886000Y-85757000D01*
X148875000Y-85716000D01*
X148868000Y-85675000D01*
X148866000Y-85633000D01*
X148866000Y-84333000D01*
X148868000Y-84291000D01*
X148875000Y-84250000D01*
X148886000Y-84209000D01*
X148901000Y-84170000D01*
X148920000Y-84133000D01*
X148942000Y-84098000D01*
X148969000Y-84065000D01*
X148998000Y-84036000D01*
X149031000Y-84009000D01*
X149066000Y-83987000D01*
X149103000Y-83968000D01*
X149142000Y-83953000D01*
X149183000Y-83942000D01*
X149224000Y-83935000D01*
X149266000Y-83933000D01*
X149308000Y-83935000D01*
G37*
X149308000Y-83935000D02*
X149349000Y-83942000D01*
X149390000Y-83953000D01*
X149429000Y-83968000D01*
X149466000Y-83987000D01*
X149501000Y-84009000D01*
X149534000Y-84036000D01*
X149563000Y-84065000D01*
X149590000Y-84098000D01*
X149612000Y-84133000D01*
X149631000Y-84170000D01*
X149646000Y-84209000D01*
X149657000Y-84250000D01*
X149664000Y-84291000D01*
X149666000Y-84333000D01*
X149666000Y-85633000D01*
X149664000Y-85675000D01*
X149657000Y-85716000D01*
X149646000Y-85757000D01*
X149631000Y-85796000D01*
X149612000Y-85833000D01*
X149590000Y-85868000D01*
X149563000Y-85901000D01*
X149534000Y-85930000D01*
X149501000Y-85957000D01*
X149466000Y-85979000D01*
X149429000Y-85998000D01*
X149390000Y-86013000D01*
X149349000Y-86024000D01*
X149308000Y-86031000D01*
X149266000Y-86033000D01*
X149224000Y-86031000D01*
X149183000Y-86024000D01*
X149142000Y-86013000D01*
X149103000Y-85998000D01*
X149066000Y-85979000D01*
X149031000Y-85957000D01*
X148998000Y-85930000D01*
X148969000Y-85901000D01*
X148942000Y-85868000D01*
X148920000Y-85833000D01*
X148901000Y-85796000D01*
X148886000Y-85757000D01*
X148875000Y-85716000D01*
X148868000Y-85675000D01*
X148866000Y-85633000D01*
X148866000Y-84333000D01*
X148868000Y-84291000D01*
X148875000Y-84250000D01*
X148886000Y-84209000D01*
X148901000Y-84170000D01*
X148920000Y-84133000D01*
X148942000Y-84098000D01*
X148969000Y-84065000D01*
X148998000Y-84036000D01*
X149031000Y-84009000D01*
X149066000Y-83987000D01*
X149103000Y-83968000D01*
X149142000Y-83953000D01*
X149183000Y-83942000D01*
X149224000Y-83935000D01*
X149266000Y-83933000D01*
X149308000Y-83935000D01*
X151866000Y-84983000D02*
X151866000Y-85633000D01*
X151866000Y-85633000D02*
X151864000Y-85675000D01*
X151864000Y-85675000D02*
X151857000Y-85716000D01*
X151857000Y-85716000D02*
X151846000Y-85757000D01*
X151846000Y-85757000D02*
X151831000Y-85796000D01*
X151831000Y-85796000D02*
X151812000Y-85833000D01*
X151812000Y-85833000D02*
X151790000Y-85868000D01*
X151790000Y-85868000D02*
X151763000Y-85901000D01*
X151763000Y-85901000D02*
X151734000Y-85930000D01*
X151734000Y-85930000D02*
X151701000Y-85957000D01*
X151701000Y-85957000D02*
X151666000Y-85979000D01*
X151666000Y-85979000D02*
X151629000Y-85998000D01*
X151629000Y-85998000D02*
X151590000Y-86013000D01*
X151590000Y-86013000D02*
X151549000Y-86024000D01*
X151549000Y-86024000D02*
X151508000Y-86031000D01*
X151508000Y-86031000D02*
X151466000Y-86033000D01*
X151466000Y-86033000D02*
X151424000Y-86031000D01*
X151424000Y-86031000D02*
X151383000Y-86024000D01*
X151383000Y-86024000D02*
X151342000Y-86013000D01*
X151342000Y-86013000D02*
X151303000Y-85998000D01*
X151303000Y-85998000D02*
X151266000Y-85979000D01*
X151266000Y-85979000D02*
X151231000Y-85957000D01*
X151231000Y-85957000D02*
X151198000Y-85930000D01*
X151198000Y-85930000D02*
X151169000Y-85901000D01*
X151169000Y-85901000D02*
X151142000Y-85868000D01*
X151142000Y-85868000D02*
X151120000Y-85833000D01*
X151120000Y-85833000D02*
X151101000Y-85796000D01*
X151101000Y-85796000D02*
X151086000Y-85757000D01*
X151086000Y-85757000D02*
X151075000Y-85716000D01*
X151075000Y-85716000D02*
X151068000Y-85675000D01*
X151068000Y-85675000D02*
X151066000Y-85633000D01*
X151066000Y-85633000D02*
X151066000Y-84333000D01*
X151066000Y-84333000D02*
X151068000Y-84291000D01*
X151068000Y-84291000D02*
X151075000Y-84250000D01*
X151075000Y-84250000D02*
X151086000Y-84209000D01*
X151086000Y-84209000D02*
X151101000Y-84170000D01*
X151101000Y-84170000D02*
X151120000Y-84133000D01*
X151120000Y-84133000D02*
X151142000Y-84098000D01*
X151142000Y-84098000D02*
X151169000Y-84065000D01*
X151169000Y-84065000D02*
X151198000Y-84036000D01*
X151198000Y-84036000D02*
X151231000Y-84009000D01*
X151231000Y-84009000D02*
X151266000Y-83987000D01*
X151266000Y-83987000D02*
X151303000Y-83968000D01*
X151303000Y-83968000D02*
X151342000Y-83953000D01*
X151342000Y-83953000D02*
X151383000Y-83942000D01*
X151383000Y-83942000D02*
X151424000Y-83935000D01*
X151424000Y-83935000D02*
X151466000Y-83933000D01*
X151466000Y-83933000D02*
X151508000Y-83935000D01*
X151508000Y-83935000D02*
X151549000Y-83942000D01*
X151549000Y-83942000D02*
X151590000Y-83953000D01*
X151590000Y-83953000D02*
X151629000Y-83968000D01*
X151629000Y-83968000D02*
X151666000Y-83987000D01*
X151666000Y-83987000D02*
X151701000Y-84009000D01*
X151701000Y-84009000D02*
X151734000Y-84036000D01*
X151734000Y-84036000D02*
X151763000Y-84065000D01*
X151763000Y-84065000D02*
X151790000Y-84098000D01*
X151790000Y-84098000D02*
X151812000Y-84133000D01*
X151812000Y-84133000D02*
X151831000Y-84170000D01*
X151831000Y-84170000D02*
X151846000Y-84209000D01*
X151846000Y-84209000D02*
X151857000Y-84250000D01*
X151857000Y-84250000D02*
X151864000Y-84291000D01*
X151864000Y-84291000D02*
X151866000Y-84333000D01*
X151866000Y-84333000D02*
X151866000Y-84983000D01*
X151866000Y-84983000D02*
X151866000Y-84983000D01*
G36*
X151508000Y-83935000D02*
G01*
X151549000Y-83942000D01*
X151590000Y-83953000D01*
X151629000Y-83968000D01*
X151666000Y-83987000D01*
X151701000Y-84009000D01*
X151734000Y-84036000D01*
X151763000Y-84065000D01*
X151790000Y-84098000D01*
X151812000Y-84133000D01*
X151831000Y-84170000D01*
X151846000Y-84209000D01*
X151857000Y-84250000D01*
X151864000Y-84291000D01*
X151866000Y-84333000D01*
X151866000Y-85633000D01*
X151864000Y-85675000D01*
X151857000Y-85716000D01*
X151846000Y-85757000D01*
X151831000Y-85796000D01*
X151812000Y-85833000D01*
X151790000Y-85868000D01*
X151763000Y-85901000D01*
X151734000Y-85930000D01*
X151701000Y-85957000D01*
X151666000Y-85979000D01*
X151629000Y-85998000D01*
X151590000Y-86013000D01*
X151549000Y-86024000D01*
X151508000Y-86031000D01*
X151466000Y-86033000D01*
X151424000Y-86031000D01*
X151383000Y-86024000D01*
X151342000Y-86013000D01*
X151303000Y-85998000D01*
X151266000Y-85979000D01*
X151231000Y-85957000D01*
X151198000Y-85930000D01*
X151169000Y-85901000D01*
X151142000Y-85868000D01*
X151120000Y-85833000D01*
X151101000Y-85796000D01*
X151086000Y-85757000D01*
X151075000Y-85716000D01*
X151068000Y-85675000D01*
X151066000Y-85633000D01*
X151066000Y-84333000D01*
X151068000Y-84291000D01*
X151075000Y-84250000D01*
X151086000Y-84209000D01*
X151101000Y-84170000D01*
X151120000Y-84133000D01*
X151142000Y-84098000D01*
X151169000Y-84065000D01*
X151198000Y-84036000D01*
X151231000Y-84009000D01*
X151266000Y-83987000D01*
X151303000Y-83968000D01*
X151342000Y-83953000D01*
X151383000Y-83942000D01*
X151424000Y-83935000D01*
X151466000Y-83933000D01*
X151508000Y-83935000D01*
G37*
X151508000Y-83935000D02*
X151549000Y-83942000D01*
X151590000Y-83953000D01*
X151629000Y-83968000D01*
X151666000Y-83987000D01*
X151701000Y-84009000D01*
X151734000Y-84036000D01*
X151763000Y-84065000D01*
X151790000Y-84098000D01*
X151812000Y-84133000D01*
X151831000Y-84170000D01*
X151846000Y-84209000D01*
X151857000Y-84250000D01*
X151864000Y-84291000D01*
X151866000Y-84333000D01*
X151866000Y-85633000D01*
X151864000Y-85675000D01*
X151857000Y-85716000D01*
X151846000Y-85757000D01*
X151831000Y-85796000D01*
X151812000Y-85833000D01*
X151790000Y-85868000D01*
X151763000Y-85901000D01*
X151734000Y-85930000D01*
X151701000Y-85957000D01*
X151666000Y-85979000D01*
X151629000Y-85998000D01*
X151590000Y-86013000D01*
X151549000Y-86024000D01*
X151508000Y-86031000D01*
X151466000Y-86033000D01*
X151424000Y-86031000D01*
X151383000Y-86024000D01*
X151342000Y-86013000D01*
X151303000Y-85998000D01*
X151266000Y-85979000D01*
X151231000Y-85957000D01*
X151198000Y-85930000D01*
X151169000Y-85901000D01*
X151142000Y-85868000D01*
X151120000Y-85833000D01*
X151101000Y-85796000D01*
X151086000Y-85757000D01*
X151075000Y-85716000D01*
X151068000Y-85675000D01*
X151066000Y-85633000D01*
X151066000Y-84333000D01*
X151068000Y-84291000D01*
X151075000Y-84250000D01*
X151086000Y-84209000D01*
X151101000Y-84170000D01*
X151120000Y-84133000D01*
X151142000Y-84098000D01*
X151169000Y-84065000D01*
X151198000Y-84036000D01*
X151231000Y-84009000D01*
X151266000Y-83987000D01*
X151303000Y-83968000D01*
X151342000Y-83953000D01*
X151383000Y-83942000D01*
X151424000Y-83935000D01*
X151466000Y-83933000D01*
X151508000Y-83935000D01*
X151866000Y-74783000D02*
X151866000Y-75433000D01*
X151866000Y-75433000D02*
X151864000Y-75475000D01*
X151864000Y-75475000D02*
X151857000Y-75516000D01*
X151857000Y-75516000D02*
X151846000Y-75557000D01*
X151846000Y-75557000D02*
X151831000Y-75596000D01*
X151831000Y-75596000D02*
X151812000Y-75633000D01*
X151812000Y-75633000D02*
X151790000Y-75668000D01*
X151790000Y-75668000D02*
X151763000Y-75701000D01*
X151763000Y-75701000D02*
X151734000Y-75730000D01*
X151734000Y-75730000D02*
X151701000Y-75757000D01*
X151701000Y-75757000D02*
X151666000Y-75779000D01*
X151666000Y-75779000D02*
X151629000Y-75798000D01*
X151629000Y-75798000D02*
X151590000Y-75813000D01*
X151590000Y-75813000D02*
X151549000Y-75824000D01*
X151549000Y-75824000D02*
X151508000Y-75831000D01*
X151508000Y-75831000D02*
X151466000Y-75833000D01*
X151466000Y-75833000D02*
X151424000Y-75831000D01*
X151424000Y-75831000D02*
X151383000Y-75824000D01*
X151383000Y-75824000D02*
X151342000Y-75813000D01*
X151342000Y-75813000D02*
X151303000Y-75798000D01*
X151303000Y-75798000D02*
X151266000Y-75779000D01*
X151266000Y-75779000D02*
X151231000Y-75757000D01*
X151231000Y-75757000D02*
X151198000Y-75730000D01*
X151198000Y-75730000D02*
X151169000Y-75701000D01*
X151169000Y-75701000D02*
X151142000Y-75668000D01*
X151142000Y-75668000D02*
X151120000Y-75633000D01*
X151120000Y-75633000D02*
X151101000Y-75596000D01*
X151101000Y-75596000D02*
X151086000Y-75557000D01*
X151086000Y-75557000D02*
X151075000Y-75516000D01*
X151075000Y-75516000D02*
X151068000Y-75475000D01*
X151068000Y-75475000D02*
X151066000Y-75433000D01*
X151066000Y-75433000D02*
X151066000Y-74133000D01*
X151066000Y-74133000D02*
X151068000Y-74091000D01*
X151068000Y-74091000D02*
X151075000Y-74050000D01*
X151075000Y-74050000D02*
X151086000Y-74009000D01*
X151086000Y-74009000D02*
X151101000Y-73970000D01*
X151101000Y-73970000D02*
X151120000Y-73933000D01*
X151120000Y-73933000D02*
X151142000Y-73898000D01*
X151142000Y-73898000D02*
X151169000Y-73865000D01*
X151169000Y-73865000D02*
X151198000Y-73836000D01*
X151198000Y-73836000D02*
X151231000Y-73809000D01*
X151231000Y-73809000D02*
X151266000Y-73787000D01*
X151266000Y-73787000D02*
X151303000Y-73768000D01*
X151303000Y-73768000D02*
X151342000Y-73753000D01*
X151342000Y-73753000D02*
X151383000Y-73742000D01*
X151383000Y-73742000D02*
X151424000Y-73735000D01*
X151424000Y-73735000D02*
X151466000Y-73733000D01*
X151466000Y-73733000D02*
X151508000Y-73735000D01*
X151508000Y-73735000D02*
X151549000Y-73742000D01*
X151549000Y-73742000D02*
X151590000Y-73753000D01*
X151590000Y-73753000D02*
X151629000Y-73768000D01*
X151629000Y-73768000D02*
X151666000Y-73787000D01*
X151666000Y-73787000D02*
X151701000Y-73809000D01*
X151701000Y-73809000D02*
X151734000Y-73836000D01*
X151734000Y-73836000D02*
X151763000Y-73865000D01*
X151763000Y-73865000D02*
X151790000Y-73898000D01*
X151790000Y-73898000D02*
X151812000Y-73933000D01*
X151812000Y-73933000D02*
X151831000Y-73970000D01*
X151831000Y-73970000D02*
X151846000Y-74009000D01*
X151846000Y-74009000D02*
X151857000Y-74050000D01*
X151857000Y-74050000D02*
X151864000Y-74091000D01*
X151864000Y-74091000D02*
X151866000Y-74133000D01*
X151866000Y-74133000D02*
X151866000Y-74783000D01*
X151866000Y-74783000D02*
X151866000Y-74783000D01*
G36*
X151508000Y-73735000D02*
G01*
X151549000Y-73742000D01*
X151590000Y-73753000D01*
X151629000Y-73768000D01*
X151666000Y-73787000D01*
X151701000Y-73809000D01*
X151734000Y-73836000D01*
X151763000Y-73865000D01*
X151790000Y-73898000D01*
X151812000Y-73933000D01*
X151831000Y-73970000D01*
X151846000Y-74009000D01*
X151857000Y-74050000D01*
X151864000Y-74091000D01*
X151866000Y-74133000D01*
X151866000Y-75433000D01*
X151864000Y-75475000D01*
X151857000Y-75516000D01*
X151846000Y-75557000D01*
X151831000Y-75596000D01*
X151812000Y-75633000D01*
X151790000Y-75668000D01*
X151763000Y-75701000D01*
X151734000Y-75730000D01*
X151701000Y-75757000D01*
X151666000Y-75779000D01*
X151629000Y-75798000D01*
X151590000Y-75813000D01*
X151549000Y-75824000D01*
X151508000Y-75831000D01*
X151466000Y-75833000D01*
X151424000Y-75831000D01*
X151383000Y-75824000D01*
X151342000Y-75813000D01*
X151303000Y-75798000D01*
X151266000Y-75779000D01*
X151231000Y-75757000D01*
X151198000Y-75730000D01*
X151169000Y-75701000D01*
X151142000Y-75668000D01*
X151120000Y-75633000D01*
X151101000Y-75596000D01*
X151086000Y-75557000D01*
X151075000Y-75516000D01*
X151068000Y-75475000D01*
X151066000Y-75433000D01*
X151066000Y-74133000D01*
X151068000Y-74091000D01*
X151075000Y-74050000D01*
X151086000Y-74009000D01*
X151101000Y-73970000D01*
X151120000Y-73933000D01*
X151142000Y-73898000D01*
X151169000Y-73865000D01*
X151198000Y-73836000D01*
X151231000Y-73809000D01*
X151266000Y-73787000D01*
X151303000Y-73768000D01*
X151342000Y-73753000D01*
X151383000Y-73742000D01*
X151424000Y-73735000D01*
X151466000Y-73733000D01*
X151508000Y-73735000D01*
G37*
X151508000Y-73735000D02*
X151549000Y-73742000D01*
X151590000Y-73753000D01*
X151629000Y-73768000D01*
X151666000Y-73787000D01*
X151701000Y-73809000D01*
X151734000Y-73836000D01*
X151763000Y-73865000D01*
X151790000Y-73898000D01*
X151812000Y-73933000D01*
X151831000Y-73970000D01*
X151846000Y-74009000D01*
X151857000Y-74050000D01*
X151864000Y-74091000D01*
X151866000Y-74133000D01*
X151866000Y-75433000D01*
X151864000Y-75475000D01*
X151857000Y-75516000D01*
X151846000Y-75557000D01*
X151831000Y-75596000D01*
X151812000Y-75633000D01*
X151790000Y-75668000D01*
X151763000Y-75701000D01*
X151734000Y-75730000D01*
X151701000Y-75757000D01*
X151666000Y-75779000D01*
X151629000Y-75798000D01*
X151590000Y-75813000D01*
X151549000Y-75824000D01*
X151508000Y-75831000D01*
X151466000Y-75833000D01*
X151424000Y-75831000D01*
X151383000Y-75824000D01*
X151342000Y-75813000D01*
X151303000Y-75798000D01*
X151266000Y-75779000D01*
X151231000Y-75757000D01*
X151198000Y-75730000D01*
X151169000Y-75701000D01*
X151142000Y-75668000D01*
X151120000Y-75633000D01*
X151101000Y-75596000D01*
X151086000Y-75557000D01*
X151075000Y-75516000D01*
X151068000Y-75475000D01*
X151066000Y-75433000D01*
X151066000Y-74133000D01*
X151068000Y-74091000D01*
X151075000Y-74050000D01*
X151086000Y-74009000D01*
X151101000Y-73970000D01*
X151120000Y-73933000D01*
X151142000Y-73898000D01*
X151169000Y-73865000D01*
X151198000Y-73836000D01*
X151231000Y-73809000D01*
X151266000Y-73787000D01*
X151303000Y-73768000D01*
X151342000Y-73753000D01*
X151383000Y-73742000D01*
X151424000Y-73735000D01*
X151466000Y-73733000D01*
X151508000Y-73735000D01*
X145266000Y-74783000D02*
X145266000Y-75433000D01*
X145266000Y-75433000D02*
X145264000Y-75475000D01*
X145264000Y-75475000D02*
X145257000Y-75516000D01*
X145257000Y-75516000D02*
X145246000Y-75557000D01*
X145246000Y-75557000D02*
X145231000Y-75596000D01*
X145231000Y-75596000D02*
X145212000Y-75633000D01*
X145212000Y-75633000D02*
X145190000Y-75668000D01*
X145190000Y-75668000D02*
X145163000Y-75701000D01*
X145163000Y-75701000D02*
X145134000Y-75730000D01*
X145134000Y-75730000D02*
X145101000Y-75757000D01*
X145101000Y-75757000D02*
X145066000Y-75779000D01*
X145066000Y-75779000D02*
X145029000Y-75798000D01*
X145029000Y-75798000D02*
X144990000Y-75813000D01*
X144990000Y-75813000D02*
X144949000Y-75824000D01*
X144949000Y-75824000D02*
X144908000Y-75831000D01*
X144908000Y-75831000D02*
X144866000Y-75833000D01*
X144866000Y-75833000D02*
X144824000Y-75831000D01*
X144824000Y-75831000D02*
X144783000Y-75824000D01*
X144783000Y-75824000D02*
X144742000Y-75813000D01*
X144742000Y-75813000D02*
X144703000Y-75798000D01*
X144703000Y-75798000D02*
X144666000Y-75779000D01*
X144666000Y-75779000D02*
X144631000Y-75757000D01*
X144631000Y-75757000D02*
X144598000Y-75730000D01*
X144598000Y-75730000D02*
X144569000Y-75701000D01*
X144569000Y-75701000D02*
X144542000Y-75668000D01*
X144542000Y-75668000D02*
X144520000Y-75633000D01*
X144520000Y-75633000D02*
X144501000Y-75596000D01*
X144501000Y-75596000D02*
X144486000Y-75557000D01*
X144486000Y-75557000D02*
X144475000Y-75516000D01*
X144475000Y-75516000D02*
X144468000Y-75475000D01*
X144468000Y-75475000D02*
X144466000Y-75433000D01*
X144466000Y-75433000D02*
X144466000Y-74133000D01*
X144466000Y-74133000D02*
X144468000Y-74091000D01*
X144468000Y-74091000D02*
X144475000Y-74050000D01*
X144475000Y-74050000D02*
X144486000Y-74009000D01*
X144486000Y-74009000D02*
X144501000Y-73970000D01*
X144501000Y-73970000D02*
X144520000Y-73933000D01*
X144520000Y-73933000D02*
X144542000Y-73898000D01*
X144542000Y-73898000D02*
X144569000Y-73865000D01*
X144569000Y-73865000D02*
X144598000Y-73836000D01*
X144598000Y-73836000D02*
X144631000Y-73809000D01*
X144631000Y-73809000D02*
X144666000Y-73787000D01*
X144666000Y-73787000D02*
X144703000Y-73768000D01*
X144703000Y-73768000D02*
X144742000Y-73753000D01*
X144742000Y-73753000D02*
X144783000Y-73742000D01*
X144783000Y-73742000D02*
X144824000Y-73735000D01*
X144824000Y-73735000D02*
X144866000Y-73733000D01*
X144866000Y-73733000D02*
X144908000Y-73735000D01*
X144908000Y-73735000D02*
X144949000Y-73742000D01*
X144949000Y-73742000D02*
X144990000Y-73753000D01*
X144990000Y-73753000D02*
X145029000Y-73768000D01*
X145029000Y-73768000D02*
X145066000Y-73787000D01*
X145066000Y-73787000D02*
X145101000Y-73809000D01*
X145101000Y-73809000D02*
X145134000Y-73836000D01*
X145134000Y-73836000D02*
X145163000Y-73865000D01*
X145163000Y-73865000D02*
X145190000Y-73898000D01*
X145190000Y-73898000D02*
X145212000Y-73933000D01*
X145212000Y-73933000D02*
X145231000Y-73970000D01*
X145231000Y-73970000D02*
X145246000Y-74009000D01*
X145246000Y-74009000D02*
X145257000Y-74050000D01*
X145257000Y-74050000D02*
X145264000Y-74091000D01*
X145264000Y-74091000D02*
X145266000Y-74133000D01*
X145266000Y-74133000D02*
X145266000Y-74783000D01*
X145266000Y-74783000D02*
X145266000Y-74783000D01*
G36*
X144908000Y-73735000D02*
G01*
X144949000Y-73742000D01*
X144990000Y-73753000D01*
X145029000Y-73768000D01*
X145066000Y-73787000D01*
X145101000Y-73809000D01*
X145134000Y-73836000D01*
X145163000Y-73865000D01*
X145190000Y-73898000D01*
X145212000Y-73933000D01*
X145231000Y-73970000D01*
X145246000Y-74009000D01*
X145257000Y-74050000D01*
X145264000Y-74091000D01*
X145266000Y-74133000D01*
X145266000Y-75433000D01*
X145264000Y-75475000D01*
X145257000Y-75516000D01*
X145246000Y-75557000D01*
X145231000Y-75596000D01*
X145212000Y-75633000D01*
X145190000Y-75668000D01*
X145163000Y-75701000D01*
X145134000Y-75730000D01*
X145101000Y-75757000D01*
X145066000Y-75779000D01*
X145029000Y-75798000D01*
X144990000Y-75813000D01*
X144949000Y-75824000D01*
X144908000Y-75831000D01*
X144866000Y-75833000D01*
X144824000Y-75831000D01*
X144783000Y-75824000D01*
X144742000Y-75813000D01*
X144703000Y-75798000D01*
X144666000Y-75779000D01*
X144631000Y-75757000D01*
X144598000Y-75730000D01*
X144569000Y-75701000D01*
X144542000Y-75668000D01*
X144520000Y-75633000D01*
X144501000Y-75596000D01*
X144486000Y-75557000D01*
X144475000Y-75516000D01*
X144468000Y-75475000D01*
X144466000Y-75433000D01*
X144466000Y-74133000D01*
X144468000Y-74091000D01*
X144475000Y-74050000D01*
X144486000Y-74009000D01*
X144501000Y-73970000D01*
X144520000Y-73933000D01*
X144542000Y-73898000D01*
X144569000Y-73865000D01*
X144598000Y-73836000D01*
X144631000Y-73809000D01*
X144666000Y-73787000D01*
X144703000Y-73768000D01*
X144742000Y-73753000D01*
X144783000Y-73742000D01*
X144824000Y-73735000D01*
X144866000Y-73733000D01*
X144908000Y-73735000D01*
G37*
X144908000Y-73735000D02*
X144949000Y-73742000D01*
X144990000Y-73753000D01*
X145029000Y-73768000D01*
X145066000Y-73787000D01*
X145101000Y-73809000D01*
X145134000Y-73836000D01*
X145163000Y-73865000D01*
X145190000Y-73898000D01*
X145212000Y-73933000D01*
X145231000Y-73970000D01*
X145246000Y-74009000D01*
X145257000Y-74050000D01*
X145264000Y-74091000D01*
X145266000Y-74133000D01*
X145266000Y-75433000D01*
X145264000Y-75475000D01*
X145257000Y-75516000D01*
X145246000Y-75557000D01*
X145231000Y-75596000D01*
X145212000Y-75633000D01*
X145190000Y-75668000D01*
X145163000Y-75701000D01*
X145134000Y-75730000D01*
X145101000Y-75757000D01*
X145066000Y-75779000D01*
X145029000Y-75798000D01*
X144990000Y-75813000D01*
X144949000Y-75824000D01*
X144908000Y-75831000D01*
X144866000Y-75833000D01*
X144824000Y-75831000D01*
X144783000Y-75824000D01*
X144742000Y-75813000D01*
X144703000Y-75798000D01*
X144666000Y-75779000D01*
X144631000Y-75757000D01*
X144598000Y-75730000D01*
X144569000Y-75701000D01*
X144542000Y-75668000D01*
X144520000Y-75633000D01*
X144501000Y-75596000D01*
X144486000Y-75557000D01*
X144475000Y-75516000D01*
X144468000Y-75475000D01*
X144466000Y-75433000D01*
X144466000Y-74133000D01*
X144468000Y-74091000D01*
X144475000Y-74050000D01*
X144486000Y-74009000D01*
X144501000Y-73970000D01*
X144520000Y-73933000D01*
X144542000Y-73898000D01*
X144569000Y-73865000D01*
X144598000Y-73836000D01*
X144631000Y-73809000D01*
X144666000Y-73787000D01*
X144703000Y-73768000D01*
X144742000Y-73753000D01*
X144783000Y-73742000D01*
X144824000Y-73735000D01*
X144866000Y-73733000D01*
X144908000Y-73735000D01*
X148566000Y-84983000D02*
X148566000Y-85633000D01*
X148566000Y-85633000D02*
X148564000Y-85675000D01*
X148564000Y-85675000D02*
X148557000Y-85716000D01*
X148557000Y-85716000D02*
X148546000Y-85757000D01*
X148546000Y-85757000D02*
X148531000Y-85796000D01*
X148531000Y-85796000D02*
X148512000Y-85833000D01*
X148512000Y-85833000D02*
X148490000Y-85868000D01*
X148490000Y-85868000D02*
X148463000Y-85901000D01*
X148463000Y-85901000D02*
X148434000Y-85930000D01*
X148434000Y-85930000D02*
X148401000Y-85957000D01*
X148401000Y-85957000D02*
X148366000Y-85979000D01*
X148366000Y-85979000D02*
X148329000Y-85998000D01*
X148329000Y-85998000D02*
X148290000Y-86013000D01*
X148290000Y-86013000D02*
X148249000Y-86024000D01*
X148249000Y-86024000D02*
X148208000Y-86031000D01*
X148208000Y-86031000D02*
X148166000Y-86033000D01*
X148166000Y-86033000D02*
X148124000Y-86031000D01*
X148124000Y-86031000D02*
X148083000Y-86024000D01*
X148083000Y-86024000D02*
X148042000Y-86013000D01*
X148042000Y-86013000D02*
X148003000Y-85998000D01*
X148003000Y-85998000D02*
X147966000Y-85979000D01*
X147966000Y-85979000D02*
X147931000Y-85957000D01*
X147931000Y-85957000D02*
X147898000Y-85930000D01*
X147898000Y-85930000D02*
X147869000Y-85901000D01*
X147869000Y-85901000D02*
X147842000Y-85868000D01*
X147842000Y-85868000D02*
X147820000Y-85833000D01*
X147820000Y-85833000D02*
X147801000Y-85796000D01*
X147801000Y-85796000D02*
X147786000Y-85757000D01*
X147786000Y-85757000D02*
X147775000Y-85716000D01*
X147775000Y-85716000D02*
X147768000Y-85675000D01*
X147768000Y-85675000D02*
X147766000Y-85633000D01*
X147766000Y-85633000D02*
X147766000Y-84333000D01*
X147766000Y-84333000D02*
X147768000Y-84291000D01*
X147768000Y-84291000D02*
X147775000Y-84250000D01*
X147775000Y-84250000D02*
X147786000Y-84209000D01*
X147786000Y-84209000D02*
X147801000Y-84170000D01*
X147801000Y-84170000D02*
X147820000Y-84133000D01*
X147820000Y-84133000D02*
X147842000Y-84098000D01*
X147842000Y-84098000D02*
X147869000Y-84065000D01*
X147869000Y-84065000D02*
X147898000Y-84036000D01*
X147898000Y-84036000D02*
X147931000Y-84009000D01*
X147931000Y-84009000D02*
X147966000Y-83987000D01*
X147966000Y-83987000D02*
X148003000Y-83968000D01*
X148003000Y-83968000D02*
X148042000Y-83953000D01*
X148042000Y-83953000D02*
X148083000Y-83942000D01*
X148083000Y-83942000D02*
X148124000Y-83935000D01*
X148124000Y-83935000D02*
X148166000Y-83933000D01*
X148166000Y-83933000D02*
X148208000Y-83935000D01*
X148208000Y-83935000D02*
X148249000Y-83942000D01*
X148249000Y-83942000D02*
X148290000Y-83953000D01*
X148290000Y-83953000D02*
X148329000Y-83968000D01*
X148329000Y-83968000D02*
X148366000Y-83987000D01*
X148366000Y-83987000D02*
X148401000Y-84009000D01*
X148401000Y-84009000D02*
X148434000Y-84036000D01*
X148434000Y-84036000D02*
X148463000Y-84065000D01*
X148463000Y-84065000D02*
X148490000Y-84098000D01*
X148490000Y-84098000D02*
X148512000Y-84133000D01*
X148512000Y-84133000D02*
X148531000Y-84170000D01*
X148531000Y-84170000D02*
X148546000Y-84209000D01*
X148546000Y-84209000D02*
X148557000Y-84250000D01*
X148557000Y-84250000D02*
X148564000Y-84291000D01*
X148564000Y-84291000D02*
X148566000Y-84333000D01*
X148566000Y-84333000D02*
X148566000Y-84983000D01*
X148566000Y-84983000D02*
X148566000Y-84983000D01*
G36*
X148208000Y-83935000D02*
G01*
X148249000Y-83942000D01*
X148290000Y-83953000D01*
X148329000Y-83968000D01*
X148366000Y-83987000D01*
X148401000Y-84009000D01*
X148434000Y-84036000D01*
X148463000Y-84065000D01*
X148490000Y-84098000D01*
X148512000Y-84133000D01*
X148531000Y-84170000D01*
X148546000Y-84209000D01*
X148557000Y-84250000D01*
X148564000Y-84291000D01*
X148566000Y-84333000D01*
X148566000Y-85633000D01*
X148564000Y-85675000D01*
X148557000Y-85716000D01*
X148546000Y-85757000D01*
X148531000Y-85796000D01*
X148512000Y-85833000D01*
X148490000Y-85868000D01*
X148463000Y-85901000D01*
X148434000Y-85930000D01*
X148401000Y-85957000D01*
X148366000Y-85979000D01*
X148329000Y-85998000D01*
X148290000Y-86013000D01*
X148249000Y-86024000D01*
X148208000Y-86031000D01*
X148166000Y-86033000D01*
X148124000Y-86031000D01*
X148083000Y-86024000D01*
X148042000Y-86013000D01*
X148003000Y-85998000D01*
X147966000Y-85979000D01*
X147931000Y-85957000D01*
X147898000Y-85930000D01*
X147869000Y-85901000D01*
X147842000Y-85868000D01*
X147820000Y-85833000D01*
X147801000Y-85796000D01*
X147786000Y-85757000D01*
X147775000Y-85716000D01*
X147768000Y-85675000D01*
X147766000Y-85633000D01*
X147766000Y-84333000D01*
X147768000Y-84291000D01*
X147775000Y-84250000D01*
X147786000Y-84209000D01*
X147801000Y-84170000D01*
X147820000Y-84133000D01*
X147842000Y-84098000D01*
X147869000Y-84065000D01*
X147898000Y-84036000D01*
X147931000Y-84009000D01*
X147966000Y-83987000D01*
X148003000Y-83968000D01*
X148042000Y-83953000D01*
X148083000Y-83942000D01*
X148124000Y-83935000D01*
X148166000Y-83933000D01*
X148208000Y-83935000D01*
G37*
X148208000Y-83935000D02*
X148249000Y-83942000D01*
X148290000Y-83953000D01*
X148329000Y-83968000D01*
X148366000Y-83987000D01*
X148401000Y-84009000D01*
X148434000Y-84036000D01*
X148463000Y-84065000D01*
X148490000Y-84098000D01*
X148512000Y-84133000D01*
X148531000Y-84170000D01*
X148546000Y-84209000D01*
X148557000Y-84250000D01*
X148564000Y-84291000D01*
X148566000Y-84333000D01*
X148566000Y-85633000D01*
X148564000Y-85675000D01*
X148557000Y-85716000D01*
X148546000Y-85757000D01*
X148531000Y-85796000D01*
X148512000Y-85833000D01*
X148490000Y-85868000D01*
X148463000Y-85901000D01*
X148434000Y-85930000D01*
X148401000Y-85957000D01*
X148366000Y-85979000D01*
X148329000Y-85998000D01*
X148290000Y-86013000D01*
X148249000Y-86024000D01*
X148208000Y-86031000D01*
X148166000Y-86033000D01*
X148124000Y-86031000D01*
X148083000Y-86024000D01*
X148042000Y-86013000D01*
X148003000Y-85998000D01*
X147966000Y-85979000D01*
X147931000Y-85957000D01*
X147898000Y-85930000D01*
X147869000Y-85901000D01*
X147842000Y-85868000D01*
X147820000Y-85833000D01*
X147801000Y-85796000D01*
X147786000Y-85757000D01*
X147775000Y-85716000D01*
X147768000Y-85675000D01*
X147766000Y-85633000D01*
X147766000Y-84333000D01*
X147768000Y-84291000D01*
X147775000Y-84250000D01*
X147786000Y-84209000D01*
X147801000Y-84170000D01*
X147820000Y-84133000D01*
X147842000Y-84098000D01*
X147869000Y-84065000D01*
X147898000Y-84036000D01*
X147931000Y-84009000D01*
X147966000Y-83987000D01*
X148003000Y-83968000D01*
X148042000Y-83953000D01*
X148083000Y-83942000D01*
X148124000Y-83935000D01*
X148166000Y-83933000D01*
X148208000Y-83935000D01*
X143066000Y-74783000D02*
X143066000Y-75433000D01*
X143066000Y-75433000D02*
X143064000Y-75475000D01*
X143064000Y-75475000D02*
X143057000Y-75516000D01*
X143057000Y-75516000D02*
X143046000Y-75557000D01*
X143046000Y-75557000D02*
X143031000Y-75596000D01*
X143031000Y-75596000D02*
X143012000Y-75633000D01*
X143012000Y-75633000D02*
X142990000Y-75668000D01*
X142990000Y-75668000D02*
X142963000Y-75701000D01*
X142963000Y-75701000D02*
X142934000Y-75730000D01*
X142934000Y-75730000D02*
X142901000Y-75757000D01*
X142901000Y-75757000D02*
X142866000Y-75779000D01*
X142866000Y-75779000D02*
X142829000Y-75798000D01*
X142829000Y-75798000D02*
X142790000Y-75813000D01*
X142790000Y-75813000D02*
X142749000Y-75824000D01*
X142749000Y-75824000D02*
X142708000Y-75831000D01*
X142708000Y-75831000D02*
X142666000Y-75833000D01*
X142666000Y-75833000D02*
X142624000Y-75831000D01*
X142624000Y-75831000D02*
X142583000Y-75824000D01*
X142583000Y-75824000D02*
X142542000Y-75813000D01*
X142542000Y-75813000D02*
X142503000Y-75798000D01*
X142503000Y-75798000D02*
X142466000Y-75779000D01*
X142466000Y-75779000D02*
X142431000Y-75757000D01*
X142431000Y-75757000D02*
X142398000Y-75730000D01*
X142398000Y-75730000D02*
X142369000Y-75701000D01*
X142369000Y-75701000D02*
X142342000Y-75668000D01*
X142342000Y-75668000D02*
X142320000Y-75633000D01*
X142320000Y-75633000D02*
X142301000Y-75596000D01*
X142301000Y-75596000D02*
X142286000Y-75557000D01*
X142286000Y-75557000D02*
X142275000Y-75516000D01*
X142275000Y-75516000D02*
X142268000Y-75475000D01*
X142268000Y-75475000D02*
X142266000Y-75433000D01*
X142266000Y-75433000D02*
X142266000Y-74133000D01*
X142266000Y-74133000D02*
X142268000Y-74091000D01*
X142268000Y-74091000D02*
X142275000Y-74050000D01*
X142275000Y-74050000D02*
X142286000Y-74009000D01*
X142286000Y-74009000D02*
X142301000Y-73970000D01*
X142301000Y-73970000D02*
X142320000Y-73933000D01*
X142320000Y-73933000D02*
X142342000Y-73898000D01*
X142342000Y-73898000D02*
X142369000Y-73865000D01*
X142369000Y-73865000D02*
X142398000Y-73836000D01*
X142398000Y-73836000D02*
X142431000Y-73809000D01*
X142431000Y-73809000D02*
X142466000Y-73787000D01*
X142466000Y-73787000D02*
X142503000Y-73768000D01*
X142503000Y-73768000D02*
X142542000Y-73753000D01*
X142542000Y-73753000D02*
X142583000Y-73742000D01*
X142583000Y-73742000D02*
X142624000Y-73735000D01*
X142624000Y-73735000D02*
X142666000Y-73733000D01*
X142666000Y-73733000D02*
X142708000Y-73735000D01*
X142708000Y-73735000D02*
X142749000Y-73742000D01*
X142749000Y-73742000D02*
X142790000Y-73753000D01*
X142790000Y-73753000D02*
X142829000Y-73768000D01*
X142829000Y-73768000D02*
X142866000Y-73787000D01*
X142866000Y-73787000D02*
X142901000Y-73809000D01*
X142901000Y-73809000D02*
X142934000Y-73836000D01*
X142934000Y-73836000D02*
X142963000Y-73865000D01*
X142963000Y-73865000D02*
X142990000Y-73898000D01*
X142990000Y-73898000D02*
X143012000Y-73933000D01*
X143012000Y-73933000D02*
X143031000Y-73970000D01*
X143031000Y-73970000D02*
X143046000Y-74009000D01*
X143046000Y-74009000D02*
X143057000Y-74050000D01*
X143057000Y-74050000D02*
X143064000Y-74091000D01*
X143064000Y-74091000D02*
X143066000Y-74133000D01*
X143066000Y-74133000D02*
X143066000Y-74783000D01*
X143066000Y-74783000D02*
X143066000Y-74783000D01*
G36*
X142708000Y-73735000D02*
G01*
X142749000Y-73742000D01*
X142790000Y-73753000D01*
X142829000Y-73768000D01*
X142866000Y-73787000D01*
X142901000Y-73809000D01*
X142934000Y-73836000D01*
X142963000Y-73865000D01*
X142990000Y-73898000D01*
X143012000Y-73933000D01*
X143031000Y-73970000D01*
X143046000Y-74009000D01*
X143057000Y-74050000D01*
X143064000Y-74091000D01*
X143066000Y-74133000D01*
X143066000Y-75433000D01*
X143064000Y-75475000D01*
X143057000Y-75516000D01*
X143046000Y-75557000D01*
X143031000Y-75596000D01*
X143012000Y-75633000D01*
X142990000Y-75668000D01*
X142963000Y-75701000D01*
X142934000Y-75730000D01*
X142901000Y-75757000D01*
X142866000Y-75779000D01*
X142829000Y-75798000D01*
X142790000Y-75813000D01*
X142749000Y-75824000D01*
X142708000Y-75831000D01*
X142666000Y-75833000D01*
X142624000Y-75831000D01*
X142583000Y-75824000D01*
X142542000Y-75813000D01*
X142503000Y-75798000D01*
X142466000Y-75779000D01*
X142431000Y-75757000D01*
X142398000Y-75730000D01*
X142369000Y-75701000D01*
X142342000Y-75668000D01*
X142320000Y-75633000D01*
X142301000Y-75596000D01*
X142286000Y-75557000D01*
X142275000Y-75516000D01*
X142268000Y-75475000D01*
X142266000Y-75433000D01*
X142266000Y-74133000D01*
X142268000Y-74091000D01*
X142275000Y-74050000D01*
X142286000Y-74009000D01*
X142301000Y-73970000D01*
X142320000Y-73933000D01*
X142342000Y-73898000D01*
X142369000Y-73865000D01*
X142398000Y-73836000D01*
X142431000Y-73809000D01*
X142466000Y-73787000D01*
X142503000Y-73768000D01*
X142542000Y-73753000D01*
X142583000Y-73742000D01*
X142624000Y-73735000D01*
X142666000Y-73733000D01*
X142708000Y-73735000D01*
G37*
X142708000Y-73735000D02*
X142749000Y-73742000D01*
X142790000Y-73753000D01*
X142829000Y-73768000D01*
X142866000Y-73787000D01*
X142901000Y-73809000D01*
X142934000Y-73836000D01*
X142963000Y-73865000D01*
X142990000Y-73898000D01*
X143012000Y-73933000D01*
X143031000Y-73970000D01*
X143046000Y-74009000D01*
X143057000Y-74050000D01*
X143064000Y-74091000D01*
X143066000Y-74133000D01*
X143066000Y-75433000D01*
X143064000Y-75475000D01*
X143057000Y-75516000D01*
X143046000Y-75557000D01*
X143031000Y-75596000D01*
X143012000Y-75633000D01*
X142990000Y-75668000D01*
X142963000Y-75701000D01*
X142934000Y-75730000D01*
X142901000Y-75757000D01*
X142866000Y-75779000D01*
X142829000Y-75798000D01*
X142790000Y-75813000D01*
X142749000Y-75824000D01*
X142708000Y-75831000D01*
X142666000Y-75833000D01*
X142624000Y-75831000D01*
X142583000Y-75824000D01*
X142542000Y-75813000D01*
X142503000Y-75798000D01*
X142466000Y-75779000D01*
X142431000Y-75757000D01*
X142398000Y-75730000D01*
X142369000Y-75701000D01*
X142342000Y-75668000D01*
X142320000Y-75633000D01*
X142301000Y-75596000D01*
X142286000Y-75557000D01*
X142275000Y-75516000D01*
X142268000Y-75475000D01*
X142266000Y-75433000D01*
X142266000Y-74133000D01*
X142268000Y-74091000D01*
X142275000Y-74050000D01*
X142286000Y-74009000D01*
X142301000Y-73970000D01*
X142320000Y-73933000D01*
X142342000Y-73898000D01*
X142369000Y-73865000D01*
X142398000Y-73836000D01*
X142431000Y-73809000D01*
X142466000Y-73787000D01*
X142503000Y-73768000D01*
X142542000Y-73753000D01*
X142583000Y-73742000D01*
X142624000Y-73735000D01*
X142666000Y-73733000D01*
X142708000Y-73735000D01*
X148566000Y-74783000D02*
X148566000Y-75433000D01*
X148566000Y-75433000D02*
X148564000Y-75475000D01*
X148564000Y-75475000D02*
X148557000Y-75516000D01*
X148557000Y-75516000D02*
X148546000Y-75557000D01*
X148546000Y-75557000D02*
X148531000Y-75596000D01*
X148531000Y-75596000D02*
X148512000Y-75633000D01*
X148512000Y-75633000D02*
X148490000Y-75668000D01*
X148490000Y-75668000D02*
X148463000Y-75701000D01*
X148463000Y-75701000D02*
X148434000Y-75730000D01*
X148434000Y-75730000D02*
X148401000Y-75757000D01*
X148401000Y-75757000D02*
X148366000Y-75779000D01*
X148366000Y-75779000D02*
X148329000Y-75798000D01*
X148329000Y-75798000D02*
X148290000Y-75813000D01*
X148290000Y-75813000D02*
X148249000Y-75824000D01*
X148249000Y-75824000D02*
X148208000Y-75831000D01*
X148208000Y-75831000D02*
X148166000Y-75833000D01*
X148166000Y-75833000D02*
X148124000Y-75831000D01*
X148124000Y-75831000D02*
X148083000Y-75824000D01*
X148083000Y-75824000D02*
X148042000Y-75813000D01*
X148042000Y-75813000D02*
X148003000Y-75798000D01*
X148003000Y-75798000D02*
X147966000Y-75779000D01*
X147966000Y-75779000D02*
X147931000Y-75757000D01*
X147931000Y-75757000D02*
X147898000Y-75730000D01*
X147898000Y-75730000D02*
X147869000Y-75701000D01*
X147869000Y-75701000D02*
X147842000Y-75668000D01*
X147842000Y-75668000D02*
X147820000Y-75633000D01*
X147820000Y-75633000D02*
X147801000Y-75596000D01*
X147801000Y-75596000D02*
X147786000Y-75557000D01*
X147786000Y-75557000D02*
X147775000Y-75516000D01*
X147775000Y-75516000D02*
X147768000Y-75475000D01*
X147768000Y-75475000D02*
X147766000Y-75433000D01*
X147766000Y-75433000D02*
X147766000Y-74133000D01*
X147766000Y-74133000D02*
X147768000Y-74091000D01*
X147768000Y-74091000D02*
X147775000Y-74050000D01*
X147775000Y-74050000D02*
X147786000Y-74009000D01*
X147786000Y-74009000D02*
X147801000Y-73970000D01*
X147801000Y-73970000D02*
X147820000Y-73933000D01*
X147820000Y-73933000D02*
X147842000Y-73898000D01*
X147842000Y-73898000D02*
X147869000Y-73865000D01*
X147869000Y-73865000D02*
X147898000Y-73836000D01*
X147898000Y-73836000D02*
X147931000Y-73809000D01*
X147931000Y-73809000D02*
X147966000Y-73787000D01*
X147966000Y-73787000D02*
X148003000Y-73768000D01*
X148003000Y-73768000D02*
X148042000Y-73753000D01*
X148042000Y-73753000D02*
X148083000Y-73742000D01*
X148083000Y-73742000D02*
X148124000Y-73735000D01*
X148124000Y-73735000D02*
X148166000Y-73733000D01*
X148166000Y-73733000D02*
X148208000Y-73735000D01*
X148208000Y-73735000D02*
X148249000Y-73742000D01*
X148249000Y-73742000D02*
X148290000Y-73753000D01*
X148290000Y-73753000D02*
X148329000Y-73768000D01*
X148329000Y-73768000D02*
X148366000Y-73787000D01*
X148366000Y-73787000D02*
X148401000Y-73809000D01*
X148401000Y-73809000D02*
X148434000Y-73836000D01*
X148434000Y-73836000D02*
X148463000Y-73865000D01*
X148463000Y-73865000D02*
X148490000Y-73898000D01*
X148490000Y-73898000D02*
X148512000Y-73933000D01*
X148512000Y-73933000D02*
X148531000Y-73970000D01*
X148531000Y-73970000D02*
X148546000Y-74009000D01*
X148546000Y-74009000D02*
X148557000Y-74050000D01*
X148557000Y-74050000D02*
X148564000Y-74091000D01*
X148564000Y-74091000D02*
X148566000Y-74133000D01*
X148566000Y-74133000D02*
X148566000Y-74783000D01*
X148566000Y-74783000D02*
X148566000Y-74783000D01*
G36*
X148208000Y-73735000D02*
G01*
X148249000Y-73742000D01*
X148290000Y-73753000D01*
X148329000Y-73768000D01*
X148366000Y-73787000D01*
X148401000Y-73809000D01*
X148434000Y-73836000D01*
X148463000Y-73865000D01*
X148490000Y-73898000D01*
X148512000Y-73933000D01*
X148531000Y-73970000D01*
X148546000Y-74009000D01*
X148557000Y-74050000D01*
X148564000Y-74091000D01*
X148566000Y-74133000D01*
X148566000Y-75433000D01*
X148564000Y-75475000D01*
X148557000Y-75516000D01*
X148546000Y-75557000D01*
X148531000Y-75596000D01*
X148512000Y-75633000D01*
X148490000Y-75668000D01*
X148463000Y-75701000D01*
X148434000Y-75730000D01*
X148401000Y-75757000D01*
X148366000Y-75779000D01*
X148329000Y-75798000D01*
X148290000Y-75813000D01*
X148249000Y-75824000D01*
X148208000Y-75831000D01*
X148166000Y-75833000D01*
X148124000Y-75831000D01*
X148083000Y-75824000D01*
X148042000Y-75813000D01*
X148003000Y-75798000D01*
X147966000Y-75779000D01*
X147931000Y-75757000D01*
X147898000Y-75730000D01*
X147869000Y-75701000D01*
X147842000Y-75668000D01*
X147820000Y-75633000D01*
X147801000Y-75596000D01*
X147786000Y-75557000D01*
X147775000Y-75516000D01*
X147768000Y-75475000D01*
X147766000Y-75433000D01*
X147766000Y-74133000D01*
X147768000Y-74091000D01*
X147775000Y-74050000D01*
X147786000Y-74009000D01*
X147801000Y-73970000D01*
X147820000Y-73933000D01*
X147842000Y-73898000D01*
X147869000Y-73865000D01*
X147898000Y-73836000D01*
X147931000Y-73809000D01*
X147966000Y-73787000D01*
X148003000Y-73768000D01*
X148042000Y-73753000D01*
X148083000Y-73742000D01*
X148124000Y-73735000D01*
X148166000Y-73733000D01*
X148208000Y-73735000D01*
G37*
X148208000Y-73735000D02*
X148249000Y-73742000D01*
X148290000Y-73753000D01*
X148329000Y-73768000D01*
X148366000Y-73787000D01*
X148401000Y-73809000D01*
X148434000Y-73836000D01*
X148463000Y-73865000D01*
X148490000Y-73898000D01*
X148512000Y-73933000D01*
X148531000Y-73970000D01*
X148546000Y-74009000D01*
X148557000Y-74050000D01*
X148564000Y-74091000D01*
X148566000Y-74133000D01*
X148566000Y-75433000D01*
X148564000Y-75475000D01*
X148557000Y-75516000D01*
X148546000Y-75557000D01*
X148531000Y-75596000D01*
X148512000Y-75633000D01*
X148490000Y-75668000D01*
X148463000Y-75701000D01*
X148434000Y-75730000D01*
X148401000Y-75757000D01*
X148366000Y-75779000D01*
X148329000Y-75798000D01*
X148290000Y-75813000D01*
X148249000Y-75824000D01*
X148208000Y-75831000D01*
X148166000Y-75833000D01*
X148124000Y-75831000D01*
X148083000Y-75824000D01*
X148042000Y-75813000D01*
X148003000Y-75798000D01*
X147966000Y-75779000D01*
X147931000Y-75757000D01*
X147898000Y-75730000D01*
X147869000Y-75701000D01*
X147842000Y-75668000D01*
X147820000Y-75633000D01*
X147801000Y-75596000D01*
X147786000Y-75557000D01*
X147775000Y-75516000D01*
X147768000Y-75475000D01*
X147766000Y-75433000D01*
X147766000Y-74133000D01*
X147768000Y-74091000D01*
X147775000Y-74050000D01*
X147786000Y-74009000D01*
X147801000Y-73970000D01*
X147820000Y-73933000D01*
X147842000Y-73898000D01*
X147869000Y-73865000D01*
X147898000Y-73836000D01*
X147931000Y-73809000D01*
X147966000Y-73787000D01*
X148003000Y-73768000D01*
X148042000Y-73753000D01*
X148083000Y-73742000D01*
X148124000Y-73735000D01*
X148166000Y-73733000D01*
X148208000Y-73735000D01*
X145266000Y-84983000D02*
X145266000Y-85633000D01*
X145266000Y-85633000D02*
X145264000Y-85675000D01*
X145264000Y-85675000D02*
X145257000Y-85716000D01*
X145257000Y-85716000D02*
X145246000Y-85757000D01*
X145246000Y-85757000D02*
X145231000Y-85796000D01*
X145231000Y-85796000D02*
X145212000Y-85833000D01*
X145212000Y-85833000D02*
X145190000Y-85868000D01*
X145190000Y-85868000D02*
X145163000Y-85901000D01*
X145163000Y-85901000D02*
X145134000Y-85930000D01*
X145134000Y-85930000D02*
X145101000Y-85957000D01*
X145101000Y-85957000D02*
X145066000Y-85979000D01*
X145066000Y-85979000D02*
X145029000Y-85998000D01*
X145029000Y-85998000D02*
X144990000Y-86013000D01*
X144990000Y-86013000D02*
X144949000Y-86024000D01*
X144949000Y-86024000D02*
X144908000Y-86031000D01*
X144908000Y-86031000D02*
X144866000Y-86033000D01*
X144866000Y-86033000D02*
X144824000Y-86031000D01*
X144824000Y-86031000D02*
X144783000Y-86024000D01*
X144783000Y-86024000D02*
X144742000Y-86013000D01*
X144742000Y-86013000D02*
X144703000Y-85998000D01*
X144703000Y-85998000D02*
X144666000Y-85979000D01*
X144666000Y-85979000D02*
X144631000Y-85957000D01*
X144631000Y-85957000D02*
X144598000Y-85930000D01*
X144598000Y-85930000D02*
X144569000Y-85901000D01*
X144569000Y-85901000D02*
X144542000Y-85868000D01*
X144542000Y-85868000D02*
X144520000Y-85833000D01*
X144520000Y-85833000D02*
X144501000Y-85796000D01*
X144501000Y-85796000D02*
X144486000Y-85757000D01*
X144486000Y-85757000D02*
X144475000Y-85716000D01*
X144475000Y-85716000D02*
X144468000Y-85675000D01*
X144468000Y-85675000D02*
X144466000Y-85633000D01*
X144466000Y-85633000D02*
X144466000Y-84333000D01*
X144466000Y-84333000D02*
X144468000Y-84291000D01*
X144468000Y-84291000D02*
X144475000Y-84250000D01*
X144475000Y-84250000D02*
X144486000Y-84209000D01*
X144486000Y-84209000D02*
X144501000Y-84170000D01*
X144501000Y-84170000D02*
X144520000Y-84133000D01*
X144520000Y-84133000D02*
X144542000Y-84098000D01*
X144542000Y-84098000D02*
X144569000Y-84065000D01*
X144569000Y-84065000D02*
X144598000Y-84036000D01*
X144598000Y-84036000D02*
X144631000Y-84009000D01*
X144631000Y-84009000D02*
X144666000Y-83987000D01*
X144666000Y-83987000D02*
X144703000Y-83968000D01*
X144703000Y-83968000D02*
X144742000Y-83953000D01*
X144742000Y-83953000D02*
X144783000Y-83942000D01*
X144783000Y-83942000D02*
X144824000Y-83935000D01*
X144824000Y-83935000D02*
X144866000Y-83933000D01*
X144866000Y-83933000D02*
X144908000Y-83935000D01*
X144908000Y-83935000D02*
X144949000Y-83942000D01*
X144949000Y-83942000D02*
X144990000Y-83953000D01*
X144990000Y-83953000D02*
X145029000Y-83968000D01*
X145029000Y-83968000D02*
X145066000Y-83987000D01*
X145066000Y-83987000D02*
X145101000Y-84009000D01*
X145101000Y-84009000D02*
X145134000Y-84036000D01*
X145134000Y-84036000D02*
X145163000Y-84065000D01*
X145163000Y-84065000D02*
X145190000Y-84098000D01*
X145190000Y-84098000D02*
X145212000Y-84133000D01*
X145212000Y-84133000D02*
X145231000Y-84170000D01*
X145231000Y-84170000D02*
X145246000Y-84209000D01*
X145246000Y-84209000D02*
X145257000Y-84250000D01*
X145257000Y-84250000D02*
X145264000Y-84291000D01*
X145264000Y-84291000D02*
X145266000Y-84333000D01*
X145266000Y-84333000D02*
X145266000Y-84983000D01*
X145266000Y-84983000D02*
X145266000Y-84983000D01*
G36*
X144908000Y-83935000D02*
G01*
X144949000Y-83942000D01*
X144990000Y-83953000D01*
X145029000Y-83968000D01*
X145066000Y-83987000D01*
X145101000Y-84009000D01*
X145134000Y-84036000D01*
X145163000Y-84065000D01*
X145190000Y-84098000D01*
X145212000Y-84133000D01*
X145231000Y-84170000D01*
X145246000Y-84209000D01*
X145257000Y-84250000D01*
X145264000Y-84291000D01*
X145266000Y-84333000D01*
X145266000Y-85633000D01*
X145264000Y-85675000D01*
X145257000Y-85716000D01*
X145246000Y-85757000D01*
X145231000Y-85796000D01*
X145212000Y-85833000D01*
X145190000Y-85868000D01*
X145163000Y-85901000D01*
X145134000Y-85930000D01*
X145101000Y-85957000D01*
X145066000Y-85979000D01*
X145029000Y-85998000D01*
X144990000Y-86013000D01*
X144949000Y-86024000D01*
X144908000Y-86031000D01*
X144866000Y-86033000D01*
X144824000Y-86031000D01*
X144783000Y-86024000D01*
X144742000Y-86013000D01*
X144703000Y-85998000D01*
X144666000Y-85979000D01*
X144631000Y-85957000D01*
X144598000Y-85930000D01*
X144569000Y-85901000D01*
X144542000Y-85868000D01*
X144520000Y-85833000D01*
X144501000Y-85796000D01*
X144486000Y-85757000D01*
X144475000Y-85716000D01*
X144468000Y-85675000D01*
X144466000Y-85633000D01*
X144466000Y-84333000D01*
X144468000Y-84291000D01*
X144475000Y-84250000D01*
X144486000Y-84209000D01*
X144501000Y-84170000D01*
X144520000Y-84133000D01*
X144542000Y-84098000D01*
X144569000Y-84065000D01*
X144598000Y-84036000D01*
X144631000Y-84009000D01*
X144666000Y-83987000D01*
X144703000Y-83968000D01*
X144742000Y-83953000D01*
X144783000Y-83942000D01*
X144824000Y-83935000D01*
X144866000Y-83933000D01*
X144908000Y-83935000D01*
G37*
X144908000Y-83935000D02*
X144949000Y-83942000D01*
X144990000Y-83953000D01*
X145029000Y-83968000D01*
X145066000Y-83987000D01*
X145101000Y-84009000D01*
X145134000Y-84036000D01*
X145163000Y-84065000D01*
X145190000Y-84098000D01*
X145212000Y-84133000D01*
X145231000Y-84170000D01*
X145246000Y-84209000D01*
X145257000Y-84250000D01*
X145264000Y-84291000D01*
X145266000Y-84333000D01*
X145266000Y-85633000D01*
X145264000Y-85675000D01*
X145257000Y-85716000D01*
X145246000Y-85757000D01*
X145231000Y-85796000D01*
X145212000Y-85833000D01*
X145190000Y-85868000D01*
X145163000Y-85901000D01*
X145134000Y-85930000D01*
X145101000Y-85957000D01*
X145066000Y-85979000D01*
X145029000Y-85998000D01*
X144990000Y-86013000D01*
X144949000Y-86024000D01*
X144908000Y-86031000D01*
X144866000Y-86033000D01*
X144824000Y-86031000D01*
X144783000Y-86024000D01*
X144742000Y-86013000D01*
X144703000Y-85998000D01*
X144666000Y-85979000D01*
X144631000Y-85957000D01*
X144598000Y-85930000D01*
X144569000Y-85901000D01*
X144542000Y-85868000D01*
X144520000Y-85833000D01*
X144501000Y-85796000D01*
X144486000Y-85757000D01*
X144475000Y-85716000D01*
X144468000Y-85675000D01*
X144466000Y-85633000D01*
X144466000Y-84333000D01*
X144468000Y-84291000D01*
X144475000Y-84250000D01*
X144486000Y-84209000D01*
X144501000Y-84170000D01*
X144520000Y-84133000D01*
X144542000Y-84098000D01*
X144569000Y-84065000D01*
X144598000Y-84036000D01*
X144631000Y-84009000D01*
X144666000Y-83987000D01*
X144703000Y-83968000D01*
X144742000Y-83953000D01*
X144783000Y-83942000D01*
X144824000Y-83935000D01*
X144866000Y-83933000D01*
X144908000Y-83935000D01*
X143066000Y-84983000D02*
X143066000Y-85633000D01*
X143066000Y-85633000D02*
X143064000Y-85675000D01*
X143064000Y-85675000D02*
X143057000Y-85716000D01*
X143057000Y-85716000D02*
X143046000Y-85757000D01*
X143046000Y-85757000D02*
X143031000Y-85796000D01*
X143031000Y-85796000D02*
X143012000Y-85833000D01*
X143012000Y-85833000D02*
X142990000Y-85868000D01*
X142990000Y-85868000D02*
X142963000Y-85901000D01*
X142963000Y-85901000D02*
X142934000Y-85930000D01*
X142934000Y-85930000D02*
X142901000Y-85957000D01*
X142901000Y-85957000D02*
X142866000Y-85979000D01*
X142866000Y-85979000D02*
X142829000Y-85998000D01*
X142829000Y-85998000D02*
X142790000Y-86013000D01*
X142790000Y-86013000D02*
X142749000Y-86024000D01*
X142749000Y-86024000D02*
X142708000Y-86031000D01*
X142708000Y-86031000D02*
X142666000Y-86033000D01*
X142666000Y-86033000D02*
X142624000Y-86031000D01*
X142624000Y-86031000D02*
X142583000Y-86024000D01*
X142583000Y-86024000D02*
X142542000Y-86013000D01*
X142542000Y-86013000D02*
X142503000Y-85998000D01*
X142503000Y-85998000D02*
X142466000Y-85979000D01*
X142466000Y-85979000D02*
X142431000Y-85957000D01*
X142431000Y-85957000D02*
X142398000Y-85930000D01*
X142398000Y-85930000D02*
X142369000Y-85901000D01*
X142369000Y-85901000D02*
X142342000Y-85868000D01*
X142342000Y-85868000D02*
X142320000Y-85833000D01*
X142320000Y-85833000D02*
X142301000Y-85796000D01*
X142301000Y-85796000D02*
X142286000Y-85757000D01*
X142286000Y-85757000D02*
X142275000Y-85716000D01*
X142275000Y-85716000D02*
X142268000Y-85675000D01*
X142268000Y-85675000D02*
X142266000Y-85633000D01*
X142266000Y-85633000D02*
X142266000Y-84333000D01*
X142266000Y-84333000D02*
X142268000Y-84291000D01*
X142268000Y-84291000D02*
X142275000Y-84250000D01*
X142275000Y-84250000D02*
X142286000Y-84209000D01*
X142286000Y-84209000D02*
X142301000Y-84170000D01*
X142301000Y-84170000D02*
X142320000Y-84133000D01*
X142320000Y-84133000D02*
X142342000Y-84098000D01*
X142342000Y-84098000D02*
X142369000Y-84065000D01*
X142369000Y-84065000D02*
X142398000Y-84036000D01*
X142398000Y-84036000D02*
X142431000Y-84009000D01*
X142431000Y-84009000D02*
X142466000Y-83987000D01*
X142466000Y-83987000D02*
X142503000Y-83968000D01*
X142503000Y-83968000D02*
X142542000Y-83953000D01*
X142542000Y-83953000D02*
X142583000Y-83942000D01*
X142583000Y-83942000D02*
X142624000Y-83935000D01*
X142624000Y-83935000D02*
X142666000Y-83933000D01*
X142666000Y-83933000D02*
X142708000Y-83935000D01*
X142708000Y-83935000D02*
X142749000Y-83942000D01*
X142749000Y-83942000D02*
X142790000Y-83953000D01*
X142790000Y-83953000D02*
X142829000Y-83968000D01*
X142829000Y-83968000D02*
X142866000Y-83987000D01*
X142866000Y-83987000D02*
X142901000Y-84009000D01*
X142901000Y-84009000D02*
X142934000Y-84036000D01*
X142934000Y-84036000D02*
X142963000Y-84065000D01*
X142963000Y-84065000D02*
X142990000Y-84098000D01*
X142990000Y-84098000D02*
X143012000Y-84133000D01*
X143012000Y-84133000D02*
X143031000Y-84170000D01*
X143031000Y-84170000D02*
X143046000Y-84209000D01*
X143046000Y-84209000D02*
X143057000Y-84250000D01*
X143057000Y-84250000D02*
X143064000Y-84291000D01*
X143064000Y-84291000D02*
X143066000Y-84333000D01*
X143066000Y-84333000D02*
X143066000Y-84983000D01*
X143066000Y-84983000D02*
X143066000Y-84983000D01*
G36*
X142708000Y-83935000D02*
G01*
X142749000Y-83942000D01*
X142790000Y-83953000D01*
X142829000Y-83968000D01*
X142866000Y-83987000D01*
X142901000Y-84009000D01*
X142934000Y-84036000D01*
X142963000Y-84065000D01*
X142990000Y-84098000D01*
X143012000Y-84133000D01*
X143031000Y-84170000D01*
X143046000Y-84209000D01*
X143057000Y-84250000D01*
X143064000Y-84291000D01*
X143066000Y-84333000D01*
X143066000Y-85633000D01*
X143064000Y-85675000D01*
X143057000Y-85716000D01*
X143046000Y-85757000D01*
X143031000Y-85796000D01*
X143012000Y-85833000D01*
X142990000Y-85868000D01*
X142963000Y-85901000D01*
X142934000Y-85930000D01*
X142901000Y-85957000D01*
X142866000Y-85979000D01*
X142829000Y-85998000D01*
X142790000Y-86013000D01*
X142749000Y-86024000D01*
X142708000Y-86031000D01*
X142666000Y-86033000D01*
X142624000Y-86031000D01*
X142583000Y-86024000D01*
X142542000Y-86013000D01*
X142503000Y-85998000D01*
X142466000Y-85979000D01*
X142431000Y-85957000D01*
X142398000Y-85930000D01*
X142369000Y-85901000D01*
X142342000Y-85868000D01*
X142320000Y-85833000D01*
X142301000Y-85796000D01*
X142286000Y-85757000D01*
X142275000Y-85716000D01*
X142268000Y-85675000D01*
X142266000Y-85633000D01*
X142266000Y-84333000D01*
X142268000Y-84291000D01*
X142275000Y-84250000D01*
X142286000Y-84209000D01*
X142301000Y-84170000D01*
X142320000Y-84133000D01*
X142342000Y-84098000D01*
X142369000Y-84065000D01*
X142398000Y-84036000D01*
X142431000Y-84009000D01*
X142466000Y-83987000D01*
X142503000Y-83968000D01*
X142542000Y-83953000D01*
X142583000Y-83942000D01*
X142624000Y-83935000D01*
X142666000Y-83933000D01*
X142708000Y-83935000D01*
G37*
X142708000Y-83935000D02*
X142749000Y-83942000D01*
X142790000Y-83953000D01*
X142829000Y-83968000D01*
X142866000Y-83987000D01*
X142901000Y-84009000D01*
X142934000Y-84036000D01*
X142963000Y-84065000D01*
X142990000Y-84098000D01*
X143012000Y-84133000D01*
X143031000Y-84170000D01*
X143046000Y-84209000D01*
X143057000Y-84250000D01*
X143064000Y-84291000D01*
X143066000Y-84333000D01*
X143066000Y-85633000D01*
X143064000Y-85675000D01*
X143057000Y-85716000D01*
X143046000Y-85757000D01*
X143031000Y-85796000D01*
X143012000Y-85833000D01*
X142990000Y-85868000D01*
X142963000Y-85901000D01*
X142934000Y-85930000D01*
X142901000Y-85957000D01*
X142866000Y-85979000D01*
X142829000Y-85998000D01*
X142790000Y-86013000D01*
X142749000Y-86024000D01*
X142708000Y-86031000D01*
X142666000Y-86033000D01*
X142624000Y-86031000D01*
X142583000Y-86024000D01*
X142542000Y-86013000D01*
X142503000Y-85998000D01*
X142466000Y-85979000D01*
X142431000Y-85957000D01*
X142398000Y-85930000D01*
X142369000Y-85901000D01*
X142342000Y-85868000D01*
X142320000Y-85833000D01*
X142301000Y-85796000D01*
X142286000Y-85757000D01*
X142275000Y-85716000D01*
X142268000Y-85675000D01*
X142266000Y-85633000D01*
X142266000Y-84333000D01*
X142268000Y-84291000D01*
X142275000Y-84250000D01*
X142286000Y-84209000D01*
X142301000Y-84170000D01*
X142320000Y-84133000D01*
X142342000Y-84098000D01*
X142369000Y-84065000D01*
X142398000Y-84036000D01*
X142431000Y-84009000D01*
X142466000Y-83987000D01*
X142503000Y-83968000D01*
X142542000Y-83953000D01*
X142583000Y-83942000D01*
X142624000Y-83935000D01*
X142666000Y-83933000D01*
X142708000Y-83935000D01*
X144166000Y-84983000D02*
X144166000Y-85633000D01*
X144166000Y-85633000D02*
X144164000Y-85675000D01*
X144164000Y-85675000D02*
X144157000Y-85716000D01*
X144157000Y-85716000D02*
X144146000Y-85757000D01*
X144146000Y-85757000D02*
X144131000Y-85796000D01*
X144131000Y-85796000D02*
X144112000Y-85833000D01*
X144112000Y-85833000D02*
X144090000Y-85868000D01*
X144090000Y-85868000D02*
X144063000Y-85901000D01*
X144063000Y-85901000D02*
X144034000Y-85930000D01*
X144034000Y-85930000D02*
X144001000Y-85957000D01*
X144001000Y-85957000D02*
X143966000Y-85979000D01*
X143966000Y-85979000D02*
X143929000Y-85998000D01*
X143929000Y-85998000D02*
X143890000Y-86013000D01*
X143890000Y-86013000D02*
X143849000Y-86024000D01*
X143849000Y-86024000D02*
X143808000Y-86031000D01*
X143808000Y-86031000D02*
X143766000Y-86033000D01*
X143766000Y-86033000D02*
X143724000Y-86031000D01*
X143724000Y-86031000D02*
X143683000Y-86024000D01*
X143683000Y-86024000D02*
X143642000Y-86013000D01*
X143642000Y-86013000D02*
X143603000Y-85998000D01*
X143603000Y-85998000D02*
X143566000Y-85979000D01*
X143566000Y-85979000D02*
X143531000Y-85957000D01*
X143531000Y-85957000D02*
X143498000Y-85930000D01*
X143498000Y-85930000D02*
X143469000Y-85901000D01*
X143469000Y-85901000D02*
X143442000Y-85868000D01*
X143442000Y-85868000D02*
X143420000Y-85833000D01*
X143420000Y-85833000D02*
X143401000Y-85796000D01*
X143401000Y-85796000D02*
X143386000Y-85757000D01*
X143386000Y-85757000D02*
X143375000Y-85716000D01*
X143375000Y-85716000D02*
X143368000Y-85675000D01*
X143368000Y-85675000D02*
X143366000Y-85633000D01*
X143366000Y-85633000D02*
X143366000Y-84333000D01*
X143366000Y-84333000D02*
X143368000Y-84291000D01*
X143368000Y-84291000D02*
X143375000Y-84250000D01*
X143375000Y-84250000D02*
X143386000Y-84209000D01*
X143386000Y-84209000D02*
X143401000Y-84170000D01*
X143401000Y-84170000D02*
X143420000Y-84133000D01*
X143420000Y-84133000D02*
X143442000Y-84098000D01*
X143442000Y-84098000D02*
X143469000Y-84065000D01*
X143469000Y-84065000D02*
X143498000Y-84036000D01*
X143498000Y-84036000D02*
X143531000Y-84009000D01*
X143531000Y-84009000D02*
X143566000Y-83987000D01*
X143566000Y-83987000D02*
X143603000Y-83968000D01*
X143603000Y-83968000D02*
X143642000Y-83953000D01*
X143642000Y-83953000D02*
X143683000Y-83942000D01*
X143683000Y-83942000D02*
X143724000Y-83935000D01*
X143724000Y-83935000D02*
X143766000Y-83933000D01*
X143766000Y-83933000D02*
X143808000Y-83935000D01*
X143808000Y-83935000D02*
X143849000Y-83942000D01*
X143849000Y-83942000D02*
X143890000Y-83953000D01*
X143890000Y-83953000D02*
X143929000Y-83968000D01*
X143929000Y-83968000D02*
X143966000Y-83987000D01*
X143966000Y-83987000D02*
X144001000Y-84009000D01*
X144001000Y-84009000D02*
X144034000Y-84036000D01*
X144034000Y-84036000D02*
X144063000Y-84065000D01*
X144063000Y-84065000D02*
X144090000Y-84098000D01*
X144090000Y-84098000D02*
X144112000Y-84133000D01*
X144112000Y-84133000D02*
X144131000Y-84170000D01*
X144131000Y-84170000D02*
X144146000Y-84209000D01*
X144146000Y-84209000D02*
X144157000Y-84250000D01*
X144157000Y-84250000D02*
X144164000Y-84291000D01*
X144164000Y-84291000D02*
X144166000Y-84333000D01*
X144166000Y-84333000D02*
X144166000Y-84983000D01*
X144166000Y-84983000D02*
X144166000Y-84983000D01*
G36*
X143808000Y-83935000D02*
G01*
X143849000Y-83942000D01*
X143890000Y-83953000D01*
X143929000Y-83968000D01*
X143966000Y-83987000D01*
X144001000Y-84009000D01*
X144034000Y-84036000D01*
X144063000Y-84065000D01*
X144090000Y-84098000D01*
X144112000Y-84133000D01*
X144131000Y-84170000D01*
X144146000Y-84209000D01*
X144157000Y-84250000D01*
X144164000Y-84291000D01*
X144166000Y-84333000D01*
X144166000Y-85633000D01*
X144164000Y-85675000D01*
X144157000Y-85716000D01*
X144146000Y-85757000D01*
X144131000Y-85796000D01*
X144112000Y-85833000D01*
X144090000Y-85868000D01*
X144063000Y-85901000D01*
X144034000Y-85930000D01*
X144001000Y-85957000D01*
X143966000Y-85979000D01*
X143929000Y-85998000D01*
X143890000Y-86013000D01*
X143849000Y-86024000D01*
X143808000Y-86031000D01*
X143766000Y-86033000D01*
X143724000Y-86031000D01*
X143683000Y-86024000D01*
X143642000Y-86013000D01*
X143603000Y-85998000D01*
X143566000Y-85979000D01*
X143531000Y-85957000D01*
X143498000Y-85930000D01*
X143469000Y-85901000D01*
X143442000Y-85868000D01*
X143420000Y-85833000D01*
X143401000Y-85796000D01*
X143386000Y-85757000D01*
X143375000Y-85716000D01*
X143368000Y-85675000D01*
X143366000Y-85633000D01*
X143366000Y-84333000D01*
X143368000Y-84291000D01*
X143375000Y-84250000D01*
X143386000Y-84209000D01*
X143401000Y-84170000D01*
X143420000Y-84133000D01*
X143442000Y-84098000D01*
X143469000Y-84065000D01*
X143498000Y-84036000D01*
X143531000Y-84009000D01*
X143566000Y-83987000D01*
X143603000Y-83968000D01*
X143642000Y-83953000D01*
X143683000Y-83942000D01*
X143724000Y-83935000D01*
X143766000Y-83933000D01*
X143808000Y-83935000D01*
G37*
X143808000Y-83935000D02*
X143849000Y-83942000D01*
X143890000Y-83953000D01*
X143929000Y-83968000D01*
X143966000Y-83987000D01*
X144001000Y-84009000D01*
X144034000Y-84036000D01*
X144063000Y-84065000D01*
X144090000Y-84098000D01*
X144112000Y-84133000D01*
X144131000Y-84170000D01*
X144146000Y-84209000D01*
X144157000Y-84250000D01*
X144164000Y-84291000D01*
X144166000Y-84333000D01*
X144166000Y-85633000D01*
X144164000Y-85675000D01*
X144157000Y-85716000D01*
X144146000Y-85757000D01*
X144131000Y-85796000D01*
X144112000Y-85833000D01*
X144090000Y-85868000D01*
X144063000Y-85901000D01*
X144034000Y-85930000D01*
X144001000Y-85957000D01*
X143966000Y-85979000D01*
X143929000Y-85998000D01*
X143890000Y-86013000D01*
X143849000Y-86024000D01*
X143808000Y-86031000D01*
X143766000Y-86033000D01*
X143724000Y-86031000D01*
X143683000Y-86024000D01*
X143642000Y-86013000D01*
X143603000Y-85998000D01*
X143566000Y-85979000D01*
X143531000Y-85957000D01*
X143498000Y-85930000D01*
X143469000Y-85901000D01*
X143442000Y-85868000D01*
X143420000Y-85833000D01*
X143401000Y-85796000D01*
X143386000Y-85757000D01*
X143375000Y-85716000D01*
X143368000Y-85675000D01*
X143366000Y-85633000D01*
X143366000Y-84333000D01*
X143368000Y-84291000D01*
X143375000Y-84250000D01*
X143386000Y-84209000D01*
X143401000Y-84170000D01*
X143420000Y-84133000D01*
X143442000Y-84098000D01*
X143469000Y-84065000D01*
X143498000Y-84036000D01*
X143531000Y-84009000D01*
X143566000Y-83987000D01*
X143603000Y-83968000D01*
X143642000Y-83953000D01*
X143683000Y-83942000D01*
X143724000Y-83935000D01*
X143766000Y-83933000D01*
X143808000Y-83935000D01*
X144166000Y-74783000D02*
X144166000Y-75433000D01*
X144166000Y-75433000D02*
X144164000Y-75475000D01*
X144164000Y-75475000D02*
X144157000Y-75516000D01*
X144157000Y-75516000D02*
X144146000Y-75557000D01*
X144146000Y-75557000D02*
X144131000Y-75596000D01*
X144131000Y-75596000D02*
X144112000Y-75633000D01*
X144112000Y-75633000D02*
X144090000Y-75668000D01*
X144090000Y-75668000D02*
X144063000Y-75701000D01*
X144063000Y-75701000D02*
X144034000Y-75730000D01*
X144034000Y-75730000D02*
X144001000Y-75757000D01*
X144001000Y-75757000D02*
X143966000Y-75779000D01*
X143966000Y-75779000D02*
X143929000Y-75798000D01*
X143929000Y-75798000D02*
X143890000Y-75813000D01*
X143890000Y-75813000D02*
X143849000Y-75824000D01*
X143849000Y-75824000D02*
X143808000Y-75831000D01*
X143808000Y-75831000D02*
X143766000Y-75833000D01*
X143766000Y-75833000D02*
X143724000Y-75831000D01*
X143724000Y-75831000D02*
X143683000Y-75824000D01*
X143683000Y-75824000D02*
X143642000Y-75813000D01*
X143642000Y-75813000D02*
X143603000Y-75798000D01*
X143603000Y-75798000D02*
X143566000Y-75779000D01*
X143566000Y-75779000D02*
X143531000Y-75757000D01*
X143531000Y-75757000D02*
X143498000Y-75730000D01*
X143498000Y-75730000D02*
X143469000Y-75701000D01*
X143469000Y-75701000D02*
X143442000Y-75668000D01*
X143442000Y-75668000D02*
X143420000Y-75633000D01*
X143420000Y-75633000D02*
X143401000Y-75596000D01*
X143401000Y-75596000D02*
X143386000Y-75557000D01*
X143386000Y-75557000D02*
X143375000Y-75516000D01*
X143375000Y-75516000D02*
X143368000Y-75475000D01*
X143368000Y-75475000D02*
X143366000Y-75433000D01*
X143366000Y-75433000D02*
X143366000Y-74133000D01*
X143366000Y-74133000D02*
X143368000Y-74091000D01*
X143368000Y-74091000D02*
X143375000Y-74050000D01*
X143375000Y-74050000D02*
X143386000Y-74009000D01*
X143386000Y-74009000D02*
X143401000Y-73970000D01*
X143401000Y-73970000D02*
X143420000Y-73933000D01*
X143420000Y-73933000D02*
X143442000Y-73898000D01*
X143442000Y-73898000D02*
X143469000Y-73865000D01*
X143469000Y-73865000D02*
X143498000Y-73836000D01*
X143498000Y-73836000D02*
X143531000Y-73809000D01*
X143531000Y-73809000D02*
X143566000Y-73787000D01*
X143566000Y-73787000D02*
X143603000Y-73768000D01*
X143603000Y-73768000D02*
X143642000Y-73753000D01*
X143642000Y-73753000D02*
X143683000Y-73742000D01*
X143683000Y-73742000D02*
X143724000Y-73735000D01*
X143724000Y-73735000D02*
X143766000Y-73733000D01*
X143766000Y-73733000D02*
X143808000Y-73735000D01*
X143808000Y-73735000D02*
X143849000Y-73742000D01*
X143849000Y-73742000D02*
X143890000Y-73753000D01*
X143890000Y-73753000D02*
X143929000Y-73768000D01*
X143929000Y-73768000D02*
X143966000Y-73787000D01*
X143966000Y-73787000D02*
X144001000Y-73809000D01*
X144001000Y-73809000D02*
X144034000Y-73836000D01*
X144034000Y-73836000D02*
X144063000Y-73865000D01*
X144063000Y-73865000D02*
X144090000Y-73898000D01*
X144090000Y-73898000D02*
X144112000Y-73933000D01*
X144112000Y-73933000D02*
X144131000Y-73970000D01*
X144131000Y-73970000D02*
X144146000Y-74009000D01*
X144146000Y-74009000D02*
X144157000Y-74050000D01*
X144157000Y-74050000D02*
X144164000Y-74091000D01*
X144164000Y-74091000D02*
X144166000Y-74133000D01*
X144166000Y-74133000D02*
X144166000Y-74783000D01*
X144166000Y-74783000D02*
X144166000Y-74783000D01*
G36*
X143808000Y-73735000D02*
G01*
X143849000Y-73742000D01*
X143890000Y-73753000D01*
X143929000Y-73768000D01*
X143966000Y-73787000D01*
X144001000Y-73809000D01*
X144034000Y-73836000D01*
X144063000Y-73865000D01*
X144090000Y-73898000D01*
X144112000Y-73933000D01*
X144131000Y-73970000D01*
X144146000Y-74009000D01*
X144157000Y-74050000D01*
X144164000Y-74091000D01*
X144166000Y-74133000D01*
X144166000Y-75433000D01*
X144164000Y-75475000D01*
X144157000Y-75516000D01*
X144146000Y-75557000D01*
X144131000Y-75596000D01*
X144112000Y-75633000D01*
X144090000Y-75668000D01*
X144063000Y-75701000D01*
X144034000Y-75730000D01*
X144001000Y-75757000D01*
X143966000Y-75779000D01*
X143929000Y-75798000D01*
X143890000Y-75813000D01*
X143849000Y-75824000D01*
X143808000Y-75831000D01*
X143766000Y-75833000D01*
X143724000Y-75831000D01*
X143683000Y-75824000D01*
X143642000Y-75813000D01*
X143603000Y-75798000D01*
X143566000Y-75779000D01*
X143531000Y-75757000D01*
X143498000Y-75730000D01*
X143469000Y-75701000D01*
X143442000Y-75668000D01*
X143420000Y-75633000D01*
X143401000Y-75596000D01*
X143386000Y-75557000D01*
X143375000Y-75516000D01*
X143368000Y-75475000D01*
X143366000Y-75433000D01*
X143366000Y-74133000D01*
X143368000Y-74091000D01*
X143375000Y-74050000D01*
X143386000Y-74009000D01*
X143401000Y-73970000D01*
X143420000Y-73933000D01*
X143442000Y-73898000D01*
X143469000Y-73865000D01*
X143498000Y-73836000D01*
X143531000Y-73809000D01*
X143566000Y-73787000D01*
X143603000Y-73768000D01*
X143642000Y-73753000D01*
X143683000Y-73742000D01*
X143724000Y-73735000D01*
X143766000Y-73733000D01*
X143808000Y-73735000D01*
G37*
X143808000Y-73735000D02*
X143849000Y-73742000D01*
X143890000Y-73753000D01*
X143929000Y-73768000D01*
X143966000Y-73787000D01*
X144001000Y-73809000D01*
X144034000Y-73836000D01*
X144063000Y-73865000D01*
X144090000Y-73898000D01*
X144112000Y-73933000D01*
X144131000Y-73970000D01*
X144146000Y-74009000D01*
X144157000Y-74050000D01*
X144164000Y-74091000D01*
X144166000Y-74133000D01*
X144166000Y-75433000D01*
X144164000Y-75475000D01*
X144157000Y-75516000D01*
X144146000Y-75557000D01*
X144131000Y-75596000D01*
X144112000Y-75633000D01*
X144090000Y-75668000D01*
X144063000Y-75701000D01*
X144034000Y-75730000D01*
X144001000Y-75757000D01*
X143966000Y-75779000D01*
X143929000Y-75798000D01*
X143890000Y-75813000D01*
X143849000Y-75824000D01*
X143808000Y-75831000D01*
X143766000Y-75833000D01*
X143724000Y-75831000D01*
X143683000Y-75824000D01*
X143642000Y-75813000D01*
X143603000Y-75798000D01*
X143566000Y-75779000D01*
X143531000Y-75757000D01*
X143498000Y-75730000D01*
X143469000Y-75701000D01*
X143442000Y-75668000D01*
X143420000Y-75633000D01*
X143401000Y-75596000D01*
X143386000Y-75557000D01*
X143375000Y-75516000D01*
X143368000Y-75475000D01*
X143366000Y-75433000D01*
X143366000Y-74133000D01*
X143368000Y-74091000D01*
X143375000Y-74050000D01*
X143386000Y-74009000D01*
X143401000Y-73970000D01*
X143420000Y-73933000D01*
X143442000Y-73898000D01*
X143469000Y-73865000D01*
X143498000Y-73836000D01*
X143531000Y-73809000D01*
X143566000Y-73787000D01*
X143603000Y-73768000D01*
X143642000Y-73753000D01*
X143683000Y-73742000D01*
X143724000Y-73735000D01*
X143766000Y-73733000D01*
X143808000Y-73735000D01*
X147466000Y-74783000D02*
X147466000Y-75433000D01*
X147466000Y-75433000D02*
X147464000Y-75475000D01*
X147464000Y-75475000D02*
X147457000Y-75516000D01*
X147457000Y-75516000D02*
X147446000Y-75557000D01*
X147446000Y-75557000D02*
X147431000Y-75596000D01*
X147431000Y-75596000D02*
X147412000Y-75633000D01*
X147412000Y-75633000D02*
X147390000Y-75668000D01*
X147390000Y-75668000D02*
X147363000Y-75701000D01*
X147363000Y-75701000D02*
X147334000Y-75730000D01*
X147334000Y-75730000D02*
X147301000Y-75757000D01*
X147301000Y-75757000D02*
X147266000Y-75779000D01*
X147266000Y-75779000D02*
X147229000Y-75798000D01*
X147229000Y-75798000D02*
X147190000Y-75813000D01*
X147190000Y-75813000D02*
X147149000Y-75824000D01*
X147149000Y-75824000D02*
X147108000Y-75831000D01*
X147108000Y-75831000D02*
X147066000Y-75833000D01*
X147066000Y-75833000D02*
X147024000Y-75831000D01*
X147024000Y-75831000D02*
X146983000Y-75824000D01*
X146983000Y-75824000D02*
X146942000Y-75813000D01*
X146942000Y-75813000D02*
X146903000Y-75798000D01*
X146903000Y-75798000D02*
X146866000Y-75779000D01*
X146866000Y-75779000D02*
X146831000Y-75757000D01*
X146831000Y-75757000D02*
X146798000Y-75730000D01*
X146798000Y-75730000D02*
X146769000Y-75701000D01*
X146769000Y-75701000D02*
X146742000Y-75668000D01*
X146742000Y-75668000D02*
X146720000Y-75633000D01*
X146720000Y-75633000D02*
X146701000Y-75596000D01*
X146701000Y-75596000D02*
X146686000Y-75557000D01*
X146686000Y-75557000D02*
X146675000Y-75516000D01*
X146675000Y-75516000D02*
X146668000Y-75475000D01*
X146668000Y-75475000D02*
X146666000Y-75433000D01*
X146666000Y-75433000D02*
X146666000Y-74133000D01*
X146666000Y-74133000D02*
X146668000Y-74091000D01*
X146668000Y-74091000D02*
X146675000Y-74050000D01*
X146675000Y-74050000D02*
X146686000Y-74009000D01*
X146686000Y-74009000D02*
X146701000Y-73970000D01*
X146701000Y-73970000D02*
X146720000Y-73933000D01*
X146720000Y-73933000D02*
X146742000Y-73898000D01*
X146742000Y-73898000D02*
X146769000Y-73865000D01*
X146769000Y-73865000D02*
X146798000Y-73836000D01*
X146798000Y-73836000D02*
X146831000Y-73809000D01*
X146831000Y-73809000D02*
X146866000Y-73787000D01*
X146866000Y-73787000D02*
X146903000Y-73768000D01*
X146903000Y-73768000D02*
X146942000Y-73753000D01*
X146942000Y-73753000D02*
X146983000Y-73742000D01*
X146983000Y-73742000D02*
X147024000Y-73735000D01*
X147024000Y-73735000D02*
X147066000Y-73733000D01*
X147066000Y-73733000D02*
X147108000Y-73735000D01*
X147108000Y-73735000D02*
X147149000Y-73742000D01*
X147149000Y-73742000D02*
X147190000Y-73753000D01*
X147190000Y-73753000D02*
X147229000Y-73768000D01*
X147229000Y-73768000D02*
X147266000Y-73787000D01*
X147266000Y-73787000D02*
X147301000Y-73809000D01*
X147301000Y-73809000D02*
X147334000Y-73836000D01*
X147334000Y-73836000D02*
X147363000Y-73865000D01*
X147363000Y-73865000D02*
X147390000Y-73898000D01*
X147390000Y-73898000D02*
X147412000Y-73933000D01*
X147412000Y-73933000D02*
X147431000Y-73970000D01*
X147431000Y-73970000D02*
X147446000Y-74009000D01*
X147446000Y-74009000D02*
X147457000Y-74050000D01*
X147457000Y-74050000D02*
X147464000Y-74091000D01*
X147464000Y-74091000D02*
X147466000Y-74133000D01*
X147466000Y-74133000D02*
X147466000Y-74783000D01*
X147466000Y-74783000D02*
X147466000Y-74783000D01*
G36*
X147108000Y-73735000D02*
G01*
X147149000Y-73742000D01*
X147190000Y-73753000D01*
X147229000Y-73768000D01*
X147266000Y-73787000D01*
X147301000Y-73809000D01*
X147334000Y-73836000D01*
X147363000Y-73865000D01*
X147390000Y-73898000D01*
X147412000Y-73933000D01*
X147431000Y-73970000D01*
X147446000Y-74009000D01*
X147457000Y-74050000D01*
X147464000Y-74091000D01*
X147466000Y-74133000D01*
X147466000Y-75433000D01*
X147464000Y-75475000D01*
X147457000Y-75516000D01*
X147446000Y-75557000D01*
X147431000Y-75596000D01*
X147412000Y-75633000D01*
X147390000Y-75668000D01*
X147363000Y-75701000D01*
X147334000Y-75730000D01*
X147301000Y-75757000D01*
X147266000Y-75779000D01*
X147229000Y-75798000D01*
X147190000Y-75813000D01*
X147149000Y-75824000D01*
X147108000Y-75831000D01*
X147066000Y-75833000D01*
X147024000Y-75831000D01*
X146983000Y-75824000D01*
X146942000Y-75813000D01*
X146903000Y-75798000D01*
X146866000Y-75779000D01*
X146831000Y-75757000D01*
X146798000Y-75730000D01*
X146769000Y-75701000D01*
X146742000Y-75668000D01*
X146720000Y-75633000D01*
X146701000Y-75596000D01*
X146686000Y-75557000D01*
X146675000Y-75516000D01*
X146668000Y-75475000D01*
X146666000Y-75433000D01*
X146666000Y-74133000D01*
X146668000Y-74091000D01*
X146675000Y-74050000D01*
X146686000Y-74009000D01*
X146701000Y-73970000D01*
X146720000Y-73933000D01*
X146742000Y-73898000D01*
X146769000Y-73865000D01*
X146798000Y-73836000D01*
X146831000Y-73809000D01*
X146866000Y-73787000D01*
X146903000Y-73768000D01*
X146942000Y-73753000D01*
X146983000Y-73742000D01*
X147024000Y-73735000D01*
X147066000Y-73733000D01*
X147108000Y-73735000D01*
G37*
X147108000Y-73735000D02*
X147149000Y-73742000D01*
X147190000Y-73753000D01*
X147229000Y-73768000D01*
X147266000Y-73787000D01*
X147301000Y-73809000D01*
X147334000Y-73836000D01*
X147363000Y-73865000D01*
X147390000Y-73898000D01*
X147412000Y-73933000D01*
X147431000Y-73970000D01*
X147446000Y-74009000D01*
X147457000Y-74050000D01*
X147464000Y-74091000D01*
X147466000Y-74133000D01*
X147466000Y-75433000D01*
X147464000Y-75475000D01*
X147457000Y-75516000D01*
X147446000Y-75557000D01*
X147431000Y-75596000D01*
X147412000Y-75633000D01*
X147390000Y-75668000D01*
X147363000Y-75701000D01*
X147334000Y-75730000D01*
X147301000Y-75757000D01*
X147266000Y-75779000D01*
X147229000Y-75798000D01*
X147190000Y-75813000D01*
X147149000Y-75824000D01*
X147108000Y-75831000D01*
X147066000Y-75833000D01*
X147024000Y-75831000D01*
X146983000Y-75824000D01*
X146942000Y-75813000D01*
X146903000Y-75798000D01*
X146866000Y-75779000D01*
X146831000Y-75757000D01*
X146798000Y-75730000D01*
X146769000Y-75701000D01*
X146742000Y-75668000D01*
X146720000Y-75633000D01*
X146701000Y-75596000D01*
X146686000Y-75557000D01*
X146675000Y-75516000D01*
X146668000Y-75475000D01*
X146666000Y-75433000D01*
X146666000Y-74133000D01*
X146668000Y-74091000D01*
X146675000Y-74050000D01*
X146686000Y-74009000D01*
X146701000Y-73970000D01*
X146720000Y-73933000D01*
X146742000Y-73898000D01*
X146769000Y-73865000D01*
X146798000Y-73836000D01*
X146831000Y-73809000D01*
X146866000Y-73787000D01*
X146903000Y-73768000D01*
X146942000Y-73753000D01*
X146983000Y-73742000D01*
X147024000Y-73735000D01*
X147066000Y-73733000D01*
X147108000Y-73735000D01*
X146366000Y-84983000D02*
X146366000Y-85633000D01*
X146366000Y-85633000D02*
X146364000Y-85675000D01*
X146364000Y-85675000D02*
X146357000Y-85716000D01*
X146357000Y-85716000D02*
X146346000Y-85757000D01*
X146346000Y-85757000D02*
X146331000Y-85796000D01*
X146331000Y-85796000D02*
X146312000Y-85833000D01*
X146312000Y-85833000D02*
X146290000Y-85868000D01*
X146290000Y-85868000D02*
X146263000Y-85901000D01*
X146263000Y-85901000D02*
X146234000Y-85930000D01*
X146234000Y-85930000D02*
X146201000Y-85957000D01*
X146201000Y-85957000D02*
X146166000Y-85979000D01*
X146166000Y-85979000D02*
X146129000Y-85998000D01*
X146129000Y-85998000D02*
X146090000Y-86013000D01*
X146090000Y-86013000D02*
X146049000Y-86024000D01*
X146049000Y-86024000D02*
X146008000Y-86031000D01*
X146008000Y-86031000D02*
X145966000Y-86033000D01*
X145966000Y-86033000D02*
X145924000Y-86031000D01*
X145924000Y-86031000D02*
X145883000Y-86024000D01*
X145883000Y-86024000D02*
X145842000Y-86013000D01*
X145842000Y-86013000D02*
X145803000Y-85998000D01*
X145803000Y-85998000D02*
X145766000Y-85979000D01*
X145766000Y-85979000D02*
X145731000Y-85957000D01*
X145731000Y-85957000D02*
X145698000Y-85930000D01*
X145698000Y-85930000D02*
X145669000Y-85901000D01*
X145669000Y-85901000D02*
X145642000Y-85868000D01*
X145642000Y-85868000D02*
X145620000Y-85833000D01*
X145620000Y-85833000D02*
X145601000Y-85796000D01*
X145601000Y-85796000D02*
X145586000Y-85757000D01*
X145586000Y-85757000D02*
X145575000Y-85716000D01*
X145575000Y-85716000D02*
X145568000Y-85675000D01*
X145568000Y-85675000D02*
X145566000Y-85633000D01*
X145566000Y-85633000D02*
X145566000Y-84333000D01*
X145566000Y-84333000D02*
X145568000Y-84291000D01*
X145568000Y-84291000D02*
X145575000Y-84250000D01*
X145575000Y-84250000D02*
X145586000Y-84209000D01*
X145586000Y-84209000D02*
X145601000Y-84170000D01*
X145601000Y-84170000D02*
X145620000Y-84133000D01*
X145620000Y-84133000D02*
X145642000Y-84098000D01*
X145642000Y-84098000D02*
X145669000Y-84065000D01*
X145669000Y-84065000D02*
X145698000Y-84036000D01*
X145698000Y-84036000D02*
X145731000Y-84009000D01*
X145731000Y-84009000D02*
X145766000Y-83987000D01*
X145766000Y-83987000D02*
X145803000Y-83968000D01*
X145803000Y-83968000D02*
X145842000Y-83953000D01*
X145842000Y-83953000D02*
X145883000Y-83942000D01*
X145883000Y-83942000D02*
X145924000Y-83935000D01*
X145924000Y-83935000D02*
X145966000Y-83933000D01*
X145966000Y-83933000D02*
X146008000Y-83935000D01*
X146008000Y-83935000D02*
X146049000Y-83942000D01*
X146049000Y-83942000D02*
X146090000Y-83953000D01*
X146090000Y-83953000D02*
X146129000Y-83968000D01*
X146129000Y-83968000D02*
X146166000Y-83987000D01*
X146166000Y-83987000D02*
X146201000Y-84009000D01*
X146201000Y-84009000D02*
X146234000Y-84036000D01*
X146234000Y-84036000D02*
X146263000Y-84065000D01*
X146263000Y-84065000D02*
X146290000Y-84098000D01*
X146290000Y-84098000D02*
X146312000Y-84133000D01*
X146312000Y-84133000D02*
X146331000Y-84170000D01*
X146331000Y-84170000D02*
X146346000Y-84209000D01*
X146346000Y-84209000D02*
X146357000Y-84250000D01*
X146357000Y-84250000D02*
X146364000Y-84291000D01*
X146364000Y-84291000D02*
X146366000Y-84333000D01*
X146366000Y-84333000D02*
X146366000Y-84983000D01*
X146366000Y-84983000D02*
X146366000Y-84983000D01*
G36*
X146008000Y-83935000D02*
G01*
X146049000Y-83942000D01*
X146090000Y-83953000D01*
X146129000Y-83968000D01*
X146166000Y-83987000D01*
X146201000Y-84009000D01*
X146234000Y-84036000D01*
X146263000Y-84065000D01*
X146290000Y-84098000D01*
X146312000Y-84133000D01*
X146331000Y-84170000D01*
X146346000Y-84209000D01*
X146357000Y-84250000D01*
X146364000Y-84291000D01*
X146366000Y-84333000D01*
X146366000Y-85633000D01*
X146364000Y-85675000D01*
X146357000Y-85716000D01*
X146346000Y-85757000D01*
X146331000Y-85796000D01*
X146312000Y-85833000D01*
X146290000Y-85868000D01*
X146263000Y-85901000D01*
X146234000Y-85930000D01*
X146201000Y-85957000D01*
X146166000Y-85979000D01*
X146129000Y-85998000D01*
X146090000Y-86013000D01*
X146049000Y-86024000D01*
X146008000Y-86031000D01*
X145966000Y-86033000D01*
X145924000Y-86031000D01*
X145883000Y-86024000D01*
X145842000Y-86013000D01*
X145803000Y-85998000D01*
X145766000Y-85979000D01*
X145731000Y-85957000D01*
X145698000Y-85930000D01*
X145669000Y-85901000D01*
X145642000Y-85868000D01*
X145620000Y-85833000D01*
X145601000Y-85796000D01*
X145586000Y-85757000D01*
X145575000Y-85716000D01*
X145568000Y-85675000D01*
X145566000Y-85633000D01*
X145566000Y-84333000D01*
X145568000Y-84291000D01*
X145575000Y-84250000D01*
X145586000Y-84209000D01*
X145601000Y-84170000D01*
X145620000Y-84133000D01*
X145642000Y-84098000D01*
X145669000Y-84065000D01*
X145698000Y-84036000D01*
X145731000Y-84009000D01*
X145766000Y-83987000D01*
X145803000Y-83968000D01*
X145842000Y-83953000D01*
X145883000Y-83942000D01*
X145924000Y-83935000D01*
X145966000Y-83933000D01*
X146008000Y-83935000D01*
G37*
X146008000Y-83935000D02*
X146049000Y-83942000D01*
X146090000Y-83953000D01*
X146129000Y-83968000D01*
X146166000Y-83987000D01*
X146201000Y-84009000D01*
X146234000Y-84036000D01*
X146263000Y-84065000D01*
X146290000Y-84098000D01*
X146312000Y-84133000D01*
X146331000Y-84170000D01*
X146346000Y-84209000D01*
X146357000Y-84250000D01*
X146364000Y-84291000D01*
X146366000Y-84333000D01*
X146366000Y-85633000D01*
X146364000Y-85675000D01*
X146357000Y-85716000D01*
X146346000Y-85757000D01*
X146331000Y-85796000D01*
X146312000Y-85833000D01*
X146290000Y-85868000D01*
X146263000Y-85901000D01*
X146234000Y-85930000D01*
X146201000Y-85957000D01*
X146166000Y-85979000D01*
X146129000Y-85998000D01*
X146090000Y-86013000D01*
X146049000Y-86024000D01*
X146008000Y-86031000D01*
X145966000Y-86033000D01*
X145924000Y-86031000D01*
X145883000Y-86024000D01*
X145842000Y-86013000D01*
X145803000Y-85998000D01*
X145766000Y-85979000D01*
X145731000Y-85957000D01*
X145698000Y-85930000D01*
X145669000Y-85901000D01*
X145642000Y-85868000D01*
X145620000Y-85833000D01*
X145601000Y-85796000D01*
X145586000Y-85757000D01*
X145575000Y-85716000D01*
X145568000Y-85675000D01*
X145566000Y-85633000D01*
X145566000Y-84333000D01*
X145568000Y-84291000D01*
X145575000Y-84250000D01*
X145586000Y-84209000D01*
X145601000Y-84170000D01*
X145620000Y-84133000D01*
X145642000Y-84098000D01*
X145669000Y-84065000D01*
X145698000Y-84036000D01*
X145731000Y-84009000D01*
X145766000Y-83987000D01*
X145803000Y-83968000D01*
X145842000Y-83953000D01*
X145883000Y-83942000D01*
X145924000Y-83935000D01*
X145966000Y-83933000D01*
X146008000Y-83935000D01*
X146366000Y-74783000D02*
X146366000Y-75433000D01*
X146366000Y-75433000D02*
X146364000Y-75475000D01*
X146364000Y-75475000D02*
X146357000Y-75516000D01*
X146357000Y-75516000D02*
X146346000Y-75557000D01*
X146346000Y-75557000D02*
X146331000Y-75596000D01*
X146331000Y-75596000D02*
X146312000Y-75633000D01*
X146312000Y-75633000D02*
X146290000Y-75668000D01*
X146290000Y-75668000D02*
X146263000Y-75701000D01*
X146263000Y-75701000D02*
X146234000Y-75730000D01*
X146234000Y-75730000D02*
X146201000Y-75757000D01*
X146201000Y-75757000D02*
X146166000Y-75779000D01*
X146166000Y-75779000D02*
X146129000Y-75798000D01*
X146129000Y-75798000D02*
X146090000Y-75813000D01*
X146090000Y-75813000D02*
X146049000Y-75824000D01*
X146049000Y-75824000D02*
X146008000Y-75831000D01*
X146008000Y-75831000D02*
X145966000Y-75833000D01*
X145966000Y-75833000D02*
X145924000Y-75831000D01*
X145924000Y-75831000D02*
X145883000Y-75824000D01*
X145883000Y-75824000D02*
X145842000Y-75813000D01*
X145842000Y-75813000D02*
X145803000Y-75798000D01*
X145803000Y-75798000D02*
X145766000Y-75779000D01*
X145766000Y-75779000D02*
X145731000Y-75757000D01*
X145731000Y-75757000D02*
X145698000Y-75730000D01*
X145698000Y-75730000D02*
X145669000Y-75701000D01*
X145669000Y-75701000D02*
X145642000Y-75668000D01*
X145642000Y-75668000D02*
X145620000Y-75633000D01*
X145620000Y-75633000D02*
X145601000Y-75596000D01*
X145601000Y-75596000D02*
X145586000Y-75557000D01*
X145586000Y-75557000D02*
X145575000Y-75516000D01*
X145575000Y-75516000D02*
X145568000Y-75475000D01*
X145568000Y-75475000D02*
X145566000Y-75433000D01*
X145566000Y-75433000D02*
X145566000Y-74133000D01*
X145566000Y-74133000D02*
X145568000Y-74091000D01*
X145568000Y-74091000D02*
X145575000Y-74050000D01*
X145575000Y-74050000D02*
X145586000Y-74009000D01*
X145586000Y-74009000D02*
X145601000Y-73970000D01*
X145601000Y-73970000D02*
X145620000Y-73933000D01*
X145620000Y-73933000D02*
X145642000Y-73898000D01*
X145642000Y-73898000D02*
X145669000Y-73865000D01*
X145669000Y-73865000D02*
X145698000Y-73836000D01*
X145698000Y-73836000D02*
X145731000Y-73809000D01*
X145731000Y-73809000D02*
X145766000Y-73787000D01*
X145766000Y-73787000D02*
X145803000Y-73768000D01*
X145803000Y-73768000D02*
X145842000Y-73753000D01*
X145842000Y-73753000D02*
X145883000Y-73742000D01*
X145883000Y-73742000D02*
X145924000Y-73735000D01*
X145924000Y-73735000D02*
X145966000Y-73733000D01*
X145966000Y-73733000D02*
X146008000Y-73735000D01*
X146008000Y-73735000D02*
X146049000Y-73742000D01*
X146049000Y-73742000D02*
X146090000Y-73753000D01*
X146090000Y-73753000D02*
X146129000Y-73768000D01*
X146129000Y-73768000D02*
X146166000Y-73787000D01*
X146166000Y-73787000D02*
X146201000Y-73809000D01*
X146201000Y-73809000D02*
X146234000Y-73836000D01*
X146234000Y-73836000D02*
X146263000Y-73865000D01*
X146263000Y-73865000D02*
X146290000Y-73898000D01*
X146290000Y-73898000D02*
X146312000Y-73933000D01*
X146312000Y-73933000D02*
X146331000Y-73970000D01*
X146331000Y-73970000D02*
X146346000Y-74009000D01*
X146346000Y-74009000D02*
X146357000Y-74050000D01*
X146357000Y-74050000D02*
X146364000Y-74091000D01*
X146364000Y-74091000D02*
X146366000Y-74133000D01*
X146366000Y-74133000D02*
X146366000Y-74783000D01*
X146366000Y-74783000D02*
X146366000Y-74783000D01*
G36*
X146008000Y-73735000D02*
G01*
X146049000Y-73742000D01*
X146090000Y-73753000D01*
X146129000Y-73768000D01*
X146166000Y-73787000D01*
X146201000Y-73809000D01*
X146234000Y-73836000D01*
X146263000Y-73865000D01*
X146290000Y-73898000D01*
X146312000Y-73933000D01*
X146331000Y-73970000D01*
X146346000Y-74009000D01*
X146357000Y-74050000D01*
X146364000Y-74091000D01*
X146366000Y-74133000D01*
X146366000Y-75433000D01*
X146364000Y-75475000D01*
X146357000Y-75516000D01*
X146346000Y-75557000D01*
X146331000Y-75596000D01*
X146312000Y-75633000D01*
X146290000Y-75668000D01*
X146263000Y-75701000D01*
X146234000Y-75730000D01*
X146201000Y-75757000D01*
X146166000Y-75779000D01*
X146129000Y-75798000D01*
X146090000Y-75813000D01*
X146049000Y-75824000D01*
X146008000Y-75831000D01*
X145966000Y-75833000D01*
X145924000Y-75831000D01*
X145883000Y-75824000D01*
X145842000Y-75813000D01*
X145803000Y-75798000D01*
X145766000Y-75779000D01*
X145731000Y-75757000D01*
X145698000Y-75730000D01*
X145669000Y-75701000D01*
X145642000Y-75668000D01*
X145620000Y-75633000D01*
X145601000Y-75596000D01*
X145586000Y-75557000D01*
X145575000Y-75516000D01*
X145568000Y-75475000D01*
X145566000Y-75433000D01*
X145566000Y-74133000D01*
X145568000Y-74091000D01*
X145575000Y-74050000D01*
X145586000Y-74009000D01*
X145601000Y-73970000D01*
X145620000Y-73933000D01*
X145642000Y-73898000D01*
X145669000Y-73865000D01*
X145698000Y-73836000D01*
X145731000Y-73809000D01*
X145766000Y-73787000D01*
X145803000Y-73768000D01*
X145842000Y-73753000D01*
X145883000Y-73742000D01*
X145924000Y-73735000D01*
X145966000Y-73733000D01*
X146008000Y-73735000D01*
G37*
X146008000Y-73735000D02*
X146049000Y-73742000D01*
X146090000Y-73753000D01*
X146129000Y-73768000D01*
X146166000Y-73787000D01*
X146201000Y-73809000D01*
X146234000Y-73836000D01*
X146263000Y-73865000D01*
X146290000Y-73898000D01*
X146312000Y-73933000D01*
X146331000Y-73970000D01*
X146346000Y-74009000D01*
X146357000Y-74050000D01*
X146364000Y-74091000D01*
X146366000Y-74133000D01*
X146366000Y-75433000D01*
X146364000Y-75475000D01*
X146357000Y-75516000D01*
X146346000Y-75557000D01*
X146331000Y-75596000D01*
X146312000Y-75633000D01*
X146290000Y-75668000D01*
X146263000Y-75701000D01*
X146234000Y-75730000D01*
X146201000Y-75757000D01*
X146166000Y-75779000D01*
X146129000Y-75798000D01*
X146090000Y-75813000D01*
X146049000Y-75824000D01*
X146008000Y-75831000D01*
X145966000Y-75833000D01*
X145924000Y-75831000D01*
X145883000Y-75824000D01*
X145842000Y-75813000D01*
X145803000Y-75798000D01*
X145766000Y-75779000D01*
X145731000Y-75757000D01*
X145698000Y-75730000D01*
X145669000Y-75701000D01*
X145642000Y-75668000D01*
X145620000Y-75633000D01*
X145601000Y-75596000D01*
X145586000Y-75557000D01*
X145575000Y-75516000D01*
X145568000Y-75475000D01*
X145566000Y-75433000D01*
X145566000Y-74133000D01*
X145568000Y-74091000D01*
X145575000Y-74050000D01*
X145586000Y-74009000D01*
X145601000Y-73970000D01*
X145620000Y-73933000D01*
X145642000Y-73898000D01*
X145669000Y-73865000D01*
X145698000Y-73836000D01*
X145731000Y-73809000D01*
X145766000Y-73787000D01*
X145803000Y-73768000D01*
X145842000Y-73753000D01*
X145883000Y-73742000D01*
X145924000Y-73735000D01*
X145966000Y-73733000D01*
X146008000Y-73735000D01*
X149666000Y-74783000D02*
X149666000Y-75433000D01*
X149666000Y-75433000D02*
X149664000Y-75475000D01*
X149664000Y-75475000D02*
X149657000Y-75516000D01*
X149657000Y-75516000D02*
X149646000Y-75557000D01*
X149646000Y-75557000D02*
X149631000Y-75596000D01*
X149631000Y-75596000D02*
X149612000Y-75633000D01*
X149612000Y-75633000D02*
X149590000Y-75668000D01*
X149590000Y-75668000D02*
X149563000Y-75701000D01*
X149563000Y-75701000D02*
X149534000Y-75730000D01*
X149534000Y-75730000D02*
X149501000Y-75757000D01*
X149501000Y-75757000D02*
X149466000Y-75779000D01*
X149466000Y-75779000D02*
X149429000Y-75798000D01*
X149429000Y-75798000D02*
X149390000Y-75813000D01*
X149390000Y-75813000D02*
X149349000Y-75824000D01*
X149349000Y-75824000D02*
X149308000Y-75831000D01*
X149308000Y-75831000D02*
X149266000Y-75833000D01*
X149266000Y-75833000D02*
X149224000Y-75831000D01*
X149224000Y-75831000D02*
X149183000Y-75824000D01*
X149183000Y-75824000D02*
X149142000Y-75813000D01*
X149142000Y-75813000D02*
X149103000Y-75798000D01*
X149103000Y-75798000D02*
X149066000Y-75779000D01*
X149066000Y-75779000D02*
X149031000Y-75757000D01*
X149031000Y-75757000D02*
X148998000Y-75730000D01*
X148998000Y-75730000D02*
X148969000Y-75701000D01*
X148969000Y-75701000D02*
X148942000Y-75668000D01*
X148942000Y-75668000D02*
X148920000Y-75633000D01*
X148920000Y-75633000D02*
X148901000Y-75596000D01*
X148901000Y-75596000D02*
X148886000Y-75557000D01*
X148886000Y-75557000D02*
X148875000Y-75516000D01*
X148875000Y-75516000D02*
X148868000Y-75475000D01*
X148868000Y-75475000D02*
X148866000Y-75433000D01*
X148866000Y-75433000D02*
X148866000Y-74133000D01*
X148866000Y-74133000D02*
X148868000Y-74091000D01*
X148868000Y-74091000D02*
X148875000Y-74050000D01*
X148875000Y-74050000D02*
X148886000Y-74009000D01*
X148886000Y-74009000D02*
X148901000Y-73970000D01*
X148901000Y-73970000D02*
X148920000Y-73933000D01*
X148920000Y-73933000D02*
X148942000Y-73898000D01*
X148942000Y-73898000D02*
X148969000Y-73865000D01*
X148969000Y-73865000D02*
X148998000Y-73836000D01*
X148998000Y-73836000D02*
X149031000Y-73809000D01*
X149031000Y-73809000D02*
X149066000Y-73787000D01*
X149066000Y-73787000D02*
X149103000Y-73768000D01*
X149103000Y-73768000D02*
X149142000Y-73753000D01*
X149142000Y-73753000D02*
X149183000Y-73742000D01*
X149183000Y-73742000D02*
X149224000Y-73735000D01*
X149224000Y-73735000D02*
X149266000Y-73733000D01*
X149266000Y-73733000D02*
X149308000Y-73735000D01*
X149308000Y-73735000D02*
X149349000Y-73742000D01*
X149349000Y-73742000D02*
X149390000Y-73753000D01*
X149390000Y-73753000D02*
X149429000Y-73768000D01*
X149429000Y-73768000D02*
X149466000Y-73787000D01*
X149466000Y-73787000D02*
X149501000Y-73809000D01*
X149501000Y-73809000D02*
X149534000Y-73836000D01*
X149534000Y-73836000D02*
X149563000Y-73865000D01*
X149563000Y-73865000D02*
X149590000Y-73898000D01*
X149590000Y-73898000D02*
X149612000Y-73933000D01*
X149612000Y-73933000D02*
X149631000Y-73970000D01*
X149631000Y-73970000D02*
X149646000Y-74009000D01*
X149646000Y-74009000D02*
X149657000Y-74050000D01*
X149657000Y-74050000D02*
X149664000Y-74091000D01*
X149664000Y-74091000D02*
X149666000Y-74133000D01*
X149666000Y-74133000D02*
X149666000Y-74783000D01*
X149666000Y-74783000D02*
X149666000Y-74783000D01*
G36*
X149308000Y-73735000D02*
G01*
X149349000Y-73742000D01*
X149390000Y-73753000D01*
X149429000Y-73768000D01*
X149466000Y-73787000D01*
X149501000Y-73809000D01*
X149534000Y-73836000D01*
X149563000Y-73865000D01*
X149590000Y-73898000D01*
X149612000Y-73933000D01*
X149631000Y-73970000D01*
X149646000Y-74009000D01*
X149657000Y-74050000D01*
X149664000Y-74091000D01*
X149666000Y-74133000D01*
X149666000Y-75433000D01*
X149664000Y-75475000D01*
X149657000Y-75516000D01*
X149646000Y-75557000D01*
X149631000Y-75596000D01*
X149612000Y-75633000D01*
X149590000Y-75668000D01*
X149563000Y-75701000D01*
X149534000Y-75730000D01*
X149501000Y-75757000D01*
X149466000Y-75779000D01*
X149429000Y-75798000D01*
X149390000Y-75813000D01*
X149349000Y-75824000D01*
X149308000Y-75831000D01*
X149266000Y-75833000D01*
X149224000Y-75831000D01*
X149183000Y-75824000D01*
X149142000Y-75813000D01*
X149103000Y-75798000D01*
X149066000Y-75779000D01*
X149031000Y-75757000D01*
X148998000Y-75730000D01*
X148969000Y-75701000D01*
X148942000Y-75668000D01*
X148920000Y-75633000D01*
X148901000Y-75596000D01*
X148886000Y-75557000D01*
X148875000Y-75516000D01*
X148868000Y-75475000D01*
X148866000Y-75433000D01*
X148866000Y-74133000D01*
X148868000Y-74091000D01*
X148875000Y-74050000D01*
X148886000Y-74009000D01*
X148901000Y-73970000D01*
X148920000Y-73933000D01*
X148942000Y-73898000D01*
X148969000Y-73865000D01*
X148998000Y-73836000D01*
X149031000Y-73809000D01*
X149066000Y-73787000D01*
X149103000Y-73768000D01*
X149142000Y-73753000D01*
X149183000Y-73742000D01*
X149224000Y-73735000D01*
X149266000Y-73733000D01*
X149308000Y-73735000D01*
G37*
X149308000Y-73735000D02*
X149349000Y-73742000D01*
X149390000Y-73753000D01*
X149429000Y-73768000D01*
X149466000Y-73787000D01*
X149501000Y-73809000D01*
X149534000Y-73836000D01*
X149563000Y-73865000D01*
X149590000Y-73898000D01*
X149612000Y-73933000D01*
X149631000Y-73970000D01*
X149646000Y-74009000D01*
X149657000Y-74050000D01*
X149664000Y-74091000D01*
X149666000Y-74133000D01*
X149666000Y-75433000D01*
X149664000Y-75475000D01*
X149657000Y-75516000D01*
X149646000Y-75557000D01*
X149631000Y-75596000D01*
X149612000Y-75633000D01*
X149590000Y-75668000D01*
X149563000Y-75701000D01*
X149534000Y-75730000D01*
X149501000Y-75757000D01*
X149466000Y-75779000D01*
X149429000Y-75798000D01*
X149390000Y-75813000D01*
X149349000Y-75824000D01*
X149308000Y-75831000D01*
X149266000Y-75833000D01*
X149224000Y-75831000D01*
X149183000Y-75824000D01*
X149142000Y-75813000D01*
X149103000Y-75798000D01*
X149066000Y-75779000D01*
X149031000Y-75757000D01*
X148998000Y-75730000D01*
X148969000Y-75701000D01*
X148942000Y-75668000D01*
X148920000Y-75633000D01*
X148901000Y-75596000D01*
X148886000Y-75557000D01*
X148875000Y-75516000D01*
X148868000Y-75475000D01*
X148866000Y-75433000D01*
X148866000Y-74133000D01*
X148868000Y-74091000D01*
X148875000Y-74050000D01*
X148886000Y-74009000D01*
X148901000Y-73970000D01*
X148920000Y-73933000D01*
X148942000Y-73898000D01*
X148969000Y-73865000D01*
X148998000Y-73836000D01*
X149031000Y-73809000D01*
X149066000Y-73787000D01*
X149103000Y-73768000D01*
X149142000Y-73753000D01*
X149183000Y-73742000D01*
X149224000Y-73735000D01*
X149266000Y-73733000D01*
X149308000Y-73735000D01*
X147466000Y-84983000D02*
X147466000Y-85633000D01*
X147466000Y-85633000D02*
X147464000Y-85675000D01*
X147464000Y-85675000D02*
X147457000Y-85716000D01*
X147457000Y-85716000D02*
X147446000Y-85757000D01*
X147446000Y-85757000D02*
X147431000Y-85796000D01*
X147431000Y-85796000D02*
X147412000Y-85833000D01*
X147412000Y-85833000D02*
X147390000Y-85868000D01*
X147390000Y-85868000D02*
X147363000Y-85901000D01*
X147363000Y-85901000D02*
X147334000Y-85930000D01*
X147334000Y-85930000D02*
X147301000Y-85957000D01*
X147301000Y-85957000D02*
X147266000Y-85979000D01*
X147266000Y-85979000D02*
X147229000Y-85998000D01*
X147229000Y-85998000D02*
X147190000Y-86013000D01*
X147190000Y-86013000D02*
X147149000Y-86024000D01*
X147149000Y-86024000D02*
X147108000Y-86031000D01*
X147108000Y-86031000D02*
X147066000Y-86033000D01*
X147066000Y-86033000D02*
X147024000Y-86031000D01*
X147024000Y-86031000D02*
X146983000Y-86024000D01*
X146983000Y-86024000D02*
X146942000Y-86013000D01*
X146942000Y-86013000D02*
X146903000Y-85998000D01*
X146903000Y-85998000D02*
X146866000Y-85979000D01*
X146866000Y-85979000D02*
X146831000Y-85957000D01*
X146831000Y-85957000D02*
X146798000Y-85930000D01*
X146798000Y-85930000D02*
X146769000Y-85901000D01*
X146769000Y-85901000D02*
X146742000Y-85868000D01*
X146742000Y-85868000D02*
X146720000Y-85833000D01*
X146720000Y-85833000D02*
X146701000Y-85796000D01*
X146701000Y-85796000D02*
X146686000Y-85757000D01*
X146686000Y-85757000D02*
X146675000Y-85716000D01*
X146675000Y-85716000D02*
X146668000Y-85675000D01*
X146668000Y-85675000D02*
X146666000Y-85633000D01*
X146666000Y-85633000D02*
X146666000Y-84333000D01*
X146666000Y-84333000D02*
X146668000Y-84291000D01*
X146668000Y-84291000D02*
X146675000Y-84250000D01*
X146675000Y-84250000D02*
X146686000Y-84209000D01*
X146686000Y-84209000D02*
X146701000Y-84170000D01*
X146701000Y-84170000D02*
X146720000Y-84133000D01*
X146720000Y-84133000D02*
X146742000Y-84098000D01*
X146742000Y-84098000D02*
X146769000Y-84065000D01*
X146769000Y-84065000D02*
X146798000Y-84036000D01*
X146798000Y-84036000D02*
X146831000Y-84009000D01*
X146831000Y-84009000D02*
X146866000Y-83987000D01*
X146866000Y-83987000D02*
X146903000Y-83968000D01*
X146903000Y-83968000D02*
X146942000Y-83953000D01*
X146942000Y-83953000D02*
X146983000Y-83942000D01*
X146983000Y-83942000D02*
X147024000Y-83935000D01*
X147024000Y-83935000D02*
X147066000Y-83933000D01*
X147066000Y-83933000D02*
X147108000Y-83935000D01*
X147108000Y-83935000D02*
X147149000Y-83942000D01*
X147149000Y-83942000D02*
X147190000Y-83953000D01*
X147190000Y-83953000D02*
X147229000Y-83968000D01*
X147229000Y-83968000D02*
X147266000Y-83987000D01*
X147266000Y-83987000D02*
X147301000Y-84009000D01*
X147301000Y-84009000D02*
X147334000Y-84036000D01*
X147334000Y-84036000D02*
X147363000Y-84065000D01*
X147363000Y-84065000D02*
X147390000Y-84098000D01*
X147390000Y-84098000D02*
X147412000Y-84133000D01*
X147412000Y-84133000D02*
X147431000Y-84170000D01*
X147431000Y-84170000D02*
X147446000Y-84209000D01*
X147446000Y-84209000D02*
X147457000Y-84250000D01*
X147457000Y-84250000D02*
X147464000Y-84291000D01*
X147464000Y-84291000D02*
X147466000Y-84333000D01*
X147466000Y-84333000D02*
X147466000Y-84983000D01*
X147466000Y-84983000D02*
X147466000Y-84983000D01*
G36*
X147108000Y-83935000D02*
G01*
X147149000Y-83942000D01*
X147190000Y-83953000D01*
X147229000Y-83968000D01*
X147266000Y-83987000D01*
X147301000Y-84009000D01*
X147334000Y-84036000D01*
X147363000Y-84065000D01*
X147390000Y-84098000D01*
X147412000Y-84133000D01*
X147431000Y-84170000D01*
X147446000Y-84209000D01*
X147457000Y-84250000D01*
X147464000Y-84291000D01*
X147466000Y-84333000D01*
X147466000Y-85633000D01*
X147464000Y-85675000D01*
X147457000Y-85716000D01*
X147446000Y-85757000D01*
X147431000Y-85796000D01*
X147412000Y-85833000D01*
X147390000Y-85868000D01*
X147363000Y-85901000D01*
X147334000Y-85930000D01*
X147301000Y-85957000D01*
X147266000Y-85979000D01*
X147229000Y-85998000D01*
X147190000Y-86013000D01*
X147149000Y-86024000D01*
X147108000Y-86031000D01*
X147066000Y-86033000D01*
X147024000Y-86031000D01*
X146983000Y-86024000D01*
X146942000Y-86013000D01*
X146903000Y-85998000D01*
X146866000Y-85979000D01*
X146831000Y-85957000D01*
X146798000Y-85930000D01*
X146769000Y-85901000D01*
X146742000Y-85868000D01*
X146720000Y-85833000D01*
X146701000Y-85796000D01*
X146686000Y-85757000D01*
X146675000Y-85716000D01*
X146668000Y-85675000D01*
X146666000Y-85633000D01*
X146666000Y-84333000D01*
X146668000Y-84291000D01*
X146675000Y-84250000D01*
X146686000Y-84209000D01*
X146701000Y-84170000D01*
X146720000Y-84133000D01*
X146742000Y-84098000D01*
X146769000Y-84065000D01*
X146798000Y-84036000D01*
X146831000Y-84009000D01*
X146866000Y-83987000D01*
X146903000Y-83968000D01*
X146942000Y-83953000D01*
X146983000Y-83942000D01*
X147024000Y-83935000D01*
X147066000Y-83933000D01*
X147108000Y-83935000D01*
G37*
X147108000Y-83935000D02*
X147149000Y-83942000D01*
X147190000Y-83953000D01*
X147229000Y-83968000D01*
X147266000Y-83987000D01*
X147301000Y-84009000D01*
X147334000Y-84036000D01*
X147363000Y-84065000D01*
X147390000Y-84098000D01*
X147412000Y-84133000D01*
X147431000Y-84170000D01*
X147446000Y-84209000D01*
X147457000Y-84250000D01*
X147464000Y-84291000D01*
X147466000Y-84333000D01*
X147466000Y-85633000D01*
X147464000Y-85675000D01*
X147457000Y-85716000D01*
X147446000Y-85757000D01*
X147431000Y-85796000D01*
X147412000Y-85833000D01*
X147390000Y-85868000D01*
X147363000Y-85901000D01*
X147334000Y-85930000D01*
X147301000Y-85957000D01*
X147266000Y-85979000D01*
X147229000Y-85998000D01*
X147190000Y-86013000D01*
X147149000Y-86024000D01*
X147108000Y-86031000D01*
X147066000Y-86033000D01*
X147024000Y-86031000D01*
X146983000Y-86024000D01*
X146942000Y-86013000D01*
X146903000Y-85998000D01*
X146866000Y-85979000D01*
X146831000Y-85957000D01*
X146798000Y-85930000D01*
X146769000Y-85901000D01*
X146742000Y-85868000D01*
X146720000Y-85833000D01*
X146701000Y-85796000D01*
X146686000Y-85757000D01*
X146675000Y-85716000D01*
X146668000Y-85675000D01*
X146666000Y-85633000D01*
X146666000Y-84333000D01*
X146668000Y-84291000D01*
X146675000Y-84250000D01*
X146686000Y-84209000D01*
X146701000Y-84170000D01*
X146720000Y-84133000D01*
X146742000Y-84098000D01*
X146769000Y-84065000D01*
X146798000Y-84036000D01*
X146831000Y-84009000D01*
X146866000Y-83987000D01*
X146903000Y-83968000D01*
X146942000Y-83953000D01*
X146983000Y-83942000D01*
X147024000Y-83935000D01*
X147066000Y-83933000D01*
X147108000Y-83935000D01*
%TD*%
D12*
%TO.C,U9*%
X164835586Y-110248700D03*
X164185600Y-110248700D03*
X163535614Y-110248700D03*
X163535614Y-112255300D03*
X164185600Y-112255300D03*
X164835586Y-112255300D03*
D13*
X164185600Y-111252000D03*
%TD*%
D14*
%TO.C,Q5*%
X148448000Y-100722000D03*
X149098000Y-100722000D03*
X149748000Y-100722000D03*
D15*
X149623000Y-99822000D03*
D14*
X149748000Y-98922000D03*
X149098000Y-98922000D03*
X148448000Y-98922000D03*
D15*
X148573000Y-99822000D03*
%TD*%
D16*
%TO.C,U7*%
X161463200Y-46875900D03*
X161963200Y-46875900D03*
X162463200Y-46875900D03*
D17*
X163279700Y-47190400D03*
X163279700Y-47690400D03*
X163279700Y-48190400D03*
X163279700Y-48690400D03*
D18*
X162463200Y-49004900D03*
X161963200Y-49004900D03*
X161463200Y-49004900D03*
D19*
X160646700Y-48690400D03*
X160646700Y-48190400D03*
X160646700Y-47690400D03*
X160646700Y-47190400D03*
%TD*%
D20*
%TO.C,U10*%
X167112100Y-70271600D03*
X167112100Y-71221600D03*
X167112100Y-72171600D03*
X169387100Y-72171600D03*
X169387100Y-71221600D03*
X169387100Y-70271600D03*
%TD*%
D21*
%TO.C,U1*%
X150919540Y-63208505D03*
X151202382Y-63491348D03*
X151485225Y-63774191D03*
X151768068Y-64057033D03*
X152050910Y-64339876D03*
X152333753Y-64622719D03*
X152616596Y-64905562D03*
X152899438Y-65188404D03*
X153182281Y-65471247D03*
X153465124Y-65754090D03*
X153747967Y-66036932D03*
X154030809Y-66319775D03*
X154313652Y-66602618D03*
X154596495Y-66885460D03*
D22*
X155791505Y-66885460D03*
X156074348Y-66602618D03*
X156357191Y-66319775D03*
X156640033Y-66036932D03*
X156922876Y-65754090D03*
X157205719Y-65471247D03*
X157488562Y-65188404D03*
X157771404Y-64905562D03*
X158054247Y-64622719D03*
X158337090Y-64339876D03*
X158619932Y-64057033D03*
X158902775Y-63774191D03*
X159185618Y-63491348D03*
X159468460Y-63208505D03*
D21*
X159468460Y-62013495D03*
X159185618Y-61730652D03*
X158902775Y-61447809D03*
X158619932Y-61164967D03*
X158337090Y-60882124D03*
X158054247Y-60599281D03*
X157771404Y-60316438D03*
X157488562Y-60033596D03*
X157205719Y-59750753D03*
X156922876Y-59467910D03*
X156640033Y-59185068D03*
X156357191Y-58902225D03*
X156074348Y-58619382D03*
X155791505Y-58336540D03*
D22*
X154596495Y-58336540D03*
X154313652Y-58619382D03*
X154030809Y-58902225D03*
X153747967Y-59185068D03*
X153465124Y-59467910D03*
X153182281Y-59750753D03*
X152899438Y-60033596D03*
X152616596Y-60316438D03*
X152333753Y-60599281D03*
X152050910Y-60882124D03*
X151768068Y-61164967D03*
X151485225Y-61447809D03*
X151202382Y-61730652D03*
X150919540Y-62013495D03*
%TD*%
D14*
%TO.C,Q2*%
X148448000Y-106564000D03*
X149098000Y-106564000D03*
X149748000Y-106564000D03*
D15*
X149623000Y-105664000D03*
D14*
X149748000Y-104764000D03*
X149098000Y-104764000D03*
X148448000Y-104764000D03*
D15*
X148573000Y-105664000D03*
%TD*%
D14*
%TO.C,Q4*%
X148448000Y-112660000D03*
X149098000Y-112660000D03*
D15*
X149623000Y-111760000D03*
D14*
X149748000Y-112660000D03*
X149748000Y-110860000D03*
X149098000Y-110860000D03*
D15*
X148573000Y-111760000D03*
D14*
X148448000Y-110860000D03*
%TD*%
%TO.C,Q3*%
X148448000Y-118806800D03*
X149098000Y-118806800D03*
X149748000Y-118806800D03*
D15*
X149623000Y-117906800D03*
D14*
X149748000Y-117006800D03*
X149098000Y-117006800D03*
X148448000Y-117006800D03*
D15*
X148573000Y-117906800D03*
%TD*%
D23*
%TO.C,D2*%
X149075000Y-88265000D03*
X148105000Y-88265000D03*
%TD*%
D24*
%TO.C,R27*%
X162050000Y-89255600D03*
X163070000Y-89255600D03*
%TD*%
D25*
%TO.C,R34*%
X166575200Y-83312000D03*
X165555200Y-83312000D03*
%TD*%
D24*
%TO.C,R16*%
X148842000Y-93345000D03*
X149862000Y-93345000D03*
%TD*%
%TO.C,R42*%
X156563600Y-73355200D03*
X157583600Y-73355200D03*
%TD*%
D26*
%TO.C,R59*%
X154736800Y-99007200D03*
X154736800Y-100027200D03*
%TD*%
D25*
%TO.C,R39*%
X166575200Y-84277200D03*
X165555200Y-84277200D03*
%TD*%
%TO.C,R37*%
X166575200Y-86749466D03*
X165555200Y-86749466D03*
%TD*%
D27*
%TO.C,R15*%
X161036000Y-56517000D03*
X161036000Y-55497000D03*
%TD*%
D28*
%TO.C,C3*%
X149273200Y-68529200D03*
X148313200Y-68529200D03*
%TD*%
D25*
%TO.C,R60*%
X149862000Y-108966000D03*
X148842000Y-108966000D03*
%TD*%
D29*
%TO.C,F1*%
X169796700Y-115773200D03*
X167921700Y-115773200D03*
%TD*%
D28*
%TO.C,C24*%
X143736000Y-72263000D03*
X142776000Y-72263000D03*
%TD*%
D26*
%TO.C,R41*%
X149148800Y-36015200D03*
X149148800Y-37035200D03*
%TD*%
D25*
%TO.C,R38*%
X166575200Y-85496400D03*
X165555200Y-85496400D03*
%TD*%
D24*
%TO.C,R8*%
X149045200Y-59029600D03*
X150065200Y-59029600D03*
%TD*%
D28*
%TO.C,C6*%
X149273200Y-66903600D03*
X148313200Y-66903600D03*
%TD*%
%TO.C,C46*%
X166646800Y-41198800D03*
X165686800Y-41198800D03*
%TD*%
D30*
%TO.C,U12*%
X147107000Y-49596000D03*
X147107000Y-50546000D03*
X147107000Y-51496000D03*
X149597000Y-51496000D03*
X149597000Y-50546000D03*
X149597000Y-49596000D03*
%TD*%
D25*
%TO.C,R24*%
X170486800Y-109931200D03*
X169466800Y-109931200D03*
%TD*%
D28*
%TO.C,C37*%
X164614800Y-113334800D03*
X163654800Y-113334800D03*
%TD*%
D27*
%TO.C,R44*%
X154736800Y-104142000D03*
X154736800Y-103122000D03*
%TD*%
D25*
%TO.C,R36*%
X166575200Y-88002532D03*
X165555200Y-88002532D03*
%TD*%
D27*
%TO.C,R54*%
X154736800Y-110111000D03*
X154736800Y-109091000D03*
%TD*%
D31*
%TO.C,Y1*%
X150365000Y-56723000D03*
X150365000Y-54523000D03*
X148765000Y-54523000D03*
X148765000Y-56723000D03*
%TD*%
D25*
%TO.C,R25*%
X170385200Y-106426000D03*
X169365200Y-106426000D03*
%TD*%
D32*
%TO.C,L3*%
X143256000Y-90447000D03*
X143256000Y-91417000D03*
%TD*%
D33*
%TO.C,C32*%
X148082000Y-89055000D03*
X148082000Y-90015000D03*
%TD*%
D25*
%TO.C,R50*%
X149912800Y-102870000D03*
X148892800Y-102870000D03*
%TD*%
D34*
%TO.C,C17*%
X167284400Y-43710800D03*
X167284400Y-42750800D03*
%TD*%
D35*
%TO.C,U4*%
X164404400Y-53637800D03*
X163904400Y-53637800D03*
X163404400Y-53637800D03*
X162904400Y-53637800D03*
X162404400Y-53637800D03*
D36*
X161990400Y-54551800D03*
D37*
X161990400Y-55052800D03*
D38*
X161990400Y-55556800D03*
D35*
X162404400Y-56465800D03*
X162904400Y-56465800D03*
D39*
X163405400Y-56465800D03*
D35*
X163904400Y-56465800D03*
X164404400Y-56465800D03*
D38*
X164818400Y-55556800D03*
D36*
X164818400Y-55051800D03*
X164818400Y-54551800D03*
%TD*%
D28*
%TO.C,C23*%
X143736000Y-73279000D03*
X142776000Y-73279000D03*
%TD*%
%TO.C,C16*%
X166748400Y-48869600D03*
X165788400Y-48869600D03*
%TD*%
D25*
%TO.C,R4*%
X146306000Y-57931269D03*
X145286000Y-57931269D03*
%TD*%
D40*
%TO.C,F3*%
X145643600Y-118183900D03*
X145643600Y-116308900D03*
%TD*%
D25*
%TO.C,R55*%
X154688000Y-98044000D03*
X153668000Y-98044000D03*
%TD*%
D41*
%TO.C,C14*%
X148567200Y-58166000D03*
X149527200Y-58166000D03*
%TD*%
D42*
%TO.C,C10*%
X158359789Y-66665789D03*
X159038611Y-67344611D03*
%TD*%
D28*
%TO.C,C49*%
X149832000Y-109855000D03*
X148872000Y-109855000D03*
%TD*%
D43*
%TO.C,U6*%
X146939000Y-92186000D03*
X146939000Y-91686000D03*
X146939000Y-91186000D03*
X146939000Y-90686000D03*
X146939000Y-90186000D03*
X144399000Y-90186000D03*
X144399000Y-90686000D03*
X144399000Y-91186000D03*
X144399000Y-91686000D03*
X144399000Y-92186000D03*
%TD*%
D28*
%TO.C,C42*%
X145463200Y-53721000D03*
X144503200Y-53721000D03*
%TD*%
D25*
%TO.C,R1*%
X146306000Y-59182000D03*
X145286000Y-59182000D03*
%TD*%
D34*
%TO.C,C4*%
X150266400Y-68958400D03*
X150266400Y-67998400D03*
%TD*%
D26*
%TO.C,R52*%
X150622000Y-104773000D03*
X150622000Y-105793000D03*
%TD*%
D44*
%TO.C,U11*%
X163677400Y-58686000D03*
X163677400Y-59956000D03*
X163677400Y-61226000D03*
X163677400Y-62496000D03*
X169367400Y-62496000D03*
X169367400Y-61226000D03*
X169367400Y-59956000D03*
X169367400Y-58686000D03*
%TD*%
D25*
%TO.C,R35*%
X166575200Y-89255600D03*
X165555200Y-89255600D03*
%TD*%
D45*
%TO.C,L1*%
X147472400Y-63601600D03*
X148442400Y-63601600D03*
%TD*%
D26*
%TO.C,R58*%
X154736800Y-111152000D03*
X154736800Y-112172000D03*
%TD*%
D41*
%TO.C,C41*%
X151031000Y-50546000D03*
X151991000Y-50546000D03*
%TD*%
D40*
%TO.C,F2*%
X145643600Y-106736966D03*
X145643600Y-104861966D03*
%TD*%
D46*
%TO.C,AE1*%
X142494000Y-65303600D03*
X142494000Y-68503600D03*
%TD*%
D24*
%TO.C,R32*%
X162050000Y-88036400D03*
X163070000Y-88036400D03*
%TD*%
D47*
%TO.C,D3*%
X168324800Y-77927200D03*
X165024800Y-77927200D03*
%TD*%
D28*
%TO.C,C28*%
X163802000Y-51181000D03*
X162842000Y-51181000D03*
%TD*%
D48*
%TO.C,C11*%
X154092589Y-55559011D03*
X154771411Y-54880189D03*
%TD*%
D41*
%TO.C,C12*%
X160556000Y-61874400D03*
X161516000Y-61874400D03*
%TD*%
D25*
%TO.C,R51*%
X150065200Y-115112800D03*
X149045200Y-115112800D03*
%TD*%
%TO.C,R3*%
X146306000Y-56642000D03*
X145286000Y-56642000D03*
%TD*%
D27*
%TO.C,R30*%
X145796000Y-39626000D03*
X145796000Y-38606000D03*
%TD*%
D41*
%TO.C,C22*%
X164467600Y-52578000D03*
X165427600Y-52578000D03*
%TD*%
D25*
%TO.C,R17*%
X149862000Y-92202000D03*
X148842000Y-92202000D03*
%TD*%
D49*
%TO.C,FB2*%
X143891000Y-51308000D03*
X145541000Y-51308000D03*
%TD*%
D50*
%TO.C,R21*%
X157632400Y-120791700D03*
X157632400Y-117866700D03*
%TD*%
D28*
%TO.C,C26*%
X149070000Y-91186000D03*
X148110000Y-91186000D03*
%TD*%
D26*
%TO.C,R12*%
X149225000Y-72134000D03*
X149225000Y-73154000D03*
%TD*%
D40*
%TO.C,F5*%
X145643600Y-101013500D03*
X145643600Y-99138500D03*
%TD*%
D28*
%TO.C,C39*%
X169951289Y-57707400D03*
X168991289Y-57707400D03*
%TD*%
D51*
%TO.C,U3*%
X167789625Y-44742411D03*
X167289625Y-44742411D03*
X166789625Y-44742411D03*
X166289625Y-44742411D03*
D52*
X165562125Y-45469911D03*
X165562125Y-45969911D03*
X165562125Y-46469911D03*
X165562125Y-46969911D03*
D51*
X166289625Y-47697411D03*
X166789625Y-47697411D03*
X167289625Y-47697411D03*
X167789625Y-47697411D03*
D52*
X168517125Y-46969911D03*
X168517125Y-46469911D03*
X168517125Y-45969911D03*
X168517125Y-45469911D03*
%TD*%
D53*
%TO.C,R6*%
X160761624Y-65989200D03*
X160040376Y-65267952D03*
%TD*%
D25*
%TO.C,R47*%
X149102000Y-119888000D03*
X148082000Y-119888000D03*
%TD*%
D26*
%TO.C,R49*%
X154736800Y-117396800D03*
X154736800Y-118416800D03*
%TD*%
%TO.C,R29*%
X146939000Y-38606000D03*
X146939000Y-39626000D03*
%TD*%
D54*
%TO.C,U2*%
X156622600Y-48560200D03*
X156622600Y-47310200D03*
X156622600Y-46060200D03*
X156622600Y-44810200D03*
X154222600Y-44810200D03*
X154222600Y-46060200D03*
X154222600Y-47310200D03*
X154222600Y-48560200D03*
%TD*%
D47*
%TO.C,D4*%
X161365200Y-115011200D03*
X158065200Y-115011200D03*
%TD*%
D34*
%TO.C,C9*%
X149352000Y-60932000D03*
X149352000Y-59972000D03*
%TD*%
D24*
%TO.C,R19*%
X157986000Y-113284000D03*
X159006000Y-113284000D03*
%TD*%
D28*
%TO.C,C33*%
X158976000Y-110998000D03*
X158016000Y-110998000D03*
%TD*%
%TO.C,C50*%
X150035200Y-97942400D03*
X149075200Y-97942400D03*
%TD*%
D27*
%TO.C,R13*%
X150368000Y-73154000D03*
X150368000Y-72134000D03*
%TD*%
D25*
%TO.C,R20*%
X159006000Y-112014000D03*
X157986000Y-112014000D03*
%TD*%
%TO.C,R2*%
X146306000Y-60452000D03*
X145286000Y-60452000D03*
%TD*%
D26*
%TO.C,R11*%
X148234400Y-71067200D03*
X148234400Y-72087200D03*
%TD*%
D55*
%TO.C,L2*%
X149059853Y-65874947D03*
X149745747Y-65189053D03*
%TD*%
D41*
%TO.C,C21*%
X165737600Y-55524400D03*
X166697600Y-55524400D03*
%TD*%
D34*
%TO.C,C1*%
X147472400Y-62608400D03*
X147472400Y-61648400D03*
%TD*%
D28*
%TO.C,C5*%
X149273200Y-67716400D03*
X148313200Y-67716400D03*
%TD*%
D25*
%TO.C,R18*%
X163550000Y-45847000D03*
X162530000Y-45847000D03*
%TD*%
D41*
%TO.C,C20*%
X165737600Y-54660800D03*
X166697600Y-54660800D03*
%TD*%
D25*
%TO.C,R23*%
X170486800Y-113436400D03*
X169466800Y-113436400D03*
%TD*%
D24*
%TO.C,R43*%
X167993600Y-84277200D03*
X169013600Y-84277200D03*
%TD*%
D53*
%TO.C,R7*%
X161396624Y-65333824D03*
X160675376Y-64612576D03*
%TD*%
D24*
%TO.C,R9*%
X165098000Y-43942000D03*
X166118000Y-43942000D03*
%TD*%
D41*
%TO.C,C13*%
X160556000Y-60909200D03*
X161516000Y-60909200D03*
%TD*%
D25*
%TO.C,R56*%
X149100000Y-113665000D03*
X148080000Y-113665000D03*
%TD*%
D34*
%TO.C,C19*%
X169773600Y-46860400D03*
X169773600Y-45900400D03*
%TD*%
D28*
%TO.C,C36*%
X164716400Y-109169200D03*
X163756400Y-109169200D03*
%TD*%
D34*
%TO.C,C44*%
X167690800Y-57020400D03*
X167690800Y-56060400D03*
%TD*%
D27*
%TO.C,R45*%
X154736800Y-116384800D03*
X154736800Y-115364800D03*
%TD*%
D26*
%TO.C,R5*%
X150266400Y-66038000D03*
X150266400Y-67058000D03*
%TD*%
D27*
%TO.C,R28*%
X150241000Y-37086000D03*
X150241000Y-36066000D03*
%TD*%
D25*
%TO.C,FB1*%
X146001200Y-72237600D03*
X144981200Y-72237600D03*
%TD*%
D28*
%TO.C,C30*%
X145740000Y-87376000D03*
X144780000Y-87376000D03*
%TD*%
D40*
%TO.C,F4*%
X145643600Y-112460432D03*
X145643600Y-110585432D03*
%TD*%
D34*
%TO.C,C38*%
X165608000Y-117523200D03*
X165608000Y-116563200D03*
%TD*%
D56*
%TO.C,D11*%
X159357926Y-81125926D03*
X157024474Y-78792474D03*
%TD*%
D26*
%TO.C,R48*%
X154736800Y-105154000D03*
X154736800Y-106174000D03*
%TD*%
D57*
%TO.C,U8*%
X170214600Y-119250600D03*
X167914600Y-119250600D03*
X165614600Y-119250600D03*
D58*
X167914600Y-125300600D03*
%TD*%
D25*
%TO.C,R57*%
X149049200Y-101701600D03*
X148029200Y-101701600D03*
%TD*%
D41*
%TO.C,C31*%
X160909000Y-50038000D03*
X161869000Y-50038000D03*
%TD*%
D28*
%TO.C,C40*%
X169948800Y-56794400D03*
X168988800Y-56794400D03*
%TD*%
%TO.C,C43*%
X145463200Y-52705000D03*
X144503200Y-52705000D03*
%TD*%
D59*
%TO.C,C7*%
X150402611Y-64550611D03*
X149723789Y-63871789D03*
%TD*%
D28*
%TO.C,C47*%
X149882800Y-103784400D03*
X148922800Y-103784400D03*
%TD*%
D33*
%TO.C,C45*%
X166624000Y-49913600D03*
X166624000Y-50873600D03*
%TD*%
D25*
%TO.C,R61*%
X150065200Y-97028000D03*
X149045200Y-97028000D03*
%TD*%
D60*
%TO.C,Q1*%
X158074400Y-74754500D03*
X156174400Y-74754500D03*
X157124400Y-76629500D03*
%TD*%
D26*
%TO.C,R62*%
X150622000Y-110869000D03*
X150622000Y-111889000D03*
%TD*%
D34*
%TO.C,C25*%
X143891000Y-88364000D03*
X143891000Y-87404000D03*
%TD*%
D26*
%TO.C,R63*%
X150723600Y-98956400D03*
X150723600Y-99976400D03*
%TD*%
D28*
%TO.C,C29*%
X163774000Y-50038000D03*
X162814000Y-50038000D03*
%TD*%
D26*
%TO.C,R31*%
X152019000Y-38606000D03*
X152019000Y-39626000D03*
%TD*%
D41*
%TO.C,C15*%
X149126000Y-53086000D03*
X150086000Y-53086000D03*
%TD*%
D34*
%TO.C,C18*%
X157988000Y-48359000D03*
X157988000Y-47399000D03*
%TD*%
D25*
%TO.C,R10*%
X155958000Y-43434000D03*
X154938000Y-43434000D03*
%TD*%
D34*
%TO.C,C2*%
X148449000Y-62621000D03*
X148449000Y-61661000D03*
%TD*%
D25*
%TO.C,R40*%
X166422800Y-63855600D03*
X165402800Y-63855600D03*
%TD*%
D28*
%TO.C,C48*%
X150035200Y-116027200D03*
X149075200Y-116027200D03*
%TD*%
D34*
%TO.C,C8*%
X150241000Y-60932000D03*
X150241000Y-59972000D03*
%TD*%
D26*
%TO.C,R53*%
X150672800Y-116990400D03*
X150672800Y-118010400D03*
%TD*%
D41*
%TO.C,C35*%
X167972800Y-117348000D03*
X168932800Y-117348000D03*
%TD*%
D24*
%TO.C,R22*%
X159916400Y-110998000D03*
X160936400Y-110998000D03*
%TD*%
D25*
%TO.C,R26*%
X166364000Y-57191000D03*
X165344000Y-57191000D03*
%TD*%
%TO.C,R46*%
X149051200Y-107594400D03*
X148031200Y-107594400D03*
%TD*%
D61*
%TO.C,J5*%
X154627000Y-34594800D03*
X163127000Y-34594800D03*
%TD*%
M02*
