%TF.GenerationSoftware,KiCad,Pcbnew,(6.0.1)*%
%TF.CreationDate,2022-06-27T00:16:49+02:00*%
%TF.ProjectId,kp-ptr,6b702d70-7472-42e6-9b69-6361645f7063,rev?*%
%TF.SameCoordinates,Original*%
%TF.FileFunction,Legend,Top*%
%TF.FilePolarity,Positive*%
%FSLAX46Y46*%
G04 Gerber Fmt 4.6, Leading zero omitted, Abs format (unit mm)*
G04 Created by KiCad (PCBNEW (6.0.1)) date 2022-06-27 00:16:49*
%MOMM*%
%LPD*%
G01*
G04 APERTURE LIST*
G04 Aperture macros list*
%AMRoundRect*
0 Rectangle with rounded corners*
0 $1 Rounding radius*
0 $2 $3 $4 $5 $6 $7 $8 $9 X,Y pos of 4 corners*
0 Add a 4 corners polygon primitive as box body*
4,1,4,$2,$3,$4,$5,$6,$7,$8,$9,$2,$3,0*
0 Add four circle primitives for the rounded corners*
1,1,$1+$1,$2,$3*
1,1,$1+$1,$4,$5*
1,1,$1+$1,$6,$7*
1,1,$1+$1,$8,$9*
0 Add four rect primitives between the rounded corners*
20,1,$1+$1,$2,$3,$4,$5,0*
20,1,$1+$1,$4,$5,$6,$7,0*
20,1,$1+$1,$6,$7,$8,$9,0*
20,1,$1+$1,$8,$9,$2,$3,0*%
%AMRotRect*
0 Rectangle, with rotation*
0 The origin of the aperture is its center*
0 $1 length*
0 $2 width*
0 $3 Rotation angle, in degrees counterclockwise*
0 Add horizontal line*
21,1,$1,$2,0,0,$3*%
G04 Aperture macros list end*
%ADD10C,0.250000*%
%ADD11C,0.150000*%
%ADD12C,0.140000*%
%ADD13C,0.127000*%
%ADD14C,0.300000*%
%ADD15C,0.200000*%
%ADD16C,0.343981*%
%ADD17C,0.120000*%
%ADD18C,0.100000*%
%ADD19C,0.400000*%
%ADD20C,2.850000*%
%ADD21R,0.304800X0.609600*%
%ADD22R,1.701800X1.092200*%
%ADD23R,0.350000X0.500000*%
%ADD24R,0.600000X1.000000*%
%ADD25RoundRect,0.031500X-0.143500X0.428000X-0.143500X-0.428000X0.143500X-0.428000X0.143500X0.428000X0*%
%ADD26RoundRect,0.031500X0.430000X0.143500X-0.430000X0.143500X-0.430000X-0.143500X0.430000X-0.143500X0*%
%ADD27RoundRect,0.031500X0.143500X-0.428000X0.143500X0.428000X-0.143500X0.428000X-0.143500X-0.428000X0*%
%ADD28RoundRect,0.031500X-0.430000X-0.143500X0.430000X-0.143500X0.430000X0.143500X-0.430000X0.143500X0*%
%ADD29RoundRect,0.150000X-0.512500X-0.150000X0.512500X-0.150000X0.512500X0.150000X-0.512500X0.150000X0*%
%ADD30RoundRect,0.006600X-0.208597X-0.354826X0.354826X0.208597X0.208597X0.354826X-0.354826X-0.208597X0*%
%ADD31RoundRect,0.022000X0.208597X-0.333047X0.333047X-0.208597X-0.208597X0.333047X-0.333047X0.208597X0*%
%ADD32RotRect,4.000000X4.000000X45.000000*%
%ADD33RoundRect,0.147500X0.147500X0.172500X-0.147500X0.172500X-0.147500X-0.172500X0.147500X-0.172500X0*%
%ADD34RoundRect,0.135000X-0.135000X-0.185000X0.135000X-0.185000X0.135000X0.185000X-0.135000X0.185000X0*%
%ADD35RoundRect,0.135000X0.135000X0.185000X-0.135000X0.185000X-0.135000X-0.185000X0.135000X-0.185000X0*%
%ADD36RoundRect,0.135000X-0.185000X0.135000X-0.185000X-0.135000X0.185000X-0.135000X0.185000X0.135000X0*%
%ADD37RoundRect,0.135000X0.185000X-0.135000X0.185000X0.135000X-0.185000X0.135000X-0.185000X-0.135000X0*%
%ADD38RoundRect,0.140000X0.140000X0.170000X-0.140000X0.170000X-0.140000X-0.170000X0.140000X-0.170000X0*%
%ADD39RoundRect,0.243750X0.243750X0.456250X-0.243750X0.456250X-0.243750X-0.456250X0.243750X-0.456250X0*%
%ADD40RoundRect,0.040600X-0.569400X-0.249400X0.569400X-0.249400X0.569400X0.249400X-0.569400X0.249400X0*%
%ADD41R,1.150000X1.400000*%
%ADD42RoundRect,0.147500X-0.172500X0.147500X-0.172500X-0.147500X0.172500X-0.147500X0.172500X0.147500X0*%
%ADD43RoundRect,0.140000X-0.170000X0.140000X-0.170000X-0.140000X0.170000X-0.140000X0.170000X0.140000X0*%
%ADD44RoundRect,0.140000X0.170000X-0.140000X0.170000X0.140000X-0.170000X0.140000X-0.170000X-0.140000X0*%
%ADD45R,0.250000X0.728000*%
%ADD46R,0.728000X0.250000*%
%ADD47R,0.728000X0.252000*%
%ADD48R,0.728000X0.260000*%
%ADD49R,0.252000X0.728000*%
%ADD50RoundRect,0.243750X0.456250X-0.243750X0.456250X0.243750X-0.456250X0.243750X-0.456250X-0.243750X0*%
%ADD51RoundRect,0.140000X-0.140000X-0.170000X0.140000X-0.170000X0.140000X0.170000X-0.140000X0.170000X0*%
%ADD52RoundRect,0.140000X-0.219203X-0.021213X-0.021213X-0.219203X0.219203X0.021213X0.021213X0.219203X0*%
%ADD53RoundRect,0.008100X0.386900X0.126900X-0.386900X0.126900X-0.386900X-0.126900X0.386900X-0.126900X0*%
%ADD54R,1.240000X2.130000*%
%ADD55RoundRect,0.026400X-0.493600X-0.193600X0.493600X-0.193600X0.493600X0.193600X-0.493600X0.193600X0*%
%ADD56R,3.400000X4.300000*%
%ADD57RoundRect,0.147500X-0.147500X-0.172500X0.147500X-0.172500X0.147500X0.172500X-0.147500X0.172500X0*%
%ADD58RoundRect,0.200000X-0.600000X0.200000X-0.600000X-0.200000X0.600000X-0.200000X0.600000X0.200000X0*%
%ADD59R,0.900000X1.200000*%
%ADD60RoundRect,0.140000X0.021213X-0.219203X0.219203X-0.021213X-0.021213X0.219203X-0.219203X0.021213X0*%
%ADD61RoundRect,0.200000X-0.200000X-0.275000X0.200000X-0.275000X0.200000X0.275000X-0.200000X0.275000X0*%
%ADD62RoundRect,0.250000X0.625000X-0.312500X0.625000X0.312500X-0.625000X0.312500X-0.625000X-0.312500X0*%
%ADD63R,0.300000X0.855000*%
%ADD64R,0.855000X0.300000*%
%ADD65RoundRect,0.135000X0.226274X0.035355X0.035355X0.226274X-0.226274X-0.035355X-0.035355X-0.226274X0*%
%ADD66RoundRect,0.021200X0.633800X0.243800X-0.633800X0.243800X-0.633800X-0.243800X0.633800X-0.243800X0*%
%ADD67O,0.800000X1.800000*%
%ADD68RoundRect,0.147500X0.017678X-0.226274X0.226274X-0.017678X-0.017678X0.226274X-0.226274X0.017678X0*%
%ADD69RotRect,0.900000X1.200000X135.000000*%
%ADD70R,0.850800X1.761200*%
%ADD71R,3.150799X1.761200*%
%ADD72RoundRect,0.140000X0.219203X0.021213X0.021213X0.219203X-0.219203X-0.021213X-0.021213X-0.219203X0*%
%ADD73RoundRect,0.150000X-0.150000X0.587500X-0.150000X-0.587500X0.150000X-0.587500X0.150000X0.587500X0*%
%ADD74R,1.000000X1.000000*%
%ADD75O,1.000000X1.000000*%
%ADD76O,2.000000X2.500000*%
%ADD77R,2.413000X4.572000*%
%ADD78C,0.700000*%
%ADD79O,3.200000X1.300000*%
%ADD80O,2.500000X1.300000*%
%ADD81RoundRect,1.050000X0.450000X0.000000X0.450000X0.000000X-0.450000X0.000000X-0.450000X0.000000X0*%
%ADD82R,1.500000X5.080000*%
%ADD83C,2.000000*%
%ADD84R,2.000000X2.000000*%
%ADD85R,3.000000X2.100000*%
%ADD86R,3.302000X2.286000*%
%ADD87R,3.302000X2.447000*%
G04 APERTURE END LIST*
D10*
X141672204Y-50075371D02*
X141610300Y-50018228D01*
X141548395Y-49903942D01*
X141548395Y-49618228D01*
X141610300Y-49503942D01*
X141672204Y-49446800D01*
X141796014Y-49389657D01*
X141919823Y-49389657D01*
X142105538Y-49446800D01*
X142848395Y-50132514D01*
X142848395Y-49389657D01*
X141548395Y-48646800D02*
X141548395Y-48532514D01*
X141610300Y-48418228D01*
X141672204Y-48361085D01*
X141796014Y-48303942D01*
X142043633Y-48246800D01*
X142353157Y-48246800D01*
X142600776Y-48303942D01*
X142724585Y-48361085D01*
X142786490Y-48418228D01*
X142848395Y-48532514D01*
X142848395Y-48646800D01*
X142786490Y-48761085D01*
X142724585Y-48818228D01*
X142600776Y-48875371D01*
X142353157Y-48932514D01*
X142043633Y-48932514D01*
X141796014Y-48875371D01*
X141672204Y-48818228D01*
X141610300Y-48761085D01*
X141548395Y-48646800D01*
X141672204Y-47789657D02*
X141610300Y-47732514D01*
X141548395Y-47618228D01*
X141548395Y-47332514D01*
X141610300Y-47218228D01*
X141672204Y-47161085D01*
X141796014Y-47103942D01*
X141919823Y-47103942D01*
X142105538Y-47161085D01*
X142848395Y-47846800D01*
X142848395Y-47103942D01*
X141672204Y-46646800D02*
X141610300Y-46589657D01*
X141548395Y-46475371D01*
X141548395Y-46189657D01*
X141610300Y-46075371D01*
X141672204Y-46018228D01*
X141796014Y-45961085D01*
X141919823Y-45961085D01*
X142105538Y-46018228D01*
X142848395Y-46703942D01*
X142848395Y-45961085D01*
X142353157Y-45446800D02*
X142353157Y-44532514D01*
X141548395Y-43732514D02*
X141548395Y-43618228D01*
X141610300Y-43503942D01*
X141672204Y-43446800D01*
X141796014Y-43389657D01*
X142043633Y-43332514D01*
X142353157Y-43332514D01*
X142600776Y-43389657D01*
X142724585Y-43446800D01*
X142786490Y-43503942D01*
X142848395Y-43618228D01*
X142848395Y-43732514D01*
X142786490Y-43846800D01*
X142724585Y-43903942D01*
X142600776Y-43961085D01*
X142353157Y-44018228D01*
X142043633Y-44018228D01*
X141796014Y-43961085D01*
X141672204Y-43903942D01*
X141610300Y-43846800D01*
X141548395Y-43732514D01*
X141548395Y-42303942D02*
X141548395Y-42532514D01*
X141610300Y-42646800D01*
X141672204Y-42703942D01*
X141857919Y-42818228D01*
X142105538Y-42875371D01*
X142600776Y-42875371D01*
X142724585Y-42818228D01*
X142786490Y-42761085D01*
X142848395Y-42646800D01*
X142848395Y-42418228D01*
X142786490Y-42303942D01*
X142724585Y-42246800D01*
X142600776Y-42189657D01*
X142291252Y-42189657D01*
X142167442Y-42246800D01*
X142105538Y-42303942D01*
X142043633Y-42418228D01*
X142043633Y-42646800D01*
X142105538Y-42761085D01*
X142167442Y-42818228D01*
X142291252Y-42875371D01*
X142353157Y-41675371D02*
X142353157Y-40761085D01*
X141672204Y-40246800D02*
X141610300Y-40189657D01*
X141548395Y-40075371D01*
X141548395Y-39789657D01*
X141610300Y-39675371D01*
X141672204Y-39618228D01*
X141796014Y-39561085D01*
X141919823Y-39561085D01*
X142105538Y-39618228D01*
X142848395Y-40303942D01*
X142848395Y-39561085D01*
X141548395Y-38532514D02*
X141548395Y-38761085D01*
X141610300Y-38875371D01*
X141672204Y-38932514D01*
X141857919Y-39046800D01*
X142105538Y-39103942D01*
X142600776Y-39103942D01*
X142724585Y-39046800D01*
X142786490Y-38989657D01*
X142848395Y-38875371D01*
X142848395Y-38646800D01*
X142786490Y-38532514D01*
X142724585Y-38475371D01*
X142600776Y-38418228D01*
X142291252Y-38418228D01*
X142167442Y-38475371D01*
X142105538Y-38532514D01*
X142043633Y-38646800D01*
X142043633Y-38875371D01*
X142105538Y-38989657D01*
X142167442Y-39046800D01*
X142291252Y-39103942D01*
X144941395Y-46332514D02*
X144074728Y-46332514D01*
X144322347Y-46332514D02*
X144198538Y-46275371D01*
X144136633Y-46218228D01*
X144074728Y-46103942D01*
X144074728Y-45989657D01*
X144879490Y-45132514D02*
X144941395Y-45246800D01*
X144941395Y-45475371D01*
X144879490Y-45589657D01*
X144755680Y-45646800D01*
X144260442Y-45646800D01*
X144136633Y-45589657D01*
X144074728Y-45475371D01*
X144074728Y-45246800D01*
X144136633Y-45132514D01*
X144260442Y-45075371D01*
X144384252Y-45075371D01*
X144508061Y-45646800D01*
X144074728Y-44675371D02*
X144941395Y-44389657D01*
X144074728Y-44103942D01*
X143641395Y-42503942D02*
X143641395Y-42389657D01*
X143703300Y-42275371D01*
X143765204Y-42218228D01*
X143889014Y-42161085D01*
X144136633Y-42103942D01*
X144446157Y-42103942D01*
X144693776Y-42161085D01*
X144817585Y-42218228D01*
X144879490Y-42275371D01*
X144941395Y-42389657D01*
X144941395Y-42503942D01*
X144879490Y-42618228D01*
X144817585Y-42675371D01*
X144693776Y-42732514D01*
X144446157Y-42789657D01*
X144136633Y-42789657D01*
X143889014Y-42732514D01*
X143765204Y-42675371D01*
X143703300Y-42618228D01*
X143641395Y-42503942D01*
D11*
X146913600Y-113995200D02*
X147624800Y-113995200D01*
X144932400Y-115062000D02*
X146913600Y-113995200D01*
X143103600Y-115062000D02*
X144932400Y-115062000D01*
X146761200Y-107848400D02*
X147574000Y-107848400D01*
X145084800Y-108915200D02*
X146761200Y-107848400D01*
X142951200Y-108915200D02*
X145084800Y-108915200D01*
X146710400Y-102057200D02*
X147624800Y-102057200D01*
X144780000Y-103276400D02*
X146710400Y-102057200D01*
X142951200Y-103276400D02*
X144780000Y-103276400D01*
X169722800Y-53289200D02*
X169367200Y-56083200D01*
X170484800Y-56235600D02*
X171602400Y-56235600D01*
X169722800Y-51562000D02*
X169722800Y-53289200D01*
X169367200Y-56083200D02*
X168050800Y-56432564D01*
X165200000Y-53300000D02*
X165200000Y-54500000D01*
X164200000Y-53300000D02*
X165200000Y-53300000D01*
X170434000Y-57810400D02*
X170434000Y-56286400D01*
%TO.C,U9*%
X162215466Y-111610933D02*
X162782133Y-111610933D01*
X162848800Y-111577600D01*
X162882133Y-111544266D01*
X162915466Y-111477600D01*
X162915466Y-111344266D01*
X162882133Y-111277600D01*
X162848800Y-111244266D01*
X162782133Y-111210933D01*
X162215466Y-111210933D01*
X162915466Y-110844266D02*
X162915466Y-110710933D01*
X162882133Y-110644266D01*
X162848800Y-110610933D01*
X162748800Y-110544266D01*
X162615466Y-110510933D01*
X162348800Y-110510933D01*
X162282133Y-110544266D01*
X162248800Y-110577600D01*
X162215466Y-110644266D01*
X162215466Y-110777600D01*
X162248800Y-110844266D01*
X162282133Y-110877600D01*
X162348800Y-110910933D01*
X162515466Y-110910933D01*
X162582133Y-110877600D01*
X162615466Y-110844266D01*
X162648800Y-110777600D01*
X162648800Y-110644266D01*
X162615466Y-110577600D01*
X162582133Y-110544266D01*
X162515466Y-110510933D01*
%TO.C,Q5*%
X147855733Y-99939466D02*
X147822400Y-100006133D01*
X147755733Y-100072800D01*
X147655733Y-100172800D01*
X147622400Y-100239466D01*
X147622400Y-100306133D01*
X147789066Y-100272800D02*
X147755733Y-100339466D01*
X147689066Y-100406133D01*
X147555733Y-100439466D01*
X147322400Y-100439466D01*
X147189066Y-100406133D01*
X147122400Y-100339466D01*
X147089066Y-100272800D01*
X147089066Y-100139466D01*
X147122400Y-100072800D01*
X147189066Y-100006133D01*
X147322400Y-99972800D01*
X147555733Y-99972800D01*
X147689066Y-100006133D01*
X147755733Y-100072800D01*
X147789066Y-100139466D01*
X147789066Y-100272800D01*
X147089066Y-99339466D02*
X147089066Y-99672800D01*
X147422400Y-99706133D01*
X147389066Y-99672800D01*
X147355733Y-99606133D01*
X147355733Y-99439466D01*
X147389066Y-99372800D01*
X147422400Y-99339466D01*
X147489066Y-99306133D01*
X147655733Y-99306133D01*
X147722400Y-99339466D01*
X147755733Y-99372800D01*
X147789066Y-99439466D01*
X147789066Y-99606133D01*
X147755733Y-99672800D01*
X147722400Y-99706133D01*
%TO.C,U7*%
X164056266Y-48539333D02*
X164622933Y-48539333D01*
X164689600Y-48506000D01*
X164722933Y-48472666D01*
X164756266Y-48406000D01*
X164756266Y-48272666D01*
X164722933Y-48206000D01*
X164689600Y-48172666D01*
X164622933Y-48139333D01*
X164056266Y-48139333D01*
X164056266Y-47872666D02*
X164056266Y-47406000D01*
X164756266Y-47706000D01*
%TO.C,U10*%
X167382933Y-68438266D02*
X167382933Y-69004933D01*
X167416266Y-69071600D01*
X167449600Y-69104933D01*
X167516266Y-69138266D01*
X167649600Y-69138266D01*
X167716266Y-69104933D01*
X167749600Y-69071600D01*
X167782933Y-69004933D01*
X167782933Y-68438266D01*
X168482933Y-69138266D02*
X168082933Y-69138266D01*
X168282933Y-69138266D02*
X168282933Y-68438266D01*
X168216266Y-68538266D01*
X168149600Y-68604933D01*
X168082933Y-68638266D01*
X168916266Y-68438266D02*
X168982933Y-68438266D01*
X169049600Y-68471600D01*
X169082933Y-68504933D01*
X169116266Y-68571600D01*
X169149600Y-68704933D01*
X169149600Y-68871600D01*
X169116266Y-69004933D01*
X169082933Y-69071600D01*
X169049600Y-69104933D01*
X168982933Y-69138266D01*
X168916266Y-69138266D01*
X168849600Y-69104933D01*
X168816266Y-69071600D01*
X168782933Y-69004933D01*
X168749600Y-68871600D01*
X168749600Y-68704933D01*
X168782933Y-68571600D01*
X168816266Y-68504933D01*
X168849600Y-68471600D01*
X168916266Y-68438266D01*
%TO.C,U1*%
X156069818Y-67797066D02*
X156470512Y-68197759D01*
X156541223Y-68221330D01*
X156588363Y-68221330D01*
X156659074Y-68197759D01*
X156753355Y-68103478D01*
X156776925Y-68032768D01*
X156776925Y-67985627D01*
X156753355Y-67914917D01*
X156352661Y-67514223D01*
X157342610Y-67514223D02*
X157059768Y-67797066D01*
X157201189Y-67655644D02*
X156706214Y-67160669D01*
X156729785Y-67278521D01*
X156729785Y-67372801D01*
X156706214Y-67443512D01*
%TO.C,Q2*%
X147804933Y-105730666D02*
X147771600Y-105797333D01*
X147704933Y-105864000D01*
X147604933Y-105964000D01*
X147571600Y-106030666D01*
X147571600Y-106097333D01*
X147738266Y-106064000D02*
X147704933Y-106130666D01*
X147638266Y-106197333D01*
X147504933Y-106230666D01*
X147271600Y-106230666D01*
X147138266Y-106197333D01*
X147071600Y-106130666D01*
X147038266Y-106064000D01*
X147038266Y-105930666D01*
X147071600Y-105864000D01*
X147138266Y-105797333D01*
X147271600Y-105764000D01*
X147504933Y-105764000D01*
X147638266Y-105797333D01*
X147704933Y-105864000D01*
X147738266Y-105930666D01*
X147738266Y-106064000D01*
X147104933Y-105497333D02*
X147071600Y-105464000D01*
X147038266Y-105397333D01*
X147038266Y-105230666D01*
X147071600Y-105164000D01*
X147104933Y-105130666D01*
X147171600Y-105097333D01*
X147238266Y-105097333D01*
X147338266Y-105130666D01*
X147738266Y-105530666D01*
X147738266Y-105097333D01*
%TO.C,Q4*%
X147804933Y-111826666D02*
X147771600Y-111893333D01*
X147704933Y-111960000D01*
X147604933Y-112060000D01*
X147571600Y-112126666D01*
X147571600Y-112193333D01*
X147738266Y-112160000D02*
X147704933Y-112226666D01*
X147638266Y-112293333D01*
X147504933Y-112326666D01*
X147271600Y-112326666D01*
X147138266Y-112293333D01*
X147071600Y-112226666D01*
X147038266Y-112160000D01*
X147038266Y-112026666D01*
X147071600Y-111960000D01*
X147138266Y-111893333D01*
X147271600Y-111860000D01*
X147504933Y-111860000D01*
X147638266Y-111893333D01*
X147704933Y-111960000D01*
X147738266Y-112026666D01*
X147738266Y-112160000D01*
X147271600Y-111260000D02*
X147738266Y-111260000D01*
X147004933Y-111426666D02*
X147504933Y-111593333D01*
X147504933Y-111160000D01*
%TO.C,Q3*%
X147855733Y-118024266D02*
X147822400Y-118090933D01*
X147755733Y-118157600D01*
X147655733Y-118257600D01*
X147622400Y-118324266D01*
X147622400Y-118390933D01*
X147789066Y-118357600D02*
X147755733Y-118424266D01*
X147689066Y-118490933D01*
X147555733Y-118524266D01*
X147322400Y-118524266D01*
X147189066Y-118490933D01*
X147122400Y-118424266D01*
X147089066Y-118357600D01*
X147089066Y-118224266D01*
X147122400Y-118157600D01*
X147189066Y-118090933D01*
X147322400Y-118057600D01*
X147555733Y-118057600D01*
X147689066Y-118090933D01*
X147755733Y-118157600D01*
X147789066Y-118224266D01*
X147789066Y-118357600D01*
X147089066Y-117824266D02*
X147089066Y-117390933D01*
X147355733Y-117624266D01*
X147355733Y-117524266D01*
X147389066Y-117457600D01*
X147422400Y-117424266D01*
X147489066Y-117390933D01*
X147655733Y-117390933D01*
X147722400Y-117424266D01*
X147755733Y-117457600D01*
X147789066Y-117524266D01*
X147789066Y-117724266D01*
X147755733Y-117790933D01*
X147722400Y-117824266D01*
D12*
%TO.C,D2*%
X149978333Y-88581666D02*
X149978333Y-87881666D01*
X150145000Y-87881666D01*
X150245000Y-87915000D01*
X150311666Y-87981666D01*
X150345000Y-88048333D01*
X150378333Y-88181666D01*
X150378333Y-88281666D01*
X150345000Y-88415000D01*
X150311666Y-88481666D01*
X150245000Y-88548333D01*
X150145000Y-88581666D01*
X149978333Y-88581666D01*
X150645000Y-87948333D02*
X150678333Y-87915000D01*
X150745000Y-87881666D01*
X150911666Y-87881666D01*
X150978333Y-87915000D01*
X151011666Y-87948333D01*
X151045000Y-88015000D01*
X151045000Y-88081666D01*
X151011666Y-88181666D01*
X150611666Y-88581666D01*
X151045000Y-88581666D01*
%TO.C,R27*%
X162110000Y-90588266D02*
X161876666Y-90254933D01*
X161710000Y-90588266D02*
X161710000Y-89888266D01*
X161976666Y-89888266D01*
X162043333Y-89921600D01*
X162076666Y-89954933D01*
X162110000Y-90021600D01*
X162110000Y-90121600D01*
X162076666Y-90188266D01*
X162043333Y-90221600D01*
X161976666Y-90254933D01*
X161710000Y-90254933D01*
X162376666Y-89954933D02*
X162410000Y-89921600D01*
X162476666Y-89888266D01*
X162643333Y-89888266D01*
X162710000Y-89921600D01*
X162743333Y-89954933D01*
X162776666Y-90021600D01*
X162776666Y-90088266D01*
X162743333Y-90188266D01*
X162343333Y-90588266D01*
X162776666Y-90588266D01*
X163010000Y-89888266D02*
X163476666Y-89888266D01*
X163176666Y-90588266D01*
D11*
%TO.C,R34*%
X163634000Y-83628666D02*
X163400666Y-83295333D01*
X163234000Y-83628666D02*
X163234000Y-82928666D01*
X163500666Y-82928666D01*
X163567333Y-82962000D01*
X163600666Y-82995333D01*
X163634000Y-83062000D01*
X163634000Y-83162000D01*
X163600666Y-83228666D01*
X163567333Y-83262000D01*
X163500666Y-83295333D01*
X163234000Y-83295333D01*
X163867333Y-82928666D02*
X164300666Y-82928666D01*
X164067333Y-83195333D01*
X164167333Y-83195333D01*
X164234000Y-83228666D01*
X164267333Y-83262000D01*
X164300666Y-83328666D01*
X164300666Y-83495333D01*
X164267333Y-83562000D01*
X164234000Y-83595333D01*
X164167333Y-83628666D01*
X163967333Y-83628666D01*
X163900666Y-83595333D01*
X163867333Y-83562000D01*
X164900666Y-83162000D02*
X164900666Y-83628666D01*
X164734000Y-82895333D02*
X164567333Y-83395333D01*
X165000666Y-83395333D01*
%TO.C,R16*%
X151061000Y-93661666D02*
X150827666Y-93328333D01*
X150661000Y-93661666D02*
X150661000Y-92961666D01*
X150927666Y-92961666D01*
X150994333Y-92995000D01*
X151027666Y-93028333D01*
X151061000Y-93095000D01*
X151061000Y-93195000D01*
X151027666Y-93261666D01*
X150994333Y-93295000D01*
X150927666Y-93328333D01*
X150661000Y-93328333D01*
X151727666Y-93661666D02*
X151327666Y-93661666D01*
X151527666Y-93661666D02*
X151527666Y-92961666D01*
X151461000Y-93061666D01*
X151394333Y-93128333D01*
X151327666Y-93161666D01*
X152327666Y-92961666D02*
X152194333Y-92961666D01*
X152127666Y-92995000D01*
X152094333Y-93028333D01*
X152027666Y-93128333D01*
X151994333Y-93261666D01*
X151994333Y-93528333D01*
X152027666Y-93595000D01*
X152061000Y-93628333D01*
X152127666Y-93661666D01*
X152261000Y-93661666D01*
X152327666Y-93628333D01*
X152361000Y-93595000D01*
X152394333Y-93528333D01*
X152394333Y-93361666D01*
X152361000Y-93295000D01*
X152327666Y-93261666D01*
X152261000Y-93228333D01*
X152127666Y-93228333D01*
X152061000Y-93261666D01*
X152027666Y-93295000D01*
X151994333Y-93361666D01*
%TO.C,R42*%
X156522000Y-72706666D02*
X156288666Y-72373333D01*
X156122000Y-72706666D02*
X156122000Y-72006666D01*
X156388666Y-72006666D01*
X156455333Y-72040000D01*
X156488666Y-72073333D01*
X156522000Y-72140000D01*
X156522000Y-72240000D01*
X156488666Y-72306666D01*
X156455333Y-72340000D01*
X156388666Y-72373333D01*
X156122000Y-72373333D01*
X157122000Y-72240000D02*
X157122000Y-72706666D01*
X156955333Y-71973333D02*
X156788666Y-72473333D01*
X157222000Y-72473333D01*
X157455333Y-72073333D02*
X157488666Y-72040000D01*
X157555333Y-72006666D01*
X157722000Y-72006666D01*
X157788666Y-72040000D01*
X157822000Y-72073333D01*
X157855333Y-72140000D01*
X157855333Y-72206666D01*
X157822000Y-72306666D01*
X157422000Y-72706666D01*
X157855333Y-72706666D01*
%TO.C,R59*%
X156223466Y-99967200D02*
X155890133Y-100200533D01*
X156223466Y-100367200D02*
X155523466Y-100367200D01*
X155523466Y-100100533D01*
X155556800Y-100033866D01*
X155590133Y-100000533D01*
X155656800Y-99967200D01*
X155756800Y-99967200D01*
X155823466Y-100000533D01*
X155856800Y-100033866D01*
X155890133Y-100100533D01*
X155890133Y-100367200D01*
X155523466Y-99333866D02*
X155523466Y-99667200D01*
X155856800Y-99700533D01*
X155823466Y-99667200D01*
X155790133Y-99600533D01*
X155790133Y-99433866D01*
X155823466Y-99367200D01*
X155856800Y-99333866D01*
X155923466Y-99300533D01*
X156090133Y-99300533D01*
X156156800Y-99333866D01*
X156190133Y-99367200D01*
X156223466Y-99433866D01*
X156223466Y-99600533D01*
X156190133Y-99667200D01*
X156156800Y-99700533D01*
X156223466Y-98967200D02*
X156223466Y-98833866D01*
X156190133Y-98767200D01*
X156156800Y-98733866D01*
X156056800Y-98667200D01*
X155923466Y-98633866D01*
X155656800Y-98633866D01*
X155590133Y-98667200D01*
X155556800Y-98700533D01*
X155523466Y-98767200D01*
X155523466Y-98900533D01*
X155556800Y-98967200D01*
X155590133Y-99000533D01*
X155656800Y-99033866D01*
X155823466Y-99033866D01*
X155890133Y-99000533D01*
X155923466Y-98967200D01*
X155956800Y-98900533D01*
X155956800Y-98767200D01*
X155923466Y-98700533D01*
X155890133Y-98667200D01*
X155823466Y-98633866D01*
%TO.C,R39*%
X163602200Y-84593866D02*
X163368866Y-84260533D01*
X163202200Y-84593866D02*
X163202200Y-83893866D01*
X163468866Y-83893866D01*
X163535533Y-83927200D01*
X163568866Y-83960533D01*
X163602200Y-84027200D01*
X163602200Y-84127200D01*
X163568866Y-84193866D01*
X163535533Y-84227200D01*
X163468866Y-84260533D01*
X163202200Y-84260533D01*
X163835533Y-83893866D02*
X164268866Y-83893866D01*
X164035533Y-84160533D01*
X164135533Y-84160533D01*
X164202200Y-84193866D01*
X164235533Y-84227200D01*
X164268866Y-84293866D01*
X164268866Y-84460533D01*
X164235533Y-84527200D01*
X164202200Y-84560533D01*
X164135533Y-84593866D01*
X163935533Y-84593866D01*
X163868866Y-84560533D01*
X163835533Y-84527200D01*
X164602200Y-84593866D02*
X164735533Y-84593866D01*
X164802200Y-84560533D01*
X164835533Y-84527200D01*
X164902200Y-84427200D01*
X164935533Y-84293866D01*
X164935533Y-84027200D01*
X164902200Y-83960533D01*
X164868866Y-83927200D01*
X164802200Y-83893866D01*
X164668866Y-83893866D01*
X164602200Y-83927200D01*
X164568866Y-83960533D01*
X164535533Y-84027200D01*
X164535533Y-84193866D01*
X164568866Y-84260533D01*
X164602200Y-84293866D01*
X164668866Y-84327200D01*
X164802200Y-84327200D01*
X164868866Y-84293866D01*
X164902200Y-84260533D01*
X164935533Y-84193866D01*
%TO.C,R37*%
X167952000Y-87220800D02*
X167718666Y-86887467D01*
X167552000Y-87220800D02*
X167552000Y-86520800D01*
X167818666Y-86520800D01*
X167885333Y-86554134D01*
X167918666Y-86587467D01*
X167952000Y-86654134D01*
X167952000Y-86754134D01*
X167918666Y-86820800D01*
X167885333Y-86854134D01*
X167818666Y-86887467D01*
X167552000Y-86887467D01*
X168185333Y-86520800D02*
X168618666Y-86520800D01*
X168385333Y-86787467D01*
X168485333Y-86787467D01*
X168552000Y-86820800D01*
X168585333Y-86854134D01*
X168618666Y-86920800D01*
X168618666Y-87087467D01*
X168585333Y-87154134D01*
X168552000Y-87187467D01*
X168485333Y-87220800D01*
X168285333Y-87220800D01*
X168218666Y-87187467D01*
X168185333Y-87154134D01*
X168852000Y-86520800D02*
X169318666Y-86520800D01*
X169018666Y-87220800D01*
%TO.C,R15*%
X160182666Y-56457000D02*
X159849333Y-56690333D01*
X160182666Y-56857000D02*
X159482666Y-56857000D01*
X159482666Y-56590333D01*
X159516000Y-56523666D01*
X159549333Y-56490333D01*
X159616000Y-56457000D01*
X159716000Y-56457000D01*
X159782666Y-56490333D01*
X159816000Y-56523666D01*
X159849333Y-56590333D01*
X159849333Y-56857000D01*
X160182666Y-55790333D02*
X160182666Y-56190333D01*
X160182666Y-55990333D02*
X159482666Y-55990333D01*
X159582666Y-56057000D01*
X159649333Y-56123666D01*
X159682666Y-56190333D01*
X159482666Y-55157000D02*
X159482666Y-55490333D01*
X159816000Y-55523666D01*
X159782666Y-55490333D01*
X159749333Y-55423666D01*
X159749333Y-55257000D01*
X159782666Y-55190333D01*
X159816000Y-55157000D01*
X159882666Y-55123666D01*
X160049333Y-55123666D01*
X160116000Y-55157000D01*
X160149333Y-55190333D01*
X160182666Y-55257000D01*
X160182666Y-55423666D01*
X160149333Y-55490333D01*
X160116000Y-55523666D01*
%TO.C,C3*%
X147101733Y-68931600D02*
X147068400Y-68964933D01*
X146968400Y-68998266D01*
X146901733Y-68998266D01*
X146801733Y-68964933D01*
X146735066Y-68898266D01*
X146701733Y-68831600D01*
X146668400Y-68698266D01*
X146668400Y-68598266D01*
X146701733Y-68464933D01*
X146735066Y-68398266D01*
X146801733Y-68331600D01*
X146901733Y-68298266D01*
X146968400Y-68298266D01*
X147068400Y-68331600D01*
X147101733Y-68364933D01*
X147335066Y-68298266D02*
X147768400Y-68298266D01*
X147535066Y-68564933D01*
X147635066Y-68564933D01*
X147701733Y-68598266D01*
X147735066Y-68631600D01*
X147768400Y-68698266D01*
X147768400Y-68864933D01*
X147735066Y-68931600D01*
X147701733Y-68964933D01*
X147635066Y-68998266D01*
X147435066Y-68998266D01*
X147368400Y-68964933D01*
X147335066Y-68931600D01*
%TO.C,R60*%
X146768400Y-109282666D02*
X146535066Y-108949333D01*
X146368400Y-109282666D02*
X146368400Y-108582666D01*
X146635066Y-108582666D01*
X146701733Y-108616000D01*
X146735066Y-108649333D01*
X146768400Y-108716000D01*
X146768400Y-108816000D01*
X146735066Y-108882666D01*
X146701733Y-108916000D01*
X146635066Y-108949333D01*
X146368400Y-108949333D01*
X147368400Y-108582666D02*
X147235066Y-108582666D01*
X147168400Y-108616000D01*
X147135066Y-108649333D01*
X147068400Y-108749333D01*
X147035066Y-108882666D01*
X147035066Y-109149333D01*
X147068400Y-109216000D01*
X147101733Y-109249333D01*
X147168400Y-109282666D01*
X147301733Y-109282666D01*
X147368400Y-109249333D01*
X147401733Y-109216000D01*
X147435066Y-109149333D01*
X147435066Y-108982666D01*
X147401733Y-108916000D01*
X147368400Y-108882666D01*
X147301733Y-108849333D01*
X147168400Y-108849333D01*
X147101733Y-108882666D01*
X147068400Y-108916000D01*
X147035066Y-108982666D01*
X147868400Y-108582666D02*
X147935066Y-108582666D01*
X148001733Y-108616000D01*
X148035066Y-108649333D01*
X148068400Y-108716000D01*
X148101733Y-108849333D01*
X148101733Y-109016000D01*
X148068400Y-109149333D01*
X148035066Y-109216000D01*
X148001733Y-109249333D01*
X147935066Y-109282666D01*
X147868400Y-109282666D01*
X147801733Y-109249333D01*
X147768400Y-109216000D01*
X147735066Y-109149333D01*
X147701733Y-109016000D01*
X147701733Y-108849333D01*
X147735066Y-108716000D01*
X147768400Y-108649333D01*
X147801733Y-108616000D01*
X147868400Y-108582666D01*
%TO.C,F1*%
X167609866Y-114300800D02*
X167376533Y-114300800D01*
X167376533Y-114667466D02*
X167376533Y-113967466D01*
X167709866Y-113967466D01*
X168343200Y-114667466D02*
X167943200Y-114667466D01*
X168143200Y-114667466D02*
X168143200Y-113967466D01*
X168076533Y-114067466D01*
X168009866Y-114134133D01*
X167943200Y-114167466D01*
%TO.C,C24*%
X142755200Y-70608000D02*
X142721866Y-70641333D01*
X142621866Y-70674666D01*
X142555200Y-70674666D01*
X142455200Y-70641333D01*
X142388533Y-70574666D01*
X142355200Y-70508000D01*
X142321866Y-70374666D01*
X142321866Y-70274666D01*
X142355200Y-70141333D01*
X142388533Y-70074666D01*
X142455200Y-70008000D01*
X142555200Y-69974666D01*
X142621866Y-69974666D01*
X142721866Y-70008000D01*
X142755200Y-70041333D01*
X143021866Y-70041333D02*
X143055200Y-70008000D01*
X143121866Y-69974666D01*
X143288533Y-69974666D01*
X143355200Y-70008000D01*
X143388533Y-70041333D01*
X143421866Y-70108000D01*
X143421866Y-70174666D01*
X143388533Y-70274666D01*
X142988533Y-70674666D01*
X143421866Y-70674666D01*
X144021866Y-70208000D02*
X144021866Y-70674666D01*
X143855200Y-69941333D02*
X143688533Y-70441333D01*
X144121866Y-70441333D01*
%TO.C,R41*%
X149465466Y-38804000D02*
X149132133Y-39037333D01*
X149465466Y-39204000D02*
X148765466Y-39204000D01*
X148765466Y-38937333D01*
X148798800Y-38870666D01*
X148832133Y-38837333D01*
X148898800Y-38804000D01*
X148998800Y-38804000D01*
X149065466Y-38837333D01*
X149098800Y-38870666D01*
X149132133Y-38937333D01*
X149132133Y-39204000D01*
X148998800Y-38204000D02*
X149465466Y-38204000D01*
X148732133Y-38370666D02*
X149232133Y-38537333D01*
X149232133Y-38104000D01*
X149465466Y-37470666D02*
X149465466Y-37870666D01*
X149465466Y-37670666D02*
X148765466Y-37670666D01*
X148865466Y-37737333D01*
X148932133Y-37804000D01*
X148965466Y-37870666D01*
%TO.C,R38*%
X167952000Y-85910734D02*
X167718666Y-85577401D01*
X167552000Y-85910734D02*
X167552000Y-85210734D01*
X167818666Y-85210734D01*
X167885333Y-85244068D01*
X167918666Y-85277401D01*
X167952000Y-85344068D01*
X167952000Y-85444068D01*
X167918666Y-85510734D01*
X167885333Y-85544068D01*
X167818666Y-85577401D01*
X167552000Y-85577401D01*
X168185333Y-85210734D02*
X168618666Y-85210734D01*
X168385333Y-85477401D01*
X168485333Y-85477401D01*
X168552000Y-85510734D01*
X168585333Y-85544068D01*
X168618666Y-85610734D01*
X168618666Y-85777401D01*
X168585333Y-85844068D01*
X168552000Y-85877401D01*
X168485333Y-85910734D01*
X168285333Y-85910734D01*
X168218666Y-85877401D01*
X168185333Y-85844068D01*
X169018666Y-85510734D02*
X168952000Y-85477401D01*
X168918666Y-85444068D01*
X168885333Y-85377401D01*
X168885333Y-85344068D01*
X168918666Y-85277401D01*
X168952000Y-85244068D01*
X169018666Y-85210734D01*
X169152000Y-85210734D01*
X169218666Y-85244068D01*
X169252000Y-85277401D01*
X169285333Y-85344068D01*
X169285333Y-85377401D01*
X169252000Y-85444068D01*
X169218666Y-85477401D01*
X169152000Y-85510734D01*
X169018666Y-85510734D01*
X168952000Y-85544068D01*
X168918666Y-85577401D01*
X168885333Y-85644068D01*
X168885333Y-85777401D01*
X168918666Y-85844068D01*
X168952000Y-85877401D01*
X169018666Y-85910734D01*
X169152000Y-85910734D01*
X169218666Y-85877401D01*
X169252000Y-85844068D01*
X169285333Y-85777401D01*
X169285333Y-85644068D01*
X169252000Y-85577401D01*
X169218666Y-85544068D01*
X169152000Y-85510734D01*
%TO.C,R8*%
X151114933Y-59397066D02*
X150881600Y-59063733D01*
X150714933Y-59397066D02*
X150714933Y-58697066D01*
X150981600Y-58697066D01*
X151048266Y-58730400D01*
X151081600Y-58763733D01*
X151114933Y-58830400D01*
X151114933Y-58930400D01*
X151081600Y-58997066D01*
X151048266Y-59030400D01*
X150981600Y-59063733D01*
X150714933Y-59063733D01*
X151514933Y-58997066D02*
X151448266Y-58963733D01*
X151414933Y-58930400D01*
X151381600Y-58863733D01*
X151381600Y-58830400D01*
X151414933Y-58763733D01*
X151448266Y-58730400D01*
X151514933Y-58697066D01*
X151648266Y-58697066D01*
X151714933Y-58730400D01*
X151748266Y-58763733D01*
X151781600Y-58830400D01*
X151781600Y-58863733D01*
X151748266Y-58930400D01*
X151714933Y-58963733D01*
X151648266Y-58997066D01*
X151514933Y-58997066D01*
X151448266Y-59030400D01*
X151414933Y-59063733D01*
X151381600Y-59130400D01*
X151381600Y-59263733D01*
X151414933Y-59330400D01*
X151448266Y-59363733D01*
X151514933Y-59397066D01*
X151648266Y-59397066D01*
X151714933Y-59363733D01*
X151748266Y-59330400D01*
X151781600Y-59263733D01*
X151781600Y-59130400D01*
X151748266Y-59063733D01*
X151714933Y-59030400D01*
X151648266Y-58997066D01*
%TO.C,C6*%
X147101733Y-67001200D02*
X147068400Y-67034533D01*
X146968400Y-67067866D01*
X146901733Y-67067866D01*
X146801733Y-67034533D01*
X146735066Y-66967866D01*
X146701733Y-66901200D01*
X146668400Y-66767866D01*
X146668400Y-66667866D01*
X146701733Y-66534533D01*
X146735066Y-66467866D01*
X146801733Y-66401200D01*
X146901733Y-66367866D01*
X146968400Y-66367866D01*
X147068400Y-66401200D01*
X147101733Y-66434533D01*
X147701733Y-66367866D02*
X147568400Y-66367866D01*
X147501733Y-66401200D01*
X147468400Y-66434533D01*
X147401733Y-66534533D01*
X147368400Y-66667866D01*
X147368400Y-66934533D01*
X147401733Y-67001200D01*
X147435066Y-67034533D01*
X147501733Y-67067866D01*
X147635066Y-67067866D01*
X147701733Y-67034533D01*
X147735066Y-67001200D01*
X147768400Y-66934533D01*
X147768400Y-66767866D01*
X147735066Y-66701200D01*
X147701733Y-66667866D01*
X147635066Y-66634533D01*
X147501733Y-66634533D01*
X147435066Y-66667866D01*
X147401733Y-66701200D01*
X147368400Y-66767866D01*
%TO.C,C46*%
X165818400Y-40585200D02*
X165785066Y-40618533D01*
X165685066Y-40651866D01*
X165618400Y-40651866D01*
X165518400Y-40618533D01*
X165451733Y-40551866D01*
X165418400Y-40485200D01*
X165385066Y-40351866D01*
X165385066Y-40251866D01*
X165418400Y-40118533D01*
X165451733Y-40051866D01*
X165518400Y-39985200D01*
X165618400Y-39951866D01*
X165685066Y-39951866D01*
X165785066Y-39985200D01*
X165818400Y-40018533D01*
X166418400Y-40185200D02*
X166418400Y-40651866D01*
X166251733Y-39918533D02*
X166085066Y-40418533D01*
X166518400Y-40418533D01*
X167085066Y-39951866D02*
X166951733Y-39951866D01*
X166885066Y-39985200D01*
X166851733Y-40018533D01*
X166785066Y-40118533D01*
X166751733Y-40251866D01*
X166751733Y-40518533D01*
X166785066Y-40585200D01*
X166818400Y-40618533D01*
X166885066Y-40651866D01*
X167018400Y-40651866D01*
X167085066Y-40618533D01*
X167118400Y-40585200D01*
X167151733Y-40518533D01*
X167151733Y-40351866D01*
X167118400Y-40285200D01*
X167085066Y-40251866D01*
X167018400Y-40218533D01*
X166885066Y-40218533D01*
X166818400Y-40251866D01*
X166785066Y-40285200D01*
X166751733Y-40351866D01*
%TO.C,U12*%
X147412333Y-47819266D02*
X147412333Y-48385933D01*
X147445666Y-48452600D01*
X147479000Y-48485933D01*
X147545666Y-48519266D01*
X147679000Y-48519266D01*
X147745666Y-48485933D01*
X147779000Y-48452600D01*
X147812333Y-48385933D01*
X147812333Y-47819266D01*
X148512333Y-48519266D02*
X148112333Y-48519266D01*
X148312333Y-48519266D02*
X148312333Y-47819266D01*
X148245666Y-47919266D01*
X148179000Y-47985933D01*
X148112333Y-48019266D01*
X148779000Y-47885933D02*
X148812333Y-47852600D01*
X148879000Y-47819266D01*
X149045666Y-47819266D01*
X149112333Y-47852600D01*
X149145666Y-47885933D01*
X149179000Y-47952600D01*
X149179000Y-48019266D01*
X149145666Y-48119266D01*
X148745666Y-48519266D01*
X149179000Y-48519266D01*
%TO.C,R24*%
X169526800Y-109333466D02*
X169293466Y-109000133D01*
X169126800Y-109333466D02*
X169126800Y-108633466D01*
X169393466Y-108633466D01*
X169460133Y-108666800D01*
X169493466Y-108700133D01*
X169526800Y-108766800D01*
X169526800Y-108866800D01*
X169493466Y-108933466D01*
X169460133Y-108966800D01*
X169393466Y-109000133D01*
X169126800Y-109000133D01*
X169793466Y-108700133D02*
X169826800Y-108666800D01*
X169893466Y-108633466D01*
X170060133Y-108633466D01*
X170126800Y-108666800D01*
X170160133Y-108700133D01*
X170193466Y-108766800D01*
X170193466Y-108833466D01*
X170160133Y-108933466D01*
X169760133Y-109333466D01*
X170193466Y-109333466D01*
X170793466Y-108866800D02*
X170793466Y-109333466D01*
X170626800Y-108600133D02*
X170460133Y-109100133D01*
X170893466Y-109100133D01*
%TO.C,C37*%
X163684800Y-114744800D02*
X163651466Y-114778133D01*
X163551466Y-114811466D01*
X163484800Y-114811466D01*
X163384800Y-114778133D01*
X163318133Y-114711466D01*
X163284800Y-114644800D01*
X163251466Y-114511466D01*
X163251466Y-114411466D01*
X163284800Y-114278133D01*
X163318133Y-114211466D01*
X163384800Y-114144800D01*
X163484800Y-114111466D01*
X163551466Y-114111466D01*
X163651466Y-114144800D01*
X163684800Y-114178133D01*
X163918133Y-114111466D02*
X164351466Y-114111466D01*
X164118133Y-114378133D01*
X164218133Y-114378133D01*
X164284800Y-114411466D01*
X164318133Y-114444800D01*
X164351466Y-114511466D01*
X164351466Y-114678133D01*
X164318133Y-114744800D01*
X164284800Y-114778133D01*
X164218133Y-114811466D01*
X164018133Y-114811466D01*
X163951466Y-114778133D01*
X163918133Y-114744800D01*
X164584800Y-114111466D02*
X165051466Y-114111466D01*
X164751466Y-114811466D01*
%TO.C,R44*%
X156069466Y-103878800D02*
X155736133Y-104112133D01*
X156069466Y-104278800D02*
X155369466Y-104278800D01*
X155369466Y-104012133D01*
X155402800Y-103945466D01*
X155436133Y-103912133D01*
X155502800Y-103878800D01*
X155602800Y-103878800D01*
X155669466Y-103912133D01*
X155702800Y-103945466D01*
X155736133Y-104012133D01*
X155736133Y-104278800D01*
X155602800Y-103278800D02*
X156069466Y-103278800D01*
X155336133Y-103445466D02*
X155836133Y-103612133D01*
X155836133Y-103178800D01*
X155602800Y-102612133D02*
X156069466Y-102612133D01*
X155336133Y-102778800D02*
X155836133Y-102945466D01*
X155836133Y-102512133D01*
%TO.C,R36*%
X167952000Y-88403866D02*
X167718666Y-88070533D01*
X167552000Y-88403866D02*
X167552000Y-87703866D01*
X167818666Y-87703866D01*
X167885333Y-87737200D01*
X167918666Y-87770533D01*
X167952000Y-87837200D01*
X167952000Y-87937200D01*
X167918666Y-88003866D01*
X167885333Y-88037200D01*
X167818666Y-88070533D01*
X167552000Y-88070533D01*
X168185333Y-87703866D02*
X168618666Y-87703866D01*
X168385333Y-87970533D01*
X168485333Y-87970533D01*
X168552000Y-88003866D01*
X168585333Y-88037200D01*
X168618666Y-88103866D01*
X168618666Y-88270533D01*
X168585333Y-88337200D01*
X168552000Y-88370533D01*
X168485333Y-88403866D01*
X168285333Y-88403866D01*
X168218666Y-88370533D01*
X168185333Y-88337200D01*
X169218666Y-87703866D02*
X169085333Y-87703866D01*
X169018666Y-87737200D01*
X168985333Y-87770533D01*
X168918666Y-87870533D01*
X168885333Y-88003866D01*
X168885333Y-88270533D01*
X168918666Y-88337200D01*
X168952000Y-88370533D01*
X169018666Y-88403866D01*
X169152000Y-88403866D01*
X169218666Y-88370533D01*
X169252000Y-88337200D01*
X169285333Y-88270533D01*
X169285333Y-88103866D01*
X169252000Y-88037200D01*
X169218666Y-88003866D01*
X169152000Y-87970533D01*
X169018666Y-87970533D01*
X168952000Y-88003866D01*
X168918666Y-88037200D01*
X168885333Y-88103866D01*
%TO.C,R54*%
X156120266Y-109720800D02*
X155786933Y-109954133D01*
X156120266Y-110120800D02*
X155420266Y-110120800D01*
X155420266Y-109854133D01*
X155453600Y-109787466D01*
X155486933Y-109754133D01*
X155553600Y-109720800D01*
X155653600Y-109720800D01*
X155720266Y-109754133D01*
X155753600Y-109787466D01*
X155786933Y-109854133D01*
X155786933Y-110120800D01*
X155420266Y-109087466D02*
X155420266Y-109420800D01*
X155753600Y-109454133D01*
X155720266Y-109420800D01*
X155686933Y-109354133D01*
X155686933Y-109187466D01*
X155720266Y-109120800D01*
X155753600Y-109087466D01*
X155820266Y-109054133D01*
X155986933Y-109054133D01*
X156053600Y-109087466D01*
X156086933Y-109120800D01*
X156120266Y-109187466D01*
X156120266Y-109354133D01*
X156086933Y-109420800D01*
X156053600Y-109454133D01*
X155653600Y-108454133D02*
X156120266Y-108454133D01*
X155386933Y-108620800D02*
X155886933Y-108787466D01*
X155886933Y-108354133D01*
%TO.C,Y1*%
X147645133Y-57040333D02*
X147978466Y-57040333D01*
X147278466Y-57273666D02*
X147645133Y-57040333D01*
X147278466Y-56807000D01*
X147978466Y-56207000D02*
X147978466Y-56607000D01*
X147978466Y-56407000D02*
X147278466Y-56407000D01*
X147378466Y-56473666D01*
X147445133Y-56540333D01*
X147478466Y-56607000D01*
%TO.C,R25*%
X169526800Y-105828266D02*
X169293466Y-105494933D01*
X169126800Y-105828266D02*
X169126800Y-105128266D01*
X169393466Y-105128266D01*
X169460133Y-105161600D01*
X169493466Y-105194933D01*
X169526800Y-105261600D01*
X169526800Y-105361600D01*
X169493466Y-105428266D01*
X169460133Y-105461600D01*
X169393466Y-105494933D01*
X169126800Y-105494933D01*
X169793466Y-105194933D02*
X169826800Y-105161600D01*
X169893466Y-105128266D01*
X170060133Y-105128266D01*
X170126800Y-105161600D01*
X170160133Y-105194933D01*
X170193466Y-105261600D01*
X170193466Y-105328266D01*
X170160133Y-105428266D01*
X169760133Y-105828266D01*
X170193466Y-105828266D01*
X170826800Y-105128266D02*
X170493466Y-105128266D01*
X170460133Y-105461600D01*
X170493466Y-105428266D01*
X170560133Y-105394933D01*
X170726800Y-105394933D01*
X170793466Y-105428266D01*
X170826800Y-105461600D01*
X170860133Y-105528266D01*
X170860133Y-105694933D01*
X170826800Y-105761600D01*
X170793466Y-105794933D01*
X170726800Y-105828266D01*
X170560133Y-105828266D01*
X170493466Y-105794933D01*
X170460133Y-105761600D01*
%TO.C,L3*%
X142556666Y-91048666D02*
X142556666Y-91382000D01*
X141856666Y-91382000D01*
X141856666Y-90882000D02*
X141856666Y-90448666D01*
X142123333Y-90682000D01*
X142123333Y-90582000D01*
X142156666Y-90515333D01*
X142190000Y-90482000D01*
X142256666Y-90448666D01*
X142423333Y-90448666D01*
X142490000Y-90482000D01*
X142523333Y-90515333D01*
X142556666Y-90582000D01*
X142556666Y-90782000D01*
X142523333Y-90848666D01*
X142490000Y-90882000D01*
%TO.C,C32*%
X149475000Y-90239000D02*
X149508333Y-90272333D01*
X149541666Y-90372333D01*
X149541666Y-90439000D01*
X149508333Y-90539000D01*
X149441666Y-90605666D01*
X149375000Y-90639000D01*
X149241666Y-90672333D01*
X149141666Y-90672333D01*
X149008333Y-90639000D01*
X148941666Y-90605666D01*
X148875000Y-90539000D01*
X148841666Y-90439000D01*
X148841666Y-90372333D01*
X148875000Y-90272333D01*
X148908333Y-90239000D01*
X148841666Y-90005666D02*
X148841666Y-89572333D01*
X149108333Y-89805666D01*
X149108333Y-89705666D01*
X149141666Y-89639000D01*
X149175000Y-89605666D01*
X149241666Y-89572333D01*
X149408333Y-89572333D01*
X149475000Y-89605666D01*
X149508333Y-89639000D01*
X149541666Y-89705666D01*
X149541666Y-89905666D01*
X149508333Y-89972333D01*
X149475000Y-90005666D01*
X148908333Y-89305666D02*
X148875000Y-89272333D01*
X148841666Y-89205666D01*
X148841666Y-89039000D01*
X148875000Y-88972333D01*
X148908333Y-88939000D01*
X148975000Y-88905666D01*
X149041666Y-88905666D01*
X149141666Y-88939000D01*
X149541666Y-89339000D01*
X149541666Y-88905666D01*
%TO.C,R50*%
X146920800Y-103237466D02*
X146687466Y-102904133D01*
X146520800Y-103237466D02*
X146520800Y-102537466D01*
X146787466Y-102537466D01*
X146854133Y-102570800D01*
X146887466Y-102604133D01*
X146920800Y-102670800D01*
X146920800Y-102770800D01*
X146887466Y-102837466D01*
X146854133Y-102870800D01*
X146787466Y-102904133D01*
X146520800Y-102904133D01*
X147554133Y-102537466D02*
X147220800Y-102537466D01*
X147187466Y-102870800D01*
X147220800Y-102837466D01*
X147287466Y-102804133D01*
X147454133Y-102804133D01*
X147520800Y-102837466D01*
X147554133Y-102870800D01*
X147587466Y-102937466D01*
X147587466Y-103104133D01*
X147554133Y-103170800D01*
X147520800Y-103204133D01*
X147454133Y-103237466D01*
X147287466Y-103237466D01*
X147220800Y-103204133D01*
X147187466Y-103170800D01*
X148020800Y-102537466D02*
X148087466Y-102537466D01*
X148154133Y-102570800D01*
X148187466Y-102604133D01*
X148220800Y-102670800D01*
X148254133Y-102804133D01*
X148254133Y-102970800D01*
X148220800Y-103104133D01*
X148187466Y-103170800D01*
X148154133Y-103204133D01*
X148087466Y-103237466D01*
X148020800Y-103237466D01*
X147954133Y-103204133D01*
X147920800Y-103170800D01*
X147887466Y-103104133D01*
X147854133Y-102970800D01*
X147854133Y-102804133D01*
X147887466Y-102670800D01*
X147920800Y-102604133D01*
X147954133Y-102570800D01*
X148020800Y-102537466D01*
%TO.C,C17*%
X168448800Y-43172800D02*
X168482133Y-43206133D01*
X168515466Y-43306133D01*
X168515466Y-43372800D01*
X168482133Y-43472800D01*
X168415466Y-43539466D01*
X168348800Y-43572800D01*
X168215466Y-43606133D01*
X168115466Y-43606133D01*
X167982133Y-43572800D01*
X167915466Y-43539466D01*
X167848800Y-43472800D01*
X167815466Y-43372800D01*
X167815466Y-43306133D01*
X167848800Y-43206133D01*
X167882133Y-43172800D01*
X168515466Y-42506133D02*
X168515466Y-42906133D01*
X168515466Y-42706133D02*
X167815466Y-42706133D01*
X167915466Y-42772800D01*
X167982133Y-42839466D01*
X168015466Y-42906133D01*
X167815466Y-42272800D02*
X167815466Y-41806133D01*
X168515466Y-42106133D01*
%TO.C,U4*%
X161721866Y-52397866D02*
X161721866Y-52964533D01*
X161755200Y-53031200D01*
X161788533Y-53064533D01*
X161855200Y-53097866D01*
X161988533Y-53097866D01*
X162055200Y-53064533D01*
X162088533Y-53031200D01*
X162121866Y-52964533D01*
X162121866Y-52397866D01*
X162755200Y-52631200D02*
X162755200Y-53097866D01*
X162588533Y-52364533D02*
X162421866Y-52864533D01*
X162855200Y-52864533D01*
%TO.C,C23*%
X142755200Y-71624000D02*
X142721866Y-71657333D01*
X142621866Y-71690666D01*
X142555200Y-71690666D01*
X142455200Y-71657333D01*
X142388533Y-71590666D01*
X142355200Y-71524000D01*
X142321866Y-71390666D01*
X142321866Y-71290666D01*
X142355200Y-71157333D01*
X142388533Y-71090666D01*
X142455200Y-71024000D01*
X142555200Y-70990666D01*
X142621866Y-70990666D01*
X142721866Y-71024000D01*
X142755200Y-71057333D01*
X143021866Y-71057333D02*
X143055200Y-71024000D01*
X143121866Y-70990666D01*
X143288533Y-70990666D01*
X143355200Y-71024000D01*
X143388533Y-71057333D01*
X143421866Y-71124000D01*
X143421866Y-71190666D01*
X143388533Y-71290666D01*
X142988533Y-71690666D01*
X143421866Y-71690666D01*
X143655200Y-70990666D02*
X144088533Y-70990666D01*
X143855200Y-71257333D01*
X143955200Y-71257333D01*
X144021866Y-71290666D01*
X144055200Y-71324000D01*
X144088533Y-71390666D01*
X144088533Y-71557333D01*
X144055200Y-71624000D01*
X144021866Y-71657333D01*
X143955200Y-71690666D01*
X143755200Y-71690666D01*
X143688533Y-71657333D01*
X143655200Y-71624000D01*
%TO.C,C16*%
X167774200Y-49164210D02*
X167740866Y-49197543D01*
X167640866Y-49230876D01*
X167574200Y-49230876D01*
X167474200Y-49197543D01*
X167407533Y-49130876D01*
X167374200Y-49064210D01*
X167340866Y-48930876D01*
X167340866Y-48830876D01*
X167374200Y-48697543D01*
X167407533Y-48630876D01*
X167474200Y-48564210D01*
X167574200Y-48530876D01*
X167640866Y-48530876D01*
X167740866Y-48564210D01*
X167774200Y-48597543D01*
X168440866Y-49230876D02*
X168040866Y-49230876D01*
X168240866Y-49230876D02*
X168240866Y-48530876D01*
X168174200Y-48630876D01*
X168107533Y-48697543D01*
X168040866Y-48730876D01*
X169040866Y-48530876D02*
X168907533Y-48530876D01*
X168840866Y-48564210D01*
X168807533Y-48597543D01*
X168740866Y-48697543D01*
X168707533Y-48830876D01*
X168707533Y-49097543D01*
X168740866Y-49164210D01*
X168774200Y-49197543D01*
X168840866Y-49230876D01*
X168974200Y-49230876D01*
X169040866Y-49197543D01*
X169074200Y-49164210D01*
X169107533Y-49097543D01*
X169107533Y-48930876D01*
X169074200Y-48864210D01*
X169040866Y-48830876D01*
X168974200Y-48797543D01*
X168840866Y-48797543D01*
X168774200Y-48830876D01*
X168740866Y-48864210D01*
X168707533Y-48930876D01*
%TO.C,R4*%
X142758333Y-58228666D02*
X142525000Y-57895333D01*
X142358333Y-58228666D02*
X142358333Y-57528666D01*
X142625000Y-57528666D01*
X142691666Y-57562000D01*
X142725000Y-57595333D01*
X142758333Y-57662000D01*
X142758333Y-57762000D01*
X142725000Y-57828666D01*
X142691666Y-57862000D01*
X142625000Y-57895333D01*
X142358333Y-57895333D01*
X143358333Y-57762000D02*
X143358333Y-58228666D01*
X143191666Y-57495333D02*
X143025000Y-57995333D01*
X143458333Y-57995333D01*
%TO.C,F3*%
X144120400Y-117530533D02*
X144120400Y-117763866D01*
X144487066Y-117763866D02*
X143787066Y-117763866D01*
X143787066Y-117430533D01*
X143787066Y-117230533D02*
X143787066Y-116797200D01*
X144053733Y-117030533D01*
X144053733Y-116930533D01*
X144087066Y-116863866D01*
X144120400Y-116830533D01*
X144187066Y-116797200D01*
X144353733Y-116797200D01*
X144420400Y-116830533D01*
X144453733Y-116863866D01*
X144487066Y-116930533D01*
X144487066Y-117130533D01*
X144453733Y-117197200D01*
X144420400Y-117230533D01*
%TO.C,R55*%
X153524800Y-97192266D02*
X153291466Y-96858933D01*
X153124800Y-97192266D02*
X153124800Y-96492266D01*
X153391466Y-96492266D01*
X153458133Y-96525600D01*
X153491466Y-96558933D01*
X153524800Y-96625600D01*
X153524800Y-96725600D01*
X153491466Y-96792266D01*
X153458133Y-96825600D01*
X153391466Y-96858933D01*
X153124800Y-96858933D01*
X154158133Y-96492266D02*
X153824800Y-96492266D01*
X153791466Y-96825600D01*
X153824800Y-96792266D01*
X153891466Y-96758933D01*
X154058133Y-96758933D01*
X154124800Y-96792266D01*
X154158133Y-96825600D01*
X154191466Y-96892266D01*
X154191466Y-97058933D01*
X154158133Y-97125600D01*
X154124800Y-97158933D01*
X154058133Y-97192266D01*
X153891466Y-97192266D01*
X153824800Y-97158933D01*
X153791466Y-97125600D01*
X154824800Y-96492266D02*
X154491466Y-96492266D01*
X154458133Y-96825600D01*
X154491466Y-96792266D01*
X154558133Y-96758933D01*
X154724800Y-96758933D01*
X154791466Y-96792266D01*
X154824800Y-96825600D01*
X154858133Y-96892266D01*
X154858133Y-97058933D01*
X154824800Y-97125600D01*
X154791466Y-97158933D01*
X154724800Y-97192266D01*
X154558133Y-97192266D01*
X154491466Y-97158933D01*
X154458133Y-97125600D01*
%TO.C,C14*%
X150527600Y-58365200D02*
X150494266Y-58398533D01*
X150394266Y-58431866D01*
X150327600Y-58431866D01*
X150227600Y-58398533D01*
X150160933Y-58331866D01*
X150127600Y-58265200D01*
X150094266Y-58131866D01*
X150094266Y-58031866D01*
X150127600Y-57898533D01*
X150160933Y-57831866D01*
X150227600Y-57765200D01*
X150327600Y-57731866D01*
X150394266Y-57731866D01*
X150494266Y-57765200D01*
X150527600Y-57798533D01*
X151194266Y-58431866D02*
X150794266Y-58431866D01*
X150994266Y-58431866D02*
X150994266Y-57731866D01*
X150927600Y-57831866D01*
X150860933Y-57898533D01*
X150794266Y-57931866D01*
X151794266Y-57965200D02*
X151794266Y-58431866D01*
X151627600Y-57698533D02*
X151460933Y-58198533D01*
X151894266Y-58198533D01*
%TO.C,C10*%
X159601225Y-68133778D02*
X159554084Y-68133778D01*
X159459803Y-68086638D01*
X159412663Y-68039497D01*
X159365522Y-67945216D01*
X159365522Y-67850935D01*
X159389093Y-67780225D01*
X159459803Y-67662374D01*
X159530514Y-67591663D01*
X159648365Y-67520952D01*
X159719076Y-67497382D01*
X159813357Y-67497382D01*
X159907638Y-67544522D01*
X159954778Y-67591663D01*
X160001919Y-67685944D01*
X160001919Y-67733084D01*
X160025489Y-68652323D02*
X159742646Y-68369480D01*
X159884067Y-68510902D02*
X160379042Y-68015927D01*
X160261191Y-68039497D01*
X160166910Y-68039497D01*
X160096200Y-68015927D01*
X160826877Y-68463761D02*
X160874017Y-68510902D01*
X160897587Y-68581612D01*
X160897587Y-68628753D01*
X160874017Y-68699464D01*
X160803306Y-68817315D01*
X160685455Y-68935166D01*
X160567604Y-69005877D01*
X160496893Y-69029447D01*
X160449753Y-69029447D01*
X160379042Y-69005877D01*
X160331902Y-68958736D01*
X160308332Y-68888025D01*
X160308332Y-68840885D01*
X160331902Y-68770174D01*
X160402612Y-68652323D01*
X160520464Y-68534472D01*
X160638315Y-68463761D01*
X160709025Y-68440191D01*
X160756166Y-68440191D01*
X160826877Y-68463761D01*
%TO.C,C49*%
X146819200Y-110181200D02*
X146785866Y-110214533D01*
X146685866Y-110247866D01*
X146619200Y-110247866D01*
X146519200Y-110214533D01*
X146452533Y-110147866D01*
X146419200Y-110081200D01*
X146385866Y-109947866D01*
X146385866Y-109847866D01*
X146419200Y-109714533D01*
X146452533Y-109647866D01*
X146519200Y-109581200D01*
X146619200Y-109547866D01*
X146685866Y-109547866D01*
X146785866Y-109581200D01*
X146819200Y-109614533D01*
X147419200Y-109781200D02*
X147419200Y-110247866D01*
X147252533Y-109514533D02*
X147085866Y-110014533D01*
X147519200Y-110014533D01*
X147819200Y-110247866D02*
X147952533Y-110247866D01*
X148019200Y-110214533D01*
X148052533Y-110181200D01*
X148119200Y-110081200D01*
X148152533Y-109947866D01*
X148152533Y-109681200D01*
X148119200Y-109614533D01*
X148085866Y-109581200D01*
X148019200Y-109547866D01*
X147885866Y-109547866D01*
X147819200Y-109581200D01*
X147785866Y-109614533D01*
X147752533Y-109681200D01*
X147752533Y-109847866D01*
X147785866Y-109914533D01*
X147819200Y-109947866D01*
X147885866Y-109981200D01*
X148019200Y-109981200D01*
X148085866Y-109947866D01*
X148119200Y-109914533D01*
X148152533Y-109847866D01*
%TO.C,U6*%
X144881666Y-88770666D02*
X144881666Y-89337333D01*
X144915000Y-89404000D01*
X144948333Y-89437333D01*
X145015000Y-89470666D01*
X145148333Y-89470666D01*
X145215000Y-89437333D01*
X145248333Y-89404000D01*
X145281666Y-89337333D01*
X145281666Y-88770666D01*
X145915000Y-88770666D02*
X145781666Y-88770666D01*
X145715000Y-88804000D01*
X145681666Y-88837333D01*
X145615000Y-88937333D01*
X145581666Y-89070666D01*
X145581666Y-89337333D01*
X145615000Y-89404000D01*
X145648333Y-89437333D01*
X145715000Y-89470666D01*
X145848333Y-89470666D01*
X145915000Y-89437333D01*
X145948333Y-89404000D01*
X145981666Y-89337333D01*
X145981666Y-89170666D01*
X145948333Y-89104000D01*
X145915000Y-89070666D01*
X145848333Y-89037333D01*
X145715000Y-89037333D01*
X145648333Y-89070666D01*
X145615000Y-89104000D01*
X145581666Y-89170666D01*
%TO.C,C42*%
X142501200Y-53971000D02*
X142467866Y-54004333D01*
X142367866Y-54037666D01*
X142301200Y-54037666D01*
X142201200Y-54004333D01*
X142134533Y-53937666D01*
X142101200Y-53871000D01*
X142067866Y-53737666D01*
X142067866Y-53637666D01*
X142101200Y-53504333D01*
X142134533Y-53437666D01*
X142201200Y-53371000D01*
X142301200Y-53337666D01*
X142367866Y-53337666D01*
X142467866Y-53371000D01*
X142501200Y-53404333D01*
X143101200Y-53571000D02*
X143101200Y-54037666D01*
X142934533Y-53304333D02*
X142767866Y-53804333D01*
X143201200Y-53804333D01*
X143434533Y-53404333D02*
X143467866Y-53371000D01*
X143534533Y-53337666D01*
X143701200Y-53337666D01*
X143767866Y-53371000D01*
X143801200Y-53404333D01*
X143834533Y-53471000D01*
X143834533Y-53537666D01*
X143801200Y-53637666D01*
X143401200Y-54037666D01*
X143834533Y-54037666D01*
%TO.C,R1*%
X142758333Y-59498666D02*
X142525000Y-59165333D01*
X142358333Y-59498666D02*
X142358333Y-58798666D01*
X142625000Y-58798666D01*
X142691666Y-58832000D01*
X142725000Y-58865333D01*
X142758333Y-58932000D01*
X142758333Y-59032000D01*
X142725000Y-59098666D01*
X142691666Y-59132000D01*
X142625000Y-59165333D01*
X142358333Y-59165333D01*
X143425000Y-59498666D02*
X143025000Y-59498666D01*
X143225000Y-59498666D02*
X143225000Y-58798666D01*
X143158333Y-58898666D01*
X143091666Y-58965333D01*
X143025000Y-58998666D01*
%TO.C,C4*%
X151532400Y-68595066D02*
X151565733Y-68628400D01*
X151599066Y-68728400D01*
X151599066Y-68795066D01*
X151565733Y-68895066D01*
X151499066Y-68961733D01*
X151432400Y-68995066D01*
X151299066Y-69028400D01*
X151199066Y-69028400D01*
X151065733Y-68995066D01*
X150999066Y-68961733D01*
X150932400Y-68895066D01*
X150899066Y-68795066D01*
X150899066Y-68728400D01*
X150932400Y-68628400D01*
X150965733Y-68595066D01*
X151132400Y-67995066D02*
X151599066Y-67995066D01*
X150865733Y-68161733D02*
X151365733Y-68328400D01*
X151365733Y-67895066D01*
%TO.C,R52*%
X151040266Y-107638000D02*
X150706933Y-107871333D01*
X151040266Y-108038000D02*
X150340266Y-108038000D01*
X150340266Y-107771333D01*
X150373600Y-107704666D01*
X150406933Y-107671333D01*
X150473600Y-107638000D01*
X150573600Y-107638000D01*
X150640266Y-107671333D01*
X150673600Y-107704666D01*
X150706933Y-107771333D01*
X150706933Y-108038000D01*
X150340266Y-107004666D02*
X150340266Y-107338000D01*
X150673600Y-107371333D01*
X150640266Y-107338000D01*
X150606933Y-107271333D01*
X150606933Y-107104666D01*
X150640266Y-107038000D01*
X150673600Y-107004666D01*
X150740266Y-106971333D01*
X150906933Y-106971333D01*
X150973600Y-107004666D01*
X151006933Y-107038000D01*
X151040266Y-107104666D01*
X151040266Y-107271333D01*
X151006933Y-107338000D01*
X150973600Y-107371333D01*
X150406933Y-106704666D02*
X150373600Y-106671333D01*
X150340266Y-106604666D01*
X150340266Y-106438000D01*
X150373600Y-106371333D01*
X150406933Y-106338000D01*
X150473600Y-106304666D01*
X150540266Y-106304666D01*
X150640266Y-106338000D01*
X151040266Y-106738000D01*
X151040266Y-106304666D01*
%TO.C,U11*%
X169262533Y-63370666D02*
X169262533Y-63937333D01*
X169295866Y-64004000D01*
X169329200Y-64037333D01*
X169395866Y-64070666D01*
X169529200Y-64070666D01*
X169595866Y-64037333D01*
X169629200Y-64004000D01*
X169662533Y-63937333D01*
X169662533Y-63370666D01*
X170362533Y-64070666D02*
X169962533Y-64070666D01*
X170162533Y-64070666D02*
X170162533Y-63370666D01*
X170095866Y-63470666D01*
X170029200Y-63537333D01*
X169962533Y-63570666D01*
X171029200Y-64070666D02*
X170629200Y-64070666D01*
X170829200Y-64070666D02*
X170829200Y-63370666D01*
X170762533Y-63470666D01*
X170695866Y-63537333D01*
X170629200Y-63570666D01*
%TO.C,R35*%
X167952000Y-89666934D02*
X167718666Y-89333601D01*
X167552000Y-89666934D02*
X167552000Y-88966934D01*
X167818666Y-88966934D01*
X167885333Y-89000268D01*
X167918666Y-89033601D01*
X167952000Y-89100268D01*
X167952000Y-89200268D01*
X167918666Y-89266934D01*
X167885333Y-89300268D01*
X167818666Y-89333601D01*
X167552000Y-89333601D01*
X168185333Y-88966934D02*
X168618666Y-88966934D01*
X168385333Y-89233601D01*
X168485333Y-89233601D01*
X168552000Y-89266934D01*
X168585333Y-89300268D01*
X168618666Y-89366934D01*
X168618666Y-89533601D01*
X168585333Y-89600268D01*
X168552000Y-89633601D01*
X168485333Y-89666934D01*
X168285333Y-89666934D01*
X168218666Y-89633601D01*
X168185333Y-89600268D01*
X169252000Y-88966934D02*
X168918666Y-88966934D01*
X168885333Y-89300268D01*
X168918666Y-89266934D01*
X168985333Y-89233601D01*
X169152000Y-89233601D01*
X169218666Y-89266934D01*
X169252000Y-89300268D01*
X169285333Y-89366934D01*
X169285333Y-89533601D01*
X169252000Y-89600268D01*
X169218666Y-89633601D01*
X169152000Y-89666934D01*
X168985333Y-89666934D01*
X168918666Y-89633601D01*
X168885333Y-89600268D01*
%TO.C,L1*%
X146390533Y-64019866D02*
X146057200Y-64019866D01*
X146057200Y-63319866D01*
X146990533Y-64019866D02*
X146590533Y-64019866D01*
X146790533Y-64019866D02*
X146790533Y-63319866D01*
X146723866Y-63419866D01*
X146657200Y-63486533D01*
X146590533Y-63519866D01*
%TO.C,R58*%
X156120266Y-112260800D02*
X155786933Y-112494133D01*
X156120266Y-112660800D02*
X155420266Y-112660800D01*
X155420266Y-112394133D01*
X155453600Y-112327466D01*
X155486933Y-112294133D01*
X155553600Y-112260800D01*
X155653600Y-112260800D01*
X155720266Y-112294133D01*
X155753600Y-112327466D01*
X155786933Y-112394133D01*
X155786933Y-112660800D01*
X155420266Y-111627466D02*
X155420266Y-111960800D01*
X155753600Y-111994133D01*
X155720266Y-111960800D01*
X155686933Y-111894133D01*
X155686933Y-111727466D01*
X155720266Y-111660800D01*
X155753600Y-111627466D01*
X155820266Y-111594133D01*
X155986933Y-111594133D01*
X156053600Y-111627466D01*
X156086933Y-111660800D01*
X156120266Y-111727466D01*
X156120266Y-111894133D01*
X156086933Y-111960800D01*
X156053600Y-111994133D01*
X155720266Y-111194133D02*
X155686933Y-111260800D01*
X155653600Y-111294133D01*
X155586933Y-111327466D01*
X155553600Y-111327466D01*
X155486933Y-111294133D01*
X155453600Y-111260800D01*
X155420266Y-111194133D01*
X155420266Y-111060800D01*
X155453600Y-110994133D01*
X155486933Y-110960800D01*
X155553600Y-110927466D01*
X155586933Y-110927466D01*
X155653600Y-110960800D01*
X155686933Y-110994133D01*
X155720266Y-111060800D01*
X155720266Y-111194133D01*
X155753600Y-111260800D01*
X155786933Y-111294133D01*
X155853600Y-111327466D01*
X155986933Y-111327466D01*
X156053600Y-111294133D01*
X156086933Y-111260800D01*
X156120266Y-111194133D01*
X156120266Y-111060800D01*
X156086933Y-110994133D01*
X156053600Y-110960800D01*
X155986933Y-110927466D01*
X155853600Y-110927466D01*
X155786933Y-110960800D01*
X155753600Y-110994133D01*
X155720266Y-111060800D01*
%TO.C,C41*%
X151086400Y-49830800D02*
X151053066Y-49864133D01*
X150953066Y-49897466D01*
X150886400Y-49897466D01*
X150786400Y-49864133D01*
X150719733Y-49797466D01*
X150686400Y-49730800D01*
X150653066Y-49597466D01*
X150653066Y-49497466D01*
X150686400Y-49364133D01*
X150719733Y-49297466D01*
X150786400Y-49230800D01*
X150886400Y-49197466D01*
X150953066Y-49197466D01*
X151053066Y-49230800D01*
X151086400Y-49264133D01*
X151686400Y-49430800D02*
X151686400Y-49897466D01*
X151519733Y-49164133D02*
X151353066Y-49664133D01*
X151786400Y-49664133D01*
X152419733Y-49897466D02*
X152019733Y-49897466D01*
X152219733Y-49897466D02*
X152219733Y-49197466D01*
X152153066Y-49297466D01*
X152086400Y-49364133D01*
X152019733Y-49397466D01*
%TO.C,F2*%
X143943600Y-106032799D02*
X143943600Y-106266132D01*
X144310266Y-106266132D02*
X143610266Y-106266132D01*
X143610266Y-105932799D01*
X143676933Y-105699466D02*
X143643600Y-105666132D01*
X143610266Y-105599466D01*
X143610266Y-105432799D01*
X143643600Y-105366132D01*
X143676933Y-105332799D01*
X143743600Y-105299466D01*
X143810266Y-105299466D01*
X143910266Y-105332799D01*
X144310266Y-105732799D01*
X144310266Y-105299466D01*
%TO.C,AE1*%
X144236266Y-68787066D02*
X144236266Y-68453733D01*
X144436266Y-68853733D02*
X143736266Y-68620400D01*
X144436266Y-68387066D01*
X144069600Y-68153733D02*
X144069600Y-67920400D01*
X144436266Y-67820400D02*
X144436266Y-68153733D01*
X143736266Y-68153733D01*
X143736266Y-67820400D01*
X144436266Y-67153733D02*
X144436266Y-67553733D01*
X144436266Y-67353733D02*
X143736266Y-67353733D01*
X143836266Y-67420400D01*
X143902933Y-67487066D01*
X143936266Y-67553733D01*
D12*
%TO.C,R32*%
X162110000Y-87387866D02*
X161876666Y-87054533D01*
X161710000Y-87387866D02*
X161710000Y-86687866D01*
X161976666Y-86687866D01*
X162043333Y-86721200D01*
X162076666Y-86754533D01*
X162110000Y-86821200D01*
X162110000Y-86921200D01*
X162076666Y-86987866D01*
X162043333Y-87021200D01*
X161976666Y-87054533D01*
X161710000Y-87054533D01*
X162343333Y-86687866D02*
X162776666Y-86687866D01*
X162543333Y-86954533D01*
X162643333Y-86954533D01*
X162710000Y-86987866D01*
X162743333Y-87021200D01*
X162776666Y-87087866D01*
X162776666Y-87254533D01*
X162743333Y-87321200D01*
X162710000Y-87354533D01*
X162643333Y-87387866D01*
X162443333Y-87387866D01*
X162376666Y-87354533D01*
X162343333Y-87321200D01*
X163043333Y-86754533D02*
X163076666Y-86721200D01*
X163143333Y-86687866D01*
X163310000Y-86687866D01*
X163376666Y-86721200D01*
X163410000Y-86754533D01*
X163443333Y-86821200D01*
X163443333Y-86887866D01*
X163410000Y-86987866D01*
X163010000Y-87387866D01*
X163443333Y-87387866D01*
D11*
%TO.C,D3*%
X166158133Y-80243866D02*
X166158133Y-79543866D01*
X166324800Y-79543866D01*
X166424800Y-79577200D01*
X166491466Y-79643866D01*
X166524800Y-79710533D01*
X166558133Y-79843866D01*
X166558133Y-79943866D01*
X166524800Y-80077200D01*
X166491466Y-80143866D01*
X166424800Y-80210533D01*
X166324800Y-80243866D01*
X166158133Y-80243866D01*
X166791466Y-79543866D02*
X167224800Y-79543866D01*
X166991466Y-79810533D01*
X167091466Y-79810533D01*
X167158133Y-79843866D01*
X167191466Y-79877200D01*
X167224800Y-79943866D01*
X167224800Y-80110533D01*
X167191466Y-80177200D01*
X167158133Y-80210533D01*
X167091466Y-80243866D01*
X166891466Y-80243866D01*
X166824800Y-80210533D01*
X166791466Y-80177200D01*
%TO.C,C28*%
X164700800Y-51456400D02*
X164667466Y-51489733D01*
X164567466Y-51523066D01*
X164500800Y-51523066D01*
X164400800Y-51489733D01*
X164334133Y-51423066D01*
X164300800Y-51356400D01*
X164267466Y-51223066D01*
X164267466Y-51123066D01*
X164300800Y-50989733D01*
X164334133Y-50923066D01*
X164400800Y-50856400D01*
X164500800Y-50823066D01*
X164567466Y-50823066D01*
X164667466Y-50856400D01*
X164700800Y-50889733D01*
X164967466Y-50889733D02*
X165000800Y-50856400D01*
X165067466Y-50823066D01*
X165234133Y-50823066D01*
X165300800Y-50856400D01*
X165334133Y-50889733D01*
X165367466Y-50956400D01*
X165367466Y-51023066D01*
X165334133Y-51123066D01*
X164934133Y-51523066D01*
X165367466Y-51523066D01*
X165767466Y-51123066D02*
X165700800Y-51089733D01*
X165667466Y-51056400D01*
X165634133Y-50989733D01*
X165634133Y-50956400D01*
X165667466Y-50889733D01*
X165700800Y-50856400D01*
X165767466Y-50823066D01*
X165900800Y-50823066D01*
X165967466Y-50856400D01*
X166000800Y-50889733D01*
X166034133Y-50956400D01*
X166034133Y-50989733D01*
X166000800Y-51056400D01*
X165967466Y-51089733D01*
X165900800Y-51123066D01*
X165767466Y-51123066D01*
X165700800Y-51156400D01*
X165667466Y-51189733D01*
X165634133Y-51256400D01*
X165634133Y-51389733D01*
X165667466Y-51456400D01*
X165700800Y-51489733D01*
X165767466Y-51523066D01*
X165900800Y-51523066D01*
X165967466Y-51489733D01*
X166000800Y-51456400D01*
X166034133Y-51389733D01*
X166034133Y-51256400D01*
X166000800Y-51189733D01*
X165967466Y-51156400D01*
X165900800Y-51123066D01*
%TO.C,C11*%
X153579378Y-55054174D02*
X153579378Y-55101315D01*
X153532238Y-55195596D01*
X153485097Y-55242736D01*
X153390816Y-55289877D01*
X153296535Y-55289877D01*
X153225825Y-55266306D01*
X153107974Y-55195596D01*
X153037263Y-55124885D01*
X152966552Y-55007034D01*
X152942982Y-54936323D01*
X152942982Y-54842042D01*
X152990122Y-54747761D01*
X153037263Y-54700621D01*
X153131544Y-54653480D01*
X153178684Y-54653480D01*
X154097923Y-54629910D02*
X153815080Y-54912753D01*
X153956502Y-54771332D02*
X153461527Y-54276357D01*
X153485097Y-54394208D01*
X153485097Y-54488489D01*
X153461527Y-54559199D01*
X154569328Y-54158506D02*
X154286485Y-54441348D01*
X154427906Y-54299927D02*
X153932932Y-53804952D01*
X153956502Y-53922803D01*
X153956502Y-54017084D01*
X153932932Y-54087795D01*
%TO.C,C12*%
X160840000Y-63038800D02*
X160806666Y-63072133D01*
X160706666Y-63105466D01*
X160640000Y-63105466D01*
X160540000Y-63072133D01*
X160473333Y-63005466D01*
X160440000Y-62938800D01*
X160406666Y-62805466D01*
X160406666Y-62705466D01*
X160440000Y-62572133D01*
X160473333Y-62505466D01*
X160540000Y-62438800D01*
X160640000Y-62405466D01*
X160706666Y-62405466D01*
X160806666Y-62438800D01*
X160840000Y-62472133D01*
X161506666Y-63105466D02*
X161106666Y-63105466D01*
X161306666Y-63105466D02*
X161306666Y-62405466D01*
X161240000Y-62505466D01*
X161173333Y-62572133D01*
X161106666Y-62605466D01*
X161773333Y-62472133D02*
X161806666Y-62438800D01*
X161873333Y-62405466D01*
X162040000Y-62405466D01*
X162106666Y-62438800D01*
X162140000Y-62472133D01*
X162173333Y-62538800D01*
X162173333Y-62605466D01*
X162140000Y-62705466D01*
X161740000Y-63105466D01*
X162173333Y-63105466D01*
%TO.C,R51*%
X147124000Y-115378666D02*
X146890666Y-115045333D01*
X146724000Y-115378666D02*
X146724000Y-114678666D01*
X146990666Y-114678666D01*
X147057333Y-114712000D01*
X147090666Y-114745333D01*
X147124000Y-114812000D01*
X147124000Y-114912000D01*
X147090666Y-114978666D01*
X147057333Y-115012000D01*
X146990666Y-115045333D01*
X146724000Y-115045333D01*
X147757333Y-114678666D02*
X147424000Y-114678666D01*
X147390666Y-115012000D01*
X147424000Y-114978666D01*
X147490666Y-114945333D01*
X147657333Y-114945333D01*
X147724000Y-114978666D01*
X147757333Y-115012000D01*
X147790666Y-115078666D01*
X147790666Y-115245333D01*
X147757333Y-115312000D01*
X147724000Y-115345333D01*
X147657333Y-115378666D01*
X147490666Y-115378666D01*
X147424000Y-115345333D01*
X147390666Y-115312000D01*
X148457333Y-115378666D02*
X148057333Y-115378666D01*
X148257333Y-115378666D02*
X148257333Y-114678666D01*
X148190666Y-114778666D01*
X148124000Y-114845333D01*
X148057333Y-114878666D01*
%TO.C,R3*%
X142758333Y-57085666D02*
X142525000Y-56752333D01*
X142358333Y-57085666D02*
X142358333Y-56385666D01*
X142625000Y-56385666D01*
X142691666Y-56419000D01*
X142725000Y-56452333D01*
X142758333Y-56519000D01*
X142758333Y-56619000D01*
X142725000Y-56685666D01*
X142691666Y-56719000D01*
X142625000Y-56752333D01*
X142358333Y-56752333D01*
X142991666Y-56385666D02*
X143425000Y-56385666D01*
X143191666Y-56652333D01*
X143291666Y-56652333D01*
X143358333Y-56685666D01*
X143391666Y-56719000D01*
X143425000Y-56785666D01*
X143425000Y-56952333D01*
X143391666Y-57019000D01*
X143358333Y-57052333D01*
X143291666Y-57085666D01*
X143091666Y-57085666D01*
X143025000Y-57052333D01*
X142991666Y-57019000D01*
%TO.C,R30*%
X146112666Y-41496400D02*
X145779333Y-41729733D01*
X146112666Y-41896400D02*
X145412666Y-41896400D01*
X145412666Y-41629733D01*
X145446000Y-41563066D01*
X145479333Y-41529733D01*
X145546000Y-41496400D01*
X145646000Y-41496400D01*
X145712666Y-41529733D01*
X145746000Y-41563066D01*
X145779333Y-41629733D01*
X145779333Y-41896400D01*
X145412666Y-41263066D02*
X145412666Y-40829733D01*
X145679333Y-41063066D01*
X145679333Y-40963066D01*
X145712666Y-40896400D01*
X145746000Y-40863066D01*
X145812666Y-40829733D01*
X145979333Y-40829733D01*
X146046000Y-40863066D01*
X146079333Y-40896400D01*
X146112666Y-40963066D01*
X146112666Y-41163066D01*
X146079333Y-41229733D01*
X146046000Y-41263066D01*
X145412666Y-40396400D02*
X145412666Y-40329733D01*
X145446000Y-40263066D01*
X145479333Y-40229733D01*
X145546000Y-40196400D01*
X145679333Y-40163066D01*
X145846000Y-40163066D01*
X145979333Y-40196400D01*
X146046000Y-40229733D01*
X146079333Y-40263066D01*
X146112666Y-40329733D01*
X146112666Y-40396400D01*
X146079333Y-40463066D01*
X146046000Y-40496400D01*
X145979333Y-40529733D01*
X145846000Y-40563066D01*
X145679333Y-40563066D01*
X145546000Y-40529733D01*
X145479333Y-40496400D01*
X145446000Y-40463066D01*
X145412666Y-40396400D01*
%TO.C,C22*%
X166326400Y-52878800D02*
X166293066Y-52912133D01*
X166193066Y-52945466D01*
X166126400Y-52945466D01*
X166026400Y-52912133D01*
X165959733Y-52845466D01*
X165926400Y-52778800D01*
X165893066Y-52645466D01*
X165893066Y-52545466D01*
X165926400Y-52412133D01*
X165959733Y-52345466D01*
X166026400Y-52278800D01*
X166126400Y-52245466D01*
X166193066Y-52245466D01*
X166293066Y-52278800D01*
X166326400Y-52312133D01*
X166593066Y-52312133D02*
X166626400Y-52278800D01*
X166693066Y-52245466D01*
X166859733Y-52245466D01*
X166926400Y-52278800D01*
X166959733Y-52312133D01*
X166993066Y-52378800D01*
X166993066Y-52445466D01*
X166959733Y-52545466D01*
X166559733Y-52945466D01*
X166993066Y-52945466D01*
X167259733Y-52312133D02*
X167293066Y-52278800D01*
X167359733Y-52245466D01*
X167526400Y-52245466D01*
X167593066Y-52278800D01*
X167626400Y-52312133D01*
X167659733Y-52378800D01*
X167659733Y-52445466D01*
X167626400Y-52545466D01*
X167226400Y-52945466D01*
X167659733Y-52945466D01*
%TO.C,R17*%
X151061000Y-92518666D02*
X150827666Y-92185333D01*
X150661000Y-92518666D02*
X150661000Y-91818666D01*
X150927666Y-91818666D01*
X150994333Y-91852000D01*
X151027666Y-91885333D01*
X151061000Y-91952000D01*
X151061000Y-92052000D01*
X151027666Y-92118666D01*
X150994333Y-92152000D01*
X150927666Y-92185333D01*
X150661000Y-92185333D01*
X151727666Y-92518666D02*
X151327666Y-92518666D01*
X151527666Y-92518666D02*
X151527666Y-91818666D01*
X151461000Y-91918666D01*
X151394333Y-91985333D01*
X151327666Y-92018666D01*
X151961000Y-91818666D02*
X152427666Y-91818666D01*
X152127666Y-92518666D01*
%TO.C,FB2*%
X144196666Y-50089600D02*
X143963333Y-50089600D01*
X143963333Y-50456266D02*
X143963333Y-49756266D01*
X144296666Y-49756266D01*
X144796666Y-50089600D02*
X144896666Y-50122933D01*
X144930000Y-50156266D01*
X144963333Y-50222933D01*
X144963333Y-50322933D01*
X144930000Y-50389600D01*
X144896666Y-50422933D01*
X144830000Y-50456266D01*
X144563333Y-50456266D01*
X144563333Y-49756266D01*
X144796666Y-49756266D01*
X144863333Y-49789600D01*
X144896666Y-49822933D01*
X144930000Y-49889600D01*
X144930000Y-49956266D01*
X144896666Y-50022933D01*
X144863333Y-50056266D01*
X144796666Y-50089600D01*
X144563333Y-50089600D01*
X145230000Y-49822933D02*
X145263333Y-49789600D01*
X145330000Y-49756266D01*
X145496666Y-49756266D01*
X145563333Y-49789600D01*
X145596666Y-49822933D01*
X145630000Y-49889600D01*
X145630000Y-49956266D01*
X145596666Y-50056266D01*
X145196666Y-50456266D01*
X145630000Y-50456266D01*
%TO.C,C26*%
X150172000Y-91436000D02*
X150138666Y-91469333D01*
X150038666Y-91502666D01*
X149972000Y-91502666D01*
X149872000Y-91469333D01*
X149805333Y-91402666D01*
X149772000Y-91336000D01*
X149738666Y-91202666D01*
X149738666Y-91102666D01*
X149772000Y-90969333D01*
X149805333Y-90902666D01*
X149872000Y-90836000D01*
X149972000Y-90802666D01*
X150038666Y-90802666D01*
X150138666Y-90836000D01*
X150172000Y-90869333D01*
X150438666Y-90869333D02*
X150472000Y-90836000D01*
X150538666Y-90802666D01*
X150705333Y-90802666D01*
X150772000Y-90836000D01*
X150805333Y-90869333D01*
X150838666Y-90936000D01*
X150838666Y-91002666D01*
X150805333Y-91102666D01*
X150405333Y-91502666D01*
X150838666Y-91502666D01*
X151438666Y-90802666D02*
X151305333Y-90802666D01*
X151238666Y-90836000D01*
X151205333Y-90869333D01*
X151138666Y-90969333D01*
X151105333Y-91102666D01*
X151105333Y-91369333D01*
X151138666Y-91436000D01*
X151172000Y-91469333D01*
X151238666Y-91502666D01*
X151372000Y-91502666D01*
X151438666Y-91469333D01*
X151472000Y-91436000D01*
X151505333Y-91369333D01*
X151505333Y-91202666D01*
X151472000Y-91136000D01*
X151438666Y-91102666D01*
X151372000Y-91069333D01*
X151238666Y-91069333D01*
X151172000Y-91102666D01*
X151138666Y-91136000D01*
X151105333Y-91202666D01*
%TO.C,R12*%
X149541666Y-71062000D02*
X149208333Y-71295333D01*
X149541666Y-71462000D02*
X148841666Y-71462000D01*
X148841666Y-71195333D01*
X148875000Y-71128666D01*
X148908333Y-71095333D01*
X148975000Y-71062000D01*
X149075000Y-71062000D01*
X149141666Y-71095333D01*
X149175000Y-71128666D01*
X149208333Y-71195333D01*
X149208333Y-71462000D01*
X149541666Y-70395333D02*
X149541666Y-70795333D01*
X149541666Y-70595333D02*
X148841666Y-70595333D01*
X148941666Y-70662000D01*
X149008333Y-70728666D01*
X149041666Y-70795333D01*
X148908333Y-70128666D02*
X148875000Y-70095333D01*
X148841666Y-70028666D01*
X148841666Y-69862000D01*
X148875000Y-69795333D01*
X148908333Y-69762000D01*
X148975000Y-69728666D01*
X149041666Y-69728666D01*
X149141666Y-69762000D01*
X149541666Y-70162000D01*
X149541666Y-69728666D01*
%TO.C,F5*%
X143943600Y-100309333D02*
X143943600Y-100542666D01*
X144310266Y-100542666D02*
X143610266Y-100542666D01*
X143610266Y-100209333D01*
X143610266Y-99609333D02*
X143610266Y-99942666D01*
X143943600Y-99976000D01*
X143910266Y-99942666D01*
X143876933Y-99876000D01*
X143876933Y-99709333D01*
X143910266Y-99642666D01*
X143943600Y-99609333D01*
X144010266Y-99576000D01*
X144176933Y-99576000D01*
X144243600Y-99609333D01*
X144276933Y-99642666D01*
X144310266Y-99709333D01*
X144310266Y-99876000D01*
X144276933Y-99942666D01*
X144243600Y-99976000D01*
%TO.C,C39*%
X170288800Y-55819858D02*
X170255466Y-55853191D01*
X170155466Y-55886524D01*
X170088800Y-55886524D01*
X169988800Y-55853191D01*
X169922133Y-55786524D01*
X169888800Y-55719858D01*
X169855466Y-55586524D01*
X169855466Y-55486524D01*
X169888800Y-55353191D01*
X169922133Y-55286524D01*
X169988800Y-55219858D01*
X170088800Y-55186524D01*
X170155466Y-55186524D01*
X170255466Y-55219858D01*
X170288800Y-55253191D01*
X170522133Y-55186524D02*
X170955466Y-55186524D01*
X170722133Y-55453191D01*
X170822133Y-55453191D01*
X170888800Y-55486524D01*
X170922133Y-55519858D01*
X170955466Y-55586524D01*
X170955466Y-55753191D01*
X170922133Y-55819858D01*
X170888800Y-55853191D01*
X170822133Y-55886524D01*
X170622133Y-55886524D01*
X170555466Y-55853191D01*
X170522133Y-55819858D01*
X171288800Y-55886524D02*
X171422133Y-55886524D01*
X171488800Y-55853191D01*
X171522133Y-55819858D01*
X171588800Y-55719858D01*
X171622133Y-55586524D01*
X171622133Y-55319858D01*
X171588800Y-55253191D01*
X171555466Y-55219858D01*
X171488800Y-55186524D01*
X171355466Y-55186524D01*
X171288800Y-55219858D01*
X171255466Y-55253191D01*
X171222133Y-55319858D01*
X171222133Y-55486524D01*
X171255466Y-55553191D01*
X171288800Y-55586524D01*
X171355466Y-55619858D01*
X171488800Y-55619858D01*
X171555466Y-55586524D01*
X171588800Y-55553191D01*
X171622133Y-55486524D01*
%TO.C,U3*%
X164116291Y-46880244D02*
X164682958Y-46880244D01*
X164749625Y-46846911D01*
X164782958Y-46813577D01*
X164816291Y-46746911D01*
X164816291Y-46613577D01*
X164782958Y-46546911D01*
X164749625Y-46513577D01*
X164682958Y-46480244D01*
X164116291Y-46480244D01*
X164116291Y-46213577D02*
X164116291Y-45780244D01*
X164382958Y-46013577D01*
X164382958Y-45913577D01*
X164416291Y-45846911D01*
X164449625Y-45813577D01*
X164516291Y-45780244D01*
X164682958Y-45780244D01*
X164749625Y-45813577D01*
X164782958Y-45846911D01*
X164816291Y-45913577D01*
X164816291Y-46113577D01*
X164782958Y-46180244D01*
X164749625Y-46213577D01*
%TO.C,R6*%
X161237587Y-67039998D02*
X161308297Y-66639304D01*
X160954744Y-66757155D02*
X161449719Y-66262180D01*
X161638280Y-66450742D01*
X161661851Y-66521453D01*
X161661851Y-66568593D01*
X161638280Y-66639304D01*
X161567570Y-66710015D01*
X161496859Y-66733585D01*
X161449719Y-66733585D01*
X161379008Y-66710015D01*
X161190446Y-66521453D01*
X162156825Y-66969287D02*
X162062544Y-66875006D01*
X161991834Y-66851436D01*
X161944693Y-66851436D01*
X161826842Y-66875006D01*
X161708991Y-66945717D01*
X161520429Y-67134279D01*
X161496859Y-67204989D01*
X161496859Y-67252130D01*
X161520429Y-67322841D01*
X161614710Y-67417121D01*
X161685421Y-67440692D01*
X161732561Y-67440692D01*
X161803272Y-67417121D01*
X161921123Y-67299270D01*
X161944693Y-67228560D01*
X161944693Y-67181419D01*
X161921123Y-67110709D01*
X161826842Y-67016428D01*
X161756132Y-66992857D01*
X161708991Y-66992857D01*
X161638280Y-67016428D01*
%TO.C,R47*%
X146006400Y-120204666D02*
X145773066Y-119871333D01*
X145606400Y-120204666D02*
X145606400Y-119504666D01*
X145873066Y-119504666D01*
X145939733Y-119538000D01*
X145973066Y-119571333D01*
X146006400Y-119638000D01*
X146006400Y-119738000D01*
X145973066Y-119804666D01*
X145939733Y-119838000D01*
X145873066Y-119871333D01*
X145606400Y-119871333D01*
X146606400Y-119738000D02*
X146606400Y-120204666D01*
X146439733Y-119471333D02*
X146273066Y-119971333D01*
X146706400Y-119971333D01*
X146906400Y-119504666D02*
X147373066Y-119504666D01*
X147073066Y-120204666D01*
%TO.C,R49*%
X156120266Y-118610800D02*
X155786933Y-118844133D01*
X156120266Y-119010800D02*
X155420266Y-119010800D01*
X155420266Y-118744133D01*
X155453600Y-118677466D01*
X155486933Y-118644133D01*
X155553600Y-118610800D01*
X155653600Y-118610800D01*
X155720266Y-118644133D01*
X155753600Y-118677466D01*
X155786933Y-118744133D01*
X155786933Y-119010800D01*
X155653600Y-118010800D02*
X156120266Y-118010800D01*
X155386933Y-118177466D02*
X155886933Y-118344133D01*
X155886933Y-117910800D01*
X156120266Y-117610800D02*
X156120266Y-117477466D01*
X156086933Y-117410800D01*
X156053600Y-117377466D01*
X155953600Y-117310800D01*
X155820266Y-117277466D01*
X155553600Y-117277466D01*
X155486933Y-117310800D01*
X155453600Y-117344133D01*
X155420266Y-117410800D01*
X155420266Y-117544133D01*
X155453600Y-117610800D01*
X155486933Y-117644133D01*
X155553600Y-117677466D01*
X155720266Y-117677466D01*
X155786933Y-117644133D01*
X155820266Y-117610800D01*
X155853600Y-117544133D01*
X155853600Y-117410800D01*
X155820266Y-117344133D01*
X155786933Y-117310800D01*
X155720266Y-117277466D01*
%TO.C,R29*%
X147331866Y-41445600D02*
X146998533Y-41678933D01*
X147331866Y-41845600D02*
X146631866Y-41845600D01*
X146631866Y-41578933D01*
X146665200Y-41512266D01*
X146698533Y-41478933D01*
X146765200Y-41445600D01*
X146865200Y-41445600D01*
X146931866Y-41478933D01*
X146965200Y-41512266D01*
X146998533Y-41578933D01*
X146998533Y-41845600D01*
X146698533Y-41178933D02*
X146665200Y-41145600D01*
X146631866Y-41078933D01*
X146631866Y-40912266D01*
X146665200Y-40845600D01*
X146698533Y-40812266D01*
X146765200Y-40778933D01*
X146831866Y-40778933D01*
X146931866Y-40812266D01*
X147331866Y-41212266D01*
X147331866Y-40778933D01*
X147331866Y-40445600D02*
X147331866Y-40312266D01*
X147298533Y-40245600D01*
X147265200Y-40212266D01*
X147165200Y-40145600D01*
X147031866Y-40112266D01*
X146765200Y-40112266D01*
X146698533Y-40145600D01*
X146665200Y-40178933D01*
X146631866Y-40245600D01*
X146631866Y-40378933D01*
X146665200Y-40445600D01*
X146698533Y-40478933D01*
X146765200Y-40512266D01*
X146931866Y-40512266D01*
X146998533Y-40478933D01*
X147031866Y-40445600D01*
X147065200Y-40378933D01*
X147065200Y-40245600D01*
X147031866Y-40178933D01*
X146998533Y-40145600D01*
X146931866Y-40112266D01*
%TO.C,U2*%
X154889269Y-49632752D02*
X154889269Y-50199419D01*
X154922603Y-50266086D01*
X154955936Y-50299419D01*
X155022603Y-50332752D01*
X155155936Y-50332752D01*
X155222603Y-50299419D01*
X155255936Y-50266086D01*
X155289269Y-50199419D01*
X155289269Y-49632752D01*
X155589269Y-49699419D02*
X155622603Y-49666086D01*
X155689269Y-49632752D01*
X155855936Y-49632752D01*
X155922603Y-49666086D01*
X155955936Y-49699419D01*
X155989269Y-49766086D01*
X155989269Y-49832752D01*
X155955936Y-49932752D01*
X155555936Y-50332752D01*
X155989269Y-50332752D01*
%TO.C,D4*%
X161535333Y-116902666D02*
X161535333Y-116202666D01*
X161702000Y-116202666D01*
X161802000Y-116236000D01*
X161868666Y-116302666D01*
X161902000Y-116369333D01*
X161935333Y-116502666D01*
X161935333Y-116602666D01*
X161902000Y-116736000D01*
X161868666Y-116802666D01*
X161802000Y-116869333D01*
X161702000Y-116902666D01*
X161535333Y-116902666D01*
X162535333Y-116436000D02*
X162535333Y-116902666D01*
X162368666Y-116169333D02*
X162202000Y-116669333D01*
X162635333Y-116669333D01*
%TO.C,C9*%
X147722400Y-60263866D02*
X147755733Y-60297200D01*
X147789066Y-60397200D01*
X147789066Y-60463866D01*
X147755733Y-60563866D01*
X147689066Y-60630533D01*
X147622400Y-60663866D01*
X147489066Y-60697200D01*
X147389066Y-60697200D01*
X147255733Y-60663866D01*
X147189066Y-60630533D01*
X147122400Y-60563866D01*
X147089066Y-60463866D01*
X147089066Y-60397200D01*
X147122400Y-60297200D01*
X147155733Y-60263866D01*
X147789066Y-59930533D02*
X147789066Y-59797200D01*
X147755733Y-59730533D01*
X147722400Y-59697200D01*
X147622400Y-59630533D01*
X147489066Y-59597200D01*
X147222400Y-59597200D01*
X147155733Y-59630533D01*
X147122400Y-59663866D01*
X147089066Y-59730533D01*
X147089066Y-59863866D01*
X147122400Y-59930533D01*
X147155733Y-59963866D01*
X147222400Y-59997200D01*
X147389066Y-59997200D01*
X147455733Y-59963866D01*
X147489066Y-59930533D01*
X147522400Y-59863866D01*
X147522400Y-59730533D01*
X147489066Y-59663866D01*
X147455733Y-59630533D01*
X147389066Y-59597200D01*
%TO.C,R19*%
X160078000Y-112432266D02*
X159844666Y-112098933D01*
X159678000Y-112432266D02*
X159678000Y-111732266D01*
X159944666Y-111732266D01*
X160011333Y-111765600D01*
X160044666Y-111798933D01*
X160078000Y-111865600D01*
X160078000Y-111965600D01*
X160044666Y-112032266D01*
X160011333Y-112065600D01*
X159944666Y-112098933D01*
X159678000Y-112098933D01*
X160744666Y-112432266D02*
X160344666Y-112432266D01*
X160544666Y-112432266D02*
X160544666Y-111732266D01*
X160478000Y-111832266D01*
X160411333Y-111898933D01*
X160344666Y-111932266D01*
X161078000Y-112432266D02*
X161211333Y-112432266D01*
X161278000Y-112398933D01*
X161311333Y-112365600D01*
X161378000Y-112265600D01*
X161411333Y-112132266D01*
X161411333Y-111865600D01*
X161378000Y-111798933D01*
X161344666Y-111765600D01*
X161278000Y-111732266D01*
X161144666Y-111732266D01*
X161078000Y-111765600D01*
X161044666Y-111798933D01*
X161011333Y-111865600D01*
X161011333Y-112032266D01*
X161044666Y-112098933D01*
X161078000Y-112132266D01*
X161144666Y-112165600D01*
X161278000Y-112165600D01*
X161344666Y-112132266D01*
X161378000Y-112098933D01*
X161411333Y-112032266D01*
%TO.C,C33*%
X157639600Y-110232000D02*
X157606266Y-110265333D01*
X157506266Y-110298666D01*
X157439600Y-110298666D01*
X157339600Y-110265333D01*
X157272933Y-110198666D01*
X157239600Y-110132000D01*
X157206266Y-109998666D01*
X157206266Y-109898666D01*
X157239600Y-109765333D01*
X157272933Y-109698666D01*
X157339600Y-109632000D01*
X157439600Y-109598666D01*
X157506266Y-109598666D01*
X157606266Y-109632000D01*
X157639600Y-109665333D01*
X157872933Y-109598666D02*
X158306266Y-109598666D01*
X158072933Y-109865333D01*
X158172933Y-109865333D01*
X158239600Y-109898666D01*
X158272933Y-109932000D01*
X158306266Y-109998666D01*
X158306266Y-110165333D01*
X158272933Y-110232000D01*
X158239600Y-110265333D01*
X158172933Y-110298666D01*
X157972933Y-110298666D01*
X157906266Y-110265333D01*
X157872933Y-110232000D01*
X158539600Y-109598666D02*
X158972933Y-109598666D01*
X158739600Y-109865333D01*
X158839600Y-109865333D01*
X158906266Y-109898666D01*
X158939600Y-109932000D01*
X158972933Y-109998666D01*
X158972933Y-110165333D01*
X158939600Y-110232000D01*
X158906266Y-110265333D01*
X158839600Y-110298666D01*
X158639600Y-110298666D01*
X158572933Y-110265333D01*
X158539600Y-110232000D01*
%TO.C,C50*%
X147073200Y-98344800D02*
X147039866Y-98378133D01*
X146939866Y-98411466D01*
X146873200Y-98411466D01*
X146773200Y-98378133D01*
X146706533Y-98311466D01*
X146673200Y-98244800D01*
X146639866Y-98111466D01*
X146639866Y-98011466D01*
X146673200Y-97878133D01*
X146706533Y-97811466D01*
X146773200Y-97744800D01*
X146873200Y-97711466D01*
X146939866Y-97711466D01*
X147039866Y-97744800D01*
X147073200Y-97778133D01*
X147706533Y-97711466D02*
X147373200Y-97711466D01*
X147339866Y-98044800D01*
X147373200Y-98011466D01*
X147439866Y-97978133D01*
X147606533Y-97978133D01*
X147673200Y-98011466D01*
X147706533Y-98044800D01*
X147739866Y-98111466D01*
X147739866Y-98278133D01*
X147706533Y-98344800D01*
X147673200Y-98378133D01*
X147606533Y-98411466D01*
X147439866Y-98411466D01*
X147373200Y-98378133D01*
X147339866Y-98344800D01*
X148173200Y-97711466D02*
X148239866Y-97711466D01*
X148306533Y-97744800D01*
X148339866Y-97778133D01*
X148373200Y-97844800D01*
X148406533Y-97978133D01*
X148406533Y-98144800D01*
X148373200Y-98278133D01*
X148339866Y-98344800D01*
X148306533Y-98378133D01*
X148239866Y-98411466D01*
X148173200Y-98411466D01*
X148106533Y-98378133D01*
X148073200Y-98344800D01*
X148039866Y-98278133D01*
X148006533Y-98144800D01*
X148006533Y-97978133D01*
X148039866Y-97844800D01*
X148073200Y-97778133D01*
X148106533Y-97744800D01*
X148173200Y-97711466D01*
%TO.C,R13*%
X150684666Y-71062000D02*
X150351333Y-71295333D01*
X150684666Y-71462000D02*
X149984666Y-71462000D01*
X149984666Y-71195333D01*
X150018000Y-71128666D01*
X150051333Y-71095333D01*
X150118000Y-71062000D01*
X150218000Y-71062000D01*
X150284666Y-71095333D01*
X150318000Y-71128666D01*
X150351333Y-71195333D01*
X150351333Y-71462000D01*
X150684666Y-70395333D02*
X150684666Y-70795333D01*
X150684666Y-70595333D02*
X149984666Y-70595333D01*
X150084666Y-70662000D01*
X150151333Y-70728666D01*
X150184666Y-70795333D01*
X149984666Y-70162000D02*
X149984666Y-69728666D01*
X150251333Y-69962000D01*
X150251333Y-69862000D01*
X150284666Y-69795333D01*
X150318000Y-69762000D01*
X150384666Y-69728666D01*
X150551333Y-69728666D01*
X150618000Y-69762000D01*
X150651333Y-69795333D01*
X150684666Y-69862000D01*
X150684666Y-70062000D01*
X150651333Y-70128666D01*
X150618000Y-70162000D01*
%TO.C,R20*%
X160027200Y-113549866D02*
X159793866Y-113216533D01*
X159627200Y-113549866D02*
X159627200Y-112849866D01*
X159893866Y-112849866D01*
X159960533Y-112883200D01*
X159993866Y-112916533D01*
X160027200Y-112983200D01*
X160027200Y-113083200D01*
X159993866Y-113149866D01*
X159960533Y-113183200D01*
X159893866Y-113216533D01*
X159627200Y-113216533D01*
X160293866Y-112916533D02*
X160327200Y-112883200D01*
X160393866Y-112849866D01*
X160560533Y-112849866D01*
X160627200Y-112883200D01*
X160660533Y-112916533D01*
X160693866Y-112983200D01*
X160693866Y-113049866D01*
X160660533Y-113149866D01*
X160260533Y-113549866D01*
X160693866Y-113549866D01*
X161127200Y-112849866D02*
X161193866Y-112849866D01*
X161260533Y-112883200D01*
X161293866Y-112916533D01*
X161327200Y-112983200D01*
X161360533Y-113116533D01*
X161360533Y-113283200D01*
X161327200Y-113416533D01*
X161293866Y-113483200D01*
X161260533Y-113516533D01*
X161193866Y-113549866D01*
X161127200Y-113549866D01*
X161060533Y-113516533D01*
X161027200Y-113483200D01*
X160993866Y-113416533D01*
X160960533Y-113283200D01*
X160960533Y-113116533D01*
X160993866Y-112983200D01*
X161027200Y-112916533D01*
X161060533Y-112883200D01*
X161127200Y-112849866D01*
%TO.C,U5*%
X152651666Y-83718333D02*
X153218333Y-83718333D01*
X153285000Y-83685000D01*
X153318333Y-83651666D01*
X153351666Y-83585000D01*
X153351666Y-83451666D01*
X153318333Y-83385000D01*
X153285000Y-83351666D01*
X153218333Y-83318333D01*
X152651666Y-83318333D01*
X152651666Y-82651666D02*
X152651666Y-82985000D01*
X152985000Y-83018333D01*
X152951666Y-82985000D01*
X152918333Y-82918333D01*
X152918333Y-82751666D01*
X152951666Y-82685000D01*
X152985000Y-82651666D01*
X153051666Y-82618333D01*
X153218333Y-82618333D01*
X153285000Y-82651666D01*
X153318333Y-82685000D01*
X153351666Y-82751666D01*
X153351666Y-82918333D01*
X153318333Y-82985000D01*
X153285000Y-83018333D01*
%TO.C,R2*%
X142758333Y-60768666D02*
X142525000Y-60435333D01*
X142358333Y-60768666D02*
X142358333Y-60068666D01*
X142625000Y-60068666D01*
X142691666Y-60102000D01*
X142725000Y-60135333D01*
X142758333Y-60202000D01*
X142758333Y-60302000D01*
X142725000Y-60368666D01*
X142691666Y-60402000D01*
X142625000Y-60435333D01*
X142358333Y-60435333D01*
X143025000Y-60135333D02*
X143058333Y-60102000D01*
X143125000Y-60068666D01*
X143291666Y-60068666D01*
X143358333Y-60102000D01*
X143391666Y-60135333D01*
X143425000Y-60202000D01*
X143425000Y-60268666D01*
X143391666Y-60368666D01*
X142991666Y-60768666D01*
X143425000Y-60768666D01*
%TO.C,R11*%
X147636666Y-72027200D02*
X147303333Y-72260533D01*
X147636666Y-72427200D02*
X146936666Y-72427200D01*
X146936666Y-72160533D01*
X146970000Y-72093866D01*
X147003333Y-72060533D01*
X147070000Y-72027200D01*
X147170000Y-72027200D01*
X147236666Y-72060533D01*
X147270000Y-72093866D01*
X147303333Y-72160533D01*
X147303333Y-72427200D01*
X147636666Y-71360533D02*
X147636666Y-71760533D01*
X147636666Y-71560533D02*
X146936666Y-71560533D01*
X147036666Y-71627200D01*
X147103333Y-71693866D01*
X147136666Y-71760533D01*
X147636666Y-70693866D02*
X147636666Y-71093866D01*
X147636666Y-70893866D02*
X146936666Y-70893866D01*
X147036666Y-70960533D01*
X147103333Y-71027200D01*
X147136666Y-71093866D01*
%TO.C,L2*%
X148934621Y-65127212D02*
X148698919Y-65362915D01*
X148203944Y-64867940D01*
X148628208Y-64537957D02*
X148628208Y-64490816D01*
X148651778Y-64420106D01*
X148769629Y-64302255D01*
X148840340Y-64278684D01*
X148887480Y-64278684D01*
X148958191Y-64302255D01*
X149005332Y-64349395D01*
X149052472Y-64443676D01*
X149052472Y-65009361D01*
X149358885Y-64702948D01*
%TO.C,C21*%
X167742600Y-55510400D02*
X167709266Y-55543733D01*
X167609266Y-55577066D01*
X167542600Y-55577066D01*
X167442600Y-55543733D01*
X167375933Y-55477066D01*
X167342600Y-55410400D01*
X167309266Y-55277066D01*
X167309266Y-55177066D01*
X167342600Y-55043733D01*
X167375933Y-54977066D01*
X167442600Y-54910400D01*
X167542600Y-54877066D01*
X167609266Y-54877066D01*
X167709266Y-54910400D01*
X167742600Y-54943733D01*
X168009266Y-54943733D02*
X168042600Y-54910400D01*
X168109266Y-54877066D01*
X168275933Y-54877066D01*
X168342600Y-54910400D01*
X168375933Y-54943733D01*
X168409266Y-55010400D01*
X168409266Y-55077066D01*
X168375933Y-55177066D01*
X167975933Y-55577066D01*
X168409266Y-55577066D01*
X169075933Y-55577066D02*
X168675933Y-55577066D01*
X168875933Y-55577066D02*
X168875933Y-54877066D01*
X168809266Y-54977066D01*
X168742600Y-55043733D01*
X168675933Y-55077066D01*
%TO.C,C1*%
X146858800Y-62448266D02*
X146892133Y-62481600D01*
X146925466Y-62581600D01*
X146925466Y-62648266D01*
X146892133Y-62748266D01*
X146825466Y-62814933D01*
X146758800Y-62848266D01*
X146625466Y-62881600D01*
X146525466Y-62881600D01*
X146392133Y-62848266D01*
X146325466Y-62814933D01*
X146258800Y-62748266D01*
X146225466Y-62648266D01*
X146225466Y-62581600D01*
X146258800Y-62481600D01*
X146292133Y-62448266D01*
X146925466Y-61781600D02*
X146925466Y-62181600D01*
X146925466Y-61981600D02*
X146225466Y-61981600D01*
X146325466Y-62048266D01*
X146392133Y-62114933D01*
X146425466Y-62181600D01*
%TO.C,C5*%
X147101733Y-67966400D02*
X147068400Y-67999733D01*
X146968400Y-68033066D01*
X146901733Y-68033066D01*
X146801733Y-67999733D01*
X146735066Y-67933066D01*
X146701733Y-67866400D01*
X146668400Y-67733066D01*
X146668400Y-67633066D01*
X146701733Y-67499733D01*
X146735066Y-67433066D01*
X146801733Y-67366400D01*
X146901733Y-67333066D01*
X146968400Y-67333066D01*
X147068400Y-67366400D01*
X147101733Y-67399733D01*
X147735066Y-67333066D02*
X147401733Y-67333066D01*
X147368400Y-67666400D01*
X147401733Y-67633066D01*
X147468400Y-67599733D01*
X147635066Y-67599733D01*
X147701733Y-67633066D01*
X147735066Y-67666400D01*
X147768400Y-67733066D01*
X147768400Y-67899733D01*
X147735066Y-67966400D01*
X147701733Y-67999733D01*
X147635066Y-68033066D01*
X147468400Y-68033066D01*
X147401733Y-67999733D01*
X147368400Y-67966400D01*
%TO.C,R18*%
X160558000Y-46163666D02*
X160324666Y-45830333D01*
X160158000Y-46163666D02*
X160158000Y-45463666D01*
X160424666Y-45463666D01*
X160491333Y-45497000D01*
X160524666Y-45530333D01*
X160558000Y-45597000D01*
X160558000Y-45697000D01*
X160524666Y-45763666D01*
X160491333Y-45797000D01*
X160424666Y-45830333D01*
X160158000Y-45830333D01*
X161224666Y-46163666D02*
X160824666Y-46163666D01*
X161024666Y-46163666D02*
X161024666Y-45463666D01*
X160958000Y-45563666D01*
X160891333Y-45630333D01*
X160824666Y-45663666D01*
X161624666Y-45763666D02*
X161558000Y-45730333D01*
X161524666Y-45697000D01*
X161491333Y-45630333D01*
X161491333Y-45597000D01*
X161524666Y-45530333D01*
X161558000Y-45497000D01*
X161624666Y-45463666D01*
X161758000Y-45463666D01*
X161824666Y-45497000D01*
X161858000Y-45530333D01*
X161891333Y-45597000D01*
X161891333Y-45630333D01*
X161858000Y-45697000D01*
X161824666Y-45730333D01*
X161758000Y-45763666D01*
X161624666Y-45763666D01*
X161558000Y-45797000D01*
X161524666Y-45830333D01*
X161491333Y-45897000D01*
X161491333Y-46030333D01*
X161524666Y-46097000D01*
X161558000Y-46130333D01*
X161624666Y-46163666D01*
X161758000Y-46163666D01*
X161824666Y-46130333D01*
X161858000Y-46097000D01*
X161891333Y-46030333D01*
X161891333Y-45897000D01*
X161858000Y-45830333D01*
X161824666Y-45797000D01*
X161758000Y-45763666D01*
%TO.C,C20*%
X167698000Y-54504400D02*
X167664666Y-54537733D01*
X167564666Y-54571066D01*
X167498000Y-54571066D01*
X167398000Y-54537733D01*
X167331333Y-54471066D01*
X167298000Y-54404400D01*
X167264666Y-54271066D01*
X167264666Y-54171066D01*
X167298000Y-54037733D01*
X167331333Y-53971066D01*
X167398000Y-53904400D01*
X167498000Y-53871066D01*
X167564666Y-53871066D01*
X167664666Y-53904400D01*
X167698000Y-53937733D01*
X167964666Y-53937733D02*
X167998000Y-53904400D01*
X168064666Y-53871066D01*
X168231333Y-53871066D01*
X168298000Y-53904400D01*
X168331333Y-53937733D01*
X168364666Y-54004400D01*
X168364666Y-54071066D01*
X168331333Y-54171066D01*
X167931333Y-54571066D01*
X168364666Y-54571066D01*
X168798000Y-53871066D02*
X168864666Y-53871066D01*
X168931333Y-53904400D01*
X168964666Y-53937733D01*
X168998000Y-54004400D01*
X169031333Y-54137733D01*
X169031333Y-54304400D01*
X168998000Y-54437733D01*
X168964666Y-54504400D01*
X168931333Y-54537733D01*
X168864666Y-54571066D01*
X168798000Y-54571066D01*
X168731333Y-54537733D01*
X168698000Y-54504400D01*
X168664666Y-54437733D01*
X168631333Y-54304400D01*
X168631333Y-54137733D01*
X168664666Y-54004400D01*
X168698000Y-53937733D01*
X168731333Y-53904400D01*
X168798000Y-53871066D01*
%TO.C,R23*%
X169526800Y-112838666D02*
X169293466Y-112505333D01*
X169126800Y-112838666D02*
X169126800Y-112138666D01*
X169393466Y-112138666D01*
X169460133Y-112172000D01*
X169493466Y-112205333D01*
X169526800Y-112272000D01*
X169526800Y-112372000D01*
X169493466Y-112438666D01*
X169460133Y-112472000D01*
X169393466Y-112505333D01*
X169126800Y-112505333D01*
X169793466Y-112205333D02*
X169826800Y-112172000D01*
X169893466Y-112138666D01*
X170060133Y-112138666D01*
X170126800Y-112172000D01*
X170160133Y-112205333D01*
X170193466Y-112272000D01*
X170193466Y-112338666D01*
X170160133Y-112438666D01*
X169760133Y-112838666D01*
X170193466Y-112838666D01*
X170426800Y-112138666D02*
X170860133Y-112138666D01*
X170626800Y-112405333D01*
X170726800Y-112405333D01*
X170793466Y-112438666D01*
X170826800Y-112472000D01*
X170860133Y-112538666D01*
X170860133Y-112705333D01*
X170826800Y-112772000D01*
X170793466Y-112805333D01*
X170726800Y-112838666D01*
X170526800Y-112838666D01*
X170460133Y-112805333D01*
X170426800Y-112772000D01*
%TO.C,R43*%
X169984000Y-84644666D02*
X169750666Y-84311333D01*
X169584000Y-84644666D02*
X169584000Y-83944666D01*
X169850666Y-83944666D01*
X169917333Y-83978000D01*
X169950666Y-84011333D01*
X169984000Y-84078000D01*
X169984000Y-84178000D01*
X169950666Y-84244666D01*
X169917333Y-84278000D01*
X169850666Y-84311333D01*
X169584000Y-84311333D01*
X170584000Y-84178000D02*
X170584000Y-84644666D01*
X170417333Y-83911333D02*
X170250666Y-84411333D01*
X170684000Y-84411333D01*
X170884000Y-83944666D02*
X171317333Y-83944666D01*
X171084000Y-84211333D01*
X171184000Y-84211333D01*
X171250666Y-84244666D01*
X171284000Y-84278000D01*
X171317333Y-84344666D01*
X171317333Y-84511333D01*
X171284000Y-84578000D01*
X171250666Y-84611333D01*
X171184000Y-84644666D01*
X170984000Y-84644666D01*
X170917333Y-84611333D01*
X170884000Y-84578000D01*
D12*
%TO.C,R7*%
X161872587Y-66277997D02*
X161943297Y-65877303D01*
X161589744Y-65995154D02*
X162084719Y-65500179D01*
X162273280Y-65688741D01*
X162296851Y-65759452D01*
X162296851Y-65806592D01*
X162273280Y-65877303D01*
X162202570Y-65948014D01*
X162131859Y-65971584D01*
X162084719Y-65971584D01*
X162014008Y-65948014D01*
X161825446Y-65759452D01*
X162532553Y-65948014D02*
X162862536Y-66277997D01*
X162155429Y-66560840D01*
D11*
%TO.C,R9*%
X165338933Y-43293466D02*
X165105600Y-42960133D01*
X164938933Y-43293466D02*
X164938933Y-42593466D01*
X165205600Y-42593466D01*
X165272266Y-42626800D01*
X165305600Y-42660133D01*
X165338933Y-42726800D01*
X165338933Y-42826800D01*
X165305600Y-42893466D01*
X165272266Y-42926800D01*
X165205600Y-42960133D01*
X164938933Y-42960133D01*
X165672266Y-43293466D02*
X165805600Y-43293466D01*
X165872266Y-43260133D01*
X165905600Y-43226800D01*
X165972266Y-43126800D01*
X166005600Y-42993466D01*
X166005600Y-42726800D01*
X165972266Y-42660133D01*
X165938933Y-42626800D01*
X165872266Y-42593466D01*
X165738933Y-42593466D01*
X165672266Y-42626800D01*
X165638933Y-42660133D01*
X165605600Y-42726800D01*
X165605600Y-42893466D01*
X165638933Y-42960133D01*
X165672266Y-42993466D01*
X165738933Y-43026800D01*
X165872266Y-43026800D01*
X165938933Y-42993466D01*
X165972266Y-42960133D01*
X166005600Y-42893466D01*
%TO.C,C13*%
X160738400Y-60194000D02*
X160705066Y-60227333D01*
X160605066Y-60260666D01*
X160538400Y-60260666D01*
X160438400Y-60227333D01*
X160371733Y-60160666D01*
X160338400Y-60094000D01*
X160305066Y-59960666D01*
X160305066Y-59860666D01*
X160338400Y-59727333D01*
X160371733Y-59660666D01*
X160438400Y-59594000D01*
X160538400Y-59560666D01*
X160605066Y-59560666D01*
X160705066Y-59594000D01*
X160738400Y-59627333D01*
X161405066Y-60260666D02*
X161005066Y-60260666D01*
X161205066Y-60260666D02*
X161205066Y-59560666D01*
X161138400Y-59660666D01*
X161071733Y-59727333D01*
X161005066Y-59760666D01*
X161638400Y-59560666D02*
X162071733Y-59560666D01*
X161838400Y-59827333D01*
X161938400Y-59827333D01*
X162005066Y-59860666D01*
X162038400Y-59894000D01*
X162071733Y-59960666D01*
X162071733Y-60127333D01*
X162038400Y-60194000D01*
X162005066Y-60227333D01*
X161938400Y-60260666D01*
X161738400Y-60260666D01*
X161671733Y-60227333D01*
X161638400Y-60194000D01*
%TO.C,R56*%
X143568000Y-114769066D02*
X143334666Y-114435733D01*
X143168000Y-114769066D02*
X143168000Y-114069066D01*
X143434666Y-114069066D01*
X143501333Y-114102400D01*
X143534666Y-114135733D01*
X143568000Y-114202400D01*
X143568000Y-114302400D01*
X143534666Y-114369066D01*
X143501333Y-114402400D01*
X143434666Y-114435733D01*
X143168000Y-114435733D01*
X144201333Y-114069066D02*
X143868000Y-114069066D01*
X143834666Y-114402400D01*
X143868000Y-114369066D01*
X143934666Y-114335733D01*
X144101333Y-114335733D01*
X144168000Y-114369066D01*
X144201333Y-114402400D01*
X144234666Y-114469066D01*
X144234666Y-114635733D01*
X144201333Y-114702400D01*
X144168000Y-114735733D01*
X144101333Y-114769066D01*
X143934666Y-114769066D01*
X143868000Y-114735733D01*
X143834666Y-114702400D01*
X144834666Y-114069066D02*
X144701333Y-114069066D01*
X144634666Y-114102400D01*
X144601333Y-114135733D01*
X144534666Y-114235733D01*
X144501333Y-114369066D01*
X144501333Y-114635733D01*
X144534666Y-114702400D01*
X144568000Y-114735733D01*
X144634666Y-114769066D01*
X144768000Y-114769066D01*
X144834666Y-114735733D01*
X144868000Y-114702400D01*
X144901333Y-114635733D01*
X144901333Y-114469066D01*
X144868000Y-114402400D01*
X144834666Y-114369066D01*
X144768000Y-114335733D01*
X144634666Y-114335733D01*
X144568000Y-114369066D01*
X144534666Y-114402400D01*
X144501333Y-114469066D01*
%TO.C,C19*%
X170963400Y-46754200D02*
X170996733Y-46787533D01*
X171030066Y-46887533D01*
X171030066Y-46954200D01*
X170996733Y-47054200D01*
X170930066Y-47120866D01*
X170863400Y-47154200D01*
X170730066Y-47187533D01*
X170630066Y-47187533D01*
X170496733Y-47154200D01*
X170430066Y-47120866D01*
X170363400Y-47054200D01*
X170330066Y-46954200D01*
X170330066Y-46887533D01*
X170363400Y-46787533D01*
X170396733Y-46754200D01*
X171030066Y-46087533D02*
X171030066Y-46487533D01*
X171030066Y-46287533D02*
X170330066Y-46287533D01*
X170430066Y-46354200D01*
X170496733Y-46420866D01*
X170530066Y-46487533D01*
X171030066Y-45754200D02*
X171030066Y-45620866D01*
X170996733Y-45554200D01*
X170963400Y-45520866D01*
X170863400Y-45454200D01*
X170730066Y-45420866D01*
X170463400Y-45420866D01*
X170396733Y-45454200D01*
X170363400Y-45487533D01*
X170330066Y-45554200D01*
X170330066Y-45687533D01*
X170363400Y-45754200D01*
X170396733Y-45787533D01*
X170463400Y-45820866D01*
X170630066Y-45820866D01*
X170696733Y-45787533D01*
X170730066Y-45754200D01*
X170763400Y-45687533D01*
X170763400Y-45554200D01*
X170730066Y-45487533D01*
X170696733Y-45454200D01*
X170630066Y-45420866D01*
%TO.C,C36*%
X163735600Y-108454000D02*
X163702266Y-108487333D01*
X163602266Y-108520666D01*
X163535600Y-108520666D01*
X163435600Y-108487333D01*
X163368933Y-108420666D01*
X163335600Y-108354000D01*
X163302266Y-108220666D01*
X163302266Y-108120666D01*
X163335600Y-107987333D01*
X163368933Y-107920666D01*
X163435600Y-107854000D01*
X163535600Y-107820666D01*
X163602266Y-107820666D01*
X163702266Y-107854000D01*
X163735600Y-107887333D01*
X163968933Y-107820666D02*
X164402266Y-107820666D01*
X164168933Y-108087333D01*
X164268933Y-108087333D01*
X164335600Y-108120666D01*
X164368933Y-108154000D01*
X164402266Y-108220666D01*
X164402266Y-108387333D01*
X164368933Y-108454000D01*
X164335600Y-108487333D01*
X164268933Y-108520666D01*
X164068933Y-108520666D01*
X164002266Y-108487333D01*
X163968933Y-108454000D01*
X165002266Y-107820666D02*
X164868933Y-107820666D01*
X164802266Y-107854000D01*
X164768933Y-107887333D01*
X164702266Y-107987333D01*
X164668933Y-108120666D01*
X164668933Y-108387333D01*
X164702266Y-108454000D01*
X164735600Y-108487333D01*
X164802266Y-108520666D01*
X164935600Y-108520666D01*
X165002266Y-108487333D01*
X165035600Y-108454000D01*
X165068933Y-108387333D01*
X165068933Y-108220666D01*
X165035600Y-108154000D01*
X165002266Y-108120666D01*
X164935600Y-108087333D01*
X164802266Y-108087333D01*
X164735600Y-108120666D01*
X164702266Y-108154000D01*
X164668933Y-108220666D01*
%TO.C,C44*%
X169312400Y-52875600D02*
X169345733Y-52908933D01*
X169379066Y-53008933D01*
X169379066Y-53075600D01*
X169345733Y-53175600D01*
X169279066Y-53242266D01*
X169212400Y-53275600D01*
X169079066Y-53308933D01*
X168979066Y-53308933D01*
X168845733Y-53275600D01*
X168779066Y-53242266D01*
X168712400Y-53175600D01*
X168679066Y-53075600D01*
X168679066Y-53008933D01*
X168712400Y-52908933D01*
X168745733Y-52875600D01*
X168912400Y-52275600D02*
X169379066Y-52275600D01*
X168645733Y-52442266D02*
X169145733Y-52608933D01*
X169145733Y-52175600D01*
X168912400Y-51608933D02*
X169379066Y-51608933D01*
X168645733Y-51775600D02*
X169145733Y-51942266D01*
X169145733Y-51508933D01*
%TO.C,R45*%
X156120266Y-116020000D02*
X155786933Y-116253333D01*
X156120266Y-116420000D02*
X155420266Y-116420000D01*
X155420266Y-116153333D01*
X155453600Y-116086666D01*
X155486933Y-116053333D01*
X155553600Y-116020000D01*
X155653600Y-116020000D01*
X155720266Y-116053333D01*
X155753600Y-116086666D01*
X155786933Y-116153333D01*
X155786933Y-116420000D01*
X155653600Y-115420000D02*
X156120266Y-115420000D01*
X155386933Y-115586666D02*
X155886933Y-115753333D01*
X155886933Y-115320000D01*
X155420266Y-114720000D02*
X155420266Y-115053333D01*
X155753600Y-115086666D01*
X155720266Y-115053333D01*
X155686933Y-114986666D01*
X155686933Y-114820000D01*
X155720266Y-114753333D01*
X155753600Y-114720000D01*
X155820266Y-114686666D01*
X155986933Y-114686666D01*
X156053600Y-114720000D01*
X156086933Y-114753333D01*
X156120266Y-114820000D01*
X156120266Y-114986666D01*
X156086933Y-115053333D01*
X156053600Y-115086666D01*
%TO.C,R5*%
X151599066Y-66766266D02*
X151265733Y-66999600D01*
X151599066Y-67166266D02*
X150899066Y-67166266D01*
X150899066Y-66899600D01*
X150932400Y-66832933D01*
X150965733Y-66799600D01*
X151032400Y-66766266D01*
X151132400Y-66766266D01*
X151199066Y-66799600D01*
X151232400Y-66832933D01*
X151265733Y-66899600D01*
X151265733Y-67166266D01*
X150899066Y-66132933D02*
X150899066Y-66466266D01*
X151232400Y-66499600D01*
X151199066Y-66466266D01*
X151165733Y-66399600D01*
X151165733Y-66232933D01*
X151199066Y-66166266D01*
X151232400Y-66132933D01*
X151299066Y-66099600D01*
X151465733Y-66099600D01*
X151532400Y-66132933D01*
X151565733Y-66166266D01*
X151599066Y-66232933D01*
X151599066Y-66399600D01*
X151565733Y-66466266D01*
X151532400Y-66499600D01*
%TO.C,R28*%
X150633866Y-38854800D02*
X150300533Y-39088133D01*
X150633866Y-39254800D02*
X149933866Y-39254800D01*
X149933866Y-38988133D01*
X149967200Y-38921466D01*
X150000533Y-38888133D01*
X150067200Y-38854800D01*
X150167200Y-38854800D01*
X150233866Y-38888133D01*
X150267200Y-38921466D01*
X150300533Y-38988133D01*
X150300533Y-39254800D01*
X150000533Y-38588133D02*
X149967200Y-38554800D01*
X149933866Y-38488133D01*
X149933866Y-38321466D01*
X149967200Y-38254800D01*
X150000533Y-38221466D01*
X150067200Y-38188133D01*
X150133866Y-38188133D01*
X150233866Y-38221466D01*
X150633866Y-38621466D01*
X150633866Y-38188133D01*
X150233866Y-37788133D02*
X150200533Y-37854800D01*
X150167200Y-37888133D01*
X150100533Y-37921466D01*
X150067200Y-37921466D01*
X150000533Y-37888133D01*
X149967200Y-37854800D01*
X149933866Y-37788133D01*
X149933866Y-37654800D01*
X149967200Y-37588133D01*
X150000533Y-37554800D01*
X150067200Y-37521466D01*
X150100533Y-37521466D01*
X150167200Y-37554800D01*
X150200533Y-37588133D01*
X150233866Y-37654800D01*
X150233866Y-37788133D01*
X150267200Y-37854800D01*
X150300533Y-37888133D01*
X150367200Y-37921466D01*
X150500533Y-37921466D01*
X150567200Y-37888133D01*
X150600533Y-37854800D01*
X150633866Y-37788133D01*
X150633866Y-37654800D01*
X150600533Y-37588133D01*
X150567200Y-37554800D01*
X150500533Y-37521466D01*
X150367200Y-37521466D01*
X150300533Y-37554800D01*
X150267200Y-37588133D01*
X150233866Y-37654800D01*
%TO.C,FB1*%
X144916666Y-71050000D02*
X144683333Y-71050000D01*
X144683333Y-71416666D02*
X144683333Y-70716666D01*
X145016666Y-70716666D01*
X145516666Y-71050000D02*
X145616666Y-71083333D01*
X145650000Y-71116666D01*
X145683333Y-71183333D01*
X145683333Y-71283333D01*
X145650000Y-71350000D01*
X145616666Y-71383333D01*
X145550000Y-71416666D01*
X145283333Y-71416666D01*
X145283333Y-70716666D01*
X145516666Y-70716666D01*
X145583333Y-70750000D01*
X145616666Y-70783333D01*
X145650000Y-70850000D01*
X145650000Y-70916666D01*
X145616666Y-70983333D01*
X145583333Y-71016666D01*
X145516666Y-71050000D01*
X145283333Y-71050000D01*
X146350000Y-71416666D02*
X145950000Y-71416666D01*
X146150000Y-71416666D02*
X146150000Y-70716666D01*
X146083333Y-70816666D01*
X146016666Y-70883333D01*
X145950000Y-70916666D01*
%TO.C,C30*%
X144711000Y-86483000D02*
X144677666Y-86516333D01*
X144577666Y-86549666D01*
X144511000Y-86549666D01*
X144411000Y-86516333D01*
X144344333Y-86449666D01*
X144311000Y-86383000D01*
X144277666Y-86249666D01*
X144277666Y-86149666D01*
X144311000Y-86016333D01*
X144344333Y-85949666D01*
X144411000Y-85883000D01*
X144511000Y-85849666D01*
X144577666Y-85849666D01*
X144677666Y-85883000D01*
X144711000Y-85916333D01*
X144944333Y-85849666D02*
X145377666Y-85849666D01*
X145144333Y-86116333D01*
X145244333Y-86116333D01*
X145311000Y-86149666D01*
X145344333Y-86183000D01*
X145377666Y-86249666D01*
X145377666Y-86416333D01*
X145344333Y-86483000D01*
X145311000Y-86516333D01*
X145244333Y-86549666D01*
X145044333Y-86549666D01*
X144977666Y-86516333D01*
X144944333Y-86483000D01*
X145811000Y-85849666D02*
X145877666Y-85849666D01*
X145944333Y-85883000D01*
X145977666Y-85916333D01*
X146011000Y-85983000D01*
X146044333Y-86116333D01*
X146044333Y-86283000D01*
X146011000Y-86416333D01*
X145977666Y-86483000D01*
X145944333Y-86516333D01*
X145877666Y-86549666D01*
X145811000Y-86549666D01*
X145744333Y-86516333D01*
X145711000Y-86483000D01*
X145677666Y-86416333D01*
X145644333Y-86283000D01*
X145644333Y-86116333D01*
X145677666Y-85983000D01*
X145711000Y-85916333D01*
X145744333Y-85883000D01*
X145811000Y-85849666D01*
%TO.C,F4*%
X143943600Y-111756265D02*
X143943600Y-111989598D01*
X144310266Y-111989598D02*
X143610266Y-111989598D01*
X143610266Y-111656265D01*
X143843600Y-111089598D02*
X144310266Y-111089598D01*
X143576933Y-111256265D02*
X144076933Y-111422932D01*
X144076933Y-110989598D01*
%TO.C,C38*%
X164892800Y-117544000D02*
X164926133Y-117577333D01*
X164959466Y-117677333D01*
X164959466Y-117744000D01*
X164926133Y-117844000D01*
X164859466Y-117910666D01*
X164792800Y-117944000D01*
X164659466Y-117977333D01*
X164559466Y-117977333D01*
X164426133Y-117944000D01*
X164359466Y-117910666D01*
X164292800Y-117844000D01*
X164259466Y-117744000D01*
X164259466Y-117677333D01*
X164292800Y-117577333D01*
X164326133Y-117544000D01*
X164259466Y-117310666D02*
X164259466Y-116877333D01*
X164526133Y-117110666D01*
X164526133Y-117010666D01*
X164559466Y-116944000D01*
X164592800Y-116910666D01*
X164659466Y-116877333D01*
X164826133Y-116877333D01*
X164892800Y-116910666D01*
X164926133Y-116944000D01*
X164959466Y-117010666D01*
X164959466Y-117210666D01*
X164926133Y-117277333D01*
X164892800Y-117310666D01*
X164559466Y-116477333D02*
X164526133Y-116544000D01*
X164492800Y-116577333D01*
X164426133Y-116610666D01*
X164392800Y-116610666D01*
X164326133Y-116577333D01*
X164292800Y-116544000D01*
X164259466Y-116477333D01*
X164259466Y-116344000D01*
X164292800Y-116277333D01*
X164326133Y-116244000D01*
X164392800Y-116210666D01*
X164426133Y-116210666D01*
X164492800Y-116244000D01*
X164526133Y-116277333D01*
X164559466Y-116344000D01*
X164559466Y-116477333D01*
X164592800Y-116544000D01*
X164626133Y-116577333D01*
X164692800Y-116610666D01*
X164826133Y-116610666D01*
X164892800Y-116577333D01*
X164926133Y-116544000D01*
X164959466Y-116477333D01*
X164959466Y-116344000D01*
X164926133Y-116277333D01*
X164892800Y-116244000D01*
X164826133Y-116210666D01*
X164692800Y-116210666D01*
X164626133Y-116244000D01*
X164592800Y-116277333D01*
X164559466Y-116344000D01*
%TO.C,D11*%
X156299442Y-80852076D02*
X156794416Y-80357101D01*
X156912267Y-80474952D01*
X156959408Y-80569233D01*
X156959408Y-80663514D01*
X156935838Y-80734225D01*
X156865127Y-80852076D01*
X156794416Y-80922787D01*
X156676565Y-80993497D01*
X156605855Y-81017067D01*
X156511574Y-81017067D01*
X156417293Y-80969927D01*
X156299442Y-80852076D01*
X157053689Y-81606323D02*
X156770846Y-81323480D01*
X156912267Y-81464902D02*
X157407242Y-80969927D01*
X157289391Y-80993497D01*
X157195110Y-80993497D01*
X157124400Y-80969927D01*
X157525093Y-82077728D02*
X157242251Y-81794885D01*
X157383672Y-81936306D02*
X157878647Y-81441332D01*
X157760796Y-81464902D01*
X157666515Y-81464902D01*
X157595804Y-81441332D01*
%TO.C,R48*%
X156069466Y-106418800D02*
X155736133Y-106652133D01*
X156069466Y-106818800D02*
X155369466Y-106818800D01*
X155369466Y-106552133D01*
X155402800Y-106485466D01*
X155436133Y-106452133D01*
X155502800Y-106418800D01*
X155602800Y-106418800D01*
X155669466Y-106452133D01*
X155702800Y-106485466D01*
X155736133Y-106552133D01*
X155736133Y-106818800D01*
X155602800Y-105818800D02*
X156069466Y-105818800D01*
X155336133Y-105985466D02*
X155836133Y-106152133D01*
X155836133Y-105718800D01*
X155669466Y-105352133D02*
X155636133Y-105418800D01*
X155602800Y-105452133D01*
X155536133Y-105485466D01*
X155502800Y-105485466D01*
X155436133Y-105452133D01*
X155402800Y-105418800D01*
X155369466Y-105352133D01*
X155369466Y-105218800D01*
X155402800Y-105152133D01*
X155436133Y-105118800D01*
X155502800Y-105085466D01*
X155536133Y-105085466D01*
X155602800Y-105118800D01*
X155636133Y-105152133D01*
X155669466Y-105218800D01*
X155669466Y-105352133D01*
X155702800Y-105418800D01*
X155736133Y-105452133D01*
X155802800Y-105485466D01*
X155936133Y-105485466D01*
X156002800Y-105452133D01*
X156036133Y-105418800D01*
X156069466Y-105352133D01*
X156069466Y-105218800D01*
X156036133Y-105152133D01*
X156002800Y-105118800D01*
X155936133Y-105085466D01*
X155802800Y-105085466D01*
X155736133Y-105118800D01*
X155702800Y-105152133D01*
X155669466Y-105218800D01*
%TO.C,U8*%
X170113666Y-124925466D02*
X170113666Y-125492133D01*
X170147000Y-125558800D01*
X170180333Y-125592133D01*
X170247000Y-125625466D01*
X170380333Y-125625466D01*
X170447000Y-125592133D01*
X170480333Y-125558800D01*
X170513666Y-125492133D01*
X170513666Y-124925466D01*
X170947000Y-125225466D02*
X170880333Y-125192133D01*
X170847000Y-125158800D01*
X170813666Y-125092133D01*
X170813666Y-125058800D01*
X170847000Y-124992133D01*
X170880333Y-124958800D01*
X170947000Y-124925466D01*
X171080333Y-124925466D01*
X171147000Y-124958800D01*
X171180333Y-124992133D01*
X171213666Y-125058800D01*
X171213666Y-125092133D01*
X171180333Y-125158800D01*
X171147000Y-125192133D01*
X171080333Y-125225466D01*
X170947000Y-125225466D01*
X170880333Y-125258800D01*
X170847000Y-125292133D01*
X170813666Y-125358800D01*
X170813666Y-125492133D01*
X170847000Y-125558800D01*
X170880333Y-125592133D01*
X170947000Y-125625466D01*
X171080333Y-125625466D01*
X171147000Y-125592133D01*
X171180333Y-125558800D01*
X171213666Y-125492133D01*
X171213666Y-125358800D01*
X171180333Y-125292133D01*
X171147000Y-125258800D01*
X171080333Y-125225466D01*
X167914600Y-121727980D02*
X167914600Y-121966076D01*
X167676504Y-121870838D02*
X167914600Y-121966076D01*
X168152695Y-121870838D01*
X167771742Y-122156552D02*
X167914600Y-121966076D01*
X168057457Y-122156552D01*
%TO.C,R57*%
X143466400Y-102983466D02*
X143233066Y-102650133D01*
X143066400Y-102983466D02*
X143066400Y-102283466D01*
X143333066Y-102283466D01*
X143399733Y-102316800D01*
X143433066Y-102350133D01*
X143466400Y-102416800D01*
X143466400Y-102516800D01*
X143433066Y-102583466D01*
X143399733Y-102616800D01*
X143333066Y-102650133D01*
X143066400Y-102650133D01*
X144099733Y-102283466D02*
X143766400Y-102283466D01*
X143733066Y-102616800D01*
X143766400Y-102583466D01*
X143833066Y-102550133D01*
X143999733Y-102550133D01*
X144066400Y-102583466D01*
X144099733Y-102616800D01*
X144133066Y-102683466D01*
X144133066Y-102850133D01*
X144099733Y-102916800D01*
X144066400Y-102950133D01*
X143999733Y-102983466D01*
X143833066Y-102983466D01*
X143766400Y-102950133D01*
X143733066Y-102916800D01*
X144366400Y-102283466D02*
X144833066Y-102283466D01*
X144533066Y-102983466D01*
%TO.C,C31*%
X160812000Y-51304000D02*
X160778666Y-51337333D01*
X160678666Y-51370666D01*
X160612000Y-51370666D01*
X160512000Y-51337333D01*
X160445333Y-51270666D01*
X160412000Y-51204000D01*
X160378666Y-51070666D01*
X160378666Y-50970666D01*
X160412000Y-50837333D01*
X160445333Y-50770666D01*
X160512000Y-50704000D01*
X160612000Y-50670666D01*
X160678666Y-50670666D01*
X160778666Y-50704000D01*
X160812000Y-50737333D01*
X161045333Y-50670666D02*
X161478666Y-50670666D01*
X161245333Y-50937333D01*
X161345333Y-50937333D01*
X161412000Y-50970666D01*
X161445333Y-51004000D01*
X161478666Y-51070666D01*
X161478666Y-51237333D01*
X161445333Y-51304000D01*
X161412000Y-51337333D01*
X161345333Y-51370666D01*
X161145333Y-51370666D01*
X161078666Y-51337333D01*
X161045333Y-51304000D01*
X162145333Y-51370666D02*
X161745333Y-51370666D01*
X161945333Y-51370666D02*
X161945333Y-50670666D01*
X161878666Y-50770666D01*
X161812000Y-50837333D01*
X161745333Y-50870666D01*
%TO.C,C40*%
X170288800Y-54758400D02*
X170255466Y-54791733D01*
X170155466Y-54825066D01*
X170088800Y-54825066D01*
X169988800Y-54791733D01*
X169922133Y-54725066D01*
X169888800Y-54658400D01*
X169855466Y-54525066D01*
X169855466Y-54425066D01*
X169888800Y-54291733D01*
X169922133Y-54225066D01*
X169988800Y-54158400D01*
X170088800Y-54125066D01*
X170155466Y-54125066D01*
X170255466Y-54158400D01*
X170288800Y-54191733D01*
X170888800Y-54358400D02*
X170888800Y-54825066D01*
X170722133Y-54091733D02*
X170555466Y-54591733D01*
X170988800Y-54591733D01*
X171388800Y-54125066D02*
X171455466Y-54125066D01*
X171522133Y-54158400D01*
X171555466Y-54191733D01*
X171588800Y-54258400D01*
X171622133Y-54391733D01*
X171622133Y-54558400D01*
X171588800Y-54691733D01*
X171555466Y-54758400D01*
X171522133Y-54791733D01*
X171455466Y-54825066D01*
X171388800Y-54825066D01*
X171322133Y-54791733D01*
X171288800Y-54758400D01*
X171255466Y-54691733D01*
X171222133Y-54558400D01*
X171222133Y-54391733D01*
X171255466Y-54258400D01*
X171288800Y-54191733D01*
X171322133Y-54158400D01*
X171388800Y-54125066D01*
%TO.C,C43*%
X142501200Y-52955000D02*
X142467866Y-52988333D01*
X142367866Y-53021666D01*
X142301200Y-53021666D01*
X142201200Y-52988333D01*
X142134533Y-52921666D01*
X142101200Y-52855000D01*
X142067866Y-52721666D01*
X142067866Y-52621666D01*
X142101200Y-52488333D01*
X142134533Y-52421666D01*
X142201200Y-52355000D01*
X142301200Y-52321666D01*
X142367866Y-52321666D01*
X142467866Y-52355000D01*
X142501200Y-52388333D01*
X143101200Y-52555000D02*
X143101200Y-53021666D01*
X142934533Y-52288333D02*
X142767866Y-52788333D01*
X143201200Y-52788333D01*
X143401200Y-52321666D02*
X143834533Y-52321666D01*
X143601200Y-52588333D01*
X143701200Y-52588333D01*
X143767866Y-52621666D01*
X143801200Y-52655000D01*
X143834533Y-52721666D01*
X143834533Y-52888333D01*
X143801200Y-52955000D01*
X143767866Y-52988333D01*
X143701200Y-53021666D01*
X143501200Y-53021666D01*
X143434533Y-52988333D01*
X143401200Y-52955000D01*
%TO.C,C7*%
X150921527Y-65372280D02*
X150874387Y-65372280D01*
X150780106Y-65325140D01*
X150732965Y-65277999D01*
X150685825Y-65183719D01*
X150685825Y-65089438D01*
X150709395Y-65018727D01*
X150780106Y-64900876D01*
X150850816Y-64830165D01*
X150968667Y-64759455D01*
X151039378Y-64735884D01*
X151133659Y-64735884D01*
X151227940Y-64783025D01*
X151275080Y-64830165D01*
X151322221Y-64924446D01*
X151322221Y-64971587D01*
X151534353Y-65089438D02*
X151864336Y-65419421D01*
X151157229Y-65702264D01*
%TO.C,C47*%
X146920800Y-104186800D02*
X146887466Y-104220133D01*
X146787466Y-104253466D01*
X146720800Y-104253466D01*
X146620800Y-104220133D01*
X146554133Y-104153466D01*
X146520800Y-104086800D01*
X146487466Y-103953466D01*
X146487466Y-103853466D01*
X146520800Y-103720133D01*
X146554133Y-103653466D01*
X146620800Y-103586800D01*
X146720800Y-103553466D01*
X146787466Y-103553466D01*
X146887466Y-103586800D01*
X146920800Y-103620133D01*
X147520800Y-103786800D02*
X147520800Y-104253466D01*
X147354133Y-103520133D02*
X147187466Y-104020133D01*
X147620800Y-104020133D01*
X147820800Y-103553466D02*
X148287466Y-103553466D01*
X147987466Y-104253466D01*
%TO.C,C45*%
X167890000Y-50735764D02*
X167923333Y-50769097D01*
X167956666Y-50869097D01*
X167956666Y-50935764D01*
X167923333Y-51035764D01*
X167856666Y-51102430D01*
X167790000Y-51135764D01*
X167656666Y-51169097D01*
X167556666Y-51169097D01*
X167423333Y-51135764D01*
X167356666Y-51102430D01*
X167290000Y-51035764D01*
X167256666Y-50935764D01*
X167256666Y-50869097D01*
X167290000Y-50769097D01*
X167323333Y-50735764D01*
X167490000Y-50135764D02*
X167956666Y-50135764D01*
X167223333Y-50302430D02*
X167723333Y-50469097D01*
X167723333Y-50035764D01*
X167256666Y-49435764D02*
X167256666Y-49769097D01*
X167590000Y-49802430D01*
X167556666Y-49769097D01*
X167523333Y-49702430D01*
X167523333Y-49535764D01*
X167556666Y-49469097D01*
X167590000Y-49435764D01*
X167656666Y-49402430D01*
X167823333Y-49402430D01*
X167890000Y-49435764D01*
X167923333Y-49469097D01*
X167956666Y-49535764D01*
X167956666Y-49702430D01*
X167923333Y-49769097D01*
X167890000Y-49802430D01*
%TO.C,R61*%
X147174800Y-97395466D02*
X146941466Y-97062133D01*
X146774800Y-97395466D02*
X146774800Y-96695466D01*
X147041466Y-96695466D01*
X147108133Y-96728800D01*
X147141466Y-96762133D01*
X147174800Y-96828800D01*
X147174800Y-96928800D01*
X147141466Y-96995466D01*
X147108133Y-97028800D01*
X147041466Y-97062133D01*
X146774800Y-97062133D01*
X147774800Y-96695466D02*
X147641466Y-96695466D01*
X147574800Y-96728800D01*
X147541466Y-96762133D01*
X147474800Y-96862133D01*
X147441466Y-96995466D01*
X147441466Y-97262133D01*
X147474800Y-97328800D01*
X147508133Y-97362133D01*
X147574800Y-97395466D01*
X147708133Y-97395466D01*
X147774800Y-97362133D01*
X147808133Y-97328800D01*
X147841466Y-97262133D01*
X147841466Y-97095466D01*
X147808133Y-97028800D01*
X147774800Y-96995466D01*
X147708133Y-96962133D01*
X147574800Y-96962133D01*
X147508133Y-96995466D01*
X147474800Y-97028800D01*
X147441466Y-97095466D01*
X148508133Y-97395466D02*
X148108133Y-97395466D01*
X148308133Y-97395466D02*
X148308133Y-96695466D01*
X148241466Y-96795466D01*
X148174800Y-96862133D01*
X148108133Y-96895466D01*
%TO.C,Q1*%
X155374133Y-75149066D02*
X155340800Y-75215733D01*
X155274133Y-75282400D01*
X155174133Y-75382400D01*
X155140800Y-75449066D01*
X155140800Y-75515733D01*
X155307466Y-75482400D02*
X155274133Y-75549066D01*
X155207466Y-75615733D01*
X155074133Y-75649066D01*
X154840800Y-75649066D01*
X154707466Y-75615733D01*
X154640800Y-75549066D01*
X154607466Y-75482400D01*
X154607466Y-75349066D01*
X154640800Y-75282400D01*
X154707466Y-75215733D01*
X154840800Y-75182400D01*
X155074133Y-75182400D01*
X155207466Y-75215733D01*
X155274133Y-75282400D01*
X155307466Y-75349066D01*
X155307466Y-75482400D01*
X155307466Y-74515733D02*
X155307466Y-74915733D01*
X155307466Y-74715733D02*
X154607466Y-74715733D01*
X154707466Y-74782400D01*
X154774133Y-74849066D01*
X154807466Y-74915733D01*
%TO.C,R62*%
X151040266Y-113734000D02*
X150706933Y-113967333D01*
X151040266Y-114134000D02*
X150340266Y-114134000D01*
X150340266Y-113867333D01*
X150373600Y-113800666D01*
X150406933Y-113767333D01*
X150473600Y-113734000D01*
X150573600Y-113734000D01*
X150640266Y-113767333D01*
X150673600Y-113800666D01*
X150706933Y-113867333D01*
X150706933Y-114134000D01*
X150340266Y-113134000D02*
X150340266Y-113267333D01*
X150373600Y-113334000D01*
X150406933Y-113367333D01*
X150506933Y-113434000D01*
X150640266Y-113467333D01*
X150906933Y-113467333D01*
X150973600Y-113434000D01*
X151006933Y-113400666D01*
X151040266Y-113334000D01*
X151040266Y-113200666D01*
X151006933Y-113134000D01*
X150973600Y-113100666D01*
X150906933Y-113067333D01*
X150740266Y-113067333D01*
X150673600Y-113100666D01*
X150640266Y-113134000D01*
X150606933Y-113200666D01*
X150606933Y-113334000D01*
X150640266Y-113400666D01*
X150673600Y-113434000D01*
X150740266Y-113467333D01*
X150406933Y-112800666D02*
X150373600Y-112767333D01*
X150340266Y-112700666D01*
X150340266Y-112534000D01*
X150373600Y-112467333D01*
X150406933Y-112434000D01*
X150473600Y-112400666D01*
X150540266Y-112400666D01*
X150640266Y-112434000D01*
X151040266Y-112834000D01*
X151040266Y-112400666D01*
%TO.C,C25*%
X143125000Y-88334000D02*
X143158333Y-88367333D01*
X143191666Y-88467333D01*
X143191666Y-88534000D01*
X143158333Y-88634000D01*
X143091666Y-88700666D01*
X143025000Y-88734000D01*
X142891666Y-88767333D01*
X142791666Y-88767333D01*
X142658333Y-88734000D01*
X142591666Y-88700666D01*
X142525000Y-88634000D01*
X142491666Y-88534000D01*
X142491666Y-88467333D01*
X142525000Y-88367333D01*
X142558333Y-88334000D01*
X142558333Y-88067333D02*
X142525000Y-88034000D01*
X142491666Y-87967333D01*
X142491666Y-87800666D01*
X142525000Y-87734000D01*
X142558333Y-87700666D01*
X142625000Y-87667333D01*
X142691666Y-87667333D01*
X142791666Y-87700666D01*
X143191666Y-88100666D01*
X143191666Y-87667333D01*
X142491666Y-87034000D02*
X142491666Y-87367333D01*
X142825000Y-87400666D01*
X142791666Y-87367333D01*
X142758333Y-87300666D01*
X142758333Y-87134000D01*
X142791666Y-87067333D01*
X142825000Y-87034000D01*
X142891666Y-87000666D01*
X143058333Y-87000666D01*
X143125000Y-87034000D01*
X143158333Y-87067333D01*
X143191666Y-87134000D01*
X143191666Y-87300666D01*
X143158333Y-87367333D01*
X143125000Y-87400666D01*
%TO.C,R63*%
X151040266Y-101796000D02*
X150706933Y-102029333D01*
X151040266Y-102196000D02*
X150340266Y-102196000D01*
X150340266Y-101929333D01*
X150373600Y-101862666D01*
X150406933Y-101829333D01*
X150473600Y-101796000D01*
X150573600Y-101796000D01*
X150640266Y-101829333D01*
X150673600Y-101862666D01*
X150706933Y-101929333D01*
X150706933Y-102196000D01*
X150340266Y-101196000D02*
X150340266Y-101329333D01*
X150373600Y-101396000D01*
X150406933Y-101429333D01*
X150506933Y-101496000D01*
X150640266Y-101529333D01*
X150906933Y-101529333D01*
X150973600Y-101496000D01*
X151006933Y-101462666D01*
X151040266Y-101396000D01*
X151040266Y-101262666D01*
X151006933Y-101196000D01*
X150973600Y-101162666D01*
X150906933Y-101129333D01*
X150740266Y-101129333D01*
X150673600Y-101162666D01*
X150640266Y-101196000D01*
X150606933Y-101262666D01*
X150606933Y-101396000D01*
X150640266Y-101462666D01*
X150673600Y-101496000D01*
X150740266Y-101529333D01*
X150340266Y-100896000D02*
X150340266Y-100462666D01*
X150606933Y-100696000D01*
X150606933Y-100596000D01*
X150640266Y-100529333D01*
X150673600Y-100496000D01*
X150740266Y-100462666D01*
X150906933Y-100462666D01*
X150973600Y-100496000D01*
X151006933Y-100529333D01*
X151040266Y-100596000D01*
X151040266Y-100796000D01*
X151006933Y-100862666D01*
X150973600Y-100896000D01*
%TO.C,C29*%
X164700800Y-50288000D02*
X164667466Y-50321333D01*
X164567466Y-50354666D01*
X164500800Y-50354666D01*
X164400800Y-50321333D01*
X164334133Y-50254666D01*
X164300800Y-50188000D01*
X164267466Y-50054666D01*
X164267466Y-49954666D01*
X164300800Y-49821333D01*
X164334133Y-49754666D01*
X164400800Y-49688000D01*
X164500800Y-49654666D01*
X164567466Y-49654666D01*
X164667466Y-49688000D01*
X164700800Y-49721333D01*
X164967466Y-49721333D02*
X165000800Y-49688000D01*
X165067466Y-49654666D01*
X165234133Y-49654666D01*
X165300800Y-49688000D01*
X165334133Y-49721333D01*
X165367466Y-49788000D01*
X165367466Y-49854666D01*
X165334133Y-49954666D01*
X164934133Y-50354666D01*
X165367466Y-50354666D01*
X165700800Y-50354666D02*
X165834133Y-50354666D01*
X165900800Y-50321333D01*
X165934133Y-50288000D01*
X166000800Y-50188000D01*
X166034133Y-50054666D01*
X166034133Y-49788000D01*
X166000800Y-49721333D01*
X165967466Y-49688000D01*
X165900800Y-49654666D01*
X165767466Y-49654666D01*
X165700800Y-49688000D01*
X165667466Y-49721333D01*
X165634133Y-49788000D01*
X165634133Y-49954666D01*
X165667466Y-50021333D01*
X165700800Y-50054666D01*
X165767466Y-50088000D01*
X165900800Y-50088000D01*
X165967466Y-50054666D01*
X166000800Y-50021333D01*
X166034133Y-49954666D01*
%TO.C,R31*%
X153326266Y-39413600D02*
X152992933Y-39646933D01*
X153326266Y-39813600D02*
X152626266Y-39813600D01*
X152626266Y-39546933D01*
X152659600Y-39480266D01*
X152692933Y-39446933D01*
X152759600Y-39413600D01*
X152859600Y-39413600D01*
X152926266Y-39446933D01*
X152959600Y-39480266D01*
X152992933Y-39546933D01*
X152992933Y-39813600D01*
X152626266Y-39180266D02*
X152626266Y-38746933D01*
X152892933Y-38980266D01*
X152892933Y-38880266D01*
X152926266Y-38813600D01*
X152959600Y-38780266D01*
X153026266Y-38746933D01*
X153192933Y-38746933D01*
X153259600Y-38780266D01*
X153292933Y-38813600D01*
X153326266Y-38880266D01*
X153326266Y-39080266D01*
X153292933Y-39146933D01*
X153259600Y-39180266D01*
X153326266Y-38080266D02*
X153326266Y-38480266D01*
X153326266Y-38280266D02*
X152626266Y-38280266D01*
X152726266Y-38346933D01*
X152792933Y-38413600D01*
X152826266Y-38480266D01*
%TO.C,C15*%
X147124000Y-53336000D02*
X147090666Y-53369333D01*
X146990666Y-53402666D01*
X146924000Y-53402666D01*
X146824000Y-53369333D01*
X146757333Y-53302666D01*
X146724000Y-53236000D01*
X146690666Y-53102666D01*
X146690666Y-53002666D01*
X146724000Y-52869333D01*
X146757333Y-52802666D01*
X146824000Y-52736000D01*
X146924000Y-52702666D01*
X146990666Y-52702666D01*
X147090666Y-52736000D01*
X147124000Y-52769333D01*
X147790666Y-53402666D02*
X147390666Y-53402666D01*
X147590666Y-53402666D02*
X147590666Y-52702666D01*
X147524000Y-52802666D01*
X147457333Y-52869333D01*
X147390666Y-52902666D01*
X148424000Y-52702666D02*
X148090666Y-52702666D01*
X148057333Y-53036000D01*
X148090666Y-53002666D01*
X148157333Y-52969333D01*
X148324000Y-52969333D01*
X148390666Y-53002666D01*
X148424000Y-53036000D01*
X148457333Y-53102666D01*
X148457333Y-53269333D01*
X148424000Y-53336000D01*
X148390666Y-53369333D01*
X148324000Y-53402666D01*
X148157333Y-53402666D01*
X148090666Y-53369333D01*
X148057333Y-53336000D01*
%TO.C,C18*%
X159203200Y-48303600D02*
X159236533Y-48336933D01*
X159269866Y-48436933D01*
X159269866Y-48503600D01*
X159236533Y-48603600D01*
X159169866Y-48670266D01*
X159103200Y-48703600D01*
X158969866Y-48736933D01*
X158869866Y-48736933D01*
X158736533Y-48703600D01*
X158669866Y-48670266D01*
X158603200Y-48603600D01*
X158569866Y-48503600D01*
X158569866Y-48436933D01*
X158603200Y-48336933D01*
X158636533Y-48303600D01*
X159269866Y-47636933D02*
X159269866Y-48036933D01*
X159269866Y-47836933D02*
X158569866Y-47836933D01*
X158669866Y-47903600D01*
X158736533Y-47970266D01*
X158769866Y-48036933D01*
X158869866Y-47236933D02*
X158836533Y-47303600D01*
X158803200Y-47336933D01*
X158736533Y-47370266D01*
X158703200Y-47370266D01*
X158636533Y-47336933D01*
X158603200Y-47303600D01*
X158569866Y-47236933D01*
X158569866Y-47103600D01*
X158603200Y-47036933D01*
X158636533Y-47003600D01*
X158703200Y-46970266D01*
X158736533Y-46970266D01*
X158803200Y-47003600D01*
X158836533Y-47036933D01*
X158869866Y-47103600D01*
X158869866Y-47236933D01*
X158903200Y-47303600D01*
X158936533Y-47336933D01*
X159003200Y-47370266D01*
X159136533Y-47370266D01*
X159203200Y-47336933D01*
X159236533Y-47303600D01*
X159269866Y-47236933D01*
X159269866Y-47103600D01*
X159236533Y-47036933D01*
X159203200Y-47003600D01*
X159136533Y-46970266D01*
X159003200Y-46970266D01*
X158936533Y-47003600D01*
X158903200Y-47036933D01*
X158869866Y-47103600D01*
%TO.C,R10*%
X157030000Y-43750666D02*
X156796666Y-43417333D01*
X156630000Y-43750666D02*
X156630000Y-43050666D01*
X156896666Y-43050666D01*
X156963333Y-43084000D01*
X156996666Y-43117333D01*
X157030000Y-43184000D01*
X157030000Y-43284000D01*
X156996666Y-43350666D01*
X156963333Y-43384000D01*
X156896666Y-43417333D01*
X156630000Y-43417333D01*
X157696666Y-43750666D02*
X157296666Y-43750666D01*
X157496666Y-43750666D02*
X157496666Y-43050666D01*
X157430000Y-43150666D01*
X157363333Y-43217333D01*
X157296666Y-43250666D01*
X158130000Y-43050666D02*
X158196666Y-43050666D01*
X158263333Y-43084000D01*
X158296666Y-43117333D01*
X158330000Y-43184000D01*
X158363333Y-43317333D01*
X158363333Y-43484000D01*
X158330000Y-43617333D01*
X158296666Y-43684000D01*
X158263333Y-43717333D01*
X158196666Y-43750666D01*
X158130000Y-43750666D01*
X158063333Y-43717333D01*
X158030000Y-43684000D01*
X157996666Y-43617333D01*
X157963333Y-43484000D01*
X157963333Y-43317333D01*
X157996666Y-43184000D01*
X158030000Y-43117333D01*
X158063333Y-43084000D01*
X158130000Y-43050666D01*
%TO.C,C2*%
X149703600Y-62295866D02*
X149736933Y-62329200D01*
X149770266Y-62429200D01*
X149770266Y-62495866D01*
X149736933Y-62595866D01*
X149670266Y-62662533D01*
X149603600Y-62695866D01*
X149470266Y-62729200D01*
X149370266Y-62729200D01*
X149236933Y-62695866D01*
X149170266Y-62662533D01*
X149103600Y-62595866D01*
X149070266Y-62495866D01*
X149070266Y-62429200D01*
X149103600Y-62329200D01*
X149136933Y-62295866D01*
X149136933Y-62029200D02*
X149103600Y-61995866D01*
X149070266Y-61929200D01*
X149070266Y-61762533D01*
X149103600Y-61695866D01*
X149136933Y-61662533D01*
X149203600Y-61629200D01*
X149270266Y-61629200D01*
X149370266Y-61662533D01*
X149770266Y-62062533D01*
X149770266Y-61629200D01*
%TO.C,R40*%
X165462800Y-65239066D02*
X165229466Y-64905733D01*
X165062800Y-65239066D02*
X165062800Y-64539066D01*
X165329466Y-64539066D01*
X165396133Y-64572400D01*
X165429466Y-64605733D01*
X165462800Y-64672400D01*
X165462800Y-64772400D01*
X165429466Y-64839066D01*
X165396133Y-64872400D01*
X165329466Y-64905733D01*
X165062800Y-64905733D01*
X166062800Y-64772400D02*
X166062800Y-65239066D01*
X165896133Y-64505733D02*
X165729466Y-65005733D01*
X166162800Y-65005733D01*
X166562800Y-64539066D02*
X166629466Y-64539066D01*
X166696133Y-64572400D01*
X166729466Y-64605733D01*
X166762800Y-64672400D01*
X166796133Y-64805733D01*
X166796133Y-64972400D01*
X166762800Y-65105733D01*
X166729466Y-65172400D01*
X166696133Y-65205733D01*
X166629466Y-65239066D01*
X166562800Y-65239066D01*
X166496133Y-65205733D01*
X166462800Y-65172400D01*
X166429466Y-65105733D01*
X166396133Y-64972400D01*
X166396133Y-64805733D01*
X166429466Y-64672400D01*
X166462800Y-64605733D01*
X166496133Y-64572400D01*
X166562800Y-64539066D01*
%TO.C,C48*%
X147073200Y-116328000D02*
X147039866Y-116361333D01*
X146939866Y-116394666D01*
X146873200Y-116394666D01*
X146773200Y-116361333D01*
X146706533Y-116294666D01*
X146673200Y-116228000D01*
X146639866Y-116094666D01*
X146639866Y-115994666D01*
X146673200Y-115861333D01*
X146706533Y-115794666D01*
X146773200Y-115728000D01*
X146873200Y-115694666D01*
X146939866Y-115694666D01*
X147039866Y-115728000D01*
X147073200Y-115761333D01*
X147673200Y-115928000D02*
X147673200Y-116394666D01*
X147506533Y-115661333D02*
X147339866Y-116161333D01*
X147773200Y-116161333D01*
X148139866Y-115994666D02*
X148073200Y-115961333D01*
X148039866Y-115928000D01*
X148006533Y-115861333D01*
X148006533Y-115828000D01*
X148039866Y-115761333D01*
X148073200Y-115728000D01*
X148139866Y-115694666D01*
X148273200Y-115694666D01*
X148339866Y-115728000D01*
X148373200Y-115761333D01*
X148406533Y-115828000D01*
X148406533Y-115861333D01*
X148373200Y-115928000D01*
X148339866Y-115961333D01*
X148273200Y-115994666D01*
X148139866Y-115994666D01*
X148073200Y-116028000D01*
X148039866Y-116061333D01*
X148006533Y-116128000D01*
X148006533Y-116261333D01*
X148039866Y-116328000D01*
X148073200Y-116361333D01*
X148139866Y-116394666D01*
X148273200Y-116394666D01*
X148339866Y-116361333D01*
X148373200Y-116328000D01*
X148406533Y-116261333D01*
X148406533Y-116128000D01*
X148373200Y-116061333D01*
X148339866Y-116028000D01*
X148273200Y-115994666D01*
%TO.C,C8*%
X148738400Y-60263866D02*
X148771733Y-60297200D01*
X148805066Y-60397200D01*
X148805066Y-60463866D01*
X148771733Y-60563866D01*
X148705066Y-60630533D01*
X148638400Y-60663866D01*
X148505066Y-60697200D01*
X148405066Y-60697200D01*
X148271733Y-60663866D01*
X148205066Y-60630533D01*
X148138400Y-60563866D01*
X148105066Y-60463866D01*
X148105066Y-60397200D01*
X148138400Y-60297200D01*
X148171733Y-60263866D01*
X148405066Y-59863866D02*
X148371733Y-59930533D01*
X148338400Y-59963866D01*
X148271733Y-59997200D01*
X148238400Y-59997200D01*
X148171733Y-59963866D01*
X148138400Y-59930533D01*
X148105066Y-59863866D01*
X148105066Y-59730533D01*
X148138400Y-59663866D01*
X148171733Y-59630533D01*
X148238400Y-59597200D01*
X148271733Y-59597200D01*
X148338400Y-59630533D01*
X148371733Y-59663866D01*
X148405066Y-59730533D01*
X148405066Y-59863866D01*
X148438400Y-59930533D01*
X148471733Y-59963866D01*
X148538400Y-59997200D01*
X148671733Y-59997200D01*
X148738400Y-59963866D01*
X148771733Y-59930533D01*
X148805066Y-59863866D01*
X148805066Y-59730533D01*
X148771733Y-59663866D01*
X148738400Y-59630533D01*
X148671733Y-59597200D01*
X148538400Y-59597200D01*
X148471733Y-59630533D01*
X148438400Y-59663866D01*
X148405066Y-59730533D01*
%TO.C,R53*%
X151040266Y-119931600D02*
X150706933Y-120164933D01*
X151040266Y-120331600D02*
X150340266Y-120331600D01*
X150340266Y-120064933D01*
X150373600Y-119998266D01*
X150406933Y-119964933D01*
X150473600Y-119931600D01*
X150573600Y-119931600D01*
X150640266Y-119964933D01*
X150673600Y-119998266D01*
X150706933Y-120064933D01*
X150706933Y-120331600D01*
X150340266Y-119298266D02*
X150340266Y-119631600D01*
X150673600Y-119664933D01*
X150640266Y-119631600D01*
X150606933Y-119564933D01*
X150606933Y-119398266D01*
X150640266Y-119331600D01*
X150673600Y-119298266D01*
X150740266Y-119264933D01*
X150906933Y-119264933D01*
X150973600Y-119298266D01*
X151006933Y-119331600D01*
X151040266Y-119398266D01*
X151040266Y-119564933D01*
X151006933Y-119631600D01*
X150973600Y-119664933D01*
X150340266Y-119031600D02*
X150340266Y-118598266D01*
X150606933Y-118831600D01*
X150606933Y-118731600D01*
X150640266Y-118664933D01*
X150673600Y-118631600D01*
X150740266Y-118598266D01*
X150906933Y-118598266D01*
X150973600Y-118631600D01*
X151006933Y-118664933D01*
X151040266Y-118731600D01*
X151040266Y-118931600D01*
X151006933Y-118998266D01*
X150973600Y-119031600D01*
%TO.C,C35*%
X170085600Y-117648800D02*
X170052266Y-117682133D01*
X169952266Y-117715466D01*
X169885600Y-117715466D01*
X169785600Y-117682133D01*
X169718933Y-117615466D01*
X169685600Y-117548800D01*
X169652266Y-117415466D01*
X169652266Y-117315466D01*
X169685600Y-117182133D01*
X169718933Y-117115466D01*
X169785600Y-117048800D01*
X169885600Y-117015466D01*
X169952266Y-117015466D01*
X170052266Y-117048800D01*
X170085600Y-117082133D01*
X170318933Y-117015466D02*
X170752266Y-117015466D01*
X170518933Y-117282133D01*
X170618933Y-117282133D01*
X170685600Y-117315466D01*
X170718933Y-117348800D01*
X170752266Y-117415466D01*
X170752266Y-117582133D01*
X170718933Y-117648800D01*
X170685600Y-117682133D01*
X170618933Y-117715466D01*
X170418933Y-117715466D01*
X170352266Y-117682133D01*
X170318933Y-117648800D01*
X171385600Y-117015466D02*
X171052266Y-117015466D01*
X171018933Y-117348800D01*
X171052266Y-117315466D01*
X171118933Y-117282133D01*
X171285600Y-117282133D01*
X171352266Y-117315466D01*
X171385600Y-117348800D01*
X171418933Y-117415466D01*
X171418933Y-117582133D01*
X171385600Y-117648800D01*
X171352266Y-117682133D01*
X171285600Y-117715466D01*
X171118933Y-117715466D01*
X171052266Y-117682133D01*
X171018933Y-117648800D01*
%TO.C,R22*%
X160179600Y-110298666D02*
X159946266Y-109965333D01*
X159779600Y-110298666D02*
X159779600Y-109598666D01*
X160046266Y-109598666D01*
X160112933Y-109632000D01*
X160146266Y-109665333D01*
X160179600Y-109732000D01*
X160179600Y-109832000D01*
X160146266Y-109898666D01*
X160112933Y-109932000D01*
X160046266Y-109965333D01*
X159779600Y-109965333D01*
X160446266Y-109665333D02*
X160479600Y-109632000D01*
X160546266Y-109598666D01*
X160712933Y-109598666D01*
X160779600Y-109632000D01*
X160812933Y-109665333D01*
X160846266Y-109732000D01*
X160846266Y-109798666D01*
X160812933Y-109898666D01*
X160412933Y-110298666D01*
X160846266Y-110298666D01*
X161112933Y-109665333D02*
X161146266Y-109632000D01*
X161212933Y-109598666D01*
X161379600Y-109598666D01*
X161446266Y-109632000D01*
X161479600Y-109665333D01*
X161512933Y-109732000D01*
X161512933Y-109798666D01*
X161479600Y-109898666D01*
X161079600Y-110298666D01*
X161512933Y-110298666D01*
%TO.C,R26*%
X162872000Y-57771466D02*
X162638666Y-57438133D01*
X162472000Y-57771466D02*
X162472000Y-57071466D01*
X162738666Y-57071466D01*
X162805333Y-57104800D01*
X162838666Y-57138133D01*
X162872000Y-57204800D01*
X162872000Y-57304800D01*
X162838666Y-57371466D01*
X162805333Y-57404800D01*
X162738666Y-57438133D01*
X162472000Y-57438133D01*
X163138666Y-57138133D02*
X163172000Y-57104800D01*
X163238666Y-57071466D01*
X163405333Y-57071466D01*
X163472000Y-57104800D01*
X163505333Y-57138133D01*
X163538666Y-57204800D01*
X163538666Y-57271466D01*
X163505333Y-57371466D01*
X163105333Y-57771466D01*
X163538666Y-57771466D01*
X164138666Y-57071466D02*
X164005333Y-57071466D01*
X163938666Y-57104800D01*
X163905333Y-57138133D01*
X163838666Y-57238133D01*
X163805333Y-57371466D01*
X163805333Y-57638133D01*
X163838666Y-57704800D01*
X163872000Y-57738133D01*
X163938666Y-57771466D01*
X164072000Y-57771466D01*
X164138666Y-57738133D01*
X164172000Y-57704800D01*
X164205333Y-57638133D01*
X164205333Y-57471466D01*
X164172000Y-57404800D01*
X164138666Y-57371466D01*
X164072000Y-57338133D01*
X163938666Y-57338133D01*
X163872000Y-57371466D01*
X163838666Y-57404800D01*
X163805333Y-57471466D01*
%TO.C,R46*%
X143517200Y-108673066D02*
X143283866Y-108339733D01*
X143117200Y-108673066D02*
X143117200Y-107973066D01*
X143383866Y-107973066D01*
X143450533Y-108006400D01*
X143483866Y-108039733D01*
X143517200Y-108106400D01*
X143517200Y-108206400D01*
X143483866Y-108273066D01*
X143450533Y-108306400D01*
X143383866Y-108339733D01*
X143117200Y-108339733D01*
X144117200Y-108206400D02*
X144117200Y-108673066D01*
X143950533Y-107939733D02*
X143783866Y-108439733D01*
X144217200Y-108439733D01*
X144783866Y-107973066D02*
X144650533Y-107973066D01*
X144583866Y-108006400D01*
X144550533Y-108039733D01*
X144483866Y-108139733D01*
X144450533Y-108273066D01*
X144450533Y-108539733D01*
X144483866Y-108606400D01*
X144517200Y-108639733D01*
X144583866Y-108673066D01*
X144717200Y-108673066D01*
X144783866Y-108639733D01*
X144817200Y-108606400D01*
X144850533Y-108539733D01*
X144850533Y-108373066D01*
X144817200Y-108306400D01*
X144783866Y-108273066D01*
X144717200Y-108239733D01*
X144583866Y-108239733D01*
X144517200Y-108273066D01*
X144483866Y-108306400D01*
X144450533Y-108373066D01*
%TO.C,G\u002A\u002A\u002A*%
G36*
X162675450Y-94437589D02*
G01*
X162682118Y-94483636D01*
X162692941Y-94557730D01*
X162707588Y-94657638D01*
X162725730Y-94781130D01*
X162747036Y-94925972D01*
X162771178Y-95089933D01*
X162797826Y-95270781D01*
X162826648Y-95466284D01*
X162857317Y-95674211D01*
X162889501Y-95892328D01*
X162922872Y-96118405D01*
X162957099Y-96350208D01*
X162991852Y-96585507D01*
X163026802Y-96822069D01*
X163061620Y-97057663D01*
X163095974Y-97290055D01*
X163129535Y-97517015D01*
X163161974Y-97736311D01*
X163192961Y-97945710D01*
X163222166Y-98142980D01*
X163249259Y-98325890D01*
X163273910Y-98492207D01*
X163295790Y-98639700D01*
X163314569Y-98766137D01*
X163329916Y-98869285D01*
X163341503Y-98946913D01*
X163348998Y-98996789D01*
X163352043Y-99016504D01*
X163356173Y-99028793D01*
X163365846Y-99044237D01*
X163382838Y-99064351D01*
X163408929Y-99090650D01*
X163445896Y-99124647D01*
X163495520Y-99167859D01*
X163559578Y-99221799D01*
X163639849Y-99287982D01*
X163738111Y-99367923D01*
X163856142Y-99463138D01*
X163995723Y-99575139D01*
X164158630Y-99705443D01*
X164196449Y-99735656D01*
X165031820Y-100402909D01*
X164999779Y-100484197D01*
X164981921Y-100530787D01*
X164970290Y-100563598D01*
X164967738Y-100573005D01*
X164952030Y-100574532D01*
X164907034Y-100575955D01*
X164835946Y-100577242D01*
X164741958Y-100578362D01*
X164628264Y-100579281D01*
X164498058Y-100579969D01*
X164354534Y-100580394D01*
X164215024Y-100580524D01*
X163462310Y-100580524D01*
X163254374Y-101067040D01*
X162596638Y-101067101D01*
X161938901Y-101067162D01*
X161834589Y-100823843D01*
X161730276Y-100580524D01*
X160977907Y-100580524D01*
X160825073Y-100580367D01*
X160682652Y-100579918D01*
X160553838Y-100579207D01*
X160441825Y-100578268D01*
X160349808Y-100577132D01*
X160280981Y-100575831D01*
X160238538Y-100574396D01*
X160225538Y-100573005D01*
X160220062Y-100554937D01*
X160205977Y-100516472D01*
X160193226Y-100483511D01*
X160160915Y-100401535D01*
X160995374Y-99735560D01*
X161163359Y-99601370D01*
X161307637Y-99485791D01*
X161429990Y-99387307D01*
X161532204Y-99304398D01*
X161616060Y-99235548D01*
X161683342Y-99179237D01*
X161735834Y-99133948D01*
X161775320Y-99098162D01*
X161803582Y-99070362D01*
X161822404Y-99049029D01*
X161833569Y-99032646D01*
X161838862Y-99019694D01*
X161839426Y-99017094D01*
X161842960Y-98994720D01*
X161850941Y-98942188D01*
X161863075Y-98861475D01*
X161879068Y-98754557D01*
X161898628Y-98623409D01*
X161921459Y-98470008D01*
X161947269Y-98296329D01*
X161975764Y-98104348D01*
X162006650Y-97896041D01*
X162039634Y-97673385D01*
X162074421Y-97438354D01*
X162110720Y-97192925D01*
X162148235Y-96939073D01*
X162150102Y-96926432D01*
X162188448Y-96666859D01*
X162226080Y-96412133D01*
X162262658Y-96164554D01*
X162297843Y-95926419D01*
X162331295Y-95700025D01*
X162362675Y-95487672D01*
X162391643Y-95291655D01*
X162417859Y-95114275D01*
X162440985Y-94957827D01*
X162460679Y-94824611D01*
X162476603Y-94716924D01*
X162488418Y-94637063D01*
X162495109Y-94591873D01*
X162539032Y-94295486D01*
X162655093Y-94295486D01*
X162675450Y-94437589D01*
G37*
G36*
X157872535Y-103271413D02*
G01*
X157924458Y-103145024D01*
X157984973Y-102998380D01*
X158053279Y-102833416D01*
X158128574Y-102652069D01*
X158160919Y-102574348D01*
X158390372Y-102574348D01*
X158406258Y-102574935D01*
X158452501Y-102575416D01*
X158526975Y-102575792D01*
X158627557Y-102576062D01*
X158752122Y-102576226D01*
X158898545Y-102576285D01*
X159064703Y-102576236D01*
X159248471Y-102576082D01*
X159447724Y-102575821D01*
X159660339Y-102575454D01*
X159884190Y-102574979D01*
X160091555Y-102574466D01*
X161792738Y-102569974D01*
X161898300Y-102519786D01*
X161961071Y-102486962D01*
X162020222Y-102451069D01*
X162059081Y-102422909D01*
X162126509Y-102350640D01*
X162186980Y-102257609D01*
X162233501Y-102155535D01*
X162249668Y-102103516D01*
X162265509Y-102024509D01*
X162269848Y-101948897D01*
X162261601Y-101870196D01*
X162239681Y-101781925D01*
X162203003Y-101677602D01*
X162161249Y-101575760D01*
X162065591Y-101351944D01*
X162331114Y-101347491D01*
X162450406Y-101346146D01*
X162586446Y-101345656D01*
X162723585Y-101346022D01*
X162846171Y-101347243D01*
X162861793Y-101347491D01*
X163126948Y-101351944D01*
X163028676Y-101579309D01*
X162991017Y-101667136D01*
X162964466Y-101732583D01*
X162947089Y-101783020D01*
X162936949Y-101825814D01*
X162932113Y-101868334D01*
X162930644Y-101917947D01*
X162930573Y-101952839D01*
X162943759Y-102098695D01*
X162983365Y-102225818D01*
X163050002Y-102335197D01*
X163144285Y-102427822D01*
X163266826Y-102504681D01*
X163274672Y-102508606D01*
X163398829Y-102569974D01*
X165100907Y-102574466D01*
X166802986Y-102578958D01*
X166775259Y-102509504D01*
X166760575Y-102473507D01*
X166735668Y-102413301D01*
X166702920Y-102334611D01*
X166664714Y-102243161D01*
X166623436Y-102144677D01*
X166614485Y-102123363D01*
X166481438Y-101806675D01*
X164782644Y-101802540D01*
X164543468Y-101801825D01*
X164315423Y-101800883D01*
X164100502Y-101799734D01*
X163900692Y-101798401D01*
X163717985Y-101796905D01*
X163554370Y-101795268D01*
X163411838Y-101793510D01*
X163292378Y-101791653D01*
X163197980Y-101789719D01*
X163130634Y-101787730D01*
X163092330Y-101785706D01*
X163083850Y-101784223D01*
X163089653Y-101761208D01*
X163104038Y-101721953D01*
X163108429Y-101711216D01*
X163133007Y-101652391D01*
X164774424Y-101652391D01*
X165025712Y-101652249D01*
X165261469Y-101651834D01*
X165480033Y-101651160D01*
X165679740Y-101650242D01*
X165858928Y-101649095D01*
X166015932Y-101647733D01*
X166149090Y-101646172D01*
X166256739Y-101644427D01*
X166337215Y-101642512D01*
X166388855Y-101640442D01*
X166409997Y-101638231D01*
X166410427Y-101637793D01*
X166403139Y-101619980D01*
X166384733Y-101575590D01*
X166356622Y-101508014D01*
X166320219Y-101420640D01*
X166276935Y-101316860D01*
X166228184Y-101200063D01*
X166175379Y-101073639D01*
X166170206Y-101061259D01*
X165935398Y-100499322D01*
X165531416Y-100499322D01*
X165421097Y-100498856D01*
X165322694Y-100497544D01*
X165240489Y-100495517D01*
X165178763Y-100492907D01*
X165141795Y-100489844D01*
X165132929Y-100487142D01*
X165141855Y-100465312D01*
X165157223Y-100426166D01*
X165161906Y-100414060D01*
X165185388Y-100353158D01*
X165523174Y-100353158D01*
X165623967Y-100352601D01*
X165712790Y-100351045D01*
X165784874Y-100348661D01*
X165835445Y-100345622D01*
X165859733Y-100342099D01*
X165861181Y-100340978D01*
X165855301Y-100322558D01*
X165838918Y-100279563D01*
X165814148Y-100217344D01*
X165783111Y-100141254D01*
X165761562Y-100089252D01*
X165661723Y-99849706D01*
X164542744Y-99849706D01*
X164444545Y-99772564D01*
X164346347Y-99695422D01*
X164965610Y-99691169D01*
X165103828Y-99689983D01*
X165231307Y-99688433D01*
X165344526Y-99686596D01*
X165439964Y-99684551D01*
X165514099Y-99682373D01*
X165563412Y-99680141D01*
X165584380Y-99677932D01*
X165584873Y-99677555D01*
X165578808Y-99660923D01*
X165561560Y-99617802D01*
X165534549Y-99551636D01*
X165499195Y-99465872D01*
X165456918Y-99363956D01*
X165409138Y-99249334D01*
X165362435Y-99137754D01*
X165301581Y-98992619D01*
X165236673Y-98837781D01*
X165170816Y-98680652D01*
X165107117Y-98528641D01*
X165048681Y-98389160D01*
X164998614Y-98269621D01*
X164983609Y-98233785D01*
X164827222Y-97860256D01*
X164068647Y-97856035D01*
X163883085Y-97854813D01*
X163727803Y-97853344D01*
X163600603Y-97851556D01*
X163499285Y-97849380D01*
X163421648Y-97846746D01*
X163365495Y-97843584D01*
X163328624Y-97839823D01*
X163308837Y-97835394D01*
X163303909Y-97831674D01*
X163297694Y-97803021D01*
X163290421Y-97758738D01*
X163289287Y-97750796D01*
X163280830Y-97690058D01*
X164016171Y-97685834D01*
X164751512Y-97681611D01*
X164532559Y-97157858D01*
X164313605Y-96634105D01*
X163722579Y-96634105D01*
X163560797Y-96633863D01*
X163428963Y-96633082D01*
X163324550Y-96631674D01*
X163245028Y-96629553D01*
X163187869Y-96626635D01*
X163150544Y-96622833D01*
X163130523Y-96618060D01*
X163125347Y-96613804D01*
X163118345Y-96584250D01*
X163110149Y-96541427D01*
X163110063Y-96540927D01*
X163100984Y-96488350D01*
X163674341Y-96484086D01*
X164247697Y-96479821D01*
X163665302Y-95091266D01*
X163569529Y-94863485D01*
X163479311Y-94650035D01*
X163395363Y-94452561D01*
X163318401Y-94272712D01*
X163249140Y-94112134D01*
X163188297Y-93972474D01*
X163136587Y-93855379D01*
X163094726Y-93762496D01*
X163063429Y-93695473D01*
X163043411Y-93655955D01*
X163037600Y-93646701D01*
X162945077Y-93557054D01*
X162835149Y-93491445D01*
X162713629Y-93451200D01*
X162586329Y-93437643D01*
X162459062Y-93452099D01*
X162349745Y-93489968D01*
X162266877Y-93538631D01*
X162195669Y-93602579D01*
X162132292Y-93686541D01*
X162072920Y-93795247D01*
X162036442Y-93877146D01*
X162014624Y-93929285D01*
X161981843Y-94007530D01*
X161939710Y-94108038D01*
X161889835Y-94226968D01*
X161833831Y-94360478D01*
X161773309Y-94504725D01*
X161709880Y-94655867D01*
X161646418Y-94807059D01*
X161576041Y-94974741D01*
X161502311Y-95150483D01*
X161427633Y-95328543D01*
X161354414Y-95503183D01*
X161285061Y-95668661D01*
X161221979Y-95819238D01*
X161167574Y-95949175D01*
X161139208Y-96016969D01*
X160945610Y-96479821D01*
X161518951Y-96484086D01*
X162092291Y-96488350D01*
X162083213Y-96540927D01*
X162075026Y-96583794D01*
X162067988Y-96613609D01*
X162067929Y-96613804D01*
X162059200Y-96619359D01*
X162035056Y-96623880D01*
X161992969Y-96627452D01*
X161930409Y-96630161D01*
X161844847Y-96632093D01*
X161733755Y-96633335D01*
X161594602Y-96633972D01*
X161470902Y-96634105D01*
X160880081Y-96634105D01*
X160660214Y-97157858D01*
X160440348Y-97681611D01*
X161173384Y-97689731D01*
X161906421Y-97697852D01*
X161901857Y-97738453D01*
X161894841Y-97786708D01*
X161889407Y-97815434D01*
X161881522Y-97851815D01*
X161123865Y-97856035D01*
X160366209Y-97860256D01*
X160246888Y-98144463D01*
X160133135Y-98415485D01*
X160031644Y-98657467D01*
X159942044Y-98871296D01*
X159863967Y-99057856D01*
X159797044Y-99218034D01*
X159740906Y-99352714D01*
X159695184Y-99462783D01*
X159659510Y-99549126D01*
X159633513Y-99612628D01*
X159616827Y-99654174D01*
X159609080Y-99674652D01*
X159608403Y-99677141D01*
X159624055Y-99679435D01*
X159668659Y-99681759D01*
X159738687Y-99684031D01*
X159830611Y-99686172D01*
X159940901Y-99688102D01*
X160066030Y-99689740D01*
X160202469Y-99691006D01*
X160225074Y-99691169D01*
X160841745Y-99695422D01*
X160648919Y-99849706D01*
X159531852Y-99849706D01*
X159427262Y-100097372D01*
X159322671Y-100345038D01*
X159665153Y-100349406D01*
X160007635Y-100353773D01*
X160034607Y-100426548D01*
X160061579Y-100499322D01*
X159258010Y-100499322D01*
X159023136Y-101060828D01*
X158969984Y-101187951D01*
X158920758Y-101305788D01*
X158876872Y-101410946D01*
X158839740Y-101500032D01*
X158810778Y-101569651D01*
X158791399Y-101616409D01*
X158783018Y-101636913D01*
X158782848Y-101637363D01*
X158797961Y-101639797D01*
X158844236Y-101642055D01*
X158920353Y-101644122D01*
X159024995Y-101645989D01*
X159156841Y-101647641D01*
X159314574Y-101649068D01*
X159496874Y-101650257D01*
X159702423Y-101651195D01*
X159929902Y-101651872D01*
X160177991Y-101652274D01*
X160416062Y-101652391D01*
X162054689Y-101652391D01*
X162082057Y-101709784D01*
X162099715Y-101750522D01*
X162109007Y-101779193D01*
X162109426Y-101782791D01*
X162093328Y-101785475D01*
X162045606Y-101788015D01*
X161967117Y-101790400D01*
X161858716Y-101792620D01*
X161721259Y-101794665D01*
X161555604Y-101796527D01*
X161362606Y-101798193D01*
X161143122Y-101799655D01*
X160898009Y-101800903D01*
X160628121Y-101801926D01*
X160409943Y-101802540D01*
X158710461Y-101806675D01*
X158550416Y-102188207D01*
X158507014Y-102291848D01*
X158468082Y-102385146D01*
X158435292Y-102464068D01*
X158410317Y-102524578D01*
X158394829Y-102562643D01*
X158390372Y-102574348D01*
X158160919Y-102574348D01*
X158210057Y-102456276D01*
X158296927Y-102247972D01*
X158388381Y-102029094D01*
X158483620Y-101801579D01*
X158556164Y-101628548D01*
X158656231Y-101390024D01*
X158754870Y-101154889D01*
X158851116Y-100925445D01*
X158944003Y-100703995D01*
X159032566Y-100492841D01*
X159115839Y-100294285D01*
X159192857Y-100110629D01*
X159262654Y-99944177D01*
X159324265Y-99797229D01*
X159376724Y-99672088D01*
X159419066Y-99571058D01*
X159450325Y-99496438D01*
X159462207Y-99468056D01*
X159497052Y-99384832D01*
X159543244Y-99274577D01*
X159599559Y-99140209D01*
X159664772Y-98984647D01*
X159737659Y-98810809D01*
X159816997Y-98621613D01*
X159901561Y-98419979D01*
X159990126Y-98208823D01*
X160081469Y-97991065D01*
X160174366Y-97769623D01*
X160267592Y-97547416D01*
X160359923Y-97327362D01*
X160450135Y-97112378D01*
X160537004Y-96905384D01*
X160619306Y-96709299D01*
X160695816Y-96527039D01*
X160753144Y-96390499D01*
X160815603Y-96241713D01*
X160880718Y-96086536D01*
X160945867Y-95931217D01*
X161008431Y-95782003D01*
X161065790Y-95645143D01*
X161115325Y-95526884D01*
X161148108Y-95448555D01*
X161267373Y-95163549D01*
X161374744Y-94907216D01*
X161470783Y-94678230D01*
X161556055Y-94475266D01*
X161631121Y-94297000D01*
X161696545Y-94142106D01*
X161752890Y-94009261D01*
X161800719Y-93897138D01*
X161840595Y-93804413D01*
X161873081Y-93729761D01*
X161898739Y-93671858D01*
X161918134Y-93629378D01*
X161931827Y-93600997D01*
X161938697Y-93588162D01*
X161990639Y-93516485D01*
X162062723Y-93440437D01*
X162145622Y-93369310D01*
X162191553Y-93336252D01*
X162313787Y-93273340D01*
X162450173Y-93235717D01*
X162594339Y-93223496D01*
X162739911Y-93236791D01*
X162880518Y-93275713D01*
X162979670Y-93322239D01*
X163049584Y-93370975D01*
X163124976Y-93438082D01*
X163195654Y-93513485D01*
X163251425Y-93587105D01*
X163257739Y-93597148D01*
X163266905Y-93616813D01*
X163288096Y-93665202D01*
X163320791Y-93741078D01*
X163364469Y-93843206D01*
X163418608Y-93970351D01*
X163482686Y-94121275D01*
X163556181Y-94294743D01*
X163638573Y-94489520D01*
X163729340Y-94704369D01*
X163827961Y-94938055D01*
X163933912Y-95189341D01*
X164046675Y-95456992D01*
X164165725Y-95739772D01*
X164290543Y-96036444D01*
X164420607Y-96345774D01*
X164555394Y-96666525D01*
X164694385Y-96997461D01*
X164837056Y-97337346D01*
X164982886Y-97684945D01*
X165008734Y-97746573D01*
X165158618Y-98103961D01*
X165307201Y-98458238D01*
X165453849Y-98807899D01*
X165597934Y-99151441D01*
X165738822Y-99487357D01*
X165875883Y-99814144D01*
X166008487Y-100130297D01*
X166136001Y-100434310D01*
X166257795Y-100724680D01*
X166373237Y-100999901D01*
X166481696Y-101258470D01*
X166582542Y-101498880D01*
X166675142Y-101719628D01*
X166758867Y-101919209D01*
X166833084Y-102096117D01*
X166897163Y-102248850D01*
X166950472Y-102375900D01*
X166992381Y-102475765D01*
X167018291Y-102537494D01*
X167101148Y-102734910D01*
X167172328Y-102904796D01*
X167232744Y-103049563D01*
X167283310Y-103171622D01*
X167324937Y-103273384D01*
X167358538Y-103357260D01*
X167385026Y-103425663D01*
X167405313Y-103481003D01*
X167420313Y-103525691D01*
X167430937Y-103562139D01*
X167438098Y-103592759D01*
X167442710Y-103619961D01*
X167445684Y-103646157D01*
X167447832Y-103672430D01*
X167443901Y-103826990D01*
X167409753Y-103974213D01*
X167347415Y-104110688D01*
X167258913Y-104233001D01*
X167146274Y-104337742D01*
X167011523Y-104421499D01*
X166999455Y-104427378D01*
X166875986Y-104486343D01*
X162620999Y-104489395D01*
X162166774Y-104489694D01*
X161743996Y-104489915D01*
X161351632Y-104490053D01*
X160988646Y-104490104D01*
X160654007Y-104490064D01*
X160346678Y-104489928D01*
X160065628Y-104489692D01*
X159809821Y-104489352D01*
X159578225Y-104488904D01*
X159369804Y-104488343D01*
X159183527Y-104487665D01*
X159018357Y-104486866D01*
X158873263Y-104485941D01*
X158747210Y-104484887D01*
X158639163Y-104483699D01*
X158548090Y-104482372D01*
X158472957Y-104480903D01*
X158412729Y-104479287D01*
X158366373Y-104477520D01*
X158332855Y-104475598D01*
X158311141Y-104473516D01*
X158301050Y-104471573D01*
X158157985Y-104410438D01*
X158032379Y-104326576D01*
X157926322Y-104223648D01*
X157841903Y-104105315D01*
X157781212Y-103975237D01*
X157746339Y-103837074D01*
X157739373Y-103694488D01*
X157762403Y-103551138D01*
X157766797Y-103535684D01*
X157776336Y-103509681D01*
X157797673Y-103455678D01*
X157801587Y-103445987D01*
X158763901Y-103445987D01*
X158764469Y-103540919D01*
X158766045Y-103624427D01*
X158768443Y-103691169D01*
X158771472Y-103735800D01*
X158774728Y-103752817D01*
X158793573Y-103756065D01*
X158839322Y-103758730D01*
X158906401Y-103760808D01*
X158989240Y-103762289D01*
X159082266Y-103763168D01*
X159179907Y-103763438D01*
X159276590Y-103763091D01*
X159366743Y-103762121D01*
X159444794Y-103760521D01*
X159505172Y-103758283D01*
X159542302Y-103755401D01*
X159550233Y-103753787D01*
X159560163Y-103745788D01*
X159567213Y-103727493D01*
X159571848Y-103694181D01*
X159574530Y-103641135D01*
X159575724Y-103563636D01*
X159575922Y-103492333D01*
X159575922Y-103240737D01*
X159856069Y-103247570D01*
X159970598Y-103250933D01*
X160056521Y-103255099D01*
X160117710Y-103260704D01*
X160158037Y-103268385D01*
X160181378Y-103278777D01*
X160191604Y-103292518D01*
X160193057Y-103302932D01*
X160182105Y-103325026D01*
X160147659Y-103341029D01*
X160087333Y-103351429D01*
X159998740Y-103356712D01*
X159925362Y-103357634D01*
X159849097Y-103358470D01*
X159783318Y-103360736D01*
X159735729Y-103364070D01*
X159715294Y-103367492D01*
X159695455Y-103390697D01*
X159689605Y-103424333D01*
X159689605Y-103471317D01*
X160179547Y-103471317D01*
X160347788Y-103470747D01*
X160487114Y-103468816D01*
X160601073Y-103465193D01*
X160693214Y-103459547D01*
X160767085Y-103451547D01*
X160826235Y-103440862D01*
X160874213Y-103427160D01*
X160914567Y-103410111D01*
X160931322Y-103401181D01*
X160987020Y-103364042D01*
X161014340Y-103329410D01*
X161016410Y-103291889D01*
X161008174Y-103268622D01*
X160987036Y-103243951D01*
X161524771Y-103243951D01*
X162125666Y-103243951D01*
X162125666Y-103494324D01*
X162126441Y-103597739D01*
X162128941Y-103672031D01*
X162133425Y-103720526D01*
X162140156Y-103746551D01*
X162145967Y-103753038D01*
X162167386Y-103755280D01*
X162216476Y-103757044D01*
X162288428Y-103758268D01*
X162378433Y-103758885D01*
X162481684Y-103758832D01*
X162547917Y-103758452D01*
X162929566Y-103755524D01*
X162937686Y-103503798D01*
X162939507Y-103447341D01*
X164090756Y-103447341D01*
X164091359Y-103560307D01*
X164093314Y-103644038D01*
X164096833Y-103701757D01*
X164102131Y-103736689D01*
X164109422Y-103752061D01*
X164111056Y-103753038D01*
X164132476Y-103755280D01*
X164181566Y-103757044D01*
X164253517Y-103758268D01*
X164343523Y-103758885D01*
X164446773Y-103758832D01*
X164513006Y-103758452D01*
X164894656Y-103755524D01*
X164899128Y-103499738D01*
X164903601Y-103243951D01*
X165150855Y-103244042D01*
X165283595Y-103246061D01*
X165385458Y-103252149D01*
X165457815Y-103262519D01*
X165502039Y-103277382D01*
X165519504Y-103296951D01*
X165519912Y-103300985D01*
X165511981Y-103323222D01*
X165485865Y-103339274D01*
X165438073Y-103349895D01*
X165365119Y-103355843D01*
X165263513Y-103357870D01*
X165257073Y-103357883D01*
X165161217Y-103358995D01*
X165093588Y-103362747D01*
X165049971Y-103370175D01*
X165026150Y-103382316D01*
X165017911Y-103400207D01*
X165019103Y-103416422D01*
X165029014Y-103429845D01*
X165056140Y-103448262D01*
X165103084Y-103472939D01*
X165172450Y-103505145D01*
X165266839Y-103546147D01*
X165388855Y-103597213D01*
X165398290Y-103601111D01*
X165771638Y-103755266D01*
X166173611Y-103760249D01*
X166285652Y-103761100D01*
X166387626Y-103760850D01*
X166474808Y-103759595D01*
X166542474Y-103757429D01*
X166585898Y-103754445D01*
X166599665Y-103751756D01*
X166596281Y-103742208D01*
X166565955Y-103724210D01*
X166507738Y-103697327D01*
X166420680Y-103661124D01*
X166303835Y-103615167D01*
X166291048Y-103610238D01*
X166194625Y-103572799D01*
X166109671Y-103539179D01*
X166040435Y-103511114D01*
X165991163Y-103490336D01*
X165966102Y-103478578D01*
X165963853Y-103476694D01*
X165981494Y-103471073D01*
X166021715Y-103462064D01*
X166065381Y-103453570D01*
X166180179Y-103425535D01*
X166264140Y-103390763D01*
X166317641Y-103351501D01*
X166341060Y-103309994D01*
X166334775Y-103268488D01*
X166299161Y-103229228D01*
X166234598Y-103194461D01*
X166141461Y-103166433D01*
X166020129Y-103147388D01*
X166013831Y-103146760D01*
X165969442Y-103143950D01*
X165898776Y-103141371D01*
X165805417Y-103139037D01*
X165692947Y-103136959D01*
X165564948Y-103135152D01*
X165425004Y-103133626D01*
X165276698Y-103132395D01*
X165123611Y-103131472D01*
X164969328Y-103130868D01*
X164817430Y-103130596D01*
X164671501Y-103130669D01*
X164535123Y-103131099D01*
X164411879Y-103131899D01*
X164305351Y-103133081D01*
X164219123Y-103134658D01*
X164156778Y-103136642D01*
X164121898Y-103139046D01*
X164116444Y-103140126D01*
X164107227Y-103147495D01*
X164100470Y-103164388D01*
X164095811Y-103195149D01*
X164092884Y-103244125D01*
X164091328Y-103315660D01*
X164090778Y-103414101D01*
X164090756Y-103447341D01*
X162939507Y-103447341D01*
X162945807Y-103252072D01*
X163258435Y-103247661D01*
X163571062Y-103243250D01*
X163571062Y-103196617D01*
X163562505Y-103157345D01*
X163545374Y-103140126D01*
X163524888Y-103138353D01*
X163474833Y-103136682D01*
X163398119Y-103135142D01*
X163297656Y-103133762D01*
X163176355Y-103132571D01*
X163037127Y-103131597D01*
X162882882Y-103130870D01*
X162716532Y-103130417D01*
X162547917Y-103130268D01*
X162372673Y-103130429D01*
X162206738Y-103130893D01*
X162053020Y-103131630D01*
X161914432Y-103132613D01*
X161793883Y-103133812D01*
X161694285Y-103135199D01*
X161618548Y-103136744D01*
X161569583Y-103138420D01*
X161550460Y-103140126D01*
X161530621Y-103163331D01*
X161524771Y-103196968D01*
X161524771Y-103243951D01*
X160987036Y-103243951D01*
X160970771Y-103224968D01*
X160902504Y-103189789D01*
X160803921Y-103163292D01*
X160685314Y-103146603D01*
X160641120Y-103143812D01*
X160570632Y-103141252D01*
X160477433Y-103138937D01*
X160365107Y-103136879D01*
X160237239Y-103135090D01*
X160097413Y-103133582D01*
X159949211Y-103132367D01*
X159796218Y-103131458D01*
X159642018Y-103130867D01*
X159490194Y-103130606D01*
X159344332Y-103130688D01*
X159208013Y-103131124D01*
X159084824Y-103131927D01*
X158978346Y-103133109D01*
X158892165Y-103134682D01*
X158829863Y-103136660D01*
X158795026Y-103139052D01*
X158789590Y-103140126D01*
X158780354Y-103147511D01*
X158773589Y-103164439D01*
X158768929Y-103195266D01*
X158766009Y-103244346D01*
X158764461Y-103316034D01*
X158763922Y-103414687D01*
X158763901Y-103445987D01*
X157801587Y-103445987D01*
X157830007Y-103375610D01*
X157872535Y-103271413D01*
G37*
D10*
%TO.C,U9*%
X165684200Y-110236000D02*
G75*
G03*
X165684200Y-110236000I-101600J0D01*
G01*
D13*
%TO.C,Q5*%
X148060500Y-100859500D02*
X148060500Y-98784500D01*
X150135500Y-98784500D02*
X150135500Y-100859500D01*
D14*
X147674000Y-101092000D02*
G75*
G03*
X147674000Y-101092000I-100000J0D01*
G01*
D15*
%TO.C,U7*%
X159963200Y-47140400D02*
G75*
G03*
X159963200Y-47140400I-100000J0D01*
G01*
D13*
X160463200Y-49190400D02*
X160968200Y-49190400D01*
X163463200Y-49190400D02*
X162958200Y-49190400D01*
X163463200Y-46690400D02*
X162958200Y-46690400D01*
X160463200Y-46690400D02*
X160968200Y-46690400D01*
%TO.C,U10*%
D16*
X166770590Y-69443600D02*
G75*
G03*
X166770590Y-69443600I-171990J0D01*
G01*
D17*
X168249600Y-72781600D02*
X169049600Y-72781600D01*
X168249600Y-69661600D02*
X167360600Y-69661600D01*
X168249600Y-69661600D02*
X169049600Y-69661600D01*
X168249600Y-72781600D02*
X167449600Y-72781600D01*
D13*
%TO.C,U1*%
X150244253Y-62611000D02*
X150576593Y-62278660D01*
X155194000Y-67560747D02*
X155526340Y-67228407D01*
X155194000Y-57661253D02*
X155526340Y-57993593D01*
X155194000Y-57661253D02*
X154861660Y-57993593D01*
X160143747Y-62611000D02*
X159811407Y-62278660D01*
X150244253Y-62611000D02*
X150576593Y-62943340D01*
X155194000Y-67560747D02*
X154861660Y-67228407D01*
X160143747Y-62611000D02*
X159811407Y-62943340D01*
D14*
X150265056Y-63149815D02*
G75*
G03*
X150265056Y-63149815I-99999J0D01*
G01*
D13*
%TO.C,Q2*%
X148060500Y-106701500D02*
X148060500Y-104626500D01*
X150135500Y-104626500D02*
X150135500Y-106701500D01*
D14*
X147801000Y-107061000D02*
G75*
G03*
X147801000Y-107061000I-100000J0D01*
G01*
D13*
%TO.C,Q4*%
X150135500Y-110722500D02*
X150135500Y-112797500D01*
X148060500Y-112797500D02*
X148060500Y-110722500D01*
D14*
X147801000Y-113030000D02*
G75*
G03*
X147801000Y-113030000I-100000J0D01*
G01*
D13*
%TO.C,Q3*%
X150135500Y-116869300D02*
X150135500Y-118944300D01*
X148060500Y-118944300D02*
X148060500Y-116869300D01*
D14*
X147801000Y-119176800D02*
G75*
G03*
X147801000Y-119176800I-100000J0D01*
G01*
D18*
%TO.C,D2*%
X149730000Y-88265000D02*
G75*
G03*
X149730000Y-88265000I-50000J0D01*
G01*
D17*
%TO.C,R27*%
X162406359Y-89635600D02*
X162713641Y-89635600D01*
X162406359Y-88875600D02*
X162713641Y-88875600D01*
%TO.C,R34*%
X166218841Y-83692000D02*
X165911559Y-83692000D01*
X166218841Y-82932000D02*
X165911559Y-82932000D01*
%TO.C,R16*%
X149198359Y-93725000D02*
X149505641Y-93725000D01*
X149198359Y-92965000D02*
X149505641Y-92965000D01*
%TO.C,R42*%
X156919959Y-73735200D02*
X157227241Y-73735200D01*
X156919959Y-72975200D02*
X157227241Y-72975200D01*
%TO.C,R59*%
X154356800Y-99363559D02*
X154356800Y-99670841D01*
X155116800Y-99363559D02*
X155116800Y-99670841D01*
%TO.C,R39*%
X166218841Y-84657200D02*
X165911559Y-84657200D01*
X166218841Y-83897200D02*
X165911559Y-83897200D01*
%TO.C,R37*%
X166218841Y-86369466D02*
X165911559Y-86369466D01*
X166218841Y-87129466D02*
X165911559Y-87129466D01*
%TO.C,R15*%
X160656000Y-56160641D02*
X160656000Y-55853359D01*
X161416000Y-56160641D02*
X161416000Y-55853359D01*
%TO.C,C3*%
X148901036Y-68169200D02*
X148685364Y-68169200D01*
X148901036Y-68889200D02*
X148685364Y-68889200D01*
%TO.C,R60*%
X149505641Y-108586000D02*
X149198359Y-108586000D01*
X149505641Y-109346000D02*
X149198359Y-109346000D01*
%TO.C,F1*%
X169117778Y-115063200D02*
X168600622Y-115063200D01*
X169117778Y-116483200D02*
X168600622Y-116483200D01*
%TO.C,C24*%
X143363836Y-72623000D02*
X143148164Y-72623000D01*
X143363836Y-71903000D02*
X143148164Y-71903000D01*
%TO.C,R41*%
X149528800Y-36371559D02*
X149528800Y-36678841D01*
X148768800Y-36371559D02*
X148768800Y-36678841D01*
%TO.C,R38*%
X166218841Y-85116400D02*
X165911559Y-85116400D01*
X166218841Y-85876400D02*
X165911559Y-85876400D01*
%TO.C,R8*%
X149401559Y-58649600D02*
X149708841Y-58649600D01*
X149401559Y-59409600D02*
X149708841Y-59409600D01*
%TO.C,C6*%
X148901036Y-67263600D02*
X148685364Y-67263600D01*
X148901036Y-66543600D02*
X148685364Y-66543600D01*
%TO.C,C46*%
X166274636Y-41558800D02*
X166058964Y-41558800D01*
X166274636Y-40838800D02*
X166058964Y-40838800D01*
D13*
%TO.C,U12*%
X147602000Y-52106000D02*
X149102000Y-52106000D01*
X147602000Y-48986000D02*
X149102000Y-48986000D01*
D15*
X145982000Y-49016000D02*
G75*
G03*
X145982000Y-49016000I-100000J0D01*
G01*
D17*
%TO.C,R24*%
X170130441Y-109551200D02*
X169823159Y-109551200D01*
X170130441Y-110311200D02*
X169823159Y-110311200D01*
%TO.C,C37*%
X164242636Y-113694800D02*
X164026964Y-113694800D01*
X164242636Y-112974800D02*
X164026964Y-112974800D01*
%TO.C,R44*%
X155116800Y-103785641D02*
X155116800Y-103478359D01*
X154356800Y-103785641D02*
X154356800Y-103478359D01*
%TO.C,R36*%
X166218841Y-88382532D02*
X165911559Y-88382532D01*
X166218841Y-87622532D02*
X165911559Y-87622532D01*
%TO.C,R54*%
X155116800Y-109754641D02*
X155116800Y-109447359D01*
X154356800Y-109754641D02*
X154356800Y-109447359D01*
D13*
%TO.C,Y1*%
X148315000Y-55823000D02*
X148315000Y-55423000D01*
X150815000Y-55823000D02*
X150815000Y-55423000D01*
D17*
%TO.C,R25*%
X170028841Y-106046000D02*
X169721559Y-106046000D01*
X170028841Y-106806000D02*
X169721559Y-106806000D01*
%TO.C,C32*%
X147722000Y-89427164D02*
X147722000Y-89642836D01*
X148442000Y-89427164D02*
X148442000Y-89642836D01*
%TO.C,R50*%
X149556441Y-102490000D02*
X149249159Y-102490000D01*
X149556441Y-103250000D02*
X149249159Y-103250000D01*
%TO.C,C17*%
X166924400Y-43338636D02*
X166924400Y-43122964D01*
X167644400Y-43338636D02*
X167644400Y-43122964D01*
%TO.C,C23*%
X143363836Y-73639000D02*
X143148164Y-73639000D01*
X143363836Y-72919000D02*
X143148164Y-72919000D01*
%TO.C,C16*%
X166376236Y-49229600D02*
X166160564Y-49229600D01*
X166376236Y-48509600D02*
X166160564Y-48509600D01*
%TO.C,R4*%
X145949641Y-57551269D02*
X145642359Y-57551269D01*
X145949641Y-58311269D02*
X145642359Y-58311269D01*
%TO.C,F3*%
X144933600Y-117504978D02*
X144933600Y-116987822D01*
X146353600Y-117504978D02*
X146353600Y-116987822D01*
%TO.C,R55*%
X154331641Y-98424000D02*
X154024359Y-98424000D01*
X154331641Y-97664000D02*
X154024359Y-97664000D01*
%TO.C,C14*%
X148939364Y-57806000D02*
X149155036Y-57806000D01*
X148939364Y-58526000D02*
X149155036Y-58526000D01*
%TO.C,C10*%
X158877507Y-66674390D02*
X159030010Y-66826893D01*
X158368390Y-67183507D02*
X158520893Y-67336010D01*
%TO.C,C49*%
X149459836Y-110215000D02*
X149244164Y-110215000D01*
X149459836Y-109495000D02*
X149244164Y-109495000D01*
D13*
%TO.C,U6*%
X147019000Y-89731000D02*
X144319000Y-89731000D01*
X147019000Y-92641000D02*
X144319000Y-92641000D01*
D15*
X148029000Y-92186000D02*
G75*
G03*
X148029000Y-92186000I-100000J0D01*
G01*
D17*
%TO.C,C42*%
X145091036Y-54081000D02*
X144875364Y-54081000D01*
X145091036Y-53361000D02*
X144875364Y-53361000D01*
%TO.C,R1*%
X145949641Y-59562000D02*
X145642359Y-59562000D01*
X145949641Y-58802000D02*
X145642359Y-58802000D01*
%TO.C,C4*%
X150626400Y-68586236D02*
X150626400Y-68370564D01*
X149906400Y-68586236D02*
X149906400Y-68370564D01*
%TO.C,R52*%
X150242000Y-105129359D02*
X150242000Y-105436641D01*
X151002000Y-105129359D02*
X151002000Y-105436641D01*
D13*
%TO.C,U11*%
X163472400Y-58041000D02*
X169572400Y-58041000D01*
X163472400Y-63141000D02*
X169572400Y-63141000D01*
D15*
X162537400Y-58686000D02*
G75*
G03*
X162537400Y-58686000I-100000J0D01*
G01*
D17*
%TO.C,R35*%
X166218841Y-89635600D02*
X165911559Y-89635600D01*
X166218841Y-88875600D02*
X165911559Y-88875600D01*
%TO.C,R58*%
X155116800Y-111508359D02*
X155116800Y-111815641D01*
X154356800Y-111508359D02*
X154356800Y-111815641D01*
%TO.C,C41*%
X151403164Y-50906000D02*
X151618836Y-50906000D01*
X151403164Y-50186000D02*
X151618836Y-50186000D01*
%TO.C,F2*%
X146353600Y-106058044D02*
X146353600Y-105540888D01*
X144933600Y-106058044D02*
X144933600Y-105540888D01*
%TO.C,AE1*%
X143383000Y-64998600D02*
X143383000Y-68808600D01*
X141605000Y-64998600D02*
X141605000Y-68808600D01*
D15*
X143256000Y-64617600D02*
X141732000Y-64617600D01*
D17*
%TO.C,R32*%
X162406359Y-87656400D02*
X162713641Y-87656400D01*
X162406359Y-88416400D02*
X162713641Y-88416400D01*
%TO.C,D3*%
X168924800Y-76927200D02*
X165024800Y-76927200D01*
X168924800Y-78927200D02*
X168924800Y-76927200D01*
X168924800Y-78927200D02*
X165024800Y-78927200D01*
%TO.C,C28*%
X163429836Y-50821000D02*
X163214164Y-50821000D01*
X163429836Y-51541000D02*
X163214164Y-51541000D01*
%TO.C,C11*%
X154101190Y-55041293D02*
X154253693Y-54888790D01*
X154610307Y-55550410D02*
X154762810Y-55397907D01*
%TO.C,C12*%
X160928164Y-61514400D02*
X161143836Y-61514400D01*
X160928164Y-62234400D02*
X161143836Y-62234400D01*
%TO.C,R51*%
X149708841Y-114732800D02*
X149401559Y-114732800D01*
X149708841Y-115492800D02*
X149401559Y-115492800D01*
%TO.C,R3*%
X145949641Y-56262000D02*
X145642359Y-56262000D01*
X145949641Y-57022000D02*
X145642359Y-57022000D01*
%TO.C,R30*%
X145416000Y-39269641D02*
X145416000Y-38962359D01*
X146176000Y-39269641D02*
X146176000Y-38962359D01*
%TO.C,C22*%
X164839764Y-52218000D02*
X165055436Y-52218000D01*
X164839764Y-52938000D02*
X165055436Y-52938000D01*
%TO.C,R17*%
X149505641Y-91822000D02*
X149198359Y-91822000D01*
X149505641Y-92582000D02*
X149198359Y-92582000D01*
%TO.C,FB2*%
X144478742Y-50785500D02*
X144953258Y-50785500D01*
X144478742Y-51830500D02*
X144953258Y-51830500D01*
%TO.C,R21*%
X156722400Y-120056264D02*
X156722400Y-118602136D01*
X158542400Y-120056264D02*
X158542400Y-118602136D01*
%TO.C,C26*%
X148697836Y-90826000D02*
X148482164Y-90826000D01*
X148697836Y-91546000D02*
X148482164Y-91546000D01*
%TO.C,R12*%
X148845000Y-72490359D02*
X148845000Y-72797641D01*
X149605000Y-72490359D02*
X149605000Y-72797641D01*
%TO.C,F5*%
X146353600Y-100334578D02*
X146353600Y-99817422D01*
X144933600Y-100334578D02*
X144933600Y-99817422D01*
%TO.C,C39*%
X169579125Y-58067400D02*
X169363453Y-58067400D01*
X169579125Y-57347400D02*
X169363453Y-57347400D01*
D13*
%TO.C,U3*%
X168539625Y-44719911D02*
X168539625Y-44969911D01*
X165789625Y-47719911D02*
X165539625Y-47719911D01*
X168539625Y-47469911D02*
X168539625Y-47719911D01*
X168289625Y-44719911D02*
X168539625Y-44719911D01*
X165539625Y-44969911D02*
X165539625Y-44719911D01*
X165539625Y-44719911D02*
X165789625Y-44719911D01*
X168539625Y-47719911D02*
X168289625Y-47719911D01*
X165539625Y-47719911D02*
X165539625Y-47469911D01*
D15*
X168517625Y-44191911D02*
G75*
G03*
X168517625Y-44191911I-100000J0D01*
G01*
D17*
%TO.C,R6*%
X160240940Y-66005917D02*
X160023659Y-65788636D01*
X160778341Y-65468516D02*
X160561060Y-65251235D01*
%TO.C,R47*%
X148745641Y-119508000D02*
X148438359Y-119508000D01*
X148745641Y-120268000D02*
X148438359Y-120268000D01*
%TO.C,R49*%
X155116800Y-117753159D02*
X155116800Y-118060441D01*
X154356800Y-117753159D02*
X154356800Y-118060441D01*
%TO.C,R29*%
X146559000Y-38962359D02*
X146559000Y-39269641D01*
X147319000Y-38962359D02*
X147319000Y-39269641D01*
D13*
%TO.C,U2*%
X156922600Y-44185200D02*
X153922600Y-44185200D01*
X156922600Y-49185200D02*
X153922600Y-49185200D01*
D19*
X156919600Y-49733200D02*
G75*
G03*
X156919600Y-49733200I-100000J0D01*
G01*
D17*
%TO.C,D4*%
X161112200Y-116011200D02*
X158318200Y-116011200D01*
D15*
X161965200Y-116011200D02*
X161965200Y-114011200D01*
D17*
X161112200Y-114011200D02*
X158318200Y-114011200D01*
%TO.C,C9*%
X149712000Y-60559836D02*
X149712000Y-60344164D01*
X148992000Y-60559836D02*
X148992000Y-60344164D01*
%TO.C,R19*%
X158342359Y-112904000D02*
X158649641Y-112904000D01*
X158342359Y-113664000D02*
X158649641Y-113664000D01*
%TO.C,C33*%
X158603836Y-111358000D02*
X158388164Y-111358000D01*
X158603836Y-110638000D02*
X158388164Y-110638000D01*
%TO.C,C50*%
X149663036Y-97582400D02*
X149447364Y-97582400D01*
X149663036Y-98302400D02*
X149447364Y-98302400D01*
%TO.C,R13*%
X150748000Y-72797641D02*
X150748000Y-72490359D01*
X149988000Y-72797641D02*
X149988000Y-72490359D01*
%TO.C,R20*%
X158649641Y-111634000D02*
X158342359Y-111634000D01*
X158649641Y-112394000D02*
X158342359Y-112394000D01*
D13*
%TO.C,U5*%
X141941000Y-75933000D02*
X141941000Y-83833000D01*
X152191000Y-75933000D02*
X152191000Y-83833000D01*
D15*
X152366000Y-73683000D02*
G75*
G03*
X152366000Y-73683000I-100000J0D01*
G01*
D17*
%TO.C,R2*%
X145949641Y-60072000D02*
X145642359Y-60072000D01*
X145949641Y-60832000D02*
X145642359Y-60832000D01*
%TO.C,R11*%
X147854400Y-71423559D02*
X147854400Y-71730841D01*
X148614400Y-71423559D02*
X148614400Y-71730841D01*
%TO.C,C21*%
X166109764Y-55164400D02*
X166325436Y-55164400D01*
X166109764Y-55884400D02*
X166325436Y-55884400D01*
%TO.C,C1*%
X147832400Y-62236236D02*
X147832400Y-62020564D01*
X147112400Y-62236236D02*
X147112400Y-62020564D01*
%TO.C,C5*%
X148901036Y-68076400D02*
X148685364Y-68076400D01*
X148901036Y-67356400D02*
X148685364Y-67356400D01*
%TO.C,R18*%
X163193641Y-45467000D02*
X162886359Y-45467000D01*
X163193641Y-46227000D02*
X162886359Y-46227000D01*
%TO.C,C20*%
X166109764Y-54300800D02*
X166325436Y-54300800D01*
X166109764Y-55020800D02*
X166325436Y-55020800D01*
%TO.C,R23*%
X170130441Y-113056400D02*
X169823159Y-113056400D01*
X170130441Y-113816400D02*
X169823159Y-113816400D01*
%TO.C,R43*%
X168349959Y-83897200D02*
X168657241Y-83897200D01*
X168349959Y-84657200D02*
X168657241Y-84657200D01*
%TO.C,R7*%
X160875940Y-65350541D02*
X160658659Y-65133260D01*
X161413341Y-64813140D02*
X161196060Y-64595859D01*
%TO.C,R9*%
X165454359Y-43562000D02*
X165761641Y-43562000D01*
X165454359Y-44322000D02*
X165761641Y-44322000D01*
%TO.C,C13*%
X160928164Y-61269200D02*
X161143836Y-61269200D01*
X160928164Y-60549200D02*
X161143836Y-60549200D01*
%TO.C,R56*%
X148743641Y-114045000D02*
X148436359Y-114045000D01*
X148743641Y-113285000D02*
X148436359Y-113285000D01*
%TO.C,C19*%
X170133600Y-46488236D02*
X170133600Y-46272564D01*
X169413600Y-46488236D02*
X169413600Y-46272564D01*
%TO.C,C36*%
X164344236Y-109529200D02*
X164128564Y-109529200D01*
X164344236Y-108809200D02*
X164128564Y-108809200D01*
%TO.C,C44*%
X167330800Y-56648236D02*
X167330800Y-56432564D01*
X168050800Y-56648236D02*
X168050800Y-56432564D01*
%TO.C,R45*%
X154356800Y-116028441D02*
X154356800Y-115721159D01*
X155116800Y-116028441D02*
X155116800Y-115721159D01*
%TO.C,R5*%
X149886400Y-66394359D02*
X149886400Y-66701641D01*
X150646400Y-66394359D02*
X150646400Y-66701641D01*
%TO.C,R28*%
X150621000Y-36729641D02*
X150621000Y-36422359D01*
X149861000Y-36729641D02*
X149861000Y-36422359D01*
%TO.C,FB1*%
X145644841Y-71857600D02*
X145337559Y-71857600D01*
X145644841Y-72617600D02*
X145337559Y-72617600D01*
%TO.C,C30*%
X145367836Y-87016000D02*
X145152164Y-87016000D01*
X145367836Y-87736000D02*
X145152164Y-87736000D01*
%TO.C,F4*%
X144933600Y-111781510D02*
X144933600Y-111264354D01*
X146353600Y-111781510D02*
X146353600Y-111264354D01*
%TO.C,C38*%
X165968000Y-117151036D02*
X165968000Y-116935364D01*
X165248000Y-117151036D02*
X165248000Y-116935364D01*
%TO.C,D11*%
X160489297Y-80843083D02*
X157731581Y-78085367D01*
X159075083Y-82257297D02*
X156317367Y-79499581D01*
X159075083Y-82257297D02*
X160489297Y-80843083D01*
%TO.C,R48*%
X154356800Y-105510359D02*
X154356800Y-105817641D01*
X155116800Y-105510359D02*
X155116800Y-105817641D01*
%TO.C,U8*%
X164512600Y-120373600D02*
X164512600Y-124177600D01*
X167261257Y-120373600D02*
X166267943Y-120373600D01*
X169561257Y-120373600D02*
X168567943Y-120373600D01*
X164961256Y-120373600D02*
X164512600Y-120373600D01*
X171316600Y-120373600D02*
X170867943Y-120373600D01*
X164512600Y-124177600D02*
X166111257Y-124177600D01*
X171316600Y-124177600D02*
X171316600Y-120373600D01*
X169717943Y-124177600D02*
X171316600Y-124177600D01*
X172586600Y-118725600D02*
G75*
G03*
X172586600Y-118725600I-127000J0D01*
G01*
%TO.C,R57*%
X148692841Y-101321600D02*
X148385559Y-101321600D01*
X148692841Y-102081600D02*
X148385559Y-102081600D01*
%TO.C,C31*%
X161281164Y-49678000D02*
X161496836Y-49678000D01*
X161281164Y-50398000D02*
X161496836Y-50398000D01*
%TO.C,C40*%
X169576636Y-56434400D02*
X169360964Y-56434400D01*
X169576636Y-57154400D02*
X169360964Y-57154400D01*
%TO.C,C43*%
X145091036Y-53065000D02*
X144875364Y-53065000D01*
X145091036Y-52345000D02*
X144875364Y-52345000D01*
%TO.C,C7*%
X150394010Y-64032893D02*
X150241507Y-63880390D01*
X149884893Y-64542010D02*
X149732390Y-64389507D01*
%TO.C,C47*%
X149510636Y-103424400D02*
X149294964Y-103424400D01*
X149510636Y-104144400D02*
X149294964Y-104144400D01*
%TO.C,C45*%
X166264000Y-50285764D02*
X166264000Y-50501436D01*
X166984000Y-50285764D02*
X166984000Y-50501436D01*
%TO.C,R61*%
X149708841Y-96648000D02*
X149401559Y-96648000D01*
X149708841Y-97408000D02*
X149401559Y-97408000D01*
%TO.C,Q1*%
X155564400Y-75692000D02*
X155564400Y-75042000D01*
X158684400Y-75692000D02*
X158684400Y-74017000D01*
X155564400Y-75692000D02*
X155564400Y-76342000D01*
X158684400Y-75692000D02*
X158684400Y-76342000D01*
%TO.C,R62*%
X151002000Y-111225359D02*
X151002000Y-111532641D01*
X150242000Y-111225359D02*
X150242000Y-111532641D01*
%TO.C,C25*%
X144251000Y-87991836D02*
X144251000Y-87776164D01*
X143531000Y-87991836D02*
X143531000Y-87776164D01*
%TO.C,R63*%
X151103600Y-99312759D02*
X151103600Y-99620041D01*
X150343600Y-99312759D02*
X150343600Y-99620041D01*
%TO.C,C29*%
X163401836Y-49678000D02*
X163186164Y-49678000D01*
X163401836Y-50398000D02*
X163186164Y-50398000D01*
%TO.C,R31*%
X151639000Y-38962359D02*
X151639000Y-39269641D01*
X152399000Y-38962359D02*
X152399000Y-39269641D01*
%TO.C,C15*%
X149498164Y-52726000D02*
X149713836Y-52726000D01*
X149498164Y-53446000D02*
X149713836Y-53446000D01*
%TO.C,C18*%
X158348000Y-47986836D02*
X158348000Y-47771164D01*
X157628000Y-47986836D02*
X157628000Y-47771164D01*
%TO.C,R10*%
X155601641Y-43814000D02*
X155294359Y-43814000D01*
X155601641Y-43054000D02*
X155294359Y-43054000D01*
%TO.C,C2*%
X148809000Y-62248836D02*
X148809000Y-62033164D01*
X148089000Y-62248836D02*
X148089000Y-62033164D01*
%TO.C,R40*%
X166066441Y-63475600D02*
X165759159Y-63475600D01*
X166066441Y-64235600D02*
X165759159Y-64235600D01*
%TO.C,C48*%
X149663036Y-115667200D02*
X149447364Y-115667200D01*
X149663036Y-116387200D02*
X149447364Y-116387200D01*
%TO.C,C8*%
X150601000Y-60559836D02*
X150601000Y-60344164D01*
X149881000Y-60559836D02*
X149881000Y-60344164D01*
%TO.C,R53*%
X151052800Y-117346759D02*
X151052800Y-117654041D01*
X150292800Y-117346759D02*
X150292800Y-117654041D01*
%TO.C,C35*%
X168344964Y-116988000D02*
X168560636Y-116988000D01*
X168344964Y-117708000D02*
X168560636Y-117708000D01*
%TO.C,R22*%
X160272759Y-110618000D02*
X160580041Y-110618000D01*
X160272759Y-111378000D02*
X160580041Y-111378000D01*
%TO.C,R26*%
X166007641Y-57571000D02*
X165700359Y-57571000D01*
X166007641Y-56811000D02*
X165700359Y-56811000D01*
%TO.C,R46*%
X148694841Y-107974400D02*
X148387559Y-107974400D01*
X148694841Y-107214400D02*
X148387559Y-107214400D01*
%TD*%
%LPC*%
D20*
X145025000Y-34600000D02*
G75*
G03*
X145025000Y-34600000I-1425000J0D01*
G01*
X171025000Y-129600000D02*
G75*
G03*
X171025000Y-129600000I-1425000J0D01*
G01*
X145025000Y-129600000D02*
G75*
G03*
X145025000Y-129600000I-1425000J0D01*
G01*
X171025000Y-34600000D02*
G75*
G03*
X171025000Y-34600000I-1425000J0D01*
G01*
D21*
%TO.C,U9*%
X164835586Y-110248700D03*
X164185600Y-110248700D03*
X163535614Y-110248700D03*
X163535614Y-112255300D03*
X164185600Y-112255300D03*
X164835586Y-112255300D03*
D22*
X164185600Y-111252000D03*
%TD*%
D23*
%TO.C,Q5*%
X148448000Y-100722000D03*
X149098000Y-100722000D03*
X149748000Y-100722000D03*
D24*
X149623000Y-99822000D03*
D23*
X149748000Y-98922000D03*
X149098000Y-98922000D03*
X148448000Y-98922000D03*
D24*
X148573000Y-99822000D03*
%TD*%
D25*
%TO.C,U7*%
X161463200Y-46875900D03*
X161963200Y-46875900D03*
X162463200Y-46875900D03*
D26*
X163279700Y-47190400D03*
X163279700Y-47690400D03*
X163279700Y-48190400D03*
X163279700Y-48690400D03*
D27*
X162463200Y-49004900D03*
X161963200Y-49004900D03*
X161463200Y-49004900D03*
D28*
X160646700Y-48690400D03*
X160646700Y-48190400D03*
X160646700Y-47690400D03*
X160646700Y-47190400D03*
%TD*%
D29*
%TO.C,U10*%
X167112100Y-70271600D03*
X167112100Y-71221600D03*
X167112100Y-72171600D03*
X169387100Y-72171600D03*
X169387100Y-71221600D03*
X169387100Y-70271600D03*
%TD*%
D30*
%TO.C,U1*%
X150919540Y-63208505D03*
X151202382Y-63491348D03*
X151485225Y-63774191D03*
X151768068Y-64057033D03*
X152050910Y-64339876D03*
X152333753Y-64622719D03*
X152616596Y-64905562D03*
X152899438Y-65188404D03*
X153182281Y-65471247D03*
X153465124Y-65754090D03*
X153747967Y-66036932D03*
X154030809Y-66319775D03*
X154313652Y-66602618D03*
X154596495Y-66885460D03*
D31*
X155791505Y-66885460D03*
X156074348Y-66602618D03*
X156357191Y-66319775D03*
X156640033Y-66036932D03*
X156922876Y-65754090D03*
X157205719Y-65471247D03*
X157488562Y-65188404D03*
X157771404Y-64905562D03*
X158054247Y-64622719D03*
X158337090Y-64339876D03*
X158619932Y-64057033D03*
X158902775Y-63774191D03*
X159185618Y-63491348D03*
X159468460Y-63208505D03*
D30*
X159468460Y-62013495D03*
X159185618Y-61730652D03*
X158902775Y-61447809D03*
X158619932Y-61164967D03*
X158337090Y-60882124D03*
X158054247Y-60599281D03*
X157771404Y-60316438D03*
X157488562Y-60033596D03*
X157205719Y-59750753D03*
X156922876Y-59467910D03*
X156640033Y-59185068D03*
X156357191Y-58902225D03*
X156074348Y-58619382D03*
X155791505Y-58336540D03*
D31*
X154596495Y-58336540D03*
X154313652Y-58619382D03*
X154030809Y-58902225D03*
X153747967Y-59185068D03*
X153465124Y-59467910D03*
X153182281Y-59750753D03*
X152899438Y-60033596D03*
X152616596Y-60316438D03*
X152333753Y-60599281D03*
X152050910Y-60882124D03*
X151768068Y-61164967D03*
X151485225Y-61447809D03*
X151202382Y-61730652D03*
X150919540Y-62013495D03*
D32*
X155194000Y-62611000D03*
%TD*%
D23*
%TO.C,Q2*%
X148448000Y-106564000D03*
X149098000Y-106564000D03*
X149748000Y-106564000D03*
D24*
X149623000Y-105664000D03*
D23*
X149748000Y-104764000D03*
X149098000Y-104764000D03*
X148448000Y-104764000D03*
D24*
X148573000Y-105664000D03*
%TD*%
D23*
%TO.C,Q4*%
X148448000Y-112660000D03*
X149098000Y-112660000D03*
D24*
X149623000Y-111760000D03*
D23*
X149748000Y-112660000D03*
X149748000Y-110860000D03*
X149098000Y-110860000D03*
D24*
X148573000Y-111760000D03*
D23*
X148448000Y-110860000D03*
%TD*%
%TO.C,Q3*%
X148448000Y-118806800D03*
X149098000Y-118806800D03*
X149748000Y-118806800D03*
D24*
X149623000Y-117906800D03*
D23*
X149748000Y-117006800D03*
X149098000Y-117006800D03*
X148448000Y-117006800D03*
D24*
X148573000Y-117906800D03*
%TD*%
D33*
%TO.C,D2*%
X149075000Y-88265000D03*
X148105000Y-88265000D03*
%TD*%
D34*
%TO.C,R27*%
X162050000Y-89255600D03*
X163070000Y-89255600D03*
%TD*%
D35*
%TO.C,R34*%
X166575200Y-83312000D03*
X165555200Y-83312000D03*
%TD*%
D34*
%TO.C,R16*%
X148842000Y-93345000D03*
X149862000Y-93345000D03*
%TD*%
%TO.C,R42*%
X156563600Y-73355200D03*
X157583600Y-73355200D03*
%TD*%
D36*
%TO.C,R59*%
X154736800Y-99007200D03*
X154736800Y-100027200D03*
%TD*%
D35*
%TO.C,R39*%
X166575200Y-84277200D03*
X165555200Y-84277200D03*
%TD*%
%TO.C,R37*%
X166575200Y-86749466D03*
X165555200Y-86749466D03*
%TD*%
D37*
%TO.C,R15*%
X161036000Y-56517000D03*
X161036000Y-55497000D03*
%TD*%
D38*
%TO.C,C3*%
X149273200Y-68529200D03*
X148313200Y-68529200D03*
%TD*%
D35*
%TO.C,R60*%
X149862000Y-108966000D03*
X148842000Y-108966000D03*
%TD*%
D39*
%TO.C,F1*%
X169796700Y-115773200D03*
X167921700Y-115773200D03*
%TD*%
D38*
%TO.C,C24*%
X143736000Y-72263000D03*
X142776000Y-72263000D03*
%TD*%
D36*
%TO.C,R41*%
X149148800Y-36015200D03*
X149148800Y-37035200D03*
%TD*%
D35*
%TO.C,R38*%
X166575200Y-85496400D03*
X165555200Y-85496400D03*
%TD*%
D34*
%TO.C,R8*%
X149045200Y-59029600D03*
X150065200Y-59029600D03*
%TD*%
D38*
%TO.C,C6*%
X149273200Y-66903600D03*
X148313200Y-66903600D03*
%TD*%
%TO.C,C46*%
X166646800Y-41198800D03*
X165686800Y-41198800D03*
%TD*%
D40*
%TO.C,U12*%
X147107000Y-49596000D03*
X147107000Y-50546000D03*
X147107000Y-51496000D03*
X149597000Y-51496000D03*
X149597000Y-50546000D03*
X149597000Y-49596000D03*
%TD*%
D35*
%TO.C,R24*%
X170486800Y-109931200D03*
X169466800Y-109931200D03*
%TD*%
D38*
%TO.C,C37*%
X164614800Y-113334800D03*
X163654800Y-113334800D03*
%TD*%
D37*
%TO.C,R44*%
X154736800Y-104142000D03*
X154736800Y-103122000D03*
%TD*%
D35*
%TO.C,R36*%
X166575200Y-88002532D03*
X165555200Y-88002532D03*
%TD*%
D37*
%TO.C,R54*%
X154736800Y-110111000D03*
X154736800Y-109091000D03*
%TD*%
D41*
%TO.C,Y1*%
X150365000Y-56723000D03*
X150365000Y-54523000D03*
X148765000Y-54523000D03*
X148765000Y-56723000D03*
%TD*%
D35*
%TO.C,R25*%
X170385200Y-106426000D03*
X169365200Y-106426000D03*
%TD*%
D42*
%TO.C,L3*%
X143256000Y-90447000D03*
X143256000Y-91417000D03*
%TD*%
D43*
%TO.C,C32*%
X148082000Y-89055000D03*
X148082000Y-90015000D03*
%TD*%
D35*
%TO.C,R50*%
X149912800Y-102870000D03*
X148892800Y-102870000D03*
%TD*%
D44*
%TO.C,C17*%
X167284400Y-43710800D03*
X167284400Y-42750800D03*
%TD*%
D45*
%TO.C,U4*%
X164404400Y-53637800D03*
X163904400Y-53637800D03*
X163404400Y-53637800D03*
X162904400Y-53637800D03*
X162404400Y-53637800D03*
D46*
X161990400Y-54551800D03*
D47*
X161990400Y-55052800D03*
D48*
X161990400Y-55556800D03*
D45*
X162404400Y-56465800D03*
X162904400Y-56465800D03*
D49*
X163405400Y-56465800D03*
D45*
X163904400Y-56465800D03*
X164404400Y-56465800D03*
D48*
X164818400Y-55556800D03*
D46*
X164818400Y-55051800D03*
X164818400Y-54551800D03*
%TD*%
D38*
%TO.C,C23*%
X143736000Y-73279000D03*
X142776000Y-73279000D03*
%TD*%
%TO.C,C16*%
X166748400Y-48869600D03*
X165788400Y-48869600D03*
%TD*%
D35*
%TO.C,R4*%
X146306000Y-57931269D03*
X145286000Y-57931269D03*
%TD*%
D50*
%TO.C,F3*%
X145643600Y-118183900D03*
X145643600Y-116308900D03*
%TD*%
D35*
%TO.C,R55*%
X154688000Y-98044000D03*
X153668000Y-98044000D03*
%TD*%
D51*
%TO.C,C14*%
X148567200Y-58166000D03*
X149527200Y-58166000D03*
%TD*%
D52*
%TO.C,C10*%
X158359789Y-66665789D03*
X159038611Y-67344611D03*
%TD*%
D38*
%TO.C,C49*%
X149832000Y-109855000D03*
X148872000Y-109855000D03*
%TD*%
D53*
%TO.C,U6*%
X146939000Y-92186000D03*
X146939000Y-91686000D03*
X146939000Y-91186000D03*
X146939000Y-90686000D03*
X146939000Y-90186000D03*
X144399000Y-90186000D03*
X144399000Y-90686000D03*
X144399000Y-91186000D03*
X144399000Y-91686000D03*
X144399000Y-92186000D03*
D54*
X145669000Y-91186000D03*
%TD*%
D38*
%TO.C,C42*%
X145463200Y-53721000D03*
X144503200Y-53721000D03*
%TD*%
D35*
%TO.C,R1*%
X146306000Y-59182000D03*
X145286000Y-59182000D03*
%TD*%
D44*
%TO.C,C4*%
X150266400Y-68958400D03*
X150266400Y-67998400D03*
%TD*%
D36*
%TO.C,R52*%
X150622000Y-104773000D03*
X150622000Y-105793000D03*
%TD*%
D55*
%TO.C,U11*%
X163677400Y-58686000D03*
X163677400Y-59956000D03*
X163677400Y-61226000D03*
X163677400Y-62496000D03*
X169367400Y-62496000D03*
X169367400Y-61226000D03*
X169367400Y-59956000D03*
X169367400Y-58686000D03*
D56*
X166522400Y-60591000D03*
%TD*%
D35*
%TO.C,R35*%
X166575200Y-89255600D03*
X165555200Y-89255600D03*
%TD*%
D57*
%TO.C,L1*%
X147472400Y-63601600D03*
X148442400Y-63601600D03*
%TD*%
D36*
%TO.C,R58*%
X154736800Y-111152000D03*
X154736800Y-112172000D03*
%TD*%
D51*
%TO.C,C41*%
X151031000Y-50546000D03*
X151991000Y-50546000D03*
%TD*%
D50*
%TO.C,F2*%
X145643600Y-106736966D03*
X145643600Y-104861966D03*
%TD*%
D58*
%TO.C,AE1*%
X142494000Y-65303600D03*
X142494000Y-68503600D03*
%TD*%
D34*
%TO.C,R32*%
X162050000Y-88036400D03*
X163070000Y-88036400D03*
%TD*%
D59*
%TO.C,D3*%
X168324800Y-77927200D03*
X165024800Y-77927200D03*
%TD*%
D38*
%TO.C,C28*%
X163802000Y-51181000D03*
X162842000Y-51181000D03*
%TD*%
D60*
%TO.C,C11*%
X154092589Y-55559011D03*
X154771411Y-54880189D03*
%TD*%
D51*
%TO.C,C12*%
X160556000Y-61874400D03*
X161516000Y-61874400D03*
%TD*%
D35*
%TO.C,R51*%
X150065200Y-115112800D03*
X149045200Y-115112800D03*
%TD*%
%TO.C,R3*%
X146306000Y-56642000D03*
X145286000Y-56642000D03*
%TD*%
D37*
%TO.C,R30*%
X145796000Y-39626000D03*
X145796000Y-38606000D03*
%TD*%
D51*
%TO.C,C22*%
X164467600Y-52578000D03*
X165427600Y-52578000D03*
%TD*%
D35*
%TO.C,R17*%
X149862000Y-92202000D03*
X148842000Y-92202000D03*
%TD*%
D61*
%TO.C,FB2*%
X143891000Y-51308000D03*
X145541000Y-51308000D03*
%TD*%
D62*
%TO.C,R21*%
X157632400Y-120791700D03*
X157632400Y-117866700D03*
%TD*%
D38*
%TO.C,C26*%
X149070000Y-91186000D03*
X148110000Y-91186000D03*
%TD*%
D36*
%TO.C,R12*%
X149225000Y-72134000D03*
X149225000Y-73154000D03*
%TD*%
D50*
%TO.C,F5*%
X145643600Y-101013500D03*
X145643600Y-99138500D03*
%TD*%
D38*
%TO.C,C39*%
X169951289Y-57707400D03*
X168991289Y-57707400D03*
%TD*%
D63*
%TO.C,U3*%
X167789625Y-44742411D03*
X167289625Y-44742411D03*
X166789625Y-44742411D03*
X166289625Y-44742411D03*
D64*
X165562125Y-45469911D03*
X165562125Y-45969911D03*
X165562125Y-46469911D03*
X165562125Y-46969911D03*
D63*
X166289625Y-47697411D03*
X166789625Y-47697411D03*
X167289625Y-47697411D03*
X167789625Y-47697411D03*
D64*
X168517125Y-46969911D03*
X168517125Y-46469911D03*
X168517125Y-45969911D03*
X168517125Y-45469911D03*
%TD*%
D65*
%TO.C,R6*%
X160761624Y-65989200D03*
X160040376Y-65267952D03*
%TD*%
D35*
%TO.C,R47*%
X149102000Y-119888000D03*
X148082000Y-119888000D03*
%TD*%
D36*
%TO.C,R49*%
X154736800Y-117396800D03*
X154736800Y-118416800D03*
%TD*%
%TO.C,R29*%
X146939000Y-38606000D03*
X146939000Y-39626000D03*
%TD*%
D66*
%TO.C,U2*%
X156622600Y-48560200D03*
X156622600Y-47310200D03*
X156622600Y-46060200D03*
X156622600Y-44810200D03*
X154222600Y-44810200D03*
X154222600Y-46060200D03*
X154222600Y-47310200D03*
X154222600Y-48560200D03*
%TD*%
D59*
%TO.C,D4*%
X161365200Y-115011200D03*
X158065200Y-115011200D03*
%TD*%
D44*
%TO.C,C9*%
X149352000Y-60932000D03*
X149352000Y-59972000D03*
%TD*%
D34*
%TO.C,R19*%
X157986000Y-113284000D03*
X159006000Y-113284000D03*
%TD*%
D38*
%TO.C,C33*%
X158976000Y-110998000D03*
X158016000Y-110998000D03*
%TD*%
%TO.C,C50*%
X150035200Y-97942400D03*
X149075200Y-97942400D03*
%TD*%
D37*
%TO.C,R13*%
X150368000Y-73154000D03*
X150368000Y-72134000D03*
%TD*%
D35*
%TO.C,R20*%
X159006000Y-112014000D03*
X157986000Y-112014000D03*
%TD*%
D67*
%TO.C,U5*%
X151466000Y-75033000D03*
X150366000Y-75033000D03*
X149266000Y-75033000D03*
X148166000Y-75033000D03*
X147066000Y-75033000D03*
X145966000Y-75033000D03*
X144866000Y-75033000D03*
X143766000Y-75033000D03*
X142666000Y-75033000D03*
X142666000Y-84733000D03*
X143766000Y-84733000D03*
X144866000Y-84733000D03*
X145966000Y-84733000D03*
X147066000Y-84733000D03*
X148166000Y-84733000D03*
X149266000Y-84733000D03*
X150366000Y-84733000D03*
X151466000Y-84733000D03*
%TD*%
D35*
%TO.C,R2*%
X146306000Y-60452000D03*
X145286000Y-60452000D03*
%TD*%
D36*
%TO.C,R11*%
X148234400Y-71067200D03*
X148234400Y-72087200D03*
%TD*%
D68*
%TO.C,L2*%
X149059853Y-65874947D03*
X149745747Y-65189053D03*
%TD*%
D51*
%TO.C,C21*%
X165737600Y-55524400D03*
X166697600Y-55524400D03*
%TD*%
D44*
%TO.C,C1*%
X147472400Y-62608400D03*
X147472400Y-61648400D03*
%TD*%
D38*
%TO.C,C5*%
X149273200Y-67716400D03*
X148313200Y-67716400D03*
%TD*%
D35*
%TO.C,R18*%
X163550000Y-45847000D03*
X162530000Y-45847000D03*
%TD*%
D51*
%TO.C,C20*%
X165737600Y-54660800D03*
X166697600Y-54660800D03*
%TD*%
D35*
%TO.C,R23*%
X170486800Y-113436400D03*
X169466800Y-113436400D03*
%TD*%
D34*
%TO.C,R43*%
X167993600Y-84277200D03*
X169013600Y-84277200D03*
%TD*%
D65*
%TO.C,R7*%
X161396624Y-65333824D03*
X160675376Y-64612576D03*
%TD*%
D34*
%TO.C,R9*%
X165098000Y-43942000D03*
X166118000Y-43942000D03*
%TD*%
D51*
%TO.C,C13*%
X160556000Y-60909200D03*
X161516000Y-60909200D03*
%TD*%
D35*
%TO.C,R56*%
X149100000Y-113665000D03*
X148080000Y-113665000D03*
%TD*%
D44*
%TO.C,C19*%
X169773600Y-46860400D03*
X169773600Y-45900400D03*
%TD*%
D38*
%TO.C,C36*%
X164716400Y-109169200D03*
X163756400Y-109169200D03*
%TD*%
D44*
%TO.C,C44*%
X167690800Y-57020400D03*
X167690800Y-56060400D03*
%TD*%
D37*
%TO.C,R45*%
X154736800Y-116384800D03*
X154736800Y-115364800D03*
%TD*%
D36*
%TO.C,R5*%
X150266400Y-66038000D03*
X150266400Y-67058000D03*
%TD*%
D37*
%TO.C,R28*%
X150241000Y-37086000D03*
X150241000Y-36066000D03*
%TD*%
D35*
%TO.C,FB1*%
X146001200Y-72237600D03*
X144981200Y-72237600D03*
%TD*%
D38*
%TO.C,C30*%
X145740000Y-87376000D03*
X144780000Y-87376000D03*
%TD*%
D50*
%TO.C,F4*%
X145643600Y-112460432D03*
X145643600Y-110585432D03*
%TD*%
D44*
%TO.C,C38*%
X165608000Y-117523200D03*
X165608000Y-116563200D03*
%TD*%
D69*
%TO.C,D11*%
X159357926Y-81125926D03*
X157024474Y-78792474D03*
%TD*%
D36*
%TO.C,R48*%
X154736800Y-105154000D03*
X154736800Y-106174000D03*
%TD*%
D70*
%TO.C,U8*%
X170214600Y-119250600D03*
X167914600Y-119250600D03*
X165614600Y-119250600D03*
D71*
X167914600Y-125300600D03*
%TD*%
D35*
%TO.C,R57*%
X149049200Y-101701600D03*
X148029200Y-101701600D03*
%TD*%
D51*
%TO.C,C31*%
X160909000Y-50038000D03*
X161869000Y-50038000D03*
%TD*%
D38*
%TO.C,C40*%
X169948800Y-56794400D03*
X168988800Y-56794400D03*
%TD*%
%TO.C,C43*%
X145463200Y-52705000D03*
X144503200Y-52705000D03*
%TD*%
D72*
%TO.C,C7*%
X150402611Y-64550611D03*
X149723789Y-63871789D03*
%TD*%
D38*
%TO.C,C47*%
X149882800Y-103784400D03*
X148922800Y-103784400D03*
%TD*%
D43*
%TO.C,C45*%
X166624000Y-49913600D03*
X166624000Y-50873600D03*
%TD*%
D35*
%TO.C,R61*%
X150065200Y-97028000D03*
X149045200Y-97028000D03*
%TD*%
D73*
%TO.C,Q1*%
X158074400Y-74754500D03*
X156174400Y-74754500D03*
X157124400Y-76629500D03*
%TD*%
D36*
%TO.C,R62*%
X150622000Y-110869000D03*
X150622000Y-111889000D03*
%TD*%
D44*
%TO.C,C25*%
X143891000Y-88364000D03*
X143891000Y-87404000D03*
%TD*%
D36*
%TO.C,R63*%
X150723600Y-98956400D03*
X150723600Y-99976400D03*
%TD*%
D38*
%TO.C,C29*%
X163774000Y-50038000D03*
X162814000Y-50038000D03*
%TD*%
D36*
%TO.C,R31*%
X152019000Y-38606000D03*
X152019000Y-39626000D03*
%TD*%
D51*
%TO.C,C15*%
X149126000Y-53086000D03*
X150086000Y-53086000D03*
%TD*%
D44*
%TO.C,C18*%
X157988000Y-48359000D03*
X157988000Y-47399000D03*
%TD*%
D35*
%TO.C,R10*%
X155958000Y-43434000D03*
X154938000Y-43434000D03*
%TD*%
D44*
%TO.C,C2*%
X148449000Y-62621000D03*
X148449000Y-61661000D03*
%TD*%
D35*
%TO.C,R40*%
X166422800Y-63855600D03*
X165402800Y-63855600D03*
%TD*%
D38*
%TO.C,C48*%
X150035200Y-116027200D03*
X149075200Y-116027200D03*
%TD*%
D44*
%TO.C,C8*%
X150241000Y-60932000D03*
X150241000Y-59972000D03*
%TD*%
D36*
%TO.C,R53*%
X150672800Y-116990400D03*
X150672800Y-118010400D03*
%TD*%
D51*
%TO.C,C35*%
X167972800Y-117348000D03*
X168932800Y-117348000D03*
%TD*%
D34*
%TO.C,R22*%
X159916400Y-110998000D03*
X160936400Y-110998000D03*
%TD*%
D35*
%TO.C,R26*%
X166364000Y-57191000D03*
X165344000Y-57191000D03*
%TD*%
%TO.C,R46*%
X149051200Y-107594400D03*
X148031200Y-107594400D03*
%TD*%
D74*
%TO.C,J1*%
X144399000Y-55372000D03*
D75*
X144399000Y-56642000D03*
X144399000Y-57912000D03*
X144399000Y-59182000D03*
X144399000Y-60452000D03*
X144399000Y-61722000D03*
%TD*%
D76*
%TO.C,J2*%
X165100000Y-130280800D03*
X157480000Y-130280800D03*
X152400000Y-130280800D03*
X160020000Y-130280800D03*
D77*
X160337500Y-125907800D03*
X157162500Y-125907800D03*
%TD*%
D78*
%TO.C,J4*%
X163578000Y-68449800D03*
X163578000Y-69299800D03*
X163578000Y-70149800D03*
X163578000Y-70999800D03*
X163578000Y-71849800D03*
X163578000Y-72699800D03*
X163578000Y-73549800D03*
X163578000Y-74399800D03*
X164928000Y-74399800D03*
X164928000Y-73549800D03*
X164928000Y-72699800D03*
X164928000Y-71849800D03*
X164928000Y-70999800D03*
X164928000Y-70149800D03*
X164928000Y-69299800D03*
X164928000Y-68449800D03*
D79*
X164078000Y-75749800D03*
D80*
X168378000Y-75749800D03*
X168378000Y-67099800D03*
D79*
X164078000Y-67099800D03*
%TD*%
D81*
%TO.C,J10*%
X152600000Y-108474333D03*
X152600000Y-105934333D03*
%TD*%
D82*
%TO.C,J5*%
X154627000Y-34594800D03*
X163127000Y-34594800D03*
%TD*%
D83*
%TO.C,ANT2*%
X146928000Y-87376000D03*
%TD*%
D81*
%TO.C,J12*%
X152600000Y-114547666D03*
X152600000Y-112007666D03*
%TD*%
D84*
%TO.C,LS1*%
X155575000Y-70114000D03*
D83*
X155575000Y-77714000D03*
%TD*%
D81*
%TO.C,J13*%
X152600000Y-102401000D03*
X152600000Y-99861000D03*
%TD*%
D85*
%TO.C,J3*%
X159562800Y-118059200D03*
X159562800Y-120599200D03*
%TD*%
D81*
%TO.C,J11*%
X152600000Y-120620999D03*
X152600000Y-118080999D03*
%TD*%
D86*
%TO.C,J9*%
X170078400Y-100507800D03*
D87*
X170078400Y-97667300D03*
%TD*%
M02*
