%TF.GenerationSoftware,KiCad,Pcbnew,(6.0.1)*%
%TF.CreationDate,2022-06-27T00:16:49+02:00*%
%TF.ProjectId,kp-ptr,6b702d70-7472-42e6-9b69-6361645f7063,rev?*%
%TF.SameCoordinates,Original*%
%TF.FileFunction,Soldermask,Top*%
%TF.FilePolarity,Negative*%
%FSLAX46Y46*%
G04 Gerber Fmt 4.6, Leading zero omitted, Abs format (unit mm)*
G04 Created by KiCad (PCBNEW (6.0.1)) date 2022-06-27 00:16:49*
%MOMM*%
%LPD*%
G01*
G04 APERTURE LIST*
G04 Aperture macros list*
%AMRoundRect*
0 Rectangle with rounded corners*
0 $1 Rounding radius*
0 $2 $3 $4 $5 $6 $7 $8 $9 X,Y pos of 4 corners*
0 Add a 4 corners polygon primitive as box body*
4,1,4,$2,$3,$4,$5,$6,$7,$8,$9,$2,$3,0*
0 Add four circle primitives for the rounded corners*
1,1,$1+$1,$2,$3*
1,1,$1+$1,$4,$5*
1,1,$1+$1,$6,$7*
1,1,$1+$1,$8,$9*
0 Add four rect primitives between the rounded corners*
20,1,$1+$1,$2,$3,$4,$5,0*
20,1,$1+$1,$4,$5,$6,$7,0*
20,1,$1+$1,$6,$7,$8,$9,0*
20,1,$1+$1,$8,$9,$2,$3,0*%
%AMRotRect*
0 Rectangle, with rotation*
0 The origin of the aperture is its center*
0 $1 length*
0 $2 width*
0 $3 Rotation angle, in degrees counterclockwise*
0 Add horizontal line*
21,1,$1,$2,0,0,$3*%
G04 Aperture macros list end*
%ADD10C,2.850000*%
%ADD11R,0.304800X0.609600*%
%ADD12R,1.701800X1.092200*%
%ADD13R,0.350000X0.500000*%
%ADD14R,0.600000X1.000000*%
%ADD15RoundRect,0.031500X-0.143500X0.428000X-0.143500X-0.428000X0.143500X-0.428000X0.143500X0.428000X0*%
%ADD16RoundRect,0.031500X0.430000X0.143500X-0.430000X0.143500X-0.430000X-0.143500X0.430000X-0.143500X0*%
%ADD17RoundRect,0.031500X0.143500X-0.428000X0.143500X0.428000X-0.143500X0.428000X-0.143500X-0.428000X0*%
%ADD18RoundRect,0.031500X-0.430000X-0.143500X0.430000X-0.143500X0.430000X0.143500X-0.430000X0.143500X0*%
%ADD19RoundRect,0.150000X-0.512500X-0.150000X0.512500X-0.150000X0.512500X0.150000X-0.512500X0.150000X0*%
%ADD20RoundRect,0.006600X-0.208597X-0.354826X0.354826X0.208597X0.208597X0.354826X-0.354826X-0.208597X0*%
%ADD21RoundRect,0.022000X0.208597X-0.333047X0.333047X-0.208597X-0.208597X0.333047X-0.333047X0.208597X0*%
%ADD22RotRect,4.000000X4.000000X45.000000*%
%ADD23RoundRect,0.147500X0.147500X0.172500X-0.147500X0.172500X-0.147500X-0.172500X0.147500X-0.172500X0*%
%ADD24RoundRect,0.135000X-0.135000X-0.185000X0.135000X-0.185000X0.135000X0.185000X-0.135000X0.185000X0*%
%ADD25RoundRect,0.135000X0.135000X0.185000X-0.135000X0.185000X-0.135000X-0.185000X0.135000X-0.185000X0*%
%ADD26RoundRect,0.135000X-0.185000X0.135000X-0.185000X-0.135000X0.185000X-0.135000X0.185000X0.135000X0*%
%ADD27RoundRect,0.135000X0.185000X-0.135000X0.185000X0.135000X-0.185000X0.135000X-0.185000X-0.135000X0*%
%ADD28RoundRect,0.140000X0.140000X0.170000X-0.140000X0.170000X-0.140000X-0.170000X0.140000X-0.170000X0*%
%ADD29RoundRect,0.243750X0.243750X0.456250X-0.243750X0.456250X-0.243750X-0.456250X0.243750X-0.456250X0*%
%ADD30RoundRect,0.040600X-0.569400X-0.249400X0.569400X-0.249400X0.569400X0.249400X-0.569400X0.249400X0*%
%ADD31R,1.150000X1.400000*%
%ADD32RoundRect,0.147500X-0.172500X0.147500X-0.172500X-0.147500X0.172500X-0.147500X0.172500X0.147500X0*%
%ADD33RoundRect,0.140000X-0.170000X0.140000X-0.170000X-0.140000X0.170000X-0.140000X0.170000X0.140000X0*%
%ADD34RoundRect,0.140000X0.170000X-0.140000X0.170000X0.140000X-0.170000X0.140000X-0.170000X-0.140000X0*%
%ADD35R,0.250000X0.728000*%
%ADD36R,0.728000X0.250000*%
%ADD37R,0.728000X0.252000*%
%ADD38R,0.728000X0.260000*%
%ADD39R,0.252000X0.728000*%
%ADD40RoundRect,0.243750X0.456250X-0.243750X0.456250X0.243750X-0.456250X0.243750X-0.456250X-0.243750X0*%
%ADD41RoundRect,0.140000X-0.140000X-0.170000X0.140000X-0.170000X0.140000X0.170000X-0.140000X0.170000X0*%
%ADD42RoundRect,0.140000X-0.219203X-0.021213X-0.021213X-0.219203X0.219203X0.021213X0.021213X0.219203X0*%
%ADD43RoundRect,0.008100X0.386900X0.126900X-0.386900X0.126900X-0.386900X-0.126900X0.386900X-0.126900X0*%
%ADD44R,1.240000X2.130000*%
%ADD45RoundRect,0.026400X-0.493600X-0.193600X0.493600X-0.193600X0.493600X0.193600X-0.493600X0.193600X0*%
%ADD46R,3.400000X4.300000*%
%ADD47RoundRect,0.147500X-0.147500X-0.172500X0.147500X-0.172500X0.147500X0.172500X-0.147500X0.172500X0*%
%ADD48RoundRect,0.200000X-0.600000X0.200000X-0.600000X-0.200000X0.600000X-0.200000X0.600000X0.200000X0*%
%ADD49R,0.900000X1.200000*%
%ADD50RoundRect,0.140000X0.021213X-0.219203X0.219203X-0.021213X-0.021213X0.219203X-0.219203X0.021213X0*%
%ADD51RoundRect,0.200000X-0.200000X-0.275000X0.200000X-0.275000X0.200000X0.275000X-0.200000X0.275000X0*%
%ADD52RoundRect,0.250000X0.625000X-0.312500X0.625000X0.312500X-0.625000X0.312500X-0.625000X-0.312500X0*%
%ADD53R,0.300000X0.855000*%
%ADD54R,0.855000X0.300000*%
%ADD55RoundRect,0.135000X0.226274X0.035355X0.035355X0.226274X-0.226274X-0.035355X-0.035355X-0.226274X0*%
%ADD56RoundRect,0.021200X0.633800X0.243800X-0.633800X0.243800X-0.633800X-0.243800X0.633800X-0.243800X0*%
%ADD57O,0.800000X1.800000*%
%ADD58RoundRect,0.147500X0.017678X-0.226274X0.226274X-0.017678X-0.017678X0.226274X-0.226274X0.017678X0*%
%ADD59RotRect,0.900000X1.200000X135.000000*%
%ADD60R,0.850800X1.761200*%
%ADD61R,3.150799X1.761200*%
%ADD62RoundRect,0.140000X0.219203X0.021213X0.021213X0.219203X-0.219203X-0.021213X-0.021213X-0.219203X0*%
%ADD63RoundRect,0.150000X-0.150000X0.587500X-0.150000X-0.587500X0.150000X-0.587500X0.150000X0.587500X0*%
%ADD64R,1.000000X1.000000*%
%ADD65O,1.000000X1.000000*%
%ADD66O,2.000000X2.500000*%
%ADD67R,2.413000X4.572000*%
%ADD68C,0.700000*%
%ADD69O,3.200000X1.300000*%
%ADD70O,2.500000X1.300000*%
%ADD71RoundRect,1.050000X0.450000X0.000000X0.450000X0.000000X-0.450000X0.000000X-0.450000X0.000000X0*%
%ADD72R,1.500000X5.080000*%
%ADD73C,2.000000*%
%ADD74R,2.000000X2.000000*%
%ADD75R,3.000000X2.100000*%
%ADD76R,3.302000X2.286000*%
%ADD77R,3.302000X2.447000*%
G04 APERTURE END LIST*
D10*
X145025000Y-34600000D02*
G75*
G03*
X145025000Y-34600000I-1425000J0D01*
G01*
X171025000Y-129600000D02*
G75*
G03*
X171025000Y-129600000I-1425000J0D01*
G01*
X145025000Y-129600000D02*
G75*
G03*
X145025000Y-129600000I-1425000J0D01*
G01*
X171025000Y-34600000D02*
G75*
G03*
X171025000Y-34600000I-1425000J0D01*
G01*
D11*
%TO.C,U9*%
X164835586Y-110248700D03*
X164185600Y-110248700D03*
X163535614Y-110248700D03*
X163535614Y-112255300D03*
X164185600Y-112255300D03*
X164835586Y-112255300D03*
D12*
X164185600Y-111252000D03*
%TD*%
D13*
%TO.C,Q5*%
X148448000Y-100722000D03*
X149098000Y-100722000D03*
X149748000Y-100722000D03*
D14*
X149623000Y-99822000D03*
D13*
X149748000Y-98922000D03*
X149098000Y-98922000D03*
X148448000Y-98922000D03*
D14*
X148573000Y-99822000D03*
%TD*%
D15*
%TO.C,U7*%
X161463200Y-46875900D03*
X161963200Y-46875900D03*
X162463200Y-46875900D03*
D16*
X163279700Y-47190400D03*
X163279700Y-47690400D03*
X163279700Y-48190400D03*
X163279700Y-48690400D03*
D17*
X162463200Y-49004900D03*
X161963200Y-49004900D03*
X161463200Y-49004900D03*
D18*
X160646700Y-48690400D03*
X160646700Y-48190400D03*
X160646700Y-47690400D03*
X160646700Y-47190400D03*
%TD*%
D19*
%TO.C,U10*%
X167112100Y-70271600D03*
X167112100Y-71221600D03*
X167112100Y-72171600D03*
X169387100Y-72171600D03*
X169387100Y-71221600D03*
X169387100Y-70271600D03*
%TD*%
D20*
%TO.C,U1*%
X150919540Y-63208505D03*
X151202382Y-63491348D03*
X151485225Y-63774191D03*
X151768068Y-64057033D03*
X152050910Y-64339876D03*
X152333753Y-64622719D03*
X152616596Y-64905562D03*
X152899438Y-65188404D03*
X153182281Y-65471247D03*
X153465124Y-65754090D03*
X153747967Y-66036932D03*
X154030809Y-66319775D03*
X154313652Y-66602618D03*
X154596495Y-66885460D03*
D21*
X155791505Y-66885460D03*
X156074348Y-66602618D03*
X156357191Y-66319775D03*
X156640033Y-66036932D03*
X156922876Y-65754090D03*
X157205719Y-65471247D03*
X157488562Y-65188404D03*
X157771404Y-64905562D03*
X158054247Y-64622719D03*
X158337090Y-64339876D03*
X158619932Y-64057033D03*
X158902775Y-63774191D03*
X159185618Y-63491348D03*
X159468460Y-63208505D03*
D20*
X159468460Y-62013495D03*
X159185618Y-61730652D03*
X158902775Y-61447809D03*
X158619932Y-61164967D03*
X158337090Y-60882124D03*
X158054247Y-60599281D03*
X157771404Y-60316438D03*
X157488562Y-60033596D03*
X157205719Y-59750753D03*
X156922876Y-59467910D03*
X156640033Y-59185068D03*
X156357191Y-58902225D03*
X156074348Y-58619382D03*
X155791505Y-58336540D03*
D21*
X154596495Y-58336540D03*
X154313652Y-58619382D03*
X154030809Y-58902225D03*
X153747967Y-59185068D03*
X153465124Y-59467910D03*
X153182281Y-59750753D03*
X152899438Y-60033596D03*
X152616596Y-60316438D03*
X152333753Y-60599281D03*
X152050910Y-60882124D03*
X151768068Y-61164967D03*
X151485225Y-61447809D03*
X151202382Y-61730652D03*
X150919540Y-62013495D03*
D22*
X155194000Y-62611000D03*
%TD*%
D13*
%TO.C,Q2*%
X148448000Y-106564000D03*
X149098000Y-106564000D03*
X149748000Y-106564000D03*
D14*
X149623000Y-105664000D03*
D13*
X149748000Y-104764000D03*
X149098000Y-104764000D03*
X148448000Y-104764000D03*
D14*
X148573000Y-105664000D03*
%TD*%
D13*
%TO.C,Q4*%
X148448000Y-112660000D03*
X149098000Y-112660000D03*
D14*
X149623000Y-111760000D03*
D13*
X149748000Y-112660000D03*
X149748000Y-110860000D03*
X149098000Y-110860000D03*
D14*
X148573000Y-111760000D03*
D13*
X148448000Y-110860000D03*
%TD*%
%TO.C,Q3*%
X148448000Y-118806800D03*
X149098000Y-118806800D03*
X149748000Y-118806800D03*
D14*
X149623000Y-117906800D03*
D13*
X149748000Y-117006800D03*
X149098000Y-117006800D03*
X148448000Y-117006800D03*
D14*
X148573000Y-117906800D03*
%TD*%
D23*
%TO.C,D2*%
X149075000Y-88265000D03*
X148105000Y-88265000D03*
%TD*%
D24*
%TO.C,R27*%
X162050000Y-89255600D03*
X163070000Y-89255600D03*
%TD*%
D25*
%TO.C,R34*%
X166575200Y-83312000D03*
X165555200Y-83312000D03*
%TD*%
D24*
%TO.C,R16*%
X148842000Y-93345000D03*
X149862000Y-93345000D03*
%TD*%
%TO.C,R42*%
X156563600Y-73355200D03*
X157583600Y-73355200D03*
%TD*%
D26*
%TO.C,R59*%
X154736800Y-99007200D03*
X154736800Y-100027200D03*
%TD*%
D25*
%TO.C,R39*%
X166575200Y-84277200D03*
X165555200Y-84277200D03*
%TD*%
%TO.C,R37*%
X166575200Y-86749466D03*
X165555200Y-86749466D03*
%TD*%
D27*
%TO.C,R15*%
X161036000Y-56517000D03*
X161036000Y-55497000D03*
%TD*%
D28*
%TO.C,C3*%
X149273200Y-68529200D03*
X148313200Y-68529200D03*
%TD*%
D25*
%TO.C,R60*%
X149862000Y-108966000D03*
X148842000Y-108966000D03*
%TD*%
D29*
%TO.C,F1*%
X169796700Y-115773200D03*
X167921700Y-115773200D03*
%TD*%
D28*
%TO.C,C24*%
X143736000Y-72263000D03*
X142776000Y-72263000D03*
%TD*%
D26*
%TO.C,R41*%
X149148800Y-36015200D03*
X149148800Y-37035200D03*
%TD*%
D25*
%TO.C,R38*%
X166575200Y-85496400D03*
X165555200Y-85496400D03*
%TD*%
D24*
%TO.C,R8*%
X149045200Y-59029600D03*
X150065200Y-59029600D03*
%TD*%
D28*
%TO.C,C6*%
X149273200Y-66903600D03*
X148313200Y-66903600D03*
%TD*%
%TO.C,C46*%
X166646800Y-41198800D03*
X165686800Y-41198800D03*
%TD*%
D30*
%TO.C,U12*%
X147107000Y-49596000D03*
X147107000Y-50546000D03*
X147107000Y-51496000D03*
X149597000Y-51496000D03*
X149597000Y-50546000D03*
X149597000Y-49596000D03*
%TD*%
D25*
%TO.C,R24*%
X170486800Y-109931200D03*
X169466800Y-109931200D03*
%TD*%
D28*
%TO.C,C37*%
X164614800Y-113334800D03*
X163654800Y-113334800D03*
%TD*%
D27*
%TO.C,R44*%
X154736800Y-104142000D03*
X154736800Y-103122000D03*
%TD*%
D25*
%TO.C,R36*%
X166575200Y-88002532D03*
X165555200Y-88002532D03*
%TD*%
D27*
%TO.C,R54*%
X154736800Y-110111000D03*
X154736800Y-109091000D03*
%TD*%
D31*
%TO.C,Y1*%
X150365000Y-56723000D03*
X150365000Y-54523000D03*
X148765000Y-54523000D03*
X148765000Y-56723000D03*
%TD*%
D25*
%TO.C,R25*%
X170385200Y-106426000D03*
X169365200Y-106426000D03*
%TD*%
D32*
%TO.C,L3*%
X143256000Y-90447000D03*
X143256000Y-91417000D03*
%TD*%
D33*
%TO.C,C32*%
X148082000Y-89055000D03*
X148082000Y-90015000D03*
%TD*%
D25*
%TO.C,R50*%
X149912800Y-102870000D03*
X148892800Y-102870000D03*
%TD*%
D34*
%TO.C,C17*%
X167284400Y-43710800D03*
X167284400Y-42750800D03*
%TD*%
D35*
%TO.C,U4*%
X164404400Y-53637800D03*
X163904400Y-53637800D03*
X163404400Y-53637800D03*
X162904400Y-53637800D03*
X162404400Y-53637800D03*
D36*
X161990400Y-54551800D03*
D37*
X161990400Y-55052800D03*
D38*
X161990400Y-55556800D03*
D35*
X162404400Y-56465800D03*
X162904400Y-56465800D03*
D39*
X163405400Y-56465800D03*
D35*
X163904400Y-56465800D03*
X164404400Y-56465800D03*
D38*
X164818400Y-55556800D03*
D36*
X164818400Y-55051800D03*
X164818400Y-54551800D03*
%TD*%
D28*
%TO.C,C23*%
X143736000Y-73279000D03*
X142776000Y-73279000D03*
%TD*%
%TO.C,C16*%
X166748400Y-48869600D03*
X165788400Y-48869600D03*
%TD*%
D25*
%TO.C,R4*%
X146306000Y-57931269D03*
X145286000Y-57931269D03*
%TD*%
D40*
%TO.C,F3*%
X145643600Y-118183900D03*
X145643600Y-116308900D03*
%TD*%
D25*
%TO.C,R55*%
X154688000Y-98044000D03*
X153668000Y-98044000D03*
%TD*%
D41*
%TO.C,C14*%
X148567200Y-58166000D03*
X149527200Y-58166000D03*
%TD*%
D42*
%TO.C,C10*%
X158359789Y-66665789D03*
X159038611Y-67344611D03*
%TD*%
D28*
%TO.C,C49*%
X149832000Y-109855000D03*
X148872000Y-109855000D03*
%TD*%
D43*
%TO.C,U6*%
X146939000Y-92186000D03*
X146939000Y-91686000D03*
X146939000Y-91186000D03*
X146939000Y-90686000D03*
X146939000Y-90186000D03*
X144399000Y-90186000D03*
X144399000Y-90686000D03*
X144399000Y-91186000D03*
X144399000Y-91686000D03*
X144399000Y-92186000D03*
D44*
X145669000Y-91186000D03*
%TD*%
D28*
%TO.C,C42*%
X145463200Y-53721000D03*
X144503200Y-53721000D03*
%TD*%
D25*
%TO.C,R1*%
X146306000Y-59182000D03*
X145286000Y-59182000D03*
%TD*%
D34*
%TO.C,C4*%
X150266400Y-68958400D03*
X150266400Y-67998400D03*
%TD*%
D26*
%TO.C,R52*%
X150622000Y-104773000D03*
X150622000Y-105793000D03*
%TD*%
D45*
%TO.C,U11*%
X163677400Y-58686000D03*
X163677400Y-59956000D03*
X163677400Y-61226000D03*
X163677400Y-62496000D03*
X169367400Y-62496000D03*
X169367400Y-61226000D03*
X169367400Y-59956000D03*
X169367400Y-58686000D03*
D46*
X166522400Y-60591000D03*
%TD*%
D25*
%TO.C,R35*%
X166575200Y-89255600D03*
X165555200Y-89255600D03*
%TD*%
D47*
%TO.C,L1*%
X147472400Y-63601600D03*
X148442400Y-63601600D03*
%TD*%
D26*
%TO.C,R58*%
X154736800Y-111152000D03*
X154736800Y-112172000D03*
%TD*%
D41*
%TO.C,C41*%
X151031000Y-50546000D03*
X151991000Y-50546000D03*
%TD*%
D40*
%TO.C,F2*%
X145643600Y-106736966D03*
X145643600Y-104861966D03*
%TD*%
D48*
%TO.C,AE1*%
X142494000Y-65303600D03*
X142494000Y-68503600D03*
%TD*%
D24*
%TO.C,R32*%
X162050000Y-88036400D03*
X163070000Y-88036400D03*
%TD*%
D49*
%TO.C,D3*%
X168324800Y-77927200D03*
X165024800Y-77927200D03*
%TD*%
D28*
%TO.C,C28*%
X163802000Y-51181000D03*
X162842000Y-51181000D03*
%TD*%
D50*
%TO.C,C11*%
X154092589Y-55559011D03*
X154771411Y-54880189D03*
%TD*%
D41*
%TO.C,C12*%
X160556000Y-61874400D03*
X161516000Y-61874400D03*
%TD*%
D25*
%TO.C,R51*%
X150065200Y-115112800D03*
X149045200Y-115112800D03*
%TD*%
%TO.C,R3*%
X146306000Y-56642000D03*
X145286000Y-56642000D03*
%TD*%
D27*
%TO.C,R30*%
X145796000Y-39626000D03*
X145796000Y-38606000D03*
%TD*%
D41*
%TO.C,C22*%
X164467600Y-52578000D03*
X165427600Y-52578000D03*
%TD*%
D25*
%TO.C,R17*%
X149862000Y-92202000D03*
X148842000Y-92202000D03*
%TD*%
D51*
%TO.C,FB2*%
X143891000Y-51308000D03*
X145541000Y-51308000D03*
%TD*%
D52*
%TO.C,R21*%
X157632400Y-120791700D03*
X157632400Y-117866700D03*
%TD*%
D28*
%TO.C,C26*%
X149070000Y-91186000D03*
X148110000Y-91186000D03*
%TD*%
D26*
%TO.C,R12*%
X149225000Y-72134000D03*
X149225000Y-73154000D03*
%TD*%
D40*
%TO.C,F5*%
X145643600Y-101013500D03*
X145643600Y-99138500D03*
%TD*%
D28*
%TO.C,C39*%
X169951289Y-57707400D03*
X168991289Y-57707400D03*
%TD*%
D53*
%TO.C,U3*%
X167789625Y-44742411D03*
X167289625Y-44742411D03*
X166789625Y-44742411D03*
X166289625Y-44742411D03*
D54*
X165562125Y-45469911D03*
X165562125Y-45969911D03*
X165562125Y-46469911D03*
X165562125Y-46969911D03*
D53*
X166289625Y-47697411D03*
X166789625Y-47697411D03*
X167289625Y-47697411D03*
X167789625Y-47697411D03*
D54*
X168517125Y-46969911D03*
X168517125Y-46469911D03*
X168517125Y-45969911D03*
X168517125Y-45469911D03*
%TD*%
D55*
%TO.C,R6*%
X160761624Y-65989200D03*
X160040376Y-65267952D03*
%TD*%
D25*
%TO.C,R47*%
X149102000Y-119888000D03*
X148082000Y-119888000D03*
%TD*%
D26*
%TO.C,R49*%
X154736800Y-117396800D03*
X154736800Y-118416800D03*
%TD*%
%TO.C,R29*%
X146939000Y-38606000D03*
X146939000Y-39626000D03*
%TD*%
D56*
%TO.C,U2*%
X156622600Y-48560200D03*
X156622600Y-47310200D03*
X156622600Y-46060200D03*
X156622600Y-44810200D03*
X154222600Y-44810200D03*
X154222600Y-46060200D03*
X154222600Y-47310200D03*
X154222600Y-48560200D03*
%TD*%
D49*
%TO.C,D4*%
X161365200Y-115011200D03*
X158065200Y-115011200D03*
%TD*%
D34*
%TO.C,C9*%
X149352000Y-60932000D03*
X149352000Y-59972000D03*
%TD*%
D24*
%TO.C,R19*%
X157986000Y-113284000D03*
X159006000Y-113284000D03*
%TD*%
D28*
%TO.C,C33*%
X158976000Y-110998000D03*
X158016000Y-110998000D03*
%TD*%
%TO.C,C50*%
X150035200Y-97942400D03*
X149075200Y-97942400D03*
%TD*%
D27*
%TO.C,R13*%
X150368000Y-73154000D03*
X150368000Y-72134000D03*
%TD*%
D25*
%TO.C,R20*%
X159006000Y-112014000D03*
X157986000Y-112014000D03*
%TD*%
D57*
%TO.C,U5*%
X151466000Y-75033000D03*
X150366000Y-75033000D03*
X149266000Y-75033000D03*
X148166000Y-75033000D03*
X147066000Y-75033000D03*
X145966000Y-75033000D03*
X144866000Y-75033000D03*
X143766000Y-75033000D03*
X142666000Y-75033000D03*
X142666000Y-84733000D03*
X143766000Y-84733000D03*
X144866000Y-84733000D03*
X145966000Y-84733000D03*
X147066000Y-84733000D03*
X148166000Y-84733000D03*
X149266000Y-84733000D03*
X150366000Y-84733000D03*
X151466000Y-84733000D03*
%TD*%
D25*
%TO.C,R2*%
X146306000Y-60452000D03*
X145286000Y-60452000D03*
%TD*%
D26*
%TO.C,R11*%
X148234400Y-71067200D03*
X148234400Y-72087200D03*
%TD*%
D58*
%TO.C,L2*%
X149059853Y-65874947D03*
X149745747Y-65189053D03*
%TD*%
D41*
%TO.C,C21*%
X165737600Y-55524400D03*
X166697600Y-55524400D03*
%TD*%
D34*
%TO.C,C1*%
X147472400Y-62608400D03*
X147472400Y-61648400D03*
%TD*%
D28*
%TO.C,C5*%
X149273200Y-67716400D03*
X148313200Y-67716400D03*
%TD*%
D25*
%TO.C,R18*%
X163550000Y-45847000D03*
X162530000Y-45847000D03*
%TD*%
D41*
%TO.C,C20*%
X165737600Y-54660800D03*
X166697600Y-54660800D03*
%TD*%
D25*
%TO.C,R23*%
X170486800Y-113436400D03*
X169466800Y-113436400D03*
%TD*%
D24*
%TO.C,R43*%
X167993600Y-84277200D03*
X169013600Y-84277200D03*
%TD*%
D55*
%TO.C,R7*%
X161396624Y-65333824D03*
X160675376Y-64612576D03*
%TD*%
D24*
%TO.C,R9*%
X165098000Y-43942000D03*
X166118000Y-43942000D03*
%TD*%
D41*
%TO.C,C13*%
X160556000Y-60909200D03*
X161516000Y-60909200D03*
%TD*%
D25*
%TO.C,R56*%
X149100000Y-113665000D03*
X148080000Y-113665000D03*
%TD*%
D34*
%TO.C,C19*%
X169773600Y-46860400D03*
X169773600Y-45900400D03*
%TD*%
D28*
%TO.C,C36*%
X164716400Y-109169200D03*
X163756400Y-109169200D03*
%TD*%
D34*
%TO.C,C44*%
X167690800Y-57020400D03*
X167690800Y-56060400D03*
%TD*%
D27*
%TO.C,R45*%
X154736800Y-116384800D03*
X154736800Y-115364800D03*
%TD*%
D26*
%TO.C,R5*%
X150266400Y-66038000D03*
X150266400Y-67058000D03*
%TD*%
D27*
%TO.C,R28*%
X150241000Y-37086000D03*
X150241000Y-36066000D03*
%TD*%
D25*
%TO.C,FB1*%
X146001200Y-72237600D03*
X144981200Y-72237600D03*
%TD*%
D28*
%TO.C,C30*%
X145740000Y-87376000D03*
X144780000Y-87376000D03*
%TD*%
D40*
%TO.C,F4*%
X145643600Y-112460432D03*
X145643600Y-110585432D03*
%TD*%
D34*
%TO.C,C38*%
X165608000Y-117523200D03*
X165608000Y-116563200D03*
%TD*%
D59*
%TO.C,D11*%
X159357926Y-81125926D03*
X157024474Y-78792474D03*
%TD*%
D26*
%TO.C,R48*%
X154736800Y-105154000D03*
X154736800Y-106174000D03*
%TD*%
D60*
%TO.C,U8*%
X170214600Y-119250600D03*
X167914600Y-119250600D03*
X165614600Y-119250600D03*
D61*
X167914600Y-125300600D03*
%TD*%
D25*
%TO.C,R57*%
X149049200Y-101701600D03*
X148029200Y-101701600D03*
%TD*%
D41*
%TO.C,C31*%
X160909000Y-50038000D03*
X161869000Y-50038000D03*
%TD*%
D28*
%TO.C,C40*%
X169948800Y-56794400D03*
X168988800Y-56794400D03*
%TD*%
%TO.C,C43*%
X145463200Y-52705000D03*
X144503200Y-52705000D03*
%TD*%
D62*
%TO.C,C7*%
X150402611Y-64550611D03*
X149723789Y-63871789D03*
%TD*%
D28*
%TO.C,C47*%
X149882800Y-103784400D03*
X148922800Y-103784400D03*
%TD*%
D33*
%TO.C,C45*%
X166624000Y-49913600D03*
X166624000Y-50873600D03*
%TD*%
D25*
%TO.C,R61*%
X150065200Y-97028000D03*
X149045200Y-97028000D03*
%TD*%
D63*
%TO.C,Q1*%
X158074400Y-74754500D03*
X156174400Y-74754500D03*
X157124400Y-76629500D03*
%TD*%
D26*
%TO.C,R62*%
X150622000Y-110869000D03*
X150622000Y-111889000D03*
%TD*%
D34*
%TO.C,C25*%
X143891000Y-88364000D03*
X143891000Y-87404000D03*
%TD*%
D26*
%TO.C,R63*%
X150723600Y-98956400D03*
X150723600Y-99976400D03*
%TD*%
D28*
%TO.C,C29*%
X163774000Y-50038000D03*
X162814000Y-50038000D03*
%TD*%
D26*
%TO.C,R31*%
X152019000Y-38606000D03*
X152019000Y-39626000D03*
%TD*%
D41*
%TO.C,C15*%
X149126000Y-53086000D03*
X150086000Y-53086000D03*
%TD*%
D34*
%TO.C,C18*%
X157988000Y-48359000D03*
X157988000Y-47399000D03*
%TD*%
D25*
%TO.C,R10*%
X155958000Y-43434000D03*
X154938000Y-43434000D03*
%TD*%
D34*
%TO.C,C2*%
X148449000Y-62621000D03*
X148449000Y-61661000D03*
%TD*%
D25*
%TO.C,R40*%
X166422800Y-63855600D03*
X165402800Y-63855600D03*
%TD*%
D28*
%TO.C,C48*%
X150035200Y-116027200D03*
X149075200Y-116027200D03*
%TD*%
D34*
%TO.C,C8*%
X150241000Y-60932000D03*
X150241000Y-59972000D03*
%TD*%
D26*
%TO.C,R53*%
X150672800Y-116990400D03*
X150672800Y-118010400D03*
%TD*%
D41*
%TO.C,C35*%
X167972800Y-117348000D03*
X168932800Y-117348000D03*
%TD*%
D24*
%TO.C,R22*%
X159916400Y-110998000D03*
X160936400Y-110998000D03*
%TD*%
D25*
%TO.C,R26*%
X166364000Y-57191000D03*
X165344000Y-57191000D03*
%TD*%
%TO.C,R46*%
X149051200Y-107594400D03*
X148031200Y-107594400D03*
%TD*%
D64*
%TO.C,J1*%
X144399000Y-55372000D03*
D65*
X144399000Y-56642000D03*
X144399000Y-57912000D03*
X144399000Y-59182000D03*
X144399000Y-60452000D03*
X144399000Y-61722000D03*
%TD*%
D66*
%TO.C,J2*%
X165100000Y-130280800D03*
X157480000Y-130280800D03*
X152400000Y-130280800D03*
X160020000Y-130280800D03*
D67*
X160337500Y-125907800D03*
X157162500Y-125907800D03*
%TD*%
D68*
%TO.C,J4*%
X163578000Y-68449800D03*
X163578000Y-69299800D03*
X163578000Y-70149800D03*
X163578000Y-70999800D03*
X163578000Y-71849800D03*
X163578000Y-72699800D03*
X163578000Y-73549800D03*
X163578000Y-74399800D03*
X164928000Y-74399800D03*
X164928000Y-73549800D03*
X164928000Y-72699800D03*
X164928000Y-71849800D03*
X164928000Y-70999800D03*
X164928000Y-70149800D03*
X164928000Y-69299800D03*
X164928000Y-68449800D03*
D69*
X164078000Y-75749800D03*
D70*
X168378000Y-75749800D03*
X168378000Y-67099800D03*
D69*
X164078000Y-67099800D03*
%TD*%
D71*
%TO.C,J10*%
X152600000Y-108474333D03*
X152600000Y-105934333D03*
%TD*%
D72*
%TO.C,J5*%
X154627000Y-34594800D03*
X163127000Y-34594800D03*
%TD*%
D73*
%TO.C,ANT2*%
X146928000Y-87376000D03*
%TD*%
D71*
%TO.C,J12*%
X152600000Y-114547666D03*
X152600000Y-112007666D03*
%TD*%
D74*
%TO.C,LS1*%
X155575000Y-70114000D03*
D73*
X155575000Y-77714000D03*
%TD*%
D71*
%TO.C,J13*%
X152600000Y-102401000D03*
X152600000Y-99861000D03*
%TD*%
D75*
%TO.C,J3*%
X159562800Y-118059200D03*
X159562800Y-120599200D03*
%TD*%
D71*
%TO.C,J11*%
X152600000Y-120620999D03*
X152600000Y-118080999D03*
%TD*%
D76*
%TO.C,J9*%
X170078400Y-100507800D03*
D77*
X170078400Y-97667300D03*
%TD*%
M02*
